<!-- Created with Inkscape (http://www.inkscape.org/) -->
<svg xmlns:inkscape="http://www.inkscape.org/namespaces/inkscape" xmlns:sodipodi="http://sodipodi.sourceforge.net/DTD/sodipodi-0.dtd" xmlns="http://www.w3.org/2000/svg" xmlns:svg="http://www.w3.org/2000/svg" width="219.7mm" height="196.6mm" viewBox="0 0 219.7 196.6" version="1.1" id="svg5" inkscape:version="1.1.2 (0a00cf5339, 2022-02-04)" sodipodi:docname="blank.svg">
  <sodipodi:namedview id="namedview7" pagecolor="#ffffff" bordercolor="#666666" borderopacity="1.0" inkscape:pageshadow="2" inkscape:pageopacity="0.0" inkscape:pagecheckerboard="0" inkscape:document-units="mm" showgrid="false" inkscape:zoom="0.64052329" inkscape:cx="397.33138" inkscape:cy="561.25984" inkscape:window-width="2086" inkscape:window-height="1376" inkscape:window-x="0" inkscape:window-y="0" inkscape:window-maximized="1" inkscape:current-layer="layer1"/>
  <defs id="defs2"/>
  <g inkscape:label="Layer 1" inkscape:groupmode="layer" id="layer1">
    <metadata text="createArgs=['--unit=mm', '--inside=1', '--length=75', '--width=75', '--depth=20', '--thickness=2', '--style=1', '--boxtype=2', '--tab=3', '--div_l=3', '--div_w=4', '--div_l_spacing=10;5;10', '--div_w_spacing=10;5', '--spacing=1', '--keydiv=0', '--hairline=1', '--kerf=0.1']"/>
    <path id="piece_001" style="fill:none;stroke:#000000;stroke-width:0.0508" d="M 24.1 107.55 L 26.1 107.55 L 26.1 110.45 L 24.1 110.45 L 24.1 113.8 L 26.1 113.8 L 26.1 116.7 L 24.1 116.7 L 24.1 120.05 L 26.1 120.05 L 26.1 122.95 L 24.1 122.95 L 24.1 126.3 L 103.2 126.3 L 103.2 122.95 L 101.2 122.95 L 101.2 120.05 L 103.2 120.05 L 103.2 116.7 L 101.2 116.7 L 101.2 113.8 L 103.2 113.8 L 103.2 110.45 L 101.2 110.45 L 101.2 107.55 L 103.2 107.55 L 103.2 106.2 L 99.8923 106.2 L 99.8923 104.2 L 96.7923 104.2 L 96.7923 106.2 L 93.5846 106.2 L 93.5846 104.2 L 90.4846 104.2 L 90.4846 106.2 L 87.2769 106.2 L 87.2769 104.2 L 84.1769 104.2 L 84.1769 106.2 L 80.9692 106.2 L 80.9692 104.2 L 77.8692 104.2 L 77.8692 106.2 L 74.6615 106.2 L 74.6615 104.2 L 71.5615 104.2 L 71.5615 106.2 L 68.3538 106.2 L 68.3538 104.2 L 65.2538 104.2 L 65.2538 106.2 L 62.0462 106.2 L 62.0462 104.2 L 58.9462 104.2 L 58.9462 106.2 L 55.7385 106.2 L 55.7385 104.2 L 52.6385 104.2 L 52.6385 106.2 L 49.4308 106.2 L 49.4308 104.2 L 46.3308 104.2 L 46.3308 106.2 L 43.1231 106.2 L 43.1231 104.2 L 40.0231 104.2 L 40.0231 106.2 L 36.8154 106.2 L 36.8154 104.2 L 33.7154 104.2 L 33.7154 106.2 L 30.5077 106.2 L 30.5077 104.2 L 27.4077 104.2 L 27.4077 106.2 L 24.1 106.2 L 24.1 107.55 Z M 36.3 107.6 L 38.2 107.6 L 38.2 110.5 L 36.3 110.5 L 36.3 107.6 Z M 36.3 113.85 L 38.2 113.85 L 38.2 116.75 L 36.3 116.75 L 36.3 113.85 Z M 36.3 120.1 L 38.2 120.1 L 38.2 123 L 36.3 123 L 36.3 120.1 Z M 43.3 107.6 L 45.2 107.6 L 45.2 110.5 L 43.3 110.5 L 43.3 107.6 Z M 43.3 113.85 L 45.2 113.85 L 45.2 116.75 L 43.3 116.75 L 43.3 113.85 Z M 43.3 120.1 L 45.2 120.1 L 45.2 123 L 43.3 123 L 43.3 120.1 Z M 62.6333 107.6 L 64.5333 107.6 L 64.5333 110.5 L 62.6333 110.5 L 62.6333 107.6 Z M 62.6333 113.85 L 64.5333 113.85 L 64.5333 116.75 L 62.6333 116.75 L 62.6333 113.85 Z M 62.6333 120.1 L 64.5333 120.1 L 64.5333 123 L 62.6333 123 L 62.6333 120.1 Z M 81.9667 107.6 L 83.8667 107.6 L 83.8667 110.5 L 81.9667 110.5 L 81.9667 107.6 Z M 81.9667 113.85 L 83.8667 113.85 L 83.8667 116.75 L 81.9667 116.75 L 81.9667 113.85 Z M 81.9667 120.1 L 83.8667 120.1 L 83.8667 123 L 81.9667 123 L 81.9667 120.1 Z"/>
    <path id="xdivider_001" style="fill:none;stroke:#000000;stroke-width:0.0508" d="M 24.1 130.65 L 26.1 130.65 L 26.1 133.55 L 24.1 133.55 L 24.1 136.9 L 26.1 136.9 L 26.1 139.8 L 24.1 139.8 L 24.1 143.15 L 26.1 143.15 L 26.1 146.05 L 24.1 146.05 L 24.1 149.4 L 103.2 149.4 L 103.2 146.05 L 101.2 146.05 L 101.2 143.15 L 103.2 143.15 L 103.2 139.8 L 101.2 139.8 L 101.2 136.9 L 103.2 136.9 L 103.2 133.55 L 101.2 133.55 L 101.2 130.65 L 103.2 130.65 L 103.2 129.3 L 99.8923 129.3 L 99.8923 127.3 L 96.7923 127.3 L 96.7923 129.3 L 93.5846 129.3 L 93.5846 127.3 L 90.4846 127.3 L 90.4846 129.3 L 87.2769 129.3 L 87.2769 127.3 L 84.1769 127.3 L 84.1769 129.3 L 83.7667 129.3 L 83.7667 139.3 L 81.8667 139.3 L 81.8667 129.3 L 80.9692 129.3 L 80.9692 127.3 L 77.8692 127.3 L 77.8692 129.3 L 74.6615 129.3 L 74.6615 127.3 L 71.5615 127.3 L 71.5615 129.3 L 68.3538 129.3 L 68.3538 127.3 L 65.2538 127.3 L 65.2538 129.3 L 64.4333 129.3 L 64.4333 139.3 L 62.5333 139.3 L 62.5333 129.3 L 62.0462 129.3 L 62.0462 127.3 L 58.9462 127.3 L 58.9462 129.3 L 55.7385 129.3 L 55.7385 127.3 L 52.6385 127.3 L 52.6385 129.3 L 49.4308 129.3 L 49.4308 127.3 L 46.3308 127.3 L 46.3308 129.3 L 45.1 129.3 L 45.1 139.3 L 43.2 139.3 L 43.2 129.3 L 43.1231 129.3 L 43.1231 127.3 L 40.0231 127.3 L 40.0231 129.3 L 38.1 129.3 L 38.1 139.3 L 36.2 139.3 L 36.2 127.3 L 33.7154 127.3 L 33.7154 129.3 L 30.5077 129.3 L 30.5077 127.3 L 27.4077 127.3 L 27.4077 129.3 L 24.1 129.3 L 24.1 130.65 Z"/>
    <path id="xdivider_002" style="fill:none;stroke:#000000;stroke-width:0.0508" d="M 24.1 153.75 L 26.1 153.75 L 26.1 156.65 L 24.1 156.65 L 24.1 160 L 26.1 160 L 26.1 162.9 L 24.1 162.9 L 24.1 166.25 L 26.1 166.25 L 26.1 169.15 L 24.1 169.15 L 24.1 172.5 L 103.2 172.5 L 103.2 169.15 L 101.2 169.15 L 101.2 166.25 L 103.2 166.25 L 103.2 162.9 L 101.2 162.9 L 101.2 160 L 103.2 160 L 103.2 156.65 L 101.2 156.65 L 101.2 153.75 L 103.2 153.75 L 103.2 152.4 L 99.8923 152.4 L 99.8923 150.4 L 96.7923 150.4 L 96.7923 152.4 L 93.5846 152.4 L 93.5846 150.4 L 90.4846 150.4 L 90.4846 152.4 L 87.2769 152.4 L 87.2769 150.4 L 84.1769 150.4 L 84.1769 152.4 L 83.7667 152.4 L 83.7667 162.4 L 81.8667 162.4 L 81.8667 152.4 L 80.9692 152.4 L 80.9692 150.4 L 77.8692 150.4 L 77.8692 152.4 L 74.6615 152.4 L 74.6615 150.4 L 71.5615 150.4 L 71.5615 152.4 L 68.3538 152.4 L 68.3538 150.4 L 65.2538 150.4 L 65.2538 152.4 L 64.4333 152.4 L 64.4333 162.4 L 62.5333 162.4 L 62.5333 152.4 L 62.0462 152.4 L 62.0462 150.4 L 58.9462 150.4 L 58.9462 152.4 L 55.7385 152.4 L 55.7385 150.4 L 52.6385 150.4 L 52.6385 152.4 L 49.4308 152.4 L 49.4308 150.4 L 46.3308 150.4 L 46.3308 152.4 L 45.1 152.4 L 45.1 162.4 L 43.2 162.4 L 43.2 152.4 L 43.1231 152.4 L 43.1231 150.4 L 40.0231 150.4 L 40.0231 152.4 L 38.1 152.4 L 38.1 162.4 L 36.2 162.4 L 36.2 150.4 L 33.7154 150.4 L 33.7154 152.4 L 30.5077 152.4 L 30.5077 150.4 L 27.4077 150.4 L 27.4077 152.4 L 24.1 152.4 L 24.1 153.75 Z"/>
    <path id="xdivider_003" style="fill:none;stroke:#000000;stroke-width:0.0508" d="M 24.1 176.85 L 26.1 176.85 L 26.1 179.75 L 24.1 179.75 L 24.1 183.1 L 26.1 183.1 L 26.1 186 L 24.1 186 L 24.1 189.35 L 26.1 189.35 L 26.1 192.25 L 24.1 192.25 L 24.1 195.6 L 103.2 195.6 L 103.2 192.25 L 101.2 192.25 L 101.2 189.35 L 103.2 189.35 L 103.2 186 L 101.2 186 L 101.2 183.1 L 103.2 183.1 L 103.2 179.75 L 101.2 179.75 L 101.2 176.85 L 103.2 176.85 L 103.2 175.5 L 99.8923 175.5 L 99.8923 173.5 L 96.7923 173.5 L 96.7923 175.5 L 93.5846 175.5 L 93.5846 173.5 L 90.4846 173.5 L 90.4846 175.5 L 87.2769 175.5 L 87.2769 173.5 L 84.1769 173.5 L 84.1769 175.5 L 83.7667 175.5 L 83.7667 185.5 L 81.8667 185.5 L 81.8667 175.5 L 80.9692 175.5 L 80.9692 173.5 L 77.8692 173.5 L 77.8692 175.5 L 74.6615 175.5 L 74.6615 173.5 L 71.5615 173.5 L 71.5615 175.5 L 68.3538 175.5 L 68.3538 173.5 L 65.2538 173.5 L 65.2538 175.5 L 64.4333 175.5 L 64.4333 185.5 L 62.5333 185.5 L 62.5333 175.5 L 62.0462 175.5 L 62.0462 173.5 L 58.9462 173.5 L 58.9462 175.5 L 55.7385 175.5 L 55.7385 173.5 L 52.6385 173.5 L 52.6385 175.5 L 49.4308 175.5 L 49.4308 173.5 L 46.3308 173.5 L 46.3308 175.5 L 45.1 175.5 L 45.1 185.5 L 43.2 185.5 L 43.2 175.5 L 43.1231 175.5 L 43.1231 173.5 L 40.0231 173.5 L 40.0231 175.5 L 38.1 175.5 L 38.1 185.5 L 36.2 185.5 L 36.2 173.5 L 33.7154 173.5 L 33.7154 175.5 L 30.5077 175.5 L 30.5077 173.5 L 27.4077 173.5 L 27.4077 175.5 L 24.1 175.5 L 24.1 176.85 Z"/>
    <path id="piece_002" style="fill:none;stroke:#000000;stroke-width:0.0508" d="M 1 101.2 L 4.25 101.2 L 4.25 103.2 L 7.35 103.2 L 7.35 101.2 L 10.5 101.2 L 10.5 103.2 L 13.6 103.2 L 13.6 101.2 L 16.75 101.2 L 16.75 103.2 L 19.85 103.2 L 19.85 101.2 L 21.1 101.2 L 21.1 99.8923 L 23.1 99.8923 L 23.1 96.7923 L 21.1 96.7923 L 21.1 93.5846 L 23.1 93.5846 L 23.1 90.4846 L 21.1 90.4846 L 21.1 87.2769 L 23.1 87.2769 L 23.1 84.1769 L 21.1 84.1769 L 21.1 80.9692 L 23.1 80.9692 L 23.1 77.8692 L 21.1 77.8692 L 21.1 74.6615 L 23.1 74.6615 L 23.1 71.5615 L 21.1 71.5615 L 21.1 68.3538 L 23.1 68.3538 L 23.1 65.2538 L 21.1 65.2538 L 21.1 62.0462 L 23.1 62.0462 L 23.1 58.9462 L 21.1 58.9462 L 21.1 55.7385 L 23.1 55.7385 L 23.1 52.6385 L 21.1 52.6385 L 21.1 49.4308 L 23.1 49.4308 L 23.1 46.3308 L 21.1 46.3308 L 21.1 43.1231 L 23.1 43.1231 L 23.1 40.0231 L 21.1 40.0231 L 21.1 36.8154 L 23.1 36.8154 L 23.1 33.7154 L 21.1 33.7154 L 21.1 30.5077 L 23.1 30.5077 L 23.1 27.4077 L 21.1 27.4077 L 21.1 26.1 L 19.85 26.1 L 19.85 24.1 L 16.75 24.1 L 16.75 26.1 L 13.6 26.1 L 13.6 24.1 L 10.5 24.1 L 10.5 26.1 L 7.35 26.1 L 7.35 24.1 L 4.25 24.1 L 4.25 26.1 L 1 26.1 L 1 101.2 Z M 1.05 70.1 L 4.2 70.1 L 4.2 72 L 1.05 72 L 1.05 70.1 Z M 1.05 82.1 L 4.2 82.1 L 4.2 84 L 1.05 84 L 1.05 82.1 Z M 1.05 89.1 L 4.2 89.1 L 4.2 91 L 1.05 91 L 1.05 89.1 Z M 13.55 70.1 L 16.7 70.1 L 16.7 72 L 13.55 72 L 13.55 70.1 Z M 13.55 82.1 L 16.7 82.1 L 16.7 84 L 13.55 84 L 13.55 82.1 Z M 13.55 89.1 L 16.7 89.1 L 16.7 91 L 13.55 91 L 13.55 89.1 Z M 19.8 70.1 L 20.95 70.1 L 20.95 72 L 19.8 72 L 19.8 70.1 Z M 19.8 82.1 L 20.95 82.1 L 20.95 84 L 19.8 84 L 19.8 82.1 Z M 19.8 89.1 L 20.95 89.1 L 20.95 91 L 19.8 91 L 19.8 89.1 Z M 7.3 70.1 L 10.45 70.1 L 10.45 72 L 7.3 72 L 7.3 70.1 Z M 7.3 82.1 L 10.45 82.1 L 10.45 84 L 7.3 84 L 7.3 82.1 Z M 7.3 89.1 L 10.45 89.1 L 10.45 91 L 7.3 91 L 7.3 89.1 Z"/>
    <path id="ydivider_001" style="fill:none;stroke:#000000;stroke-width:0.0508" d="M 127.3 70.2 L 137.3 70.2 L 137.3 72.1 L 127.3 72.1 L 127.3 82.2 L 137.3 82.2 L 137.3 84.1 L 127.3 84.1 L 127.3 89.2 L 137.3 89.2 L 137.3 91.1 L 127.3 91.1 L 127.3 101.2 L 130.55 101.2 L 130.55 103.2 L 133.65 103.2 L 133.65 101.2 L 136.8 101.2 L 136.8 103.2 L 139.9 103.2 L 139.9 101.2 L 143.05 101.2 L 143.05 103.2 L 146.15 103.2 L 146.15 101.2 L 147.4 101.2 L 147.4 99.8923 L 149.4 99.8923 L 149.4 96.7923 L 147.4 96.7923 L 147.4 93.5846 L 149.4 93.5846 L 149.4 90.4846 L 147.4 90.4846 L 147.4 87.2769 L 149.4 87.2769 L 149.4 84.1769 L 147.4 84.1769 L 147.4 80.9692 L 149.4 80.9692 L 149.4 77.8692 L 147.4 77.8692 L 147.4 74.6615 L 149.4 74.6615 L 149.4 71.5615 L 147.4 71.5615 L 147.4 68.3538 L 149.4 68.3538 L 149.4 65.2538 L 147.4 65.2538 L 147.4 62.0462 L 149.4 62.0462 L 149.4 58.9462 L 147.4 58.9462 L 147.4 55.7385 L 149.4 55.7385 L 149.4 52.6385 L 147.4 52.6385 L 147.4 49.4308 L 149.4 49.4308 L 149.4 46.3308 L 147.4 46.3308 L 147.4 43.1231 L 149.4 43.1231 L 149.4 40.0231 L 147.4 40.0231 L 147.4 36.8154 L 149.4 36.8154 L 149.4 33.7154 L 147.4 33.7154 L 147.4 30.5077 L 149.4 30.5077 L 149.4 27.4077 L 147.4 27.4077 L 147.4 26.1 L 146.15 26.1 L 146.15 24.1 L 143.05 24.1 L 143.05 26.1 L 139.9 26.1 L 139.9 24.1 L 136.8 24.1 L 136.8 26.1 L 133.65 26.1 L 133.65 24.1 L 130.55 24.1 L 130.55 26.1 L 127.3 26.1 L 127.3 70.2 Z"/>
    <path id="ydivider_002" style="fill:none;stroke:#000000;stroke-width:0.0508" d="M 150.4 70.2 L 160.4 70.2 L 160.4 72.1 L 150.4 72.1 L 150.4 82.2 L 160.4 82.2 L 160.4 84.1 L 150.4 84.1 L 150.4 89.2 L 160.4 89.2 L 160.4 91.1 L 150.4 91.1 L 150.4 101.2 L 153.65 101.2 L 153.65 103.2 L 156.75 103.2 L 156.75 101.2 L 159.9 101.2 L 159.9 103.2 L 163 103.2 L 163 101.2 L 166.15 101.2 L 166.15 103.2 L 169.25 103.2 L 169.25 101.2 L 170.5 101.2 L 170.5 99.8923 L 172.5 99.8923 L 172.5 96.7923 L 170.5 96.7923 L 170.5 93.5846 L 172.5 93.5846 L 172.5 90.4846 L 170.5 90.4846 L 170.5 87.2769 L 172.5 87.2769 L 172.5 84.1769 L 170.5 84.1769 L 170.5 80.9692 L 172.5 80.9692 L 172.5 77.8692 L 170.5 77.8692 L 170.5 74.6615 L 172.5 74.6615 L 172.5 71.5615 L 170.5 71.5615 L 170.5 68.3538 L 172.5 68.3538 L 172.5 65.2538 L 170.5 65.2538 L 170.5 62.0462 L 172.5 62.0462 L 172.5 58.9462 L 170.5 58.9462 L 170.5 55.7385 L 172.5 55.7385 L 172.5 52.6385 L 170.5 52.6385 L 170.5 49.4308 L 172.5 49.4308 L 172.5 46.3308 L 170.5 46.3308 L 170.5 43.1231 L 172.5 43.1231 L 172.5 40.0231 L 170.5 40.0231 L 170.5 36.8154 L 172.5 36.8154 L 172.5 33.7154 L 170.5 33.7154 L 170.5 30.5077 L 172.5 30.5077 L 172.5 27.4077 L 170.5 27.4077 L 170.5 26.1 L 169.25 26.1 L 169.25 24.1 L 166.15 24.1 L 166.15 26.1 L 163 26.1 L 163 24.1 L 159.9 24.1 L 159.9 26.1 L 156.75 26.1 L 156.75 24.1 L 153.65 24.1 L 153.65 26.1 L 150.4 26.1 L 150.4 70.2 Z"/>
    <path id="ydivider_003" style="fill:none;stroke:#000000;stroke-width:0.0508" d="M 173.5 70.2 L 183.5 70.2 L 183.5 72.1 L 173.5 72.1 L 173.5 82.2 L 183.5 82.2 L 183.5 84.1 L 173.5 84.1 L 173.5 89.2 L 183.5 89.2 L 183.5 91.1 L 173.5 91.1 L 173.5 101.2 L 176.75 101.2 L 176.75 103.2 L 179.85 103.2 L 179.85 101.2 L 183 101.2 L 183 103.2 L 186.1 103.2 L 186.1 101.2 L 189.25 101.2 L 189.25 103.2 L 192.35 103.2 L 192.35 101.2 L 193.6 101.2 L 193.6 99.8923 L 195.6 99.8923 L 195.6 96.7923 L 193.6 96.7923 L 193.6 93.5846 L 195.6 93.5846 L 195.6 90.4846 L 193.6 90.4846 L 193.6 87.2769 L 195.6 87.2769 L 195.6 84.1769 L 193.6 84.1769 L 193.6 80.9692 L 195.6 80.9692 L 195.6 77.8692 L 193.6 77.8692 L 193.6 74.6615 L 195.6 74.6615 L 195.6 71.5615 L 193.6 71.5615 L 193.6 68.3538 L 195.6 68.3538 L 195.6 65.2538 L 193.6 65.2538 L 193.6 62.0462 L 195.6 62.0462 L 195.6 58.9462 L 193.6 58.9462 L 193.6 55.7385 L 195.6 55.7385 L 195.6 52.6385 L 193.6 52.6385 L 193.6 49.4308 L 195.6 49.4308 L 195.6 46.3308 L 193.6 46.3308 L 193.6 43.1231 L 195.6 43.1231 L 195.6 40.0231 L 193.6 40.0231 L 193.6 36.8154 L 195.6 36.8154 L 195.6 33.7154 L 193.6 33.7154 L 193.6 30.5077 L 195.6 30.5077 L 195.6 27.4077 L 193.6 27.4077 L 193.6 26.1 L 192.35 26.1 L 192.35 24.1 L 189.25 24.1 L 189.25 26.1 L 186.1 26.1 L 186.1 24.1 L 183 24.1 L 183 26.1 L 179.85 26.1 L 179.85 24.1 L 176.75 24.1 L 176.75 26.1 L 173.5 26.1 L 173.5 70.2 Z"/>
    <path id="ydivider_004" style="fill:none;stroke:#000000;stroke-width:0.0508" d="M 196.6 70.2 L 206.6 70.2 L 206.6 72.1 L 196.6 72.1 L 196.6 82.2 L 206.6 82.2 L 206.6 84.1 L 196.6 84.1 L 196.6 89.2 L 206.6 89.2 L 206.6 91.1 L 196.6 91.1 L 196.6 101.2 L 199.85 101.2 L 199.85 103.2 L 202.95 103.2 L 202.95 101.2 L 206.1 101.2 L 206.1 103.2 L 209.2 103.2 L 209.2 101.2 L 212.35 101.2 L 212.35 103.2 L 215.45 103.2 L 215.45 101.2 L 216.7 101.2 L 216.7 99.8923 L 218.7 99.8923 L 218.7 96.7923 L 216.7 96.7923 L 216.7 93.5846 L 218.7 93.5846 L 218.7 90.4846 L 216.7 90.4846 L 216.7 87.2769 L 218.7 87.2769 L 218.7 84.1769 L 216.7 84.1769 L 216.7 80.9692 L 218.7 80.9692 L 218.7 77.8692 L 216.7 77.8692 L 216.7 74.6615 L 218.7 74.6615 L 218.7 71.5615 L 216.7 71.5615 L 216.7 68.3538 L 218.7 68.3538 L 218.7 65.2538 L 216.7 65.2538 L 216.7 62.0462 L 218.7 62.0462 L 218.7 58.9462 L 216.7 58.9462 L 216.7 55.7385 L 218.7 55.7385 L 218.7 52.6385 L 216.7 52.6385 L 216.7 49.4308 L 218.7 49.4308 L 218.7 46.3308 L 216.7 46.3308 L 216.7 43.1231 L 218.7 43.1231 L 218.7 40.0231 L 216.7 40.0231 L 216.7 36.8154 L 218.7 36.8154 L 218.7 33.7154 L 216.7 33.7154 L 216.7 30.5077 L 218.7 30.5077 L 218.7 27.4077 L 216.7 27.4077 L 216.7 26.1 L 215.45 26.1 L 215.45 24.1 L 212.35 24.1 L 212.35 26.1 L 209.2 26.1 L 209.2 24.1 L 206.1 24.1 L 206.1 26.1 L 202.95 26.1 L 202.95 24.1 L 199.85 24.1 L 199.85 26.1 L 196.6 26.1 L 196.6 70.2 Z"/>
    <path id="piece_003" style="fill:none;stroke:#000000;stroke-width:0.0508" d="M 24.1 27.5077 L 26.1 27.5077 L 26.1 30.4077 L 24.1 30.4077 L 24.1 33.8154 L 26.1 33.8154 L 26.1 36.7154 L 24.1 36.7154 L 24.1 40.1231 L 26.1 40.1231 L 26.1 43.0231 L 24.1 43.0231 L 24.1 46.4308 L 26.1 46.4308 L 26.1 49.3308 L 24.1 49.3308 L 24.1 52.7385 L 26.1 52.7385 L 26.1 55.6385 L 24.1 55.6385 L 24.1 59.0462 L 26.1 59.0462 L 26.1 61.9462 L 24.1 61.9462 L 24.1 65.3538 L 26.1 65.3538 L 26.1 68.2538 L 24.1 68.2538 L 24.1 71.6615 L 26.1 71.6615 L 26.1 74.5615 L 24.1 74.5615 L 24.1 77.9692 L 26.1 77.9692 L 26.1 80.8692 L 24.1 80.8692 L 24.1 84.2769 L 26.1 84.2769 L 26.1 87.1769 L 24.1 87.1769 L 24.1 90.5846 L 26.1 90.5846 L 26.1 93.4846 L 24.1 93.4846 L 24.1 96.8923 L 26.1 96.8923 L 26.1 99.7923 L 24.1 99.7923 L 24.1 103.2 L 27.5077 103.2 L 27.5077 101.2 L 30.4077 101.2 L 30.4077 103.2 L 33.8154 103.2 L 33.8154 101.2 L 36.7154 101.2 L 36.7154 103.2 L 40.1231 103.2 L 40.1231 101.2 L 43.0231 101.2 L 43.0231 103.2 L 46.4308 103.2 L 46.4308 101.2 L 49.3308 101.2 L 49.3308 103.2 L 52.7385 103.2 L 52.7385 101.2 L 55.6385 101.2 L 55.6385 103.2 L 59.0462 103.2 L 59.0462 101.2 L 61.9462 101.2 L 61.9462 103.2 L 65.3538 103.2 L 65.3538 101.2 L 68.2538 101.2 L 68.2538 103.2 L 71.6615 103.2 L 71.6615 101.2 L 74.5615 101.2 L 74.5615 103.2 L 77.9692 103.2 L 77.9692 101.2 L 80.8692 101.2 L 80.8692 103.2 L 84.2769 103.2 L 84.2769 101.2 L 87.1769 101.2 L 87.1769 103.2 L 90.5846 103.2 L 90.5846 101.2 L 93.4846 101.2 L 93.4846 103.2 L 96.8923 103.2 L 96.8923 101.2 L 99.7923 101.2 L 99.7923 103.2 L 103.2 103.2 L 103.2 99.7923 L 101.2 99.7923 L 101.2 96.8923 L 103.2 96.8923 L 103.2 93.4846 L 101.2 93.4846 L 101.2 90.5846 L 103.2 90.5846 L 103.2 87.1769 L 101.2 87.1769 L 101.2 84.2769 L 103.2 84.2769 L 103.2 80.8692 L 101.2 80.8692 L 101.2 77.9692 L 103.2 77.9692 L 103.2 74.5615 L 101.2 74.5615 L 101.2 71.6615 L 103.2 71.6615 L 103.2 68.2538 L 101.2 68.2538 L 101.2 65.3538 L 103.2 65.3538 L 103.2 61.9462 L 101.2 61.9462 L 101.2 59.0462 L 103.2 59.0462 L 103.2 55.6385 L 101.2 55.6385 L 101.2 52.7385 L 103.2 52.7385 L 103.2 49.3308 L 101.2 49.3308 L 101.2 46.4308 L 103.2 46.4308 L 103.2 43.0231 L 101.2 43.0231 L 101.2 40.1231 L 103.2 40.1231 L 103.2 36.7154 L 101.2 36.7154 L 101.2 33.8154 L 103.2 33.8154 L 103.2 30.4077 L 101.2 30.4077 L 101.2 27.5077 L 103.2 27.5077 L 103.2 24.1 L 99.7923 24.1 L 99.7923 26.1 L 96.8923 26.1 L 96.8923 24.1 L 93.4846 24.1 L 93.4846 26.1 L 90.5846 26.1 L 90.5846 24.1 L 87.1769 24.1 L 87.1769 26.1 L 84.2769 26.1 L 84.2769 24.1 L 80.8692 24.1 L 80.8692 26.1 L 77.9692 26.1 L 77.9692 24.1 L 74.5615 24.1 L 74.5615 26.1 L 71.6615 26.1 L 71.6615 24.1 L 68.2538 24.1 L 68.2538 26.1 L 65.3538 26.1 L 65.3538 24.1 L 61.9462 24.1 L 61.9462 26.1 L 59.0462 26.1 L 59.0462 24.1 L 55.6385 24.1 L 55.6385 26.1 L 52.7385 26.1 L 52.7385 24.1 L 49.3308 24.1 L 49.3308 26.1 L 46.4308 26.1 L 46.4308 24.1 L 43.0231 24.1 L 43.0231 26.1 L 40.1231 26.1 L 40.1231 24.1 L 36.7154 24.1 L 36.7154 26.1 L 33.8154 26.1 L 33.8154 24.1 L 30.4077 24.1 L 30.4077 26.1 L 27.5077 26.1 L 27.5077 24.1 L 24.1 24.1 L 24.1 27.5077 Z M 27.5577 70.1 L 30.4577 70.1 L 30.4577 72 L 27.5577 72 L 27.5577 70.1 Z M 27.5577 82.1 L 30.4577 82.1 L 30.4577 84 L 27.5577 84 L 27.5577 82.1 Z M 27.5577 89.1 L 30.4577 89.1 L 30.4577 91 L 27.5577 91 L 27.5577 89.1 Z M 33.8654 70.1 L 36.7654 70.1 L 36.7654 71.7115 L 38.2 71.7115 L 38.2 74.6115 L 36.3 74.6115 L 36.3 72 L 33.8654 72 L 33.8654 70.1 Z M 33.8654 82.1 L 36.7654 82.1 L 36.7654 84 L 33.8654 84 L 33.8654 82.1 Z M 33.8654 89.1 L 36.7654 89.1 L 36.7654 90.6346 L 38.2 90.6346 L 38.2 93.5346 L 36.3 93.5346 L 36.3 91 L 33.8654 91 L 33.8654 89.1 Z M 36.3 27.5577 L 38.2 27.5577 L 38.2 30.4577 L 36.3 30.4577 L 36.3 27.5577 Z M 36.3 33.8654 L 38.2 33.8654 L 38.2 36.7654 L 36.3 36.7654 L 36.3 33.8654 Z M 36.3 40.1731 L 38.2 40.1731 L 38.2 43.0731 L 36.3 43.0731 L 36.3 40.1731 Z M 36.3 46.4808 L 38.2 46.4808 L 38.2 49.3808 L 36.3 49.3808 L 36.3 46.4808 Z M 36.3 52.7885 L 38.2 52.7885 L 38.2 55.6885 L 36.3 55.6885 L 36.3 52.7885 Z M 36.3 59.0962 L 38.2 59.0962 L 38.2 61.9962 L 36.3 61.9962 L 36.3 59.0962 Z M 36.3 65.4038 L 38.2 65.4038 L 38.2 68.3038 L 36.3 68.3038 L 36.3 65.4038 Z M 36.3 78.0192 L 38.2 78.0192 L 38.2 80.9192 L 36.3 80.9192 L 36.3 78.0192 Z M 36.3 84.3269 L 38.2 84.3269 L 38.2 87.2269 L 36.3 87.2269 L 36.3 84.3269 Z M 36.3 96.9423 L 38.2 96.9423 L 38.2 99.8423 L 36.3 99.8423 L 36.3 96.9423 Z M 40.1731 70.1 L 43.0731 70.1 L 43.0731 72 L 40.1731 72 L 40.1731 70.1 Z M 40.1731 82.1 L 43.0731 82.1 L 43.0731 84 L 40.1731 84 L 40.1731 82.1 Z M 40.1731 89.1 L 43.0731 89.1 L 43.0731 91 L 40.1731 91 L 40.1731 89.1 Z M 43.3 27.5577 L 45.2 27.5577 L 45.2 30.4577 L 43.3 30.4577 L 43.3 27.5577 Z M 43.3 33.8654 L 45.2 33.8654 L 45.2 36.7654 L 43.3 36.7654 L 43.3 33.8654 Z M 43.3 40.1731 L 45.2 40.1731 L 45.2 43.0731 L 43.3 43.0731 L 43.3 40.1731 Z M 43.3 46.4808 L 45.2 46.4808 L 45.2 49.3808 L 43.3 49.3808 L 43.3 46.4808 Z M 43.3 52.7885 L 45.2 52.7885 L 45.2 55.6885 L 43.3 55.6885 L 43.3 52.7885 Z M 43.3 59.0962 L 45.2 59.0962 L 45.2 61.9962 L 43.3 61.9962 L 43.3 59.0962 Z M 43.3 65.4038 L 45.2 65.4038 L 45.2 68.3038 L 43.3 68.3038 L 43.3 65.4038 Z M 43.3 71.7115 L 45.2 71.7115 L 45.2 74.6115 L 43.3 74.6115 L 43.3 71.7115 Z M 43.3 78.0192 L 45.2 78.0192 L 45.2 80.9192 L 43.3 80.9192 L 43.3 78.0192 Z M 43.3 84.3269 L 45.2 84.3269 L 45.2 87.2269 L 43.3 87.2269 L 43.3 84.3269 Z M 43.3 90.6346 L 45.2 90.6346 L 45.2 93.5346 L 43.3 93.5346 L 43.3 90.6346 Z M 43.3 96.9423 L 45.2 96.9423 L 45.2 99.8423 L 43.3 99.8423 L 43.3 96.9423 Z M 46.4808 70.1 L 49.3808 70.1 L 49.3808 72 L 46.4808 72 L 46.4808 70.1 Z M 46.4808 82.1 L 49.3808 82.1 L 49.3808 84 L 46.4808 84 L 46.4808 82.1 Z M 46.4808 89.1 L 49.3808 89.1 L 49.3808 91 L 46.4808 91 L 46.4808 89.1 Z M 52.7885 70.1 L 55.6885 70.1 L 55.6885 72 L 52.7885 72 L 52.7885 70.1 Z M 52.7885 82.1 L 55.6885 82.1 L 55.6885 84 L 52.7885 84 L 52.7885 82.1 Z M 52.7885 89.1 L 55.6885 89.1 L 55.6885 91 L 52.7885 91 L 52.7885 89.1 Z M 59.0962 70.1 L 61.9962 70.1 L 61.9962 72 L 59.0962 72 L 59.0962 70.1 Z M 59.0962 82.1 L 61.9962 82.1 L 61.9962 84 L 59.0962 84 L 59.0962 82.1 Z M 59.0962 89.1 L 61.9962 89.1 L 61.9962 91 L 59.0962 91 L 59.0962 89.1 Z M 62.6333 27.5577 L 64.5333 27.5577 L 64.5333 30.4577 L 62.6333 30.4577 L 62.6333 27.5577 Z M 62.6333 33.8654 L 64.5333 33.8654 L 64.5333 36.7654 L 62.6333 36.7654 L 62.6333 33.8654 Z M 62.6333 40.1731 L 64.5333 40.1731 L 64.5333 43.0731 L 62.6333 43.0731 L 62.6333 40.1731 Z M 62.6333 46.4808 L 64.5333 46.4808 L 64.5333 49.3808 L 62.6333 49.3808 L 62.6333 46.4808 Z M 62.6333 52.7885 L 64.5333 52.7885 L 64.5333 55.6885 L 62.6333 55.6885 L 62.6333 52.7885 Z M 62.6333 59.0962 L 64.5333 59.0962 L 64.5333 61.9962 L 62.6333 61.9962 L 62.6333 59.0962 Z M 62.6333 65.4038 L 64.5333 65.4038 L 64.5333 68.3038 L 62.6333 68.3038 L 62.6333 65.4038 Z M 62.6333 71.7115 L 64.5333 71.7115 L 64.5333 74.6115 L 62.6333 74.6115 L 62.6333 71.7115 Z M 62.6333 78.0192 L 64.5333 78.0192 L 64.5333 80.9192 L 62.6333 80.9192 L 62.6333 78.0192 Z M 62.6333 84.3269 L 64.5333 84.3269 L 64.5333 87.2269 L 62.6333 87.2269 L 62.6333 84.3269 Z M 62.6333 90.6346 L 64.5333 90.6346 L 64.5333 93.5346 L 62.6333 93.5346 L 62.6333 90.6346 Z M 62.6333 96.9423 L 64.5333 96.9423 L 64.5333 99.8423 L 62.6333 99.8423 L 62.6333 96.9423 Z M 65.4038 70.1 L 68.3038 70.1 L 68.3038 72 L 65.4038 72 L 65.4038 70.1 Z M 65.4038 82.1 L 68.3038 82.1 L 68.3038 84 L 65.4038 84 L 65.4038 82.1 Z M 65.4038 89.1 L 68.3038 89.1 L 68.3038 91 L 65.4038 91 L 65.4038 89.1 Z M 71.7115 70.1 L 74.6115 70.1 L 74.6115 72 L 71.7115 72 L 71.7115 70.1 Z M 71.7115 82.1 L 74.6115 82.1 L 74.6115 84 L 71.7115 84 L 71.7115 82.1 Z M 71.7115 89.1 L 74.6115 89.1 L 74.6115 91 L 71.7115 91 L 71.7115 89.1 Z M 78.0192 70.1 L 80.9192 70.1 L 80.9192 72 L 78.0192 72 L 78.0192 70.1 Z M 78.0192 82.1 L 80.9192 82.1 L 80.9192 84 L 78.0192 84 L 78.0192 82.1 Z M 78.0192 89.1 L 80.9192 89.1 L 80.9192 91 L 78.0192 91 L 78.0192 89.1 Z M 81.9667 27.5577 L 83.8667 27.5577 L 83.8667 30.4577 L 81.9667 30.4577 L 81.9667 27.5577 Z M 81.9667 33.8654 L 83.8667 33.8654 L 83.8667 36.7654 L 81.9667 36.7654 L 81.9667 33.8654 Z M 81.9667 40.1731 L 83.8667 40.1731 L 83.8667 43.0731 L 81.9667 43.0731 L 81.9667 40.1731 Z M 81.9667 46.4808 L 83.8667 46.4808 L 83.8667 49.3808 L 81.9667 49.3808 L 81.9667 46.4808 Z M 81.9667 52.7885 L 83.8667 52.7885 L 83.8667 55.6885 L 81.9667 55.6885 L 81.9667 52.7885 Z M 81.9667 59.0962 L 83.8667 59.0962 L 83.8667 61.9962 L 81.9667 61.9962 L 81.9667 59.0962 Z M 81.9667 65.4038 L 83.8667 65.4038 L 83.8667 68.3038 L 81.9667 68.3038 L 81.9667 65.4038 Z M 81.9667 71.7115 L 83.8667 71.7115 L 83.8667 74.6115 L 81.9667 74.6115 L 81.9667 71.7115 Z M 81.9667 78.0192 L 83.8667 78.0192 L 83.8667 80.9192 L 81.9667 80.9192 L 81.9667 78.0192 Z M 81.9667 84.3269 L 83.8667 84.3269 L 83.8667 87.2269 L 81.9667 87.2269 L 81.9667 84.3269 Z M 81.9667 90.6346 L 83.8667 90.6346 L 83.8667 93.5346 L 81.9667 93.5346 L 81.9667 90.6346 Z M 81.9667 96.9423 L 83.8667 96.9423 L 83.8667 99.8423 L 81.9667 99.8423 L 81.9667 96.9423 Z M 84.3269 70.1 L 87.2269 70.1 L 87.2269 72 L 84.3269 72 L 84.3269 70.1 Z M 84.3269 82.1 L 87.2269 82.1 L 87.2269 84 L 84.3269 84 L 84.3269 82.1 Z M 84.3269 89.1 L 87.2269 89.1 L 87.2269 91 L 84.3269 91 L 84.3269 89.1 Z M 90.6346 70.1 L 93.5346 70.1 L 93.5346 72 L 90.6346 72 L 90.6346 70.1 Z M 90.6346 82.1 L 93.5346 82.1 L 93.5346 84 L 90.6346 84 L 90.6346 82.1 Z M 90.6346 89.1 L 93.5346 89.1 L 93.5346 91 L 90.6346 91 L 90.6346 89.1 Z M 96.9423 70.1 L 99.8423 70.1 L 99.8423 72 L 96.9423 72 L 96.9423 70.1 Z M 96.9423 82.1 L 99.8423 82.1 L 99.8423 84 L 96.9423 84 L 96.9423 82.1 Z M 96.9423 89.1 L 99.8423 89.1 L 99.8423 91 L 96.9423 91 L 96.9423 89.1 Z"/>
    <path id="piece_004" style="fill:none;stroke:#000000;stroke-width:0.0508" d="M 106.2 27.4077 L 104.2 27.4077 L 104.2 30.5077 L 106.2 30.5077 L 106.2 33.7154 L 104.2 33.7154 L 104.2 36.8154 L 106.2 36.8154 L 106.2 40.0231 L 104.2 40.0231 L 104.2 43.1231 L 106.2 43.1231 L 106.2 46.3308 L 104.2 46.3308 L 104.2 49.4308 L 106.2 49.4308 L 106.2 52.6385 L 104.2 52.6385 L 104.2 55.7385 L 106.2 55.7385 L 106.2 58.9462 L 104.2 58.9462 L 104.2 62.0462 L 106.2 62.0462 L 106.2 65.2538 L 104.2 65.2538 L 104.2 68.3538 L 106.2 68.3538 L 106.2 71.5615 L 104.2 71.5615 L 104.2 74.6615 L 106.2 74.6615 L 106.2 77.8692 L 104.2 77.8692 L 104.2 80.9692 L 106.2 80.9692 L 106.2 84.1769 L 104.2 84.1769 L 104.2 87.2769 L 106.2 87.2769 L 106.2 90.4846 L 104.2 90.4846 L 104.2 93.5846 L 106.2 93.5846 L 106.2 96.7923 L 104.2 96.7923 L 104.2 99.8923 L 106.2 99.8923 L 106.2 101.2 L 107.45 101.2 L 107.45 103.2 L 110.55 103.2 L 110.55 101.2 L 113.7 101.2 L 113.7 103.2 L 116.8 103.2 L 116.8 101.2 L 119.95 101.2 L 119.95 103.2 L 123.05 103.2 L 123.05 101.2 L 126.3 101.2 L 126.3 26.1 L 123.05 26.1 L 123.05 24.1 L 119.95 24.1 L 119.95 26.1 L 116.8 26.1 L 116.8 24.1 L 113.7 24.1 L 113.7 26.1 L 110.55 26.1 L 110.55 24.1 L 107.45 24.1 L 107.45 26.1 L 106.2 26.1 L 106.2 27.4077 Z M 106.25 70.1 L 107.4 70.1 L 107.4 72 L 106.25 72 L 106.25 70.1 Z M 106.25 82.1 L 107.4 82.1 L 107.4 84 L 106.25 84 L 106.25 82.1 Z M 106.25 89.1 L 107.4 89.1 L 107.4 91 L 106.25 91 L 106.25 89.1 Z M 110.5 70.1 L 113.65 70.1 L 113.65 72 L 110.5 72 L 110.5 70.1 Z M 110.5 82.1 L 113.65 82.1 L 113.65 84 L 110.5 84 L 110.5 82.1 Z M 110.5 89.1 L 113.65 89.1 L 113.65 91 L 110.5 91 L 110.5 89.1 Z M 116.75 70.1 L 119.9 70.1 L 119.9 72 L 116.75 72 L 116.75 70.1 Z M 116.75 82.1 L 119.9 82.1 L 119.9 84 L 116.75 84 L 116.75 82.1 Z M 116.75 89.1 L 119.9 89.1 L 119.9 91 L 116.75 91 L 116.75 89.1 Z M 123 70.1 L 126.15 70.1 L 126.15 72 L 123 72 L 123 70.1 Z M 123 82.1 L 126.15 82.1 L 126.15 84 L 123 84 L 123 82.1 Z M 123 89.1 L 126.15 89.1 L 126.15 91 L 123 91 L 123 89.1 Z"/>
    <path id="piece_005" style="fill:none;stroke:#000000;stroke-width:0.0508" d="M 24.1 4.35 L 26.1 4.35 L 26.1 7.25 L 24.1 7.25 L 24.1 10.6 L 26.1 10.6 L 26.1 13.5 L 24.1 13.5 L 24.1 16.85 L 26.1 16.85 L 26.1 19.75 L 24.1 19.75 L 24.1 21.1 L 27.4077 21.1 L 27.4077 23.1 L 30.5077 23.1 L 30.5077 21.1 L 33.7154 21.1 L 33.7154 23.1 L 36.8154 23.1 L 36.8154 21.1 L 40.0231 21.1 L 40.0231 23.1 L 43.1231 23.1 L 43.1231 21.1 L 46.3308 21.1 L 46.3308 23.1 L 49.4308 23.1 L 49.4308 21.1 L 52.6385 21.1 L 52.6385 23.1 L 55.7385 23.1 L 55.7385 21.1 L 58.9462 21.1 L 58.9462 23.1 L 62.0462 23.1 L 62.0462 21.1 L 65.2538 21.1 L 65.2538 23.1 L 68.3538 23.1 L 68.3538 21.1 L 71.5615 21.1 L 71.5615 23.1 L 74.6615 23.1 L 74.6615 21.1 L 77.8692 21.1 L 77.8692 23.1 L 80.9692 23.1 L 80.9692 21.1 L 84.1769 21.1 L 84.1769 23.1 L 87.2769 23.1 L 87.2769 21.1 L 90.4846 21.1 L 90.4846 23.1 L 93.5846 23.1 L 93.5846 21.1 L 96.7923 21.1 L 96.7923 23.1 L 99.8923 23.1 L 99.8923 21.1 L 103.2 21.1 L 103.2 19.75 L 101.2 19.75 L 101.2 16.85 L 103.2 16.85 L 103.2 13.5 L 101.2 13.5 L 101.2 10.6 L 103.2 10.6 L 103.2 7.25 L 101.2 7.25 L 101.2 4.35 L 103.2 4.35 L 103.2 1 L 24.1 1 L 24.1 4.35 Z M 36.3 10.65 L 38.2 10.65 L 38.2 13.55 L 36.3 13.55 L 36.3 10.65 Z M 36.3 16.9 L 38.2 16.9 L 38.2 19.8 L 36.3 19.8 L 36.3 16.9 Z M 36.3 4.4 L 38.2 4.4 L 38.2 7.3 L 36.3 7.3 L 36.3 4.4 Z M 43.3 10.65 L 45.2 10.65 L 45.2 13.55 L 43.3 13.55 L 43.3 10.65 Z M 43.3 16.9 L 45.2 16.9 L 45.2 19.8 L 43.3 19.8 L 43.3 16.9 Z M 43.3 4.4 L 45.2 4.4 L 45.2 7.3 L 43.3 7.3 L 43.3 4.4 Z M 62.6333 10.65 L 64.5333 10.65 L 64.5333 13.55 L 62.6333 13.55 L 62.6333 10.65 Z M 62.6333 16.9 L 64.5333 16.9 L 64.5333 19.8 L 62.6333 19.8 L 62.6333 16.9 Z M 62.6333 4.4 L 64.5333 4.4 L 64.5333 7.3 L 62.6333 7.3 L 62.6333 4.4 Z M 81.9667 10.65 L 83.8667 10.65 L 83.8667 13.55 L 81.9667 13.55 L 81.9667 10.65 Z M 81.9667 16.9 L 83.8667 16.9 L 83.8667 19.8 L 81.9667 19.8 L 81.9667 16.9 Z M 81.9667 4.4 L 83.8667 4.4 L 83.8667 7.3 L 81.9667 7.3 L 81.9667 4.4 Z"/>
  </g>
</svg>