<!-- Created with Inkscape (http://www.inkscape.org/) -->
<svg xmlns:inkscape="http://www.inkscape.org/namespaces/inkscape" xmlns:sodipodi="http://sodipodi.sourceforge.net/DTD/sodipodi-0.dtd" xmlns="http://www.w3.org/2000/svg" xmlns:svg="http://www.w3.org/2000/svg" width="166.5mm" height="188.5mm" viewBox="0 0 166.5 188.5" version="1.1" id="svg5" inkscape:version="1.1.2 (0a00cf5339, 2022-02-04)" sodipodi:docname="blank.svg">
  <sodipodi:namedview id="namedview7" pagecolor="#ffffff" bordercolor="#666666" borderopacity="1.0" inkscape:pageshadow="2" inkscape:pageopacity="0.0" inkscape:pagecheckerboard="0" inkscape:document-units="mm" showgrid="false" inkscape:zoom="0.64052329" inkscape:cx="397.33138" inkscape:cy="561.25984" inkscape:window-width="2086" inkscape:window-height="1376" inkscape:window-x="0" inkscape:window-y="0" inkscape:window-maximized="1" inkscape:current-layer="layer1"/>
  <defs id="defs2"/>
  <g inkscape:label="Layer 1" inkscape:groupmode="layer" id="layer1">
    <metadata text="createArgs=['--unit=mm', '--inside=1', '--length=50', '--width=50', '--depth=20', '--thickness=2', '--style=1', '--boxtype=2', '--tab=3', '--div_l=3', '--div_w=4', '--div_l_spacing=10;5;10', '--div_w_spacing=10;5', '--spacing=1', '--keydiv=0', '--hairline=1']"/>
    <path id="piece_001" style="fill:none;stroke:#000000;stroke-width:0.0508" d="M 26.5 86.125 L 28.5 86.125 L 28.5 88.625 L 26.5 88.625 L 26.5 93 L 28.5 93 L 28.5 95.5 L 26.5 95.5 L 26.5 99.875 L 28.5 99.875 L 28.5 102.375 L 26.5 102.375 L 26.5 104.5 L 81 104.5 L 81 102.375 L 79 102.375 L 79 99.875 L 81 99.875 L 81 95.5 L 79 95.5 L 79 93 L 81 93 L 81 88.625 L 79 88.625 L 79 86.125 L 81 86.125 L 81 84 L 77.8611 84 L 77.8611 82 L 74.3611 82 L 74.3611 84 L 71.4722 84 L 71.4722 82 L 67.9722 82 L 67.9722 84 L 65.0833 84 L 65.0833 82 L 61.5833 82 L 61.5833 84 L 58.6944 84 L 58.6944 82 L 55.1944 82 L 55.1944 84 L 52.3056 84 L 52.3056 82 L 48.8056 82 L 48.8056 84 L 45.9167 84 L 45.9167 82 L 42.4167 82 L 42.4167 84 L 39.5278 84 L 39.5278 82 L 36.0278 82 L 36.0278 84 L 33.1389 84 L 33.1389 82 L 29.6389 82 L 29.6389 84 L 26.5 84 L 26.5 86.125 Z M 40.9167 86.125 L 42.4167 86.125 L 42.4167 88.625 L 40.9167 88.625 L 40.9167 86.125 Z M 40.9167 93 L 42.4167 93 L 42.4167 95.5 L 40.9167 95.5 L 40.9167 93 Z M 40.9167 99.875 L 42.4167 99.875 L 42.4167 102.375 L 40.9167 102.375 L 40.9167 99.875 Z M 52.5833 86.125 L 54.0833 86.125 L 54.0833 88.625 L 52.5833 88.625 L 52.5833 86.125 Z M 52.5833 93 L 54.0833 93 L 54.0833 95.5 L 52.5833 95.5 L 52.5833 93 Z M 52.5833 99.875 L 54.0833 99.875 L 54.0833 102.375 L 52.5833 102.375 L 52.5833 99.875 Z M 64.25 86.125 L 65.75 86.125 L 65.75 88.625 L 64.25 88.625 L 64.25 86.125 Z M 64.25 93 L 65.75 93 L 65.75 95.5 L 64.25 95.5 L 64.25 93 Z M 64.25 99.875 L 65.75 99.875 L 65.75 102.375 L 64.25 102.375 L 64.25 99.875 Z M 69.25 86.125 L 70.75 86.125 L 70.75 88.625 L 69.25 88.625 L 69.25 86.125 Z M 69.25 93 L 70.75 93 L 70.75 95.5 L 69.25 95.5 L 69.25 93 Z M 69.25 99.875 L 70.75 99.875 L 70.75 102.375 L 69.25 102.375 L 69.25 99.875 Z"/>
    <path id="xdivider_001" style="fill:none;stroke:#000000;stroke-width:0.0508" d="M 13.0278 109.5 L 13.0278 107.5 L 9.52778 107.5 L 9.52778 109.5 L 6.63889 109.5 L 6.63889 107.5 L 3.13889 107.5 L 3.13889 109.5 L 0 109.5 L 0 111.625 L 2 111.625 L 2 114.125 L 0 114.125 L 0 118.5 L 2 118.5 L 2 121 L 0 121 L 0 125.375 L 2 125.375 L 2 127.875 L 0 127.875 L 0 130 L 54.5 130 L 54.5 127.875 L 52.5 127.875 L 52.5 125.375 L 54.5 125.375 L 54.5 121 L 52.5 121 L 52.5 118.5 L 54.5 118.5 L 54.5 114.125 L 52.5 114.125 L 52.5 111.625 L 54.5 111.625 L 54.5 109.5 L 51.3611 109.5 L 51.3611 107.5 L 47.8611 107.5 L 47.8611 109.5 L 44.9722 109.5 L 44.9722 107.5 L 44.25 107.5 L 44.25 119.5 L 42.75 119.5 L 42.75 107.5 L 41.4722 107.5 L 41.4722 109.5 L 39.25 109.5 L 39.25 119.5 L 37.75 119.5 L 37.75 107.5 L 35.0833 107.5 L 35.0833 109.5 L 32.1944 109.5 L 32.1944 107.5 L 28.6944 107.5 L 28.6944 109.5 L 27.5833 109.5 L 27.5833 119.5 L 26.0833 119.5 L 26.0833 109.5 L 25.8056 109.5 L 25.8056 107.5 L 22.3056 107.5 L 22.3056 109.5 L 19.4167 109.5 L 19.4167 107.5 L 15.9167 107.5 L 15.9167 109.5 L 15.9167 119.5 L 14.4167 119.5 L 14.4167 109.5 L 13.0278 109.5 Z"/>
    <path id="xdivider_002" style="fill:none;stroke:#000000;stroke-width:0.0508" d="M 68.5278 109.5 L 68.5278 107.5 L 65.0278 107.5 L 65.0278 109.5 L 62.1389 109.5 L 62.1389 107.5 L 58.6389 107.5 L 58.6389 109.5 L 55.5 109.5 L 55.5 111.625 L 57.5 111.625 L 57.5 114.125 L 55.5 114.125 L 55.5 118.5 L 57.5 118.5 L 57.5 121 L 55.5 121 L 55.5 125.375 L 57.5 125.375 L 57.5 127.875 L 55.5 127.875 L 55.5 130 L 110 130 L 110 127.875 L 108 127.875 L 108 125.375 L 110 125.375 L 110 121 L 108 121 L 108 118.5 L 110 118.5 L 110 114.125 L 108 114.125 L 108 111.625 L 110 111.625 L 110 109.5 L 106.861 109.5 L 106.861 107.5 L 103.361 107.5 L 103.361 109.5 L 100.472 109.5 L 100.472 107.5 L 99.75 107.5 L 99.75 119.5 L 98.25 119.5 L 98.25 107.5 L 96.9722 107.5 L 96.9722 109.5 L 94.75 109.5 L 94.75 119.5 L 93.25 119.5 L 93.25 107.5 L 90.5833 107.5 L 90.5833 109.5 L 87.6944 109.5 L 87.6944 107.5 L 84.1944 107.5 L 84.1944 109.5 L 83.0833 109.5 L 83.0833 119.5 L 81.5833 119.5 L 81.5833 109.5 L 81.3056 109.5 L 81.3056 107.5 L 77.8056 107.5 L 77.8056 109.5 L 74.9167 109.5 L 74.9167 107.5 L 71.4167 107.5 L 71.4167 109.5 L 71.4167 119.5 L 69.9167 119.5 L 69.9167 109.5 L 68.5278 109.5 Z"/>
    <path id="xdivider_003" style="fill:none;stroke:#000000;stroke-width:0.0508" d="M 124.028 109.5 L 124.028 107.5 L 120.528 107.5 L 120.528 109.5 L 117.639 109.5 L 117.639 107.5 L 114.139 107.5 L 114.139 109.5 L 111 109.5 L 111 111.625 L 113 111.625 L 113 114.125 L 111 114.125 L 111 118.5 L 113 118.5 L 113 121 L 111 121 L 111 125.375 L 113 125.375 L 113 127.875 L 111 127.875 L 111 130 L 165.5 130 L 165.5 127.875 L 163.5 127.875 L 163.5 125.375 L 165.5 125.375 L 165.5 121 L 163.5 121 L 163.5 118.5 L 165.5 118.5 L 165.5 114.125 L 163.5 114.125 L 163.5 111.625 L 165.5 111.625 L 165.5 109.5 L 162.361 109.5 L 162.361 107.5 L 158.861 107.5 L 158.861 109.5 L 155.972 109.5 L 155.972 107.5 L 155.25 107.5 L 155.25 119.5 L 153.75 119.5 L 153.75 107.5 L 152.472 107.5 L 152.472 109.5 L 150.25 109.5 L 150.25 119.5 L 148.75 119.5 L 148.75 107.5 L 146.083 107.5 L 146.083 109.5 L 143.194 109.5 L 143.194 107.5 L 139.694 107.5 L 139.694 109.5 L 138.583 109.5 L 138.583 119.5 L 137.083 119.5 L 137.083 109.5 L 136.806 109.5 L 136.806 107.5 L 133.306 107.5 L 133.306 109.5 L 130.417 109.5 L 130.417 107.5 L 126.917 107.5 L 126.917 109.5 L 126.917 119.5 L 125.417 119.5 L 125.417 109.5 L 124.028 109.5 Z"/>
    <path id="piece_002" style="fill:none;stroke:#000000;stroke-width:0.0508" d="M 23.5 39.5278 L 25.5 39.5278 L 25.5 36.0278 L 23.5 36.0278 L 23.5 33.1389 L 25.5 33.1389 L 25.5 29.6389 L 23.5 29.6389 L 23.5 28.5 L 21.875 28.5 L 21.875 26.5 L 18.375 26.5 L 18.375 28.5 L 15 28.5 L 15 26.5 L 11.5 26.5 L 11.5 28.5 L 8.125 28.5 L 8.125 26.5 L 4.625 26.5 L 4.625 28.5 L 3 28.5 L 3 36.75 L 4.625 36.75 L 4.625 38.25 L 3 38.25 L 3 41.75 L 4.625 41.75 L 4.625 43.25 L 3 43.25 L 3 51.75 L 4.625 51.75 L 4.625 53.25 L 3 53.25 L 3 79 L 4.625 79 L 4.625 81 L 8.125 81 L 8.125 79 L 11.5 79 L 11.5 81 L 15 81 L 15 79 L 18.375 79 L 18.375 81 L 21.875 81 L 21.875 79 L 23.5 79 L 23.5 77.8611 L 25.5 77.8611 L 25.5 74.3611 L 23.5 74.3611 L 23.5 71.4722 L 25.5 71.4722 L 25.5 67.9722 L 23.5 67.9722 L 23.5 65.0833 L 25.5 65.0833 L 25.5 61.5833 L 23.5 61.5833 L 23.5 58.6944 L 25.5 58.6944 L 25.5 55.1944 L 23.5 55.1944 L 23.5 53.25 L 21.875 53.25 L 21.875 51.75 L 23.5 51.75 L 23.5 52.3056 L 25.5 52.3056 L 25.5 48.8056 L 23.5 48.8056 L 23.5 45.9167 L 25.5 45.9167 L 25.5 42.4167 L 23.5 42.4167 L 23.5 43.25 L 21.875 43.25 L 21.875 41.75 L 23.5 41.75 L 23.5 39.5278 Z M 15 36.75 L 18.375 36.75 L 18.375 38.25 L 15 38.25 L 15 36.75 Z M 15 41.75 L 18.375 41.75 L 18.375 43.25 L 15 43.25 L 15 41.75 Z M 15 51.75 L 18.375 51.75 L 18.375 53.25 L 15 53.25 L 15 51.75 Z M 21.875 36.75 L 23.5 36.75 L 23.5 38.25 L 21.875 38.25 L 21.875 36.75 Z M 8.125 36.75 L 11.5 36.75 L 11.5 38.25 L 8.125 38.25 L 8.125 36.75 Z M 8.125 41.75 L 11.5 41.75 L 11.5 43.25 L 8.125 43.25 L 8.125 41.75 Z M 8.125 51.75 L 11.5 51.75 L 11.5 53.25 L 8.125 53.25 L 8.125 51.75 Z"/>
    <path id="ydivider_001" style="fill:none;stroke:#000000;stroke-width:0.0508" d="M 2 185.5 L 3.625 185.5 L 3.625 187.5 L 7.125 187.5 L 7.125 185.5 L 10.5 185.5 L 10.5 187.5 L 14 187.5 L 14 185.5 L 17.375 185.5 L 17.375 187.5 L 20.875 187.5 L 20.875 185.5 L 22.5 185.5 L 22.5 184.361 L 24.5 184.361 L 24.5 180.861 L 22.5 180.861 L 22.5 177.972 L 24.5 177.972 L 24.5 174.472 L 22.5 174.472 L 22.5 171.583 L 24.5 171.583 L 24.5 168.083 L 22.5 168.083 L 22.5 165.194 L 24.5 165.194 L 24.5 161.694 L 22.5 161.694 L 22.5 158.806 L 24.5 158.806 L 24.5 155.306 L 22.5 155.306 L 22.5 152.417 L 24.5 152.417 L 24.5 148.917 L 22.5 148.917 L 22.5 146.028 L 24.5 146.028 L 24.5 142.528 L 22.5 142.528 L 22.5 139.639 L 24.5 139.639 L 24.5 136.139 L 22.5 136.139 L 22.5 135 L 20.875 135 L 20.875 133 L 17.375 133 L 17.375 135 L 14 135 L 14 133 L 10.5 133 L 10.5 135 L 7.125 135 L 7.125 133 L 3.625 133 L 3.625 135 L 2 135 L 2 143.25 L 12.5 143.25 L 12.5 144.75 L 2 144.75 L 2 148.25 L 12.5 148.25 L 12.5 149.75 L 2 149.75 L 2 158.25 L 12.5 158.25 L 12.5 159.75 L 2 159.75 L 2 185.5 Z"/>
    <path id="ydivider_002" style="fill:none;stroke:#000000;stroke-width:0.0508" d="M 27.5 185.5 L 29.125 185.5 L 29.125 187.5 L 32.625 187.5 L 32.625 185.5 L 36 185.5 L 36 187.5 L 39.5 187.5 L 39.5 185.5 L 42.875 185.5 L 42.875 187.5 L 46.375 187.5 L 46.375 185.5 L 48 185.5 L 48 184.361 L 50 184.361 L 50 180.861 L 48 180.861 L 48 177.972 L 50 177.972 L 50 174.472 L 48 174.472 L 48 171.583 L 50 171.583 L 50 168.083 L 48 168.083 L 48 165.194 L 50 165.194 L 50 161.694 L 48 161.694 L 48 158.806 L 50 158.806 L 50 155.306 L 48 155.306 L 48 152.417 L 50 152.417 L 50 148.917 L 48 148.917 L 48 146.028 L 50 146.028 L 50 142.528 L 48 142.528 L 48 139.639 L 50 139.639 L 50 136.139 L 48 136.139 L 48 135 L 46.375 135 L 46.375 133 L 42.875 133 L 42.875 135 L 39.5 135 L 39.5 133 L 36 133 L 36 135 L 32.625 135 L 32.625 133 L 29.125 133 L 29.125 135 L 27.5 135 L 27.5 143.25 L 38 143.25 L 38 144.75 L 27.5 144.75 L 27.5 148.25 L 38 148.25 L 38 149.75 L 27.5 149.75 L 27.5 158.25 L 38 158.25 L 38 159.75 L 27.5 159.75 L 27.5 185.5 Z"/>
    <path id="ydivider_003" style="fill:none;stroke:#000000;stroke-width:0.0508" d="M 53 185.5 L 54.625 185.5 L 54.625 187.5 L 58.125 187.5 L 58.125 185.5 L 61.5 185.5 L 61.5 187.5 L 65 187.5 L 65 185.5 L 68.375 185.5 L 68.375 187.5 L 71.875 187.5 L 71.875 185.5 L 73.5 185.5 L 73.5 184.361 L 75.5 184.361 L 75.5 180.861 L 73.5 180.861 L 73.5 177.972 L 75.5 177.972 L 75.5 174.472 L 73.5 174.472 L 73.5 171.583 L 75.5 171.583 L 75.5 168.083 L 73.5 168.083 L 73.5 165.194 L 75.5 165.194 L 75.5 161.694 L 73.5 161.694 L 73.5 158.806 L 75.5 158.806 L 75.5 155.306 L 73.5 155.306 L 73.5 152.417 L 75.5 152.417 L 75.5 148.917 L 73.5 148.917 L 73.5 146.028 L 75.5 146.028 L 75.5 142.528 L 73.5 142.528 L 73.5 139.639 L 75.5 139.639 L 75.5 136.139 L 73.5 136.139 L 73.5 135 L 71.875 135 L 71.875 133 L 68.375 133 L 68.375 135 L 65 135 L 65 133 L 61.5 133 L 61.5 135 L 58.125 135 L 58.125 133 L 54.625 133 L 54.625 135 L 53 135 L 53 143.25 L 63.5 143.25 L 63.5 144.75 L 53 144.75 L 53 148.25 L 63.5 148.25 L 63.5 149.75 L 53 149.75 L 53 158.25 L 63.5 158.25 L 63.5 159.75 L 53 159.75 L 53 185.5 Z"/>
    <path id="ydivider_004" style="fill:none;stroke:#000000;stroke-width:0.0508" d="M 78.5 185.5 L 80.125 185.5 L 80.125 187.5 L 83.625 187.5 L 83.625 185.5 L 87 185.5 L 87 187.5 L 90.5 187.5 L 90.5 185.5 L 93.875 185.5 L 93.875 187.5 L 97.375 187.5 L 97.375 185.5 L 99 185.5 L 99 184.361 L 101 184.361 L 101 180.861 L 99 180.861 L 99 177.972 L 101 177.972 L 101 174.472 L 99 174.472 L 99 171.583 L 101 171.583 L 101 168.083 L 99 168.083 L 99 165.194 L 101 165.194 L 101 161.694 L 99 161.694 L 99 158.806 L 101 158.806 L 101 155.306 L 99 155.306 L 99 152.417 L 101 152.417 L 101 148.917 L 99 148.917 L 99 146.028 L 101 146.028 L 101 142.528 L 99 142.528 L 99 139.639 L 101 139.639 L 101 136.139 L 99 136.139 L 99 135 L 97.375 135 L 97.375 133 L 93.875 133 L 93.875 135 L 90.5 135 L 90.5 133 L 87 133 L 87 135 L 83.625 135 L 83.625 133 L 80.125 133 L 80.125 135 L 78.5 135 L 78.5 143.25 L 89 143.25 L 89 144.75 L 78.5 144.75 L 78.5 148.25 L 89 148.25 L 89 149.75 L 78.5 149.75 L 78.5 158.25 L 89 158.25 L 89 159.75 L 78.5 159.75 L 78.5 185.5 Z"/>
    <path id="piece_003" style="fill:none;stroke:#000000;stroke-width:0.0508" d="M 26.5 30.1389 L 28.5 30.1389 L 28.5 32.6389 L 26.5 32.6389 L 26.5 36.5278 L 28.5 36.5278 L 28.5 39.0278 L 26.5 39.0278 L 26.5 42.9167 L 28.5 42.9167 L 28.5 45.4167 L 26.5 45.4167 L 26.5 49.3056 L 28.5 49.3056 L 28.5 51.8056 L 26.5 51.8056 L 26.5 55.6944 L 28.5 55.6944 L 28.5 58.1944 L 26.5 58.1944 L 26.5 62.0833 L 28.5 62.0833 L 28.5 64.5833 L 26.5 64.5833 L 26.5 68.4722 L 28.5 68.4722 L 28.5 70.9722 L 26.5 70.9722 L 26.5 74.8611 L 28.5 74.8611 L 28.5 77.3611 L 26.5 77.3611 L 26.5 81 L 30.1389 81 L 30.1389 79 L 32.6389 79 L 32.6389 81 L 36.5278 81 L 36.5278 79 L 39.0278 79 L 39.0278 81 L 42.9167 81 L 42.9167 79 L 45.4167 79 L 45.4167 81 L 49.3056 81 L 49.3056 79 L 51.8056 79 L 51.8056 81 L 55.6944 81 L 55.6944 79 L 58.1944 79 L 58.1944 81 L 62.0833 81 L 62.0833 79 L 64.5833 79 L 64.5833 81 L 68.4722 81 L 68.4722 79 L 70.9722 79 L 70.9722 81 L 74.8611 81 L 74.8611 79 L 77.3611 79 L 77.3611 81 L 81 81 L 81 77.3611 L 79 77.3611 L 79 74.8611 L 81 74.8611 L 81 70.9722 L 79 70.9722 L 79 68.4722 L 81 68.4722 L 81 64.5833 L 79 64.5833 L 79 62.0833 L 81 62.0833 L 81 58.1944 L 79 58.1944 L 79 55.6944 L 81 55.6944 L 81 51.8056 L 79 51.8056 L 79 49.3056 L 81 49.3056 L 81 45.4167 L 79 45.4167 L 79 42.9167 L 81 42.9167 L 81 39.0278 L 79 39.0278 L 79 36.5278 L 81 36.5278 L 81 32.6389 L 79 32.6389 L 79 30.1389 L 81 30.1389 L 81 26.5 L 77.3611 26.5 L 77.3611 28.5 L 74.8611 28.5 L 74.8611 26.5 L 70.9722 26.5 L 70.9722 28.5 L 68.4722 28.5 L 68.4722 26.5 L 64.5833 26.5 L 64.5833 28.5 L 62.0833 28.5 L 62.0833 26.5 L 58.1944 26.5 L 58.1944 28.5 L 55.6944 28.5 L 55.6944 26.5 L 51.8056 26.5 L 51.8056 28.5 L 49.3056 28.5 L 49.3056 26.5 L 45.4167 26.5 L 45.4167 28.5 L 42.9167 28.5 L 42.9167 26.5 L 39.0278 26.5 L 39.0278 28.5 L 36.5278 28.5 L 36.5278 26.5 L 32.6389 26.5 L 32.6389 28.5 L 30.1389 28.5 L 30.1389 26.5 L 26.5 26.5 L 26.5 30.1389 Z M 30.1389 36.75 L 32.6389 36.75 L 32.6389 38.25 L 30.1389 38.25 L 30.1389 36.75 Z M 30.1389 41.75 L 32.6389 41.75 L 32.6389 43.25 L 30.1389 43.25 L 30.1389 41.75 Z M 30.1389 51.75 L 32.6389 51.75 L 32.6389 53.25 L 30.1389 53.25 L 30.1389 51.75 Z M 36.5278 36.75 L 39.0278 36.75 L 39.0278 38.25 L 36.5278 38.25 L 36.5278 36.75 Z M 36.5278 41.75 L 39.0278 41.75 L 39.0278 43.25 L 36.5278 43.25 L 36.5278 41.75 Z M 36.5278 51.75 L 39.0278 51.75 L 39.0278 53.25 L 36.5278 53.25 L 36.5278 51.75 Z M 40.9167 30.1389 L 42.4167 30.1389 L 42.4167 32.6389 L 40.9167 32.6389 L 40.9167 30.1389 Z M 40.9167 36.5278 L 42.4167 36.5278 L 42.4167 39.0278 L 40.9167 39.0278 L 40.9167 36.5278 Z M 40.9167 42.9167 L 42.4167 42.9167 L 42.4167 45.4167 L 40.9167 45.4167 L 40.9167 42.9167 Z M 40.9167 49.3056 L 42.4167 49.3056 L 42.4167 51.8056 L 40.9167 51.8056 L 40.9167 49.3056 Z M 40.9167 55.6944 L 42.4167 55.6944 L 42.4167 58.1944 L 40.9167 58.1944 L 40.9167 55.6944 Z M 40.9167 62.0833 L 42.4167 62.0833 L 42.4167 64.5833 L 40.9167 64.5833 L 40.9167 62.0833 Z M 40.9167 68.4722 L 42.4167 68.4722 L 42.4167 70.9722 L 40.9167 70.9722 L 40.9167 68.4722 Z M 40.9167 74.8611 L 42.4167 74.8611 L 42.4167 77.3611 L 40.9167 77.3611 L 40.9167 74.8611 Z M 42.9167 36.75 L 45.4167 36.75 L 45.4167 38.25 L 42.9167 38.25 L 42.9167 36.75 Z M 42.9167 41.75 L 45.4167 41.75 L 45.4167 43.25 L 42.9167 43.25 L 42.9167 41.75 Z M 42.9167 51.75 L 45.4167 51.75 L 45.4167 53.25 L 42.9167 53.25 L 42.9167 51.75 Z M 49.3056 36.75 L 51.8056 36.75 L 51.8056 38.25 L 49.3056 38.25 L 49.3056 36.75 Z M 49.3056 41.75 L 51.8056 41.75 L 51.8056 43.25 L 49.3056 43.25 L 49.3056 41.75 Z M 49.3056 51.75 L 51.8056 51.75 L 51.8056 53.25 L 49.3056 53.25 L 49.3056 51.75 Z M 52.5833 30.1389 L 54.0833 30.1389 L 54.0833 32.6389 L 52.5833 32.6389 L 52.5833 30.1389 Z M 52.5833 36.5278 L 54.0833 36.5278 L 54.0833 39.0278 L 52.5833 39.0278 L 52.5833 36.5278 Z M 52.5833 42.9167 L 54.0833 42.9167 L 54.0833 45.4167 L 52.5833 45.4167 L 52.5833 42.9167 Z M 52.5833 49.3056 L 54.0833 49.3056 L 54.0833 51.8056 L 52.5833 51.8056 L 52.5833 49.3056 Z M 52.5833 55.6944 L 54.0833 55.6944 L 54.0833 58.1944 L 52.5833 58.1944 L 52.5833 55.6944 Z M 52.5833 62.0833 L 54.0833 62.0833 L 54.0833 64.5833 L 52.5833 64.5833 L 52.5833 62.0833 Z M 52.5833 68.4722 L 54.0833 68.4722 L 54.0833 70.9722 L 52.5833 70.9722 L 52.5833 68.4722 Z M 52.5833 74.8611 L 54.0833 74.8611 L 54.0833 77.3611 L 52.5833 77.3611 L 52.5833 74.8611 Z M 55.6944 36.75 L 58.1944 36.75 L 58.1944 38.25 L 55.6944 38.25 L 55.6944 36.75 Z M 55.6944 41.75 L 58.1944 41.75 L 58.1944 43.25 L 55.6944 43.25 L 55.6944 41.75 Z M 55.6944 51.75 L 58.1944 51.75 L 58.1944 53.25 L 55.6944 53.25 L 55.6944 51.75 Z M 62.0833 36.75 L 64.25 36.75 L 64.25 36.5278 L 65.75 36.5278 L 65.75 39.0278 L 64.25 39.0278 L 64.25 38.25 L 62.0833 38.25 L 62.0833 36.75 Z M 62.0833 41.75 L 64.5833 41.75 L 64.5833 42.9167 L 65.75 42.9167 L 65.75 45.4167 L 64.25 45.4167 L 64.25 43.25 L 62.0833 43.25 L 62.0833 41.75 Z M 62.0833 51.75 L 64.25 51.75 L 64.25 49.3056 L 65.75 49.3056 L 65.75 51.8056 L 64.5833 51.8056 L 64.5833 53.25 L 62.0833 53.25 L 62.0833 51.75 Z M 64.25 30.1389 L 65.75 30.1389 L 65.75 32.6389 L 64.25 32.6389 L 64.25 30.1389 Z M 64.25 55.6944 L 65.75 55.6944 L 65.75 58.1944 L 64.25 58.1944 L 64.25 55.6944 Z M 64.25 62.0833 L 65.75 62.0833 L 65.75 64.5833 L 64.25 64.5833 L 64.25 62.0833 Z M 64.25 68.4722 L 65.75 68.4722 L 65.75 70.9722 L 64.25 70.9722 L 64.25 68.4722 Z M 64.25 74.8611 L 65.75 74.8611 L 65.75 77.3611 L 64.25 77.3611 L 64.25 74.8611 Z M 68.4722 36.75 L 69.25 36.75 L 69.25 36.5278 L 70.75 36.5278 L 70.75 36.75 L 70.9722 36.75 L 70.9722 38.25 L 70.75 38.25 L 70.75 39.0278 L 69.25 39.0278 L 69.25 38.25 L 68.4722 38.25 L 68.4722 36.75 Z M 68.4722 41.75 L 70.9722 41.75 L 70.9722 43.25 L 70.75 43.25 L 70.75 45.4167 L 69.25 45.4167 L 69.25 43.25 L 68.4722 43.25 L 68.4722 41.75 Z M 68.4722 51.75 L 69.25 51.75 L 69.25 49.3056 L 70.75 49.3056 L 70.75 51.75 L 70.9722 51.75 L 70.9722 53.25 L 68.4722 53.25 L 68.4722 51.75 Z M 69.25 30.1389 L 70.75 30.1389 L 70.75 32.6389 L 69.25 32.6389 L 69.25 30.1389 Z M 69.25 55.6944 L 70.75 55.6944 L 70.75 58.1944 L 69.25 58.1944 L 69.25 55.6944 Z M 69.25 62.0833 L 70.75 62.0833 L 70.75 64.5833 L 69.25 64.5833 L 69.25 62.0833 Z M 69.25 68.4722 L 70.75 68.4722 L 70.75 70.9722 L 69.25 70.9722 L 69.25 68.4722 Z M 69.25 74.8611 L 70.75 74.8611 L 70.75 77.3611 L 69.25 77.3611 L 69.25 74.8611 Z M 74.8611 36.75 L 77.3611 36.75 L 77.3611 38.25 L 74.8611 38.25 L 74.8611 36.75 Z M 74.8611 41.75 L 77.3611 41.75 L 77.3611 43.25 L 74.8611 43.25 L 74.8611 41.75 Z M 74.8611 51.75 L 77.3611 51.75 L 77.3611 53.25 L 74.8611 53.25 L 74.8611 51.75 Z"/>
    <path id="piece_004" style="fill:none;stroke:#000000;stroke-width:0.0508" d="M 104.5 28.5 L 102.875 28.5 L 102.875 26.5 L 99.375 26.5 L 99.375 28.5 L 96 28.5 L 96 26.5 L 92.5 26.5 L 92.5 28.5 L 89.125 28.5 L 89.125 26.5 L 85.625 26.5 L 85.625 28.5 L 84 28.5 L 84 29.6389 L 82 29.6389 L 82 33.1389 L 84 33.1389 L 84 36.0278 L 82 36.0278 L 82 39.5278 L 84 39.5278 L 84 41.75 L 85.625 41.75 L 85.625 43.25 L 84 43.25 L 84 42.4167 L 82 42.4167 L 82 45.9167 L 84 45.9167 L 84 48.8056 L 82 48.8056 L 82 52.3056 L 84 52.3056 L 84 51.75 L 85.625 51.75 L 85.625 53.25 L 84 53.25 L 84 55.1944 L 82 55.1944 L 82 58.6944 L 84 58.6944 L 84 61.5833 L 82 61.5833 L 82 65.0833 L 84 65.0833 L 84 67.9722 L 82 67.9722 L 82 71.4722 L 84 71.4722 L 84 74.3611 L 82 74.3611 L 82 77.8611 L 84 77.8611 L 84 79 L 85.625 79 L 85.625 81 L 89.125 81 L 89.125 79 L 92.5 79 L 92.5 81 L 96 81 L 96 79 L 99.375 79 L 99.375 81 L 102.875 81 L 102.875 79 L 104.5 79 L 104.5 53.25 L 102.875 53.25 L 102.875 51.75 L 104.5 51.75 L 104.5 43.25 L 102.875 43.25 L 102.875 41.75 L 104.5 41.75 L 104.5 38.25 L 102.875 38.25 L 102.875 36.75 L 104.5 36.75 L 104.5 28.5 Z M 84 36.75 L 85.625 36.75 L 85.625 38.25 L 84 38.25 L 84 36.75 Z M 89.125 36.75 L 92.5 36.75 L 92.5 38.25 L 89.125 38.25 L 89.125 36.75 Z M 89.125 41.75 L 92.5 41.75 L 92.5 43.25 L 89.125 43.25 L 89.125 41.75 Z M 89.125 51.75 L 92.5 51.75 L 92.5 53.25 L 89.125 53.25 L 89.125 51.75 Z M 96 36.75 L 99.375 36.75 L 99.375 38.25 L 96 38.25 L 96 36.75 Z M 96 41.75 L 99.375 41.75 L 99.375 43.25 L 96 43.25 L 96 41.75 Z M 96 51.75 L 99.375 51.75 L 99.375 53.25 L 96 53.25 L 96 51.75 Z"/>
    <path id="piece_005" style="fill:none;stroke:#000000;stroke-width:0.0508" d="M 26.5 5.125 L 28.5 5.125 L 28.5 7.625 L 26.5 7.625 L 26.5 12 L 28.5 12 L 28.5 14.5 L 26.5 14.5 L 26.5 18.875 L 28.5 18.875 L 28.5 21.375 L 26.5 21.375 L 26.5 23.5 L 29.6389 23.5 L 29.6389 25.5 L 33.1389 25.5 L 33.1389 23.5 L 36.0278 23.5 L 36.0278 25.5 L 39.5278 25.5 L 39.5278 23.5 L 42.4167 23.5 L 42.4167 25.5 L 45.9167 25.5 L 45.9167 23.5 L 48.8056 23.5 L 48.8056 25.5 L 52.3056 25.5 L 52.3056 23.5 L 55.1944 23.5 L 55.1944 25.5 L 58.6944 25.5 L 58.6944 23.5 L 61.5833 23.5 L 61.5833 25.5 L 65.0833 25.5 L 65.0833 23.5 L 67.9722 23.5 L 67.9722 25.5 L 71.4722 25.5 L 71.4722 23.5 L 74.3611 23.5 L 74.3611 25.5 L 77.8611 25.5 L 77.8611 23.5 L 81 23.5 L 81 21.375 L 79 21.375 L 79 18.875 L 81 18.875 L 81 14.5 L 79 14.5 L 79 12 L 81 12 L 81 7.625 L 79 7.625 L 79 5.125 L 81 5.125 L 81 3 L 29.6389 3 L 26.5 3 L 26.5 5.125 Z M 40.9167 12 L 42.4167 12 L 42.4167 14.5 L 40.9167 14.5 L 40.9167 12 Z M 40.9167 18.875 L 42.4167 18.875 L 42.4167 21.375 L 40.9167 21.375 L 40.9167 18.875 Z M 40.9167 5.125 L 42.4167 5.125 L 42.4167 7.625 L 40.9167 7.625 L 40.9167 5.125 Z M 52.5833 12 L 54.0833 12 L 54.0833 14.5 L 52.5833 14.5 L 52.5833 12 Z M 52.5833 18.875 L 54.0833 18.875 L 54.0833 21.375 L 52.5833 21.375 L 52.5833 18.875 Z M 52.5833 5.125 L 54.0833 5.125 L 54.0833 7.625 L 52.5833 7.625 L 52.5833 5.125 Z M 64.25 12 L 65.75 12 L 65.75 14.5 L 64.25 14.5 L 64.25 12 Z M 64.25 18.875 L 65.75 18.875 L 65.75 21.375 L 64.25 21.375 L 64.25 18.875 Z M 64.25 5.125 L 65.75 5.125 L 65.75 7.625 L 64.25 7.625 L 64.25 5.125 Z M 69.25 12 L 70.75 12 L 70.75 14.5 L 69.25 14.5 L 69.25 12 Z M 69.25 18.875 L 70.75 18.875 L 70.75 21.375 L 69.25 21.375 L 69.25 18.875 Z M 69.25 5.125 L 70.75 5.125 L 70.75 7.625 L 69.25 7.625 L 69.25 5.125 Z"/>
  </g>
</svg>