<!-- Created with Inkscape (http://www.inkscape.org/) -->
<svg xmlns:inkscape="http://www.inkscape.org/namespaces/inkscape" xmlns:sodipodi="http://sodipodi.sourceforge.net/DTD/sodipodi-0.dtd" xmlns="http://www.w3.org/2000/svg" xmlns:svg="http://www.w3.org/2000/svg" width="206.7mm" height="181.6mm" viewBox="0 0 206.7 181.6" version="1.1" id="svg5" inkscape:version="1.1.2 (0a00cf5339, 2022-02-04)" sodipodi:docname="blank.svg">
  <sodipodi:namedview id="namedview7" pagecolor="#ffffff" bordercolor="#666666" borderopacity="1.0" inkscape:pageshadow="2" inkscape:pageopacity="0.0" inkscape:pagecheckerboard="0" inkscape:document-units="mm" showgrid="false" inkscape:zoom="0.64052329" inkscape:cx="397.33138" inkscape:cy="561.25984" inkscape:window-width="2086" inkscape:window-height="1376" inkscape:window-x="0" inkscape:window-y="0" inkscape:window-maximized="1" inkscape:current-layer="layer1"/>
  <defs id="defs2"/>
  <g inkscape:label="Layer 1" inkscape:groupmode="layer" id="layer1">
    <metadata text="createArgs=['--unit=mm', '--inside=1', '--length=50', '--width=50', '--depth=22', '--thickness=2', '--style=1', '--boxtype=2', '--tab=3', '--div_l=3', '--div_w=4', '--div_l_spacing=10;5;10', '--div_w_spacing=10;5', '--spacing=1', '--keydiv=0', '--hairline=1', '--kerf=0.1']"/>
    <g id="piece_001">
      <path id="side_001" style="fill:none;stroke:#000000;stroke-width:0.0508" d="M 26.1 83.2 L 29.3944 83.2 L 29.3944 81.2 L 32.4944 81.2 L 32.4944 83.2 L 35.7389 83.2 L 35.7389 81.2 L 38.8389 81.2 L 38.8389 83.2 L 42.0833 83.2 L 42.0833 81.2 L 45.1833 81.2 L 45.1833 83.2 L 48.4278 83.2 L 48.4278 81.2 L 51.5278 81.2 L 51.5278 83.2 L 54.7722 83.2 L 54.7722 81.2 L 57.8722 81.2 L 57.8722 83.2 L 61.1167 83.2 L 61.1167 81.2 L 64.2167 81.2 L 64.2167 83.2 L 67.4611 83.2 L 67.4611 81.2 L 70.5611 81.2 L 70.5611 83.2 L 73.8056 83.2 L 73.8056 81.2 L 76.9056 81.2 L 76.9056 83.2 L 80.2 83.2"/>
      <path id="side_002" style="fill:none;stroke:#000000;stroke-width:0.0508" d="M 80.2 83.2 L 80.2 85.025 L 78.2 85.025 L 78.2 87.925 L 80.2 87.925 L 80.2 91.8 L 78.2 91.8 L 78.2 94.7 L 80.2 94.7 L 80.2 98.575 L 78.2 98.575 L 78.2 101.475 L 80.2 101.475 L 80.2 105.3"/>
      <path id="hole_001" style="fill:none;stroke:#000000;stroke-width:0.0508" d="M 68.25 85.025 L 68.25 87.925 L 70.15 87.925 L 70.15 85.025 L 68.25 85.025 Z"/>
      <path id="hole_002" style="fill:none;stroke:#000000;stroke-width:0.0508" d="M 63.25 85.025 L 63.25 87.925 L 65.15 87.925 L 65.15 85.025 L 63.25 85.025 Z"/>
      <path id="hole_003" style="fill:none;stroke:#000000;stroke-width:0.0508" d="M 51.5833 85.025 L 51.5833 87.925 L 53.4833 87.925 L 53.4833 85.025 L 51.5833 85.025 Z"/>
      <path id="hole_004" style="fill:none;stroke:#000000;stroke-width:0.0508" d="M 39.9167 85.025 L 39.9167 87.925 L 41.8167 87.925 L 41.8167 85.025 L 39.9167 85.025 Z"/>
      <path id="hole_005" style="fill:none;stroke:#000000;stroke-width:0.0508" d="M 68.25 91.8 L 68.25 94.7 L 70.15 94.7 L 70.15 91.8 L 68.25 91.8 Z"/>
      <path id="hole_006" style="fill:none;stroke:#000000;stroke-width:0.0508" d="M 63.25 91.8 L 63.25 94.7 L 65.15 94.7 L 65.15 91.8 L 63.25 91.8 Z"/>
      <path id="hole_007" style="fill:none;stroke:#000000;stroke-width:0.0508" d="M 51.5833 91.8 L 51.5833 94.7 L 53.4833 94.7 L 53.4833 91.8 L 51.5833 91.8 Z"/>
      <path id="hole_008" style="fill:none;stroke:#000000;stroke-width:0.0508" d="M 39.9167 91.8 L 39.9167 94.7 L 41.8167 94.7 L 41.8167 91.8 L 39.9167 91.8 Z"/>
      <path id="hole_009" style="fill:none;stroke:#000000;stroke-width:0.0508" d="M 68.25 98.575 L 68.25 101.475 L 70.15 101.475 L 70.15 98.575 L 68.25 98.575 Z"/>
      <path id="hole_010" style="fill:none;stroke:#000000;stroke-width:0.0508" d="M 63.25 98.575 L 63.25 101.475 L 65.15 101.475 L 65.15 98.575 L 63.25 98.575 Z"/>
      <path id="hole_011" style="fill:none;stroke:#000000;stroke-width:0.0508" d="M 51.5833 98.575 L 51.5833 101.475 L 53.4833 101.475 L 53.4833 98.575 L 51.5833 98.575 Z"/>
      <path id="hole_012" style="fill:none;stroke:#000000;stroke-width:0.0508" d="M 39.9167 98.575 L 39.9167 101.475 L 41.8167 101.475 L 41.8167 98.575 L 39.9167 98.575 Z"/>
      <path id="side_003" style="fill:none;stroke:#000000;stroke-width:0.0508" d="M 80.2 105.3 L 76.8056 105.3 L 76.8056 105.3 L 73.9056 105.3 L 73.9056 105.3 L 70.4611 105.3 L 70.4611 105.3 L 67.5611 105.3 L 67.5611 105.3 L 64.1167 105.3 L 64.1167 105.3 L 61.2167 105.3 L 61.2167 105.3 L 57.7722 105.3 L 57.7722 105.3 L 54.8722 105.3 L 54.8722 105.3 L 51.4278 105.3 L 51.4278 105.3 L 48.5278 105.3 L 48.5278 105.3 L 45.0833 105.3 L 45.0833 105.3 L 42.1833 105.3 L 42.1833 105.3 L 38.7389 105.3 L 38.7389 105.3 L 35.8389 105.3 L 35.8389 105.3 L 32.3944 105.3 L 32.3944 105.3 L 29.4944 105.3 L 29.4944 105.3 L 26.1 105.3"/>
      <path id="side_004" style="fill:none;stroke:#000000;stroke-width:0.0508" d="M 26.1 105.3 L 26.1 101.475 L 28.1 101.475 L 28.1 98.575 L 26.1 98.575 L 26.1 94.7 L 28.1 94.7 L 28.1 91.8 L 26.1 91.8 L 26.1 87.925 L 28.1 87.925 L 28.1 85.025 L 26.1 85.025 L 26.1 83.2"/>
    </g>
    <g id="xdivider_001">
      <path id="side_005" style="fill:none;stroke:#000000;stroke-width:0.0508" d="M 26.1 108.3 L 29.3944 108.3 L 29.3944 106.3 L 32.4944 106.3 L 32.4944 108.3 L 35.7389 108.3 L 35.7389 106.3 L 38.8389 106.3 L 38.8389 108.3 L 42.0833 108.3 L 42.0833 106.3 L 45.1833 106.3 L 45.1833 108.3 L 48.4278 108.3 L 48.4278 106.3 L 51.5278 106.3 L 51.5278 108.3 L 54.7722 108.3 L 54.7722 106.3 L 57.8722 106.3 L 57.8722 108.3 L 61.1167 108.3 L 61.1167 106.3 L 64.2167 106.3 L 64.2167 108.3 L 67.4611 108.3 L 67.4611 106.3 L 70.5611 106.3 L 70.5611 108.3 L 73.8056 108.3 L 73.8056 106.3 L 76.9056 106.3 L 76.9056 108.3 L 80.2 108.3"/>
      <path id="side_006" style="fill:none;stroke:#000000;stroke-width:0.0508" d="M 80.2 108.3 L 80.2 110.125 L 78.2 110.125 L 78.2 113.025 L 80.2 113.025 L 80.2 116.9 L 78.2 116.9 L 78.2 119.8 L 80.2 119.8 L 80.2 123.675 L 78.2 123.675 L 78.2 126.575 L 80.2 126.575 L 80.2 130.4"/>
      <path id="slot_001" style="fill:none;stroke:#000000;stroke-width:0.0508" d="M 68.25 106.3 L 68.25 119.3 L 70.15 119.3 L 70.15 106.3 L 68.25 106.3 Z"/>
      <path id="slot_002" style="fill:none;stroke:#000000;stroke-width:0.0508" d="M 63.25 106.3 L 63.25 119.3 L 65.15 119.3 L 65.15 106.3 L 63.25 106.3 Z"/>
      <path id="slot_003" style="fill:none;stroke:#000000;stroke-width:0.0508" d="M 51.5833 106.3 L 51.5833 119.3 L 53.4833 119.3 L 53.4833 106.3 L 51.5833 106.3 Z"/>
      <path id="slot_004" style="fill:none;stroke:#000000;stroke-width:0.0508" d="M 39.9167 106.3 L 39.9167 119.3 L 41.8167 119.3 L 41.8167 106.3 L 39.9167 106.3 Z"/>
      <path id="side_007" style="fill:none;stroke:#000000;stroke-width:0.0508" d="M 80.2 130.4 L 76.8056 130.4 L 76.8056 130.4 L 73.9056 130.4 L 73.9056 130.4 L 70.4611 130.4 L 70.4611 130.4 L 67.5611 130.4 L 67.5611 130.4 L 64.1167 130.4 L 64.1167 130.4 L 61.2167 130.4 L 61.2167 130.4 L 57.7722 130.4 L 57.7722 130.4 L 54.8722 130.4 L 54.8722 130.4 L 51.4278 130.4 L 51.4278 130.4 L 48.5278 130.4 L 48.5278 130.4 L 45.0833 130.4 L 45.0833 130.4 L 42.1833 130.4 L 42.1833 130.4 L 38.7389 130.4 L 38.7389 130.4 L 35.8389 130.4 L 35.8389 130.4 L 32.3944 130.4 L 32.3944 130.4 L 29.4944 130.4 L 29.4944 130.4 L 26.1 130.4"/>
      <path id="side_008" style="fill:none;stroke:#000000;stroke-width:0.0508" d="M 26.1 130.4 L 26.1 126.575 L 28.1 126.575 L 28.1 123.675 L 26.1 123.675 L 26.1 119.8 L 28.1 119.8 L 28.1 116.9 L 26.1 116.9 L 26.1 113.025 L 28.1 113.025 L 28.1 110.125 L 26.1 110.125 L 26.1 108.3"/>
    </g>
    <g id="xdivider_002">
      <path id="side_009" style="fill:none;stroke:#000000;stroke-width:0.0508" d="M 26.1 133.4 L 29.3944 133.4 L 29.3944 131.4 L 32.4944 131.4 L 32.4944 133.4 L 35.7389 133.4 L 35.7389 131.4 L 38.8389 131.4 L 38.8389 133.4 L 42.0833 133.4 L 42.0833 131.4 L 45.1833 131.4 L 45.1833 133.4 L 48.4278 133.4 L 48.4278 131.4 L 51.5278 131.4 L 51.5278 133.4 L 54.7722 133.4 L 54.7722 131.4 L 57.8722 131.4 L 57.8722 133.4 L 61.1167 133.4 L 61.1167 131.4 L 64.2167 131.4 L 64.2167 133.4 L 67.4611 133.4 L 67.4611 131.4 L 70.5611 131.4 L 70.5611 133.4 L 73.8056 133.4 L 73.8056 131.4 L 76.9056 131.4 L 76.9056 133.4 L 80.2 133.4"/>
      <path id="side_010" style="fill:none;stroke:#000000;stroke-width:0.0508" d="M 80.2 133.4 L 80.2 135.225 L 78.2 135.225 L 78.2 138.125 L 80.2 138.125 L 80.2 142 L 78.2 142 L 78.2 144.9 L 80.2 144.9 L 80.2 148.775 L 78.2 148.775 L 78.2 151.675 L 80.2 151.675 L 80.2 155.5"/>
      <path id="slot_005" style="fill:none;stroke:#000000;stroke-width:0.0508" d="M 68.25 131.4 L 68.25 144.4 L 70.15 144.4 L 70.15 131.4 L 68.25 131.4 Z"/>
      <path id="slot_006" style="fill:none;stroke:#000000;stroke-width:0.0508" d="M 63.25 131.4 L 63.25 144.4 L 65.15 144.4 L 65.15 131.4 L 63.25 131.4 Z"/>
      <path id="slot_007" style="fill:none;stroke:#000000;stroke-width:0.0508" d="M 51.5833 131.4 L 51.5833 144.4 L 53.4833 144.4 L 53.4833 131.4 L 51.5833 131.4 Z"/>
      <path id="slot_008" style="fill:none;stroke:#000000;stroke-width:0.0508" d="M 39.9167 131.4 L 39.9167 144.4 L 41.8167 144.4 L 41.8167 131.4 L 39.9167 131.4 Z"/>
      <path id="side_011" style="fill:none;stroke:#000000;stroke-width:0.0508" d="M 80.2 155.5 L 76.8056 155.5 L 76.8056 155.5 L 73.9056 155.5 L 73.9056 155.5 L 70.4611 155.5 L 70.4611 155.5 L 67.5611 155.5 L 67.5611 155.5 L 64.1167 155.5 L 64.1167 155.5 L 61.2167 155.5 L 61.2167 155.5 L 57.7722 155.5 L 57.7722 155.5 L 54.8722 155.5 L 54.8722 155.5 L 51.4278 155.5 L 51.4278 155.5 L 48.5278 155.5 L 48.5278 155.5 L 45.0833 155.5 L 45.0833 155.5 L 42.1833 155.5 L 42.1833 155.5 L 38.7389 155.5 L 38.7389 155.5 L 35.8389 155.5 L 35.8389 155.5 L 32.3944 155.5 L 32.3944 155.5 L 29.4944 155.5 L 29.4944 155.5 L 26.1 155.5"/>
      <path id="side_012" style="fill:none;stroke:#000000;stroke-width:0.0508" d="M 26.1 155.5 L 26.1 151.675 L 28.1 151.675 L 28.1 148.775 L 26.1 148.775 L 26.1 144.9 L 28.1 144.9 L 28.1 142 L 26.1 142 L 26.1 138.125 L 28.1 138.125 L 28.1 135.225 L 26.1 135.225 L 26.1 133.4"/>
    </g>
    <g id="xdivider_003">
      <path id="side_013" style="fill:none;stroke:#000000;stroke-width:0.0508" d="M 26.1 158.5 L 29.3944 158.5 L 29.3944 156.5 L 32.4944 156.5 L 32.4944 158.5 L 35.7389 158.5 L 35.7389 156.5 L 38.8389 156.5 L 38.8389 158.5 L 42.0833 158.5 L 42.0833 156.5 L 45.1833 156.5 L 45.1833 158.5 L 48.4278 158.5 L 48.4278 156.5 L 51.5278 156.5 L 51.5278 158.5 L 54.7722 158.5 L 54.7722 156.5 L 57.8722 156.5 L 57.8722 158.5 L 61.1167 158.5 L 61.1167 156.5 L 64.2167 156.5 L 64.2167 158.5 L 67.4611 158.5 L 67.4611 156.5 L 70.5611 156.5 L 70.5611 158.5 L 73.8056 158.5 L 73.8056 156.5 L 76.9056 156.5 L 76.9056 158.5 L 80.2 158.5"/>
      <path id="side_014" style="fill:none;stroke:#000000;stroke-width:0.0508" d="M 80.2 158.5 L 80.2 160.325 L 78.2 160.325 L 78.2 163.225 L 80.2 163.225 L 80.2 167.1 L 78.2 167.1 L 78.2 170 L 80.2 170 L 80.2 173.875 L 78.2 173.875 L 78.2 176.775 L 80.2 176.775 L 80.2 180.6"/>
      <path id="slot_009" style="fill:none;stroke:#000000;stroke-width:0.0508" d="M 68.25 156.5 L 68.25 169.5 L 70.15 169.5 L 70.15 156.5 L 68.25 156.5 Z"/>
      <path id="slot_010" style="fill:none;stroke:#000000;stroke-width:0.0508" d="M 63.25 156.5 L 63.25 169.5 L 65.15 169.5 L 65.15 156.5 L 63.25 156.5 Z"/>
      <path id="slot_011" style="fill:none;stroke:#000000;stroke-width:0.0508" d="M 51.5833 156.5 L 51.5833 169.5 L 53.4833 169.5 L 53.4833 156.5 L 51.5833 156.5 Z"/>
      <path id="slot_012" style="fill:none;stroke:#000000;stroke-width:0.0508" d="M 39.9167 156.5 L 39.9167 169.5 L 41.8167 169.5 L 41.8167 156.5 L 39.9167 156.5 Z"/>
      <path id="side_015" style="fill:none;stroke:#000000;stroke-width:0.0508" d="M 80.2 180.6 L 76.8056 180.6 L 76.8056 180.6 L 73.9056 180.6 L 73.9056 180.6 L 70.4611 180.6 L 70.4611 180.6 L 67.5611 180.6 L 67.5611 180.6 L 64.1167 180.6 L 64.1167 180.6 L 61.2167 180.6 L 61.2167 180.6 L 57.7722 180.6 L 57.7722 180.6 L 54.8722 180.6 L 54.8722 180.6 L 51.4278 180.6 L 51.4278 180.6 L 48.5278 180.6 L 48.5278 180.6 L 45.0833 180.6 L 45.0833 180.6 L 42.1833 180.6 L 42.1833 180.6 L 38.7389 180.6 L 38.7389 180.6 L 35.8389 180.6 L 35.8389 180.6 L 32.3944 180.6 L 32.3944 180.6 L 29.4944 180.6 L 29.4944 180.6 L 26.1 180.6"/>
      <path id="side_016" style="fill:none;stroke:#000000;stroke-width:0.0508" d="M 26.1 180.6 L 26.1 176.775 L 28.1 176.775 L 28.1 173.875 L 26.1 173.875 L 26.1 170 L 28.1 170 L 28.1 167.1 L 26.1 167.1 L 26.1 163.225 L 28.1 163.225 L 28.1 160.325 L 26.1 160.325 L 26.1 158.5"/>
    </g>
    <g id="piece_002">
      <path id="side_017" style="fill:none;stroke:#000000;stroke-width:0.0508" d="M 1 28.1 L 4.725 28.1 L 4.725 26.1 L 7.825 26.1 L 7.825 28.1 L 11.5 28.1 L 11.5 26.1 L 14.6 26.1 L 14.6 28.1 L 18.275 28.1 L 18.275 26.1 L 21.375 26.1 L 21.375 28.1 L 23.1 28.1"/>
      <path id="hole_013" style="fill:none;stroke:#000000;stroke-width:0.0508" d="M 1 38.05 L 4.725 38.05 L 4.725 36.15 L 1 36.15 L 1 38.05 Z"/>
      <path id="hole_014" style="fill:none;stroke:#000000;stroke-width:0.0508" d="M 1 43.05 L 4.725 43.05 L 4.725 41.15 L 1 41.15 L 1 43.05 Z"/>
      <path id="hole_015" style="fill:none;stroke:#000000;stroke-width:0.0508" d="M 1 53.05 L 4.725 53.05 L 4.725 51.15 L 1 51.15 L 1 53.05 Z"/>
      <path id="hole_016" style="fill:none;stroke:#000000;stroke-width:0.0508" d="M 7.825 38.05 L 11.5 38.05 L 11.5 36.15 L 7.825 36.15 L 7.825 38.05 Z"/>
      <path id="hole_017" style="fill:none;stroke:#000000;stroke-width:0.0508" d="M 7.825 43.05 L 11.5 43.05 L 11.5 41.15 L 7.825 41.15 L 7.825 43.05 Z"/>
      <path id="hole_018" style="fill:none;stroke:#000000;stroke-width:0.0508" d="M 7.825 53.05 L 11.5 53.05 L 11.5 51.15 L 7.825 51.15 L 7.825 53.05 Z"/>
      <path id="hole_019" style="fill:none;stroke:#000000;stroke-width:0.0508" d="M 14.6 38.05 L 18.275 38.05 L 18.275 36.15 L 14.6 36.15 L 14.6 38.05 Z"/>
      <path id="hole_020" style="fill:none;stroke:#000000;stroke-width:0.0508" d="M 14.6 43.05 L 18.275 43.05 L 18.275 41.15 L 14.6 41.15 L 14.6 43.05 Z"/>
      <path id="hole_021" style="fill:none;stroke:#000000;stroke-width:0.0508" d="M 14.6 53.05 L 18.275 53.05 L 18.275 51.15 L 14.6 51.15 L 14.6 53.05 Z"/>
      <path id="hole_022" style="fill:none;stroke:#000000;stroke-width:0.0508" d="M 21.375 38.05 L 23.05 38.05 L 23.05 36.15 L 21.375 36.15 L 21.375 38.05 Z"/>
      <path id="hole_023" style="fill:none;stroke:#000000;stroke-width:0.0508" d="M 21.375 43.05 L 23.05 43.05 L 23.05 41.15 L 21.375 41.15 L 21.375 43.05 Z"/>
      <path id="hole_024" style="fill:none;stroke:#000000;stroke-width:0.0508" d="M 21.375 53.05 L 23.05 53.05 L 23.05 51.15 L 21.375 51.15 L 21.375 53.05 Z"/>
      <path id="side_018" style="fill:none;stroke:#000000;stroke-width:0.0508" d="M 23.1 28.1 L 23.1 29.3944 L 25.1 29.3944 L 25.1 32.4944 L 23.1 32.4944 L 23.1 35.7389 L 25.1 35.7389 L 25.1 38.8389 L 23.1 38.8389 L 23.1 42.0833 L 25.1 42.0833 L 25.1 45.1833 L 23.1 45.1833 L 23.1 48.4278 L 25.1 48.4278 L 25.1 51.5278 L 23.1 51.5278 L 23.1 54.7722 L 25.1 54.7722 L 25.1 57.8722 L 23.1 57.8722 L 23.1 61.1167 L 25.1 61.1167 L 25.1 64.2167 L 23.1 64.2167 L 23.1 67.4611 L 25.1 67.4611 L 25.1 70.5611 L 23.1 70.5611 L 23.1 73.8056 L 25.1 73.8056 L 25.1 76.9056 L 23.1 76.9056 L 23.1 78.2"/>
      <path id="side_019" style="fill:none;stroke:#000000;stroke-width:0.0508" d="M 23.1 78.2 L 21.375 78.2 L 21.375 80.2 L 18.275 80.2 L 18.275 78.2 L 14.6 78.2 L 14.6 80.2 L 11.5 80.2 L 11.5 78.2 L 7.825 78.2 L 7.825 80.2 L 4.725 80.2 L 4.725 78.2 L 1 78.2"/>
      <path id="side_020" style="fill:none;stroke:#000000;stroke-width:0.0508" d="M 1 78.2 L 1 76.8056 L 1 76.8056 L 1 73.9056 L 1 73.9056 L 1 70.4611 L 1 70.4611 L 1 67.5611 L 1 67.5611 L 1 64.1167 L 1 64.1167 L 1 61.2167 L 1 61.2167 L 1 57.7722 L 1 57.7722 L 1 54.8722 L 1 54.8722 L 1 51.4278 L 1 51.4278 L 1 48.5278 L 1 48.5278 L 1 45.0833 L 1 45.0833 L 1 42.1833 L 1 42.1833 L 1 38.7389 L 1 38.7389 L 1 35.8389 L 1 35.8389 L 1 32.3944 L 1 32.3944 L 1 29.4944 L 1 29.4944 L 1 28.1"/>
    </g>
    <g id="ydivider_001">
      <path id="side_021" style="fill:none;stroke:#000000;stroke-width:0.0508" d="M 106.3 28.1 L 110.025 28.1 L 110.025 26.1 L 113.125 26.1 L 113.125 28.1 L 116.8 28.1 L 116.8 26.1 L 119.9 26.1 L 119.9 28.1 L 123.575 28.1 L 123.575 26.1 L 126.675 26.1 L 126.675 28.1 L 128.4 28.1"/>
      <path id="slot_013" style="fill:none;stroke:#000000;stroke-width:0.0508" d="M 106.3 36.15 L 117.4 36.15 L 117.4 38.05 L 106.3 38.05 L 106.3 36.15 Z"/>
      <path id="slot_014" style="fill:none;stroke:#000000;stroke-width:0.0508" d="M 106.3 41.15 L 117.4 41.15 L 117.4 43.05 L 106.3 43.05 L 106.3 41.15 Z"/>
      <path id="slot_015" style="fill:none;stroke:#000000;stroke-width:0.0508" d="M 106.3 51.15 L 117.4 51.15 L 117.4 53.05 L 106.3 53.05 L 106.3 51.15 Z"/>
      <path id="side_022" style="fill:none;stroke:#000000;stroke-width:0.0508" d="M 128.4 28.1 L 128.4 29.3944 L 130.4 29.3944 L 130.4 32.4944 L 128.4 32.4944 L 128.4 35.7389 L 130.4 35.7389 L 130.4 38.8389 L 128.4 38.8389 L 128.4 42.0833 L 130.4 42.0833 L 130.4 45.1833 L 128.4 45.1833 L 128.4 48.4278 L 130.4 48.4278 L 130.4 51.5278 L 128.4 51.5278 L 128.4 54.7722 L 130.4 54.7722 L 130.4 57.8722 L 128.4 57.8722 L 128.4 61.1167 L 130.4 61.1167 L 130.4 64.2167 L 128.4 64.2167 L 128.4 67.4611 L 130.4 67.4611 L 130.4 70.5611 L 128.4 70.5611 L 128.4 73.8056 L 130.4 73.8056 L 130.4 76.9056 L 128.4 76.9056 L 128.4 78.2"/>
      <path id="side_023" style="fill:none;stroke:#000000;stroke-width:0.0508" d="M 128.4 78.2 L 126.675 78.2 L 126.675 80.2 L 123.575 80.2 L 123.575 78.2 L 119.9 78.2 L 119.9 80.2 L 116.8 80.2 L 116.8 78.2 L 113.125 78.2 L 113.125 80.2 L 110.025 80.2 L 110.025 78.2 L 106.3 78.2"/>
      <path id="side_024" style="fill:none;stroke:#000000;stroke-width:0.0508" d="M 106.3 78.2 L 106.3 76.8056 L 106.3 76.8056 L 106.3 73.9056 L 106.3 73.9056 L 106.3 70.4611 L 106.3 70.4611 L 106.3 67.5611 L 106.3 67.5611 L 106.3 64.1167 L 106.3 64.1167 L 106.3 61.2167 L 106.3 61.2167 L 106.3 57.7722 L 106.3 57.7722 L 106.3 54.8722 L 106.3 54.8722 L 106.3 51.4278 L 106.3 51.4278 L 106.3 48.5278 L 106.3 48.5278 L 106.3 45.0833 L 106.3 45.0833 L 106.3 42.1833 L 106.3 42.1833 L 106.3 38.7389 L 106.3 38.7389 L 106.3 35.8389 L 106.3 35.8389 L 106.3 32.3944 L 106.3 32.3944 L 106.3 29.4944 L 106.3 29.4944 L 106.3 28.1"/>
    </g>
    <g id="ydivider_002">
      <path id="side_025" style="fill:none;stroke:#000000;stroke-width:0.0508" d="M 131.4 28.1 L 135.125 28.1 L 135.125 26.1 L 138.225 26.1 L 138.225 28.1 L 141.9 28.1 L 141.9 26.1 L 145 26.1 L 145 28.1 L 148.675 28.1 L 148.675 26.1 L 151.775 26.1 L 151.775 28.1 L 153.5 28.1"/>
      <path id="slot_016" style="fill:none;stroke:#000000;stroke-width:0.0508" d="M 131.4 36.15 L 142.5 36.15 L 142.5 38.05 L 131.4 38.05 L 131.4 36.15 Z"/>
      <path id="slot_017" style="fill:none;stroke:#000000;stroke-width:0.0508" d="M 131.4 41.15 L 142.5 41.15 L 142.5 43.05 L 131.4 43.05 L 131.4 41.15 Z"/>
      <path id="slot_018" style="fill:none;stroke:#000000;stroke-width:0.0508" d="M 131.4 51.15 L 142.5 51.15 L 142.5 53.05 L 131.4 53.05 L 131.4 51.15 Z"/>
      <path id="side_026" style="fill:none;stroke:#000000;stroke-width:0.0508" d="M 153.5 28.1 L 153.5 29.3944 L 155.5 29.3944 L 155.5 32.4944 L 153.5 32.4944 L 153.5 35.7389 L 155.5 35.7389 L 155.5 38.8389 L 153.5 38.8389 L 153.5 42.0833 L 155.5 42.0833 L 155.5 45.1833 L 153.5 45.1833 L 153.5 48.4278 L 155.5 48.4278 L 155.5 51.5278 L 153.5 51.5278 L 153.5 54.7722 L 155.5 54.7722 L 155.5 57.8722 L 153.5 57.8722 L 153.5 61.1167 L 155.5 61.1167 L 155.5 64.2167 L 153.5 64.2167 L 153.5 67.4611 L 155.5 67.4611 L 155.5 70.5611 L 153.5 70.5611 L 153.5 73.8056 L 155.5 73.8056 L 155.5 76.9056 L 153.5 76.9056 L 153.5 78.2"/>
      <path id="side_027" style="fill:none;stroke:#000000;stroke-width:0.0508" d="M 153.5 78.2 L 151.775 78.2 L 151.775 80.2 L 148.675 80.2 L 148.675 78.2 L 145 78.2 L 145 80.2 L 141.9 80.2 L 141.9 78.2 L 138.225 78.2 L 138.225 80.2 L 135.125 80.2 L 135.125 78.2 L 131.4 78.2"/>
      <path id="side_028" style="fill:none;stroke:#000000;stroke-width:0.0508" d="M 131.4 78.2 L 131.4 76.8056 L 131.4 76.8056 L 131.4 73.9056 L 131.4 73.9056 L 131.4 70.4611 L 131.4 70.4611 L 131.4 67.5611 L 131.4 67.5611 L 131.4 64.1167 L 131.4 64.1167 L 131.4 61.2167 L 131.4 61.2167 L 131.4 57.7722 L 131.4 57.7722 L 131.4 54.8722 L 131.4 54.8722 L 131.4 51.4278 L 131.4 51.4278 L 131.4 48.5278 L 131.4 48.5278 L 131.4 45.0833 L 131.4 45.0833 L 131.4 42.1833 L 131.4 42.1833 L 131.4 38.7389 L 131.4 38.7389 L 131.4 35.8389 L 131.4 35.8389 L 131.4 32.3944 L 131.4 32.3944 L 131.4 29.4944 L 131.4 29.4944 L 131.4 28.1"/>
    </g>
    <g id="ydivider_003">
      <path id="side_029" style="fill:none;stroke:#000000;stroke-width:0.0508" d="M 156.5 28.1 L 160.225 28.1 L 160.225 26.1 L 163.325 26.1 L 163.325 28.1 L 167 28.1 L 167 26.1 L 170.1 26.1 L 170.1 28.1 L 173.775 28.1 L 173.775 26.1 L 176.875 26.1 L 176.875 28.1 L 178.6 28.1"/>
      <path id="slot_019" style="fill:none;stroke:#000000;stroke-width:0.0508" d="M 156.5 36.15 L 167.6 36.15 L 167.6 38.05 L 156.5 38.05 L 156.5 36.15 Z"/>
      <path id="slot_020" style="fill:none;stroke:#000000;stroke-width:0.0508" d="M 156.5 41.15 L 167.6 41.15 L 167.6 43.05 L 156.5 43.05 L 156.5 41.15 Z"/>
      <path id="slot_021" style="fill:none;stroke:#000000;stroke-width:0.0508" d="M 156.5 51.15 L 167.6 51.15 L 167.6 53.05 L 156.5 53.05 L 156.5 51.15 Z"/>
      <path id="side_030" style="fill:none;stroke:#000000;stroke-width:0.0508" d="M 178.6 28.1 L 178.6 29.3944 L 180.6 29.3944 L 180.6 32.4944 L 178.6 32.4944 L 178.6 35.7389 L 180.6 35.7389 L 180.6 38.8389 L 178.6 38.8389 L 178.6 42.0833 L 180.6 42.0833 L 180.6 45.1833 L 178.6 45.1833 L 178.6 48.4278 L 180.6 48.4278 L 180.6 51.5278 L 178.6 51.5278 L 178.6 54.7722 L 180.6 54.7722 L 180.6 57.8722 L 178.6 57.8722 L 178.6 61.1167 L 180.6 61.1167 L 180.6 64.2167 L 178.6 64.2167 L 178.6 67.4611 L 180.6 67.4611 L 180.6 70.5611 L 178.6 70.5611 L 178.6 73.8056 L 180.6 73.8056 L 180.6 76.9056 L 178.6 76.9056 L 178.6 78.2"/>
      <path id="side_031" style="fill:none;stroke:#000000;stroke-width:0.0508" d="M 178.6 78.2 L 176.875 78.2 L 176.875 80.2 L 173.775 80.2 L 173.775 78.2 L 170.1 78.2 L 170.1 80.2 L 167 80.2 L 167 78.2 L 163.325 78.2 L 163.325 80.2 L 160.225 80.2 L 160.225 78.2 L 156.5 78.2"/>
      <path id="side_032" style="fill:none;stroke:#000000;stroke-width:0.0508" d="M 156.5 78.2 L 156.5 76.8056 L 156.5 76.8056 L 156.5 73.9056 L 156.5 73.9056 L 156.5 70.4611 L 156.5 70.4611 L 156.5 67.5611 L 156.5 67.5611 L 156.5 64.1167 L 156.5 64.1167 L 156.5 61.2167 L 156.5 61.2167 L 156.5 57.7722 L 156.5 57.7722 L 156.5 54.8722 L 156.5 54.8722 L 156.5 51.4278 L 156.5 51.4278 L 156.5 48.5278 L 156.5 48.5278 L 156.5 45.0833 L 156.5 45.0833 L 156.5 42.1833 L 156.5 42.1833 L 156.5 38.7389 L 156.5 38.7389 L 156.5 35.8389 L 156.5 35.8389 L 156.5 32.3944 L 156.5 32.3944 L 156.5 29.4944 L 156.5 29.4944 L 156.5 28.1"/>
    </g>
    <g id="ydivider_004">
      <path id="side_033" style="fill:none;stroke:#000000;stroke-width:0.0508" d="M 181.6 28.1 L 185.325 28.1 L 185.325 26.1 L 188.425 26.1 L 188.425 28.1 L 192.1 28.1 L 192.1 26.1 L 195.2 26.1 L 195.2 28.1 L 198.875 28.1 L 198.875 26.1 L 201.975 26.1 L 201.975 28.1 L 203.7 28.1"/>
      <path id="slot_022" style="fill:none;stroke:#000000;stroke-width:0.0508" d="M 181.6 36.15 L 192.7 36.15 L 192.7 38.05 L 181.6 38.05 L 181.6 36.15 Z"/>
      <path id="slot_023" style="fill:none;stroke:#000000;stroke-width:0.0508" d="M 181.6 41.15 L 192.7 41.15 L 192.7 43.05 L 181.6 43.05 L 181.6 41.15 Z"/>
      <path id="slot_024" style="fill:none;stroke:#000000;stroke-width:0.0508" d="M 181.6 51.15 L 192.7 51.15 L 192.7 53.05 L 181.6 53.05 L 181.6 51.15 Z"/>
      <path id="side_034" style="fill:none;stroke:#000000;stroke-width:0.0508" d="M 203.7 28.1 L 203.7 29.3944 L 205.7 29.3944 L 205.7 32.4944 L 203.7 32.4944 L 203.7 35.7389 L 205.7 35.7389 L 205.7 38.8389 L 203.7 38.8389 L 203.7 42.0833 L 205.7 42.0833 L 205.7 45.1833 L 203.7 45.1833 L 203.7 48.4278 L 205.7 48.4278 L 205.7 51.5278 L 203.7 51.5278 L 203.7 54.7722 L 205.7 54.7722 L 205.7 57.8722 L 203.7 57.8722 L 203.7 61.1167 L 205.7 61.1167 L 205.7 64.2167 L 203.7 64.2167 L 203.7 67.4611 L 205.7 67.4611 L 205.7 70.5611 L 203.7 70.5611 L 203.7 73.8056 L 205.7 73.8056 L 205.7 76.9056 L 203.7 76.9056 L 203.7 78.2"/>
      <path id="side_035" style="fill:none;stroke:#000000;stroke-width:0.0508" d="M 203.7 78.2 L 201.975 78.2 L 201.975 80.2 L 198.875 80.2 L 198.875 78.2 L 195.2 78.2 L 195.2 80.2 L 192.1 80.2 L 192.1 78.2 L 188.425 78.2 L 188.425 80.2 L 185.325 80.2 L 185.325 78.2 L 181.6 78.2"/>
      <path id="side_036" style="fill:none;stroke:#000000;stroke-width:0.0508" d="M 181.6 78.2 L 181.6 76.8056 L 181.6 76.8056 L 181.6 73.9056 L 181.6 73.9056 L 181.6 70.4611 L 181.6 70.4611 L 181.6 67.5611 L 181.6 67.5611 L 181.6 64.1167 L 181.6 64.1167 L 181.6 61.2167 L 181.6 61.2167 L 181.6 57.7722 L 181.6 57.7722 L 181.6 54.8722 L 181.6 54.8722 L 181.6 51.4278 L 181.6 51.4278 L 181.6 48.5278 L 181.6 48.5278 L 181.6 45.0833 L 181.6 45.0833 L 181.6 42.1833 L 181.6 42.1833 L 181.6 38.7389 L 181.6 38.7389 L 181.6 35.8389 L 181.6 35.8389 L 181.6 32.3944 L 181.6 32.3944 L 181.6 29.4944 L 181.6 29.4944 L 181.6 28.1"/>
    </g>
    <g id="piece_003">
      <path id="side_037" style="fill:none;stroke:#000000;stroke-width:0.0508" d="M 26.1 26.1 L 29.4944 26.1 L 29.4944 28.1 L 32.3944 28.1 L 32.3944 26.1 L 35.8389 26.1 L 35.8389 28.1 L 38.7389 28.1 L 38.7389 26.1 L 42.1833 26.1 L 42.1833 28.1 L 45.0833 28.1 L 45.0833 26.1 L 48.5278 26.1 L 48.5278 28.1 L 51.4278 28.1 L 51.4278 26.1 L 54.8722 26.1 L 54.8722 28.1 L 57.7722 28.1 L 57.7722 26.1 L 61.2167 26.1 L 61.2167 28.1 L 64.1167 28.1 L 64.1167 26.1 L 67.5611 26.1 L 67.5611 28.1 L 70.4611 28.1 L 70.4611 26.1 L 73.9056 26.1 L 73.9056 28.1 L 76.8056 28.1 L 76.8056 26.1 L 80.2 26.1"/>
      <path id="hole_025" style="fill:none;stroke:#000000;stroke-width:0.0508" d="M 29.4944 38.05 L 32.3944 38.05 L 32.3944 36.15 L 29.4944 36.15 L 29.4944 38.05 Z"/>
      <path id="hole_026" style="fill:none;stroke:#000000;stroke-width:0.0508" d="M 29.4944 43.05 L 32.3944 43.05 L 32.3944 41.15 L 29.4944 41.15 L 29.4944 43.05 Z"/>
      <path id="hole_027" style="fill:none;stroke:#000000;stroke-width:0.0508" d="M 29.4944 53.05 L 32.3944 53.05 L 32.3944 51.15 L 29.4944 51.15 L 29.4944 53.05 Z"/>
      <path id="hole_028" style="fill:none;stroke:#000000;stroke-width:0.0508" d="M 35.8389 38.05 L 38.7389 38.05 L 38.7389 36.15 L 35.8389 36.15 L 35.8389 38.05 Z"/>
      <path id="hole_029" style="fill:none;stroke:#000000;stroke-width:0.0508" d="M 35.8389 43.05 L 38.7389 43.05 L 38.7389 41.15 L 35.8389 41.15 L 35.8389 43.05 Z"/>
      <path id="hole_030" style="fill:none;stroke:#000000;stroke-width:0.0508" d="M 35.8389 53.05 L 38.7389 53.05 L 38.7389 51.15 L 35.8389 51.15 L 35.8389 53.05 Z"/>
      <path id="hole_031" style="fill:none;stroke:#000000;stroke-width:0.0508" d="M 42.1833 38.05 L 45.0833 38.05 L 45.0833 36.15 L 42.1833 36.15 L 42.1833 38.05 Z"/>
      <path id="hole_032" style="fill:none;stroke:#000000;stroke-width:0.0508" d="M 42.1833 43.05 L 45.0833 43.05 L 45.0833 41.15 L 42.1833 41.15 L 42.1833 43.05 Z"/>
      <path id="hole_033" style="fill:none;stroke:#000000;stroke-width:0.0508" d="M 42.1833 53.05 L 45.0833 53.05 L 45.0833 51.15 L 42.1833 51.15 L 42.1833 53.05 Z"/>
      <path id="hole_034" style="fill:none;stroke:#000000;stroke-width:0.0508" d="M 48.5278 38.05 L 51.4278 38.05 L 51.4278 36.15 L 48.5278 36.15 L 48.5278 38.05 Z"/>
      <path id="hole_035" style="fill:none;stroke:#000000;stroke-width:0.0508" d="M 48.5278 43.05 L 51.4278 43.05 L 51.4278 41.15 L 48.5278 41.15 L 48.5278 43.05 Z"/>
      <path id="hole_036" style="fill:none;stroke:#000000;stroke-width:0.0508" d="M 48.5278 53.05 L 51.4278 53.05 L 51.4278 51.15 L 48.5278 51.15 L 48.5278 53.05 Z"/>
      <path id="hole_037" style="fill:none;stroke:#000000;stroke-width:0.0508" d="M 54.8722 38.05 L 57.7722 38.05 L 57.7722 36.15 L 54.8722 36.15 L 54.8722 38.05 Z"/>
      <path id="hole_038" style="fill:none;stroke:#000000;stroke-width:0.0508" d="M 54.8722 43.05 L 57.7722 43.05 L 57.7722 41.15 L 54.8722 41.15 L 54.8722 43.05 Z"/>
      <path id="hole_039" style="fill:none;stroke:#000000;stroke-width:0.0508" d="M 54.8722 53.05 L 57.7722 53.05 L 57.7722 51.15 L 54.8722 51.15 L 54.8722 53.05 Z"/>
      <path id="hole_040" style="fill:none;stroke:#000000;stroke-width:0.0508" d="M 61.2167 38.05 L 64.1167 38.05 L 64.1167 36.15 L 61.2167 36.15 L 61.2167 38.05 Z"/>
      <path id="hole_041" style="fill:none;stroke:#000000;stroke-width:0.0508" d="M 61.2167 43.05 L 64.1167 43.05 L 64.1167 41.15 L 61.2167 41.15 L 61.2167 43.05 Z"/>
      <path id="hole_042" style="fill:none;stroke:#000000;stroke-width:0.0508" d="M 61.2167 53.05 L 64.1167 53.05 L 64.1167 51.15 L 61.2167 51.15 L 61.2167 53.05 Z"/>
      <path id="hole_043" style="fill:none;stroke:#000000;stroke-width:0.0508" d="M 67.5611 38.05 L 70.4611 38.05 L 70.4611 36.15 L 67.5611 36.15 L 67.5611 38.05 Z"/>
      <path id="hole_044" style="fill:none;stroke:#000000;stroke-width:0.0508" d="M 67.5611 43.05 L 70.4611 43.05 L 70.4611 41.15 L 67.5611 41.15 L 67.5611 43.05 Z"/>
      <path id="hole_045" style="fill:none;stroke:#000000;stroke-width:0.0508" d="M 67.5611 53.05 L 70.4611 53.05 L 70.4611 51.15 L 67.5611 51.15 L 67.5611 53.05 Z"/>
      <path id="hole_046" style="fill:none;stroke:#000000;stroke-width:0.0508" d="M 73.9056 38.05 L 76.8056 38.05 L 76.8056 36.15 L 73.9056 36.15 L 73.9056 38.05 Z"/>
      <path id="hole_047" style="fill:none;stroke:#000000;stroke-width:0.0508" d="M 73.9056 43.05 L 76.8056 43.05 L 76.8056 41.15 L 73.9056 41.15 L 73.9056 43.05 Z"/>
      <path id="hole_048" style="fill:none;stroke:#000000;stroke-width:0.0508" d="M 73.9056 53.05 L 76.8056 53.05 L 76.8056 51.15 L 73.9056 51.15 L 73.9056 53.05 Z"/>
      <path id="side_038" style="fill:none;stroke:#000000;stroke-width:0.0508" d="M 80.2 26.1 L 80.2 29.4944 L 78.2 29.4944 L 78.2 32.3944 L 80.2 32.3944 L 80.2 35.8389 L 78.2 35.8389 L 78.2 38.7389 L 80.2 38.7389 L 80.2 42.1833 L 78.2 42.1833 L 78.2 45.0833 L 80.2 45.0833 L 80.2 48.5278 L 78.2 48.5278 L 78.2 51.4278 L 80.2 51.4278 L 80.2 54.8722 L 78.2 54.8722 L 78.2 57.7722 L 80.2 57.7722 L 80.2 61.2167 L 78.2 61.2167 L 78.2 64.1167 L 80.2 64.1167 L 80.2 67.5611 L 78.2 67.5611 L 78.2 70.4611 L 80.2 70.4611 L 80.2 73.9056 L 78.2 73.9056 L 78.2 76.8056 L 80.2 76.8056 L 80.2 80.2"/>
      <path id="hole_049" style="fill:none;stroke:#000000;stroke-width:0.0508" d="M 68.25 29.4944 L 68.25 32.3944 L 70.15 32.3944 L 70.15 29.4944 L 68.25 29.4944 Z"/>
      <path id="hole_050" style="fill:none;stroke:#000000;stroke-width:0.0508" d="M 63.25 29.4944 L 63.25 32.3944 L 65.15 32.3944 L 65.15 29.4944 L 63.25 29.4944 Z"/>
      <path id="hole_051" style="fill:none;stroke:#000000;stroke-width:0.0508" d="M 51.5833 29.4944 L 51.5833 32.3944 L 53.4833 32.3944 L 53.4833 29.4944 L 51.5833 29.4944 Z"/>
      <path id="hole_052" style="fill:none;stroke:#000000;stroke-width:0.0508" d="M 39.9167 29.4944 L 39.9167 32.3944 L 41.8167 32.3944 L 41.8167 29.4944 L 39.9167 29.4944 Z"/>
      <path id="hole_053" style="fill:none;stroke:#000000;stroke-width:0.0508" d="M 68.25 35.8389 L 68.25 38.7389 L 70.15 38.7389 L 70.15 35.8389 L 68.25 35.8389 Z"/>
      <path id="hole_054" style="fill:none;stroke:#000000;stroke-width:0.0508" d="M 63.25 35.8389 L 63.25 38.7389 L 65.15 38.7389 L 65.15 35.8389 L 63.25 35.8389 Z"/>
      <path id="hole_055" style="fill:none;stroke:#000000;stroke-width:0.0508" d="M 51.5833 35.8389 L 51.5833 38.7389 L 53.4833 38.7389 L 53.4833 35.8389 L 51.5833 35.8389 Z"/>
      <path id="hole_056" style="fill:none;stroke:#000000;stroke-width:0.0508" d="M 39.9167 35.8389 L 39.9167 38.7389 L 41.8167 38.7389 L 41.8167 35.8389 L 39.9167 35.8389 Z"/>
      <path id="hole_057" style="fill:none;stroke:#000000;stroke-width:0.0508" d="M 68.25 42.1833 L 68.25 45.0833 L 70.15 45.0833 L 70.15 42.1833 L 68.25 42.1833 Z"/>
      <path id="hole_058" style="fill:none;stroke:#000000;stroke-width:0.0508" d="M 63.25 42.1833 L 63.25 45.0833 L 65.15 45.0833 L 65.15 42.1833 L 63.25 42.1833 Z"/>
      <path id="hole_059" style="fill:none;stroke:#000000;stroke-width:0.0508" d="M 51.5833 42.1833 L 51.5833 45.0833 L 53.4833 45.0833 L 53.4833 42.1833 L 51.5833 42.1833 Z"/>
      <path id="hole_060" style="fill:none;stroke:#000000;stroke-width:0.0508" d="M 39.9167 42.1833 L 39.9167 45.0833 L 41.8167 45.0833 L 41.8167 42.1833 L 39.9167 42.1833 Z"/>
      <path id="hole_061" style="fill:none;stroke:#000000;stroke-width:0.0508" d="M 68.25 48.5278 L 68.25 51.4278 L 70.15 51.4278 L 70.15 48.5278 L 68.25 48.5278 Z"/>
      <path id="hole_062" style="fill:none;stroke:#000000;stroke-width:0.0508" d="M 63.25 48.5278 L 63.25 51.4278 L 65.15 51.4278 L 65.15 48.5278 L 63.25 48.5278 Z"/>
      <path id="hole_063" style="fill:none;stroke:#000000;stroke-width:0.0508" d="M 51.5833 48.5278 L 51.5833 51.4278 L 53.4833 51.4278 L 53.4833 48.5278 L 51.5833 48.5278 Z"/>
      <path id="hole_064" style="fill:none;stroke:#000000;stroke-width:0.0508" d="M 39.9167 48.5278 L 39.9167 51.4278 L 41.8167 51.4278 L 41.8167 48.5278 L 39.9167 48.5278 Z"/>
      <path id="hole_065" style="fill:none;stroke:#000000;stroke-width:0.0508" d="M 68.25 54.8722 L 68.25 57.7722 L 70.15 57.7722 L 70.15 54.8722 L 68.25 54.8722 Z"/>
      <path id="hole_066" style="fill:none;stroke:#000000;stroke-width:0.0508" d="M 63.25 54.8722 L 63.25 57.7722 L 65.15 57.7722 L 65.15 54.8722 L 63.25 54.8722 Z"/>
      <path id="hole_067" style="fill:none;stroke:#000000;stroke-width:0.0508" d="M 51.5833 54.8722 L 51.5833 57.7722 L 53.4833 57.7722 L 53.4833 54.8722 L 51.5833 54.8722 Z"/>
      <path id="hole_068" style="fill:none;stroke:#000000;stroke-width:0.0508" d="M 39.9167 54.8722 L 39.9167 57.7722 L 41.8167 57.7722 L 41.8167 54.8722 L 39.9167 54.8722 Z"/>
      <path id="hole_069" style="fill:none;stroke:#000000;stroke-width:0.0508" d="M 68.25 61.2167 L 68.25 64.1167 L 70.15 64.1167 L 70.15 61.2167 L 68.25 61.2167 Z"/>
      <path id="hole_070" style="fill:none;stroke:#000000;stroke-width:0.0508" d="M 63.25 61.2167 L 63.25 64.1167 L 65.15 64.1167 L 65.15 61.2167 L 63.25 61.2167 Z"/>
      <path id="hole_071" style="fill:none;stroke:#000000;stroke-width:0.0508" d="M 51.5833 61.2167 L 51.5833 64.1167 L 53.4833 64.1167 L 53.4833 61.2167 L 51.5833 61.2167 Z"/>
      <path id="hole_072" style="fill:none;stroke:#000000;stroke-width:0.0508" d="M 39.9167 61.2167 L 39.9167 64.1167 L 41.8167 64.1167 L 41.8167 61.2167 L 39.9167 61.2167 Z"/>
      <path id="hole_073" style="fill:none;stroke:#000000;stroke-width:0.0508" d="M 68.25 67.5611 L 68.25 70.4611 L 70.15 70.4611 L 70.15 67.5611 L 68.25 67.5611 Z"/>
      <path id="hole_074" style="fill:none;stroke:#000000;stroke-width:0.0508" d="M 63.25 67.5611 L 63.25 70.4611 L 65.15 70.4611 L 65.15 67.5611 L 63.25 67.5611 Z"/>
      <path id="hole_075" style="fill:none;stroke:#000000;stroke-width:0.0508" d="M 51.5833 67.5611 L 51.5833 70.4611 L 53.4833 70.4611 L 53.4833 67.5611 L 51.5833 67.5611 Z"/>
      <path id="hole_076" style="fill:none;stroke:#000000;stroke-width:0.0508" d="M 39.9167 67.5611 L 39.9167 70.4611 L 41.8167 70.4611 L 41.8167 67.5611 L 39.9167 67.5611 Z"/>
      <path id="hole_077" style="fill:none;stroke:#000000;stroke-width:0.0508" d="M 68.25 73.9056 L 68.25 76.8056 L 70.15 76.8056 L 70.15 73.9056 L 68.25 73.9056 Z"/>
      <path id="hole_078" style="fill:none;stroke:#000000;stroke-width:0.0508" d="M 63.25 73.9056 L 63.25 76.8056 L 65.15 76.8056 L 65.15 73.9056 L 63.25 73.9056 Z"/>
      <path id="hole_079" style="fill:none;stroke:#000000;stroke-width:0.0508" d="M 51.5833 73.9056 L 51.5833 76.8056 L 53.4833 76.8056 L 53.4833 73.9056 L 51.5833 73.9056 Z"/>
      <path id="hole_080" style="fill:none;stroke:#000000;stroke-width:0.0508" d="M 39.9167 73.9056 L 39.9167 76.8056 L 41.8167 76.8056 L 41.8167 73.9056 L 39.9167 73.9056 Z"/>
      <path id="side_039" style="fill:none;stroke:#000000;stroke-width:0.0508" d="M 80.2 80.2 L 76.8056 80.2 L 76.8056 78.2 L 73.9056 78.2 L 73.9056 80.2 L 70.4611 80.2 L 70.4611 78.2 L 67.5611 78.2 L 67.5611 80.2 L 64.1167 80.2 L 64.1167 78.2 L 61.2167 78.2 L 61.2167 80.2 L 57.7722 80.2 L 57.7722 78.2 L 54.8722 78.2 L 54.8722 80.2 L 51.4278 80.2 L 51.4278 78.2 L 48.5278 78.2 L 48.5278 80.2 L 45.0833 80.2 L 45.0833 78.2 L 42.1833 78.2 L 42.1833 80.2 L 38.7389 80.2 L 38.7389 78.2 L 35.8389 78.2 L 35.8389 80.2 L 32.3944 80.2 L 32.3944 78.2 L 29.4944 78.2 L 29.4944 80.2 L 26.1 80.2"/>
      <path id="side_040" style="fill:none;stroke:#000000;stroke-width:0.0508" d="M 26.1 80.2 L 26.1 76.8056 L 28.1 76.8056 L 28.1 73.9056 L 26.1 73.9056 L 26.1 70.4611 L 28.1 70.4611 L 28.1 67.5611 L 26.1 67.5611 L 26.1 64.1167 L 28.1 64.1167 L 28.1 61.2167 L 26.1 61.2167 L 26.1 57.7722 L 28.1 57.7722 L 28.1 54.8722 L 26.1 54.8722 L 26.1 51.4278 L 28.1 51.4278 L 28.1 48.5278 L 26.1 48.5278 L 26.1 45.0833 L 28.1 45.0833 L 28.1 42.1833 L 26.1 42.1833 L 26.1 38.7389 L 28.1 38.7389 L 28.1 35.8389 L 26.1 35.8389 L 26.1 32.3944 L 28.1 32.3944 L 28.1 29.4944 L 26.1 29.4944 L 26.1 26.1"/>
    </g>
    <g id="piece_004">
      <path id="side_041" style="fill:none;stroke:#000000;stroke-width:0.0508" d="M 83.2 28.1 L 84.925 28.1 L 84.925 26.1 L 88.025 26.1 L 88.025 28.1 L 91.7 28.1 L 91.7 26.1 L 94.8 26.1 L 94.8 28.1 L 98.475 28.1 L 98.475 26.1 L 101.575 26.1 L 101.575 28.1 L 105.3 28.1"/>
      <path id="hole_081" style="fill:none;stroke:#000000;stroke-width:0.0508" d="M 83.2 38.05 L 84.925 38.05 L 84.925 36.15 L 83.2 36.15 L 83.2 38.05 Z"/>
      <path id="hole_082" style="fill:none;stroke:#000000;stroke-width:0.0508" d="M 83.2 43.05 L 84.925 43.05 L 84.925 41.15 L 83.2 41.15 L 83.2 43.05 Z"/>
      <path id="hole_083" style="fill:none;stroke:#000000;stroke-width:0.0508" d="M 83.2 53.05 L 84.925 53.05 L 84.925 51.15 L 83.2 51.15 L 83.2 53.05 Z"/>
      <path id="hole_084" style="fill:none;stroke:#000000;stroke-width:0.0508" d="M 88.025 38.05 L 91.7 38.05 L 91.7 36.15 L 88.025 36.15 L 88.025 38.05 Z"/>
      <path id="hole_085" style="fill:none;stroke:#000000;stroke-width:0.0508" d="M 88.025 43.05 L 91.7 43.05 L 91.7 41.15 L 88.025 41.15 L 88.025 43.05 Z"/>
      <path id="hole_086" style="fill:none;stroke:#000000;stroke-width:0.0508" d="M 88.025 53.05 L 91.7 53.05 L 91.7 51.15 L 88.025 51.15 L 88.025 53.05 Z"/>
      <path id="hole_087" style="fill:none;stroke:#000000;stroke-width:0.0508" d="M 94.8 38.05 L 98.475 38.05 L 98.475 36.15 L 94.8 36.15 L 94.8 38.05 Z"/>
      <path id="hole_088" style="fill:none;stroke:#000000;stroke-width:0.0508" d="M 94.8 43.05 L 98.475 43.05 L 98.475 41.15 L 94.8 41.15 L 94.8 43.05 Z"/>
      <path id="hole_089" style="fill:none;stroke:#000000;stroke-width:0.0508" d="M 94.8 53.05 L 98.475 53.05 L 98.475 51.15 L 94.8 51.15 L 94.8 53.05 Z"/>
      <path id="hole_090" style="fill:none;stroke:#000000;stroke-width:0.0508" d="M 101.575 38.05 L 105.25 38.05 L 105.25 36.15 L 101.575 36.15 L 101.575 38.05 Z"/>
      <path id="hole_091" style="fill:none;stroke:#000000;stroke-width:0.0508" d="M 101.575 43.05 L 105.25 43.05 L 105.25 41.15 L 101.575 41.15 L 101.575 43.05 Z"/>
      <path id="hole_092" style="fill:none;stroke:#000000;stroke-width:0.0508" d="M 101.575 53.05 L 105.25 53.05 L 105.25 51.15 L 101.575 51.15 L 101.575 53.05 Z"/>
      <path id="side_042" style="fill:none;stroke:#000000;stroke-width:0.0508" d="M 105.3 28.1 L 105.3 29.4944 L 105.3 29.4944 L 105.3 32.3944 L 105.3 32.3944 L 105.3 35.8389 L 105.3 35.8389 L 105.3 38.7389 L 105.3 38.7389 L 105.3 42.1833 L 105.3 42.1833 L 105.3 45.0833 L 105.3 45.0833 L 105.3 48.5278 L 105.3 48.5278 L 105.3 51.4278 L 105.3 51.4278 L 105.3 54.8722 L 105.3 54.8722 L 105.3 57.7722 L 105.3 57.7722 L 105.3 61.2167 L 105.3 61.2167 L 105.3 64.1167 L 105.3 64.1167 L 105.3 67.5611 L 105.3 67.5611 L 105.3 70.4611 L 105.3 70.4611 L 105.3 73.9056 L 105.3 73.9056 L 105.3 76.8056 L 105.3 76.8056 L 105.3 78.2"/>
      <path id="side_043" style="fill:none;stroke:#000000;stroke-width:0.0508" d="M 105.3 78.2 L 101.575 78.2 L 101.575 80.2 L 98.475 80.2 L 98.475 78.2 L 94.8 78.2 L 94.8 80.2 L 91.7 80.2 L 91.7 78.2 L 88.025 78.2 L 88.025 80.2 L 84.925 80.2 L 84.925 78.2 L 83.2 78.2"/>
      <path id="side_044" style="fill:none;stroke:#000000;stroke-width:0.0508" d="M 83.2 78.2 L 83.2 76.9056 L 81.2 76.9056 L 81.2 73.8056 L 83.2 73.8056 L 83.2 70.5611 L 81.2 70.5611 L 81.2 67.4611 L 83.2 67.4611 L 83.2 64.2167 L 81.2 64.2167 L 81.2 61.1167 L 83.2 61.1167 L 83.2 57.8722 L 81.2 57.8722 L 81.2 54.7722 L 83.2 54.7722 L 83.2 51.5278 L 81.2 51.5278 L 81.2 48.4278 L 83.2 48.4278 L 83.2 45.1833 L 81.2 45.1833 L 81.2 42.0833 L 83.2 42.0833 L 83.2 38.8389 L 81.2 38.8389 L 81.2 35.7389 L 83.2 35.7389 L 83.2 32.4944 L 81.2 32.4944 L 81.2 29.3944 L 83.2 29.3944 L 83.2 28.1"/>
    </g>
    <g id="piece_005">
      <path id="side_045" style="fill:none;stroke:#000000;stroke-width:0.0508" d="M 26.1 1 L 29.4944 1 L 29.4944 1 L 32.3944 1 L 32.3944 1 L 35.8389 1 L 35.8389 1 L 38.7389 1 L 38.7389 1 L 42.1833 1 L 42.1833 1 L 45.0833 1 L 45.0833 1 L 48.5278 1 L 48.5278 1 L 51.4278 1 L 51.4278 1 L 54.8722 1 L 54.8722 1 L 57.7722 1 L 57.7722 1 L 61.2167 1 L 61.2167 1 L 64.1167 1 L 64.1167 1 L 67.5611 1 L 67.5611 1 L 70.4611 1 L 70.4611 1 L 73.9056 1 L 73.9056 1 L 76.8056 1 L 76.8056 1 L 80.2 1"/>
      <path id="side_046" style="fill:none;stroke:#000000;stroke-width:0.0508" d="M 80.2 1 L 80.2 4.825 L 78.2 4.825 L 78.2 7.725 L 80.2 7.725 L 80.2 11.6 L 78.2 11.6 L 78.2 14.5 L 80.2 14.5 L 80.2 18.375 L 78.2 18.375 L 78.2 21.275 L 80.2 21.275 L 80.2 23.1"/>
      <path id="hole_093" style="fill:none;stroke:#000000;stroke-width:0.0508" d="M 68.25 4.825 L 68.25 7.725 L 70.15 7.725 L 70.15 4.825 L 68.25 4.825 Z"/>
      <path id="hole_094" style="fill:none;stroke:#000000;stroke-width:0.0508" d="M 63.25 4.825 L 63.25 7.725 L 65.15 7.725 L 65.15 4.825 L 63.25 4.825 Z"/>
      <path id="hole_095" style="fill:none;stroke:#000000;stroke-width:0.0508" d="M 51.5833 4.825 L 51.5833 7.725 L 53.4833 7.725 L 53.4833 4.825 L 51.5833 4.825 Z"/>
      <path id="hole_096" style="fill:none;stroke:#000000;stroke-width:0.0508" d="M 39.9167 4.825 L 39.9167 7.725 L 41.8167 7.725 L 41.8167 4.825 L 39.9167 4.825 Z"/>
      <path id="hole_097" style="fill:none;stroke:#000000;stroke-width:0.0508" d="M 68.25 11.6 L 68.25 14.5 L 70.15 14.5 L 70.15 11.6 L 68.25 11.6 Z"/>
      <path id="hole_098" style="fill:none;stroke:#000000;stroke-width:0.0508" d="M 63.25 11.6 L 63.25 14.5 L 65.15 14.5 L 65.15 11.6 L 63.25 11.6 Z"/>
      <path id="hole_099" style="fill:none;stroke:#000000;stroke-width:0.0508" d="M 51.5833 11.6 L 51.5833 14.5 L 53.4833 14.5 L 53.4833 11.6 L 51.5833 11.6 Z"/>
      <path id="hole_100" style="fill:none;stroke:#000000;stroke-width:0.0508" d="M 39.9167 11.6 L 39.9167 14.5 L 41.8167 14.5 L 41.8167 11.6 L 39.9167 11.6 Z"/>
      <path id="hole_101" style="fill:none;stroke:#000000;stroke-width:0.0508" d="M 68.25 18.375 L 68.25 21.275 L 70.15 21.275 L 70.15 18.375 L 68.25 18.375 Z"/>
      <path id="hole_102" style="fill:none;stroke:#000000;stroke-width:0.0508" d="M 63.25 18.375 L 63.25 21.275 L 65.15 21.275 L 65.15 18.375 L 63.25 18.375 Z"/>
      <path id="hole_103" style="fill:none;stroke:#000000;stroke-width:0.0508" d="M 51.5833 18.375 L 51.5833 21.275 L 53.4833 21.275 L 53.4833 18.375 L 51.5833 18.375 Z"/>
      <path id="hole_104" style="fill:none;stroke:#000000;stroke-width:0.0508" d="M 39.9167 18.375 L 39.9167 21.275 L 41.8167 21.275 L 41.8167 18.375 L 39.9167 18.375 Z"/>
      <path id="side_047" style="fill:none;stroke:#000000;stroke-width:0.0508" d="M 80.2 23.1 L 76.9056 23.1 L 76.9056 25.1 L 73.8056 25.1 L 73.8056 23.1 L 70.5611 23.1 L 70.5611 25.1 L 67.4611 25.1 L 67.4611 23.1 L 64.2167 23.1 L 64.2167 25.1 L 61.1167 25.1 L 61.1167 23.1 L 57.8722 23.1 L 57.8722 25.1 L 54.7722 25.1 L 54.7722 23.1 L 51.5278 23.1 L 51.5278 25.1 L 48.4278 25.1 L 48.4278 23.1 L 45.1833 23.1 L 45.1833 25.1 L 42.0833 25.1 L 42.0833 23.1 L 38.8389 23.1 L 38.8389 25.1 L 35.7389 25.1 L 35.7389 23.1 L 32.4944 23.1 L 32.4944 25.1 L 29.3944 25.1 L 29.3944 23.1 L 26.1 23.1"/>
      <path id="side_048" style="fill:none;stroke:#000000;stroke-width:0.0508" d="M 26.1 23.1 L 26.1 21.275 L 28.1 21.275 L 28.1 18.375 L 26.1 18.375 L 26.1 14.5 L 28.1 14.5 L 28.1 11.6 L 26.1 11.6 L 26.1 7.725 L 28.1 7.725 L 28.1 4.825 L 26.1 4.825 L 26.1 1"/>
    </g>
  </g>
</svg>