<!-- Created with Inkscape (http://www.inkscape.org/) -->
<svg xmlns:inkscape="http://www.inkscape.org/namespaces/inkscape" xmlns:sodipodi="http://sodipodi.sourceforge.net/DTD/sodipodi-0.dtd" xmlns="http://www.w3.org/2000/svg" xmlns:svg="http://www.w3.org/2000/svg" width="219.7mm" height="196.6mm" viewBox="0 0 219.7 196.6" version="1.1" id="svg5" inkscape:version="1.1.2 (0a00cf5339, 2022-02-04)" sodipodi:docname="blank.svg">
  <sodipodi:namedview id="namedview7" pagecolor="#ffffff" bordercolor="#666666" borderopacity="1.0" inkscape:pageshadow="2" inkscape:pageopacity="0.0" inkscape:pagecheckerboard="0" inkscape:document-units="mm" showgrid="false" inkscape:zoom="0.64052329" inkscape:cx="397.33138" inkscape:cy="561.25984" inkscape:window-width="2086" inkscape:window-height="1376" inkscape:window-x="0" inkscape:window-y="0" inkscape:window-maximized="1" inkscape:current-layer="layer1"/>
  <defs id="defs2"/>
  <g inkscape:label="Layer 1" inkscape:groupmode="layer" id="layer1">
    <metadata text="createArgs=['--unit=mm', '--inside=1', '--length=75', '--width=75', '--depth=20', '--thickness=2', '--style=1', '--boxtype=2', '--tab=3', '--div_l=3', '--div_w=4', '--div_l_spacing=10;5;10', '--div_w_spacing=10;5', '--spacing=1', '--keydiv=0', '--hairline=1', '--kerf=0.1']"/>
    <path id="piece_001" style="fill:none;stroke:#000000;stroke-width:0.0508" d="M 24.1 107.525 L 26.1 107.525 L 26.1 110.425 L 24.1 110.425 L 24.1 113.8 L 26.1 113.8 L 26.1 116.7 L 24.1 116.7 L 24.1 120.075 L 26.1 120.075 L 26.1 122.975 L 24.1 122.975 L 24.1 126.3 L 103.2 126.3 L 103.2 122.975 L 101.2 122.975 L 101.2 120.075 L 103.2 120.075 L 103.2 116.7 L 101.2 116.7 L 101.2 113.8 L 103.2 113.8 L 103.2 110.425 L 101.2 110.425 L 101.2 107.525 L 103.2 107.525 L 103.2 106.2 L 99.9346 106.2 L 99.9346 104.2 L 96.8346 104.2 L 96.8346 106.2 L 93.6192 106.2 L 93.6192 104.2 L 90.5192 104.2 L 90.5192 106.2 L 87.3038 106.2 L 87.3038 104.2 L 84.2038 104.2 L 84.2038 106.2 L 80.9885 106.2 L 80.9885 104.2 L 77.8885 104.2 L 77.8885 106.2 L 74.6731 106.2 L 74.6731 104.2 L 71.5731 104.2 L 71.5731 106.2 L 68.3577 106.2 L 68.3577 104.2 L 65.2577 104.2 L 65.2577 106.2 L 62.0423 106.2 L 62.0423 104.2 L 58.9423 104.2 L 58.9423 106.2 L 55.7269 106.2 L 55.7269 104.2 L 52.6269 104.2 L 52.6269 106.2 L 49.4115 106.2 L 49.4115 104.2 L 46.3115 104.2 L 46.3115 106.2 L 43.0962 106.2 L 43.0962 104.2 L 39.9962 104.2 L 39.9962 106.2 L 36.7808 106.2 L 36.7808 104.2 L 33.6808 104.2 L 33.6808 106.2 L 30.4654 106.2 L 30.4654 104.2 L 27.3654 104.2 L 27.3654 106.2 L 24.1 106.2 L 24.1 107.525 Z M 36.15 107.525 L 38.05 107.525 L 38.05 110.425 L 36.15 110.425 L 36.15 107.525 Z M 36.15 113.8 L 38.05 113.8 L 38.05 116.7 L 36.15 116.7 L 36.15 113.8 Z M 36.15 120.075 L 38.05 120.075 L 38.05 122.975 L 36.15 122.975 L 36.15 120.075 Z M 43.15 107.525 L 45.05 107.525 L 45.05 110.425 L 43.15 110.425 L 43.15 107.525 Z M 43.15 113.8 L 45.05 113.8 L 45.05 116.7 L 43.15 116.7 L 43.15 113.8 Z M 43.15 120.075 L 45.05 120.075 L 45.05 122.975 L 43.15 122.975 L 43.15 120.075 Z M 62.5167 107.525 L 64.4167 107.525 L 64.4167 110.425 L 62.5167 110.425 L 62.5167 107.525 Z M 62.5167 113.8 L 64.4167 113.8 L 64.4167 116.7 L 62.5167 116.7 L 62.5167 113.8 Z M 62.5167 120.075 L 64.4167 120.075 L 64.4167 122.975 L 62.5167 122.975 L 62.5167 120.075 Z M 81.8833 107.525 L 83.7833 107.525 L 83.7833 110.425 L 81.8833 110.425 L 81.8833 107.525 Z M 81.8833 113.8 L 83.7833 113.8 L 83.7833 116.7 L 81.8833 116.7 L 81.8833 113.8 Z M 81.8833 120.075 L 83.7833 120.075 L 83.7833 122.975 L 81.8833 122.975 L 81.8833 120.075 Z"/>
    <path id="xdivider_001" style="fill:none;stroke:#000000;stroke-width:0.0508" d="M 24.1 130.625 L 26.1 130.625 L 26.1 133.525 L 24.1 133.525 L 24.1 136.9 L 26.1 136.9 L 26.1 139.8 L 24.1 139.8 L 24.1 143.175 L 26.1 143.175 L 26.1 146.075 L 24.1 146.075 L 24.1 149.4 L 103.2 149.4 L 103.2 146.075 L 101.2 146.075 L 101.2 143.175 L 103.2 143.175 L 103.2 139.8 L 101.2 139.8 L 101.2 136.9 L 103.2 136.9 L 103.2 133.525 L 101.2 133.525 L 101.2 130.625 L 103.2 130.625 L 103.2 129.3 L 99.9346 129.3 L 99.9346 127.3 L 96.8346 127.3 L 96.8346 129.3 L 93.6192 129.3 L 93.6192 127.3 L 90.5192 127.3 L 90.5192 129.3 L 87.3038 129.3 L 87.3038 127.3 L 84.2038 127.3 L 84.2038 129.3 L 83.7833 129.3 L 83.7833 139.3 L 81.8833 139.3 L 81.8833 129.3 L 80.9885 129.3 L 80.9885 127.3 L 77.8885 127.3 L 77.8885 129.3 L 74.6731 129.3 L 74.6731 127.3 L 71.5731 127.3 L 71.5731 129.3 L 68.3577 129.3 L 68.3577 127.3 L 65.2577 127.3 L 65.2577 129.3 L 64.4167 129.3 L 64.4167 139.3 L 62.5167 139.3 L 62.5167 129.3 L 62.0423 129.3 L 62.0423 127.3 L 58.9423 127.3 L 58.9423 129.3 L 55.7269 129.3 L 55.7269 127.3 L 52.6269 127.3 L 52.6269 129.3 L 49.4115 129.3 L 49.4115 127.3 L 46.3115 127.3 L 46.3115 129.3 L 45.05 129.3 L 45.05 139.3 L 43.15 139.3 L 43.15 129.3 L 43.0962 129.3 L 43.0962 127.3 L 39.9962 127.3 L 39.9962 129.3 L 38.05 129.3 L 38.05 139.3 L 36.15 139.3 L 36.15 127.3 L 33.6808 127.3 L 33.6808 129.3 L 30.4654 129.3 L 30.4654 127.3 L 27.3654 127.3 L 27.3654 129.3 L 24.1 129.3 L 24.1 130.625 Z"/>
    <path id="xdivider_002" style="fill:none;stroke:#000000;stroke-width:0.0508" d="M 24.1 153.725 L 26.1 153.725 L 26.1 156.625 L 24.1 156.625 L 24.1 160 L 26.1 160 L 26.1 162.9 L 24.1 162.9 L 24.1 166.275 L 26.1 166.275 L 26.1 169.175 L 24.1 169.175 L 24.1 172.5 L 103.2 172.5 L 103.2 169.175 L 101.2 169.175 L 101.2 166.275 L 103.2 166.275 L 103.2 162.9 L 101.2 162.9 L 101.2 160 L 103.2 160 L 103.2 156.625 L 101.2 156.625 L 101.2 153.725 L 103.2 153.725 L 103.2 152.4 L 99.9346 152.4 L 99.9346 150.4 L 96.8346 150.4 L 96.8346 152.4 L 93.6192 152.4 L 93.6192 150.4 L 90.5192 150.4 L 90.5192 152.4 L 87.3038 152.4 L 87.3038 150.4 L 84.2038 150.4 L 84.2038 152.4 L 83.7833 152.4 L 83.7833 162.4 L 81.8833 162.4 L 81.8833 152.4 L 80.9885 152.4 L 80.9885 150.4 L 77.8885 150.4 L 77.8885 152.4 L 74.6731 152.4 L 74.6731 150.4 L 71.5731 150.4 L 71.5731 152.4 L 68.3577 152.4 L 68.3577 150.4 L 65.2577 150.4 L 65.2577 152.4 L 64.4167 152.4 L 64.4167 162.4 L 62.5167 162.4 L 62.5167 152.4 L 62.0423 152.4 L 62.0423 150.4 L 58.9423 150.4 L 58.9423 152.4 L 55.7269 152.4 L 55.7269 150.4 L 52.6269 150.4 L 52.6269 152.4 L 49.4115 152.4 L 49.4115 150.4 L 46.3115 150.4 L 46.3115 152.4 L 45.05 152.4 L 45.05 162.4 L 43.15 162.4 L 43.15 152.4 L 43.0962 152.4 L 43.0962 150.4 L 39.9962 150.4 L 39.9962 152.4 L 38.05 152.4 L 38.05 162.4 L 36.15 162.4 L 36.15 150.4 L 33.6808 150.4 L 33.6808 152.4 L 30.4654 152.4 L 30.4654 150.4 L 27.3654 150.4 L 27.3654 152.4 L 24.1 152.4 L 24.1 153.725 Z"/>
    <path id="xdivider_003" style="fill:none;stroke:#000000;stroke-width:0.0508" d="M 24.1 176.825 L 26.1 176.825 L 26.1 179.725 L 24.1 179.725 L 24.1 183.1 L 26.1 183.1 L 26.1 186 L 24.1 186 L 24.1 189.375 L 26.1 189.375 L 26.1 192.275 L 24.1 192.275 L 24.1 195.6 L 103.2 195.6 L 103.2 192.275 L 101.2 192.275 L 101.2 189.375 L 103.2 189.375 L 103.2 186 L 101.2 186 L 101.2 183.1 L 103.2 183.1 L 103.2 179.725 L 101.2 179.725 L 101.2 176.825 L 103.2 176.825 L 103.2 175.5 L 99.9346 175.5 L 99.9346 173.5 L 96.8346 173.5 L 96.8346 175.5 L 93.6192 175.5 L 93.6192 173.5 L 90.5192 173.5 L 90.5192 175.5 L 87.3038 175.5 L 87.3038 173.5 L 84.2038 173.5 L 84.2038 175.5 L 83.7833 175.5 L 83.7833 185.5 L 81.8833 185.5 L 81.8833 175.5 L 80.9885 175.5 L 80.9885 173.5 L 77.8885 173.5 L 77.8885 175.5 L 74.6731 175.5 L 74.6731 173.5 L 71.5731 173.5 L 71.5731 175.5 L 68.3577 175.5 L 68.3577 173.5 L 65.2577 173.5 L 65.2577 175.5 L 64.4167 175.5 L 64.4167 185.5 L 62.5167 185.5 L 62.5167 175.5 L 62.0423 175.5 L 62.0423 173.5 L 58.9423 173.5 L 58.9423 175.5 L 55.7269 175.5 L 55.7269 173.5 L 52.6269 173.5 L 52.6269 175.5 L 49.4115 175.5 L 49.4115 173.5 L 46.3115 173.5 L 46.3115 175.5 L 45.05 175.5 L 45.05 185.5 L 43.15 185.5 L 43.15 175.5 L 43.0962 175.5 L 43.0962 173.5 L 39.9962 173.5 L 39.9962 175.5 L 38.05 175.5 L 38.05 185.5 L 36.15 185.5 L 36.15 173.5 L 33.6808 173.5 L 33.6808 175.5 L 30.4654 175.5 L 30.4654 173.5 L 27.3654 173.5 L 27.3654 175.5 L 24.1 175.5 L 24.1 176.825 Z"/>
    <path id="piece_002" style="fill:none;stroke:#000000;stroke-width:0.0508" d="M 1 70.15 L 4.225 70.15 L 4.225 72.05 L 1 72.05 L 1 82.15 L 4.225 82.15 L 4.225 84.05 L 1 84.05 L 1 89.15 L 4.225 89.15 L 4.225 91.05 L 1 91.05 L 1 101.2 L 4.225 101.2 L 4.225 103.2 L 7.325 103.2 L 7.325 101.2 L 10.5 101.2 L 10.5 103.2 L 13.6 103.2 L 13.6 101.2 L 16.775 101.2 L 16.775 103.2 L 19.875 103.2 L 19.875 101.2 L 21.1 101.2 L 21.1 99.9346 L 23.1 99.9346 L 23.1 96.8346 L 21.1 96.8346 L 21.1 93.6192 L 23.1 93.6192 L 23.1 90.5192 L 21.1 90.5192 L 21.1 87.3038 L 23.1 87.3038 L 23.1 84.2038 L 21.1 84.2038 L 21.1 80.9885 L 23.1 80.9885 L 23.1 77.8885 L 21.1 77.8885 L 21.1 74.6731 L 23.1 74.6731 L 23.1 71.5731 L 21.1 71.5731 L 21.1 68.3577 L 23.1 68.3577 L 23.1 65.2577 L 21.1 65.2577 L 21.1 62.0423 L 23.1 62.0423 L 23.1 58.9423 L 21.1 58.9423 L 21.1 55.7269 L 23.1 55.7269 L 23.1 52.6269 L 21.1 52.6269 L 21.1 49.4115 L 23.1 49.4115 L 23.1 46.3115 L 21.1 46.3115 L 21.1 43.0962 L 23.1 43.0962 L 23.1 39.9962 L 21.1 39.9962 L 21.1 36.7808 L 23.1 36.7808 L 23.1 33.6808 L 21.1 33.6808 L 21.1 30.4654 L 23.1 30.4654 L 23.1 27.3654 L 21.1 27.3654 L 21.1 26.1 L 19.875 26.1 L 19.875 24.1 L 16.775 24.1 L 16.775 26.1 L 13.6 26.1 L 13.6 24.1 L 10.5 24.1 L 10.5 26.1 L 7.325 26.1 L 7.325 24.1 L 4.225 24.1 L 4.225 26.1 L 1 26.1 L 1 70.15 Z M 13.6 70.15 L 16.775 70.15 L 16.775 72.05 L 13.6 72.05 L 13.6 70.15 Z M 13.6 82.15 L 16.775 82.15 L 16.775 84.05 L 13.6 84.05 L 13.6 82.15 Z M 13.6 89.15 L 16.775 89.15 L 16.775 91.05 L 13.6 91.05 L 13.6 89.15 Z M 19.875 70.15 L 21.05 70.15 L 21.05 72.05 L 19.875 72.05 L 19.875 70.15 Z M 19.875 82.15 L 21.05 82.15 L 21.05 84.05 L 19.875 84.05 L 19.875 82.15 Z M 19.875 89.15 L 21.05 89.15 L 21.05 91.05 L 19.875 91.05 L 19.875 89.15 Z M 7.325 70.15 L 10.5 70.15 L 10.5 72.05 L 7.325 72.05 L 7.325 70.15 Z M 7.325 82.15 L 10.5 82.15 L 10.5 84.05 L 7.325 84.05 L 7.325 82.15 Z M 7.325 89.15 L 10.5 89.15 L 10.5 91.05 L 7.325 91.05 L 7.325 89.15 Z"/>
    <path id="ydivider_001" style="fill:none;stroke:#000000;stroke-width:0.0508" d="M 127.3 70.25 L 137.4 70.25 L 137.4 72.15 L 127.3 72.15 L 127.3 82.25 L 137.4 82.25 L 137.4 84.15 L 127.3 84.15 L 127.3 89.25 L 137.4 89.25 L 137.4 91.15 L 127.3 91.15 L 127.3 101.2 L 130.525 101.2 L 130.525 103.2 L 133.625 103.2 L 133.625 101.2 L 136.8 101.2 L 136.8 103.2 L 139.9 103.2 L 139.9 101.2 L 143.075 101.2 L 143.075 103.2 L 146.175 103.2 L 146.175 101.2 L 147.4 101.2 L 147.4 99.9346 L 149.4 99.9346 L 149.4 96.8346 L 147.4 96.8346 L 147.4 93.6192 L 149.4 93.6192 L 149.4 90.5192 L 147.4 90.5192 L 147.4 87.3038 L 149.4 87.3038 L 149.4 84.2038 L 147.4 84.2038 L 147.4 80.9885 L 149.4 80.9885 L 149.4 77.8885 L 147.4 77.8885 L 147.4 74.6731 L 149.4 74.6731 L 149.4 71.5731 L 147.4 71.5731 L 147.4 68.3577 L 149.4 68.3577 L 149.4 65.2577 L 147.4 65.2577 L 147.4 62.0423 L 149.4 62.0423 L 149.4 58.9423 L 147.4 58.9423 L 147.4 55.7269 L 149.4 55.7269 L 149.4 52.6269 L 147.4 52.6269 L 147.4 49.4115 L 149.4 49.4115 L 149.4 46.3115 L 147.4 46.3115 L 147.4 43.0962 L 149.4 43.0962 L 149.4 39.9962 L 147.4 39.9962 L 147.4 36.7808 L 149.4 36.7808 L 149.4 33.6808 L 147.4 33.6808 L 147.4 30.4654 L 149.4 30.4654 L 149.4 27.3654 L 147.4 27.3654 L 147.4 26.1 L 146.175 26.1 L 146.175 24.1 L 143.075 24.1 L 143.075 26.1 L 139.9 26.1 L 139.9 24.1 L 136.8 24.1 L 136.8 26.1 L 133.625 26.1 L 133.625 24.1 L 130.525 24.1 L 130.525 26.1 L 127.3 26.1 L 127.3 70.25 Z"/>
    <path id="ydivider_002" style="fill:none;stroke:#000000;stroke-width:0.0508" d="M 150.4 70.25 L 160.5 70.25 L 160.5 72.15 L 150.4 72.15 L 150.4 82.25 L 160.5 82.25 L 160.5 84.15 L 150.4 84.15 L 150.4 89.25 L 160.5 89.25 L 160.5 91.15 L 150.4 91.15 L 150.4 101.2 L 153.625 101.2 L 153.625 103.2 L 156.725 103.2 L 156.725 101.2 L 159.9 101.2 L 159.9 103.2 L 163 103.2 L 163 101.2 L 166.175 101.2 L 166.175 103.2 L 169.275 103.2 L 169.275 101.2 L 170.5 101.2 L 170.5 99.9346 L 172.5 99.9346 L 172.5 96.8346 L 170.5 96.8346 L 170.5 93.6192 L 172.5 93.6192 L 172.5 90.5192 L 170.5 90.5192 L 170.5 87.3038 L 172.5 87.3038 L 172.5 84.2038 L 170.5 84.2038 L 170.5 80.9885 L 172.5 80.9885 L 172.5 77.8885 L 170.5 77.8885 L 170.5 74.6731 L 172.5 74.6731 L 172.5 71.5731 L 170.5 71.5731 L 170.5 68.3577 L 172.5 68.3577 L 172.5 65.2577 L 170.5 65.2577 L 170.5 62.0423 L 172.5 62.0423 L 172.5 58.9423 L 170.5 58.9423 L 170.5 55.7269 L 172.5 55.7269 L 172.5 52.6269 L 170.5 52.6269 L 170.5 49.4115 L 172.5 49.4115 L 172.5 46.3115 L 170.5 46.3115 L 170.5 43.0962 L 172.5 43.0962 L 172.5 39.9962 L 170.5 39.9962 L 170.5 36.7808 L 172.5 36.7808 L 172.5 33.6808 L 170.5 33.6808 L 170.5 30.4654 L 172.5 30.4654 L 172.5 27.3654 L 170.5 27.3654 L 170.5 26.1 L 169.275 26.1 L 169.275 24.1 L 166.175 24.1 L 166.175 26.1 L 163 26.1 L 163 24.1 L 159.9 24.1 L 159.9 26.1 L 156.725 26.1 L 156.725 24.1 L 153.625 24.1 L 153.625 26.1 L 150.4 26.1 L 150.4 70.25 Z"/>
    <path id="ydivider_003" style="fill:none;stroke:#000000;stroke-width:0.0508" d="M 173.5 70.25 L 183.6 70.25 L 183.6 72.15 L 173.5 72.15 L 173.5 82.25 L 183.6 82.25 L 183.6 84.15 L 173.5 84.15 L 173.5 89.25 L 183.6 89.25 L 183.6 91.15 L 173.5 91.15 L 173.5 101.2 L 176.725 101.2 L 176.725 103.2 L 179.825 103.2 L 179.825 101.2 L 183 101.2 L 183 103.2 L 186.1 103.2 L 186.1 101.2 L 189.275 101.2 L 189.275 103.2 L 192.375 103.2 L 192.375 101.2 L 193.6 101.2 L 193.6 99.9346 L 195.6 99.9346 L 195.6 96.8346 L 193.6 96.8346 L 193.6 93.6192 L 195.6 93.6192 L 195.6 90.5192 L 193.6 90.5192 L 193.6 87.3038 L 195.6 87.3038 L 195.6 84.2038 L 193.6 84.2038 L 193.6 80.9885 L 195.6 80.9885 L 195.6 77.8885 L 193.6 77.8885 L 193.6 74.6731 L 195.6 74.6731 L 195.6 71.5731 L 193.6 71.5731 L 193.6 68.3577 L 195.6 68.3577 L 195.6 65.2577 L 193.6 65.2577 L 193.6 62.0423 L 195.6 62.0423 L 195.6 58.9423 L 193.6 58.9423 L 193.6 55.7269 L 195.6 55.7269 L 195.6 52.6269 L 193.6 52.6269 L 193.6 49.4115 L 195.6 49.4115 L 195.6 46.3115 L 193.6 46.3115 L 193.6 43.0962 L 195.6 43.0962 L 195.6 39.9962 L 193.6 39.9962 L 193.6 36.7808 L 195.6 36.7808 L 195.6 33.6808 L 193.6 33.6808 L 193.6 30.4654 L 195.6 30.4654 L 195.6 27.3654 L 193.6 27.3654 L 193.6 26.1 L 192.375 26.1 L 192.375 24.1 L 189.275 24.1 L 189.275 26.1 L 186.1 26.1 L 186.1 24.1 L 183 24.1 L 183 26.1 L 179.825 26.1 L 179.825 24.1 L 176.725 24.1 L 176.725 26.1 L 173.5 26.1 L 173.5 70.25 Z"/>
    <path id="ydivider_004" style="fill:none;stroke:#000000;stroke-width:0.0508" d="M 196.6 70.25 L 206.7 70.25 L 206.7 72.15 L 196.6 72.15 L 196.6 82.25 L 206.7 82.25 L 206.7 84.15 L 196.6 84.15 L 196.6 89.25 L 206.7 89.25 L 206.7 91.15 L 196.6 91.15 L 196.6 101.2 L 199.825 101.2 L 199.825 103.2 L 202.925 103.2 L 202.925 101.2 L 206.1 101.2 L 206.1 103.2 L 209.2 103.2 L 209.2 101.2 L 212.375 101.2 L 212.375 103.2 L 215.475 103.2 L 215.475 101.2 L 216.7 101.2 L 216.7 99.9346 L 218.7 99.9346 L 218.7 96.8346 L 216.7 96.8346 L 216.7 93.6192 L 218.7 93.6192 L 218.7 90.5192 L 216.7 90.5192 L 216.7 87.3038 L 218.7 87.3038 L 218.7 84.2038 L 216.7 84.2038 L 216.7 80.9885 L 218.7 80.9885 L 218.7 77.8885 L 216.7 77.8885 L 216.7 74.6731 L 218.7 74.6731 L 218.7 71.5731 L 216.7 71.5731 L 216.7 68.3577 L 218.7 68.3577 L 218.7 65.2577 L 216.7 65.2577 L 216.7 62.0423 L 218.7 62.0423 L 218.7 58.9423 L 216.7 58.9423 L 216.7 55.7269 L 218.7 55.7269 L 218.7 52.6269 L 216.7 52.6269 L 216.7 49.4115 L 218.7 49.4115 L 218.7 46.3115 L 216.7 46.3115 L 216.7 43.0962 L 218.7 43.0962 L 218.7 39.9962 L 216.7 39.9962 L 216.7 36.7808 L 218.7 36.7808 L 218.7 33.6808 L 216.7 33.6808 L 216.7 30.4654 L 218.7 30.4654 L 218.7 27.3654 L 216.7 27.3654 L 216.7 26.1 L 215.475 26.1 L 215.475 24.1 L 212.375 24.1 L 212.375 26.1 L 209.2 26.1 L 209.2 24.1 L 206.1 24.1 L 206.1 26.1 L 202.925 26.1 L 202.925 24.1 L 199.825 24.1 L 199.825 26.1 L 196.6 26.1 L 196.6 70.25 Z"/>
    <path id="piece_003" style="fill:none;stroke:#000000;stroke-width:0.0508" d="M 24.1 27.4654 L 26.1 27.4654 L 26.1 30.3654 L 24.1 30.3654 L 24.1 33.7808 L 26.1 33.7808 L 26.1 36.6808 L 24.1 36.6808 L 24.1 40.0962 L 26.1 40.0962 L 26.1 42.9962 L 24.1 42.9962 L 24.1 46.4115 L 26.1 46.4115 L 26.1 49.3115 L 24.1 49.3115 L 24.1 52.7269 L 26.1 52.7269 L 26.1 55.6269 L 24.1 55.6269 L 24.1 59.0423 L 26.1 59.0423 L 26.1 61.9423 L 24.1 61.9423 L 24.1 65.3577 L 26.1 65.3577 L 26.1 68.2577 L 24.1 68.2577 L 24.1 71.6731 L 26.1 71.6731 L 26.1 74.5731 L 24.1 74.5731 L 24.1 77.9885 L 26.1 77.9885 L 26.1 80.8885 L 24.1 80.8885 L 24.1 84.3038 L 26.1 84.3038 L 26.1 87.2038 L 24.1 87.2038 L 24.1 90.6192 L 26.1 90.6192 L 26.1 93.5192 L 24.1 93.5192 L 24.1 96.9346 L 26.1 96.9346 L 26.1 99.8346 L 24.1 99.8346 L 24.1 103.2 L 27.4654 103.2 L 27.4654 101.2 L 30.3654 101.2 L 30.3654 103.2 L 33.7808 103.2 L 33.7808 101.2 L 36.6808 101.2 L 36.6808 103.2 L 40.0962 103.2 L 40.0962 101.2 L 42.9962 101.2 L 42.9962 103.2 L 46.4115 103.2 L 46.4115 101.2 L 49.3115 101.2 L 49.3115 103.2 L 52.7269 103.2 L 52.7269 101.2 L 55.6269 101.2 L 55.6269 103.2 L 59.0423 103.2 L 59.0423 101.2 L 61.9423 101.2 L 61.9423 103.2 L 65.3577 103.2 L 65.3577 101.2 L 68.2577 101.2 L 68.2577 103.2 L 71.6731 103.2 L 71.6731 101.2 L 74.5731 101.2 L 74.5731 103.2 L 77.9885 103.2 L 77.9885 101.2 L 80.8885 101.2 L 80.8885 103.2 L 84.3038 103.2 L 84.3038 101.2 L 87.2038 101.2 L 87.2038 103.2 L 90.6192 103.2 L 90.6192 101.2 L 93.5192 101.2 L 93.5192 103.2 L 96.9346 103.2 L 96.9346 101.2 L 99.8346 101.2 L 99.8346 103.2 L 103.2 103.2 L 103.2 99.8346 L 101.2 99.8346 L 101.2 96.9346 L 103.2 96.9346 L 103.2 93.5192 L 101.2 93.5192 L 101.2 90.6192 L 103.2 90.6192 L 103.2 87.2038 L 101.2 87.2038 L 101.2 84.3038 L 103.2 84.3038 L 103.2 80.8885 L 101.2 80.8885 L 101.2 77.9885 L 103.2 77.9885 L 103.2 74.5731 L 101.2 74.5731 L 101.2 71.6731 L 103.2 71.6731 L 103.2 68.2577 L 101.2 68.2577 L 101.2 65.3577 L 103.2 65.3577 L 103.2 61.9423 L 101.2 61.9423 L 101.2 59.0423 L 103.2 59.0423 L 103.2 55.6269 L 101.2 55.6269 L 101.2 52.7269 L 103.2 52.7269 L 103.2 49.3115 L 101.2 49.3115 L 101.2 46.4115 L 103.2 46.4115 L 103.2 42.9962 L 101.2 42.9962 L 101.2 40.0962 L 103.2 40.0962 L 103.2 36.6808 L 101.2 36.6808 L 101.2 33.7808 L 103.2 33.7808 L 103.2 30.3654 L 101.2 30.3654 L 101.2 27.4654 L 103.2 27.4654 L 103.2 24.1 L 99.8346 24.1 L 99.8346 26.1 L 96.9346 26.1 L 96.9346 24.1 L 93.5192 24.1 L 93.5192 26.1 L 90.6192 26.1 L 90.6192 24.1 L 87.2038 24.1 L 87.2038 26.1 L 84.3038 26.1 L 84.3038 24.1 L 80.8885 24.1 L 80.8885 26.1 L 77.9885 26.1 L 77.9885 24.1 L 74.5731 24.1 L 74.5731 26.1 L 71.6731 26.1 L 71.6731 24.1 L 68.2577 24.1 L 68.2577 26.1 L 65.3577 26.1 L 65.3577 24.1 L 61.9423 24.1 L 61.9423 26.1 L 59.0423 26.1 L 59.0423 24.1 L 55.6269 24.1 L 55.6269 26.1 L 52.7269 26.1 L 52.7269 24.1 L 49.3115 24.1 L 49.3115 26.1 L 46.4115 26.1 L 46.4115 24.1 L 42.9962 24.1 L 42.9962 26.1 L 40.0962 26.1 L 40.0962 24.1 L 36.6808 24.1 L 36.6808 26.1 L 33.7808 26.1 L 33.7808 24.1 L 30.3654 24.1 L 30.3654 26.1 L 27.4654 26.1 L 27.4654 24.1 L 24.1 24.1 L 24.1 27.4654 Z M 27.4654 70.25 L 30.3654 70.25 L 30.3654 72.15 L 27.4654 72.15 L 27.4654 70.25 Z M 27.4654 82.25 L 30.3654 82.25 L 30.3654 84.15 L 27.4654 84.15 L 27.4654 82.25 Z M 27.4654 89.25 L 30.3654 89.25 L 30.3654 91.15 L 27.4654 91.15 L 27.4654 89.25 Z M 33.7808 70.25 L 36.6808 70.25 L 36.6808 71.6731 L 38.05 71.6731 L 38.05 74.5731 L 36.15 74.5731 L 36.15 72.15 L 33.7808 72.15 L 33.7808 70.25 Z M 33.7808 82.25 L 36.6808 82.25 L 36.6808 84.15 L 33.7808 84.15 L 33.7808 82.25 Z M 33.7808 89.25 L 36.6808 89.25 L 36.6808 90.6192 L 38.05 90.6192 L 38.05 93.5192 L 36.15 93.5192 L 36.15 91.15 L 33.7808 91.15 L 33.7808 89.25 Z M 36.15 27.4654 L 38.05 27.4654 L 38.05 30.3654 L 36.15 30.3654 L 36.15 27.4654 Z M 36.15 33.7808 L 38.05 33.7808 L 38.05 36.6808 L 36.15 36.6808 L 36.15 33.7808 Z M 36.15 40.0962 L 38.05 40.0962 L 38.05 42.9962 L 36.15 42.9962 L 36.15 40.0962 Z M 36.15 46.4115 L 38.05 46.4115 L 38.05 49.3115 L 36.15 49.3115 L 36.15 46.4115 Z M 36.15 52.7269 L 38.05 52.7269 L 38.05 55.6269 L 36.15 55.6269 L 36.15 52.7269 Z M 36.15 59.0423 L 38.05 59.0423 L 38.05 61.9423 L 36.15 61.9423 L 36.15 59.0423 Z M 36.15 65.3577 L 38.05 65.3577 L 38.05 68.2577 L 36.15 68.2577 L 36.15 65.3577 Z M 36.15 77.9885 L 38.05 77.9885 L 38.05 80.8885 L 36.15 80.8885 L 36.15 77.9885 Z M 36.15 84.3038 L 38.05 84.3038 L 38.05 87.2038 L 36.15 87.2038 L 36.15 84.3038 Z M 36.15 96.9346 L 38.05 96.9346 L 38.05 99.8346 L 36.15 99.8346 L 36.15 96.9346 Z M 40.0962 70.25 L 42.9962 70.25 L 42.9962 72.15 L 40.0962 72.15 L 40.0962 70.25 Z M 40.0962 82.25 L 42.9962 82.25 L 42.9962 84.15 L 40.0962 84.15 L 40.0962 82.25 Z M 40.0962 89.25 L 42.9962 89.25 L 42.9962 91.15 L 40.0962 91.15 L 40.0962 89.25 Z M 43.15 27.4654 L 45.05 27.4654 L 45.05 30.3654 L 43.15 30.3654 L 43.15 27.4654 Z M 43.15 33.7808 L 45.05 33.7808 L 45.05 36.6808 L 43.15 36.6808 L 43.15 33.7808 Z M 43.15 40.0962 L 45.05 40.0962 L 45.05 42.9962 L 43.15 42.9962 L 43.15 40.0962 Z M 43.15 46.4115 L 45.05 46.4115 L 45.05 49.3115 L 43.15 49.3115 L 43.15 46.4115 Z M 43.15 52.7269 L 45.05 52.7269 L 45.05 55.6269 L 43.15 55.6269 L 43.15 52.7269 Z M 43.15 59.0423 L 45.05 59.0423 L 45.05 61.9423 L 43.15 61.9423 L 43.15 59.0423 Z M 43.15 65.3577 L 45.05 65.3577 L 45.05 68.2577 L 43.15 68.2577 L 43.15 65.3577 Z M 43.15 71.6731 L 45.05 71.6731 L 45.05 74.5731 L 43.15 74.5731 L 43.15 71.6731 Z M 43.15 77.9885 L 45.05 77.9885 L 45.05 80.8885 L 43.15 80.8885 L 43.15 77.9885 Z M 43.15 84.3038 L 45.05 84.3038 L 45.05 87.2038 L 43.15 87.2038 L 43.15 84.3038 Z M 43.15 90.6192 L 45.05 90.6192 L 45.05 93.5192 L 43.15 93.5192 L 43.15 90.6192 Z M 43.15 96.9346 L 45.05 96.9346 L 45.05 99.8346 L 43.15 99.8346 L 43.15 96.9346 Z M 46.4115 70.25 L 49.3115 70.25 L 49.3115 72.15 L 46.4115 72.15 L 46.4115 70.25 Z M 46.4115 82.25 L 49.3115 82.25 L 49.3115 84.15 L 46.4115 84.15 L 46.4115 82.25 Z M 46.4115 89.25 L 49.3115 89.25 L 49.3115 91.15 L 46.4115 91.15 L 46.4115 89.25 Z M 52.7269 70.25 L 55.6269 70.25 L 55.6269 72.15 L 52.7269 72.15 L 52.7269 70.25 Z M 52.7269 82.25 L 55.6269 82.25 L 55.6269 84.15 L 52.7269 84.15 L 52.7269 82.25 Z M 52.7269 89.25 L 55.6269 89.25 L 55.6269 91.15 L 52.7269 91.15 L 52.7269 89.25 Z M 59.0423 70.25 L 61.9423 70.25 L 61.9423 72.15 L 59.0423 72.15 L 59.0423 70.25 Z M 59.0423 82.25 L 61.9423 82.25 L 61.9423 84.15 L 59.0423 84.15 L 59.0423 82.25 Z M 59.0423 89.25 L 61.9423 89.25 L 61.9423 91.15 L 59.0423 91.15 L 59.0423 89.25 Z M 62.5167 27.4654 L 64.4167 27.4654 L 64.4167 30.3654 L 62.5167 30.3654 L 62.5167 27.4654 Z M 62.5167 33.7808 L 64.4167 33.7808 L 64.4167 36.6808 L 62.5167 36.6808 L 62.5167 33.7808 Z M 62.5167 40.0962 L 64.4167 40.0962 L 64.4167 42.9962 L 62.5167 42.9962 L 62.5167 40.0962 Z M 62.5167 46.4115 L 64.4167 46.4115 L 64.4167 49.3115 L 62.5167 49.3115 L 62.5167 46.4115 Z M 62.5167 52.7269 L 64.4167 52.7269 L 64.4167 55.6269 L 62.5167 55.6269 L 62.5167 52.7269 Z M 62.5167 59.0423 L 64.4167 59.0423 L 64.4167 61.9423 L 62.5167 61.9423 L 62.5167 59.0423 Z M 62.5167 65.3577 L 64.4167 65.3577 L 64.4167 68.2577 L 62.5167 68.2577 L 62.5167 65.3577 Z M 62.5167 71.6731 L 64.4167 71.6731 L 64.4167 74.5731 L 62.5167 74.5731 L 62.5167 71.6731 Z M 62.5167 77.9885 L 64.4167 77.9885 L 64.4167 80.8885 L 62.5167 80.8885 L 62.5167 77.9885 Z M 62.5167 84.3038 L 64.4167 84.3038 L 64.4167 87.2038 L 62.5167 87.2038 L 62.5167 84.3038 Z M 62.5167 90.6192 L 64.4167 90.6192 L 64.4167 93.5192 L 62.5167 93.5192 L 62.5167 90.6192 Z M 62.5167 96.9346 L 64.4167 96.9346 L 64.4167 99.8346 L 62.5167 99.8346 L 62.5167 96.9346 Z M 65.3577 70.25 L 68.2577 70.25 L 68.2577 72.15 L 65.3577 72.15 L 65.3577 70.25 Z M 65.3577 82.25 L 68.2577 82.25 L 68.2577 84.15 L 65.3577 84.15 L 65.3577 82.25 Z M 65.3577 89.25 L 68.2577 89.25 L 68.2577 91.15 L 65.3577 91.15 L 65.3577 89.25 Z M 71.6731 70.25 L 74.5731 70.25 L 74.5731 72.15 L 71.6731 72.15 L 71.6731 70.25 Z M 71.6731 82.25 L 74.5731 82.25 L 74.5731 84.15 L 71.6731 84.15 L 71.6731 82.25 Z M 71.6731 89.25 L 74.5731 89.25 L 74.5731 91.15 L 71.6731 91.15 L 71.6731 89.25 Z M 77.9885 70.25 L 80.8885 70.25 L 80.8885 72.15 L 77.9885 72.15 L 77.9885 70.25 Z M 77.9885 82.25 L 80.8885 82.25 L 80.8885 84.15 L 77.9885 84.15 L 77.9885 82.25 Z M 77.9885 89.25 L 80.8885 89.25 L 80.8885 91.15 L 77.9885 91.15 L 77.9885 89.25 Z M 81.8833 27.4654 L 83.7833 27.4654 L 83.7833 30.3654 L 81.8833 30.3654 L 81.8833 27.4654 Z M 81.8833 33.7808 L 83.7833 33.7808 L 83.7833 36.6808 L 81.8833 36.6808 L 81.8833 33.7808 Z M 81.8833 40.0962 L 83.7833 40.0962 L 83.7833 42.9962 L 81.8833 42.9962 L 81.8833 40.0962 Z M 81.8833 46.4115 L 83.7833 46.4115 L 83.7833 49.3115 L 81.8833 49.3115 L 81.8833 46.4115 Z M 81.8833 52.7269 L 83.7833 52.7269 L 83.7833 55.6269 L 81.8833 55.6269 L 81.8833 52.7269 Z M 81.8833 59.0423 L 83.7833 59.0423 L 83.7833 61.9423 L 81.8833 61.9423 L 81.8833 59.0423 Z M 81.8833 65.3577 L 83.7833 65.3577 L 83.7833 68.2577 L 81.8833 68.2577 L 81.8833 65.3577 Z M 81.8833 71.6731 L 83.7833 71.6731 L 83.7833 74.5731 L 81.8833 74.5731 L 81.8833 71.6731 Z M 81.8833 77.9885 L 83.7833 77.9885 L 83.7833 80.8885 L 81.8833 80.8885 L 81.8833 77.9885 Z M 81.8833 84.3038 L 83.7833 84.3038 L 83.7833 87.2038 L 81.8833 87.2038 L 81.8833 84.3038 Z M 81.8833 90.6192 L 83.7833 90.6192 L 83.7833 93.5192 L 81.8833 93.5192 L 81.8833 90.6192 Z M 81.8833 96.9346 L 83.7833 96.9346 L 83.7833 99.8346 L 81.8833 99.8346 L 81.8833 96.9346 Z M 84.3038 70.25 L 87.2038 70.25 L 87.2038 72.15 L 84.3038 72.15 L 84.3038 70.25 Z M 84.3038 82.25 L 87.2038 82.25 L 87.2038 84.15 L 84.3038 84.15 L 84.3038 82.25 Z M 84.3038 89.25 L 87.2038 89.25 L 87.2038 91.15 L 84.3038 91.15 L 84.3038 89.25 Z M 90.6192 70.25 L 93.5192 70.25 L 93.5192 72.15 L 90.6192 72.15 L 90.6192 70.25 Z M 90.6192 82.25 L 93.5192 82.25 L 93.5192 84.15 L 90.6192 84.15 L 90.6192 82.25 Z M 90.6192 89.25 L 93.5192 89.25 L 93.5192 91.15 L 90.6192 91.15 L 90.6192 89.25 Z M 96.9346 70.25 L 99.8346 70.25 L 99.8346 72.15 L 96.9346 72.15 L 96.9346 70.25 Z M 96.9346 82.25 L 99.8346 82.25 L 99.8346 84.15 L 96.9346 84.15 L 96.9346 82.25 Z M 96.9346 89.25 L 99.8346 89.25 L 99.8346 91.15 L 96.9346 91.15 L 96.9346 89.25 Z"/>
    <path id="piece_004" style="fill:none;stroke:#000000;stroke-width:0.0508" d="M 106.2 27.3654 L 104.2 27.3654 L 104.2 30.4654 L 106.2 30.4654 L 106.2 33.6808 L 104.2 33.6808 L 104.2 36.7808 L 106.2 36.7808 L 106.2 39.9962 L 104.2 39.9962 L 104.2 43.0962 L 106.2 43.0962 L 106.2 46.3115 L 104.2 46.3115 L 104.2 49.4115 L 106.2 49.4115 L 106.2 52.6269 L 104.2 52.6269 L 104.2 55.7269 L 106.2 55.7269 L 106.2 58.9423 L 104.2 58.9423 L 104.2 62.0423 L 106.2 62.0423 L 106.2 65.2577 L 104.2 65.2577 L 104.2 68.3577 L 106.2 68.3577 L 106.2 70.15 L 107.425 70.15 L 107.425 72.05 L 106.2 72.05 L 106.2 71.5731 L 104.2 71.5731 L 104.2 74.6731 L 106.2 74.6731 L 106.2 77.8885 L 104.2 77.8885 L 104.2 80.9885 L 106.2 80.9885 L 106.2 82.15 L 107.425 82.15 L 107.425 84.05 L 106.2 84.05 L 106.2 84.2038 L 104.2 84.2038 L 104.2 87.3038 L 106.2 87.3038 L 106.2 89.15 L 107.425 89.15 L 107.425 91.05 L 106.2 91.05 L 106.2 90.5192 L 104.2 90.5192 L 104.2 93.6192 L 106.2 93.6192 L 106.2 96.8346 L 104.2 96.8346 L 104.2 99.9346 L 106.2 99.9346 L 106.2 101.2 L 107.425 101.2 L 107.425 103.2 L 110.525 103.2 L 110.525 101.2 L 113.7 101.2 L 113.7 103.2 L 116.8 103.2 L 116.8 101.2 L 119.975 101.2 L 119.975 103.2 L 123.075 103.2 L 123.075 101.2 L 126.3 101.2 L 126.3 26.1 L 123.075 26.1 L 123.075 24.1 L 119.975 24.1 L 119.975 26.1 L 116.8 26.1 L 116.8 24.1 L 113.7 24.1 L 113.7 26.1 L 110.525 26.1 L 110.525 24.1 L 107.425 24.1 L 107.425 26.1 L 106.2 26.1 L 106.2 27.3654 Z M 110.525 70.15 L 113.7 70.15 L 113.7 72.05 L 110.525 72.05 L 110.525 70.15 Z M 110.525 82.15 L 113.7 82.15 L 113.7 84.05 L 110.525 84.05 L 110.525 82.15 Z M 110.525 89.15 L 113.7 89.15 L 113.7 91.05 L 110.525 91.05 L 110.525 89.15 Z M 116.8 70.15 L 119.975 70.15 L 119.975 72.05 L 116.8 72.05 L 116.8 70.15 Z M 116.8 82.15 L 119.975 82.15 L 119.975 84.05 L 116.8 84.05 L 116.8 82.15 Z M 116.8 89.15 L 119.975 89.15 L 119.975 91.05 L 116.8 91.05 L 116.8 89.15 Z M 123.075 70.15 L 126.25 70.15 L 126.25 72.05 L 123.075 72.05 L 123.075 70.15 Z M 123.075 82.15 L 126.25 82.15 L 126.25 84.05 L 123.075 84.05 L 123.075 82.15 Z M 123.075 89.15 L 126.25 89.15 L 126.25 91.05 L 123.075 91.05 L 123.075 89.15 Z"/>
    <path id="piece_005" style="fill:none;stroke:#000000;stroke-width:0.0508" d="M 24.1 4.325 L 26.1 4.325 L 26.1 7.225 L 24.1 7.225 L 24.1 10.6 L 26.1 10.6 L 26.1 13.5 L 24.1 13.5 L 24.1 16.875 L 26.1 16.875 L 26.1 19.775 L 24.1 19.775 L 24.1 21.1 L 27.3654 21.1 L 27.3654 23.1 L 30.4654 23.1 L 30.4654 21.1 L 33.6808 21.1 L 33.6808 23.1 L 36.7808 23.1 L 36.7808 21.1 L 39.9962 21.1 L 39.9962 23.1 L 43.0962 23.1 L 43.0962 21.1 L 46.3115 21.1 L 46.3115 23.1 L 49.4115 23.1 L 49.4115 21.1 L 52.6269 21.1 L 52.6269 23.1 L 55.7269 23.1 L 55.7269 21.1 L 58.9423 21.1 L 58.9423 23.1 L 62.0423 23.1 L 62.0423 21.1 L 65.2577 21.1 L 65.2577 23.1 L 68.3577 23.1 L 68.3577 21.1 L 71.5731 21.1 L 71.5731 23.1 L 74.6731 23.1 L 74.6731 21.1 L 77.8885 21.1 L 77.8885 23.1 L 80.9885 23.1 L 80.9885 21.1 L 84.2038 21.1 L 84.2038 23.1 L 87.3038 23.1 L 87.3038 21.1 L 90.5192 21.1 L 90.5192 23.1 L 93.6192 23.1 L 93.6192 21.1 L 96.8346 21.1 L 96.8346 23.1 L 99.9346 23.1 L 99.9346 21.1 L 103.2 21.1 L 103.2 19.775 L 101.2 19.775 L 101.2 16.875 L 103.2 16.875 L 103.2 13.5 L 101.2 13.5 L 101.2 10.6 L 103.2 10.6 L 103.2 7.225 L 101.2 7.225 L 101.2 4.325 L 103.2 4.325 L 103.2 1 L 24.1 1 L 24.1 4.325 Z M 36.15 10.6 L 38.05 10.6 L 38.05 13.5 L 36.15 13.5 L 36.15 10.6 Z M 36.15 16.875 L 38.05 16.875 L 38.05 19.775 L 36.15 19.775 L 36.15 16.875 Z M 36.15 4.325 L 38.05 4.325 L 38.05 7.225 L 36.15 7.225 L 36.15 4.325 Z M 43.15 10.6 L 45.05 10.6 L 45.05 13.5 L 43.15 13.5 L 43.15 10.6 Z M 43.15 16.875 L 45.05 16.875 L 45.05 19.775 L 43.15 19.775 L 43.15 16.875 Z M 43.15 4.325 L 45.05 4.325 L 45.05 7.225 L 43.15 7.225 L 43.15 4.325 Z M 62.5167 10.6 L 64.4167 10.6 L 64.4167 13.5 L 62.5167 13.5 L 62.5167 10.6 Z M 62.5167 16.875 L 64.4167 16.875 L 64.4167 19.775 L 62.5167 19.775 L 62.5167 16.875 Z M 62.5167 4.325 L 64.4167 4.325 L 64.4167 7.225 L 62.5167 7.225 L 62.5167 4.325 Z M 81.8833 10.6 L 83.7833 10.6 L 83.7833 13.5 L 81.8833 13.5 L 81.8833 10.6 Z M 81.8833 16.875 L 83.7833 16.875 L 83.7833 19.775 L 81.8833 19.775 L 81.8833 16.875 Z M 81.8833 4.325 L 83.7833 4.325 L 83.7833 7.225 L 81.8833 7.225 L 81.8833 4.325 Z"/>
  </g>
</svg>