<!-- Created with Inkscape (http://www.inkscape.org/) -->
<svg xmlns:inkscape="http://www.inkscape.org/namespaces/inkscape" xmlns:sodipodi="http://sodipodi.sourceforge.net/DTD/sodipodi-0.dtd" xmlns="http://www.w3.org/2000/svg" xmlns:svg="http://www.w3.org/2000/svg" width="166.5mm" height="188.5mm" viewBox="0 0 166.5 188.5" version="1.1" id="svg5" inkscape:version="1.1.2 (0a00cf5339, 2022-02-04)" sodipodi:docname="blank.svg">
  <sodipodi:namedview id="namedview7" pagecolor="#ffffff" bordercolor="#666666" borderopacity="1.0" inkscape:pageshadow="2" inkscape:pageopacity="0.0" inkscape:pagecheckerboard="0" inkscape:document-units="mm" showgrid="false" inkscape:zoom="0.64052329" inkscape:cx="397.33138" inkscape:cy="561.25984" inkscape:window-width="2086" inkscape:window-height="1376" inkscape:window-x="0" inkscape:window-y="0" inkscape:window-maximized="1" inkscape:current-layer="layer1"/>
  <defs id="defs2"/>
  <g inkscape:label="Layer 1" inkscape:groupmode="layer" id="layer1">
    <metadata text="createArgs=['--unit=mm', '--inside=1', '--length=50', '--width=50', '--depth=20', '--thickness=2', '--style=1', '--boxtype=2', '--tab=3', '--div_l=3', '--div_w=4', '--div_l_spacing=10;5;10', '--div_w_spacing=10;5', '--spacing=1', '--keydiv=0', '--hairline=1']"/>
    <g id="piece_001">
      <path id="side_001" style="fill:none;stroke:#000000;stroke-width:0.0508" d="m 26.5 84 l 3.1389 0 l 0 -2 l 3.5 0 l 0 2 l 2.8889 0 l 0 -2 l 3.5 0 l 0 2 l 2.8889 0 l 0 -2 l 3.5 0 l 0 2 l 2.8889 0 l 0 -2 l 3.5 0 l 0 2 l 2.8888 0 l 0 -2 l 3.5 0 l 0 2 l 2.8889 0 l 0 -2 l 3.5 0 l 0 2 l 2.8889 0 l 0 -2 l 3.5 0 l 0 2 l 2.8889 0 l 0 -2 l 3.5 0 l 0 2 l 3.1389 0"/>
      <path id="side_002" style="fill:none;stroke:#000000;stroke-width:0.0508" d="m 81 84 l 0 2.125 l -2 0 l 0 2.5 l 2 0 l 0 4.375 l -2 0 l 0 2.5 l 2 0 l 0 4.375 l -2 0 l 0 2.5 l 2 0 l 0 2.125"/>
      <path id="hole_001" style="fill:none;stroke:#000000;stroke-width:0.0508" d="m 69.25 86.125 l 0 2.5 l 1.5 0 l 0 -2.5 l -1.5 0 z"/>
      <path id="hole_002" style="fill:none;stroke:#000000;stroke-width:0.0508" d="m 64.25 86.125 l 0 2.5 l 1.5 0 l 0 -2.5 l -1.5 0 z"/>
      <path id="hole_003" style="fill:none;stroke:#000000;stroke-width:0.0508" d="m 52.5833 86.125 l 0 2.5 l 1.5 0 l 0 -2.5 l -1.5 0 z"/>
      <path id="hole_004" style="fill:none;stroke:#000000;stroke-width:0.0508" d="m 40.9167 86.125 l 0 2.5 l 1.5 0 l 0 -2.5 l -1.5 0 z"/>
      <path id="hole_005" style="fill:none;stroke:#000000;stroke-width:0.0508" d="m 69.25 93 l 0 2.5 l 1.5 0 l 0 -2.5 l -1.5 0 z"/>
      <path id="hole_006" style="fill:none;stroke:#000000;stroke-width:0.0508" d="m 64.25 93 l 0 2.5 l 1.5 0 l 0 -2.5 l -1.5 0 z"/>
      <path id="hole_007" style="fill:none;stroke:#000000;stroke-width:0.0508" d="m 52.5833 93 l 0 2.5 l 1.5 0 l 0 -2.5 l -1.5 0 z"/>
      <path id="hole_008" style="fill:none;stroke:#000000;stroke-width:0.0508" d="m 40.9167 93 l 0 2.5 l 1.5 0 l 0 -2.5 l -1.5 0 z"/>
      <path id="hole_009" style="fill:none;stroke:#000000;stroke-width:0.0508" d="m 69.25 99.875 l 0 2.5 l 1.5 0 l 0 -2.5 l -1.5 0 z"/>
      <path id="hole_010" style="fill:none;stroke:#000000;stroke-width:0.0508" d="m 64.25 99.875 l 0 2.5 l 1.5 0 l 0 -2.5 l -1.5 0 z"/>
      <path id="hole_011" style="fill:none;stroke:#000000;stroke-width:0.0508" d="m 52.5833 99.875 l 0 2.5 l 1.5 0 l 0 -2.5 l -1.5 0 z"/>
      <path id="hole_012" style="fill:none;stroke:#000000;stroke-width:0.0508" d="m 40.9167 99.875 l 0 2.5 l 1.5 0 l 0 -2.5 l -1.5 0 z"/>
      <path id="side_003" style="fill:none;stroke:#000000;stroke-width:0.0508" d="m 81 104.5 l -3.1389 0 l 0 0 l -3.5 0 l 0 0 l -2.8889 0 l 0 0 l -3.5 0 l 0 0 l -2.8889 0 l 0 0 l -3.5 0 l 0 0 l -2.8889 0 l 0 0 l -3.5 0 l 0 0 l -2.8888 0 l 0 0 l -3.5 0 l 0 0 l -2.8889 0 l 0 0 l -3.5 0 l 0 0 l -2.8889 0 l 0 0 l -3.5 0 l 0 0 l -2.8889 0 l 0 0 l -3.5 0 l 0 0 l -3.1389 0"/>
      <path id="side_004" style="fill:none;stroke:#000000;stroke-width:0.0508" d="m 26.5 104.5 l 0 -2.125 l 2 0 l 0 -2.5 l -2 0 l 0 -4.375 l 2 0 l 0 -2.5 l -2 0 l 0 -4.375 l 2 0 l 0 -2.5 l -2 0 l 0 -2.125"/>
    </g>
    <g id="xdivider_001">
      <path id="side_005" style="fill:none;stroke:#000000;stroke-width:0.0508" d="m 0 109.5 l 3.13889 0 l 0 -2 l 3.5 0 l 0 2 l 2.88889 0 l 0 -2 l 3.50002 0 l 0 2 l 2.8889 0 l 0 -2 l 3.5 0 l 0 2 l 2.8889 0 l 0 -2 l 3.5 0 l 0 2 l 2.8888 0 l 0 -2 l 3.5 0 l 0 2 l 2.8889 0 l 0 -2 l 3.5 0 l 0 2 l 2.8889 0 l 0 -2 l 3.5 0 l 0 2 l 2.8889 0 l 0 -2 l 3.5 0 l 0 2 l 3.1389 0"/>
      <path id="side_006" style="fill:none;stroke:#000000;stroke-width:0.0508" d="m 54.5 109.5 l 0 2.125 l -2 0 l 0 2.5 l 2 0 l 0 4.375 l -2 0 l 0 2.5 l 2 0 l 0 4.375 l -2 0 l 0 2.5 l 2 0 l 0 2.125"/>
      <path id="slot_001" style="fill:none;stroke:#000000;stroke-width:0.0508" d="m 42.75 107.5 l 0 12 l 1.5 0 l 0 -12 l -1.5 0 z"/>
      <path id="slot_002" style="fill:none;stroke:#000000;stroke-width:0.0508" d="m 37.75 107.5 l 0 12 l 1.5 0 l 0 -12 l -1.5 0 z"/>
      <path id="slot_003" style="fill:none;stroke:#000000;stroke-width:0.0508" d="m 26.0833 107.5 l 0 12 l 1.5 0 l 0 -12 l -1.5 0 z"/>
      <path id="slot_004" style="fill:none;stroke:#000000;stroke-width:0.0508" d="m 14.4167 107.5 l 0 12 l 1.5 0 l 0 -12 l -1.5 0 z"/>
      <path id="side_007" style="fill:none;stroke:#000000;stroke-width:0.0508" d="m 54.5 130 l -3.1389 0 l 0 0 l -3.5 0 l 0 0 l -2.8889 0 l 0 0 l -3.5 0 l 0 0 l -2.8889 0 l 0 0 l -3.5 0 l 0 0 l -2.8889 0 l 0 0 l -3.5 0 l 0 0 l -2.8888 0 l 0 0 l -3.5 0 l 0 0 l -2.8889 0 l 0 0 l -3.5 0 l 0 0 l -2.8889 0 l 0 0 l -3.5 0 l 0 0 l -2.8889 0 l 0 0 l -3.5 0 l 0 0 l -3.1389 0"/>
      <path id="side_008" style="fill:none;stroke:#000000;stroke-width:0.0508" d="m 0 130 l 0 -2.125 l 2 0 l 0 -2.5 l -2 0 l 0 -4.375 l 2 0 l 0 -2.5 l -2 0 l 0 -4.375 l 2 0 l 0 -2.5 l -2 0 l 0 -2.125"/>
    </g>
    <g id="xdivider_002">
      <path id="side_009" style="fill:none;stroke:#000000;stroke-width:0.0508" d="m 55.5 109.5 l 3.1389 0 l 0 -2 l 3.5 0 l 0 2 l 2.8889 0 l 0 -2 l 3.5 0 l 0 2 l 2.8889 0 l 0 -2 l 3.5 0 l 0 2 l 2.8889 0 l 0 -2 l 3.5 0 l 0 2 l 2.8888 0 l 0 -2 l 3.5 0 l 0 2 l 2.8889 0 l 0 -2 l 3.5 0 l 0 2 l 2.8889 0 l 0 -2 l 3.4998 0 l 0 2 l 2.889 0 l 0 -2 l 3.5 0 l 0 2 l 3.139 0"/>
      <path id="side_010" style="fill:none;stroke:#000000;stroke-width:0.0508" d="m 110 109.5 l 0 2.125 l -2 0 l 0 2.5 l 2 0 l 0 4.375 l -2 0 l 0 2.5 l 2 0 l 0 4.375 l -2 0 l 0 2.5 l 2 0 l 0 2.125"/>
      <path id="slot_005" style="fill:none;stroke:#000000;stroke-width:0.0508" d="m 98.25 107.5 l 0 12 l 1.5 0 l 0 -12 l -1.5 0 z"/>
      <path id="slot_006" style="fill:none;stroke:#000000;stroke-width:0.0508" d="m 93.25 107.5 l 0 12 l 1.5 0 l 0 -12 l -1.5 0 z"/>
      <path id="slot_007" style="fill:none;stroke:#000000;stroke-width:0.0508" d="m 81.5833 107.5 l 0 12 l 1.5 0 l 0 -12 l -1.5 0 z"/>
      <path id="slot_008" style="fill:none;stroke:#000000;stroke-width:0.0508" d="m 69.9167 107.5 l 0 12 l 1.5 0 l 0 -12 l -1.5 0 z"/>
      <path id="side_011" style="fill:none;stroke:#000000;stroke-width:0.0508" d="m 110 130 l -3.139 0 l 0 0 l -3.5 0 l 0 0 l -2.889 0 l 0 0 l -3.4998 0 l 0 0 l -2.8889 0 l 0 0 l -3.5 0 l 0 0 l -2.8889 0 l 0 0 l -3.5 0 l 0 0 l -2.8888 0 l 0 0 l -3.5 0 l 0 0 l -2.8889 0 l 0 0 l -3.5 0 l 0 0 l -2.8889 0 l 0 0 l -3.5 0 l 0 0 l -2.8889 0 l 0 0 l -3.5 0 l 0 0 l -3.1389 0"/>
      <path id="side_012" style="fill:none;stroke:#000000;stroke-width:0.0508" d="m 55.5 130 l 0 -2.125 l 2 0 l 0 -2.5 l -2 0 l 0 -4.375 l 2 0 l 0 -2.5 l -2 0 l 0 -4.375 l 2 0 l 0 -2.5 l -2 0 l 0 -2.125"/>
    </g>
    <g id="xdivider_003">
      <path id="side_013" style="fill:none;stroke:#000000;stroke-width:0.0508" d="m 111 109.5 l 3.139 0 l 0 -2 l 3.5 0 l 0 2 l 2.889 0 l 0 -2 l 3.5 0 l 0 2 l 2.889 0 l 0 -2 l 3.5 0 l 0 2 l 2.889 0 l 0 -2 l 3.5 0 l 0 2 l 2.888 0 l 0 -2 l 3.5 0 l 0 2 l 2.889 0 l 0 -2 l 3.5 0 l 0 2 l 2.889 0 l 0 -2 l 3.5 0 l 0 2 l 2.889 0 l 0 -2 l 3.5 0 l 0 2 l 3.139 0"/>
      <path id="side_014" style="fill:none;stroke:#000000;stroke-width:0.0508" d="m 165.5 109.5 l 0 2.125 l -2 0 l 0 2.5 l 2 0 l 0 4.375 l -2 0 l 0 2.5 l 2 0 l 0 4.375 l -2 0 l 0 2.5 l 2 0 l 0 2.125"/>
      <path id="slot_009" style="fill:none;stroke:#000000;stroke-width:0.0508" d="m 153.75 107.5 l 0 12 l 1.5 0 l 0 -12 l -1.5 0 z"/>
      <path id="slot_010" style="fill:none;stroke:#000000;stroke-width:0.0508" d="m 148.75 107.5 l 0 12 l 1.5 0 l 0 -12 l -1.5 0 z"/>
      <path id="slot_011" style="fill:none;stroke:#000000;stroke-width:0.0508" d="m 137.083 107.5 l 0 12 l 1.5 0 l 0 -12 l -1.5 0 z"/>
      <path id="slot_012" style="fill:none;stroke:#000000;stroke-width:0.0508" d="m 125.417 107.5 l 0 12 l 1.5 0 l 0 -12 l -1.5 0 z"/>
      <path id="side_015" style="fill:none;stroke:#000000;stroke-width:0.0508" d="m 165.5 130 l -3.139 0 l 0 0 l -3.5 0 l 0 0 l -2.889 0 l 0 0 l -3.5 0 l 0 0 l -2.889 0 l 0 0 l -3.5 0 l 0 0 l -2.889 0 l 0 0 l -3.5 0 l 0 0 l -2.888 0 l 0 0 l -3.5 0 l 0 0 l -2.889 0 l 0 0 l -3.5 0 l 0 0 l -2.889 0 l 0 0 l -3.5 0 l 0 0 l -2.889 0 l 0 0 l -3.5 0 l 0 0 l -3.139 0"/>
      <path id="side_016" style="fill:none;stroke:#000000;stroke-width:0.0508" d="m 111 130 l 0 -2.125 l 2 0 l 0 -2.5 l -2 0 l 0 -4.375 l 2 0 l 0 -2.5 l -2 0 l 0 -4.375 l 2 0 l 0 -2.5 l -2 0 l 0 -2.125"/>
    </g>
    <g id="piece_002">
      <path id="side_017" style="fill:none;stroke:#000000;stroke-width:0.0508" d="m 3 28.5 l 1.625 0 l 0 -2 l 3.5 0 l 0 2 l 3.375 0 l 0 -2 l 3.5 0 l 0 2 l 3.375 0 l 0 -2 l 3.5 0 l 0 2 l 1.625 0"/>
      <path id="hole_013" style="fill:none;stroke:#000000;stroke-width:0.0508" d="m 3 38.25 l 1.625 0 l 0 -1.5 l -1.625 0 l 0 1.5 z"/>
      <path id="hole_014" style="fill:none;stroke:#000000;stroke-width:0.0508" d="m 3 43.25 l 1.625 0 l 0 -1.5 l -1.625 0 l 0 1.5 z"/>
      <path id="hole_015" style="fill:none;stroke:#000000;stroke-width:0.0508" d="m 3 53.25 l 1.625 0 l 0 -1.5 l -1.625 0 l 0 1.5 z"/>
      <path id="hole_016" style="fill:none;stroke:#000000;stroke-width:0.0508" d="m 8.125 38.25 l 3.375 0 l 0 -1.5 l -3.375 0 l 0 1.5 z"/>
      <path id="hole_017" style="fill:none;stroke:#000000;stroke-width:0.0508" d="m 8.125 43.25 l 3.375 0 l 0 -1.5 l -3.375 0 l 0 1.5 z"/>
      <path id="hole_018" style="fill:none;stroke:#000000;stroke-width:0.0508" d="m 8.125 53.25 l 3.375 0 l 0 -1.5 l -3.375 0 l 0 1.5 z"/>
      <path id="hole_019" style="fill:none;stroke:#000000;stroke-width:0.0508" d="m 15 38.25 l 3.375 0 l 0 -1.5 l -3.375 0 l 0 1.5 z"/>
      <path id="hole_020" style="fill:none;stroke:#000000;stroke-width:0.0508" d="m 15 43.25 l 3.375 0 l 0 -1.5 l -3.375 0 l 0 1.5 z"/>
      <path id="hole_021" style="fill:none;stroke:#000000;stroke-width:0.0508" d="m 15 53.25 l 3.375 0 l 0 -1.5 l -3.375 0 l 0 1.5 z"/>
      <path id="hole_022" style="fill:none;stroke:#000000;stroke-width:0.0508" d="m 21.875 38.25 l 1.625 0 l 0 -1.5 l -1.625 0 l 0 1.5 z"/>
      <path id="hole_023" style="fill:none;stroke:#000000;stroke-width:0.0508" d="m 21.875 43.25 l 1.625 0 l 0 -1.5 l -1.625 0 l 0 1.5 z"/>
      <path id="hole_024" style="fill:none;stroke:#000000;stroke-width:0.0508" d="m 21.875 53.25 l 1.625 0 l 0 -1.5 l -1.625 0 l 0 1.5 z"/>
      <path id="side_018" style="fill:none;stroke:#000000;stroke-width:0.0508" d="m 23.5 28.5 l 0 1.1389 l 2 0 l 0 3.5 l -2 0 l 0 2.8889 l 2 0 l 0 3.5 l -2 0 l 0 2.8889 l 2 0 l 0 3.5 l -2 0 l 0 2.8889 l 2 0 l 0 3.5 l -2 0 l 0 2.8888 l 2 0 l 0 3.5 l -2 0 l 0 2.8889 l 2 0 l 0 3.5 l -2 0 l 0 2.8889 l 2 0 l 0 3.5 l -2 0 l 0 2.8889 l 2 0 l 0 3.5 l -2 0 l 0 1.1389"/>
      <path id="side_019" style="fill:none;stroke:#000000;stroke-width:0.0508" d="m 23.5 79 l -1.625 0 l 0 2 l -3.5 0 l 0 -2 l -3.375 0 l 0 2 l -3.5 0 l 0 -2 l -3.375 0 l 0 2 l -3.5 0 l 0 -2 l -1.625 0"/>
      <path id="side_020" style="fill:none;stroke:#000000;stroke-width:0.0508" d="m 3 79 l 0 -1.1389 l 0 0 l 0 -3.5 l 0 0 l 0 -2.8889 l 0 0 l 0 -3.5 l 0 0 l 0 -2.8889 l 0 0 l 0 -3.5 l 0 0 l 0 -2.8889 l 0 0 l 0 -3.5 l 0 0 l 0 -2.8888 l 0 0 l 0 -3.5 l 0 0 l 0 -2.8889 l 0 0 l 0 -3.5 l 0 0 l 0 -2.8889 l 0 0 l 0 -3.5 l 0 0 l 0 -2.8889 l 0 0 l 0 -3.5 l 0 0 l 0 -1.1389"/>
    </g>
    <g id="ydivider_001">
      <path id="side_021" style="fill:none;stroke:#000000;stroke-width:0.0508" d="m 2 135 l 1.625 0 l 0 -2 l 3.5 0 l 0 2 l 3.375 0 l 0 -2 l 3.5 0 l 0 2 l 3.375 0 l 0 -2 l 3.5 0 l 0 2 l 1.625 0"/>
      <path id="slot_013" style="fill:none;stroke:#000000;stroke-width:0.0508" d="m 0 143.25 l 12.5 0 l 0 1.5 l -12.5 0 l 0 -1.5 z"/>
      <path id="slot_014" style="fill:none;stroke:#000000;stroke-width:0.0508" d="m 0 148.25 l 12.5 0 l 0 1.5 l -12.5 0 l 0 -1.5 z"/>
      <path id="slot_015" style="fill:none;stroke:#000000;stroke-width:0.0508" d="m 0 158.25 l 12.5 0 l 0 1.5 l -12.5 0 l 0 -1.5 z"/>
      <path id="side_022" style="fill:none;stroke:#000000;stroke-width:0.0508" d="m 22.5 135 l 0 1.139 l 2 0 l 0 3.5 l -2 0 l 0 2.889 l 2 0 l 0 3.5 l -2 0 l 0 2.889 l 2 0 l 0 3.5 l -2 0 l 0 2.889 l 2 0 l 0 3.5 l -2 0 l 0 2.888 l 2 0 l 0 3.5 l -2 0 l 0 2.889 l 2 0 l 0 3.5 l -2 0 l 0 2.889 l 2 0 l 0 3.5 l -2 0 l 0 2.889 l 2 0 l 0 3.5 l -2 0 l 0 1.139"/>
      <path id="side_023" style="fill:none;stroke:#000000;stroke-width:0.0508" d="m 22.5 185.5 l -1.625 0 l 0 2 l -3.5 0 l 0 -2 l -3.375 0 l 0 2 l -3.5 0 l 0 -2 l -3.375 0 l 0 2 l -3.5 0 l 0 -2 l -1.625 0"/>
      <path id="side_024" style="fill:none;stroke:#000000;stroke-width:0.0508" d="m 2 185.5 l 0 -1.139 l 0 0 l 0 -3.5 l 0 0 l 0 -2.889 l 0 0 l 0 -3.5 l 0 0 l 0 -2.889 l 0 0 l 0 -3.5 l 0 0 l 0 -2.889 l 0 0 l 0 -3.5 l 0 0 l 0 -2.888 l 0 0 l 0 -3.5 l 0 0 l 0 -2.889 l 0 0 l 0 -3.5 l 0 0 l 0 -2.889 l 0 0 l 0 -3.5 l 0 0 l 0 -2.889 l 0 0 l 0 -3.5 l 0 0 l 0 -1.139"/>
    </g>
    <g id="ydivider_002">
      <path id="side_025" style="fill:none;stroke:#000000;stroke-width:0.0508" d="m 27.5 135 l 1.625 0 l 0 -2 l 3.5 0 l 0 2 l 3.375 0 l 0 -2 l 3.5 0 l 0 2 l 3.375 0 l 0 -2 l 3.5 0 l 0 2 l 1.625 0"/>
      <path id="slot_016" style="fill:none;stroke:#000000;stroke-width:0.0508" d="m 25.5 143.25 l 12.5 0 l 0 1.5 l -12.5 0 l 0 -1.5 z"/>
      <path id="slot_017" style="fill:none;stroke:#000000;stroke-width:0.0508" d="m 25.5 148.25 l 12.5 0 l 0 1.5 l -12.5 0 l 0 -1.5 z"/>
      <path id="slot_018" style="fill:none;stroke:#000000;stroke-width:0.0508" d="m 25.5 158.25 l 12.5 0 l 0 1.5 l -12.5 0 l 0 -1.5 z"/>
      <path id="side_026" style="fill:none;stroke:#000000;stroke-width:0.0508" d="m 48 135 l 0 1.139 l 2 0 l 0 3.5 l -2 0 l 0 2.889 l 2 0 l 0 3.5 l -2 0 l 0 2.889 l 2 0 l 0 3.5 l -2 0 l 0 2.889 l 2 0 l 0 3.5 l -2 0 l 0 2.888 l 2 0 l 0 3.5 l -2 0 l 0 2.889 l 2 0 l 0 3.5 l -2 0 l 0 2.889 l 2 0 l 0 3.5 l -2 0 l 0 2.889 l 2 0 l 0 3.5 l -2 0 l 0 1.139"/>
      <path id="side_027" style="fill:none;stroke:#000000;stroke-width:0.0508" d="m 48 185.5 l -1.625 0 l 0 2 l -3.5 0 l 0 -2 l -3.375 0 l 0 2 l -3.5 0 l 0 -2 l -3.375 0 l 0 2 l -3.5 0 l 0 -2 l -1.625 0"/>
      <path id="side_028" style="fill:none;stroke:#000000;stroke-width:0.0508" d="m 27.5 185.5 l 0 -1.139 l 0 0 l 0 -3.5 l 0 0 l 0 -2.889 l 0 0 l 0 -3.5 l 0 0 l 0 -2.889 l 0 0 l 0 -3.5 l 0 0 l 0 -2.889 l 0 0 l 0 -3.5 l 0 0 l 0 -2.888 l 0 0 l 0 -3.5 l 0 0 l 0 -2.889 l 0 0 l 0 -3.5 l 0 0 l 0 -2.889 l 0 0 l 0 -3.5 l 0 0 l 0 -2.889 l 0 0 l 0 -3.5 l 0 0 l 0 -1.139"/>
    </g>
    <g id="ydivider_003">
      <path id="side_029" style="fill:none;stroke:#000000;stroke-width:0.0508" d="m 53 135 l 1.625 0 l 0 -2 l 3.5 0 l 0 2 l 3.375 0 l 0 -2 l 3.5 0 l 0 2 l 3.375 0 l 0 -2 l 3.5 0 l 0 2 l 1.625 0"/>
      <path id="slot_019" style="fill:none;stroke:#000000;stroke-width:0.0508" d="m 51 143.25 l 12.5 0 l 0 1.5 l -12.5 0 l 0 -1.5 z"/>
      <path id="slot_020" style="fill:none;stroke:#000000;stroke-width:0.0508" d="m 51 148.25 l 12.5 0 l 0 1.5 l -12.5 0 l 0 -1.5 z"/>
      <path id="slot_021" style="fill:none;stroke:#000000;stroke-width:0.0508" d="m 51 158.25 l 12.5 0 l 0 1.5 l -12.5 0 l 0 -1.5 z"/>
      <path id="side_030" style="fill:none;stroke:#000000;stroke-width:0.0508" d="m 73.5 135 l 0 1.139 l 2 0 l 0 3.5 l -2 0 l 0 2.889 l 2 0 l 0 3.5 l -2 0 l 0 2.889 l 2 0 l 0 3.5 l -2 0 l 0 2.889 l 2 0 l 0 3.5 l -2 0 l 0 2.888 l 2 0 l 0 3.5 l -2 0 l 0 2.889 l 2 0 l 0 3.5 l -2 0 l 0 2.889 l 2 0 l 0 3.5 l -2 0 l 0 2.889 l 2 0 l 0 3.5 l -2 0 l 0 1.139"/>
      <path id="side_031" style="fill:none;stroke:#000000;stroke-width:0.0508" d="m 73.5 185.5 l -1.625 0 l 0 2 l -3.5 0 l 0 -2 l -3.375 0 l 0 2 l -3.5 0 l 0 -2 l -3.375 0 l 0 2 l -3.5 0 l 0 -2 l -1.625 0"/>
      <path id="side_032" style="fill:none;stroke:#000000;stroke-width:0.0508" d="m 53 185.5 l 0 -1.139 l 0 0 l 0 -3.5 l 0 0 l 0 -2.889 l 0 0 l 0 -3.5 l 0 0 l 0 -2.889 l 0 0 l 0 -3.5 l 0 0 l 0 -2.889 l 0 0 l 0 -3.5 l 0 0 l 0 -2.888 l 0 0 l 0 -3.5 l 0 0 l 0 -2.889 l 0 0 l 0 -3.5 l 0 0 l 0 -2.889 l 0 0 l 0 -3.5 l 0 0 l 0 -2.889 l 0 0 l 0 -3.5 l 0 0 l 0 -1.139"/>
    </g>
    <g id="ydivider_004">
      <path id="side_033" style="fill:none;stroke:#000000;stroke-width:0.0508" d="m 78.5 135 l 1.625 0 l 0 -2 l 3.5 0 l 0 2 l 3.375 0 l 0 -2 l 3.5 0 l 0 2 l 3.375 0 l 0 -2 l 3.5 0 l 0 2 l 1.625 0"/>
      <path id="slot_022" style="fill:none;stroke:#000000;stroke-width:0.0508" d="m 76.5 143.25 l 12.5 0 l 0 1.5 l -12.5 0 l 0 -1.5 z"/>
      <path id="slot_023" style="fill:none;stroke:#000000;stroke-width:0.0508" d="m 76.5 148.25 l 12.5 0 l 0 1.5 l -12.5 0 l 0 -1.5 z"/>
      <path id="slot_024" style="fill:none;stroke:#000000;stroke-width:0.0508" d="m 76.5 158.25 l 12.5 0 l 0 1.5 l -12.5 0 l 0 -1.5 z"/>
      <path id="side_034" style="fill:none;stroke:#000000;stroke-width:0.0508" d="m 99 135 l 0 1.139 l 2 0 l 0 3.5 l -2 0 l 0 2.889 l 2 0 l 0 3.5 l -2 0 l 0 2.889 l 2 0 l 0 3.5 l -2 0 l 0 2.889 l 2 0 l 0 3.5 l -2 0 l 0 2.888 l 2 0 l 0 3.5 l -2 0 l 0 2.889 l 2 0 l 0 3.5 l -2 0 l 0 2.889 l 2 0 l 0 3.5 l -2 0 l 0 2.889 l 2 0 l 0 3.5 l -2 0 l 0 1.139"/>
      <path id="side_035" style="fill:none;stroke:#000000;stroke-width:0.0508" d="m 99 185.5 l -1.625 0 l 0 2 l -3.5 0 l 0 -2 l -3.375 0 l 0 2 l -3.5 0 l 0 -2 l -3.375 0 l 0 2 l -3.5 0 l 0 -2 l -1.625 0"/>
      <path id="side_036" style="fill:none;stroke:#000000;stroke-width:0.0508" d="m 78.5 185.5 l 0 -1.139 l 0 0 l 0 -3.5 l 0 0 l 0 -2.889 l 0 0 l 0 -3.5 l 0 0 l 0 -2.889 l 0 0 l 0 -3.5 l 0 0 l 0 -2.889 l 0 0 l 0 -3.5 l 0 0 l 0 -2.888 l 0 0 l 0 -3.5 l 0 0 l 0 -2.889 l 0 0 l 0 -3.5 l 0 0 l 0 -2.889 l 0 0 l 0 -3.5 l 0 0 l 0 -2.889 l 0 0 l 0 -3.5 l 0 0 l 0 -1.139"/>
    </g>
    <g id="piece_003">
      <path id="side_037" style="fill:none;stroke:#000000;stroke-width:0.0508" d="m 26.5 26.5 l 3.6389 0 l 0 2 l 2.5 0 l 0 -2 l 3.8889 0 l 0 2 l 2.5 0 l 0 -2 l 3.8889 0 l 0 2 l 2.5 0 l 0 -2 l 3.8889 0 l 0 2 l 2.5 0 l 0 -2 l 3.8888 0 l 0 2 l 2.5 0 l 0 -2 l 3.8889 0 l 0 2 l 2.5 0 l 0 -2 l 3.8889 0 l 0 2 l 2.5 0 l 0 -2 l 3.8889 0 l 0 2 l 2.5 0 l 0 -2 l 3.6389 0"/>
      <path id="hole_025" style="fill:none;stroke:#000000;stroke-width:0.0508" d="m 30.1389 38.25 l 2.5 0 l 0 -1.5 l -2.5 0 l 0 1.5 z"/>
      <path id="hole_026" style="fill:none;stroke:#000000;stroke-width:0.0508" d="m 30.1389 43.25 l 2.5 0 l 0 -1.5 l -2.5 0 l 0 1.5 z"/>
      <path id="hole_027" style="fill:none;stroke:#000000;stroke-width:0.0508" d="m 30.1389 53.25 l 2.5 0 l 0 -1.5 l -2.5 0 l 0 1.5 z"/>
      <path id="hole_028" style="fill:none;stroke:#000000;stroke-width:0.0508" d="m 36.5278 38.25 l 2.5 0 l 0 -1.5 l -2.5 0 l 0 1.5 z"/>
      <path id="hole_029" style="fill:none;stroke:#000000;stroke-width:0.0508" d="m 36.5278 43.25 l 2.5 0 l 0 -1.5 l -2.5 0 l 0 1.5 z"/>
      <path id="hole_030" style="fill:none;stroke:#000000;stroke-width:0.0508" d="m 36.5278 53.25 l 2.5 0 l 0 -1.5 l -2.5 0 l 0 1.5 z"/>
      <path id="hole_031" style="fill:none;stroke:#000000;stroke-width:0.0508" d="m 42.9167 38.25 l 2.5 0 l 0 -1.5 l -2.5 0 l 0 1.5 z"/>
      <path id="hole_032" style="fill:none;stroke:#000000;stroke-width:0.0508" d="m 42.9167 43.25 l 2.5 0 l 0 -1.5 l -2.5 0 l 0 1.5 z"/>
      <path id="hole_033" style="fill:none;stroke:#000000;stroke-width:0.0508" d="m 42.9167 53.25 l 2.5 0 l 0 -1.5 l -2.5 0 l 0 1.5 z"/>
      <path id="hole_034" style="fill:none;stroke:#000000;stroke-width:0.0508" d="m 49.3056 38.25 l 2.5 0 l 0 -1.5 l -2.5 0 l 0 1.5 z"/>
      <path id="hole_035" style="fill:none;stroke:#000000;stroke-width:0.0508" d="m 49.3056 43.25 l 2.5 0 l 0 -1.5 l -2.5 0 l 0 1.5 z"/>
      <path id="hole_036" style="fill:none;stroke:#000000;stroke-width:0.0508" d="m 49.3056 53.25 l 2.5 0 l 0 -1.5 l -2.5 0 l 0 1.5 z"/>
      <path id="hole_037" style="fill:none;stroke:#000000;stroke-width:0.0508" d="m 55.6944 38.25 l 2.5 0 l 0 -1.5 l -2.5 0 l 0 1.5 z"/>
      <path id="hole_038" style="fill:none;stroke:#000000;stroke-width:0.0508" d="m 55.6944 43.25 l 2.5 0 l 0 -1.5 l -2.5 0 l 0 1.5 z"/>
      <path id="hole_039" style="fill:none;stroke:#000000;stroke-width:0.0508" d="m 55.6944 53.25 l 2.5 0 l 0 -1.5 l -2.5 0 l 0 1.5 z"/>
      <path id="hole_040" style="fill:none;stroke:#000000;stroke-width:0.0508" d="m 62.0833 38.25 l 2.5 0 l 0 -1.5 l -2.5 0 l 0 1.5 z"/>
      <path id="hole_041" style="fill:none;stroke:#000000;stroke-width:0.0508" d="m 62.0833 43.25 l 2.5 0 l 0 -1.5 l -2.5 0 l 0 1.5 z"/>
      <path id="hole_042" style="fill:none;stroke:#000000;stroke-width:0.0508" d="m 62.0833 53.25 l 2.5 0 l 0 -1.5 l -2.5 0 l 0 1.5 z"/>
      <path id="hole_043" style="fill:none;stroke:#000000;stroke-width:0.0508" d="m 68.4722 38.25 l 2.5 0 l 0 -1.5 l -2.5 0 l 0 1.5 z"/>
      <path id="hole_044" style="fill:none;stroke:#000000;stroke-width:0.0508" d="m 68.4722 43.25 l 2.5 0 l 0 -1.5 l -2.5 0 l 0 1.5 z"/>
      <path id="hole_045" style="fill:none;stroke:#000000;stroke-width:0.0508" d="m 68.4722 53.25 l 2.5 0 l 0 -1.5 l -2.5 0 l 0 1.5 z"/>
      <path id="hole_046" style="fill:none;stroke:#000000;stroke-width:0.0508" d="m 74.8611 38.25 l 2.5 0 l 0 -1.5 l -2.5 0 l 0 1.5 z"/>
      <path id="hole_047" style="fill:none;stroke:#000000;stroke-width:0.0508" d="m 74.8611 43.25 l 2.5 0 l 0 -1.5 l -2.5 0 l 0 1.5 z"/>
      <path id="hole_048" style="fill:none;stroke:#000000;stroke-width:0.0508" d="m 74.8611 53.25 l 2.5 0 l 0 -1.5 l -2.5 0 l 0 1.5 z"/>
      <path id="side_038" style="fill:none;stroke:#000000;stroke-width:0.0508" d="m 81 26.5 l 0 3.6389 l -2 0 l 0 2.5 l 2 0 l 0 3.8889 l -2 0 l 0 2.5 l 2 0 l 0 3.8889 l -2 0 l 0 2.5 l 2 0 l 0 3.8889 l -2 0 l 0 2.5 l 2 0 l 0 3.8888 l -2 0 l 0 2.5 l 2 0 l 0 3.8889 l -2 0 l 0 2.5 l 2 0 l 0 3.8889 l -2 0 l 0 2.5 l 2 0 l 0 3.8889 l -2 0 l 0 2.5 l 2 0 l 0 3.6389"/>
      <path id="hole_049" style="fill:none;stroke:#000000;stroke-width:0.0508" d="m 69.25 30.1389 l 0 2.5 l 1.5 0 l 0 -2.5 l -1.5 0 z"/>
      <path id="hole_050" style="fill:none;stroke:#000000;stroke-width:0.0508" d="m 64.25 30.1389 l 0 2.5 l 1.5 0 l 0 -2.5 l -1.5 0 z"/>
      <path id="hole_051" style="fill:none;stroke:#000000;stroke-width:0.0508" d="m 52.5833 30.1389 l 0 2.5 l 1.5 0 l 0 -2.5 l -1.5 0 z"/>
      <path id="hole_052" style="fill:none;stroke:#000000;stroke-width:0.0508" d="m 40.9167 30.1389 l 0 2.5 l 1.5 0 l 0 -2.5 l -1.5 0 z"/>
      <path id="hole_053" style="fill:none;stroke:#000000;stroke-width:0.0508" d="m 69.25 36.5278 l 0 2.5 l 1.5 0 l 0 -2.5 l -1.5 0 z"/>
      <path id="hole_054" style="fill:none;stroke:#000000;stroke-width:0.0508" d="m 64.25 36.5278 l 0 2.5 l 1.5 0 l 0 -2.5 l -1.5 0 z"/>
      <path id="hole_055" style="fill:none;stroke:#000000;stroke-width:0.0508" d="m 52.5833 36.5278 l 0 2.5 l 1.5 0 l 0 -2.5 l -1.5 0 z"/>
      <path id="hole_056" style="fill:none;stroke:#000000;stroke-width:0.0508" d="m 40.9167 36.5278 l 0 2.5 l 1.5 0 l 0 -2.5 l -1.5 0 z"/>
      <path id="hole_057" style="fill:none;stroke:#000000;stroke-width:0.0508" d="m 69.25 42.9167 l 0 2.5 l 1.5 0 l 0 -2.5 l -1.5 0 z"/>
      <path id="hole_058" style="fill:none;stroke:#000000;stroke-width:0.0508" d="m 64.25 42.9167 l 0 2.5 l 1.5 0 l 0 -2.5 l -1.5 0 z"/>
      <path id="hole_059" style="fill:none;stroke:#000000;stroke-width:0.0508" d="m 52.5833 42.9167 l 0 2.5 l 1.5 0 l 0 -2.5 l -1.5 0 z"/>
      <path id="hole_060" style="fill:none;stroke:#000000;stroke-width:0.0508" d="m 40.9167 42.9167 l 0 2.5 l 1.5 0 l 0 -2.5 l -1.5 0 z"/>
      <path id="hole_061" style="fill:none;stroke:#000000;stroke-width:0.0508" d="m 69.25 49.3056 l 0 2.5 l 1.5 0 l 0 -2.5 l -1.5 0 z"/>
      <path id="hole_062" style="fill:none;stroke:#000000;stroke-width:0.0508" d="m 64.25 49.3056 l 0 2.5 l 1.5 0 l 0 -2.5 l -1.5 0 z"/>
      <path id="hole_063" style="fill:none;stroke:#000000;stroke-width:0.0508" d="m 52.5833 49.3056 l 0 2.5 l 1.5 0 l 0 -2.5 l -1.5 0 z"/>
      <path id="hole_064" style="fill:none;stroke:#000000;stroke-width:0.0508" d="m 40.9167 49.3056 l 0 2.5 l 1.5 0 l 0 -2.5 l -1.5 0 z"/>
      <path id="hole_065" style="fill:none;stroke:#000000;stroke-width:0.0508" d="m 69.25 55.6944 l 0 2.5 l 1.5 0 l 0 -2.5 l -1.5 0 z"/>
      <path id="hole_066" style="fill:none;stroke:#000000;stroke-width:0.0508" d="m 64.25 55.6944 l 0 2.5 l 1.5 0 l 0 -2.5 l -1.5 0 z"/>
      <path id="hole_067" style="fill:none;stroke:#000000;stroke-width:0.0508" d="m 52.5833 55.6944 l 0 2.5 l 1.5 0 l 0 -2.5 l -1.5 0 z"/>
      <path id="hole_068" style="fill:none;stroke:#000000;stroke-width:0.0508" d="m 40.9167 55.6944 l 0 2.5 l 1.5 0 l 0 -2.5 l -1.5 0 z"/>
      <path id="hole_069" style="fill:none;stroke:#000000;stroke-width:0.0508" d="m 69.25 62.0833 l 0 2.5 l 1.5 0 l 0 -2.5 l -1.5 0 z"/>
      <path id="hole_070" style="fill:none;stroke:#000000;stroke-width:0.0508" d="m 64.25 62.0833 l 0 2.5 l 1.5 0 l 0 -2.5 l -1.5 0 z"/>
      <path id="hole_071" style="fill:none;stroke:#000000;stroke-width:0.0508" d="m 52.5833 62.0833 l 0 2.5 l 1.5 0 l 0 -2.5 l -1.5 0 z"/>
      <path id="hole_072" style="fill:none;stroke:#000000;stroke-width:0.0508" d="m 40.9167 62.0833 l 0 2.5 l 1.5 0 l 0 -2.5 l -1.5 0 z"/>
      <path id="hole_073" style="fill:none;stroke:#000000;stroke-width:0.0508" d="m 69.25 68.4722 l 0 2.5 l 1.5 0 l 0 -2.5 l -1.5 0 z"/>
      <path id="hole_074" style="fill:none;stroke:#000000;stroke-width:0.0508" d="m 64.25 68.4722 l 0 2.5 l 1.5 0 l 0 -2.5 l -1.5 0 z"/>
      <path id="hole_075" style="fill:none;stroke:#000000;stroke-width:0.0508" d="m 52.5833 68.4722 l 0 2.5 l 1.5 0 l 0 -2.5 l -1.5 0 z"/>
      <path id="hole_076" style="fill:none;stroke:#000000;stroke-width:0.0508" d="m 40.9167 68.4722 l 0 2.5 l 1.5 0 l 0 -2.5 l -1.5 0 z"/>
      <path id="hole_077" style="fill:none;stroke:#000000;stroke-width:0.0508" d="m 69.25 74.8611 l 0 2.5 l 1.5 0 l 0 -2.5 l -1.5 0 z"/>
      <path id="hole_078" style="fill:none;stroke:#000000;stroke-width:0.0508" d="m 64.25 74.8611 l 0 2.5 l 1.5 0 l 0 -2.5 l -1.5 0 z"/>
      <path id="hole_079" style="fill:none;stroke:#000000;stroke-width:0.0508" d="m 52.5833 74.8611 l 0 2.5 l 1.5 0 l 0 -2.5 l -1.5 0 z"/>
      <path id="hole_080" style="fill:none;stroke:#000000;stroke-width:0.0508" d="m 40.9167 74.8611 l 0 2.5 l 1.5 0 l 0 -2.5 l -1.5 0 z"/>
      <path id="side_039" style="fill:none;stroke:#000000;stroke-width:0.0508" d="m 81 81 l -3.6389 0 l 0 -2 l -2.5 0 l 0 2 l -3.8889 0 l 0 -2 l -2.5 0 l 0 2 l -3.8889 0 l 0 -2 l -2.5 0 l 0 2 l -3.8889 0 l 0 -2 l -2.5 0 l 0 2 l -3.8888 0 l 0 -2 l -2.5 0 l 0 2 l -3.8889 0 l 0 -2 l -2.5 0 l 0 2 l -3.8889 0 l 0 -2 l -2.5 0 l 0 2 l -3.8889 0 l 0 -2 l -2.5 0 l 0 2 l -3.6389 0"/>
      <path id="side_040" style="fill:none;stroke:#000000;stroke-width:0.0508" d="m 26.5 81 l 0 -3.6389 l 2 0 l 0 -2.5 l -2 0 l 0 -3.8889 l 2 0 l 0 -2.5 l -2 0 l 0 -3.8889 l 2 0 l 0 -2.5 l -2 0 l 0 -3.8889 l 2 0 l 0 -2.5 l -2 0 l 0 -3.8888 l 2 0 l 0 -2.5 l -2 0 l 0 -3.8889 l 2 0 l 0 -2.5 l -2 0 l 0 -3.8889 l 2 0 l 0 -2.5 l -2 0 l 0 -3.8889 l 2 0 l 0 -2.5 l -2 0 l 0 -3.6389"/>
    </g>
    <g id="piece_004">
      <path id="side_041" style="fill:none;stroke:#000000;stroke-width:0.0508" d="m 84 28.5 l 1.625 0 l 0 -2 l 3.5 0 l 0 2 l 3.375 0 l 0 -2 l 3.5 0 l 0 2 l 3.375 0 l 0 -2 l 3.5 0 l 0 2 l 1.625 0"/>
      <path id="hole_081" style="fill:none;stroke:#000000;stroke-width:0.0508" d="m 84 38.25 l 1.625 0 l 0 -1.5 l -1.625 0 l 0 1.5 z"/>
      <path id="hole_082" style="fill:none;stroke:#000000;stroke-width:0.0508" d="m 84 43.25 l 1.625 0 l 0 -1.5 l -1.625 0 l 0 1.5 z"/>
      <path id="hole_083" style="fill:none;stroke:#000000;stroke-width:0.0508" d="m 84 53.25 l 1.625 0 l 0 -1.5 l -1.625 0 l 0 1.5 z"/>
      <path id="hole_084" style="fill:none;stroke:#000000;stroke-width:0.0508" d="m 89.125 38.25 l 3.375 0 l 0 -1.5 l -3.375 0 l 0 1.5 z"/>
      <path id="hole_085" style="fill:none;stroke:#000000;stroke-width:0.0508" d="m 89.125 43.25 l 3.375 0 l 0 -1.5 l -3.375 0 l 0 1.5 z"/>
      <path id="hole_086" style="fill:none;stroke:#000000;stroke-width:0.0508" d="m 89.125 53.25 l 3.375 0 l 0 -1.5 l -3.375 0 l 0 1.5 z"/>
      <path id="hole_087" style="fill:none;stroke:#000000;stroke-width:0.0508" d="m 96 38.25 l 3.375 0 l 0 -1.5 l -3.375 0 l 0 1.5 z"/>
      <path id="hole_088" style="fill:none;stroke:#000000;stroke-width:0.0508" d="m 96 43.25 l 3.375 0 l 0 -1.5 l -3.375 0 l 0 1.5 z"/>
      <path id="hole_089" style="fill:none;stroke:#000000;stroke-width:0.0508" d="m 96 53.25 l 3.375 0 l 0 -1.5 l -3.375 0 l 0 1.5 z"/>
      <path id="hole_090" style="fill:none;stroke:#000000;stroke-width:0.0508" d="m 102.875 38.25 l 1.625 0 l 0 -1.5 l -1.625 0 l 0 1.5 z"/>
      <path id="hole_091" style="fill:none;stroke:#000000;stroke-width:0.0508" d="m 102.875 43.25 l 1.625 0 l 0 -1.5 l -1.625 0 l 0 1.5 z"/>
      <path id="hole_092" style="fill:none;stroke:#000000;stroke-width:0.0508" d="m 102.875 53.25 l 1.625 0 l 0 -1.5 l -1.625 0 l 0 1.5 z"/>
      <path id="side_042" style="fill:none;stroke:#000000;stroke-width:0.0508" d="m 104.5 28.5 l 0 1.1389 l 0 0 l 0 3.5 l 0 0 l 0 2.8889 l 0 0 l 0 3.5 l 0 0 l 0 2.8889 l 0 0 l 0 3.5 l 0 0 l 0 2.8889 l 0 0 l 0 3.5 l 0 0 l 0 2.8888 l 0 0 l 0 3.5 l 0 0 l 0 2.8889 l 0 0 l 0 3.5 l 0 0 l 0 2.8889 l 0 0 l 0 3.5 l 0 0 l 0 2.8889 l 0 0 l 0 3.5 l 0 0 l 0 1.1389"/>
      <path id="side_043" style="fill:none;stroke:#000000;stroke-width:0.0508" d="m 104.5 79 l -1.625 0 l 0 2 l -3.5 0 l 0 -2 l -3.375 0 l 0 2 l -3.5 0 l 0 -2 l -3.375 0 l 0 2 l -3.5 0 l 0 -2 l -1.625 0"/>
      <path id="side_044" style="fill:none;stroke:#000000;stroke-width:0.0508" d="m 84 79 l 0 -1.1389 l -2 0 l 0 -3.5 l 2 0 l 0 -2.8889 l -2 0 l 0 -3.5 l 2 0 l 0 -2.8889 l -2 0 l 0 -3.5 l 2 0 l 0 -2.8889 l -2 0 l 0 -3.5 l 2 0 l 0 -2.8888 l -2 0 l 0 -3.5 l 2 0 l 0 -2.8889 l -2 0 l 0 -3.5 l 2 0 l 0 -2.8889 l -2 0 l 0 -3.5 l 2 0 l 0 -2.8889 l -2 0 l 0 -3.5 l 2 0 l 0 -1.1389"/>
    </g>
    <g id="piece_005">
      <path id="side_045" style="fill:none;stroke:#000000;stroke-width:0.0508" d="m 26.5 3 l 3.1389 0 l 0 0 l 3.5 0 l 0 0 l 2.8889 0 l 0 0 l 3.5 0 l 0 0 l 2.8889 0 l 0 0 l 3.5 0 l 0 0 l 2.8889 0 l 0 0 l 3.5 0 l 0 0 l 2.8888 0 l 0 0 l 3.5 0 l 0 0 l 2.8889 0 l 0 0 l 3.5 0 l 0 0 l 2.8889 0 l 0 0 l 3.5 0 l 0 0 l 2.8889 0 l 0 0 l 3.5 0 l 0 0 l 3.1389 0"/>
      <path id="side_046" style="fill:none;stroke:#000000;stroke-width:0.0508" d="m 81 3 l 0 2.125 l -2 0 l 0 2.5 l 2 0 l 0 4.375 l -2 0 l 0 2.5 l 2 0 l 0 4.375 l -2 0 l 0 2.5 l 2 0 l 0 2.125"/>
      <path id="hole_093" style="fill:none;stroke:#000000;stroke-width:0.0508" d="m 69.25 5.125 l 0 2.5 l 1.5 0 l 0 -2.5 l -1.5 0 z"/>
      <path id="hole_094" style="fill:none;stroke:#000000;stroke-width:0.0508" d="m 64.25 5.125 l 0 2.5 l 1.5 0 l 0 -2.5 l -1.5 0 z"/>
      <path id="hole_095" style="fill:none;stroke:#000000;stroke-width:0.0508" d="m 52.5833 5.125 l 0 2.5 l 1.5 0 l 0 -2.5 l -1.5 0 z"/>
      <path id="hole_096" style="fill:none;stroke:#000000;stroke-width:0.0508" d="m 40.9167 5.125 l 0 2.5 l 1.5 0 l 0 -2.5 l -1.5 0 z"/>
      <path id="hole_097" style="fill:none;stroke:#000000;stroke-width:0.0508" d="m 69.25 12 l 0 2.5 l 1.5 0 l 0 -2.5 l -1.5 0 z"/>
      <path id="hole_098" style="fill:none;stroke:#000000;stroke-width:0.0508" d="m 64.25 12 l 0 2.5 l 1.5 0 l 0 -2.5 l -1.5 0 z"/>
      <path id="hole_099" style="fill:none;stroke:#000000;stroke-width:0.0508" d="m 52.5833 12 l 0 2.5 l 1.5 0 l 0 -2.5 l -1.5 0 z"/>
      <path id="hole_100" style="fill:none;stroke:#000000;stroke-width:0.0508" d="m 40.9167 12 l 0 2.5 l 1.5 0 l 0 -2.5 l -1.5 0 z"/>
      <path id="hole_101" style="fill:none;stroke:#000000;stroke-width:0.0508" d="m 69.25 18.875 l 0 2.5 l 1.5 0 l 0 -2.5 l -1.5 0 z"/>
      <path id="hole_102" style="fill:none;stroke:#000000;stroke-width:0.0508" d="m 64.25 18.875 l 0 2.5 l 1.5 0 l 0 -2.5 l -1.5 0 z"/>
      <path id="hole_103" style="fill:none;stroke:#000000;stroke-width:0.0508" d="m 52.5833 18.875 l 0 2.5 l 1.5 0 l 0 -2.5 l -1.5 0 z"/>
      <path id="hole_104" style="fill:none;stroke:#000000;stroke-width:0.0508" d="m 40.9167 18.875 l 0 2.5 l 1.5 0 l 0 -2.5 l -1.5 0 z"/>
      <path id="side_047" style="fill:none;stroke:#000000;stroke-width:0.0508" d="m 81 23.5 l -3.1389 0 l 0 2 l -3.5 0 l 0 -2 l -2.8889 0 l 0 2 l -3.5 0 l 0 -2 l -2.8889 0 l 0 2 l -3.5 0 l 0 -2 l -2.8889 0 l 0 2 l -3.5 0 l 0 -2 l -2.8888 0 l 0 2 l -3.5 0 l 0 -2 l -2.8889 0 l 0 2 l -3.5 0 l 0 -2 l -2.8889 0 l 0 2 l -3.5 0 l 0 -2 l -2.8889 0 l 0 2 l -3.5 0 l 0 -2 l -3.1389 0"/>
      <path id="side_048" style="fill:none;stroke:#000000;stroke-width:0.0508" d="m 26.5 23.5 l 0 -2.125 l 2 0 l 0 -2.5 l -2 0 l 0 -4.375 l 2 0 l 0 -2.5 l -2 0 l 0 -4.375 l 2 0 l 0 -2.5 l -2 0 l 0 -2.125"/>
    </g>
  </g>
</svg>