<!-- Created with Inkscape (http://www.inkscape.org/) -->
<svg xmlns:inkscape="http://www.inkscape.org/namespaces/inkscape" xmlns:sodipodi="http://sodipodi.sourceforge.net/DTD/sodipodi-0.dtd" xmlns="http://www.w3.org/2000/svg" xmlns:svg="http://www.w3.org/2000/svg" width="166.3mm" height="186.5mm" viewBox="0 0 166.3 186.5" version="1.1" id="svg5" inkscape:version="1.1.2 (0a00cf5339, 2022-02-04)" sodipodi:docname="blank.svg">
  <sodipodi:namedview id="namedview7" pagecolor="#ffffff" bordercolor="#666666" borderopacity="1.0" inkscape:pageshadow="2" inkscape:pageopacity="0.0" inkscape:pagecheckerboard="0" inkscape:document-units="mm" showgrid="false" inkscape:zoom="0.64052329" inkscape:cx="397.33138" inkscape:cy="561.25984" inkscape:window-width="2086" inkscape:window-height="1376" inkscape:window-x="0" inkscape:window-y="0" inkscape:window-maximized="1" inkscape:current-layer="layer1"/>
  <defs id="defs2"/>
  <g inkscape:label="Layer 1" inkscape:groupmode="layer" id="layer1">
    <metadata text="createArgs=['--unit=mm', '--inside=1', '--length=50', '--width=50', '--depth=22', '--thickness=2', '--style=1', '--boxtype=2', '--tab=3', '--div_l=3', '--div_w=4', '--div_l_spacing=10;5;10', '--div_w_spacing=10;5', '--spacing=1', '--keydiv=0', '--hairline=1', '--kerf=0.1']"/>
    <path id="piece_001" style="fill:none;stroke:#000000;stroke-width:0.0508" d="M 26.1 85.025 L 28.1 85.025 L 28.1 87.925 L 26.1 87.925 L 26.1 91.8 L 28.1 91.8 L 28.1 94.7 L 26.1 94.7 L 26.1 98.575 L 28.1 98.575 L 28.1 101.475 L 26.1 101.475 L 26.1 105.3 L 80.2 105.3 L 80.2 101.475 L 78.2 101.475 L 78.2 98.575 L 80.2 98.575 L 80.2 94.7 L 78.2 94.7 L 78.2 91.8 L 80.2 91.8 L 80.2 87.925 L 78.2 87.925 L 78.2 85.025 L 80.2 85.025 L 80.2 83.2 L 76.9056 83.2 L 76.9056 81.2 L 73.8056 81.2 L 73.8056 83.2 L 70.5611 83.2 L 70.5611 81.2 L 67.4611 81.2 L 67.4611 83.2 L 64.2167 83.2 L 64.2167 81.2 L 61.1167 81.2 L 61.1167 83.2 L 57.8722 83.2 L 57.8722 81.2 L 54.7722 81.2 L 54.7722 83.2 L 51.5278 83.2 L 51.5278 81.2 L 48.4278 81.2 L 48.4278 83.2 L 45.1833 83.2 L 45.1833 81.2 L 42.0833 81.2 L 42.0833 83.2 L 38.8389 83.2 L 38.8389 81.2 L 35.7389 81.2 L 35.7389 83.2 L 32.4944 83.2 L 32.4944 81.2 L 29.3944 81.2 L 29.3944 83.2 L 26.1 83.2 L 26.1 85.025 Z M 39.9167 85.025 L 41.8167 85.025 L 41.8167 87.925 L 39.9167 87.925 L 39.9167 85.025 Z M 39.9167 91.8 L 41.8167 91.8 L 41.8167 94.7 L 39.9167 94.7 L 39.9167 91.8 Z M 39.9167 98.575 L 41.8167 98.575 L 41.8167 101.475 L 39.9167 101.475 L 39.9167 98.575 Z M 51.5833 85.025 L 53.4833 85.025 L 53.4833 87.925 L 51.5833 87.925 L 51.5833 85.025 Z M 51.5833 91.8 L 53.4833 91.8 L 53.4833 94.7 L 51.5833 94.7 L 51.5833 91.8 Z M 51.5833 98.575 L 53.4833 98.575 L 53.4833 101.475 L 51.5833 101.475 L 51.5833 98.575 Z M 63.25 85.025 L 65.15 85.025 L 65.15 87.925 L 63.25 87.925 L 63.25 85.025 Z M 63.25 91.8 L 65.15 91.8 L 65.15 94.7 L 63.25 94.7 L 63.25 91.8 Z M 63.25 98.575 L 65.15 98.575 L 65.15 101.475 L 63.25 101.475 L 63.25 98.575 Z M 68.25 85.025 L 70.15 85.025 L 70.15 87.925 L 68.25 87.925 L 68.25 85.025 Z M 68.25 91.8 L 70.15 91.8 L 70.15 94.7 L 68.25 94.7 L 68.25 91.8 Z M 68.25 98.575 L 70.15 98.575 L 70.15 101.475 L 68.25 101.475 L 68.25 98.575 Z"/>
    <path id="xdivider_001" style="fill:none;stroke:#000000;stroke-width:0.0508" d="M 1 110.125 L 3 110.125 L 3 113.025 L 1 113.025 L 1 116.9 L 3 116.9 L 3 119.8 L 1 119.8 L 1 123.675 L 3 123.675 L 3 126.575 L 1 126.575 L 1 130.4 L 55.1 130.4 L 55.1 126.575 L 53.1 126.575 L 53.1 123.675 L 55.1 123.675 L 55.1 119.8 L 53.1 119.8 L 53.1 116.9 L 55.1 116.9 L 55.1 113.025 L 53.1 113.025 L 53.1 110.125 L 55.1 110.125 L 55.1 108.3 L 51.8056 108.3 L 51.8056 106.3 L 48.7056 106.3 L 48.7056 108.3 L 45.4611 108.3 L 45.4611 106.3 L 45.05 106.3 L 45.05 117.3 L 43.15 117.3 L 43.15 106.3 L 42.3611 106.3 L 42.3611 108.3 L 40.05 108.3 L 40.05 117.3 L 38.15 117.3 L 38.15 106.3 L 36.0167 106.3 L 36.0167 108.3 L 32.7722 108.3 L 32.7722 106.3 L 29.6722 106.3 L 29.6722 108.3 L 28.3833 108.3 L 28.3833 117.3 L 26.4833 117.3 L 26.4833 108.3 L 26.4278 108.3 L 26.4278 106.3 L 23.3278 106.3 L 23.3278 108.3 L 20.0833 108.3 L 20.0833 106.3 L 16.9833 106.3 L 16.9833 108.3 L 16.7167 108.3 L 16.7167 117.3 L 14.8167 117.3 L 14.8167 108.3 L 13.7389 108.3 L 13.7389 106.3 L 10.6389 106.3 L 10.6389 108.3 L 7.39444 108.3 L 7.39444 106.3 L 4.29444 106.3 L 4.29444 108.3 L 1 108.3 L 1 110.125 Z"/>
    <path id="xdivider_002" style="fill:none;stroke:#000000;stroke-width:0.0508" d="M 56.1 110.125 L 58.1 110.125 L 58.1 113.025 L 56.1 113.025 L 56.1 116.9 L 58.1 116.9 L 58.1 119.8 L 56.1 119.8 L 56.1 123.675 L 58.1 123.675 L 58.1 126.575 L 56.1 126.575 L 56.1 130.4 L 110.2 130.4 L 110.2 126.575 L 108.2 126.575 L 108.2 123.675 L 110.2 123.675 L 110.2 119.8 L 108.2 119.8 L 108.2 116.9 L 110.2 116.9 L 110.2 113.025 L 108.2 113.025 L 108.2 110.125 L 110.2 110.125 L 110.2 108.3 L 106.906 108.3 L 106.906 106.3 L 103.806 106.3 L 103.806 108.3 L 100.561 108.3 L 100.561 106.3 L 100.15 106.3 L 100.15 117.3 L 98.25 117.3 L 98.25 106.3 L 97.4611 106.3 L 97.4611 108.3 L 95.15 108.3 L 95.15 117.3 L 93.25 117.3 L 93.25 106.3 L 91.1167 106.3 L 91.1167 108.3 L 87.8722 108.3 L 87.8722 106.3 L 84.7722 106.3 L 84.7722 108.3 L 83.4833 108.3 L 83.4833 117.3 L 81.5833 117.3 L 81.5833 108.3 L 81.5278 108.3 L 81.5278 106.3 L 78.4278 106.3 L 78.4278 108.3 L 75.1833 108.3 L 75.1833 106.3 L 72.0833 106.3 L 72.0833 108.3 L 71.8167 108.3 L 71.8167 117.3 L 69.9167 117.3 L 69.9167 108.3 L 68.8389 108.3 L 68.8389 106.3 L 65.7389 106.3 L 65.7389 108.3 L 62.4944 108.3 L 62.4944 106.3 L 59.3944 106.3 L 59.3944 108.3 L 56.1 108.3 L 56.1 110.125 Z"/>
    <path id="xdivider_003" style="fill:none;stroke:#000000;stroke-width:0.0508" d="M 111.2 110.125 L 113.2 110.125 L 113.2 113.025 L 111.2 113.025 L 111.2 116.9 L 113.2 116.9 L 113.2 119.8 L 111.2 119.8 L 111.2 123.675 L 113.2 123.675 L 113.2 126.575 L 111.2 126.575 L 111.2 130.4 L 165.3 130.4 L 165.3 126.575 L 163.3 126.575 L 163.3 123.675 L 165.3 123.675 L 165.3 119.8 L 163.3 119.8 L 163.3 116.9 L 165.3 116.9 L 165.3 113.025 L 163.3 113.025 L 163.3 110.125 L 165.3 110.125 L 165.3 108.3 L 162.006 108.3 L 162.006 106.3 L 158.906 106.3 L 158.906 108.3 L 155.661 108.3 L 155.661 106.3 L 155.25 106.3 L 155.25 117.3 L 153.35 117.3 L 153.35 106.3 L 152.561 106.3 L 152.561 108.3 L 150.25 108.3 L 150.25 117.3 L 148.35 117.3 L 148.35 106.3 L 146.217 106.3 L 146.217 108.3 L 142.972 108.3 L 142.972 106.3 L 139.872 106.3 L 139.872 108.3 L 138.583 108.3 L 138.583 117.3 L 136.683 117.3 L 136.683 108.3 L 136.628 108.3 L 136.628 106.3 L 133.528 106.3 L 133.528 108.3 L 130.283 108.3 L 130.283 106.3 L 127.183 106.3 L 127.183 108.3 L 126.917 108.3 L 126.917 117.3 L 125.017 117.3 L 125.017 108.3 L 123.939 108.3 L 123.939 106.3 L 120.839 106.3 L 120.839 108.3 L 117.594 108.3 L 117.594 106.3 L 114.494 106.3 L 114.494 108.3 L 111.2 108.3 L 111.2 110.125 Z"/>
    <path id="piece_002" style="fill:none;stroke:#000000;stroke-width:0.0508" d="M 1 36.15 L 4.725 36.15 L 4.725 38.05 L 1 38.05 L 1 41.15 L 4.725 41.15 L 4.725 43.05 L 1 43.05 L 1 51.15 L 4.725 51.15 L 4.725 53.05 L 1 53.05 L 1 78.2 L 4.725 78.2 L 4.725 80.2 L 7.825 80.2 L 7.825 78.2 L 11.5 78.2 L 11.5 80.2 L 14.6 80.2 L 14.6 78.2 L 18.275 78.2 L 18.275 80.2 L 21.375 80.2 L 21.375 78.2 L 23.1 78.2 L 23.1 76.9056 L 25.1 76.9056 L 25.1 73.8056 L 23.1 73.8056 L 23.1 70.5611 L 25.1 70.5611 L 25.1 67.4611 L 23.1 67.4611 L 23.1 64.2167 L 25.1 64.2167 L 25.1 61.1167 L 23.1 61.1167 L 23.1 57.8722 L 25.1 57.8722 L 25.1 54.7722 L 23.1 54.7722 L 23.1 51.5278 L 25.1 51.5278 L 25.1 48.4278 L 23.1 48.4278 L 23.1 45.1833 L 25.1 45.1833 L 25.1 42.0833 L 23.1 42.0833 L 23.1 38.8389 L 25.1 38.8389 L 25.1 35.7389 L 23.1 35.7389 L 23.1 32.4944 L 25.1 32.4944 L 25.1 29.3944 L 23.1 29.3944 L 23.1 28.1 L 21.375 28.1 L 21.375 26.1 L 18.275 26.1 L 18.275 28.1 L 14.6 28.1 L 14.6 26.1 L 11.5 26.1 L 11.5 28.1 L 7.825 28.1 L 7.825 26.1 L 4.725 26.1 L 4.725 28.1 L 1 28.1 L 1 36.15 Z M 14.6 36.15 L 18.275 36.15 L 18.275 38.05 L 14.6 38.05 L 14.6 36.15 Z M 14.6 41.15 L 18.275 41.15 L 18.275 43.05 L 14.6 43.05 L 14.6 41.15 Z M 14.6 51.15 L 18.275 51.15 L 18.275 53.05 L 14.6 53.05 L 14.6 51.15 Z M 21.375 36.15 L 23.05 36.15 L 23.05 38.05 L 21.375 38.05 L 21.375 36.15 Z M 21.375 41.15 L 23.05 41.15 L 23.05 43.05 L 21.375 43.05 L 21.375 41.15 Z M 21.375 51.15 L 23.05 51.15 L 23.05 53.05 L 21.375 53.05 L 21.375 51.15 Z M 7.825 36.15 L 11.5 36.15 L 11.5 38.05 L 7.825 38.05 L 7.825 36.15 Z M 7.825 41.15 L 11.5 41.15 L 11.5 43.05 L 7.825 43.05 L 7.825 41.15 Z M 7.825 51.15 L 11.5 51.15 L 11.5 53.05 L 7.825 53.05 L 7.825 51.15 Z"/>
    <path id="ydivider_001" style="fill:none;stroke:#000000;stroke-width:0.0508" d="M 1 141.45 L 12.1 141.45 L 12.1 143.35 L 1 143.35 L 1 146.45 L 12.1 146.45 L 12.1 148.35 L 1 148.35 L 1 156.45 L 12.1 156.45 L 12.1 158.35 L 1 158.35 L 1 183.5 L 4.725 183.5 L 4.725 185.5 L 7.825 185.5 L 7.825 183.5 L 11.5 183.5 L 11.5 185.5 L 14.6 185.5 L 14.6 183.5 L 18.275 183.5 L 18.275 185.5 L 21.375 185.5 L 21.375 183.5 L 23.1 183.5 L 23.1 182.206 L 25.1 182.206 L 25.1 179.106 L 23.1 179.106 L 23.1 175.861 L 25.1 175.861 L 25.1 172.761 L 23.1 172.761 L 23.1 169.517 L 25.1 169.517 L 25.1 166.417 L 23.1 166.417 L 23.1 163.172 L 25.1 163.172 L 25.1 160.072 L 23.1 160.072 L 23.1 156.828 L 25.1 156.828 L 25.1 153.728 L 23.1 153.728 L 23.1 150.483 L 25.1 150.483 L 25.1 147.383 L 23.1 147.383 L 23.1 144.139 L 25.1 144.139 L 25.1 141.039 L 23.1 141.039 L 23.1 137.794 L 25.1 137.794 L 25.1 134.694 L 23.1 134.694 L 23.1 133.4 L 21.375 133.4 L 21.375 131.4 L 18.275 131.4 L 18.275 133.4 L 14.6 133.4 L 14.6 131.4 L 11.5 131.4 L 11.5 133.4 L 7.825 133.4 L 7.825 131.4 L 4.725 131.4 L 4.725 133.4 L 1 133.4 L 1 141.45 Z"/>
    <path id="ydivider_002" style="fill:none;stroke:#000000;stroke-width:0.0508" d="M 26.1 141.45 L 37.2 141.45 L 37.2 143.35 L 26.1 143.35 L 26.1 146.45 L 37.2 146.45 L 37.2 148.35 L 26.1 148.35 L 26.1 156.45 L 37.2 156.45 L 37.2 158.35 L 26.1 158.35 L 26.1 183.5 L 29.825 183.5 L 29.825 185.5 L 32.925 185.5 L 32.925 183.5 L 36.6 183.5 L 36.6 185.5 L 39.7 185.5 L 39.7 183.5 L 43.375 183.5 L 43.375 185.5 L 46.475 185.5 L 46.475 183.5 L 48.2 183.5 L 48.2 182.206 L 50.2 182.206 L 50.2 179.106 L 48.2 179.106 L 48.2 175.861 L 50.2 175.861 L 50.2 172.761 L 48.2 172.761 L 48.2 169.517 L 50.2 169.517 L 50.2 166.417 L 48.2 166.417 L 48.2 163.172 L 50.2 163.172 L 50.2 160.072 L 48.2 160.072 L 48.2 156.828 L 50.2 156.828 L 50.2 153.728 L 48.2 153.728 L 48.2 150.483 L 50.2 150.483 L 50.2 147.383 L 48.2 147.383 L 48.2 144.139 L 50.2 144.139 L 50.2 141.039 L 48.2 141.039 L 48.2 137.794 L 50.2 137.794 L 50.2 134.694 L 48.2 134.694 L 48.2 133.4 L 46.475 133.4 L 46.475 131.4 L 43.375 131.4 L 43.375 133.4 L 39.7 133.4 L 39.7 131.4 L 36.6 131.4 L 36.6 133.4 L 32.925 133.4 L 32.925 131.4 L 29.825 131.4 L 29.825 133.4 L 26.1 133.4 L 26.1 141.45 Z"/>
    <path id="ydivider_003" style="fill:none;stroke:#000000;stroke-width:0.0508" d="M 51.2 141.45 L 62.3 141.45 L 62.3 143.35 L 51.2 143.35 L 51.2 146.45 L 62.3 146.45 L 62.3 148.35 L 51.2 148.35 L 51.2 156.45 L 62.3 156.45 L 62.3 158.35 L 51.2 158.35 L 51.2 183.5 L 54.925 183.5 L 54.925 185.5 L 58.025 185.5 L 58.025 183.5 L 61.7 183.5 L 61.7 185.5 L 64.8 185.5 L 64.8 183.5 L 68.475 183.5 L 68.475 185.5 L 71.575 185.5 L 71.575 183.5 L 73.3 183.5 L 73.3 182.206 L 75.3 182.206 L 75.3 179.106 L 73.3 179.106 L 73.3 175.861 L 75.3 175.861 L 75.3 172.761 L 73.3 172.761 L 73.3 169.517 L 75.3 169.517 L 75.3 166.417 L 73.3 166.417 L 73.3 163.172 L 75.3 163.172 L 75.3 160.072 L 73.3 160.072 L 73.3 156.828 L 75.3 156.828 L 75.3 153.728 L 73.3 153.728 L 73.3 150.483 L 75.3 150.483 L 75.3 147.383 L 73.3 147.383 L 73.3 144.139 L 75.3 144.139 L 75.3 141.039 L 73.3 141.039 L 73.3 137.794 L 75.3 137.794 L 75.3 134.694 L 73.3 134.694 L 73.3 133.4 L 71.575 133.4 L 71.575 131.4 L 68.475 131.4 L 68.475 133.4 L 64.8 133.4 L 64.8 131.4 L 61.7 131.4 L 61.7 133.4 L 58.025 133.4 L 58.025 131.4 L 54.925 131.4 L 54.925 133.4 L 51.2 133.4 L 51.2 141.45 Z"/>
    <path id="ydivider_004" style="fill:none;stroke:#000000;stroke-width:0.0508" d="M 76.3 141.45 L 87.4 141.45 L 87.4 143.35 L 76.3 143.35 L 76.3 146.45 L 87.4 146.45 L 87.4 148.35 L 76.3 148.35 L 76.3 156.45 L 87.4 156.45 L 87.4 158.35 L 76.3 158.35 L 76.3 183.5 L 80.025 183.5 L 80.025 185.5 L 83.125 185.5 L 83.125 183.5 L 86.8 183.5 L 86.8 185.5 L 89.9 185.5 L 89.9 183.5 L 93.575 183.5 L 93.575 185.5 L 96.675 185.5 L 96.675 183.5 L 98.4 183.5 L 98.4 182.206 L 100.4 182.206 L 100.4 179.106 L 98.4 179.106 L 98.4 175.861 L 100.4 175.861 L 100.4 172.761 L 98.4 172.761 L 98.4 169.517 L 100.4 169.517 L 100.4 166.417 L 98.4 166.417 L 98.4 163.172 L 100.4 163.172 L 100.4 160.072 L 98.4 160.072 L 98.4 156.828 L 100.4 156.828 L 100.4 153.728 L 98.4 153.728 L 98.4 150.483 L 100.4 150.483 L 100.4 147.383 L 98.4 147.383 L 98.4 144.139 L 100.4 144.139 L 100.4 141.039 L 98.4 141.039 L 98.4 137.794 L 100.4 137.794 L 100.4 134.694 L 98.4 134.694 L 98.4 133.4 L 96.675 133.4 L 96.675 131.4 L 93.575 131.4 L 93.575 133.4 L 89.9 133.4 L 89.9 131.4 L 86.8 131.4 L 86.8 133.4 L 83.125 133.4 L 83.125 131.4 L 80.025 131.4 L 80.025 133.4 L 76.3 133.4 L 76.3 141.45 Z"/>
    <path id="piece_003" style="fill:none;stroke:#000000;stroke-width:0.0508" d="M 26.1 29.4944 L 28.1 29.4944 L 28.1 32.3944 L 26.1 32.3944 L 26.1 35.8389 L 28.1 35.8389 L 28.1 38.7389 L 26.1 38.7389 L 26.1 42.1833 L 28.1 42.1833 L 28.1 45.0833 L 26.1 45.0833 L 26.1 48.5278 L 28.1 48.5278 L 28.1 51.4278 L 26.1 51.4278 L 26.1 54.8722 L 28.1 54.8722 L 28.1 57.7722 L 26.1 57.7722 L 26.1 61.2167 L 28.1 61.2167 L 28.1 64.1167 L 26.1 64.1167 L 26.1 67.5611 L 28.1 67.5611 L 28.1 70.4611 L 26.1 70.4611 L 26.1 73.9056 L 28.1 73.9056 L 28.1 76.8056 L 26.1 76.8056 L 26.1 80.2 L 29.4944 80.2 L 29.4944 78.2 L 32.3944 78.2 L 32.3944 80.2 L 35.8389 80.2 L 35.8389 78.2 L 38.7389 78.2 L 38.7389 80.2 L 42.1833 80.2 L 42.1833 78.2 L 45.0833 78.2 L 45.0833 80.2 L 48.5278 80.2 L 48.5278 78.2 L 51.4278 78.2 L 51.4278 80.2 L 54.8722 80.2 L 54.8722 78.2 L 57.7722 78.2 L 57.7722 80.2 L 61.2167 80.2 L 61.2167 78.2 L 64.1167 78.2 L 64.1167 80.2 L 67.5611 80.2 L 67.5611 78.2 L 70.4611 78.2 L 70.4611 80.2 L 73.9056 80.2 L 73.9056 78.2 L 76.8056 78.2 L 76.8056 80.2 L 80.2 80.2 L 80.2 76.8056 L 78.2 76.8056 L 78.2 73.9056 L 80.2 73.9056 L 80.2 70.4611 L 78.2 70.4611 L 78.2 67.5611 L 80.2 67.5611 L 80.2 64.1167 L 78.2 64.1167 L 78.2 61.2167 L 80.2 61.2167 L 80.2 57.7722 L 78.2 57.7722 L 78.2 54.8722 L 80.2 54.8722 L 80.2 51.4278 L 78.2 51.4278 L 78.2 48.5278 L 80.2 48.5278 L 80.2 45.0833 L 78.2 45.0833 L 78.2 42.1833 L 80.2 42.1833 L 80.2 38.7389 L 78.2 38.7389 L 78.2 35.8389 L 80.2 35.8389 L 80.2 32.3944 L 78.2 32.3944 L 78.2 29.4944 L 80.2 29.4944 L 80.2 26.1 L 76.8056 26.1 L 76.8056 28.1 L 73.9056 28.1 L 73.9056 26.1 L 70.4611 26.1 L 70.4611 28.1 L 67.5611 28.1 L 67.5611 26.1 L 64.1167 26.1 L 64.1167 28.1 L 61.2167 28.1 L 61.2167 26.1 L 57.7722 26.1 L 57.7722 28.1 L 54.8722 28.1 L 54.8722 26.1 L 51.4278 26.1 L 51.4278 28.1 L 48.5278 28.1 L 48.5278 26.1 L 45.0833 26.1 L 45.0833 28.1 L 42.1833 28.1 L 42.1833 26.1 L 38.7389 26.1 L 38.7389 28.1 L 35.8389 28.1 L 35.8389 26.1 L 32.3944 26.1 L 32.3944 28.1 L 29.4944 28.1 L 29.4944 26.1 L 26.1 26.1 L 26.1 29.4944 Z M 29.4944 36.15 L 32.3944 36.15 L 32.3944 38.05 L 29.4944 38.05 L 29.4944 36.15 Z M 29.4944 41.15 L 32.3944 41.15 L 32.3944 43.05 L 29.4944 43.05 L 29.4944 41.15 Z M 29.4944 51.15 L 32.3944 51.15 L 32.3944 53.05 L 29.4944 53.05 L 29.4944 51.15 Z M 35.8389 36.15 L 38.7389 36.15 L 38.7389 38.05 L 35.8389 38.05 L 35.8389 36.15 Z M 35.8389 41.15 L 38.7389 41.15 L 38.7389 43.05 L 35.8389 43.05 L 35.8389 41.15 Z M 35.8389 51.15 L 38.7389 51.15 L 38.7389 53.05 L 35.8389 53.05 L 35.8389 51.15 Z M 39.9167 29.4944 L 41.8167 29.4944 L 41.8167 32.3944 L 39.9167 32.3944 L 39.9167 29.4944 Z M 39.9167 35.8389 L 41.8167 35.8389 L 41.8167 38.7389 L 39.9167 38.7389 L 39.9167 35.8389 Z M 39.9167 42.1833 L 41.8167 42.1833 L 41.8167 45.0833 L 39.9167 45.0833 L 39.9167 42.1833 Z M 39.9167 48.5278 L 41.8167 48.5278 L 41.8167 51.4278 L 39.9167 51.4278 L 39.9167 48.5278 Z M 39.9167 54.8722 L 41.8167 54.8722 L 41.8167 57.7722 L 39.9167 57.7722 L 39.9167 54.8722 Z M 39.9167 61.2167 L 41.8167 61.2167 L 41.8167 64.1167 L 39.9167 64.1167 L 39.9167 61.2167 Z M 39.9167 67.5611 L 41.8167 67.5611 L 41.8167 70.4611 L 39.9167 70.4611 L 39.9167 67.5611 Z M 39.9167 73.9056 L 41.8167 73.9056 L 41.8167 76.8056 L 39.9167 76.8056 L 39.9167 73.9056 Z M 42.1833 36.15 L 45.0833 36.15 L 45.0833 38.05 L 42.1833 38.05 L 42.1833 36.15 Z M 42.1833 41.15 L 45.0833 41.15 L 45.0833 43.05 L 42.1833 43.05 L 42.1833 41.15 Z M 42.1833 51.15 L 45.0833 51.15 L 45.0833 53.05 L 42.1833 53.05 L 42.1833 51.15 Z M 48.5278 36.15 L 51.4278 36.15 L 51.4278 38.05 L 48.5278 38.05 L 48.5278 36.15 Z M 48.5278 41.15 L 51.4278 41.15 L 51.4278 43.05 L 48.5278 43.05 L 48.5278 41.15 Z M 48.5278 51.15 L 51.4278 51.15 L 51.4278 53.05 L 48.5278 53.05 L 48.5278 51.15 Z M 51.5833 29.4944 L 53.4833 29.4944 L 53.4833 32.3944 L 51.5833 32.3944 L 51.5833 29.4944 Z M 51.5833 35.8389 L 53.4833 35.8389 L 53.4833 38.7389 L 51.5833 38.7389 L 51.5833 35.8389 Z M 51.5833 42.1833 L 53.4833 42.1833 L 53.4833 45.0833 L 51.5833 45.0833 L 51.5833 42.1833 Z M 51.5833 48.5278 L 53.4833 48.5278 L 53.4833 51.4278 L 51.5833 51.4278 L 51.5833 48.5278 Z M 51.5833 54.8722 L 53.4833 54.8722 L 53.4833 57.7722 L 51.5833 57.7722 L 51.5833 54.8722 Z M 51.5833 61.2167 L 53.4833 61.2167 L 53.4833 64.1167 L 51.5833 64.1167 L 51.5833 61.2167 Z M 51.5833 67.5611 L 53.4833 67.5611 L 53.4833 70.4611 L 51.5833 70.4611 L 51.5833 67.5611 Z M 51.5833 73.9056 L 53.4833 73.9056 L 53.4833 76.8056 L 51.5833 76.8056 L 51.5833 73.9056 Z M 54.8722 36.15 L 57.7722 36.15 L 57.7722 38.05 L 54.8722 38.05 L 54.8722 36.15 Z M 54.8722 41.15 L 57.7722 41.15 L 57.7722 43.05 L 54.8722 43.05 L 54.8722 41.15 Z M 54.8722 51.15 L 57.7722 51.15 L 57.7722 53.05 L 54.8722 53.05 L 54.8722 51.15 Z M 61.2167 36.15 L 63.25 36.15 L 63.25 35.8389 L 65.15 35.8389 L 65.15 38.7389 L 63.25 38.7389 L 63.25 38.05 L 61.2167 38.05 L 61.2167 36.15 Z M 61.2167 41.15 L 64.1167 41.15 L 64.1167 42.1833 L 65.15 42.1833 L 65.15 45.0833 L 63.25 45.0833 L 63.25 43.05 L 61.2167 43.05 L 61.2167 41.15 Z M 61.2167 51.15 L 63.25 51.15 L 63.25 48.5278 L 65.15 48.5278 L 65.15 51.4278 L 64.1167 51.4278 L 64.1167 53.05 L 61.2167 53.05 L 61.2167 51.15 Z M 63.25 29.4944 L 65.15 29.4944 L 65.15 32.3944 L 63.25 32.3944 L 63.25 29.4944 Z M 63.25 54.8722 L 65.15 54.8722 L 65.15 57.7722 L 63.25 57.7722 L 63.25 54.8722 Z M 63.25 61.2167 L 65.15 61.2167 L 65.15 64.1167 L 63.25 64.1167 L 63.25 61.2167 Z M 63.25 67.5611 L 65.15 67.5611 L 65.15 70.4611 L 63.25 70.4611 L 63.25 67.5611 Z M 63.25 73.9056 L 65.15 73.9056 L 65.15 76.8056 L 63.25 76.8056 L 63.25 73.9056 Z M 67.5611 36.15 L 68.25 36.15 L 68.25 35.8389 L 70.15 35.8389 L 70.15 36.15 L 70.4611 36.15 L 70.4611 38.05 L 70.15 38.05 L 70.15 38.7389 L 68.25 38.7389 L 68.25 38.05 L 67.5611 38.05 L 67.5611 36.15 Z M 67.5611 41.15 L 70.4611 41.15 L 70.4611 43.05 L 70.15 43.05 L 70.15 45.0833 L 68.25 45.0833 L 68.25 43.05 L 67.5611 43.05 L 67.5611 41.15 Z M 67.5611 51.15 L 68.25 51.15 L 68.25 48.5278 L 70.15 48.5278 L 70.15 51.15 L 70.4611 51.15 L 70.4611 53.05 L 67.5611 53.05 L 67.5611 51.15 Z M 68.25 29.4944 L 70.15 29.4944 L 70.15 32.3944 L 68.25 32.3944 L 68.25 29.4944 Z M 68.25 54.8722 L 70.15 54.8722 L 70.15 57.7722 L 68.25 57.7722 L 68.25 54.8722 Z M 68.25 61.2167 L 70.15 61.2167 L 70.15 64.1167 L 68.25 64.1167 L 68.25 61.2167 Z M 68.25 67.5611 L 70.15 67.5611 L 70.15 70.4611 L 68.25 70.4611 L 68.25 67.5611 Z M 68.25 73.9056 L 70.15 73.9056 L 70.15 76.8056 L 68.25 76.8056 L 68.25 73.9056 Z M 73.9056 36.15 L 76.8056 36.15 L 76.8056 38.05 L 73.9056 38.05 L 73.9056 36.15 Z M 73.9056 41.15 L 76.8056 41.15 L 76.8056 43.05 L 73.9056 43.05 L 73.9056 41.15 Z M 73.9056 51.15 L 76.8056 51.15 L 76.8056 53.05 L 73.9056 53.05 L 73.9056 51.15 Z"/>
    <path id="piece_004" style="fill:none;stroke:#000000;stroke-width:0.0508" d="M 83.2 29.3944 L 81.2 29.3944 L 81.2 32.4944 L 83.2 32.4944 L 83.2 35.7389 L 81.2 35.7389 L 81.2 38.8389 L 83.2 38.8389 L 83.2 41.15 L 84.925 41.15 L 84.925 43.05 L 83.2 43.05 L 83.2 42.0833 L 81.2 42.0833 L 81.2 45.1833 L 83.2 45.1833 L 83.2 48.4278 L 81.2 48.4278 L 81.2 51.5278 L 83.2 51.5278 L 83.2 51.15 L 84.925 51.15 L 84.925 53.05 L 83.2 53.05 L 83.2 54.7722 L 81.2 54.7722 L 81.2 57.8722 L 83.2 57.8722 L 83.2 61.1167 L 81.2 61.1167 L 81.2 64.2167 L 83.2 64.2167 L 83.2 67.4611 L 81.2 67.4611 L 81.2 70.5611 L 83.2 70.5611 L 83.2 73.8056 L 81.2 73.8056 L 81.2 76.9056 L 83.2 76.9056 L 83.2 78.2 L 84.925 78.2 L 84.925 80.2 L 88.025 80.2 L 88.025 78.2 L 91.7 78.2 L 91.7 80.2 L 94.8 80.2 L 94.8 78.2 L 98.475 78.2 L 98.475 80.2 L 101.575 80.2 L 101.575 78.2 L 105.3 78.2 L 105.3 28.1 L 101.575 28.1 L 101.575 26.1 L 98.475 26.1 L 98.475 28.1 L 94.8 28.1 L 94.8 26.1 L 91.7 26.1 L 91.7 28.1 L 88.025 28.1 L 88.025 26.1 L 84.925 26.1 L 84.925 28.1 L 83.2 28.1 L 83.2 29.3944 Z M 101.575 36.15 L 105.25 36.15 L 105.25 38.05 L 101.575 38.05 L 101.575 36.15 Z M 101.575 41.15 L 105.25 41.15 L 105.25 43.05 L 101.575 43.05 L 101.575 41.15 Z M 101.575 51.15 L 105.25 51.15 L 105.25 53.05 L 101.575 53.05 L 101.575 51.15 Z M 83.2 36.15 L 84.925 36.15 L 84.925 38.05 L 83.2 38.05 L 83.2 36.15 Z M 88.025 36.15 L 91.7 36.15 L 91.7 38.05 L 88.025 38.05 L 88.025 36.15 Z M 88.025 41.15 L 91.7 41.15 L 91.7 43.05 L 88.025 43.05 L 88.025 41.15 Z M 88.025 51.15 L 91.7 51.15 L 91.7 53.05 L 88.025 53.05 L 88.025 51.15 Z M 94.8 36.15 L 98.475 36.15 L 98.475 38.05 L 94.8 38.05 L 94.8 36.15 Z M 94.8 41.15 L 98.475 41.15 L 98.475 43.05 L 94.8 43.05 L 94.8 41.15 Z M 94.8 51.15 L 98.475 51.15 L 98.475 53.05 L 94.8 53.05 L 94.8 51.15 Z"/>
    <path id="piece_005" style="fill:none;stroke:#000000;stroke-width:0.0508" d="M 26.1 4.825 L 28.1 4.825 L 28.1 7.725 L 26.1 7.725 L 26.1 11.6 L 28.1 11.6 L 28.1 14.5 L 26.1 14.5 L 26.1 18.375 L 28.1 18.375 L 28.1 21.275 L 26.1 21.275 L 26.1 23.1 L 29.3944 23.1 L 29.3944 25.1 L 32.4944 25.1 L 32.4944 23.1 L 35.7389 23.1 L 35.7389 25.1 L 38.8389 25.1 L 38.8389 23.1 L 42.0833 23.1 L 42.0833 25.1 L 45.1833 25.1 L 45.1833 23.1 L 48.4278 23.1 L 48.4278 25.1 L 51.5278 25.1 L 51.5278 23.1 L 54.7722 23.1 L 54.7722 25.1 L 57.8722 25.1 L 57.8722 23.1 L 61.1167 23.1 L 61.1167 25.1 L 64.2167 25.1 L 64.2167 23.1 L 67.4611 23.1 L 67.4611 25.1 L 70.5611 25.1 L 70.5611 23.1 L 73.8056 23.1 L 73.8056 25.1 L 76.9056 25.1 L 76.9056 23.1 L 80.2 23.1 L 80.2 21.275 L 78.2 21.275 L 78.2 18.375 L 80.2 18.375 L 80.2 14.5 L 78.2 14.5 L 78.2 11.6 L 80.2 11.6 L 80.2 7.725 L 78.2 7.725 L 78.2 4.825 L 80.2 4.825 L 80.2 1 L 26.1 1 L 26.1 4.825 Z M 39.9167 11.6 L 41.8167 11.6 L 41.8167 14.5 L 39.9167 14.5 L 39.9167 11.6 Z M 39.9167 18.375 L 41.8167 18.375 L 41.8167 21.275 L 39.9167 21.275 L 39.9167 18.375 Z M 39.9167 4.825 L 41.8167 4.825 L 41.8167 7.725 L 39.9167 7.725 L 39.9167 4.825 Z M 51.5833 11.6 L 53.4833 11.6 L 53.4833 14.5 L 51.5833 14.5 L 51.5833 11.6 Z M 51.5833 18.375 L 53.4833 18.375 L 53.4833 21.275 L 51.5833 21.275 L 51.5833 18.375 Z M 51.5833 4.825 L 53.4833 4.825 L 53.4833 7.725 L 51.5833 7.725 L 51.5833 4.825 Z M 63.25 11.6 L 65.15 11.6 L 65.15 14.5 L 63.25 14.5 L 63.25 11.6 Z M 63.25 18.375 L 65.15 18.375 L 65.15 21.275 L 63.25 21.275 L 63.25 18.375 Z M 63.25 4.825 L 65.15 4.825 L 65.15 7.725 L 63.25 7.725 L 63.25 4.825 Z M 68.25 11.6 L 70.15 11.6 L 70.15 14.5 L 68.25 14.5 L 68.25 11.6 Z M 68.25 18.375 L 70.15 18.375 L 70.15 21.275 L 68.25 21.275 L 68.25 18.375 Z M 68.25 4.825 L 70.15 4.825 L 70.15 7.725 L 68.25 7.725 L 68.25 4.825 Z"/>
  </g>
</svg>