<!-- Created with Inkscape (http://www.inkscape.org/) -->
<svg xmlns:inkscape="http://www.inkscape.org/namespaces/inkscape" xmlns:sodipodi="http://sodipodi.sourceforge.net/DTD/sodipodi-0.dtd" xmlns="http://www.w3.org/2000/svg" xmlns:svg="http://www.w3.org/2000/svg" width="219.7mm" height="196.6mm" viewBox="0 0 219.7 196.6" version="1.1" id="svg5" inkscape:version="1.1.2 (0a00cf5339, 2022-02-04)" sodipodi:docname="blank.svg">
  <sodipodi:namedview id="namedview7" pagecolor="#ffffff" bordercolor="#666666" borderopacity="1.0" inkscape:pageshadow="2" inkscape:pageopacity="0.0" inkscape:pagecheckerboard="0" inkscape:document-units="mm" showgrid="false" inkscape:zoom="0.64052329" inkscape:cx="397.33138" inkscape:cy="561.25984" inkscape:window-width="2086" inkscape:window-height="1376" inkscape:window-x="0" inkscape:window-y="0" inkscape:window-maximized="1" inkscape:current-layer="layer1"/>
  <defs id="defs2"/>
  <g inkscape:label="Layer 1" inkscape:groupmode="layer" id="layer1">
    <metadata text="createArgs=['--unit=mm', '--inside=1', '--length=75', '--width=75', '--depth=20', '--thickness=2', '--style=1', '--boxtype=2', '--tab=3', '--div-l=3', '--div-w=4', '--div-l-spacing=10;5;10', '--div-w-spacing=10;5', '--spacing=1', '--keydiv=0', '--hairline=1', '--kerf=0.1']"/>
    <path id="piece_001" style="fill:none;stroke:#000000;stroke-width:0.0508" d="M 24.1 107.55 L 26.1 107.55 L 26.1 110.45 L 24.1 110.45 L 24.1 113.8 L 26.1 113.8 L 26.1 116.7 L 24.1 116.7 L 24.1 120.05 L 26.1 120.05 L 26.1 122.95 L 24.1 122.95 L 24.1 126.3 L 103.2 126.3 L 103.2 122.95 L 101.2 122.95 L 101.2 120.05 L 103.2 120.05 L 103.2 116.7 L 101.2 116.7 L 101.2 113.8 L 103.2 113.8 L 103.2 110.45 L 101.2 110.45 L 101.2 107.55 L 103.2 107.55 L 103.2 106.2 L 99.8923 106.2 L 99.8923 104.2 L 96.7923 104.2 L 96.7923 106.2 L 93.5846 106.2 L 93.5846 104.2 L 90.4846 104.2 L 90.4846 106.2 L 87.2769 106.2 L 87.2769 104.2 L 84.1769 104.2 L 84.1769 106.2 L 80.9692 106.2 L 80.9692 104.2 L 77.8692 104.2 L 77.8692 106.2 L 74.6615 106.2 L 74.6615 104.2 L 71.5615 104.2 L 71.5615 106.2 L 68.3538 106.2 L 68.3538 104.2 L 65.2538 104.2 L 65.2538 106.2 L 62.0462 106.2 L 62.0462 104.2 L 58.9462 104.2 L 58.9462 106.2 L 55.7385 106.2 L 55.7385 104.2 L 52.6385 104.2 L 52.6385 106.2 L 49.4308 106.2 L 49.4308 104.2 L 46.3308 104.2 L 46.3308 106.2 L 43.1231 106.2 L 43.1231 104.2 L 40.0231 104.2 L 40.0231 106.2 L 36.8154 106.2 L 36.8154 104.2 L 33.7154 104.2 L 33.7154 106.2 L 30.5077 106.2 L 30.5077 104.2 L 27.4077 104.2 L 27.4077 106.2 L 24.1 106.2 L 24.1 107.55 Z M 36.2 107.55 L 38.1 107.55 L 38.1 110.45 L 36.2 110.45 L 36.2 107.55 Z M 36.2 113.8 L 38.1 113.8 L 38.1 116.7 L 36.2 116.7 L 36.2 113.8 Z M 36.2 120.05 L 38.1 120.05 L 38.1 122.95 L 36.2 122.95 L 36.2 120.05 Z M 43.2 107.55 L 45.1 107.55 L 45.1 110.45 L 43.2 110.45 L 43.2 107.55 Z M 43.2 113.8 L 45.1 113.8 L 45.1 116.7 L 43.2 116.7 L 43.2 113.8 Z M 43.2 120.05 L 45.1 120.05 L 45.1 122.95 L 43.2 122.95 L 43.2 120.05 Z M 62.5333 107.55 L 64.4333 107.55 L 64.4333 110.45 L 62.5333 110.45 L 62.5333 107.55 Z M 62.5333 113.8 L 64.4333 113.8 L 64.4333 116.7 L 62.5333 116.7 L 62.5333 113.8 Z M 62.5333 120.05 L 64.4333 120.05 L 64.4333 122.95 L 62.5333 122.95 L 62.5333 120.05 Z M 81.8667 107.55 L 83.7667 107.55 L 83.7667 110.45 L 81.8667 110.45 L 81.8667 107.55 Z M 81.8667 113.8 L 83.7667 113.8 L 83.7667 116.7 L 81.8667 116.7 L 81.8667 113.8 Z M 81.8667 120.05 L 83.7667 120.05 L 83.7667 122.95 L 81.8667 122.95 L 81.8667 120.05 Z"/>
    <path id="xdivider_001" style="fill:none;stroke:#000000;stroke-width:0.0508" d="M 24.1 130.65 L 26.1 130.65 L 26.1 133.55 L 24.1 133.55 L 24.1 136.9 L 26.1 136.9 L 26.1 139.8 L 24.1 139.8 L 24.1 143.15 L 26.1 143.15 L 26.1 146.05 L 24.1 146.05 L 24.1 147.4 L 27.4077 147.4 L 27.4077 149.4 L 30.5077 149.4 L 30.5077 147.4 L 33.7154 147.4 L 33.7154 149.4 L 36.2 149.4 L 36.2 137.4 L 38.1 137.4 L 38.1 147.4 L 40.0231 147.4 L 40.0231 149.4 L 43.1231 149.4 L 43.1231 147.4 L 43.2 147.4 L 43.2 137.4 L 45.1 137.4 L 45.1 147.4 L 46.3308 147.4 L 46.3308 149.4 L 49.4308 149.4 L 49.4308 147.4 L 52.6385 147.4 L 52.6385 149.4 L 55.7385 149.4 L 55.7385 147.4 L 58.9462 147.4 L 58.9462 149.4 L 62.0462 149.4 L 62.0462 147.4 L 62.5333 147.4 L 62.5333 137.4 L 64.4333 137.4 L 64.4333 147.4 L 65.2538 147.4 L 65.2538 149.4 L 68.3538 149.4 L 68.3538 147.4 L 71.5615 147.4 L 71.5615 149.4 L 74.6615 149.4 L 74.6615 147.4 L 77.8692 147.4 L 77.8692 149.4 L 80.9692 149.4 L 80.9692 147.4 L 81.8667 147.4 L 81.8667 137.4 L 83.7667 137.4 L 83.7667 147.4 L 84.1769 147.4 L 84.1769 149.4 L 87.2769 149.4 L 87.2769 147.4 L 90.4846 147.4 L 90.4846 149.4 L 93.5846 149.4 L 93.5846 147.4 L 96.7923 147.4 L 96.7923 149.4 L 99.8923 149.4 L 99.8923 147.4 L 103.2 147.4 L 103.2 146.05 L 101.2 146.05 L 101.2 143.15 L 103.2 143.15 L 103.2 139.8 L 101.2 139.8 L 101.2 136.9 L 103.2 136.9 L 103.2 133.55 L 101.2 133.55 L 101.2 130.65 L 103.2 130.65 L 103.2 127.3 L 24.1 127.3 L 24.1 130.65 Z"/>
    <path id="xdivider_002" style="fill:none;stroke:#000000;stroke-width:0.0508" d="M 24.1 153.75 L 26.1 153.75 L 26.1 156.65 L 24.1 156.65 L 24.1 160 L 26.1 160 L 26.1 162.9 L 24.1 162.9 L 24.1 166.25 L 26.1 166.25 L 26.1 169.15 L 24.1 169.15 L 24.1 170.5 L 27.4077 170.5 L 27.4077 172.5 L 30.5077 172.5 L 30.5077 170.5 L 33.7154 170.5 L 33.7154 172.5 L 36.2 172.5 L 36.2 160.5 L 38.1 160.5 L 38.1 170.5 L 40.0231 170.5 L 40.0231 172.5 L 43.1231 172.5 L 43.1231 170.5 L 43.2 170.5 L 43.2 160.5 L 45.1 160.5 L 45.1 170.5 L 46.3308 170.5 L 46.3308 172.5 L 49.4308 172.5 L 49.4308 170.5 L 52.6385 170.5 L 52.6385 172.5 L 55.7385 172.5 L 55.7385 170.5 L 58.9462 170.5 L 58.9462 172.5 L 62.0462 172.5 L 62.0462 170.5 L 62.5333 170.5 L 62.5333 160.5 L 64.4333 160.5 L 64.4333 170.5 L 65.2538 170.5 L 65.2538 172.5 L 68.3538 172.5 L 68.3538 170.5 L 71.5615 170.5 L 71.5615 172.5 L 74.6615 172.5 L 74.6615 170.5 L 77.8692 170.5 L 77.8692 172.5 L 80.9692 172.5 L 80.9692 170.5 L 81.8667 170.5 L 81.8667 160.5 L 83.7667 160.5 L 83.7667 170.5 L 84.1769 170.5 L 84.1769 172.5 L 87.2769 172.5 L 87.2769 170.5 L 90.4846 170.5 L 90.4846 172.5 L 93.5846 172.5 L 93.5846 170.5 L 96.7923 170.5 L 96.7923 172.5 L 99.8923 172.5 L 99.8923 170.5 L 103.2 170.5 L 103.2 169.15 L 101.2 169.15 L 101.2 166.25 L 103.2 166.25 L 103.2 162.9 L 101.2 162.9 L 101.2 160 L 103.2 160 L 103.2 156.65 L 101.2 156.65 L 101.2 153.75 L 103.2 153.75 L 103.2 150.4 L 24.1 150.4 L 24.1 153.75 Z"/>
    <path id="xdivider_003" style="fill:none;stroke:#000000;stroke-width:0.0508" d="M 24.1 176.85 L 26.1 176.85 L 26.1 179.75 L 24.1 179.75 L 24.1 183.1 L 26.1 183.1 L 26.1 186 L 24.1 186 L 24.1 189.35 L 26.1 189.35 L 26.1 192.25 L 24.1 192.25 L 24.1 193.6 L 27.4077 193.6 L 27.4077 195.6 L 30.5077 195.6 L 30.5077 193.6 L 33.7154 193.6 L 33.7154 195.6 L 36.2 195.6 L 36.2 183.6 L 38.1 183.6 L 38.1 193.6 L 40.0231 193.6 L 40.0231 195.6 L 43.1231 195.6 L 43.1231 193.6 L 43.2 193.6 L 43.2 183.6 L 45.1 183.6 L 45.1 193.6 L 46.3308 193.6 L 46.3308 195.6 L 49.4308 195.6 L 49.4308 193.6 L 52.6385 193.6 L 52.6385 195.6 L 55.7385 195.6 L 55.7385 193.6 L 58.9462 193.6 L 58.9462 195.6 L 62.0462 195.6 L 62.0462 193.6 L 62.5333 193.6 L 62.5333 183.6 L 64.4333 183.6 L 64.4333 193.6 L 65.2538 193.6 L 65.2538 195.6 L 68.3538 195.6 L 68.3538 193.6 L 71.5615 193.6 L 71.5615 195.6 L 74.6615 195.6 L 74.6615 193.6 L 77.8692 193.6 L 77.8692 195.6 L 80.9692 195.6 L 80.9692 193.6 L 81.8667 193.6 L 81.8667 183.6 L 83.7667 183.6 L 83.7667 193.6 L 84.1769 193.6 L 84.1769 195.6 L 87.2769 195.6 L 87.2769 193.6 L 90.4846 193.6 L 90.4846 195.6 L 93.5846 195.6 L 93.5846 193.6 L 96.7923 193.6 L 96.7923 195.6 L 99.8923 195.6 L 99.8923 193.6 L 103.2 193.6 L 103.2 192.25 L 101.2 192.25 L 101.2 189.35 L 103.2 189.35 L 103.2 186 L 101.2 186 L 101.2 183.1 L 103.2 183.1 L 103.2 179.75 L 101.2 179.75 L 101.2 176.85 L 103.2 176.85 L 103.2 173.5 L 24.1 173.5 L 24.1 176.85 Z"/>
    <path id="piece_002" style="fill:none;stroke:#000000;stroke-width:0.0508" d="M 1 70.2 L 4.2 70.2 L 4.2 72.1 L 1 72.1 L 1 82.2 L 4.2 82.2 L 4.2 84.1 L 1 84.1 L 1 89.2 L 4.2 89.2 L 4.2 91.1 L 1 91.1 L 1 101.2 L 4.25 101.2 L 4.25 103.2 L 7.35 103.2 L 7.35 101.2 L 10.5 101.2 L 10.5 103.2 L 13.6 103.2 L 13.6 101.2 L 16.75 101.2 L 16.75 103.2 L 19.85 103.2 L 19.85 101.2 L 21.1 101.2 L 21.1 99.8923 L 23.1 99.8923 L 23.1 96.7923 L 21.1 96.7923 L 21.1 93.5846 L 23.1 93.5846 L 23.1 90.4846 L 21.1 90.4846 L 21.1 91.1 L 19.85 91.1 L 19.85 89.2 L 21.1 89.2 L 21.1 87.2769 L 23.1 87.2769 L 23.1 84.1769 L 21.1 84.1769 L 21.1 84.1 L 19.85 84.1 L 19.85 82.2 L 21.1 82.2 L 21.1 80.9692 L 23.1 80.9692 L 23.1 77.8692 L 21.1 77.8692 L 21.1 74.6615 L 23.1 74.6615 L 23.1 71.5615 L 21.1 71.5615 L 21.1 72.1 L 19.85 72.1 L 19.85 70.2 L 21.1 70.2 L 21.1 68.3538 L 23.1 68.3538 L 23.1 65.2538 L 21.1 65.2538 L 21.1 62.0462 L 23.1 62.0462 L 23.1 58.9462 L 21.1 58.9462 L 21.1 55.7385 L 23.1 55.7385 L 23.1 52.6385 L 21.1 52.6385 L 21.1 49.4308 L 23.1 49.4308 L 23.1 46.3308 L 21.1 46.3308 L 21.1 43.1231 L 23.1 43.1231 L 23.1 40.0231 L 21.1 40.0231 L 21.1 36.8154 L 23.1 36.8154 L 23.1 33.7154 L 21.1 33.7154 L 21.1 30.5077 L 23.1 30.5077 L 23.1 27.4077 L 21.1 27.4077 L 21.1 26.1 L 19.85 26.1 L 19.85 24.1 L 16.75 24.1 L 16.75 26.1 L 13.6 26.1 L 13.6 24.1 L 10.5 24.1 L 10.5 26.1 L 7.35 26.1 L 7.35 24.1 L 4.25 24.1 L 4.25 26.1 L 1 26.1 L 1 70.2 Z M 13.6 70.2 L 16.75 70.2 L 16.75 72.1 L 13.6 72.1 L 13.6 70.2 Z M 13.6 82.2 L 16.75 82.2 L 16.75 84.1 L 13.6 84.1 L 13.6 82.2 Z M 13.6 89.2 L 16.75 89.2 L 16.75 91.1 L 13.6 91.1 L 13.6 89.2 Z M 7.35 70.2 L 10.5 70.2 L 10.5 72.1 L 7.35 72.1 L 7.35 70.2 Z M 7.35 82.2 L 10.5 82.2 L 10.5 84.1 L 7.35 84.1 L 7.35 82.2 Z M 7.35 89.2 L 10.5 89.2 L 10.5 91.1 L 7.35 91.1 L 7.35 89.2 Z"/>
    <path id="ydivider_001" style="fill:none;stroke:#000000;stroke-width:0.0508" d="M 127.3 70.2 L 137.3 70.2 L 137.3 72.1 L 127.3 72.1 L 127.3 82.2 L 137.3 82.2 L 137.3 84.1 L 127.3 84.1 L 127.3 89.2 L 137.3 89.2 L 137.3 91.1 L 127.3 91.1 L 127.3 101.2 L 130.55 101.2 L 130.55 103.2 L 133.65 103.2 L 133.65 101.2 L 136.8 101.2 L 136.8 103.2 L 139.9 103.2 L 139.9 101.2 L 143.05 101.2 L 143.05 103.2 L 146.15 103.2 L 146.15 101.2 L 147.4 101.2 L 147.4 99.8923 L 149.4 99.8923 L 149.4 96.7923 L 147.4 96.7923 L 147.4 93.5846 L 149.4 93.5846 L 149.4 90.4846 L 147.4 90.4846 L 147.4 87.2769 L 149.4 87.2769 L 149.4 84.1769 L 147.4 84.1769 L 147.4 80.9692 L 149.4 80.9692 L 149.4 77.8692 L 147.4 77.8692 L 147.4 74.6615 L 149.4 74.6615 L 149.4 71.5615 L 147.4 71.5615 L 147.4 68.3538 L 149.4 68.3538 L 149.4 65.2538 L 147.4 65.2538 L 147.4 62.0462 L 149.4 62.0462 L 149.4 58.9462 L 147.4 58.9462 L 147.4 55.7385 L 149.4 55.7385 L 149.4 52.6385 L 147.4 52.6385 L 147.4 49.4308 L 149.4 49.4308 L 149.4 46.3308 L 147.4 46.3308 L 147.4 43.1231 L 149.4 43.1231 L 149.4 40.0231 L 147.4 40.0231 L 147.4 36.8154 L 149.4 36.8154 L 149.4 33.7154 L 147.4 33.7154 L 147.4 30.5077 L 149.4 30.5077 L 149.4 27.4077 L 147.4 27.4077 L 147.4 26.1 L 146.15 26.1 L 146.15 24.1 L 143.05 24.1 L 143.05 26.1 L 139.9 26.1 L 139.9 24.1 L 136.8 24.1 L 136.8 26.1 L 133.65 26.1 L 133.65 24.1 L 130.55 24.1 L 130.55 26.1 L 127.3 26.1 L 127.3 70.2 Z"/>
    <path id="ydivider_002" style="fill:none;stroke:#000000;stroke-width:0.0508" d="M 150.4 70.2 L 160.4 70.2 L 160.4 72.1 L 150.4 72.1 L 150.4 82.2 L 160.4 82.2 L 160.4 84.1 L 150.4 84.1 L 150.4 89.2 L 160.4 89.2 L 160.4 91.1 L 150.4 91.1 L 150.4 101.2 L 153.65 101.2 L 153.65 103.2 L 156.75 103.2 L 156.75 101.2 L 159.9 101.2 L 159.9 103.2 L 163 103.2 L 163 101.2 L 166.15 101.2 L 166.15 103.2 L 169.25 103.2 L 169.25 101.2 L 170.5 101.2 L 170.5 99.8923 L 172.5 99.8923 L 172.5 96.7923 L 170.5 96.7923 L 170.5 93.5846 L 172.5 93.5846 L 172.5 90.4846 L 170.5 90.4846 L 170.5 87.2769 L 172.5 87.2769 L 172.5 84.1769 L 170.5 84.1769 L 170.5 80.9692 L 172.5 80.9692 L 172.5 77.8692 L 170.5 77.8692 L 170.5 74.6615 L 172.5 74.6615 L 172.5 71.5615 L 170.5 71.5615 L 170.5 68.3538 L 172.5 68.3538 L 172.5 65.2538 L 170.5 65.2538 L 170.5 62.0462 L 172.5 62.0462 L 172.5 58.9462 L 170.5 58.9462 L 170.5 55.7385 L 172.5 55.7385 L 172.5 52.6385 L 170.5 52.6385 L 170.5 49.4308 L 172.5 49.4308 L 172.5 46.3308 L 170.5 46.3308 L 170.5 43.1231 L 172.5 43.1231 L 172.5 40.0231 L 170.5 40.0231 L 170.5 36.8154 L 172.5 36.8154 L 172.5 33.7154 L 170.5 33.7154 L 170.5 30.5077 L 172.5 30.5077 L 172.5 27.4077 L 170.5 27.4077 L 170.5 26.1 L 169.25 26.1 L 169.25 24.1 L 166.15 24.1 L 166.15 26.1 L 163 26.1 L 163 24.1 L 159.9 24.1 L 159.9 26.1 L 156.75 26.1 L 156.75 24.1 L 153.65 24.1 L 153.65 26.1 L 150.4 26.1 L 150.4 70.2 Z"/>
    <path id="ydivider_003" style="fill:none;stroke:#000000;stroke-width:0.0508" d="M 173.5 70.2 L 183.5 70.2 L 183.5 72.1 L 173.5 72.1 L 173.5 82.2 L 183.5 82.2 L 183.5 84.1 L 173.5 84.1 L 173.5 89.2 L 183.5 89.2 L 183.5 91.1 L 173.5 91.1 L 173.5 101.2 L 176.75 101.2 L 176.75 103.2 L 179.85 103.2 L 179.85 101.2 L 183 101.2 L 183 103.2 L 186.1 103.2 L 186.1 101.2 L 189.25 101.2 L 189.25 103.2 L 192.35 103.2 L 192.35 101.2 L 193.6 101.2 L 193.6 99.8923 L 195.6 99.8923 L 195.6 96.7923 L 193.6 96.7923 L 193.6 93.5846 L 195.6 93.5846 L 195.6 90.4846 L 193.6 90.4846 L 193.6 87.2769 L 195.6 87.2769 L 195.6 84.1769 L 193.6 84.1769 L 193.6 80.9692 L 195.6 80.9692 L 195.6 77.8692 L 193.6 77.8692 L 193.6 74.6615 L 195.6 74.6615 L 195.6 71.5615 L 193.6 71.5615 L 193.6 68.3538 L 195.6 68.3538 L 195.6 65.2538 L 193.6 65.2538 L 193.6 62.0462 L 195.6 62.0462 L 195.6 58.9462 L 193.6 58.9462 L 193.6 55.7385 L 195.6 55.7385 L 195.6 52.6385 L 193.6 52.6385 L 193.6 49.4308 L 195.6 49.4308 L 195.6 46.3308 L 193.6 46.3308 L 193.6 43.1231 L 195.6 43.1231 L 195.6 40.0231 L 193.6 40.0231 L 193.6 36.8154 L 195.6 36.8154 L 195.6 33.7154 L 193.6 33.7154 L 193.6 30.5077 L 195.6 30.5077 L 195.6 27.4077 L 193.6 27.4077 L 193.6 26.1 L 192.35 26.1 L 192.35 24.1 L 189.25 24.1 L 189.25 26.1 L 186.1 26.1 L 186.1 24.1 L 183 24.1 L 183 26.1 L 179.85 26.1 L 179.85 24.1 L 176.75 24.1 L 176.75 26.1 L 173.5 26.1 L 173.5 70.2 Z"/>
    <path id="ydivider_004" style="fill:none;stroke:#000000;stroke-width:0.0508" d="M 196.6 70.2 L 206.6 70.2 L 206.6 72.1 L 196.6 72.1 L 196.6 82.2 L 206.6 82.2 L 206.6 84.1 L 196.6 84.1 L 196.6 89.2 L 206.6 89.2 L 206.6 91.1 L 196.6 91.1 L 196.6 101.2 L 199.85 101.2 L 199.85 103.2 L 202.95 103.2 L 202.95 101.2 L 206.1 101.2 L 206.1 103.2 L 209.2 103.2 L 209.2 101.2 L 212.35 101.2 L 212.35 103.2 L 215.45 103.2 L 215.45 101.2 L 216.7 101.2 L 216.7 99.8923 L 218.7 99.8923 L 218.7 96.7923 L 216.7 96.7923 L 216.7 93.5846 L 218.7 93.5846 L 218.7 90.4846 L 216.7 90.4846 L 216.7 87.2769 L 218.7 87.2769 L 218.7 84.1769 L 216.7 84.1769 L 216.7 80.9692 L 218.7 80.9692 L 218.7 77.8692 L 216.7 77.8692 L 216.7 74.6615 L 218.7 74.6615 L 218.7 71.5615 L 216.7 71.5615 L 216.7 68.3538 L 218.7 68.3538 L 218.7 65.2538 L 216.7 65.2538 L 216.7 62.0462 L 218.7 62.0462 L 218.7 58.9462 L 216.7 58.9462 L 216.7 55.7385 L 218.7 55.7385 L 218.7 52.6385 L 216.7 52.6385 L 216.7 49.4308 L 218.7 49.4308 L 218.7 46.3308 L 216.7 46.3308 L 216.7 43.1231 L 218.7 43.1231 L 218.7 40.0231 L 216.7 40.0231 L 216.7 36.8154 L 218.7 36.8154 L 218.7 33.7154 L 216.7 33.7154 L 216.7 30.5077 L 218.7 30.5077 L 218.7 27.4077 L 216.7 27.4077 L 216.7 26.1 L 215.45 26.1 L 215.45 24.1 L 212.35 24.1 L 212.35 26.1 L 209.2 26.1 L 209.2 24.1 L 206.1 24.1 L 206.1 26.1 L 202.95 26.1 L 202.95 24.1 L 199.85 24.1 L 199.85 26.1 L 196.6 26.1 L 196.6 70.2 Z"/>
    <path id="piece_003" style="fill:none;stroke:#000000;stroke-width:0.0508" d="M 24.1 27.5077 L 26.1 27.5077 L 26.1 30.4077 L 24.1 30.4077 L 24.1 33.8154 L 26.1 33.8154 L 26.1 36.7154 L 24.1 36.7154 L 24.1 40.1231 L 26.1 40.1231 L 26.1 43.0231 L 24.1 43.0231 L 24.1 46.4308 L 26.1 46.4308 L 26.1 49.3308 L 24.1 49.3308 L 24.1 52.7385 L 26.1 52.7385 L 26.1 55.6385 L 24.1 55.6385 L 24.1 59.0462 L 26.1 59.0462 L 26.1 61.9462 L 24.1 61.9462 L 24.1 65.3538 L 26.1 65.3538 L 26.1 68.2538 L 24.1 68.2538 L 24.1 71.6615 L 26.1 71.6615 L 26.1 74.5615 L 24.1 74.5615 L 24.1 77.9692 L 26.1 77.9692 L 26.1 80.8692 L 24.1 80.8692 L 24.1 84.2769 L 26.1 84.2769 L 26.1 87.1769 L 24.1 87.1769 L 24.1 90.5846 L 26.1 90.5846 L 26.1 93.4846 L 24.1 93.4846 L 24.1 96.8923 L 26.1 96.8923 L 26.1 99.7923 L 24.1 99.7923 L 24.1 103.2 L 27.5077 103.2 L 27.5077 101.2 L 30.4077 101.2 L 30.4077 103.2 L 33.8154 103.2 L 33.8154 101.2 L 36.7154 101.2 L 36.7154 103.2 L 40.1231 103.2 L 40.1231 101.2 L 43.0231 101.2 L 43.0231 103.2 L 46.4308 103.2 L 46.4308 101.2 L 49.3308 101.2 L 49.3308 103.2 L 52.7385 103.2 L 52.7385 101.2 L 55.6385 101.2 L 55.6385 103.2 L 59.0462 103.2 L 59.0462 101.2 L 61.9462 101.2 L 61.9462 103.2 L 65.3538 103.2 L 65.3538 101.2 L 68.2538 101.2 L 68.2538 103.2 L 71.6615 103.2 L 71.6615 101.2 L 74.5615 101.2 L 74.5615 103.2 L 77.9692 103.2 L 77.9692 101.2 L 80.8692 101.2 L 80.8692 103.2 L 84.2769 103.2 L 84.2769 101.2 L 87.1769 101.2 L 87.1769 103.2 L 90.5846 103.2 L 90.5846 101.2 L 93.4846 101.2 L 93.4846 103.2 L 96.8923 103.2 L 96.8923 101.2 L 99.7923 101.2 L 99.7923 103.2 L 103.2 103.2 L 103.2 99.7923 L 101.2 99.7923 L 101.2 96.8923 L 103.2 96.8923 L 103.2 93.4846 L 101.2 93.4846 L 101.2 90.5846 L 103.2 90.5846 L 103.2 87.1769 L 101.2 87.1769 L 101.2 84.2769 L 103.2 84.2769 L 103.2 80.8692 L 101.2 80.8692 L 101.2 77.9692 L 103.2 77.9692 L 103.2 74.5615 L 101.2 74.5615 L 101.2 71.6615 L 103.2 71.6615 L 103.2 68.2538 L 101.2 68.2538 L 101.2 65.3538 L 103.2 65.3538 L 103.2 61.9462 L 101.2 61.9462 L 101.2 59.0462 L 103.2 59.0462 L 103.2 55.6385 L 101.2 55.6385 L 101.2 52.7385 L 103.2 52.7385 L 103.2 49.3308 L 101.2 49.3308 L 101.2 46.4308 L 103.2 46.4308 L 103.2 43.0231 L 101.2 43.0231 L 101.2 40.1231 L 103.2 40.1231 L 103.2 36.7154 L 101.2 36.7154 L 101.2 33.8154 L 103.2 33.8154 L 103.2 30.4077 L 101.2 30.4077 L 101.2 27.5077 L 103.2 27.5077 L 103.2 24.1 L 99.7923 24.1 L 99.7923 26.1 L 96.8923 26.1 L 96.8923 24.1 L 93.4846 24.1 L 93.4846 26.1 L 90.5846 26.1 L 90.5846 24.1 L 87.1769 24.1 L 87.1769 26.1 L 84.2769 26.1 L 84.2769 24.1 L 80.8692 24.1 L 80.8692 26.1 L 77.9692 26.1 L 77.9692 24.1 L 74.5615 24.1 L 74.5615 26.1 L 71.6615 26.1 L 71.6615 24.1 L 68.2538 24.1 L 68.2538 26.1 L 65.3538 26.1 L 65.3538 24.1 L 61.9462 24.1 L 61.9462 26.1 L 59.0462 26.1 L 59.0462 24.1 L 55.6385 24.1 L 55.6385 26.1 L 52.7385 26.1 L 52.7385 24.1 L 49.3308 24.1 L 49.3308 26.1 L 46.4308 26.1 L 46.4308 24.1 L 43.0231 24.1 L 43.0231 26.1 L 40.1231 26.1 L 40.1231 24.1 L 36.7154 24.1 L 36.7154 26.1 L 33.8154 26.1 L 33.8154 24.1 L 30.4077 24.1 L 30.4077 26.1 L 27.5077 26.1 L 27.5077 24.1 L 24.1 24.1 L 24.1 27.5077 Z M 27.5077 70.2 L 30.4077 70.2 L 30.4077 72.1 L 27.5077 72.1 L 27.5077 70.2 Z M 27.5077 82.2 L 30.4077 82.2 L 30.4077 84.1 L 27.5077 84.1 L 27.5077 82.2 Z M 27.5077 89.2 L 30.4077 89.2 L 30.4077 91.1 L 27.5077 91.1 L 27.5077 89.2 Z M 33.8154 70.2 L 36.7154 70.2 L 36.7154 71.6615 L 38.1 71.6615 L 38.1 74.5615 L 36.2 74.5615 L 36.2 72.1 L 33.8154 72.1 L 33.8154 70.2 Z M 33.8154 82.2 L 36.7154 82.2 L 36.7154 84.1 L 33.8154 84.1 L 33.8154 82.2 Z M 33.8154 89.2 L 36.7154 89.2 L 36.7154 90.5846 L 38.1 90.5846 L 38.1 93.4846 L 36.2 93.4846 L 36.2 91.1 L 33.8154 91.1 L 33.8154 89.2 Z M 36.2 27.5077 L 38.1 27.5077 L 38.1 30.4077 L 36.2 30.4077 L 36.2 27.5077 Z M 36.2 33.8154 L 38.1 33.8154 L 38.1 36.7154 L 36.2 36.7154 L 36.2 33.8154 Z M 36.2 40.1231 L 38.1 40.1231 L 38.1 43.0231 L 36.2 43.0231 L 36.2 40.1231 Z M 36.2 46.4308 L 38.1 46.4308 L 38.1 49.3308 L 36.2 49.3308 L 36.2 46.4308 Z M 36.2 52.7385 L 38.1 52.7385 L 38.1 55.6385 L 36.2 55.6385 L 36.2 52.7385 Z M 36.2 59.0462 L 38.1 59.0462 L 38.1 61.9462 L 36.2 61.9462 L 36.2 59.0462 Z M 36.2 65.3538 L 38.1 65.3538 L 38.1 68.2538 L 36.2 68.2538 L 36.2 65.3538 Z M 36.2 77.9692 L 38.1 77.9692 L 38.1 80.8692 L 36.2 80.8692 L 36.2 77.9692 Z M 36.2 84.2769 L 38.1 84.2769 L 38.1 87.1769 L 36.2 87.1769 L 36.2 84.2769 Z M 36.2 96.8923 L 38.1 96.8923 L 38.1 99.7923 L 36.2 99.7923 L 36.2 96.8923 Z M 40.1231 70.2 L 43.0231 70.2 L 43.0231 72.1 L 40.1231 72.1 L 40.1231 70.2 Z M 40.1231 82.2 L 43.0231 82.2 L 43.0231 84.1 L 40.1231 84.1 L 40.1231 82.2 Z M 40.1231 89.2 L 43.0231 89.2 L 43.0231 91.1 L 40.1231 91.1 L 40.1231 89.2 Z M 43.2 27.5077 L 45.1 27.5077 L 45.1 30.4077 L 43.2 30.4077 L 43.2 27.5077 Z M 43.2 33.8154 L 45.1 33.8154 L 45.1 36.7154 L 43.2 36.7154 L 43.2 33.8154 Z M 43.2 40.1231 L 45.1 40.1231 L 45.1 43.0231 L 43.2 43.0231 L 43.2 40.1231 Z M 43.2 46.4308 L 45.1 46.4308 L 45.1 49.3308 L 43.2 49.3308 L 43.2 46.4308 Z M 43.2 52.7385 L 45.1 52.7385 L 45.1 55.6385 L 43.2 55.6385 L 43.2 52.7385 Z M 43.2 59.0462 L 45.1 59.0462 L 45.1 61.9462 L 43.2 61.9462 L 43.2 59.0462 Z M 43.2 65.3538 L 45.1 65.3538 L 45.1 68.2538 L 43.2 68.2538 L 43.2 65.3538 Z M 43.2 71.6615 L 45.1 71.6615 L 45.1 74.5615 L 43.2 74.5615 L 43.2 71.6615 Z M 43.2 77.9692 L 45.1 77.9692 L 45.1 80.8692 L 43.2 80.8692 L 43.2 77.9692 Z M 43.2 84.2769 L 45.1 84.2769 L 45.1 87.1769 L 43.2 87.1769 L 43.2 84.2769 Z M 43.2 90.5846 L 45.1 90.5846 L 45.1 93.4846 L 43.2 93.4846 L 43.2 90.5846 Z M 43.2 96.8923 L 45.1 96.8923 L 45.1 99.7923 L 43.2 99.7923 L 43.2 96.8923 Z M 46.4308 70.2 L 49.3308 70.2 L 49.3308 72.1 L 46.4308 72.1 L 46.4308 70.2 Z M 46.4308 82.2 L 49.3308 82.2 L 49.3308 84.1 L 46.4308 84.1 L 46.4308 82.2 Z M 46.4308 89.2 L 49.3308 89.2 L 49.3308 91.1 L 46.4308 91.1 L 46.4308 89.2 Z M 52.7385 70.2 L 55.6385 70.2 L 55.6385 72.1 L 52.7385 72.1 L 52.7385 70.2 Z M 52.7385 82.2 L 55.6385 82.2 L 55.6385 84.1 L 52.7385 84.1 L 52.7385 82.2 Z M 52.7385 89.2 L 55.6385 89.2 L 55.6385 91.1 L 52.7385 91.1 L 52.7385 89.2 Z M 59.0462 70.2 L 61.9462 70.2 L 61.9462 72.1 L 59.0462 72.1 L 59.0462 70.2 Z M 59.0462 82.2 L 61.9462 82.2 L 61.9462 84.1 L 59.0462 84.1 L 59.0462 82.2 Z M 59.0462 89.2 L 61.9462 89.2 L 61.9462 91.1 L 59.0462 91.1 L 59.0462 89.2 Z M 62.5333 27.5077 L 64.4333 27.5077 L 64.4333 30.4077 L 62.5333 30.4077 L 62.5333 27.5077 Z M 62.5333 33.8154 L 64.4333 33.8154 L 64.4333 36.7154 L 62.5333 36.7154 L 62.5333 33.8154 Z M 62.5333 40.1231 L 64.4333 40.1231 L 64.4333 43.0231 L 62.5333 43.0231 L 62.5333 40.1231 Z M 62.5333 46.4308 L 64.4333 46.4308 L 64.4333 49.3308 L 62.5333 49.3308 L 62.5333 46.4308 Z M 62.5333 52.7385 L 64.4333 52.7385 L 64.4333 55.6385 L 62.5333 55.6385 L 62.5333 52.7385 Z M 62.5333 59.0462 L 64.4333 59.0462 L 64.4333 61.9462 L 62.5333 61.9462 L 62.5333 59.0462 Z M 62.5333 65.3538 L 64.4333 65.3538 L 64.4333 68.2538 L 62.5333 68.2538 L 62.5333 65.3538 Z M 62.5333 71.6615 L 64.4333 71.6615 L 64.4333 74.5615 L 62.5333 74.5615 L 62.5333 71.6615 Z M 62.5333 77.9692 L 64.4333 77.9692 L 64.4333 80.8692 L 62.5333 80.8692 L 62.5333 77.9692 Z M 62.5333 84.2769 L 64.4333 84.2769 L 64.4333 87.1769 L 62.5333 87.1769 L 62.5333 84.2769 Z M 62.5333 90.5846 L 64.4333 90.5846 L 64.4333 93.4846 L 62.5333 93.4846 L 62.5333 90.5846 Z M 62.5333 96.8923 L 64.4333 96.8923 L 64.4333 99.7923 L 62.5333 99.7923 L 62.5333 96.8923 Z M 65.3538 70.2 L 68.2538 70.2 L 68.2538 72.1 L 65.3538 72.1 L 65.3538 70.2 Z M 65.3538 82.2 L 68.2538 82.2 L 68.2538 84.1 L 65.3538 84.1 L 65.3538 82.2 Z M 65.3538 89.2 L 68.2538 89.2 L 68.2538 91.1 L 65.3538 91.1 L 65.3538 89.2 Z M 71.6615 70.2 L 74.5615 70.2 L 74.5615 72.1 L 71.6615 72.1 L 71.6615 70.2 Z M 71.6615 82.2 L 74.5615 82.2 L 74.5615 84.1 L 71.6615 84.1 L 71.6615 82.2 Z M 71.6615 89.2 L 74.5615 89.2 L 74.5615 91.1 L 71.6615 91.1 L 71.6615 89.2 Z M 77.9692 70.2 L 80.8692 70.2 L 80.8692 72.1 L 77.9692 72.1 L 77.9692 70.2 Z M 77.9692 82.2 L 80.8692 82.2 L 80.8692 84.1 L 77.9692 84.1 L 77.9692 82.2 Z M 77.9692 89.2 L 80.8692 89.2 L 80.8692 91.1 L 77.9692 91.1 L 77.9692 89.2 Z M 81.8667 27.5077 L 83.7667 27.5077 L 83.7667 30.4077 L 81.8667 30.4077 L 81.8667 27.5077 Z M 81.8667 33.8154 L 83.7667 33.8154 L 83.7667 36.7154 L 81.8667 36.7154 L 81.8667 33.8154 Z M 81.8667 40.1231 L 83.7667 40.1231 L 83.7667 43.0231 L 81.8667 43.0231 L 81.8667 40.1231 Z M 81.8667 46.4308 L 83.7667 46.4308 L 83.7667 49.3308 L 81.8667 49.3308 L 81.8667 46.4308 Z M 81.8667 52.7385 L 83.7667 52.7385 L 83.7667 55.6385 L 81.8667 55.6385 L 81.8667 52.7385 Z M 81.8667 59.0462 L 83.7667 59.0462 L 83.7667 61.9462 L 81.8667 61.9462 L 81.8667 59.0462 Z M 81.8667 65.3538 L 83.7667 65.3538 L 83.7667 68.2538 L 81.8667 68.2538 L 81.8667 65.3538 Z M 81.8667 71.6615 L 83.7667 71.6615 L 83.7667 74.5615 L 81.8667 74.5615 L 81.8667 71.6615 Z M 81.8667 77.9692 L 83.7667 77.9692 L 83.7667 80.8692 L 81.8667 80.8692 L 81.8667 77.9692 Z M 81.8667 84.2769 L 83.7667 84.2769 L 83.7667 87.1769 L 81.8667 87.1769 L 81.8667 84.2769 Z M 81.8667 90.5846 L 83.7667 90.5846 L 83.7667 93.4846 L 81.8667 93.4846 L 81.8667 90.5846 Z M 81.8667 96.8923 L 83.7667 96.8923 L 83.7667 99.7923 L 81.8667 99.7923 L 81.8667 96.8923 Z M 84.2769 70.2 L 87.1769 70.2 L 87.1769 72.1 L 84.2769 72.1 L 84.2769 70.2 Z M 84.2769 82.2 L 87.1769 82.2 L 87.1769 84.1 L 84.2769 84.1 L 84.2769 82.2 Z M 84.2769 89.2 L 87.1769 89.2 L 87.1769 91.1 L 84.2769 91.1 L 84.2769 89.2 Z M 90.5846 70.2 L 93.4846 70.2 L 93.4846 72.1 L 90.5846 72.1 L 90.5846 70.2 Z M 90.5846 82.2 L 93.4846 82.2 L 93.4846 84.1 L 90.5846 84.1 L 90.5846 82.2 Z M 90.5846 89.2 L 93.4846 89.2 L 93.4846 91.1 L 90.5846 91.1 L 90.5846 89.2 Z M 96.8923 70.2 L 99.7923 70.2 L 99.7923 72.1 L 96.8923 72.1 L 96.8923 70.2 Z M 96.8923 82.2 L 99.7923 82.2 L 99.7923 84.1 L 96.8923 84.1 L 96.8923 82.2 Z M 96.8923 89.2 L 99.7923 89.2 L 99.7923 91.1 L 96.8923 91.1 L 96.8923 89.2 Z"/>
    <path id="piece_004" style="fill:none;stroke:#000000;stroke-width:0.0508" d="M 106.2 27.4077 L 104.2 27.4077 L 104.2 30.5077 L 106.2 30.5077 L 106.2 33.7154 L 104.2 33.7154 L 104.2 36.8154 L 106.2 36.8154 L 106.2 40.0231 L 104.2 40.0231 L 104.2 43.1231 L 106.2 43.1231 L 106.2 46.3308 L 104.2 46.3308 L 104.2 49.4308 L 106.2 49.4308 L 106.2 52.6385 L 104.2 52.6385 L 104.2 55.7385 L 106.2 55.7385 L 106.2 58.9462 L 104.2 58.9462 L 104.2 62.0462 L 106.2 62.0462 L 106.2 65.2538 L 104.2 65.2538 L 104.2 68.3538 L 106.2 68.3538 L 106.2 70.2 L 107.45 70.2 L 107.45 72.1 L 106.2 72.1 L 106.2 71.5615 L 104.2 71.5615 L 104.2 74.6615 L 106.2 74.6615 L 106.2 77.8692 L 104.2 77.8692 L 104.2 80.9692 L 106.2 80.9692 L 106.2 82.2 L 107.45 82.2 L 107.45 84.1 L 106.2 84.1 L 106.2 84.1769 L 104.2 84.1769 L 104.2 87.2769 L 106.2 87.2769 L 106.2 89.2 L 107.45 89.2 L 107.45 91.1 L 106.2 91.1 L 106.2 90.4846 L 104.2 90.4846 L 104.2 93.5846 L 106.2 93.5846 L 106.2 96.7923 L 104.2 96.7923 L 104.2 99.8923 L 106.2 99.8923 L 106.2 101.2 L 107.45 101.2 L 107.45 103.2 L 110.55 103.2 L 110.55 101.2 L 113.7 101.2 L 113.7 103.2 L 116.8 103.2 L 116.8 101.2 L 119.95 101.2 L 119.95 103.2 L 123.05 103.2 L 123.05 101.2 L 126.3 101.2 L 126.3 26.1 L 123.05 26.1 L 123.05 24.1 L 119.95 24.1 L 119.95 26.1 L 116.8 26.1 L 116.8 24.1 L 113.7 24.1 L 113.7 26.1 L 110.55 26.1 L 110.55 24.1 L 107.45 24.1 L 107.45 26.1 L 106.2 26.1 L 106.2 27.4077 Z M 110.55 70.2 L 113.7 70.2 L 113.7 72.1 L 110.55 72.1 L 110.55 70.2 Z M 110.55 82.2 L 113.7 82.2 L 113.7 84.1 L 110.55 84.1 L 110.55 82.2 Z M 110.55 89.2 L 113.7 89.2 L 113.7 91.1 L 110.55 91.1 L 110.55 89.2 Z M 116.8 70.2 L 119.95 70.2 L 119.95 72.1 L 116.8 72.1 L 116.8 70.2 Z M 116.8 82.2 L 119.95 82.2 L 119.95 84.1 L 116.8 84.1 L 116.8 82.2 Z M 116.8 89.2 L 119.95 89.2 L 119.95 91.1 L 116.8 91.1 L 116.8 89.2 Z M 123.05 70.2 L 126.2 70.2 L 126.2 72.1 L 123.05 72.1 L 123.05 70.2 Z M 123.05 82.2 L 126.2 82.2 L 126.2 84.1 L 123.05 84.1 L 123.05 82.2 Z M 123.05 89.2 L 126.2 89.2 L 126.2 91.1 L 123.05 91.1 L 123.05 89.2 Z"/>
    <path id="piece_005" style="fill:none;stroke:#000000;stroke-width:0.0508" d="M 24.1 4.35 L 26.1 4.35 L 26.1 7.25 L 24.1 7.25 L 24.1 10.6 L 26.1 10.6 L 26.1 13.5 L 24.1 13.5 L 24.1 16.85 L 26.1 16.85 L 26.1 19.75 L 24.1 19.75 L 24.1 21.1 L 27.4077 21.1 L 27.4077 23.1 L 30.5077 23.1 L 30.5077 21.1 L 33.7154 21.1 L 33.7154 23.1 L 36.8154 23.1 L 36.8154 21.1 L 40.0231 21.1 L 40.0231 23.1 L 43.1231 23.1 L 43.1231 21.1 L 46.3308 21.1 L 46.3308 23.1 L 49.4308 23.1 L 49.4308 21.1 L 52.6385 21.1 L 52.6385 23.1 L 55.7385 23.1 L 55.7385 21.1 L 58.9462 21.1 L 58.9462 23.1 L 62.0462 23.1 L 62.0462 21.1 L 65.2538 21.1 L 65.2538 23.1 L 68.3538 23.1 L 68.3538 21.1 L 71.5615 21.1 L 71.5615 23.1 L 74.6615 23.1 L 74.6615 21.1 L 77.8692 21.1 L 77.8692 23.1 L 80.9692 23.1 L 80.9692 21.1 L 84.1769 21.1 L 84.1769 23.1 L 87.2769 23.1 L 87.2769 21.1 L 90.4846 21.1 L 90.4846 23.1 L 93.5846 23.1 L 93.5846 21.1 L 96.7923 21.1 L 96.7923 23.1 L 99.8923 23.1 L 99.8923 21.1 L 103.2 21.1 L 103.2 19.75 L 101.2 19.75 L 101.2 16.85 L 103.2 16.85 L 103.2 13.5 L 101.2 13.5 L 101.2 10.6 L 103.2 10.6 L 103.2 7.25 L 101.2 7.25 L 101.2 4.35 L 103.2 4.35 L 103.2 1 L 24.1 1 L 24.1 4.35 Z M 36.2 10.6 L 38.1 10.6 L 38.1 13.5 L 36.2 13.5 L 36.2 10.6 Z M 36.2 16.85 L 38.1 16.85 L 38.1 19.75 L 36.2 19.75 L 36.2 16.85 Z M 36.2 4.35 L 38.1 4.35 L 38.1 7.25 L 36.2 7.25 L 36.2 4.35 Z M 43.2 10.6 L 45.1 10.6 L 45.1 13.5 L 43.2 13.5 L 43.2 10.6 Z M 43.2 16.85 L 45.1 16.85 L 45.1 19.75 L 43.2 19.75 L 43.2 16.85 Z M 43.2 4.35 L 45.1 4.35 L 45.1 7.25 L 43.2 7.25 L 43.2 4.35 Z M 62.5333 10.6 L 64.4333 10.6 L 64.4333 13.5 L 62.5333 13.5 L 62.5333 10.6 Z M 62.5333 16.85 L 64.4333 16.85 L 64.4333 19.75 L 62.5333 19.75 L 62.5333 16.85 Z M 62.5333 4.35 L 64.4333 4.35 L 64.4333 7.25 L 62.5333 7.25 L 62.5333 4.35 Z M 81.8667 10.6 L 83.7667 10.6 L 83.7667 13.5 L 81.8667 13.5 L 81.8667 10.6 Z M 81.8667 16.85 L 83.7667 16.85 L 83.7667 19.75 L 81.8667 19.75 L 81.8667 16.85 Z M 81.8667 4.35 L 83.7667 4.35 L 83.7667 7.25 L 81.8667 7.25 L 81.8667 4.35 Z"/>
  </g>
</svg>