<!-- Created with Inkscape (http://www.inkscape.org/) -->
<svg xmlns:inkscape="http://www.inkscape.org/namespaces/inkscape" xmlns:sodipodi="http://sodipodi.sourceforge.net/DTD/sodipodi-0.dtd" xmlns="http://www.w3.org/2000/svg" xmlns:svg="http://www.w3.org/2000/svg" width="165.3mm" height="186.5mm" viewBox="0 0 165.3 186.5" version="1.1" id="svg5" inkscape:version="1.1.2 (0a00cf5339, 2022-02-04)" sodipodi:docname="blank.svg">
  <sodipodi:namedview id="namedview7" pagecolor="#ffffff" bordercolor="#666666" borderopacity="1.0" inkscape:pageshadow="2" inkscape:pageopacity="0.0" inkscape:pagecheckerboard="0" inkscape:document-units="mm" showgrid="false" inkscape:zoom="0.64052329" inkscape:cx="397.33138" inkscape:cy="561.25984" inkscape:window-width="2086" inkscape:window-height="1376" inkscape:window-x="0" inkscape:window-y="0" inkscape:window-maximized="1" inkscape:current-layer="layer1"/>
  <defs id="defs2"/>
  <g inkscape:label="Layer 1" inkscape:groupmode="layer" id="layer1">
    <metadata text="createArgs=['--unit=mm', '--inside=1', '--length=50', '--width=50', '--depth=22', '--thickness=2', '--style=1', '--boxtype=2', '--tab=3', '--div_l=3', '--div_w=4', '--div_l_spacing=10;5;10', '--div_w_spacing=10;5', '--spacing=1', '--keydiv=0', '--hairline=1', '--kerf=0.1']"/>
    <path id="piece_001" style="fill:none;stroke:#000000;stroke-width:0.0508" d="M 26.1 85.025 L 28.1 85.025 L 28.1 87.925 L 26.1 87.925 L 26.1 91.8 L 28.1 91.8 L 28.1 94.7 L 26.1 94.7 L 26.1 98.575 L 28.1 98.575 L 28.1 101.475 L 26.1 101.475 L 26.1 105.3 L 80.2 105.3 L 80.2 101.475 L 78.2 101.475 L 78.2 98.575 L 80.2 98.575 L 80.2 94.7 L 78.2 94.7 L 78.2 91.8 L 80.2 91.8 L 80.2 87.925 L 78.2 87.925 L 78.2 85.025 L 80.2 85.025 L 80.2 83.2 L 76.9056 83.2 L 76.9056 81.2 L 73.8056 81.2 L 73.8056 83.2 L 70.5611 83.2 L 70.5611 81.2 L 67.4611 81.2 L 67.4611 83.2 L 64.2167 83.2 L 64.2167 81.2 L 61.1167 81.2 L 61.1167 83.2 L 57.8722 83.2 L 57.8722 81.2 L 54.7722 81.2 L 54.7722 83.2 L 51.5278 83.2 L 51.5278 81.2 L 48.4278 81.2 L 48.4278 83.2 L 45.1833 83.2 L 45.1833 81.2 L 42.0833 81.2 L 42.0833 83.2 L 38.8389 83.2 L 38.8389 81.2 L 35.7389 81.2 L 35.7389 83.2 L 32.4944 83.2 L 32.4944 81.2 L 29.3944 81.2 L 29.3944 83.2 L 26.1 83.2 L 26.1 85.025 Z M 39.9167 85.025 L 41.8167 85.025 L 41.8167 87.925 L 39.9167 87.925 L 39.9167 85.025 Z M 39.9167 91.8 L 41.8167 91.8 L 41.8167 94.7 L 39.9167 94.7 L 39.9167 91.8 Z M 39.9167 98.575 L 41.8167 98.575 L 41.8167 101.475 L 39.9167 101.475 L 39.9167 98.575 Z M 51.5833 85.025 L 53.4833 85.025 L 53.4833 87.925 L 51.5833 87.925 L 51.5833 85.025 Z M 51.5833 91.8 L 53.4833 91.8 L 53.4833 94.7 L 51.5833 94.7 L 51.5833 91.8 Z M 51.5833 98.575 L 53.4833 98.575 L 53.4833 101.475 L 51.5833 101.475 L 51.5833 98.575 Z M 63.25 85.025 L 65.15 85.025 L 65.15 87.925 L 63.25 87.925 L 63.25 85.025 Z M 63.25 91.8 L 65.15 91.8 L 65.15 94.7 L 63.25 94.7 L 63.25 91.8 Z M 63.25 98.575 L 65.15 98.575 L 65.15 101.475 L 63.25 101.475 L 63.25 98.575 Z M 68.25 85.025 L 70.15 85.025 L 70.15 87.925 L 68.25 87.925 L 68.25 85.025 Z M 68.25 91.8 L 70.15 91.8 L 70.15 94.7 L 68.25 94.7 L 68.25 91.8 Z M 68.25 98.575 L 70.15 98.575 L 70.15 101.475 L 68.25 101.475 L 68.25 98.575 Z"/>
    <path id="xdivider_001" style="fill:none;stroke:#000000;stroke-width:0.0508" d="M 0 110.125 L 2 110.125 L 2 113.025 L 0 113.025 L 0 116.9 L 2 116.9 L 2 119.8 L 0 119.8 L 0 123.675 L 2 123.675 L 2 126.575 L 0 126.575 L 0 130.4 L 54.1 130.4 L 54.1 126.575 L 52.1 126.575 L 52.1 123.675 L 54.1 123.675 L 54.1 119.8 L 52.1 119.8 L 52.1 116.9 L 54.1 116.9 L 54.1 113.025 L 52.1 113.025 L 52.1 110.125 L 54.1 110.125 L 54.1 108.3 L 50.8056 108.3 L 50.8056 106.3 L 47.7056 106.3 L 47.7056 108.3 L 44.4611 108.3 L 44.4611 106.3 L 44.05 106.3 L 44.05 118.3 L 42.15 118.3 L 42.15 106.3 L 41.3611 106.3 L 41.3611 108.3 L 39.05 108.3 L 39.05 118.3 L 37.15 118.3 L 37.15 106.3 L 35.0167 106.3 L 35.0167 108.3 L 31.7722 108.3 L 31.7722 106.3 L 28.6722 106.3 L 28.6722 108.3 L 27.3833 108.3 L 27.3833 118.3 L 25.4833 118.3 L 25.4833 108.3 L 25.4278 108.3 L 25.4278 106.3 L 22.3278 106.3 L 22.3278 108.3 L 19.0833 108.3 L 19.0833 106.3 L 15.9833 106.3 L 15.9833 108.3 L 15.7167 108.3 L 15.7167 118.3 L 13.8167 118.3 L 13.8167 108.3 L 12.7389 108.3 L 12.7389 106.3 L 9.63889 106.3 L 9.63889 108.3 L 6.39444 108.3 L 6.39444 106.3 L 3.29444 106.3 L 3.29444 108.3 L 0 108.3 L 0 110.125 Z"/>
    <path id="xdivider_002" style="fill:none;stroke:#000000;stroke-width:0.0508" d="M 55.1 110.125 L 57.1 110.125 L 57.1 113.025 L 55.1 113.025 L 55.1 116.9 L 57.1 116.9 L 57.1 119.8 L 55.1 119.8 L 55.1 123.675 L 57.1 123.675 L 57.1 126.575 L 55.1 126.575 L 55.1 130.4 L 109.2 130.4 L 109.2 126.575 L 107.2 126.575 L 107.2 123.675 L 109.2 123.675 L 109.2 119.8 L 107.2 119.8 L 107.2 116.9 L 109.2 116.9 L 109.2 113.025 L 107.2 113.025 L 107.2 110.125 L 109.2 110.125 L 109.2 108.3 L 105.906 108.3 L 105.906 106.3 L 102.806 106.3 L 102.806 108.3 L 99.5611 108.3 L 99.5611 106.3 L 99.15 106.3 L 99.15 118.3 L 97.25 118.3 L 97.25 106.3 L 96.4611 106.3 L 96.4611 108.3 L 94.15 108.3 L 94.15 118.3 L 92.25 118.3 L 92.25 106.3 L 90.1167 106.3 L 90.1167 108.3 L 86.8722 108.3 L 86.8722 106.3 L 83.7722 106.3 L 83.7722 108.3 L 82.4833 108.3 L 82.4833 118.3 L 80.5833 118.3 L 80.5833 108.3 L 80.5278 108.3 L 80.5278 106.3 L 77.4278 106.3 L 77.4278 108.3 L 74.1833 108.3 L 74.1833 106.3 L 71.0833 106.3 L 71.0833 108.3 L 70.8167 108.3 L 70.8167 118.3 L 68.9167 118.3 L 68.9167 108.3 L 67.8389 108.3 L 67.8389 106.3 L 64.7389 106.3 L 64.7389 108.3 L 61.4944 108.3 L 61.4944 106.3 L 58.3944 106.3 L 58.3944 108.3 L 55.1 108.3 L 55.1 110.125 Z"/>
    <path id="xdivider_003" style="fill:none;stroke:#000000;stroke-width:0.0508" d="M 110.2 110.125 L 112.2 110.125 L 112.2 113.025 L 110.2 113.025 L 110.2 116.9 L 112.2 116.9 L 112.2 119.8 L 110.2 119.8 L 110.2 123.675 L 112.2 123.675 L 112.2 126.575 L 110.2 126.575 L 110.2 130.4 L 164.3 130.4 L 164.3 126.575 L 162.3 126.575 L 162.3 123.675 L 164.3 123.675 L 164.3 119.8 L 162.3 119.8 L 162.3 116.9 L 164.3 116.9 L 164.3 113.025 L 162.3 113.025 L 162.3 110.125 L 164.3 110.125 L 164.3 108.3 L 161.006 108.3 L 161.006 106.3 L 157.906 106.3 L 157.906 108.3 L 154.661 108.3 L 154.661 106.3 L 154.25 106.3 L 154.25 118.3 L 152.35 118.3 L 152.35 106.3 L 151.561 106.3 L 151.561 108.3 L 149.25 108.3 L 149.25 118.3 L 147.35 118.3 L 147.35 106.3 L 145.217 106.3 L 145.217 108.3 L 141.972 108.3 L 141.972 106.3 L 138.872 106.3 L 138.872 108.3 L 137.583 108.3 L 137.583 118.3 L 135.683 118.3 L 135.683 108.3 L 135.628 108.3 L 135.628 106.3 L 132.528 106.3 L 132.528 108.3 L 129.283 108.3 L 129.283 106.3 L 126.183 106.3 L 126.183 108.3 L 125.917 108.3 L 125.917 118.3 L 124.017 118.3 L 124.017 108.3 L 122.939 108.3 L 122.939 106.3 L 119.839 106.3 L 119.839 108.3 L 116.594 108.3 L 116.594 106.3 L 113.494 106.3 L 113.494 108.3 L 110.2 108.3 L 110.2 110.125 Z"/>
    <path id="piece_002" style="fill:none;stroke:#000000;stroke-width:0.0508" d="M 1 36.15 L 4.725 36.15 L 4.725 38.05 L 1 38.05 L 1 41.15 L 4.725 41.15 L 4.725 43.05 L 1 43.05 L 1 51.15 L 4.725 51.15 L 4.725 53.05 L 1 53.05 L 1 78.2 L 4.725 78.2 L 4.725 80.2 L 7.825 80.2 L 7.825 78.2 L 11.5 78.2 L 11.5 80.2 L 14.6 80.2 L 14.6 78.2 L 18.275 78.2 L 18.275 80.2 L 21.375 80.2 L 21.375 78.2 L 23.1 78.2 L 23.1 76.9056 L 25.1 76.9056 L 25.1 73.8056 L 23.1 73.8056 L 23.1 70.5611 L 25.1 70.5611 L 25.1 67.4611 L 23.1 67.4611 L 23.1 64.2167 L 25.1 64.2167 L 25.1 61.1167 L 23.1 61.1167 L 23.1 57.8722 L 25.1 57.8722 L 25.1 54.7722 L 23.1 54.7722 L 23.1 53.05 L 21.375 53.05 L 21.375 51.15 L 25.1 51.15 L 25.1 48.4278 L 23.1 48.4278 L 23.1 45.1833 L 25.1 45.1833 L 25.1 43.05 L 21.375 43.05 L 21.375 41.15 L 23.1 41.15 L 23.1 38.8389 L 25.1 38.8389 L 25.1 38.05 L 21.375 38.05 L 21.375 36.15 L 25.1 36.15 L 25.1 35.7389 L 23.1 35.7389 L 23.1 32.4944 L 25.1 32.4944 L 25.1 29.3944 L 23.1 29.3944 L 23.1 28.1 L 21.375 28.1 L 21.375 26.1 L 18.275 26.1 L 18.275 28.1 L 14.6 28.1 L 14.6 26.1 L 11.5 26.1 L 11.5 28.1 L 7.825 28.1 L 7.825 26.1 L 4.725 26.1 L 4.725 28.1 L 1 28.1 L 1 36.15 Z M 14.6 36.15 L 18.275 36.15 L 18.275 38.05 L 14.6 38.05 L 14.6 36.15 Z M 14.6 41.15 L 18.275 41.15 L 18.275 43.05 L 14.6 43.05 L 14.6 41.15 Z M 14.6 51.15 L 18.275 51.15 L 18.275 53.05 L 14.6 53.05 L 14.6 51.15 Z M 7.825 36.15 L 11.5 36.15 L 11.5 38.05 L 7.825 38.05 L 7.825 36.15 Z M 7.825 41.15 L 11.5 41.15 L 11.5 43.05 L 7.825 43.05 L 7.825 41.15 Z M 7.825 51.15 L 11.5 51.15 L 11.5 53.05 L 7.825 53.05 L 7.825 51.15 Z"/>
    <path id="ydivider_001" style="fill:none;stroke:#000000;stroke-width:0.0508" d="M 0 141.45 L 12.1 141.45 L 12.1 143.35 L 0 143.35 L 0 146.45 L 12.1 146.45 L 12.1 148.35 L 0 148.35 L 0 156.45 L 12.1 156.45 L 12.1 158.35 L 0 158.35 L 0 183.5 L 3.725 183.5 L 3.725 185.5 L 6.825 185.5 L 6.825 183.5 L 10.5 183.5 L 10.5 185.5 L 13.6 185.5 L 13.6 183.5 L 17.275 183.5 L 17.275 185.5 L 20.375 185.5 L 20.375 183.5 L 22.1 183.5 L 22.1 182.206 L 24.1 182.206 L 24.1 179.106 L 22.1 179.106 L 22.1 175.861 L 24.1 175.861 L 24.1 172.761 L 22.1 172.761 L 22.1 169.517 L 24.1 169.517 L 24.1 166.417 L 22.1 166.417 L 22.1 163.172 L 24.1 163.172 L 24.1 160.072 L 22.1 160.072 L 22.1 156.828 L 24.1 156.828 L 24.1 153.728 L 22.1 153.728 L 22.1 150.483 L 24.1 150.483 L 24.1 147.383 L 22.1 147.383 L 22.1 144.139 L 24.1 144.139 L 24.1 141.039 L 22.1 141.039 L 22.1 137.794 L 24.1 137.794 L 24.1 134.694 L 22.1 134.694 L 22.1 133.4 L 20.375 133.4 L 20.375 131.4 L 17.275 131.4 L 17.275 133.4 L 13.6 133.4 L 13.6 131.4 L 10.5 131.4 L 10.5 133.4 L 6.825 133.4 L 6.825 131.4 L 3.725 131.4 L 3.725 133.4 L 0 133.4 L 0 141.45 Z"/>
    <path id="ydivider_002" style="fill:none;stroke:#000000;stroke-width:0.0508" d="M 25.1 141.45 L 37.2 141.45 L 37.2 143.35 L 25.1 143.35 L 25.1 146.45 L 37.2 146.45 L 37.2 148.35 L 25.1 148.35 L 25.1 156.45 L 37.2 156.45 L 37.2 158.35 L 25.1 158.35 L 25.1 183.5 L 28.825 183.5 L 28.825 185.5 L 31.925 185.5 L 31.925 183.5 L 35.6 183.5 L 35.6 185.5 L 38.7 185.5 L 38.7 183.5 L 42.375 183.5 L 42.375 185.5 L 45.475 185.5 L 45.475 183.5 L 47.2 183.5 L 47.2 182.206 L 49.2 182.206 L 49.2 179.106 L 47.2 179.106 L 47.2 175.861 L 49.2 175.861 L 49.2 172.761 L 47.2 172.761 L 47.2 169.517 L 49.2 169.517 L 49.2 166.417 L 47.2 166.417 L 47.2 163.172 L 49.2 163.172 L 49.2 160.072 L 47.2 160.072 L 47.2 156.828 L 49.2 156.828 L 49.2 153.728 L 47.2 153.728 L 47.2 150.483 L 49.2 150.483 L 49.2 147.383 L 47.2 147.383 L 47.2 144.139 L 49.2 144.139 L 49.2 141.039 L 47.2 141.039 L 47.2 137.794 L 49.2 137.794 L 49.2 134.694 L 47.2 134.694 L 47.2 133.4 L 45.475 133.4 L 45.475 131.4 L 42.375 131.4 L 42.375 133.4 L 38.7 133.4 L 38.7 131.4 L 35.6 131.4 L 35.6 133.4 L 31.925 133.4 L 31.925 131.4 L 28.825 131.4 L 28.825 133.4 L 25.1 133.4 L 25.1 141.45 Z"/>
    <path id="ydivider_003" style="fill:none;stroke:#000000;stroke-width:0.0508" d="M 50.2 141.45 L 62.3 141.45 L 62.3 143.35 L 50.2 143.35 L 50.2 146.45 L 62.3 146.45 L 62.3 148.35 L 50.2 148.35 L 50.2 156.45 L 62.3 156.45 L 62.3 158.35 L 50.2 158.35 L 50.2 183.5 L 53.925 183.5 L 53.925 185.5 L 57.025 185.5 L 57.025 183.5 L 60.7 183.5 L 60.7 185.5 L 63.8 185.5 L 63.8 183.5 L 67.475 183.5 L 67.475 185.5 L 70.575 185.5 L 70.575 183.5 L 72.3 183.5 L 72.3 182.206 L 74.3 182.206 L 74.3 179.106 L 72.3 179.106 L 72.3 175.861 L 74.3 175.861 L 74.3 172.761 L 72.3 172.761 L 72.3 169.517 L 74.3 169.517 L 74.3 166.417 L 72.3 166.417 L 72.3 163.172 L 74.3 163.172 L 74.3 160.072 L 72.3 160.072 L 72.3 156.828 L 74.3 156.828 L 74.3 153.728 L 72.3 153.728 L 72.3 150.483 L 74.3 150.483 L 74.3 147.383 L 72.3 147.383 L 72.3 144.139 L 74.3 144.139 L 74.3 141.039 L 72.3 141.039 L 72.3 137.794 L 74.3 137.794 L 74.3 134.694 L 72.3 134.694 L 72.3 133.4 L 70.575 133.4 L 70.575 131.4 L 67.475 131.4 L 67.475 133.4 L 63.8 133.4 L 63.8 131.4 L 60.7 131.4 L 60.7 133.4 L 57.025 133.4 L 57.025 131.4 L 53.925 131.4 L 53.925 133.4 L 50.2 133.4 L 50.2 141.45 Z"/>
    <path id="ydivider_004" style="fill:none;stroke:#000000;stroke-width:0.0508" d="M 75.3 141.45 L 87.4 141.45 L 87.4 143.35 L 75.3 143.35 L 75.3 146.45 L 87.4 146.45 L 87.4 148.35 L 75.3 148.35 L 75.3 156.45 L 87.4 156.45 L 87.4 158.35 L 75.3 158.35 L 75.3 183.5 L 79.025 183.5 L 79.025 185.5 L 82.125 185.5 L 82.125 183.5 L 85.8 183.5 L 85.8 185.5 L 88.9 185.5 L 88.9 183.5 L 92.575 183.5 L 92.575 185.5 L 95.675 185.5 L 95.675 183.5 L 97.4 183.5 L 97.4 182.206 L 99.4 182.206 L 99.4 179.106 L 97.4 179.106 L 97.4 175.861 L 99.4 175.861 L 99.4 172.761 L 97.4 172.761 L 97.4 169.517 L 99.4 169.517 L 99.4 166.417 L 97.4 166.417 L 97.4 163.172 L 99.4 163.172 L 99.4 160.072 L 97.4 160.072 L 97.4 156.828 L 99.4 156.828 L 99.4 153.728 L 97.4 153.728 L 97.4 150.483 L 99.4 150.483 L 99.4 147.383 L 97.4 147.383 L 97.4 144.139 L 99.4 144.139 L 99.4 141.039 L 97.4 141.039 L 97.4 137.794 L 99.4 137.794 L 99.4 134.694 L 97.4 134.694 L 97.4 133.4 L 95.675 133.4 L 95.675 131.4 L 92.575 131.4 L 92.575 133.4 L 88.9 133.4 L 88.9 131.4 L 85.8 131.4 L 85.8 133.4 L 82.125 133.4 L 82.125 131.4 L 79.025 131.4 L 79.025 133.4 L 75.3 133.4 L 75.3 141.45 Z"/>
    <path id="piece_003" style="fill:none;stroke:#000000;stroke-width:0.0508" d="M 26.1 29.4944 L 28.1 29.4944 L 28.1 32.3944 L 26.1 32.3944 L 26.1 35.8389 L 28.1 35.8389 L 28.1 38.7389 L 26.1 38.7389 L 26.1 42.1833 L 28.1 42.1833 L 28.1 45.0833 L 26.1 45.0833 L 26.1 48.5278 L 28.1 48.5278 L 28.1 51.4278 L 26.1 51.4278 L 26.1 54.8722 L 28.1 54.8722 L 28.1 57.7722 L 26.1 57.7722 L 26.1 61.2167 L 28.1 61.2167 L 28.1 64.1167 L 26.1 64.1167 L 26.1 67.5611 L 28.1 67.5611 L 28.1 70.4611 L 26.1 70.4611 L 26.1 73.9056 L 28.1 73.9056 L 28.1 76.8056 L 26.1 76.8056 L 26.1 80.2 L 29.4944 80.2 L 29.4944 78.2 L 32.3944 78.2 L 32.3944 80.2 L 35.8389 80.2 L 35.8389 78.2 L 38.7389 78.2 L 38.7389 80.2 L 42.1833 80.2 L 42.1833 78.2 L 45.0833 78.2 L 45.0833 80.2 L 48.5278 80.2 L 48.5278 78.2 L 51.4278 78.2 L 51.4278 80.2 L 54.8722 80.2 L 54.8722 78.2 L 57.7722 78.2 L 57.7722 80.2 L 61.2167 80.2 L 61.2167 78.2 L 64.1167 78.2 L 64.1167 80.2 L 67.5611 80.2 L 67.5611 78.2 L 70.4611 78.2 L 70.4611 80.2 L 73.9056 80.2 L 73.9056 78.2 L 76.8056 78.2 L 76.8056 80.2 L 80.2 80.2 L 80.2 76.8056 L 78.2 76.8056 L 78.2 73.9056 L 80.2 73.9056 L 80.2 70.4611 L 78.2 70.4611 L 78.2 67.5611 L 80.2 67.5611 L 80.2 64.1167 L 78.2 64.1167 L 78.2 61.2167 L 80.2 61.2167 L 80.2 57.7722 L 78.2 57.7722 L 78.2 54.8722 L 80.2 54.8722 L 80.2 51.4278 L 78.2 51.4278 L 78.2 48.5278 L 80.2 48.5278 L 80.2 45.0833 L 78.2 45.0833 L 78.2 42.1833 L 80.2 42.1833 L 80.2 38.7389 L 78.2 38.7389 L 78.2 35.8389 L 80.2 35.8389 L 80.2 32.3944 L 78.2 32.3944 L 78.2 29.4944 L 80.2 29.4944 L 80.2 26.1 L 76.8056 26.1 L 76.8056 28.1 L 73.9056 28.1 L 73.9056 26.1 L 70.4611 26.1 L 70.4611 28.1 L 67.5611 28.1 L 67.5611 26.1 L 64.1167 26.1 L 64.1167 28.1 L 61.2167 28.1 L 61.2167 26.1 L 57.7722 26.1 L 57.7722 28.1 L 54.8722 28.1 L 54.8722 26.1 L 51.4278 26.1 L 51.4278 28.1 L 48.5278 28.1 L 48.5278 26.1 L 45.0833 26.1 L 45.0833 28.1 L 42.1833 28.1 L 42.1833 26.1 L 38.7389 26.1 L 38.7389 28.1 L 35.8389 28.1 L 35.8389 26.1 L 32.3944 26.1 L 32.3944 28.1 L 29.4944 28.1 L 29.4944 26.1 L 26.1 26.1 L 26.1 29.4944 Z M 29.4944 36.15 L 32.3944 36.15 L 32.3944 38.05 L 29.4944 38.05 L 29.4944 36.15 Z M 29.4944 41.15 L 32.3944 41.15 L 32.3944 43.05 L 29.4944 43.05 L 29.4944 41.15 Z M 29.4944 51.15 L 32.3944 51.15 L 32.3944 53.05 L 29.4944 53.05 L 29.4944 51.15 Z M 35.8389 36.15 L 38.7389 36.15 L 38.7389 38.05 L 35.8389 38.05 L 35.8389 36.15 Z M 35.8389 41.15 L 38.7389 41.15 L 38.7389 43.05 L 35.8389 43.05 L 35.8389 41.15 Z M 35.8389 51.15 L 38.7389 51.15 L 38.7389 53.05 L 35.8389 53.05 L 35.8389 51.15 Z M 39.9167 29.4944 L 41.8167 29.4944 L 41.8167 32.3944 L 39.9167 32.3944 L 39.9167 29.4944 Z M 39.9167 35.8389 L 41.8167 35.8389 L 41.8167 38.7389 L 39.9167 38.7389 L 39.9167 35.8389 Z M 39.9167 42.1833 L 41.8167 42.1833 L 41.8167 45.0833 L 39.9167 45.0833 L 39.9167 42.1833 Z M 39.9167 48.5278 L 41.8167 48.5278 L 41.8167 51.4278 L 39.9167 51.4278 L 39.9167 48.5278 Z M 39.9167 54.8722 L 41.8167 54.8722 L 41.8167 57.7722 L 39.9167 57.7722 L 39.9167 54.8722 Z M 39.9167 61.2167 L 41.8167 61.2167 L 41.8167 64.1167 L 39.9167 64.1167 L 39.9167 61.2167 Z M 39.9167 67.5611 L 41.8167 67.5611 L 41.8167 70.4611 L 39.9167 70.4611 L 39.9167 67.5611 Z M 39.9167 73.9056 L 41.8167 73.9056 L 41.8167 76.8056 L 39.9167 76.8056 L 39.9167 73.9056 Z M 42.1833 36.15 L 45.0833 36.15 L 45.0833 38.05 L 42.1833 38.05 L 42.1833 36.15 Z M 42.1833 41.15 L 45.0833 41.15 L 45.0833 43.05 L 42.1833 43.05 L 42.1833 41.15 Z M 42.1833 51.15 L 45.0833 51.15 L 45.0833 53.05 L 42.1833 53.05 L 42.1833 51.15 Z M 48.5278 36.15 L 51.4278 36.15 L 51.4278 38.05 L 48.5278 38.05 L 48.5278 36.15 Z M 48.5278 41.15 L 51.4278 41.15 L 51.4278 43.05 L 48.5278 43.05 L 48.5278 41.15 Z M 48.5278 51.15 L 51.4278 51.15 L 51.4278 53.05 L 48.5278 53.05 L 48.5278 51.15 Z M 51.5833 29.4944 L 53.4833 29.4944 L 53.4833 32.3944 L 51.5833 32.3944 L 51.5833 29.4944 Z M 51.5833 35.8389 L 53.4833 35.8389 L 53.4833 38.7389 L 51.5833 38.7389 L 51.5833 35.8389 Z M 51.5833 42.1833 L 53.4833 42.1833 L 53.4833 45.0833 L 51.5833 45.0833 L 51.5833 42.1833 Z M 51.5833 48.5278 L 53.4833 48.5278 L 53.4833 51.4278 L 51.5833 51.4278 L 51.5833 48.5278 Z M 51.5833 54.8722 L 53.4833 54.8722 L 53.4833 57.7722 L 51.5833 57.7722 L 51.5833 54.8722 Z M 51.5833 61.2167 L 53.4833 61.2167 L 53.4833 64.1167 L 51.5833 64.1167 L 51.5833 61.2167 Z M 51.5833 67.5611 L 53.4833 67.5611 L 53.4833 70.4611 L 51.5833 70.4611 L 51.5833 67.5611 Z M 51.5833 73.9056 L 53.4833 73.9056 L 53.4833 76.8056 L 51.5833 76.8056 L 51.5833 73.9056 Z M 54.8722 36.15 L 57.7722 36.15 L 57.7722 38.05 L 54.8722 38.05 L 54.8722 36.15 Z M 54.8722 41.15 L 57.7722 41.15 L 57.7722 43.05 L 54.8722 43.05 L 54.8722 41.15 Z M 54.8722 51.15 L 57.7722 51.15 L 57.7722 53.05 L 54.8722 53.05 L 54.8722 51.15 Z M 61.2167 36.15 L 63.25 36.15 L 63.25 35.8389 L 65.15 35.8389 L 65.15 38.7389 L 63.25 38.7389 L 63.25 38.05 L 61.2167 38.05 L 61.2167 36.15 Z M 61.2167 41.15 L 64.1167 41.15 L 64.1167 42.1833 L 65.15 42.1833 L 65.15 45.0833 L 63.25 45.0833 L 63.25 43.05 L 61.2167 43.05 L 61.2167 41.15 Z M 61.2167 51.15 L 63.25 51.15 L 63.25 48.5278 L 65.15 48.5278 L 65.15 51.4278 L 64.1167 51.4278 L 64.1167 53.05 L 61.2167 53.05 L 61.2167 51.15 Z M 63.25 29.4944 L 65.15 29.4944 L 65.15 32.3944 L 63.25 32.3944 L 63.25 29.4944 Z M 63.25 54.8722 L 65.15 54.8722 L 65.15 57.7722 L 63.25 57.7722 L 63.25 54.8722 Z M 63.25 61.2167 L 65.15 61.2167 L 65.15 64.1167 L 63.25 64.1167 L 63.25 61.2167 Z M 63.25 67.5611 L 65.15 67.5611 L 65.15 70.4611 L 63.25 70.4611 L 63.25 67.5611 Z M 63.25 73.9056 L 65.15 73.9056 L 65.15 76.8056 L 63.25 76.8056 L 63.25 73.9056 Z M 67.5611 36.15 L 68.25 36.15 L 68.25 35.8389 L 70.15 35.8389 L 70.15 36.15 L 70.4611 36.15 L 70.4611 38.05 L 70.15 38.05 L 70.15 38.7389 L 68.25 38.7389 L 68.25 38.05 L 67.5611 38.05 L 67.5611 36.15 Z M 67.5611 41.15 L 70.4611 41.15 L 70.4611 43.05 L 70.15 43.05 L 70.15 45.0833 L 68.25 45.0833 L 68.25 43.05 L 67.5611 43.05 L 67.5611 41.15 Z M 67.5611 51.15 L 68.25 51.15 L 68.25 48.5278 L 70.15 48.5278 L 70.15 51.15 L 70.4611 51.15 L 70.4611 53.05 L 67.5611 53.05 L 67.5611 51.15 Z M 68.25 29.4944 L 70.15 29.4944 L 70.15 32.3944 L 68.25 32.3944 L 68.25 29.4944 Z M 68.25 54.8722 L 70.15 54.8722 L 70.15 57.7722 L 68.25 57.7722 L 68.25 54.8722 Z M 68.25 61.2167 L 70.15 61.2167 L 70.15 64.1167 L 68.25 64.1167 L 68.25 61.2167 Z M 68.25 67.5611 L 70.15 67.5611 L 70.15 70.4611 L 68.25 70.4611 L 68.25 67.5611 Z M 68.25 73.9056 L 70.15 73.9056 L 70.15 76.8056 L 68.25 76.8056 L 68.25 73.9056 Z M 73.9056 36.15 L 76.8056 36.15 L 76.8056 38.05 L 73.9056 38.05 L 73.9056 36.15 Z M 73.9056 41.15 L 76.8056 41.15 L 76.8056 43.05 L 73.9056 43.05 L 73.9056 41.15 Z M 73.9056 51.15 L 76.8056 51.15 L 76.8056 53.05 L 73.9056 53.05 L 73.9056 51.15 Z"/>
    <path id="piece_004" style="fill:none;stroke:#000000;stroke-width:0.0508" d="M 83.2 29.3944 L 81.2 29.3944 L 81.2 32.4944 L 83.2 32.4944 L 83.2 35.7389 L 81.2 35.7389 L 81.2 38.8389 L 83.2 38.8389 L 83.2 41.15 L 84.925 41.15 L 84.925 43.05 L 83.2 43.05 L 83.2 42.0833 L 81.2 42.0833 L 81.2 45.1833 L 83.2 45.1833 L 83.2 48.4278 L 81.2 48.4278 L 81.2 51.5278 L 83.2 51.5278 L 83.2 51.15 L 84.925 51.15 L 84.925 53.05 L 83.2 53.05 L 83.2 54.7722 L 81.2 54.7722 L 81.2 57.8722 L 83.2 57.8722 L 83.2 61.1167 L 81.2 61.1167 L 81.2 64.2167 L 83.2 64.2167 L 83.2 67.4611 L 81.2 67.4611 L 81.2 70.5611 L 83.2 70.5611 L 83.2 73.8056 L 81.2 73.8056 L 81.2 76.9056 L 83.2 76.9056 L 83.2 78.2 L 84.925 78.2 L 84.925 80.2 L 88.025 80.2 L 88.025 78.2 L 91.7 78.2 L 91.7 80.2 L 94.8 80.2 L 94.8 78.2 L 98.475 78.2 L 98.475 80.2 L 101.575 80.2 L 101.575 78.2 L 105.3 78.2 L 105.3 28.1 L 101.575 28.1 L 101.575 26.1 L 98.475 26.1 L 98.475 28.1 L 94.8 28.1 L 94.8 26.1 L 91.7 26.1 L 91.7 28.1 L 88.025 28.1 L 88.025 26.1 L 84.925 26.1 L 84.925 28.1 L 83.2 28.1 L 83.2 29.3944 Z M 101.575 36.15 L 103.3 36.15 L 103.3 38.05 L 101.575 38.05 L 101.575 36.15 Z M 101.575 41.15 L 103.3 41.15 L 103.3 43.05 L 101.575 43.05 L 101.575 41.15 Z M 101.575 51.15 L 103.3 51.15 L 103.3 53.05 L 101.575 53.05 L 101.575 51.15 Z M 83.2 36.15 L 84.925 36.15 L 84.925 38.05 L 83.2 38.05 L 83.2 36.15 Z M 88.025 36.15 L 91.7 36.15 L 91.7 38.05 L 88.025 38.05 L 88.025 36.15 Z M 88.025 41.15 L 91.7 41.15 L 91.7 43.05 L 88.025 43.05 L 88.025 41.15 Z M 88.025 51.15 L 91.7 51.15 L 91.7 53.05 L 88.025 53.05 L 88.025 51.15 Z M 94.8 36.15 L 98.475 36.15 L 98.475 38.05 L 94.8 38.05 L 94.8 36.15 Z M 94.8 41.15 L 98.475 41.15 L 98.475 43.05 L 94.8 43.05 L 94.8 41.15 Z M 94.8 51.15 L 98.475 51.15 L 98.475 53.05 L 94.8 53.05 L 94.8 51.15 Z"/>
    <path id="piece_005" style="fill:none;stroke:#000000;stroke-width:0.0508" d="M 26.1 4.825 L 28.1 4.825 L 28.1 7.725 L 26.1 7.725 L 26.1 11.6 L 28.1 11.6 L 28.1 14.5 L 26.1 14.5 L 26.1 18.375 L 28.1 18.375 L 28.1 21.275 L 26.1 21.275 L 26.1 23.1 L 29.3944 23.1 L 29.3944 25.1 L 32.4944 25.1 L 32.4944 23.1 L 35.7389 23.1 L 35.7389 25.1 L 38.8389 25.1 L 38.8389 23.1 L 42.0833 23.1 L 42.0833 25.1 L 45.1833 25.1 L 45.1833 23.1 L 48.4278 23.1 L 48.4278 25.1 L 51.5278 25.1 L 51.5278 23.1 L 54.7722 23.1 L 54.7722 25.1 L 57.8722 25.1 L 57.8722 23.1 L 61.1167 23.1 L 61.1167 25.1 L 64.2167 25.1 L 64.2167 23.1 L 67.4611 23.1 L 67.4611 25.1 L 70.5611 25.1 L 70.5611 23.1 L 73.8056 23.1 L 73.8056 25.1 L 76.9056 25.1 L 76.9056 23.1 L 80.2 23.1 L 80.2 21.275 L 78.2 21.275 L 78.2 18.375 L 80.2 18.375 L 80.2 14.5 L 78.2 14.5 L 78.2 11.6 L 80.2 11.6 L 80.2 7.725 L 78.2 7.725 L 78.2 4.825 L 80.2 4.825 L 80.2 1 L 26.1 1 L 26.1 4.825 Z M 39.9167 11.6 L 41.8167 11.6 L 41.8167 14.5 L 39.9167 14.5 L 39.9167 11.6 Z M 39.9167 18.375 L 41.8167 18.375 L 41.8167 21.275 L 39.9167 21.275 L 39.9167 18.375 Z M 39.9167 4.825 L 41.8167 4.825 L 41.8167 7.725 L 39.9167 7.725 L 39.9167 4.825 Z M 51.5833 11.6 L 53.4833 11.6 L 53.4833 14.5 L 51.5833 14.5 L 51.5833 11.6 Z M 51.5833 18.375 L 53.4833 18.375 L 53.4833 21.275 L 51.5833 21.275 L 51.5833 18.375 Z M 51.5833 4.825 L 53.4833 4.825 L 53.4833 7.725 L 51.5833 7.725 L 51.5833 4.825 Z M 63.25 11.6 L 65.15 11.6 L 65.15 14.5 L 63.25 14.5 L 63.25 11.6 Z M 63.25 18.375 L 65.15 18.375 L 65.15 21.275 L 63.25 21.275 L 63.25 18.375 Z M 63.25 4.825 L 65.15 4.825 L 65.15 7.725 L 63.25 7.725 L 63.25 4.825 Z M 68.25 11.6 L 70.15 11.6 L 70.15 14.5 L 68.25 14.5 L 68.25 11.6 Z M 68.25 18.375 L 70.15 18.375 L 70.15 21.275 L 68.25 21.275 L 68.25 18.375 Z M 68.25 4.825 L 70.15 4.825 L 70.15 7.725 L 68.25 7.725 L 68.25 4.825 Z"/>
  </g>
</svg>