<!-- Created with Inkscape (http://www.inkscape.org/) -->
<svg xmlns:inkscape="http://www.inkscape.org/namespaces/inkscape" xmlns:sodipodi="http://sodipodi.sourceforge.net/DTD/sodipodi-0.dtd" xmlns="http://www.w3.org/2000/svg" xmlns:svg="http://www.w3.org/2000/svg" width="165.3mm" height="186.5mm" viewBox="0 0 165.3 186.5" version="1.1" id="svg5" inkscape:version="1.1.2 (0a00cf5339, 2022-02-04)" sodipodi:docname="blank.svg">
  <sodipodi:namedview id="namedview7" pagecolor="#ffffff" bordercolor="#666666" borderopacity="1.0" inkscape:pageshadow="2" inkscape:pageopacity="0.0" inkscape:pagecheckerboard="0" inkscape:document-units="mm" showgrid="false" inkscape:zoom="0.64052329" inkscape:cx="397.33138" inkscape:cy="561.25984" inkscape:window-width="2086" inkscape:window-height="1376" inkscape:window-x="0" inkscape:window-y="0" inkscape:window-maximized="1" inkscape:current-layer="layer1"/>
  <defs id="defs2"/>
  <g inkscape:label="Layer 1" inkscape:groupmode="layer" id="layer1">
    <metadata text="createArgs=['--unit=mm', '--inside=1', '--length=50', '--width=50', '--depth=22', '--thickness=2', '--style=1', '--boxtype=2', '--tab=3', '--div_l=3', '--div_w=4', '--div_l_spacing=10;5;10', '--div_w_spacing=10;5', '--spacing=1', '--keydiv=0', '--hairline=1', '--kerf=0.1']"/>
    <g id="piece_001">
      <path id="side_001" style="fill:none;stroke:#000000;stroke-width:0.0508" d="m 26.1 83.2 l 3.2944 0 l 0 -2 l 3.1 0 l 0 2 l 3.2445 0 l 0 -2 l 3.1 0 l 0 2 l 3.2444 0 l 0 -2 l 3.1 0 l 0 2 l 3.2445 0 l 0 -2 l 3.1 0 l 0 2 l 3.2444 0 l 0 -2 l 3.1 0 l 0 2 l 3.2445 0 l 0 -2 l 3.1 0 l 0 2 l 3.2444 0 l 0 -2 l 3.1 0 l 0 2 l 3.2445 0 l 0 -2 l 3.1 0 l 0 2 l 3.2944 0"/>
      <path id="side_002" style="fill:none;stroke:#000000;stroke-width:0.0508" d="m 80.2 83.2 l 0 1.825 l -2 0 l 0 2.9 l 2 0 l 0 3.875 l -2 0 l 0 2.9 l 2 0 l 0 3.875 l -2 0 l 0 2.9 l 2 0 l 0 1.825"/>
      <path id="hole_001" style="fill:none;stroke:#000000;stroke-width:0.0508" d="m 68.25 85.025 l 0 2.9 l 1.9 0 l 0 -2.9 l -1.9 0 z"/>
      <path id="hole_002" style="fill:none;stroke:#000000;stroke-width:0.0508" d="m 63.25 85.025 l 0 2.9 l 1.9 0 l 0 -2.9 l -1.9 0 z"/>
      <path id="hole_003" style="fill:none;stroke:#000000;stroke-width:0.0508" d="m 51.5833 85.025 l 0 2.9 l 1.9 0 l 0 -2.9 l -1.9 0 z"/>
      <path id="hole_004" style="fill:none;stroke:#000000;stroke-width:0.0508" d="m 39.9167 85.025 l 0 2.9 l 1.9 0 l 0 -2.9 l -1.9 0 z"/>
      <path id="hole_005" style="fill:none;stroke:#000000;stroke-width:0.0508" d="m 68.25 91.8 l 0 2.9 l 1.9 0 l 0 -2.9 l -1.9 0 z"/>
      <path id="hole_006" style="fill:none;stroke:#000000;stroke-width:0.0508" d="m 63.25 91.8 l 0 2.9 l 1.9 0 l 0 -2.9 l -1.9 0 z"/>
      <path id="hole_007" style="fill:none;stroke:#000000;stroke-width:0.0508" d="m 51.5833 91.8 l 0 2.9 l 1.9 0 l 0 -2.9 l -1.9 0 z"/>
      <path id="hole_008" style="fill:none;stroke:#000000;stroke-width:0.0508" d="m 39.9167 91.8 l 0 2.9 l 1.9 0 l 0 -2.9 l -1.9 0 z"/>
      <path id="hole_009" style="fill:none;stroke:#000000;stroke-width:0.0508" d="m 68.25 98.575 l 0 2.9 l 1.9 0 l 0 -2.9 l -1.9 0 z"/>
      <path id="hole_010" style="fill:none;stroke:#000000;stroke-width:0.0508" d="m 63.25 98.575 l 0 2.9 l 1.9 0 l 0 -2.9 l -1.9 0 z"/>
      <path id="hole_011" style="fill:none;stroke:#000000;stroke-width:0.0508" d="m 51.5833 98.575 l 0 2.9 l 1.9 0 l 0 -2.9 l -1.9 0 z"/>
      <path id="hole_012" style="fill:none;stroke:#000000;stroke-width:0.0508" d="m 39.9167 98.575 l 0 2.9 l 1.9 0 l 0 -2.9 l -1.9 0 z"/>
      <path id="side_003" style="fill:none;stroke:#000000;stroke-width:0.0508" d="m 80.2 103.3 l -3.2944 0 l 0 0 l -3.1 0 l 0 0 l -3.2445 0 l 0 0 l -3.1 0 l 0 0 l -3.2444 0 l 0 0 l -3.1 0 l 0 0 l -3.2445 0 l 0 0 l -3.1 0 l 0 0 l -3.2444 0 l 0 0 l -3.1 0 l 0 0 l -3.2445 0 l 0 0 l -3.1 0 l 0 0 l -3.2444 0 l 0 0 l -3.1 0 l 0 0 l -3.2445 0 l 0 0 l -3.1 0 l 0 0 l -3.2944 0"/>
      <path id="side_004" style="fill:none;stroke:#000000;stroke-width:0.0508" d="m 26.1 103.3 l 0 -1.825 l 2 0 l 0 -2.9 l -2 0 l 0 -3.875 l 2 0 l 0 -2.9 l -2 0 l 0 -3.875 l 2 0 l 0 -2.9 l -2 0 l 0 -1.825"/>
    </g>
    <g id="xdivider_001">
      <path id="side_005" style="fill:none;stroke:#000000;stroke-width:0.0508" d="m 0 108.3 l 3.29444 0 l 0 -2 l 3.1 0 l 0 2 l 3.24445 0 l 0 -2 l 3.10001 0 l 0 2 l 3.2444 0 l 0 -2 l 3.1 0 l 0 2 l 3.2445 0 l 0 -2 l 3.1 0 l 0 2 l 3.2444 0 l 0 -2 l 3.1 0 l 0 2 l 3.2445 0 l 0 -2 l 3.1 0 l 0 2 l 3.2444 0 l 0 -2 l 3.1 0 l 0 2 l 3.2445 0 l 0 -2 l 3.1 0 l 0 2 l 3.2944 0"/>
      <path id="side_006" style="fill:none;stroke:#000000;stroke-width:0.0508" d="m 54.1 108.3 l 0 1.825 l -2 0 l 0 2.9 l 2 0 l 0 3.875 l -2 0 l 0 2.9 l 2 0 l 0 3.875 l -2 0 l 0 2.9 l 2 0 l 0 1.825"/>
      <path id="slot_001" style="fill:none;stroke:#000000;stroke-width:0.0508" d="m 42.15 106.3 l 0 12 l 1.9 0 l 0 -12 l -1.9 0 z"/>
      <path id="slot_002" style="fill:none;stroke:#000000;stroke-width:0.0508" d="m 37.15 106.3 l 0 12 l 1.9 0 l 0 -12 l -1.9 0 z"/>
      <path id="slot_003" style="fill:none;stroke:#000000;stroke-width:0.0508" d="m 25.4833 106.3 l 0 12 l 1.9 0 l 0 -12 l -1.9 0 z"/>
      <path id="slot_004" style="fill:none;stroke:#000000;stroke-width:0.0508" d="m 13.8167 106.3 l 0 12 l 1.9 0 l 0 -12 l -1.9 0 z"/>
      <path id="side_007" style="fill:none;stroke:#000000;stroke-width:0.0508" d="m 54.1 128.4 l -3.2944 0 l 0 0 l -3.1 0 l 0 0 l -3.2445 0 l 0 0 l -3.1 0 l 0 0 l -3.2444 0 l 0 0 l -3.1 0 l 0 0 l -3.2445 0 l 0 0 l -3.1 0 l 0 0 l -3.2444 0 l 0 0 l -3.1 0 l 0 0 l -3.2445 0 l 0 0 l -3.1 0 l 0 0 l -3.2444 0 l 0 0 l -3.1 0 l 0 0 l -3.2445 0 l 0 0 l -3.1 0 l 0 0 l -3.2944 0"/>
      <path id="side_008" style="fill:none;stroke:#000000;stroke-width:0.0508" d="m 0 128.4 l 0 -1.825 l 2 0 l 0 -2.9 l -2 0 l 0 -3.875 l 2 0 l 0 -2.9 l -2 0 l 0 -3.875 l 2 0 l 0 -2.9 l -2 0 l 0 -1.825"/>
    </g>
    <g id="xdivider_002">
      <path id="side_009" style="fill:none;stroke:#000000;stroke-width:0.0508" d="m 55.1 108.3 l 3.2944 0 l 0 -2 l 3.1 0 l 0 2 l 3.2445 0 l 0 -2 l 3.1 0 l 0 2 l 3.2444 0 l 0 -2 l 3.1 0 l 0 2 l 3.2445 0 l 0 -2 l 3.1 0 l 0 2 l 3.2444 0 l 0 -2 l 3.1 0 l 0 2 l 3.2445 0 l 0 -2 l 3.1 0 l 0 2 l 3.2444 0 l 0 -2 l 3.1 0 l 0 2 l 3.2449 0 l 0 -2 l 3.1 0 l 0 2 l 3.294 0"/>
      <path id="side_010" style="fill:none;stroke:#000000;stroke-width:0.0508" d="m 109.2 108.3 l 0 1.825 l -2 0 l 0 2.9 l 2 0 l 0 3.875 l -2 0 l 0 2.9 l 2 0 l 0 3.875 l -2 0 l 0 2.9 l 2 0 l 0 1.825"/>
      <path id="slot_005" style="fill:none;stroke:#000000;stroke-width:0.0508" d="m 97.25 106.3 l 0 12 l 1.9 0 l 0 -12 l -1.9 0 z"/>
      <path id="slot_006" style="fill:none;stroke:#000000;stroke-width:0.0508" d="m 92.25 106.3 l 0 12 l 1.9 0 l 0 -12 l -1.9 0 z"/>
      <path id="slot_007" style="fill:none;stroke:#000000;stroke-width:0.0508" d="m 80.5833 106.3 l 0 12 l 1.9 0 l 0 -12 l -1.9 0 z"/>
      <path id="slot_008" style="fill:none;stroke:#000000;stroke-width:0.0508" d="m 68.9167 106.3 l 0 12 l 1.9 0 l 0 -12 l -1.9 0 z"/>
      <path id="side_011" style="fill:none;stroke:#000000;stroke-width:0.0508" d="m 109.2 128.4 l -3.294 0 l 0 0 l -3.1 0 l 0 0 l -3.2449 0 l 0 0 l -3.1 0 l 0 0 l -3.2444 0 l 0 0 l -3.1 0 l 0 0 l -3.2445 0 l 0 0 l -3.1 0 l 0 0 l -3.2444 0 l 0 0 l -3.1 0 l 0 0 l -3.2445 0 l 0 0 l -3.1 0 l 0 0 l -3.2444 0 l 0 0 l -3.1 0 l 0 0 l -3.2445 0 l 0 0 l -3.1 0 l 0 0 l -3.2944 0"/>
      <path id="side_012" style="fill:none;stroke:#000000;stroke-width:0.0508" d="m 55.1 128.4 l 0 -1.825 l 2 0 l 0 -2.9 l -2 0 l 0 -3.875 l 2 0 l 0 -2.9 l -2 0 l 0 -3.875 l 2 0 l 0 -2.9 l -2 0 l 0 -1.825"/>
    </g>
    <g id="xdivider_003">
      <path id="side_013" style="fill:none;stroke:#000000;stroke-width:0.0508" d="m 110.2 108.3 l 3.294 0 l 0 -2 l 3.1 0 l 0 2 l 3.245 0 l 0 -2 l 3.1 0 l 0 2 l 3.244 0 l 0 -2 l 3.1 0 l 0 2 l 3.245 0 l 0 -2 l 3.1 0 l 0 2 l 3.244 0 l 0 -2 l 3.1 0 l 0 2 l 3.245 0 l 0 -2 l 3.1 0 l 0 2 l 3.244 0 l 0 -2 l 3.1 0 l 0 2 l 3.245 0 l 0 -2 l 3.1 0 l 0 2 l 3.294 0"/>
      <path id="side_014" style="fill:none;stroke:#000000;stroke-width:0.0508" d="m 164.3 108.3 l 0 1.825 l -2 0 l 0 2.9 l 2 0 l 0 3.875 l -2 0 l 0 2.9 l 2 0 l 0 3.875 l -2 0 l 0 2.9 l 2 0 l 0 1.825"/>
      <path id="slot_009" style="fill:none;stroke:#000000;stroke-width:0.0508" d="m 152.35 106.3 l 0 12 l 1.9 0 l 0 -12 l -1.9 0 z"/>
      <path id="slot_010" style="fill:none;stroke:#000000;stroke-width:0.0508" d="m 147.35 106.3 l 0 12 l 1.9 0 l 0 -12 l -1.9 0 z"/>
      <path id="slot_011" style="fill:none;stroke:#000000;stroke-width:0.0508" d="m 135.683 106.3 l 0 12 l 1.9 0 l 0 -12 l -1.9 0 z"/>
      <path id="slot_012" style="fill:none;stroke:#000000;stroke-width:0.0508" d="m 124.017 106.3 l 0 12 l 1.9 0 l 0 -12 l -1.9 0 z"/>
      <path id="side_015" style="fill:none;stroke:#000000;stroke-width:0.0508" d="m 164.3 128.4 l -3.294 0 l 0 0 l -3.1 0 l 0 0 l -3.245 0 l 0 0 l -3.1 0 l 0 0 l -3.244 0 l 0 0 l -3.1 0 l 0 0 l -3.245 0 l 0 0 l -3.1 0 l 0 0 l -3.244 0 l 0 0 l -3.1 0 l 0 0 l -3.245 0 l 0 0 l -3.1 0 l 0 0 l -3.244 0 l 0 0 l -3.1 0 l 0 0 l -3.245 0 l 0 0 l -3.1 0 l 0 0 l -3.294 0"/>
      <path id="side_016" style="fill:none;stroke:#000000;stroke-width:0.0508" d="m 110.2 128.4 l 0 -1.825 l 2 0 l 0 -2.9 l -2 0 l 0 -3.875 l 2 0 l 0 -2.9 l -2 0 l 0 -3.875 l 2 0 l 0 -2.9 l -2 0 l 0 -1.825"/>
    </g>
    <g id="piece_002">
      <path id="side_017" style="fill:none;stroke:#000000;stroke-width:0.0508" d="m 3 28.1 l 1.725 0 l 0 -2 l 3.1 0 l 0 2 l 3.675 0 l 0 -2 l 3.1 0 l 0 2 l 3.675 0 l 0 -2 l 3.1 0 l 0 2 l 1.725 0"/>
      <path id="hole_013" style="fill:none;stroke:#000000;stroke-width:0.0508" d="m 3 38.05 l 1.725 0 l 0 -1.9 l -1.725 0 l 0 1.9 z"/>
      <path id="hole_014" style="fill:none;stroke:#000000;stroke-width:0.0508" d="m 3 43.05 l 1.725 0 l 0 -1.9 l -1.725 0 l 0 1.9 z"/>
      <path id="hole_015" style="fill:none;stroke:#000000;stroke-width:0.0508" d="m 3 53.05 l 1.725 0 l 0 -1.9 l -1.725 0 l 0 1.9 z"/>
      <path id="hole_016" style="fill:none;stroke:#000000;stroke-width:0.0508" d="m 7.825 38.05 l 3.675 0 l 0 -1.9 l -3.675 0 l 0 1.9 z"/>
      <path id="hole_017" style="fill:none;stroke:#000000;stroke-width:0.0508" d="m 7.825 43.05 l 3.675 0 l 0 -1.9 l -3.675 0 l 0 1.9 z"/>
      <path id="hole_018" style="fill:none;stroke:#000000;stroke-width:0.0508" d="m 7.825 53.05 l 3.675 0 l 0 -1.9 l -3.675 0 l 0 1.9 z"/>
      <path id="hole_019" style="fill:none;stroke:#000000;stroke-width:0.0508" d="m 14.6 38.05 l 3.675 0 l 0 -1.9 l -3.675 0 l 0 1.9 z"/>
      <path id="hole_020" style="fill:none;stroke:#000000;stroke-width:0.0508" d="m 14.6 43.05 l 3.675 0 l 0 -1.9 l -3.675 0 l 0 1.9 z"/>
      <path id="hole_021" style="fill:none;stroke:#000000;stroke-width:0.0508" d="m 14.6 53.05 l 3.675 0 l 0 -1.9 l -3.675 0 l 0 1.9 z"/>
      <path id="hole_022" style="fill:none;stroke:#000000;stroke-width:0.0508" d="m 21.375 38.05 l 1.725 0 l 0 -1.9 l -1.725 0 l 0 1.9 z"/>
      <path id="hole_023" style="fill:none;stroke:#000000;stroke-width:0.0508" d="m 21.375 43.05 l 1.725 0 l 0 -1.9 l -1.725 0 l 0 1.9 z"/>
      <path id="hole_024" style="fill:none;stroke:#000000;stroke-width:0.0508" d="m 21.375 53.05 l 1.725 0 l 0 -1.9 l -1.725 0 l 0 1.9 z"/>
      <path id="side_018" style="fill:none;stroke:#000000;stroke-width:0.0508" d="m 23.1 28.1 l 0 1.2944 l 2 0 l 0 3.1 l -2 0 l 0 3.2445 l 2 0 l 0 3.1 l -2 0 l 0 3.2444 l 2 0 l 0 3.1 l -2 0 l 0 3.2445 l 2 0 l 0 3.1 l -2 0 l 0 3.2444 l 2 0 l 0 3.1 l -2 0 l 0 3.2445 l 2 0 l 0 3.1 l -2 0 l 0 3.2444 l 2 0 l 0 3.1 l -2 0 l 0 3.2445 l 2 0 l 0 3.1 l -2 0 l 0 1.2944"/>
      <path id="side_019" style="fill:none;stroke:#000000;stroke-width:0.0508" d="m 23.1 78.2 l -1.725 0 l 0 2 l -3.1 0 l 0 -2 l -3.675 0 l 0 2 l -3.1 0 l 0 -2 l -3.675 0 l 0 2 l -3.1 0 l 0 -2 l -1.725 0"/>
      <path id="side_020" style="fill:none;stroke:#000000;stroke-width:0.0508" d="m 3 78.2 l 0 -1.2944 l 0 0 l 0 -3.1 l 0 0 l 0 -3.2445 l 0 0 l 0 -3.1 l 0 0 l 0 -3.2444 l 0 0 l 0 -3.1 l 0 0 l 0 -3.2445 l 0 0 l 0 -3.1 l 0 0 l 0 -3.2444 l 0 0 l 0 -3.1 l 0 0 l 0 -3.2445 l 0 0 l 0 -3.1 l 0 0 l 0 -3.2444 l 0 0 l 0 -3.1 l 0 0 l 0 -3.2445 l 0 0 l 0 -3.1 l 0 0 l 0 -1.2944"/>
    </g>
    <g id="ydivider_001">
      <path id="side_021" style="fill:none;stroke:#000000;stroke-width:0.0508" d="m 2 133.4 l 1.725 0 l 0 -2 l 3.1 0 l 0 2 l 3.675 0 l 0 -2 l 3.1 0 l 0 2 l 3.675 0 l 0 -2 l 3.1 0 l 0 2 l 1.725 0"/>
      <path id="slot_013" style="fill:none;stroke:#000000;stroke-width:0.0508" d="m 0 141.45 l 12.1 0 l 0 1.9 l -12.1 0 l 0 -1.9 z"/>
      <path id="slot_014" style="fill:none;stroke:#000000;stroke-width:0.0508" d="m 0 146.45 l 12.1 0 l 0 1.9 l -12.1 0 l 0 -1.9 z"/>
      <path id="slot_015" style="fill:none;stroke:#000000;stroke-width:0.0508" d="m 0 156.45 l 12.1 0 l 0 1.9 l -12.1 0 l 0 -1.9 z"/>
      <path id="side_022" style="fill:none;stroke:#000000;stroke-width:0.0508" d="m 22.1 133.4 l 0 1.294 l 2 0 l 0 3.1 l -2 0 l 0 3.245 l 2 0 l 0 3.1 l -2 0 l 0 3.244 l 2 0 l 0 3.1 l -2 0 l 0 3.245 l 2 0 l 0 3.1 l -2 0 l 0 3.244 l 2 0 l 0 3.1 l -2 0 l 0 3.245 l 2 0 l 0 3.1 l -2 0 l 0 3.244 l 2 0 l 0 3.1 l -2 0 l 0 3.245 l 2 0 l 0 3.1 l -2 0 l 0 1.294"/>
      <path id="side_023" style="fill:none;stroke:#000000;stroke-width:0.0508" d="m 22.1 183.5 l -1.725 0 l 0 2 l -3.1 0 l 0 -2 l -3.675 0 l 0 2 l -3.1 0 l 0 -2 l -3.675 0 l 0 2 l -3.1 0 l 0 -2 l -1.725 0"/>
      <path id="side_024" style="fill:none;stroke:#000000;stroke-width:0.0508" d="m 2 183.5 l 0 -1.294 l 0 0 l 0 -3.1 l 0 0 l 0 -3.245 l 0 0 l 0 -3.1 l 0 0 l 0 -3.244 l 0 0 l 0 -3.1 l 0 0 l 0 -3.245 l 0 0 l 0 -3.1 l 0 0 l 0 -3.244 l 0 0 l 0 -3.1 l 0 0 l 0 -3.245 l 0 0 l 0 -3.1 l 0 0 l 0 -3.244 l 0 0 l 0 -3.1 l 0 0 l 0 -3.245 l 0 0 l 0 -3.1 l 0 0 l 0 -1.294"/>
    </g>
    <g id="ydivider_002">
      <path id="side_025" style="fill:none;stroke:#000000;stroke-width:0.0508" d="m 27.1 133.4 l 1.725 0 l 0 -2 l 3.1 0 l 0 2 l 3.675 0 l 0 -2 l 3.1 0 l 0 2 l 3.675 0 l 0 -2 l 3.1 0 l 0 2 l 1.725 0"/>
      <path id="slot_016" style="fill:none;stroke:#000000;stroke-width:0.0508" d="m 25.1 141.45 l 12.1 0 l 0 1.9 l -12.1 0 l 0 -1.9 z"/>
      <path id="slot_017" style="fill:none;stroke:#000000;stroke-width:0.0508" d="m 25.1 146.45 l 12.1 0 l 0 1.9 l -12.1 0 l 0 -1.9 z"/>
      <path id="slot_018" style="fill:none;stroke:#000000;stroke-width:0.0508" d="m 25.1 156.45 l 12.1 0 l 0 1.9 l -12.1 0 l 0 -1.9 z"/>
      <path id="side_026" style="fill:none;stroke:#000000;stroke-width:0.0508" d="m 47.2 133.4 l 0 1.294 l 2 0 l 0 3.1 l -2 0 l 0 3.245 l 2 0 l 0 3.1 l -2 0 l 0 3.244 l 2 0 l 0 3.1 l -2 0 l 0 3.245 l 2 0 l 0 3.1 l -2 0 l 0 3.244 l 2 0 l 0 3.1 l -2 0 l 0 3.245 l 2 0 l 0 3.1 l -2 0 l 0 3.244 l 2 0 l 0 3.1 l -2 0 l 0 3.245 l 2 0 l 0 3.1 l -2 0 l 0 1.294"/>
      <path id="side_027" style="fill:none;stroke:#000000;stroke-width:0.0508" d="m 47.2 183.5 l -1.725 0 l 0 2 l -3.1 0 l 0 -2 l -3.675 0 l 0 2 l -3.1 0 l 0 -2 l -3.675 0 l 0 2 l -3.1 0 l 0 -2 l -1.725 0"/>
      <path id="side_028" style="fill:none;stroke:#000000;stroke-width:0.0508" d="m 27.1 183.5 l 0 -1.294 l 0 0 l 0 -3.1 l 0 0 l 0 -3.245 l 0 0 l 0 -3.1 l 0 0 l 0 -3.244 l 0 0 l 0 -3.1 l 0 0 l 0 -3.245 l 0 0 l 0 -3.1 l 0 0 l 0 -3.244 l 0 0 l 0 -3.1 l 0 0 l 0 -3.245 l 0 0 l 0 -3.1 l 0 0 l 0 -3.244 l 0 0 l 0 -3.1 l 0 0 l 0 -3.245 l 0 0 l 0 -3.1 l 0 0 l 0 -1.294"/>
    </g>
    <g id="ydivider_003">
      <path id="side_029" style="fill:none;stroke:#000000;stroke-width:0.0508" d="m 52.2 133.4 l 1.725 0 l 0 -2 l 3.1 0 l 0 2 l 3.675 0 l 0 -2 l 3.1 0 l 0 2 l 3.675 0 l 0 -2 l 3.1 0 l 0 2 l 1.725 0"/>
      <path id="slot_019" style="fill:none;stroke:#000000;stroke-width:0.0508" d="m 50.2 141.45 l 12.1 0 l 0 1.9 l -12.1 0 l 0 -1.9 z"/>
      <path id="slot_020" style="fill:none;stroke:#000000;stroke-width:0.0508" d="m 50.2 146.45 l 12.1 0 l 0 1.9 l -12.1 0 l 0 -1.9 z"/>
      <path id="slot_021" style="fill:none;stroke:#000000;stroke-width:0.0508" d="m 50.2 156.45 l 12.1 0 l 0 1.9 l -12.1 0 l 0 -1.9 z"/>
      <path id="side_030" style="fill:none;stroke:#000000;stroke-width:0.0508" d="m 72.3 133.4 l 0 1.294 l 2 0 l 0 3.1 l -2 0 l 0 3.245 l 2 0 l 0 3.1 l -2 0 l 0 3.244 l 2 0 l 0 3.1 l -2 0 l 0 3.245 l 2 0 l 0 3.1 l -2 0 l 0 3.244 l 2 0 l 0 3.1 l -2 0 l 0 3.245 l 2 0 l 0 3.1 l -2 0 l 0 3.244 l 2 0 l 0 3.1 l -2 0 l 0 3.245 l 2 0 l 0 3.1 l -2 0 l 0 1.294"/>
      <path id="side_031" style="fill:none;stroke:#000000;stroke-width:0.0508" d="m 72.3 183.5 l -1.725 0 l 0 2 l -3.1 0 l 0 -2 l -3.675 0 l 0 2 l -3.1 0 l 0 -2 l -3.675 0 l 0 2 l -3.1 0 l 0 -2 l -1.725 0"/>
      <path id="side_032" style="fill:none;stroke:#000000;stroke-width:0.0508" d="m 52.2 183.5 l 0 -1.294 l 0 0 l 0 -3.1 l 0 0 l 0 -3.245 l 0 0 l 0 -3.1 l 0 0 l 0 -3.244 l 0 0 l 0 -3.1 l 0 0 l 0 -3.245 l 0 0 l 0 -3.1 l 0 0 l 0 -3.244 l 0 0 l 0 -3.1 l 0 0 l 0 -3.245 l 0 0 l 0 -3.1 l 0 0 l 0 -3.244 l 0 0 l 0 -3.1 l 0 0 l 0 -3.245 l 0 0 l 0 -3.1 l 0 0 l 0 -1.294"/>
    </g>
    <g id="ydivider_004">
      <path id="side_033" style="fill:none;stroke:#000000;stroke-width:0.0508" d="m 77.3 133.4 l 1.725 0 l 0 -2 l 3.1 0 l 0 2 l 3.675 0 l 0 -2 l 3.1 0 l 0 2 l 3.675 0 l 0 -2 l 3.1 0 l 0 2 l 1.725 0"/>
      <path id="slot_022" style="fill:none;stroke:#000000;stroke-width:0.0508" d="m 75.3 141.45 l 12.1 0 l 0 1.9 l -12.1 0 l 0 -1.9 z"/>
      <path id="slot_023" style="fill:none;stroke:#000000;stroke-width:0.0508" d="m 75.3 146.45 l 12.1 0 l 0 1.9 l -12.1 0 l 0 -1.9 z"/>
      <path id="slot_024" style="fill:none;stroke:#000000;stroke-width:0.0508" d="m 75.3 156.45 l 12.1 0 l 0 1.9 l -12.1 0 l 0 -1.9 z"/>
      <path id="side_034" style="fill:none;stroke:#000000;stroke-width:0.0508" d="m 97.4 133.4 l 0 1.294 l 2 0 l 0 3.1 l -2 0 l 0 3.245 l 2 0 l 0 3.1 l -2 0 l 0 3.244 l 2 0 l 0 3.1 l -2 0 l 0 3.245 l 2 0 l 0 3.1 l -2 0 l 0 3.244 l 2 0 l 0 3.1 l -2 0 l 0 3.245 l 2 0 l 0 3.1 l -2 0 l 0 3.244 l 2 0 l 0 3.1 l -2 0 l 0 3.245 l 2 0 l 0 3.1 l -2 0 l 0 1.294"/>
      <path id="side_035" style="fill:none;stroke:#000000;stroke-width:0.0508" d="m 97.4 183.5 l -1.725 0 l 0 2 l -3.1 0 l 0 -2 l -3.675 0 l 0 2 l -3.1 0 l 0 -2 l -3.675 0 l 0 2 l -3.1 0 l 0 -2 l -1.725 0"/>
      <path id="side_036" style="fill:none;stroke:#000000;stroke-width:0.0508" d="m 77.3 183.5 l 0 -1.294 l 0 0 l 0 -3.1 l 0 0 l 0 -3.245 l 0 0 l 0 -3.1 l 0 0 l 0 -3.244 l 0 0 l 0 -3.1 l 0 0 l 0 -3.245 l 0 0 l 0 -3.1 l 0 0 l 0 -3.244 l 0 0 l 0 -3.1 l 0 0 l 0 -3.245 l 0 0 l 0 -3.1 l 0 0 l 0 -3.244 l 0 0 l 0 -3.1 l 0 0 l 0 -3.245 l 0 0 l 0 -3.1 l 0 0 l 0 -1.294"/>
    </g>
    <g id="piece_003">
      <path id="side_037" style="fill:none;stroke:#000000;stroke-width:0.0508" d="m 26.1 26.1 l 3.3944 0 l 0 2 l 2.9 0 l 0 -2 l 3.4445 0 l 0 2 l 2.9 0 l 0 -2 l 3.4444 0 l 0 2 l 2.9 0 l 0 -2 l 3.4445 0 l 0 2 l 2.9 0 l 0 -2 l 3.4444 0 l 0 2 l 2.9 0 l 0 -2 l 3.4445 0 l 0 2 l 2.9 0 l 0 -2 l 3.4444 0 l 0 2 l 2.9 0 l 0 -2 l 3.4445 0 l 0 2 l 2.9 0 l 0 -2 l 3.3944 0"/>
      <path id="hole_025" style="fill:none;stroke:#000000;stroke-width:0.0508" d="m 29.4944 38.05 l 2.9 0 l 0 -1.9 l -2.9 0 l 0 1.9 z"/>
      <path id="hole_026" style="fill:none;stroke:#000000;stroke-width:0.0508" d="m 29.4944 43.05 l 2.9 0 l 0 -1.9 l -2.9 0 l 0 1.9 z"/>
      <path id="hole_027" style="fill:none;stroke:#000000;stroke-width:0.0508" d="m 29.4944 53.05 l 2.9 0 l 0 -1.9 l -2.9 0 l 0 1.9 z"/>
      <path id="hole_028" style="fill:none;stroke:#000000;stroke-width:0.0508" d="m 35.8389 38.05 l 2.9 0 l 0 -1.9 l -2.9 0 l 0 1.9 z"/>
      <path id="hole_029" style="fill:none;stroke:#000000;stroke-width:0.0508" d="m 35.8389 43.05 l 2.9 0 l 0 -1.9 l -2.9 0 l 0 1.9 z"/>
      <path id="hole_030" style="fill:none;stroke:#000000;stroke-width:0.0508" d="m 35.8389 53.05 l 2.9 0 l 0 -1.9 l -2.9 0 l 0 1.9 z"/>
      <path id="hole_031" style="fill:none;stroke:#000000;stroke-width:0.0508" d="m 42.1833 38.05 l 2.9 0 l 0 -1.9 l -2.9 0 l 0 1.9 z"/>
      <path id="hole_032" style="fill:none;stroke:#000000;stroke-width:0.0508" d="m 42.1833 43.05 l 2.9 0 l 0 -1.9 l -2.9 0 l 0 1.9 z"/>
      <path id="hole_033" style="fill:none;stroke:#000000;stroke-width:0.0508" d="m 42.1833 53.05 l 2.9 0 l 0 -1.9 l -2.9 0 l 0 1.9 z"/>
      <path id="hole_034" style="fill:none;stroke:#000000;stroke-width:0.0508" d="m 48.5278 38.05 l 2.9 0 l 0 -1.9 l -2.9 0 l 0 1.9 z"/>
      <path id="hole_035" style="fill:none;stroke:#000000;stroke-width:0.0508" d="m 48.5278 43.05 l 2.9 0 l 0 -1.9 l -2.9 0 l 0 1.9 z"/>
      <path id="hole_036" style="fill:none;stroke:#000000;stroke-width:0.0508" d="m 48.5278 53.05 l 2.9 0 l 0 -1.9 l -2.9 0 l 0 1.9 z"/>
      <path id="hole_037" style="fill:none;stroke:#000000;stroke-width:0.0508" d="m 54.8722 38.05 l 2.9 0 l 0 -1.9 l -2.9 0 l 0 1.9 z"/>
      <path id="hole_038" style="fill:none;stroke:#000000;stroke-width:0.0508" d="m 54.8722 43.05 l 2.9 0 l 0 -1.9 l -2.9 0 l 0 1.9 z"/>
      <path id="hole_039" style="fill:none;stroke:#000000;stroke-width:0.0508" d="m 54.8722 53.05 l 2.9 0 l 0 -1.9 l -2.9 0 l 0 1.9 z"/>
      <path id="hole_040" style="fill:none;stroke:#000000;stroke-width:0.0508" d="m 61.2167 38.05 l 2.9 0 l 0 -1.9 l -2.9 0 l 0 1.9 z"/>
      <path id="hole_041" style="fill:none;stroke:#000000;stroke-width:0.0508" d="m 61.2167 43.05 l 2.9 0 l 0 -1.9 l -2.9 0 l 0 1.9 z"/>
      <path id="hole_042" style="fill:none;stroke:#000000;stroke-width:0.0508" d="m 61.2167 53.05 l 2.9 0 l 0 -1.9 l -2.9 0 l 0 1.9 z"/>
      <path id="hole_043" style="fill:none;stroke:#000000;stroke-width:0.0508" d="m 67.5611 38.05 l 2.9 0 l 0 -1.9 l -2.9 0 l 0 1.9 z"/>
      <path id="hole_044" style="fill:none;stroke:#000000;stroke-width:0.0508" d="m 67.5611 43.05 l 2.9 0 l 0 -1.9 l -2.9 0 l 0 1.9 z"/>
      <path id="hole_045" style="fill:none;stroke:#000000;stroke-width:0.0508" d="m 67.5611 53.05 l 2.9 0 l 0 -1.9 l -2.9 0 l 0 1.9 z"/>
      <path id="hole_046" style="fill:none;stroke:#000000;stroke-width:0.0508" d="m 73.9056 38.05 l 2.9 0 l 0 -1.9 l -2.9 0 l 0 1.9 z"/>
      <path id="hole_047" style="fill:none;stroke:#000000;stroke-width:0.0508" d="m 73.9056 43.05 l 2.9 0 l 0 -1.9 l -2.9 0 l 0 1.9 z"/>
      <path id="hole_048" style="fill:none;stroke:#000000;stroke-width:0.0508" d="m 73.9056 53.05 l 2.9 0 l 0 -1.9 l -2.9 0 l 0 1.9 z"/>
      <path id="side_038" style="fill:none;stroke:#000000;stroke-width:0.0508" d="m 80.2 26.1 l 0 3.3944 l -2 0 l 0 2.9 l 2 0 l 0 3.4445 l -2 0 l 0 2.9 l 2 0 l 0 3.4444 l -2 0 l 0 2.9 l 2 0 l 0 3.4445 l -2 0 l 0 2.9 l 2 0 l 0 3.4444 l -2 0 l 0 2.9 l 2 0 l 0 3.4445 l -2 0 l 0 2.9 l 2 0 l 0 3.4444 l -2 0 l 0 2.9 l 2 0 l 0 3.4445 l -2 0 l 0 2.9 l 2 0 l 0 3.3944"/>
      <path id="hole_049" style="fill:none;stroke:#000000;stroke-width:0.0508" d="m 68.25 29.4944 l 0 2.9 l 1.9 0 l 0 -2.9 l -1.9 0 z"/>
      <path id="hole_050" style="fill:none;stroke:#000000;stroke-width:0.0508" d="m 63.25 29.4944 l 0 2.9 l 1.9 0 l 0 -2.9 l -1.9 0 z"/>
      <path id="hole_051" style="fill:none;stroke:#000000;stroke-width:0.0508" d="m 51.5833 29.4944 l 0 2.9 l 1.9 0 l 0 -2.9 l -1.9 0 z"/>
      <path id="hole_052" style="fill:none;stroke:#000000;stroke-width:0.0508" d="m 39.9167 29.4944 l 0 2.9 l 1.9 0 l 0 -2.9 l -1.9 0 z"/>
      <path id="hole_053" style="fill:none;stroke:#000000;stroke-width:0.0508" d="m 68.25 35.8389 l 0 2.9 l 1.9 0 l 0 -2.9 l -1.9 0 z"/>
      <path id="hole_054" style="fill:none;stroke:#000000;stroke-width:0.0508" d="m 63.25 35.8389 l 0 2.9 l 1.9 0 l 0 -2.9 l -1.9 0 z"/>
      <path id="hole_055" style="fill:none;stroke:#000000;stroke-width:0.0508" d="m 51.5833 35.8389 l 0 2.9 l 1.9 0 l 0 -2.9 l -1.9 0 z"/>
      <path id="hole_056" style="fill:none;stroke:#000000;stroke-width:0.0508" d="m 39.9167 35.8389 l 0 2.9 l 1.9 0 l 0 -2.9 l -1.9 0 z"/>
      <path id="hole_057" style="fill:none;stroke:#000000;stroke-width:0.0508" d="m 68.25 42.1833 l 0 2.9 l 1.9 0 l 0 -2.9 l -1.9 0 z"/>
      <path id="hole_058" style="fill:none;stroke:#000000;stroke-width:0.0508" d="m 63.25 42.1833 l 0 2.9 l 1.9 0 l 0 -2.9 l -1.9 0 z"/>
      <path id="hole_059" style="fill:none;stroke:#000000;stroke-width:0.0508" d="m 51.5833 42.1833 l 0 2.9 l 1.9 0 l 0 -2.9 l -1.9 0 z"/>
      <path id="hole_060" style="fill:none;stroke:#000000;stroke-width:0.0508" d="m 39.9167 42.1833 l 0 2.9 l 1.9 0 l 0 -2.9 l -1.9 0 z"/>
      <path id="hole_061" style="fill:none;stroke:#000000;stroke-width:0.0508" d="m 68.25 48.5278 l 0 2.9 l 1.9 0 l 0 -2.9 l -1.9 0 z"/>
      <path id="hole_062" style="fill:none;stroke:#000000;stroke-width:0.0508" d="m 63.25 48.5278 l 0 2.9 l 1.9 0 l 0 -2.9 l -1.9 0 z"/>
      <path id="hole_063" style="fill:none;stroke:#000000;stroke-width:0.0508" d="m 51.5833 48.5278 l 0 2.9 l 1.9 0 l 0 -2.9 l -1.9 0 z"/>
      <path id="hole_064" style="fill:none;stroke:#000000;stroke-width:0.0508" d="m 39.9167 48.5278 l 0 2.9 l 1.9 0 l 0 -2.9 l -1.9 0 z"/>
      <path id="hole_065" style="fill:none;stroke:#000000;stroke-width:0.0508" d="m 68.25 54.8722 l 0 2.9 l 1.9 0 l 0 -2.9 l -1.9 0 z"/>
      <path id="hole_066" style="fill:none;stroke:#000000;stroke-width:0.0508" d="m 63.25 54.8722 l 0 2.9 l 1.9 0 l 0 -2.9 l -1.9 0 z"/>
      <path id="hole_067" style="fill:none;stroke:#000000;stroke-width:0.0508" d="m 51.5833 54.8722 l 0 2.9 l 1.9 0 l 0 -2.9 l -1.9 0 z"/>
      <path id="hole_068" style="fill:none;stroke:#000000;stroke-width:0.0508" d="m 39.9167 54.8722 l 0 2.9 l 1.9 0 l 0 -2.9 l -1.9 0 z"/>
      <path id="hole_069" style="fill:none;stroke:#000000;stroke-width:0.0508" d="m 68.25 61.2167 l 0 2.9 l 1.9 0 l 0 -2.9 l -1.9 0 z"/>
      <path id="hole_070" style="fill:none;stroke:#000000;stroke-width:0.0508" d="m 63.25 61.2167 l 0 2.9 l 1.9 0 l 0 -2.9 l -1.9 0 z"/>
      <path id="hole_071" style="fill:none;stroke:#000000;stroke-width:0.0508" d="m 51.5833 61.2167 l 0 2.9 l 1.9 0 l 0 -2.9 l -1.9 0 z"/>
      <path id="hole_072" style="fill:none;stroke:#000000;stroke-width:0.0508" d="m 39.9167 61.2167 l 0 2.9 l 1.9 0 l 0 -2.9 l -1.9 0 z"/>
      <path id="hole_073" style="fill:none;stroke:#000000;stroke-width:0.0508" d="m 68.25 67.5611 l 0 2.9 l 1.9 0 l 0 -2.9 l -1.9 0 z"/>
      <path id="hole_074" style="fill:none;stroke:#000000;stroke-width:0.0508" d="m 63.25 67.5611 l 0 2.9 l 1.9 0 l 0 -2.9 l -1.9 0 z"/>
      <path id="hole_075" style="fill:none;stroke:#000000;stroke-width:0.0508" d="m 51.5833 67.5611 l 0 2.9 l 1.9 0 l 0 -2.9 l -1.9 0 z"/>
      <path id="hole_076" style="fill:none;stroke:#000000;stroke-width:0.0508" d="m 39.9167 67.5611 l 0 2.9 l 1.9 0 l 0 -2.9 l -1.9 0 z"/>
      <path id="hole_077" style="fill:none;stroke:#000000;stroke-width:0.0508" d="m 68.25 73.9056 l 0 2.9 l 1.9 0 l 0 -2.9 l -1.9 0 z"/>
      <path id="hole_078" style="fill:none;stroke:#000000;stroke-width:0.0508" d="m 63.25 73.9056 l 0 2.9 l 1.9 0 l 0 -2.9 l -1.9 0 z"/>
      <path id="hole_079" style="fill:none;stroke:#000000;stroke-width:0.0508" d="m 51.5833 73.9056 l 0 2.9 l 1.9 0 l 0 -2.9 l -1.9 0 z"/>
      <path id="hole_080" style="fill:none;stroke:#000000;stroke-width:0.0508" d="m 39.9167 73.9056 l 0 2.9 l 1.9 0 l 0 -2.9 l -1.9 0 z"/>
      <path id="side_039" style="fill:none;stroke:#000000;stroke-width:0.0508" d="m 80.2 80.2 l -3.3944 0 l 0 -2 l -2.9 0 l 0 2 l -3.4445 0 l 0 -2 l -2.9 0 l 0 2 l -3.4444 0 l 0 -2 l -2.9 0 l 0 2 l -3.4445 0 l 0 -2 l -2.9 0 l 0 2 l -3.4444 0 l 0 -2 l -2.9 0 l 0 2 l -3.4445 0 l 0 -2 l -2.9 0 l 0 2 l -3.4444 0 l 0 -2 l -2.9 0 l 0 2 l -3.4445 0 l 0 -2 l -2.9 0 l 0 2 l -3.3944 0"/>
      <path id="side_040" style="fill:none;stroke:#000000;stroke-width:0.0508" d="m 26.1 80.2 l 0 -3.3944 l 2 0 l 0 -2.9 l -2 0 l 0 -3.4445 l 2 0 l 0 -2.9 l -2 0 l 0 -3.4444 l 2 0 l 0 -2.9 l -2 0 l 0 -3.4445 l 2 0 l 0 -2.9 l -2 0 l 0 -3.4444 l 2 0 l 0 -2.9 l -2 0 l 0 -3.4445 l 2 0 l 0 -2.9 l -2 0 l 0 -3.4444 l 2 0 l 0 -2.9 l -2 0 l 0 -3.4445 l 2 0 l 0 -2.9 l -2 0 l 0 -3.3944"/>
    </g>
    <g id="piece_004">
      <path id="side_041" style="fill:none;stroke:#000000;stroke-width:0.0508" d="m 83.2 28.1 l 1.725 0 l 0 -2 l 3.1 0 l 0 2 l 3.675 0 l 0 -2 l 3.1 0 l 0 2 l 3.675 0 l 0 -2 l 3.1 0 l 0 2 l 1.725 0"/>
      <path id="hole_081" style="fill:none;stroke:#000000;stroke-width:0.0508" d="m 83.2 38.05 l 1.725 0 l 0 -1.9 l -1.725 0 l 0 1.9 z"/>
      <path id="hole_082" style="fill:none;stroke:#000000;stroke-width:0.0508" d="m 83.2 43.05 l 1.725 0 l 0 -1.9 l -1.725 0 l 0 1.9 z"/>
      <path id="hole_083" style="fill:none;stroke:#000000;stroke-width:0.0508" d="m 83.2 53.05 l 1.725 0 l 0 -1.9 l -1.725 0 l 0 1.9 z"/>
      <path id="hole_084" style="fill:none;stroke:#000000;stroke-width:0.0508" d="m 88.025 38.05 l 3.675 0 l 0 -1.9 l -3.675 0 l 0 1.9 z"/>
      <path id="hole_085" style="fill:none;stroke:#000000;stroke-width:0.0508" d="m 88.025 43.05 l 3.675 0 l 0 -1.9 l -3.675 0 l 0 1.9 z"/>
      <path id="hole_086" style="fill:none;stroke:#000000;stroke-width:0.0508" d="m 88.025 53.05 l 3.675 0 l 0 -1.9 l -3.675 0 l 0 1.9 z"/>
      <path id="hole_087" style="fill:none;stroke:#000000;stroke-width:0.0508" d="m 94.8 38.05 l 3.675 0 l 0 -1.9 l -3.675 0 l 0 1.9 z"/>
      <path id="hole_088" style="fill:none;stroke:#000000;stroke-width:0.0508" d="m 94.8 43.05 l 3.675 0 l 0 -1.9 l -3.675 0 l 0 1.9 z"/>
      <path id="hole_089" style="fill:none;stroke:#000000;stroke-width:0.0508" d="m 94.8 53.05 l 3.675 0 l 0 -1.9 l -3.675 0 l 0 1.9 z"/>
      <path id="hole_090" style="fill:none;stroke:#000000;stroke-width:0.0508" d="m 101.575 38.05 l 1.725 0 l 0 -1.9 l -1.725 0 l 0 1.9 z"/>
      <path id="hole_091" style="fill:none;stroke:#000000;stroke-width:0.0508" d="m 101.575 43.05 l 1.725 0 l 0 -1.9 l -1.725 0 l 0 1.9 z"/>
      <path id="hole_092" style="fill:none;stroke:#000000;stroke-width:0.0508" d="m 101.575 53.05 l 1.725 0 l 0 -1.9 l -1.725 0 l 0 1.9 z"/>
      <path id="side_042" style="fill:none;stroke:#000000;stroke-width:0.0508" d="m 103.3 28.1 l 0 1.2944 l 0 0 l 0 3.1 l 0 0 l 0 3.2445 l 0 0 l 0 3.1 l 0 0 l 0 3.2444 l 0 0 l 0 3.1 l 0 0 l 0 3.2445 l 0 0 l 0 3.1 l 0 0 l 0 3.2444 l 0 0 l 0 3.1 l 0 0 l 0 3.2445 l 0 0 l 0 3.1 l 0 0 l 0 3.2444 l 0 0 l 0 3.1 l 0 0 l 0 3.2445 l 0 0 l 0 3.1 l 0 0 l 0 1.2944"/>
      <path id="side_043" style="fill:none;stroke:#000000;stroke-width:0.0508" d="m 103.3 78.2 l -1.725 0 l 0 2 l -3.1 0 l 0 -2 l -3.675 0 l 0 2 l -3.1 0 l 0 -2 l -3.675 0 l 0 2 l -3.1 0 l 0 -2 l -1.725 0"/>
      <path id="side_044" style="fill:none;stroke:#000000;stroke-width:0.0508" d="m 83.2 78.2 l 0 -1.2944 l -2 0 l 0 -3.1 l 2 0 l 0 -3.2445 l -2 0 l 0 -3.1 l 2 0 l 0 -3.2444 l -2 0 l 0 -3.1 l 2 0 l 0 -3.2445 l -2 0 l 0 -3.1 l 2 0 l 0 -3.2444 l -2 0 l 0 -3.1 l 2 0 l 0 -3.2445 l -2 0 l 0 -3.1 l 2 0 l 0 -3.2444 l -2 0 l 0 -3.1 l 2 0 l 0 -3.2445 l -2 0 l 0 -3.1 l 2 0 l 0 -1.2944"/>
    </g>
    <g id="piece_005">
      <path id="side_045" style="fill:none;stroke:#000000;stroke-width:0.0508" d="m 26.1 3 l 3.2944 0 l 0 0 l 3.1 0 l 0 0 l 3.2445 0 l 0 0 l 3.1 0 l 0 0 l 3.2444 0 l 0 0 l 3.1 0 l 0 0 l 3.2445 0 l 0 0 l 3.1 0 l 0 0 l 3.2444 0 l 0 0 l 3.1 0 l 0 0 l 3.2445 0 l 0 0 l 3.1 0 l 0 0 l 3.2444 0 l 0 0 l 3.1 0 l 0 0 l 3.2445 0 l 0 0 l 3.1 0 l 0 0 l 3.2944 0"/>
      <path id="side_046" style="fill:none;stroke:#000000;stroke-width:0.0508" d="m 80.2 3 l 0 1.825 l -2 0 l 0 2.9 l 2 0 l 0 3.875 l -2 0 l 0 2.9 l 2 0 l 0 3.875 l -2 0 l 0 2.9 l 2 0 l 0 1.825"/>
      <path id="hole_093" style="fill:none;stroke:#000000;stroke-width:0.0508" d="m 68.25 4.825 l 0 2.9 l 1.9 0 l 0 -2.9 l -1.9 0 z"/>
      <path id="hole_094" style="fill:none;stroke:#000000;stroke-width:0.0508" d="m 63.25 4.825 l 0 2.9 l 1.9 0 l 0 -2.9 l -1.9 0 z"/>
      <path id="hole_095" style="fill:none;stroke:#000000;stroke-width:0.0508" d="m 51.5833 4.825 l 0 2.9 l 1.9 0 l 0 -2.9 l -1.9 0 z"/>
      <path id="hole_096" style="fill:none;stroke:#000000;stroke-width:0.0508" d="m 39.9167 4.825 l 0 2.9 l 1.9 0 l 0 -2.9 l -1.9 0 z"/>
      <path id="hole_097" style="fill:none;stroke:#000000;stroke-width:0.0508" d="m 68.25 11.6 l 0 2.9 l 1.9 0 l 0 -2.9 l -1.9 0 z"/>
      <path id="hole_098" style="fill:none;stroke:#000000;stroke-width:0.0508" d="m 63.25 11.6 l 0 2.9 l 1.9 0 l 0 -2.9 l -1.9 0 z"/>
      <path id="hole_099" style="fill:none;stroke:#000000;stroke-width:0.0508" d="m 51.5833 11.6 l 0 2.9 l 1.9 0 l 0 -2.9 l -1.9 0 z"/>
      <path id="hole_100" style="fill:none;stroke:#000000;stroke-width:0.0508" d="m 39.9167 11.6 l 0 2.9 l 1.9 0 l 0 -2.9 l -1.9 0 z"/>
      <path id="hole_101" style="fill:none;stroke:#000000;stroke-width:0.0508" d="m 68.25 18.375 l 0 2.9 l 1.9 0 l 0 -2.9 l -1.9 0 z"/>
      <path id="hole_102" style="fill:none;stroke:#000000;stroke-width:0.0508" d="m 63.25 18.375 l 0 2.9 l 1.9 0 l 0 -2.9 l -1.9 0 z"/>
      <path id="hole_103" style="fill:none;stroke:#000000;stroke-width:0.0508" d="m 51.5833 18.375 l 0 2.9 l 1.9 0 l 0 -2.9 l -1.9 0 z"/>
      <path id="hole_104" style="fill:none;stroke:#000000;stroke-width:0.0508" d="m 39.9167 18.375 l 0 2.9 l 1.9 0 l 0 -2.9 l -1.9 0 z"/>
      <path id="side_047" style="fill:none;stroke:#000000;stroke-width:0.0508" d="m 80.2 23.1 l -3.2944 0 l 0 2 l -3.1 0 l 0 -2 l -3.2445 0 l 0 2 l -3.1 0 l 0 -2 l -3.2444 0 l 0 2 l -3.1 0 l 0 -2 l -3.2445 0 l 0 2 l -3.1 0 l 0 -2 l -3.2444 0 l 0 2 l -3.1 0 l 0 -2 l -3.2445 0 l 0 2 l -3.1 0 l 0 -2 l -3.2444 0 l 0 2 l -3.1 0 l 0 -2 l -3.2445 0 l 0 2 l -3.1 0 l 0 -2 l -3.2944 0"/>
      <path id="side_048" style="fill:none;stroke:#000000;stroke-width:0.0508" d="m 26.1 23.1 l 0 -1.825 l 2 0 l 0 -2.9 l -2 0 l 0 -3.875 l 2 0 l 0 -2.9 l -2 0 l 0 -3.875 l 2 0 l 0 -2.9 l -2 0 l 0 -1.825"/>
    </g>
  </g>
</svg>