<!-- Created with Inkscape (http://www.inkscape.org/) -->
<svg xmlns:inkscape="http://www.inkscape.org/namespaces/inkscape" xmlns:sodipodi="http://sodipodi.sourceforge.net/DTD/sodipodi-0.dtd" xmlns="http://www.w3.org/2000/svg" xmlns:svg="http://www.w3.org/2000/svg" width="179mm" height="199mm" viewBox="0 0 179 199" version="1.1" id="svg5" inkscape:version="1.1.2 (0a00cf5339, 2022-02-04)" sodipodi:docname="blank.svg">
  <sodipodi:namedview id="namedview7" pagecolor="#ffffff" bordercolor="#666666" borderopacity="1.0" inkscape:pageshadow="2" inkscape:pageopacity="0.0" inkscape:pagecheckerboard="0" inkscape:document-units="mm" showgrid="false" inkscape:zoom="0.64052329" inkscape:cx="397.33138" inkscape:cy="561.25984" inkscape:window-width="2086" inkscape:window-height="1376" inkscape:window-x="0" inkscape:window-y="0" inkscape:window-maximized="1" inkscape:current-layer="layer1"/>
  <defs id="defs2"/>
  <g inkscape:label="Layer 1" inkscape:groupmode="layer" id="layer1">
    <metadata text="createArgs=['--unit=mm', '--inside=1', '--length=80', '--width=100', '--depth=40', '--equal=0', '--tab=6', '--tabtype=0', '--tabsymmetry=0', '--dimpleheight=0', '--dimplelength=0', '--hairline=1', '--thickness=3', '--kerf=0', '--style=1', '--boxtype=5', '--div_l=0', '--div_w=0', '--keydiv=1', '--spacing=1']"/>
    <path id="piece_001" style="fill:none;stroke:#000000;stroke-width:0.0508" d="M 48 158 L 48 162 L 51 162 L 51 168 L 48 168 L 48 175 L 51 175 L 51 181 L 48 181 L 48 188 L 51 188 L 51 194 L 48 194 L 48 198 L 134 198 L 134 194 L 131 194 L 131 188 L 134 188 L 134 181 L 131 181 L 131 175 L 134 175 L 134 168 L 131 168 L 131 162 L 134 162 L 134 158 L 48 158 Z"/>
    <path id="piece_002" style="fill:none;stroke:#000000;stroke-width:0.0508" d="M 4 51 L 4 54.4444 L 4 151 L 8 151 L 8 154 L 14 154 L 14 151 L 21 151 L 21 154 L 27 154 L 27 151 L 34 151 L 34 154 L 40 154 L 40 151 L 44 151 L 44 51 L 40 51 L 40 48 L 34 48 L 34 51 L 27 51 L 27 48 L 21 48 L 21 51 L 14 51 L 14 48 L 8 48 L 8 51 L 4 51 Z"/>
    <path id="piece_003" style="fill:none;stroke:#000000;stroke-width:0.0508" d="M 138 51 L 138 54.4444 L 138 151 L 142 151 L 142 154 L 148 154 L 148 151 L 155 151 L 155 154 L 161 154 L 161 151 L 168 151 L 168 154 L 174 154 L 174 151 L 178 151 L 178 51 L 174 51 L 174 48 L 168 48 L 168 51 L 161 51 L 161 48 L 155 48 L 155 51 L 148 51 L 148 48 L 142 48 L 142 51 L 138 51 Z"/>
    <path id="piece_004" style="fill:none;stroke:#000000;stroke-width:0.0508" d="M 48 4 L 48 8 L 51 8 L 51 14 L 48 14 L 48 21 L 51 21 L 51 27 L 48 27 L 48 34 L 51 34 L 51 40 L 48 40 L 48 44 L 134 44 L 134 40 L 131 40 L 131 34 L 134 34 L 134 27 L 131 27 L 131 21 L 134 21 L 134 14 L 131 14 L 131 8 L 134 8 L 134 4 L 48 4 Z"/>
  </g>
</svg>