<!-- Created with Inkscape (http://www.inkscape.org/) -->
<svg xmlns:inkscape="http://www.inkscape.org/namespaces/inkscape" xmlns:sodipodi="http://sodipodi.sourceforge.net/DTD/sodipodi-0.dtd" xmlns="http://www.w3.org/2000/svg" xmlns:svg="http://www.w3.org/2000/svg" width="182mm" height="202mm" viewBox="0 0 182 202" version="1.1" sodipodi:docname="blank.svg">
  <sodipodi:namedview/>
  <defs id="defaults"/>
  <g inkscape:groupmode="layer" inkscape:label="Tabbed Box" id="tabbedbox">
    <metadata text="$ boxmaker.py --unit=mm --inside=1 --length=80 --width=100 --depth=46 --equal=0 --tab=6 --tabtype=0 --tabsymmetry=0 --dimpleheight=0 --dimplelength=0 --hairline=1 --thickness=3 --kerf=0 --style=1 --boxtype=5 --div-l=0 --div-w=0 --keydiv=1 --spacing=1"/>
    <g id="back">
      <path id="side_001" style="fill:none;stroke:#000000;stroke-width:0.0508" d="M 48 155 L 134 155"/>
      <path id="side_002" style="fill:none;stroke:#000000;stroke-width:0.0508" d="M 134 155 L 134 162 L 131 162 L 131 168 L 134 168 L 134 175 L 131 175 L 131 181 L 134 181 L 134 188 L 131 188 L 131 194 L 134 194 L 134 201"/>
      <path id="side_003" style="fill:none;stroke:#000000;stroke-width:0.0508" d="M 134 201 L 48 201"/>
      <path id="side_004" style="fill:none;stroke:#000000;stroke-width:0.0508" d="M 48 201 L 48 194 L 51 194 L 51 188 L 48 188 L 48 181 L 51 181 L 51 175 L 48 175 L 48 168 L 51 168 L 51 162 L 48 162 L 48 155"/>
    </g>
    <g id="left">
      <path id="side_005" style="fill:none;stroke:#000000;stroke-width:0.0508" d="M 1 51 L 8 51 L 8 48 L 14 48 L 14 51 L 21 51 L 21 48 L 27 48 L 27 51 L 34 51 L 34 48 L 40 48 L 40 51 L 47 51"/>
      <path id="side_006" style="fill:none;stroke:#000000;stroke-width:0.0508" d="M 47 51 L 47 151"/>
      <path id="side_007" style="fill:none;stroke:#000000;stroke-width:0.0508" d="M 47 151 L 40 151 L 40 154 L 34 154 L 34 151 L 27 151 L 27 154 L 21 154 L 21 151 L 14 151 L 14 154 L 8 154 L 8 151 L 1 151"/>
      <path id="side_008" style="fill:none;stroke:#000000;stroke-width:0.0508" d="M 1 151 L 1 51"/>
    </g>
    <g id="right">
      <path id="side_009" style="fill:none;stroke:#000000;stroke-width:0.0508" d="M 135 51 L 142 51 L 142 48 L 148 48 L 148 51 L 155 51 L 155 48 L 161 48 L 161 51 L 168 51 L 168 48 L 174 48 L 174 51 L 181 51"/>
      <path id="side_010" style="fill:none;stroke:#000000;stroke-width:0.0508" d="M 181 51 L 181 151"/>
      <path id="side_011" style="fill:none;stroke:#000000;stroke-width:0.0508" d="M 181 151 L 174 151 L 174 154 L 168 154 L 168 151 L 161 151 L 161 154 L 155 154 L 155 151 L 148 151 L 148 154 L 142 154 L 142 151 L 135 151"/>
      <path id="side_012" style="fill:none;stroke:#000000;stroke-width:0.0508" d="M 135 151 L 135 51"/>
    </g>
    <g id="front">
      <path id="side_013" style="fill:none;stroke:#000000;stroke-width:0.0508" d="M 48 1 L 134 1"/>
      <path id="side_014" style="fill:none;stroke:#000000;stroke-width:0.0508" d="M 134 1 L 134 8 L 131 8 L 131 14 L 134 14 L 134 21 L 131 21 L 131 27 L 134 27 L 134 34 L 131 34 L 131 40 L 134 40 L 134 47"/>
      <path id="side_015" style="fill:none;stroke:#000000;stroke-width:0.0508" d="M 134 47 L 48 47"/>
      <path id="side_016" style="fill:none;stroke:#000000;stroke-width:0.0508" d="M 48 47 L 48 40 L 51 40 L 51 34 L 48 34 L 48 27 L 51 27 L 51 21 L 48 21 L 48 14 L 51 14 L 51 8 L 48 8 L 48 1"/>
    </g>
  </g>
</svg>