<!-- Created with Inkscape (http://www.inkscape.org/) -->
<svg xmlns:inkscape="http://www.inkscape.org/namespaces/inkscape" xmlns:sodipodi="http://sodipodi.sourceforge.net/DTD/sodipodi-0.dtd" xmlns="http://www.w3.org/2000/svg" xmlns:svg="http://www.w3.org/2000/svg" width="182mm" height="202mm" viewBox="0 0 182 202" version="1.1" id="svg5" inkscape:version="1.1.2 (0a00cf5339, 2022-02-04)" sodipodi:docname="blank.svg">
  <sodipodi:namedview id="namedview7" pagecolor="#ffffff" bordercolor="#666666" borderopacity="1.0" inkscape:pageshadow="2" inkscape:pageopacity="0.0" inkscape:pagecheckerboard="0" inkscape:document-units="mm" showgrid="false" inkscape:zoom="0.64052329" inkscape:cx="397.33138" inkscape:cy="561.25984" inkscape:window-width="2086" inkscape:window-height="1376" inkscape:window-x="0" inkscape:window-y="0" inkscape:window-maximized="1" inkscape:current-layer="layer1"/>
  <defs id="defs2"/>
  <g inkscape:label="Layer 1" inkscape:groupmode="layer" id="layer1">
    <metadata text="createArgs=['--unit=mm', '--inside=1', '--length=80', '--width=100', '--depth=46', '--equal=0', '--tab=6', '--tabtype=0', '--tabsymmetry=0', '--dimpleheight=0', '--dimplelength=0', '--hairline=1', '--thickness=3', '--kerf=0', '--style=1', '--boxtype=5', '--div-l=0', '--div-w=0', '--keydiv=1', '--spacing=1']"/>
    <g id="piece_001">
      <path id="side_001" style="fill:none;stroke:#000000;stroke-width:0.0508" d="M 48 155 L 55.1429 155 L 55.1429 155 L 61.1429 155 L 61.1429 155 L 68.2857 155 L 68.2857 155 L 74.2857 155 L 74.2857 155 L 81.4286 155 L 81.4286 155 L 87.4286 155 L 87.4286 155 L 94.5714 155 L 94.5714 155 L 100.571 155 L 100.571 155 L 107.714 155 L 107.714 155 L 113.714 155 L 113.714 155 L 120.857 155 L 120.857 155 L 126.857 155 L 126.857 155 L 134 155"/>
      <path id="side_002" style="fill:none;stroke:#000000;stroke-width:0.0508" d="M 134 155 L 134 162 L 131 162 L 131 168 L 134 168 L 134 175 L 131 175 L 131 181 L 134 181 L 134 188 L 131 188 L 131 194 L 134 194 L 134 201"/>
      <path id="side_003" style="fill:none;stroke:#000000;stroke-width:0.0508" d="M 134 201 L 126.857 201 L 126.857 201 L 120.857 201 L 120.857 201 L 113.714 201 L 113.714 201 L 107.714 201 L 107.714 201 L 100.571 201 L 100.571 201 L 94.5714 201 L 94.5714 201 L 87.4286 201 L 87.4286 201 L 81.4286 201 L 81.4286 201 L 74.2857 201 L 74.2857 201 L 68.2857 201 L 68.2857 201 L 61.1429 201 L 61.1429 201 L 55.1429 201 L 55.1429 201 L 48 201"/>
      <path id="side_004" style="fill:none;stroke:#000000;stroke-width:0.0508" d="M 48 201 L 48 194 L 51 194 L 51 188 L 48 188 L 48 181 L 51 181 L 51 175 L 48 175 L 48 168 L 51 168 L 51 162 L 48 162 L 48 155"/>
    </g>
    <g id="piece_002">
      <path id="side_005" style="fill:none;stroke:#000000;stroke-width:0.0508" d="M 1 51 L 8 51 L 8 48 L 14 48 L 14 51 L 21 51 L 21 48 L 27 48 L 27 51 L 34 51 L 34 48 L 40 48 L 40 51 L 47 51"/>
      <path id="side_006" style="fill:none;stroke:#000000;stroke-width:0.0508" d="M 47 51 L 47 54.4444 L 47 54.4444 L 47 60.4444 L 47 60.4444 L 47 66.8889 L 47 66.8889 L 47 72.8889 L 47 72.8889 L 47 79.3333 L 47 79.3333 L 47 85.3333 L 47 85.3333 L 47 91.7778 L 47 91.7778 L 47 97.7778 L 47 97.7778 L 47 104.222 L 47 104.222 L 47 110.222 L 47 110.222 L 47 116.667 L 47 116.667 L 47 122.667 L 47 122.667 L 47 129.111 L 47 129.111 L 47 135.111 L 47 135.111 L 47 141.556 L 47 141.556 L 47 147.556 L 47 147.556 L 47 151"/>
      <path id="side_007" style="fill:none;stroke:#000000;stroke-width:0.0508" d="M 47 151 L 40 151 L 40 154 L 34 154 L 34 151 L 27 151 L 27 154 L 21 154 L 21 151 L 14 151 L 14 154 L 8 154 L 8 151 L 1 151"/>
      <path id="side_008" style="fill:none;stroke:#000000;stroke-width:0.0508" d="M 1 151 L 1 147.556 L 1 147.556 L 1 141.556 L 1 141.556 L 1 135.111 L 1 135.111 L 1 129.111 L 1 129.111 L 1 122.667 L 1 122.667 L 1 116.667 L 1 116.667 L 1 110.222 L 1 110.222 L 1 104.222 L 1 104.222 L 1 97.7778 L 1 97.7778 L 1 91.7778 L 1 91.7778 L 1 85.3333 L 1 85.3333 L 1 79.3333 L 1 79.3333 L 1 72.8889 L 1 72.8889 L 1 66.8889 L 1 66.8889 L 1 60.4444 L 1 60.4444 L 1 54.4444 L 1 54.4444 L 1 51"/>
    </g>
    <g id="piece_003">
      <path id="side_009" style="fill:none;stroke:#000000;stroke-width:0.0508" d="M 135 51 L 142 51 L 142 48 L 148 48 L 148 51 L 155 51 L 155 48 L 161 48 L 161 51 L 168 51 L 168 48 L 174 48 L 174 51 L 181 51"/>
      <path id="side_010" style="fill:none;stroke:#000000;stroke-width:0.0508" d="M 181 51 L 181 54.4444 L 181 54.4444 L 181 60.4444 L 181 60.4444 L 181 66.8889 L 181 66.8889 L 181 72.8889 L 181 72.8889 L 181 79.3333 L 181 79.3333 L 181 85.3333 L 181 85.3333 L 181 91.7778 L 181 91.7778 L 181 97.7778 L 181 97.7778 L 181 104.222 L 181 104.222 L 181 110.222 L 181 110.222 L 181 116.667 L 181 116.667 L 181 122.667 L 181 122.667 L 181 129.111 L 181 129.111 L 181 135.111 L 181 135.111 L 181 141.556 L 181 141.556 L 181 147.556 L 181 147.556 L 181 151"/>
      <path id="side_011" style="fill:none;stroke:#000000;stroke-width:0.0508" d="M 181 151 L 174 151 L 174 154 L 168 154 L 168 151 L 161 151 L 161 154 L 155 154 L 155 151 L 148 151 L 148 154 L 142 154 L 142 151 L 135 151"/>
      <path id="side_012" style="fill:none;stroke:#000000;stroke-width:0.0508" d="M 135 151 L 135 147.556 L 135 147.556 L 135 141.556 L 135 141.556 L 135 135.111 L 135 135.111 L 135 129.111 L 135 129.111 L 135 122.667 L 135 122.667 L 135 116.667 L 135 116.667 L 135 110.222 L 135 110.222 L 135 104.222 L 135 104.222 L 135 97.7778 L 135 97.7778 L 135 91.7778 L 135 91.7778 L 135 85.3333 L 135 85.3333 L 135 79.3333 L 135 79.3333 L 135 72.8889 L 135 72.8889 L 135 66.8889 L 135 66.8889 L 135 60.4444 L 135 60.4444 L 135 54.4444 L 135 54.4444 L 135 51"/>
    </g>
    <g id="piece_004">
      <path id="side_013" style="fill:none;stroke:#000000;stroke-width:0.0508" d="M 48 1 L 55.1429 1 L 55.1429 1 L 61.1429 1 L 61.1429 1 L 68.2857 1 L 68.2857 1 L 74.2857 1 L 74.2857 1 L 81.4286 1 L 81.4286 1 L 87.4286 1 L 87.4286 1 L 94.5714 1 L 94.5714 1 L 100.571 1 L 100.571 1 L 107.714 1 L 107.714 1 L 113.714 1 L 113.714 1 L 120.857 1 L 120.857 1 L 126.857 1 L 126.857 1 L 134 1"/>
      <path id="side_014" style="fill:none;stroke:#000000;stroke-width:0.0508" d="M 134 1 L 134 8 L 131 8 L 131 14 L 134 14 L 134 21 L 131 21 L 131 27 L 134 27 L 134 34 L 131 34 L 131 40 L 134 40 L 134 47"/>
      <path id="side_015" style="fill:none;stroke:#000000;stroke-width:0.0508" d="M 134 47 L 126.857 47 L 126.857 47 L 120.857 47 L 120.857 47 L 113.714 47 L 113.714 47 L 107.714 47 L 107.714 47 L 100.571 47 L 100.571 47 L 94.5714 47 L 94.5714 47 L 87.4286 47 L 87.4286 47 L 81.4286 47 L 81.4286 47 L 74.2857 47 L 74.2857 47 L 68.2857 47 L 68.2857 47 L 61.1429 47 L 61.1429 47 L 55.1429 47 L 55.1429 47 L 48 47"/>
      <path id="side_016" style="fill:none;stroke:#000000;stroke-width:0.0508" d="M 48 47 L 48 40 L 51 40 L 51 34 L 48 34 L 48 27 L 51 27 L 51 21 L 48 21 L 48 14 L 51 14 L 51 8 L 48 8 L 48 1"/>
    </g>
  </g>
</svg>