<!-- Created with Inkscape (http://www.inkscape.org/) -->
<svg xmlns:inkscape="http://www.inkscape.org/namespaces/inkscape" xmlns:sodipodi="http://sodipodi.sourceforge.net/DTD/sodipodi-0.dtd" xmlns="http://www.w3.org/2000/svg" xmlns:svg="http://www.w3.org/2000/svg" width="165.5mm" height="185.5mm" viewBox="0 0 165.5 185.5" version="1.1" id="svg5" inkscape:version="1.1.2 (0a00cf5339, 2022-02-04)" sodipodi:docname="blank.svg">
  <sodipodi:namedview id="namedview7" pagecolor="#ffffff" bordercolor="#666666" borderopacity="1.0" inkscape:pageshadow="2" inkscape:pageopacity="0.0" inkscape:pagecheckerboard="0" inkscape:document-units="mm" showgrid="false" inkscape:zoom="0.64052329" inkscape:cx="397.33138" inkscape:cy="561.25984" inkscape:window-width="2086" inkscape:window-height="1376" inkscape:window-x="0" inkscape:window-y="0" inkscape:window-maximized="1" inkscape:current-layer="layer1"/>
  <defs id="defs2"/>
  <g inkscape:label="Layer 1" inkscape:groupmode="layer" id="layer1">
    <metadata text="createArgs=['--unit=mm', '--inside=0', '--length=80', '--width=100', '--depth=40', '--equal=0', '--tab=6', '--tabtype=0', '--tabsymmetry=0', '--dimpleheight=0', '--dimplelength=0', '--hairline=1', '--thickness=3', '--kerf=0.5', '--style=1', '--boxtype=2', '--div_l=0', '--div_w=0', '--keydiv=1', '--spacing=1']"/>
    <g id="piece_001">
      <path id="side_001" style="fill:none;stroke:#000000;stroke-width:0.0508" d="m 42.5 147 l 6.2857 0 l 0 -3 l 6.5 0 l 0 3 l 5.7857 0 l 0 -3 l 6.5 0 l 0 3 l 5.7857 0 l 0 -3 l 6.5 0 l 0 3 l 5.7858 0 l 0 -3 l 6.5 0 l 0 3 l 5.7857 0 l 0 -3 l 6.5004 0 l 0 3 l 5.785 0 l 0 -3 l 6.5 0 l 0 3 l 6.286 0"/>
      <path id="side_002" style="fill:none;stroke:#000000;stroke-width:0.0508" d="m 123 147 l 0 6.833 l -3 0 l 0 5.5 l 3 0 l 0 9.834 l -3 0 l 0 5.5 l 3 0 l 0 9.833"/>
      <path id="side_003" style="fill:none;stroke:#000000;stroke-width:0.0508" d="m 123 184.5 l -6.786 0 l 0 0 l -5.5 0 l 0 0 l -6.785 0 l 0 0 l -5.5004 0 l 0 0 l -6.7857 0 l 0 0 l -5.5 0 l 0 0 l -6.7858 0 l 0 0 l -5.5 0 l 0 0 l -6.7857 0 l 0 0 l -5.5 0 l 0 0 l -6.7857 0 l 0 0 l -5.5 0 l 0 0 l -6.7857 0"/>
      <path id="side_004" style="fill:none;stroke:#000000;stroke-width:0.0508" d="m 42.5 184.5 l 0 -9.833 l 3 0 l 0 -5.5 l -3 0 l 0 -9.834 l 3 0 l 0 -5.5 l -3 0 l 0 -6.833"/>
    </g>
    <g id="piece_002">
      <path id="side_005" style="fill:none;stroke:#000000;stroke-width:0.0508" d="m 1 45.5 l 9.3333 0 l 0 -3 l 6.5 0 l 0 3 l 8.8334 0 l 0 -3 l 6.5 0 l 0 3 l 6.3333 0"/>
      <path id="side_006" style="fill:none;stroke:#000000;stroke-width:0.0508" d="m 38.5 45.5 l 0 4.25 l 3 0 l 0 6.5 l -3 0 l 0 6.75 l 3 0 l 0 6.5 l -3 0 l 0 6.75 l 3 0 l 0 6.5 l -3 0 l 0 6.75 l 3 0 l 0 6.5 l -3 0 l 0 6.75 l 3 0 l 0 6.5 l -3 0 l 0 6.75 l 3 0 l 0 6.5 l -3 0 l 0 6.75 l 3 0 l 0 6.5 l -3 0 l 0 4.25"/>
      <path id="side_007" style="fill:none;stroke:#000000;stroke-width:0.0508" d="m 38.5 140 l -6.3333 0 l 0 3 l -6.5 0 l 0 -3 l -8.8334 0 l 0 3 l -6.5 0 l 0 -3 l -9.3333 0"/>
      <path id="side_008" style="fill:none;stroke:#000000;stroke-width:0.0508" d="m 1 140 l 0 -4.75 l 0 0 l 0 -5.5 l 0 0 l 0 -7.75 l 0 0 l 0 -5.5 l 0 0 l 0 -7.75 l 0 0 l 0 -5.5 l 0 0 l 0 -7.75 l 0 0 l 0 -5.5 l 0 0 l 0 -7.75 l 0 0 l 0 -5.5 l 0 0 l 0 -7.75 l 0 0 l 0 -5.5 l 0 0 l 0 -7.75 l 0 0 l 0 -5.5 l 0 0 l 0 -4.75"/>
    </g>
    <g id="piece_003">
      <path id="side_009" style="fill:none;stroke:#000000;stroke-width:0.0508" d="m 42.5 42.5 l 6.7857 0 l 0 3 l 5.5 0 l 0 -3 l 6.7857 0 l 0 3 l 5.5 0 l 0 -3 l 6.7857 0 l 0 3 l 5.5 0 l 0 -3 l 6.7858 0 l 0 3 l 5.5 0 l 0 -3 l 6.7857 0 l 0 3 l 5.5004 0 l 0 -3 l 6.785 0 l 0 3 l 5.5 0 l 0 -3 l 6.786 0"/>
      <path id="side_010" style="fill:none;stroke:#000000;stroke-width:0.0508" d="m 123 42.5 l 0 7.75 l -3 0 l 0 5.5 l 3 0 l 0 7.75 l -3 0 l 0 5.5 l 3 0 l 0 7.75 l -3 0 l 0 5.5 l 3 0 l 0 7.75 l -3 0 l 0 5.5 l 3 0 l 0 7.75 l -3 0 l 0 5.5 l 3 0 l 0 7.75 l -3 0 l 0 5.5 l 3 0 l 0 7.75 l -3 0 l 0 5.5 l 3 0 l 0 7.75"/>
      <path id="side_011" style="fill:none;stroke:#000000;stroke-width:0.0508" d="m 123 143 l -6.786 0 l 0 -3 l -5.5 0 l 0 3 l -6.785 0 l 0 -3 l -5.5004 0 l 0 3 l -6.7857 0 l 0 -3 l -5.5 0 l 0 3 l -6.7858 0 l 0 -3 l -5.5 0 l 0 3 l -6.7857 0 l 0 -3 l -5.5 0 l 0 3 l -6.7857 0 l 0 -3 l -5.5 0 l 0 3 l -6.7857 0"/>
      <path id="side_012" style="fill:none;stroke:#000000;stroke-width:0.0508" d="m 42.5 143 l 0 -7.75 l 3 0 l 0 -5.5 l -3 0 l 0 -7.75 l 3 0 l 0 -5.5 l -3 0 l 0 -7.75 l 3 0 l 0 -5.5 l -3 0 l 0 -7.75 l 3 0 l 0 -5.5 l -3 0 l 0 -7.75 l 3 0 l 0 -5.5 l -3 0 l 0 -7.75 l 3 0 l 0 -5.5 l -3 0 l 0 -7.75 l 3 0 l 0 -5.5 l -3 0 l 0 -7.75"/>
    </g>
    <g id="piece_004">
      <path id="side_013" style="fill:none;stroke:#000000;stroke-width:0.0508" d="m 127 45.5 l 6.333 0 l 0 -3 l 6.5 0 l 0 3 l 8.834 0 l 0 -3 l 6.5 0 l 0 3 l 9.333 0"/>
      <path id="side_014" style="fill:none;stroke:#000000;stroke-width:0.0508" d="m 164.5 45.5 l 0 4.75 l 0 0 l 0 5.5 l 0 0 l 0 7.75 l 0 0 l 0 5.5 l 0 0 l 0 7.75 l 0 0 l 0 5.5 l 0 0 l 0 7.75 l 0 0 l 0 5.5 l 0 0 l 0 7.75 l 0 0 l 0 5.5 l 0 0 l 0 7.75 l 0 0 l 0 5.5 l 0 0 l 0 7.75 l 0 0 l 0 5.5 l 0 0 l 0 4.75"/>
      <path id="side_015" style="fill:none;stroke:#000000;stroke-width:0.0508" d="m 164.5 140 l -9.333 0 l 0 3 l -6.5 0 l 0 -3 l -8.834 0 l 0 3 l -6.5 0 l 0 -3 l -6.333 0"/>
      <path id="side_016" style="fill:none;stroke:#000000;stroke-width:0.0508" d="m 127 140 l 0 -4.25 l -3 0 l 0 -6.5 l 3 0 l 0 -6.75 l -3 0 l 0 -6.5 l 3 0 l 0 -6.75 l -3 0 l 0 -6.5 l 3 0 l 0 -6.75 l -3 0 l 0 -6.5 l 3 0 l 0 -6.75 l -3 0 l 0 -6.5 l 3 0 l 0 -6.75 l -3 0 l 0 -6.5 l 3 0 l 0 -6.75 l -3 0 l 0 -6.5 l 3 0 l 0 -4.25"/>
    </g>
    <g id="piece_005">
      <path id="side_017" style="fill:none;stroke:#000000;stroke-width:0.0508" d="m 42.5 1 l 6.7857 0 l 0 0 l 5.5 0 l 0 0 l 6.7857 0 l 0 0 l 5.5 0 l 0 0 l 6.7857 0 l 0 0 l 5.5 0 l 0 0 l 6.7858 0 l 0 0 l 5.5 0 l 0 0 l 6.7857 0 l 0 0 l 5.5004 0 l 0 0 l 6.785 0 l 0 0 l 5.5 0 l 0 0 l 6.786 0"/>
      <path id="side_018" style="fill:none;stroke:#000000;stroke-width:0.0508" d="m 123 1 l 0 9.8333 l -3 0 l 0 5.5 l 3 0 l 0 9.8334 l -3 0 l 0 5.5 l 3 0 l 0 6.8333"/>
      <path id="side_019" style="fill:none;stroke:#000000;stroke-width:0.0508" d="m 123 38.5 l -6.286 0 l 0 3 l -6.5 0 l 0 -3 l -5.785 0 l 0 3 l -6.5004 0 l 0 -3 l -5.7857 0 l 0 3 l -6.5 0 l 0 -3 l -5.7858 0 l 0 3 l -6.5 0 l 0 -3 l -5.7857 0 l 0 3 l -6.5 0 l 0 -3 l -5.7857 0 l 0 3 l -6.5 0 l 0 -3 l -6.2857 0"/>
      <path id="side_020" style="fill:none;stroke:#000000;stroke-width:0.0508" d="m 42.5 38.5 l 0 -6.8333 l 3 0 l 0 -5.5 l -3 0 l 0 -9.8334 l 3 0 l 0 -5.5 l -3 0 l 0 -9.8333"/>
    </g>
  </g>
</svg>