<!-- Created with Inkscape (http://www.inkscape.org/) -->
<svg xmlns:inkscape="http://www.inkscape.org/namespaces/inkscape" xmlns:sodipodi="http://sodipodi.sourceforge.net/DTD/sodipodi-0.dtd" xmlns="http://www.w3.org/2000/svg" xmlns:svg="http://www.w3.org/2000/svg" width="164mm" height="184mm" viewBox="0 0 164 184" version="1.1" id="svg5" inkscape:version="1.1.2 (0a00cf5339, 2022-02-04)" sodipodi:docname="blank.svg">
  <sodipodi:namedview id="namedview7" pagecolor="#ffffff" bordercolor="#666666" borderopacity="1.0" inkscape:pageshadow="2" inkscape:pageopacity="0.0" inkscape:pagecheckerboard="0" inkscape:document-units="mm" showgrid="false" inkscape:zoom="0.64052329" inkscape:cx="397.33138" inkscape:cy="561.25984" inkscape:window-width="2086" inkscape:window-height="1376" inkscape:window-x="0" inkscape:window-y="0" inkscape:window-maximized="1" inkscape:current-layer="layer1"/>
  <defs id="defs2"/>
  <g inkscape:label="Layer 1" inkscape:groupmode="layer" id="layer1">
    <metadata text="createArgs=['--unit=mm', '--inside=0', '--length=80', '--width=100', '--depth=40', '--equal=0', '--tab=6', '--tabtype=0', '--tabsymmetry=0', '--dimpleheight=0', '--dimplelength=0', '--hairline=1', '--thickness=3', '--kerf=0', '--style=1', '--boxtype=2', '--div-l=0', '--div-w=0', '--keydiv=1', '--spacing=1']"/>
    <g id="piece_001">
      <path id="side_001" style="fill:none;stroke:#000000;stroke-width:0.0508" d="m 42 146 l 6.2857 0 l 0 -3 l 6 0 l 0 3 l 6.2857 0 l 0 -3 l 6 0 l 0 3 l 6.2857 0 l 0 -3 l 6 0 l 0 3 l 6.2858 0 l 0 -3 l 6 0 l 0 3 l 6.2857 0 l 0 -3 l 6.0004 0 l 0 3 l 6.285 0 l 0 -3 l 6 0 l 0 3 l 6.286 0"/>
      <path id="side_002" style="fill:none;stroke:#000000;stroke-width:0.0508" d="m 122 146 l 0 6.333 l -3 0 l 0 6 l 3 0 l 0 9.334 l -3 0 l 0 6 l 3 0 l 0 9.333"/>
      <path id="side_003" style="fill:none;stroke:#000000;stroke-width:0.0508" d="m 122 183 l -6.286 0 l 0 0 l -6 0 l 0 0 l -6.285 0 l 0 0 l -6.0004 0 l 0 0 l -6.2857 0 l 0 0 l -6 0 l 0 0 l -6.2858 0 l 0 0 l -6 0 l 0 0 l -6.2857 0 l 0 0 l -6 0 l 0 0 l -6.2857 0 l 0 0 l -6 0 l 0 0 l -6.2857 0"/>
      <path id="side_004" style="fill:none;stroke:#000000;stroke-width:0.0508" d="m 42 183 l 0 -9.333 l 3 0 l 0 -6 l -3 0 l 0 -9.334 l 3 0 l 0 -6 l -3 0 l 0 -6.333"/>
    </g>
    <g id="piece_002">
      <path id="side_005" style="fill:none;stroke:#000000;stroke-width:0.0508" d="m 1 45 l 9.3333 0 l 0 -3 l 6 0 l 0 3 l 9.3334 0 l 0 -3 l 6 0 l 0 3 l 6.3333 0"/>
      <path id="side_006" style="fill:none;stroke:#000000;stroke-width:0.0508" d="m 38 45 l 0 4.25 l 3 0 l 0 6 l -3 0 l 0 7.25 l 3 0 l 0 6 l -3 0 l 0 7.25 l 3 0 l 0 6 l -3 0 l 0 7.25 l 3 0 l 0 6 l -3 0 l 0 7.25 l 3 0 l 0 6 l -3 0 l 0 7.25 l 3 0 l 0 6 l -3 0 l 0 7.25 l 3 0 l 0 6 l -3 0 l 0 4.25"/>
      <path id="side_007" style="fill:none;stroke:#000000;stroke-width:0.0508" d="m 38 139 l -6.3333 0 l 0 3 l -6 0 l 0 -3 l -9.3334 0 l 0 3 l -6 0 l 0 -3 l -9.3333 0"/>
      <path id="side_008" style="fill:none;stroke:#000000;stroke-width:0.0508" d="m 1 139 l 0 -4.25 l 0 0 l 0 -6 l 0 0 l 0 -7.25 l 0 0 l 0 -6 l 0 0 l 0 -7.25 l 0 0 l 0 -6 l 0 0 l 0 -7.25 l 0 0 l 0 -6 l 0 0 l 0 -7.25 l 0 0 l 0 -6 l 0 0 l 0 -7.25 l 0 0 l 0 -6 l 0 0 l 0 -7.25 l 0 0 l 0 -6 l 0 0 l 0 -4.25"/>
    </g>
    <g id="piece_003">
      <path id="side_009" style="fill:none;stroke:#000000;stroke-width:0.0508" d="m 42 42 l 6.2857 0 l 0 3 l 6 0 l 0 -3 l 6.2857 0 l 0 3 l 6 0 l 0 -3 l 6.2857 0 l 0 3 l 6 0 l 0 -3 l 6.2858 0 l 0 3 l 6 0 l 0 -3 l 6.2857 0 l 0 3 l 6.0004 0 l 0 -3 l 6.285 0 l 0 3 l 6 0 l 0 -3 l 6.286 0"/>
      <path id="side_010" style="fill:none;stroke:#000000;stroke-width:0.0508" d="m 122 42 l 0 7.25 l -3 0 l 0 6 l 3 0 l 0 7.25 l -3 0 l 0 6 l 3 0 l 0 7.25 l -3 0 l 0 6 l 3 0 l 0 7.25 l -3 0 l 0 6 l 3 0 l 0 7.25 l -3 0 l 0 6 l 3 0 l 0 7.25 l -3 0 l 0 6 l 3 0 l 0 7.25 l -3 0 l 0 6 l 3 0 l 0 7.25"/>
      <path id="side_011" style="fill:none;stroke:#000000;stroke-width:0.0508" d="m 122 142 l -6.286 0 l 0 -3 l -6 0 l 0 3 l -6.285 0 l 0 -3 l -6.0004 0 l 0 3 l -6.2857 0 l 0 -3 l -6 0 l 0 3 l -6.2858 0 l 0 -3 l -6 0 l 0 3 l -6.2857 0 l 0 -3 l -6 0 l 0 3 l -6.2857 0 l 0 -3 l -6 0 l 0 3 l -6.2857 0"/>
      <path id="side_012" style="fill:none;stroke:#000000;stroke-width:0.0508" d="m 42 142 l 0 -7.25 l 3 0 l 0 -6 l -3 0 l 0 -7.25 l 3 0 l 0 -6 l -3 0 l 0 -7.25 l 3 0 l 0 -6 l -3 0 l 0 -7.25 l 3 0 l 0 -6 l -3 0 l 0 -7.25 l 3 0 l 0 -6 l -3 0 l 0 -7.25 l 3 0 l 0 -6 l -3 0 l 0 -7.25 l 3 0 l 0 -6 l -3 0 l 0 -7.25"/>
    </g>
    <g id="piece_004">
      <path id="side_013" style="fill:none;stroke:#000000;stroke-width:0.0508" d="m 126 45 l 6.333 0 l 0 -3 l 6 0 l 0 3 l 9.334 0 l 0 -3 l 6 0 l 0 3 l 9.333 0"/>
      <path id="side_014" style="fill:none;stroke:#000000;stroke-width:0.0508" d="m 163 45 l 0 4.25 l 0 0 l 0 6 l 0 0 l 0 7.25 l 0 0 l 0 6 l 0 0 l 0 7.25 l 0 0 l 0 6 l 0 0 l 0 7.25 l 0 0 l 0 6 l 0 0 l 0 7.25 l 0 0 l 0 6 l 0 0 l 0 7.25 l 0 0 l 0 6 l 0 0 l 0 7.25 l 0 0 l 0 6 l 0 0 l 0 4.25"/>
      <path id="side_015" style="fill:none;stroke:#000000;stroke-width:0.0508" d="m 163 139 l -9.333 0 l 0 3 l -6 0 l 0 -3 l -9.334 0 l 0 3 l -6 0 l 0 -3 l -6.333 0"/>
      <path id="side_016" style="fill:none;stroke:#000000;stroke-width:0.0508" d="m 126 139 l 0 -4.25 l -3 0 l 0 -6 l 3 0 l 0 -7.25 l -3 0 l 0 -6 l 3 0 l 0 -7.25 l -3 0 l 0 -6 l 3 0 l 0 -7.25 l -3 0 l 0 -6 l 3 0 l 0 -7.25 l -3 0 l 0 -6 l 3 0 l 0 -7.25 l -3 0 l 0 -6 l 3 0 l 0 -7.25 l -3 0 l 0 -6 l 3 0 l 0 -4.25"/>
    </g>
    <g id="piece_005">
      <path id="side_017" style="fill:none;stroke:#000000;stroke-width:0.0508" d="m 42 1 l 6.2857 0 l 0 0 l 6 0 l 0 0 l 6.2857 0 l 0 0 l 6 0 l 0 0 l 6.2857 0 l 0 0 l 6 0 l 0 0 l 6.2858 0 l 0 0 l 6 0 l 0 0 l 6.2857 0 l 0 0 l 6.0004 0 l 0 0 l 6.285 0 l 0 0 l 6 0 l 0 0 l 6.286 0"/>
      <path id="side_018" style="fill:none;stroke:#000000;stroke-width:0.0508" d="m 122 1 l 0 9.3333 l -3 0 l 0 6 l 3 0 l 0 9.3334 l -3 0 l 0 6 l 3 0 l 0 6.3333"/>
      <path id="side_019" style="fill:none;stroke:#000000;stroke-width:0.0508" d="m 122 38 l -6.286 0 l 0 3 l -6 0 l 0 -3 l -6.285 0 l 0 3 l -6.0004 0 l 0 -3 l -6.2857 0 l 0 3 l -6 0 l 0 -3 l -6.2858 0 l 0 3 l -6 0 l 0 -3 l -6.2857 0 l 0 3 l -6 0 l 0 -3 l -6.2857 0 l 0 3 l -6 0 l 0 -3 l -6.2857 0"/>
      <path id="side_020" style="fill:none;stroke:#000000;stroke-width:0.0508" d="m 42 38 l 0 -6.3333 l 3 0 l 0 -6 l -3 0 l 0 -9.3334 l 3 0 l 0 -6 l -3 0 l 0 -9.3333"/>
    </g>
  </g>
</svg>