<!-- Created with Inkscape (http://www.inkscape.org/) -->
<svg xmlns:inkscape="http://www.inkscape.org/namespaces/inkscape" xmlns:sodipodi="http://sodipodi.sourceforge.net/DTD/sodipodi-0.dtd" xmlns="http://www.w3.org/2000/svg" xmlns:svg="http://www.w3.org/2000/svg" width="165.5mm" height="185.5mm" viewBox="0 0 165.5 185.5" version="1.1" sodipodi:docname="blank.svg">
  <sodipodi:namedview/>
  <defs id="defaults"/>
  <g inkscape:groupmode="layer" inkscape:label="Tabbed Box" id="tabbedbox">
    <metadata text="$ boxmaker.py --unit=mm --inside=0 --length=80 --width=100 --depth=40 --equal=0 --tab=6 --tabtype=0 --tabsymmetry=0 --dimpleheight=0 --dimplelength=0 --hairline=1 --thickness=3 --kerf=0.5 --style=1 --boxtype=2 --div-l=0 --div-w=0 --keydiv=1 --spacing=1"/>
    <g id="back">
      <path id="side_001" style="fill:none;stroke:#000000;stroke-width:0.0508" d="M 42.5 147 L 48.7857 147 L 48.7857 144 L 55.2857 144 L 55.2857 147 L 61.0714 147 L 61.0714 144 L 67.5714 144 L 67.5714 147 L 73.3571 147 L 73.3571 144 L 79.8571 144 L 79.8571 147 L 85.6429 147 L 85.6429 144 L 92.1429 144 L 92.1429 147 L 97.9286 147 L 97.9286 144 L 104.429 144 L 104.429 147 L 110.214 147 L 110.214 144 L 116.714 144 L 116.714 147 L 123 147"/>
      <path id="side_002" style="fill:none;stroke:#000000;stroke-width:0.0508" d="M 123 147 L 123 153.833 L 120 153.833 L 120 159.333 L 123 159.333 L 123 169.167 L 120 169.167 L 120 174.667 L 123 174.667 L 123 184.5"/>
      <path id="side_003" style="fill:none;stroke:#000000;stroke-width:0.0508" d="M 123 184.5 L 42.5 184.5"/>
      <path id="side_004" style="fill:none;stroke:#000000;stroke-width:0.0508" d="M 42.5 184.5 L 42.5 174.667 L 45.5 174.667 L 45.5 169.167 L 42.5 169.167 L 42.5 159.333 L 45.5 159.333 L 45.5 153.833 L 42.5 153.833 L 42.5 147"/>
    </g>
    <g id="left">
      <path id="side_005" style="fill:none;stroke:#000000;stroke-width:0.0508" d="M 1 45.5 L 10.3333 45.5 L 10.3333 42.5 L 16.8333 42.5 L 16.8333 45.5 L 25.6667 45.5 L 25.6667 42.5 L 32.1667 42.5 L 32.1667 45.5 L 38.5 45.5"/>
      <path id="side_006" style="fill:none;stroke:#000000;stroke-width:0.0508" d="M 38.5 45.5 L 38.5 49.75 L 41.5 49.75 L 41.5 56.25 L 38.5 56.25 L 38.5 63 L 41.5 63 L 41.5 69.5 L 38.5 69.5 L 38.5 76.25 L 41.5 76.25 L 41.5 82.75 L 38.5 82.75 L 38.5 89.5 L 41.5 89.5 L 41.5 96 L 38.5 96 L 38.5 102.75 L 41.5 102.75 L 41.5 109.25 L 38.5 109.25 L 38.5 116 L 41.5 116 L 41.5 122.5 L 38.5 122.5 L 38.5 129.25 L 41.5 129.25 L 41.5 135.75 L 38.5 135.75 L 38.5 140"/>
      <path id="side_007" style="fill:none;stroke:#000000;stroke-width:0.0508" d="M 38.5 140 L 32.1667 140 L 32.1667 143 L 25.6667 143 L 25.6667 140 L 16.8333 140 L 16.8333 143 L 10.3333 143 L 10.3333 140 L 1 140"/>
      <path id="side_008" style="fill:none;stroke:#000000;stroke-width:0.0508" d="M 1 140 L 1 45.5"/>
    </g>
    <g id="bottom">
      <path id="side_009" style="fill:none;stroke:#000000;stroke-width:0.0508" d="M 42.5 42.5 L 49.2857 42.5 L 49.2857 45.5 L 54.7857 45.5 L 54.7857 42.5 L 61.5714 42.5 L 61.5714 45.5 L 67.0714 45.5 L 67.0714 42.5 L 73.8571 42.5 L 73.8571 45.5 L 79.3571 45.5 L 79.3571 42.5 L 86.1429 42.5 L 86.1429 45.5 L 91.6429 45.5 L 91.6429 42.5 L 98.4286 42.5 L 98.4286 45.5 L 103.929 45.5 L 103.929 42.5 L 110.714 42.5 L 110.714 45.5 L 116.214 45.5 L 116.214 42.5 L 123 42.5"/>
      <path id="side_010" style="fill:none;stroke:#000000;stroke-width:0.0508" d="M 123 42.5 L 123 50.25 L 120 50.25 L 120 55.75 L 123 55.75 L 123 63.5 L 120 63.5 L 120 69 L 123 69 L 123 76.75 L 120 76.75 L 120 82.25 L 123 82.25 L 123 90 L 120 90 L 120 95.5 L 123 95.5 L 123 103.25 L 120 103.25 L 120 108.75 L 123 108.75 L 123 116.5 L 120 116.5 L 120 122 L 123 122 L 123 129.75 L 120 129.75 L 120 135.25 L 123 135.25 L 123 143"/>
      <path id="side_011" style="fill:none;stroke:#000000;stroke-width:0.0508" d="M 123 143 L 116.214 143 L 116.214 140 L 110.714 140 L 110.714 143 L 103.929 143 L 103.929 140 L 98.4286 140 L 98.4286 143 L 91.6429 143 L 91.6429 140 L 86.1429 140 L 86.1429 143 L 79.3571 143 L 79.3571 140 L 73.8571 140 L 73.8571 143 L 67.0714 143 L 67.0714 140 L 61.5714 140 L 61.5714 143 L 54.7857 143 L 54.7857 140 L 49.2857 140 L 49.2857 143 L 42.5 143"/>
      <path id="side_012" style="fill:none;stroke:#000000;stroke-width:0.0508" d="M 42.5 143 L 42.5 135.25 L 45.5 135.25 L 45.5 129.75 L 42.5 129.75 L 42.5 122 L 45.5 122 L 45.5 116.5 L 42.5 116.5 L 42.5 108.75 L 45.5 108.75 L 45.5 103.25 L 42.5 103.25 L 42.5 95.5 L 45.5 95.5 L 45.5 90 L 42.5 90 L 42.5 82.25 L 45.5 82.25 L 45.5 76.75 L 42.5 76.75 L 42.5 69 L 45.5 69 L 45.5 63.5 L 42.5 63.5 L 42.5 55.75 L 45.5 55.75 L 45.5 50.25 L 42.5 50.25 L 42.5 42.5"/>
    </g>
    <g id="right">
      <path id="side_013" style="fill:none;stroke:#000000;stroke-width:0.0508" d="M 127 45.5 L 133.333 45.5 L 133.333 42.5 L 139.833 42.5 L 139.833 45.5 L 148.667 45.5 L 148.667 42.5 L 155.167 42.5 L 155.167 45.5 L 164.5 45.5"/>
      <path id="side_014" style="fill:none;stroke:#000000;stroke-width:0.0508" d="M 164.5 45.5 L 164.5 140"/>
      <path id="side_015" style="fill:none;stroke:#000000;stroke-width:0.0508" d="M 164.5 140 L 155.167 140 L 155.167 143 L 148.667 143 L 148.667 140 L 139.833 140 L 139.833 143 L 133.333 143 L 133.333 140 L 127 140"/>
      <path id="side_016" style="fill:none;stroke:#000000;stroke-width:0.0508" d="M 127 140 L 127 135.75 L 124 135.75 L 124 129.25 L 127 129.25 L 127 122.5 L 124 122.5 L 124 116 L 127 116 L 127 109.25 L 124 109.25 L 124 102.75 L 127 102.75 L 127 96 L 124 96 L 124 89.5 L 127 89.5 L 127 82.75 L 124 82.75 L 124 76.25 L 127 76.25 L 127 69.5 L 124 69.5 L 124 63 L 127 63 L 127 56.25 L 124 56.25 L 124 49.75 L 127 49.75 L 127 45.5"/>
    </g>
    <g id="front">
      <path id="side_017" style="fill:none;stroke:#000000;stroke-width:0.0508" d="M 42.5 1 L 123 1"/>
      <path id="side_018" style="fill:none;stroke:#000000;stroke-width:0.0508" d="M 123 1 L 123 10.8333 L 120 10.8333 L 120 16.3333 L 123 16.3333 L 123 26.1667 L 120 26.1667 L 120 31.6667 L 123 31.6667 L 123 38.5"/>
      <path id="side_019" style="fill:none;stroke:#000000;stroke-width:0.0508" d="M 123 38.5 L 116.714 38.5 L 116.714 41.5 L 110.214 41.5 L 110.214 38.5 L 104.429 38.5 L 104.429 41.5 L 97.9286 41.5 L 97.9286 38.5 L 92.1429 38.5 L 92.1429 41.5 L 85.6429 41.5 L 85.6429 38.5 L 79.8571 38.5 L 79.8571 41.5 L 73.3571 41.5 L 73.3571 38.5 L 67.5714 38.5 L 67.5714 41.5 L 61.0714 41.5 L 61.0714 38.5 L 55.2857 38.5 L 55.2857 41.5 L 48.7857 41.5 L 48.7857 38.5 L 42.5 38.5"/>
      <path id="side_020" style="fill:none;stroke:#000000;stroke-width:0.0508" d="M 42.5 38.5 L 42.5 31.6667 L 45.5 31.6667 L 45.5 26.1667 L 42.5 26.1667 L 42.5 16.3333 L 45.5 16.3333 L 45.5 10.8333 L 42.5 10.8333 L 42.5 1"/>
    </g>
  </g>
</svg>