<!-- Created with Inkscape (http://www.inkscape.org/) -->
<svg xmlns:inkscape="http://www.inkscape.org/namespaces/inkscape" xmlns:sodipodi="http://sodipodi.sourceforge.net/DTD/sodipodi-0.dtd" xmlns="http://www.w3.org/2000/svg" xmlns:svg="http://www.w3.org/2000/svg" width="165.5mm" height="185.5mm" viewBox="0 0 165.5 185.5" version="1.1" id="svg5" inkscape:version="1.1.2 (0a00cf5339, 2022-02-04)" sodipodi:docname="blank.svg">
  <sodipodi:namedview id="namedview7" pagecolor="#ffffff" bordercolor="#666666" borderopacity="1.0" inkscape:pageshadow="2" inkscape:pageopacity="0.0" inkscape:pagecheckerboard="0" inkscape:document-units="mm" showgrid="false" inkscape:zoom="0.64052329" inkscape:cx="397.33138" inkscape:cy="561.25984" inkscape:window-width="2086" inkscape:window-height="1376" inkscape:window-x="0" inkscape:window-y="0" inkscape:window-maximized="1" inkscape:current-layer="layer1"/>
  <defs id="defs2"/>
  <g inkscape:label="Layer 1" inkscape:groupmode="layer" id="layer1">
    <metadata text="createArgs=['--unit=mm', '--inside=0', '--length=80', '--width=100', '--depth=40', '--equal=0', '--tab=6', '--tabtype=0', '--tabsymmetry=0', '--dimpleheight=0', '--dimplelength=0', '--hairline=1', '--thickness=3', '--kerf=0.5', '--style=1', '--boxtype=2', '--div_l=0', '--div_w=0', '--keydiv=1', '--spacing=1']"/>
    <path id="piece_001" style="fill:none;stroke:#000000;stroke-width:0.0508" d="M 42.5 147 L 42.5 153.75 L 45.5 153.75 L 45.5 159.25 L 42.5 159.25 L 42.5 169.25 L 45.5 169.25 L 45.5 174.75 L 42.5 174.75 L 42.5 184.5 L 123 184.5 L 123 174.75 L 120 174.75 L 120 169.25 L 123 169.25 L 123 159.25 L 120 159.25 L 120 153.75 L 123 153.75 L 123 147 L 116.893 147 L 116.893 144 L 110.393 144 L 110.393 147 L 104.536 147 L 104.536 144 L 98.0357 144 L 98.0357 147 L 92.1786 147 L 92.1786 144 L 85.6786 144 L 85.6786 147 L 79.8214 147 L 79.8214 144 L 73.3214 144 L 73.3214 147 L 67.4643 147 L 67.4643 144 L 60.9643 144 L 60.9643 147 L 55.1071 147 L 55.1071 144 L 48.6071 144 L 48.6071 147 L 42.5 147 Z"/>
    <path id="piece_002" style="fill:none;stroke:#000000;stroke-width:0.0508" d="M 1 45.5 L 1 50.0625 L 1 140 L 10.25 140 L 10.25 143 L 16.75 143 L 16.75 140 L 25.75 140 L 25.75 143 L 32.25 143 L 32.25 140 L 38.5 140 L 38.5 135.938 L 41.5 135.938 L 41.5 129.438 L 38.5 129.438 L 38.5 122.625 L 41.5 122.625 L 41.5 116.125 L 38.5 116.125 L 38.5 109.312 L 41.5 109.312 L 41.5 102.812 L 38.5 102.812 L 38.5 96 L 41.5 96 L 41.5 89.5 L 38.5 89.5 L 38.5 82.6875 L 41.5 82.6875 L 41.5 76.1875 L 38.5 76.1875 L 38.5 69.375 L 41.5 69.375 L 41.5 62.875 L 38.5 62.875 L 38.5 56.0625 L 41.5 56.0625 L 41.5 49.5625 L 38.5 49.5625 L 38.5 45.5 L 32.25 45.5 L 32.25 42.5 L 25.75 42.5 L 25.75 45.5 L 16.75 45.5 L 16.75 42.5 L 10.25 42.5 L 10.25 45.5 L 1 45.5 Z"/>
    <path id="piece_003" style="fill:none;stroke:#000000;stroke-width:0.0508" d="M 42.5 42.5 L 42.5 50.0625 L 45.5 50.0625 L 45.5 55.5625 L 42.5 55.5625 L 42.5 63.375 L 45.5 63.375 L 45.5 68.875 L 42.5 68.875 L 42.5 76.6875 L 45.5 76.6875 L 45.5 82.1875 L 42.5 82.1875 L 42.5 90 L 45.5 90 L 45.5 95.5 L 42.5 95.5 L 42.5 103.312 L 45.5 103.312 L 45.5 108.812 L 42.5 108.812 L 42.5 116.625 L 45.5 116.625 L 45.5 122.125 L 42.5 122.125 L 42.5 129.938 L 45.5 129.938 L 45.5 135.438 L 42.5 135.438 L 42.5 143 L 49.1071 143 L 49.1071 140 L 54.6071 140 L 54.6071 143 L 61.4643 143 L 61.4643 140 L 66.9643 140 L 66.9643 143 L 73.8214 143 L 73.8214 140 L 79.3214 140 L 79.3214 143 L 86.1786 143 L 86.1786 140 L 91.6786 140 L 91.6786 143 L 98.5357 143 L 98.5357 140 L 104.036 140 L 104.036 143 L 110.893 143 L 110.893 140 L 116.393 140 L 116.393 143 L 123 143 L 123 135.438 L 120 135.438 L 120 129.938 L 123 129.938 L 123 122.125 L 120 122.125 L 120 116.625 L 123 116.625 L 123 108.812 L 120 108.812 L 120 103.312 L 123 103.312 L 123 95.5 L 120 95.5 L 120 90 L 123 90 L 123 82.1875 L 120 82.1875 L 120 76.6875 L 123 76.6875 L 123 68.875 L 120 68.875 L 120 63.375 L 123 63.375 L 123 55.5625 L 120 55.5625 L 120 50.0625 L 123 50.0625 L 123 42.5 L 116.393 42.5 L 116.393 45.5 L 110.893 45.5 L 110.893 42.5 L 104.036 42.5 L 104.036 45.5 L 98.5357 45.5 L 98.5357 42.5 L 91.6786 42.5 L 91.6786 45.5 L 86.1786 45.5 L 86.1786 42.5 L 79.3214 42.5 L 79.3214 45.5 L 73.8214 45.5 L 73.8214 42.5 L 66.9643 42.5 L 66.9643 45.5 L 61.4643 45.5 L 61.4643 42.5 L 54.6071 42.5 L 54.6071 45.5 L 49.1071 45.5 L 49.1071 42.5 L 42.5 42.5 Z"/>
    <path id="piece_004" style="fill:none;stroke:#000000;stroke-width:0.0508" d="M 127 45.5 L 127 49.5625 L 124 49.5625 L 124 56.0625 L 127 56.0625 L 127 62.875 L 124 62.875 L 124 69.375 L 127 69.375 L 127 76.1875 L 124 76.1875 L 124 82.6875 L 127 82.6875 L 127 89.5 L 124 89.5 L 124 96 L 127 96 L 127 102.812 L 124 102.812 L 124 109.312 L 127 109.312 L 127 116.125 L 124 116.125 L 124 122.625 L 127 122.625 L 127 129.438 L 124 129.438 L 124 135.938 L 127 135.938 L 127 140 L 133.25 140 L 133.25 143 L 139.75 143 L 139.75 140 L 148.75 140 L 148.75 143 L 155.25 143 L 155.25 140 L 164.5 140 L 164.5 45.5 L 155.25 45.5 L 155.25 42.5 L 148.75 42.5 L 148.75 45.5 L 139.75 45.5 L 139.75 42.5 L 133.25 42.5 L 133.25 45.5 L 127 45.5 Z"/>
    <path id="piece_005" style="fill:none;stroke:#000000;stroke-width:0.0508" d="M 42.5 1 L 42.5 10.75 L 45.5 10.75 L 45.5 16.25 L 42.5 16.25 L 42.5 26.25 L 45.5 26.25 L 45.5 31.75 L 42.5 31.75 L 42.5 38.5 L 48.6071 38.5 L 48.6071 41.5 L 55.1071 41.5 L 55.1071 38.5 L 60.9643 38.5 L 60.9643 41.5 L 67.4643 41.5 L 67.4643 38.5 L 73.3214 38.5 L 73.3214 41.5 L 79.8214 41.5 L 79.8214 38.5 L 85.6786 38.5 L 85.6786 41.5 L 92.1786 41.5 L 92.1786 38.5 L 98.0357 38.5 L 98.0357 41.5 L 104.536 41.5 L 104.536 38.5 L 110.393 38.5 L 110.393 41.5 L 116.893 41.5 L 116.893 38.5 L 123 38.5 L 123 31.75 L 120 31.75 L 120 26.25 L 123 26.25 L 123 16.25 L 120 16.25 L 120 10.75 L 123 10.75 L 123 1 L 42.5 1 Z"/>
  </g>
</svg>