<!-- Created with Inkscape (http://www.inkscape.org/) -->
<svg xmlns:inkscape="http://www.inkscape.org/namespaces/inkscape" xmlns:sodipodi="http://sodipodi.sourceforge.net/DTD/sodipodi-0.dtd" xmlns="http://www.w3.org/2000/svg" xmlns:svg="http://www.w3.org/2000/svg" width="164mm" height="184mm" viewBox="0 0 164 184" version="1.1" id="svg5" inkscape:version="1.1.2 (0a00cf5339, 2022-02-04)" sodipodi:docname="blank.svg">
  <sodipodi:namedview id="namedview7" pagecolor="#ffffff" bordercolor="#666666" borderopacity="1.0" inkscape:pageshadow="2" inkscape:pageopacity="0.0" inkscape:pagecheckerboard="0" inkscape:document-units="mm" showgrid="false" inkscape:zoom="0.64052329" inkscape:cx="397.33138" inkscape:cy="561.25984" inkscape:window-width="2086" inkscape:window-height="1376" inkscape:window-x="0" inkscape:window-y="0" inkscape:window-maximized="1" inkscape:current-layer="layer1"/>
  <defs id="defs2"/>
  <g inkscape:label="Layer 1" inkscape:groupmode="layer" id="layer1">
    <metadata text="createArgs=['--unit=mm', '--inside=0', '--length=80', '--width=100', '--depth=40', '--equal=0', '--tab=6', '--tabtype=0', '--tabsymmetry=0', '--dimpleheight=0', '--dimplelength=0', '--hairline=1', '--thickness=3', '--kerf=0', '--style=1', '--boxtype=2', '--div_l=0', '--div_w=0', '--keydiv=1', '--spacing=1']"/>
    <path id="piece_001" style="fill:none;stroke:#000000;stroke-width:0.0508" d="M 42 146 L 42 152.333 L 45 152.333 L 45 158.333 L 42 158.333 L 42 167.667 L 45 167.667 L 45 173.667 L 42 173.667 L 42 183 L 122 183 L 122 173.667 L 119 173.667 L 119 167.667 L 122 167.667 L 122 158.333 L 119 158.333 L 119 152.333 L 122 152.333 L 122 146 L 115.714 146 L 115.714 143 L 109.714 143 L 109.714 146 L 103.429 146 L 103.429 143 L 97.4286 143 L 97.4286 146 L 91.1429 146 L 91.1429 143 L 85.1429 143 L 85.1429 146 L 78.8571 146 L 78.8571 143 L 72.8571 143 L 72.8571 146 L 66.5714 146 L 66.5714 143 L 60.5714 143 L 60.5714 146 L 54.2857 146 L 54.2857 143 L 48.2857 143 L 48.2857 146 L 42 146 Z"/>
    <path id="piece_002" style="fill:none;stroke:#000000;stroke-width:0.0508" d="M 1 45 L 1 139 L 10.3333 139 L 10.3333 142 L 16.3333 142 L 16.3333 139 L 25.6667 139 L 25.6667 142 L 31.6667 142 L 31.6667 139 L 38 139 L 38 134.75 L 41 134.75 L 41 128.75 L 38 128.75 L 38 121.5 L 41 121.5 L 41 115.5 L 38 115.5 L 38 108.25 L 41 108.25 L 41 102.25 L 38 102.25 L 38 95 L 41 95 L 41 89 L 38 89 L 38 81.75 L 41 81.75 L 41 75.75 L 38 75.75 L 38 68.5 L 41 68.5 L 41 62.5 L 38 62.5 L 38 55.25 L 41 55.25 L 41 49.25 L 38 49.25 L 38 45 L 31.6667 45 L 31.6667 42 L 25.6667 42 L 25.6667 45 L 16.3333 45 L 16.3333 42 L 10.3333 42 L 10.3333 45 L 1 45 Z"/>
    <path id="piece_003" style="fill:none;stroke:#000000;stroke-width:0.0508" d="M 42 42 L 42 49.25 L 45 49.25 L 45 55.25 L 42 55.25 L 42 62.5 L 45 62.5 L 45 68.5 L 42 68.5 L 42 75.75 L 45 75.75 L 45 81.75 L 42 81.75 L 42 89 L 45 89 L 45 95 L 42 95 L 42 102.25 L 45 102.25 L 45 108.25 L 42 108.25 L 42 115.5 L 45 115.5 L 45 121.5 L 42 121.5 L 42 128.75 L 45 128.75 L 45 134.75 L 42 134.75 L 42 142 L 48.2857 142 L 48.2857 139 L 54.2857 139 L 54.2857 142 L 60.5714 142 L 60.5714 139 L 66.5714 139 L 66.5714 142 L 72.8571 142 L 72.8571 139 L 78.8571 139 L 78.8571 142 L 85.1429 142 L 85.1429 139 L 91.1429 139 L 91.1429 142 L 97.4286 142 L 97.4286 139 L 103.429 139 L 103.429 142 L 109.714 142 L 109.714 139 L 115.714 139 L 115.714 142 L 122 142 L 122 134.75 L 119 134.75 L 119 128.75 L 122 128.75 L 122 121.5 L 119 121.5 L 119 115.5 L 122 115.5 L 122 108.25 L 119 108.25 L 119 102.25 L 122 102.25 L 122 95 L 119 95 L 119 89 L 122 89 L 122 81.75 L 119 81.75 L 119 75.75 L 122 75.75 L 122 68.5 L 119 68.5 L 119 62.5 L 122 62.5 L 122 55.25 L 119 55.25 L 119 49.25 L 122 49.25 L 122 42 L 115.714 42 L 115.714 45 L 109.714 45 L 109.714 42 L 103.429 42 L 103.429 45 L 97.4286 45 L 97.4286 42 L 91.1429 42 L 91.1429 45 L 85.1429 45 L 85.1429 42 L 78.8571 42 L 78.8571 45 L 72.8571 45 L 72.8571 42 L 66.5714 42 L 66.5714 45 L 60.5714 45 L 60.5714 42 L 54.2857 42 L 54.2857 45 L 48.2857 45 L 48.2857 42 L 42 42 Z"/>
    <path id="piece_004" style="fill:none;stroke:#000000;stroke-width:0.0508" d="M 126 45 L 126 49.25 L 123 49.25 L 123 55.25 L 126 55.25 L 126 62.5 L 123 62.5 L 123 68.5 L 126 68.5 L 126 75.75 L 123 75.75 L 123 81.75 L 126 81.75 L 126 89 L 123 89 L 123 95 L 126 95 L 126 102.25 L 123 102.25 L 123 108.25 L 126 108.25 L 126 115.5 L 123 115.5 L 123 121.5 L 126 121.5 L 126 128.75 L 123 128.75 L 123 134.75 L 126 134.75 L 126 139 L 132.333 139 L 132.333 142 L 138.333 142 L 138.333 139 L 147.667 139 L 147.667 142 L 153.667 142 L 153.667 139 L 163 139 L 163 45 L 153.667 45 L 153.667 42 L 147.667 42 L 147.667 45 L 138.333 45 L 138.333 42 L 132.333 42 L 132.333 45 L 126 45 Z"/>
    <path id="piece_005" style="fill:none;stroke:#000000;stroke-width:0.0508" d="M 42 1 L 42 10.3333 L 45 10.3333 L 45 16.3333 L 42 16.3333 L 42 25.6667 L 45 25.6667 L 45 31.6667 L 42 31.6667 L 42 38 L 48.2857 38 L 48.2857 41 L 54.2857 41 L 54.2857 38 L 60.5714 38 L 60.5714 41 L 66.5714 41 L 66.5714 38 L 72.8571 38 L 72.8571 41 L 78.8571 41 L 78.8571 38 L 85.1429 38 L 85.1429 41 L 91.1429 41 L 91.1429 38 L 97.4286 38 L 97.4286 41 L 103.429 41 L 103.429 38 L 109.714 38 L 109.714 41 L 115.714 41 L 115.714 38 L 122 38 L 122 31.6667 L 119 31.6667 L 119 25.6667 L 122 25.6667 L 122 16.3333 L 119 16.3333 L 119 10.3333 L 122 10.3333 L 122 1 L 42 1 Z"/>
  </g>
</svg>