<svg xmlns="http://www.w3.org/2000/svg">
<path d="M 0 2 L 0 6.75 L 2 6.75 L 2 11.25 L 0 11.25 L 0 18 L 2 18 L 2 22.5 L 0 22.5 L 0 29.25 L 2 29.25 L 2 33.75 L 0 33.75 L 0 38.5 L 7.5 38.5 L 7.5 40.5 L 13 40.5 L 13 38.5 L 20.5 38.5 L 20.5 33.75 L 18.5 33.75 L 18.5 29.25 L 20.5 29.25 L 20.5 22.5 L 18.5 22.5 L 18.5 18 L 20.5 18 L 20.5 11.25 L 18.5 11.25 L 18.5 6.75 L 20.5 6.75 L 20.5 2 L 13 2 L 13 0 L 7.5 0 L 7.5 2 L 0 2 Z M 12.5 18 L 14 18 L 14 22.5 L 12.5 22.5 L 12.5 18 Z M 12.5 29.25 L 14 29.25 L 14 33.75 L 12.5 33.75 L 12.5 29.25 Z M 12.5 6.75 L 14 6.75 L 14 11.25 L 12.5 11.25 L 12.5 6.75 Z M 6.5 18 L 8 18 L 8 22.5 L 6.5 22.5 L 6.5 18 Z M 6.5 29.25 L 8 29.25 L 8 33.75 L 6.5 33.75 L 6.5 29.25 Z M 6.5 6.75 L 8 6.75 L 8 11.25 L 6.5 11.25 L 6.5 6.75 Z" fill="none" stroke="blue"/>
</svg>
