<!-- Created with Inkscape (http://www.inkscape.org/) -->
<svg xmlns:inkscape="http://www.inkscape.org/namespaces/inkscape" xmlns:sodipodi="http://sodipodi.sourceforge.net/DTD/sodipodi-0.dtd" xmlns="http://www.w3.org/2000/svg" xmlns:svg="http://www.w3.org/2000/svg" width="210mm" height="297mm" viewBox="0 0 210 297" version="1.1" id="svg5" inkscape:version="1.1.2 (0a00cf5339, 2022-02-04)" sodipodi:docname="blank.svg">
  <sodipodi:namedview id="namedview7" pagecolor="#ffffff" bordercolor="#666666" borderopacity="1.0" inkscape:pageshadow="2" inkscape:pageopacity="0.0" inkscape:pagecheckerboard="0" inkscape:document-units="mm" showgrid="false" inkscape:zoom="0.64052329" inkscape:cx="397.33138" inkscape:cy="561.25984" inkscape:window-width="2086" inkscape:window-height="1376" inkscape:window-x="0" inkscape:window-y="0" inkscape:window-maximized="1" inkscape:current-layer="layer1"/>
  <defs id="defs2"/>
  <g inkscape:label="Layer 1" inkscape:groupmode="layer" id="layer1">
    <g id="piece_001">
      <path id="side_001" style="fill:none;stroke:#000000;stroke-width:0.050800000000000005" d="m 48 111 l 7.1429 0 l 0 -3 l 6 0 l 0 3 l 7.1428 0 l 0 -3 l 6 0 l 0 3 l 7.1429 0 l 0 -3 l 6 0 l 0 3 l 7.1428 0 l 0 -3 l 5.9996 0 l 0 3 l 7.143 0 l 0 -3 l 6 0 l 0 3 l 7.143 0 l 0 -3 l 6 0 l 0 3 l 4.143 0"/>
      <path id="side_002" style="fill:none;stroke:#000000;stroke-width:0.050800000000000005" d="m 131 111 l 0 4 l 0 0 l 0 6 l 0 0 l 0 7 l 0 0 l 0 6 l 0 0 l 0 7 l 0 0 l 0 6 l 0 0 l 0 4"/>
      <path id="side_003" style="fill:none;stroke:#000000;stroke-width:0.050800000000000005" d="m 131 151 l -4.143 0 l 0 0 l -6 0 l 0 0 l -7.143 0 l 0 0 l -6 0 l 0 0 l -7.143 0 l 0 0 l -5.9996 0 l 0 0 l -7.1428 0 l 0 0 l -6 0 l 0 0 l -7.1429 0 l 0 0 l -6 0 l 0 0 l -7.1428 0 l 0 0 l -6 0 l 0 0 l -7.1429 0"/>
      <path id="side_004" style="fill:none;stroke:#000000;stroke-width:0.050800000000000005" d="m 48 151 l 0 -4 l 3 0 l 0 -6 l -3 0 l 0 -7 l 3 0 l 0 -6 l -3 0 l 0 -7 l 3 0 l 0 -6 l -3 0 l 0 -4"/>
    </g>
    <g id="piece_002">
      <path id="side_005" style="fill:none;stroke:#000000;stroke-width:0.050800000000000005" d="m 4 4 l 4 0 l 0 0 l 6 0 l 0 0 l 7 0 l 0 0 l 6 0 l 0 0 l 7 0 l 0 0 l 6 0 l 0 0 l 4 0"/>
      <path id="side_006" style="fill:none;stroke:#000000;stroke-width:0.050800000000000005" d="m 44 4 l 0 3.44444 l 3 0 l 0 5.99996 l -3 0 l 0 6.4445 l 3 0 l 0 6 l -3 0 l 0 6.4444 l 3 0 l 0 6 l -3 0 l 0 6.4445 l 3 0 l 0 6 l -3 0 l 0 6.4444 l 3 0 l 0 6 l -3 0 l 0 6.4445 l 3 0 l 0 6 l -3 0 l 0 6.4444 l 3 0 l 0 6 l -3 0 l 0 6.4445 l 3 0 l 0 6.0004 l -3 0 l 0 3.444"/>
      <path id="side_007" style="fill:none;stroke:#000000;stroke-width:0.050800000000000005" d="m 44 104 l -4 0 l 0 3 l -6 0 l 0 -3 l -7 0 l 0 3 l -6 0 l 0 -3 l -7 0 l 0 3 l -6 0 l 0 -3 l -4 0"/>
      <path id="side_008" style="fill:none;stroke:#000000;stroke-width:0.050800000000000005" d="m 4 104 l 0 -3.444 l 0 0 l 0 -6.0004 l 0 0 l 0 -6.4445 l 0 0 l 0 -6 l 0 0 l 0 -6.4444 l 0 0 l 0 -6 l 0 0 l 0 -6.4445 l 0 0 l 0 -6 l 0 0 l 0 -6.4444 l 0 0 l 0 -6 l 0 0 l 0 -6.4445 l 0 0 l 0 -6 l 0 0 l 0 -6.4444 l 0 0 l 0 -6 l 0 0 l 0 -6.4445 l 0 0 l 0 -5.99996 l 0 0 l 0 -3.44444"/>
    </g>
    <g id="piece_003">
      <path id="side_009" style="fill:none;stroke:#000000;stroke-width:0.050800000000000005" d="m 48 4 l 7.1429 0 l 0 0 l 6 0 l 0 0 l 7.1428 0 l 0 0 l 6 0 l 0 0 l 7.1429 0 l 0 0 l 6 0 l 0 0 l 7.1428 0 l 0 0 l 5.9996 0 l 0 0 l 7.143 0 l 0 0 l 6 0 l 0 0 l 7.143 0 l 0 0 l 6 0 l 0 0 l 4.143 0"/>
      <path id="side_010" style="fill:none;stroke:#000000;stroke-width:0.050800000000000005" d="m 131 4 l 0 3.44444 l 0 0 l 0 5.99996 l 0 0 l 0 6.4445 l 0 0 l 0 6 l 0 0 l 0 6.4444 l 0 0 l 0 6 l 0 0 l 0 6.4445 l 0 0 l 0 6 l 0 0 l 0 6.4444 l 0 0 l 0 6 l 0 0 l 0 6.4445 l 0 0 l 0 6 l 0 0 l 0 6.4444 l 0 0 l 0 6 l 0 0 l 0 6.4445 l 0 0 l 0 6.0004 l 0 0 l 0 6.444"/>
      <path id="side_011" style="fill:none;stroke:#000000;stroke-width:0.050800000000000005" d="m 131 107 l -4.143 0 l 0 -3 l -6 0 l 0 3 l -7.143 0 l 0 -3 l -6 0 l 0 3 l -7.143 0 l 0 -3 l -5.9996 0 l 0 3 l -7.1428 0 l 0 -3 l -6 0 l 0 3 l -7.1429 0 l 0 -3 l -6 0 l 0 3 l -7.1428 0 l 0 -3 l -6 0 l 0 3 l -7.1429 0"/>
      <path id="side_012" style="fill:none;stroke:#000000;stroke-width:0.050800000000000005" d="m 48 107 l 0 -6.444 l 3 0 l 0 -6.0004 l -3 0 l 0 -6.4445 l 3 0 l 0 -6 l -3 0 l 0 -6.4444 l 3 0 l 0 -6 l -3 0 l 0 -6.4445 l 3 0 l 0 -6 l -3 0 l 0 -6.4444 l 3 0 l 0 -6 l -3 0 l 0 -6.4445 l 3 0 l 0 -6 l -3 0 l 0 -6.4444 l 3 0 l 0 -6 l -3 0 l 0 -6.4445 l 3 0 l 0 -5.99996 l -3 0 l 0 -3.44444"/>
    </g>
  </g>
</svg>