<!-- Created with Inkscape (http://www.inkscape.org/) -->
<svg xmlns:inkscape="http://www.inkscape.org/namespaces/inkscape" xmlns:sodipodi="http://sodipodi.sourceforge.net/DTD/sodipodi-0.dtd" xmlns="http://www.w3.org/2000/svg" xmlns:svg="http://www.w3.org/2000/svg" width="135mm" height="155mm" viewBox="0 0 135 155" version="1.1" id="svg5" inkscape:version="1.1.2 (0a00cf5339, 2022-02-04)" sodipodi:docname="blank.svg">
  <sodipodi:namedview id="namedview7" pagecolor="#ffffff" bordercolor="#666666" borderopacity="1.0" inkscape:pageshadow="2" inkscape:pageopacity="0.0" inkscape:pagecheckerboard="0" inkscape:document-units="mm" showgrid="false" inkscape:zoom="0.64052329" inkscape:cx="397.33138" inkscape:cy="561.25984" inkscape:window-width="2086" inkscape:window-height="1376" inkscape:window-x="0" inkscape:window-y="0" inkscape:window-maximized="1" inkscape:current-layer="layer1"/>
  <defs id="defs2"/>
  <g inkscape:label="Layer 1" inkscape:groupmode="layer" id="layer1">
    <metadata text="createArgs=['--unit=mm', '--inside=1', '--length=83', '--width=103', '--depth=43', '--equal=0', '--tab=6', '--tabtype=0', '--tabsymmetry=0', '--dimpleheight=0', '--dimplelength=0', '--hairline=1', '--thickness=3', '--kerf=0', '--style=1', '--boxtype=4', '--div-l=0', '--div-w=0', '--keydiv=1', '--spacing=1']"/>
    <path id="piece_001" style="fill:none;stroke:#000000;stroke-width:0.0508" d="M 1 51 L 1 154 L 44 154 L 44 147.556 L 47 147.556 L 47 141.556 L 44 141.556 L 44 135.111 L 47 135.111 L 47 129.111 L 44 129.111 L 44 122.667 L 47 122.667 L 47 116.667 L 44 116.667 L 44 110.222 L 47 110.222 L 47 104.222 L 44 104.222 L 44 97.7778 L 47 97.7778 L 47 91.7778 L 44 91.7778 L 44 85.3333 L 47 85.3333 L 47 79.3333 L 44 79.3333 L 44 72.8889 L 47 72.8889 L 47 66.8889 L 44 66.8889 L 44 60.4444 L 47 60.4444 L 47 54.4444 L 44 54.4444 L 44 51 L 40 51 L 40 48 L 34 48 L 34 51 L 27 51 L 27 48 L 21 48 L 21 51 L 14 51 L 14 48 L 8 48 L 8 51 L 1 51 Z"/>
    <path id="piece_002" style="fill:none;stroke:#000000;stroke-width:0.0508" d="M 48 48 L 48 54.4444 L 51 54.4444 L 51 60.4444 L 48 60.4444 L 48 66.8889 L 51 66.8889 L 51 72.8889 L 48 72.8889 L 48 79.3333 L 51 79.3333 L 51 85.3333 L 48 85.3333 L 48 91.7778 L 51 91.7778 L 51 97.7778 L 48 97.7778 L 48 104.222 L 51 104.222 L 51 110.222 L 48 110.222 L 48 116.667 L 51 116.667 L 51 122.667 L 48 122.667 L 48 129.111 L 51 129.111 L 51 135.111 L 48 135.111 L 48 141.556 L 51 141.556 L 51 147.556 L 48 147.556 L 48 154 L 134 154 L 134 48 L 126.857 48 L 126.857 51 L 120.857 51 L 120.857 48 L 113.714 48 L 113.714 51 L 107.714 51 L 107.714 48 L 100.571 48 L 100.571 51 L 94.5714 51 L 94.5714 48 L 87.4286 48 L 87.4286 51 L 81.4286 51 L 81.4286 48 L 74.2857 48 L 74.2857 51 L 68.2857 51 L 68.2857 48 L 61.1429 48 L 61.1429 51 L 55.1429 51 L 55.1429 48 L 48 48 Z"/>
    <path id="piece_003" style="fill:none;stroke:#000000;stroke-width:0.0508" d="M 48 1 L 48 8 L 51 8 L 51 14 L 48 14 L 48 21 L 51 21 L 51 27 L 48 27 L 48 34 L 51 34 L 51 40 L 48 40 L 48 44 L 55.1429 44 L 55.1429 47 L 61.1429 47 L 61.1429 44 L 68.2857 44 L 68.2857 47 L 74.2857 47 L 74.2857 44 L 81.4286 44 L 81.4286 47 L 87.4286 47 L 87.4286 44 L 94.5714 44 L 94.5714 47 L 100.571 47 L 100.571 44 L 107.714 44 L 107.714 47 L 113.714 47 L 113.714 44 L 120.857 44 L 120.857 47 L 126.857 47 L 126.857 44 L 134 44 L 134 1 L 48 1 Z"/>
  </g>
</svg>