<!-- Created with Inkscape (http://www.inkscape.org/) -->
<svg xmlns:inkscape="http://www.inkscape.org/namespaces/inkscape" xmlns:sodipodi="http://sodipodi.sourceforge.net/DTD/sodipodi-0.dtd" xmlns="http://www.w3.org/2000/svg" xmlns:svg="http://www.w3.org/2000/svg" width="135mm" height="108mm" viewBox="0 0 135 108" version="1.1" sodipodi:docname="blank.svg">
  <sodipodi:namedview/>
  <defs id="defaults"/>
  <g inkscape:groupmode="layer" inkscape:label="Tabbed Box" id="tabbedbox">
    <metadata text="$ boxmaker.py --unit=mm --inside=1 --length=83 --width=106 --depth=43 --equal=0 --tab=6 --tabtype=0 --tabsymmetry=0 --dimpleheight=0 --dimplelength=0 --hairline=1 --thickness=3 --kerf=0 --style=1 --boxtype=6 --div-l=0 --div-w=0 --keydiv=1 --spacing=1"/>
    <g id="left">
      <path id="side_001" style="fill:none;stroke:#000000;stroke-width:0.0508" d="M 1 1 L 44 1"/>
      <path id="side_002" style="fill:none;stroke:#000000;stroke-width:0.0508" d="M 44 1 L 44 7.44444 L 47 7.44444 L 47 13.4444 L 44 13.4444 L 44 19.8889 L 47 19.8889 L 47 25.8889 L 44 25.8889 L 44 32.3333 L 47 32.3333 L 47 38.3333 L 44 38.3333 L 44 44.7778 L 47 44.7778 L 47 50.7778 L 44 50.7778 L 44 57.2222 L 47 57.2222 L 47 63.2222 L 44 63.2222 L 44 69.6667 L 47 69.6667 L 47 75.6667 L 44 75.6667 L 44 82.1111 L 47 82.1111 L 47 88.1111 L 44 88.1111 L 44 94.5556 L 47 94.5556 L 47 100.556 L 44 100.556 L 44 107"/>
      <path id="side_003" style="fill:none;stroke:#000000;stroke-width:0.0508" d="M 44 107 L 1 107"/>
      <path id="side_004" style="fill:none;stroke:#000000;stroke-width:0.0508" d="M 1 107 L 1 1"/>
    </g>
    <g id="bottom">
      <path id="side_005" style="fill:none;stroke:#000000;stroke-width:0.0508" d="M 48 1 L 134 1"/>
      <path id="side_006" style="fill:none;stroke:#000000;stroke-width:0.0508" d="M 134 1 L 134 107"/>
      <path id="side_007" style="fill:none;stroke:#000000;stroke-width:0.0508" d="M 134 107 L 48 107"/>
      <path id="side_008" style="fill:none;stroke:#000000;stroke-width:0.0508" d="M 48 107 L 48 100.556 L 51 100.556 L 51 94.5556 L 48 94.5556 L 48 88.1111 L 51 88.1111 L 51 82.1111 L 48 82.1111 L 48 75.6667 L 51 75.6667 L 51 69.6667 L 48 69.6667 L 48 63.2222 L 51 63.2222 L 51 57.2222 L 48 57.2222 L 48 50.7778 L 51 50.7778 L 51 44.7778 L 48 44.7778 L 48 38.3333 L 51 38.3333 L 51 32.3333 L 48 32.3333 L 48 25.8889 L 51 25.8889 L 51 19.8889 L 48 19.8889 L 48 13.4444 L 51 13.4444 L 51 7.44444 L 48 7.44444 L 48 1"/>
    </g>
  </g>
</svg>