<!-- Created with Inkscape (http://www.inkscape.org/) -->
<svg xmlns:inkscape="http://www.inkscape.org/namespaces/inkscape" xmlns:sodipodi="http://sodipodi.sourceforge.net/DTD/sodipodi-0.dtd" xmlns="http://www.w3.org/2000/svg" xmlns:svg="http://www.w3.org/2000/svg" width="182mm" height="155mm" viewBox="0 0 182 155" version="1.1" id="svg5" inkscape:version="1.1.2 (0a00cf5339, 2022-02-04)" sodipodi:docname="blank.svg">
  <sodipodi:namedview id="namedview7" pagecolor="#ffffff" bordercolor="#666666" borderopacity="1.0" inkscape:pageshadow="2" inkscape:pageopacity="0.0" inkscape:pagecheckerboard="0" inkscape:document-units="mm" showgrid="false" inkscape:zoom="0.64052329" inkscape:cx="397.33138" inkscape:cy="561.25984" inkscape:window-width="2086" inkscape:window-height="1376" inkscape:window-x="0" inkscape:window-y="0" inkscape:window-maximized="1" inkscape:current-layer="layer1"/>
  <defs id="defs2"/>
  <g inkscape:label="Layer 1" inkscape:groupmode="layer" id="layer1">
    <metadata text="createArgs=['--unit=mm', '--inside=1', '--length=80', '--width=103', '--depth=43', '--equal=0', '--tab=6', '--tabtype=0', '--tabsymmetry=0', '--dimpleheight=0', '--dimplelength=0', '--hairline=1', '--thickness=3', '--kerf=0', '--style=1', '--boxtype=3', '--div_l=0', '--div_w=0', '--keydiv=1', '--spacing=1']"/>
    <g id="piece_001">
      <path id="side_001" style="fill:none;stroke:#000000;stroke-width:0.0508" d="M 48 111 L 55.1429 111 L 55.1429 108 L 61.1429 108 L 61.1429 111 L 68.2857 111 L 68.2857 108 L 74.2857 108 L 74.2857 111 L 81.4286 111 L 81.4286 108 L 87.4286 108 L 87.4286 111 L 94.5714 111 L 94.5714 108 L 100.571 108 L 100.571 111 L 107.714 111 L 107.714 108 L 113.714 108 L 113.714 111 L 120.857 111 L 120.857 108 L 126.857 108 L 126.857 111 L 134 111"/>
      <path id="side_002" style="fill:none;stroke:#000000;stroke-width:0.0508" d="M 134 111 L 134 115 L 131 115 L 131 121 L 134 121 L 134 128 L 131 128 L 131 134 L 134 134 L 134 141 L 131 141 L 131 147 L 134 147 L 134 154"/>
      <path id="side_003" style="fill:none;stroke:#000000;stroke-width:0.0508" d="M 134 154 L 126.857 154 L 126.857 154 L 120.857 154 L 120.857 154 L 113.714 154 L 113.714 154 L 107.714 154 L 107.714 154 L 100.571 154 L 100.571 154 L 94.5714 154 L 94.5714 154 L 87.4286 154 L 87.4286 154 L 81.4286 154 L 81.4286 154 L 74.2857 154 L 74.2857 154 L 68.2857 154 L 68.2857 154 L 61.1429 154 L 61.1429 154 L 55.1429 154 L 55.1429 154 L 48 154"/>
      <path id="side_004" style="fill:none;stroke:#000000;stroke-width:0.0508" d="M 48 154 L 48 147 L 51 147 L 51 141 L 48 141 L 48 134 L 51 134 L 51 128 L 48 128 L 48 121 L 51 121 L 51 115 L 48 115 L 48 111"/>
    </g>
    <g id="piece_002">
      <path id="side_005" style="fill:none;stroke:#000000;stroke-width:0.0508" d="M 1 1 L 8 1 L 8 1 L 14 1 L 14 1 L 21 1 L 21 1 L 27 1 L 27 1 L 34 1 L 34 1 L 40 1 L 40 1 L 44 1"/>
      <path id="side_006" style="fill:none;stroke:#000000;stroke-width:0.0508" d="M 44 1 L 44 7.44444 L 47 7.44444 L 47 13.4444 L 44 13.4444 L 44 19.8889 L 47 19.8889 L 47 25.8889 L 44 25.8889 L 44 32.3333 L 47 32.3333 L 47 38.3333 L 44 38.3333 L 44 44.7778 L 47 44.7778 L 47 50.7778 L 44 50.7778 L 44 57.2222 L 47 57.2222 L 47 63.2222 L 44 63.2222 L 44 69.6667 L 47 69.6667 L 47 75.6667 L 44 75.6667 L 44 82.1111 L 47 82.1111 L 47 88.1111 L 44 88.1111 L 44 94.5556 L 47 94.5556 L 47 100.556 L 44 100.556 L 44 104"/>
      <path id="side_007" style="fill:none;stroke:#000000;stroke-width:0.0508" d="M 44 104 L 40 104 L 40 107 L 34 107 L 34 104 L 27 104 L 27 107 L 21 107 L 21 104 L 14 104 L 14 107 L 8 107 L 8 104 L 1 104"/>
      <path id="side_008" style="fill:none;stroke:#000000;stroke-width:0.0508" d="M 1 104 L 1 100.556 L 1 100.556 L 1 94.5556 L 1 94.5556 L 1 88.1111 L 1 88.1111 L 1 82.1111 L 1 82.1111 L 1 75.6667 L 1 75.6667 L 1 69.6667 L 1 69.6667 L 1 63.2222 L 1 63.2222 L 1 57.2222 L 1 57.2222 L 1 50.7778 L 1 50.7778 L 1 44.7778 L 1 44.7778 L 1 38.3333 L 1 38.3333 L 1 32.3333 L 1 32.3333 L 1 25.8889 L 1 25.8889 L 1 19.8889 L 1 19.8889 L 1 13.4444 L 1 13.4444 L 1 7.4444 L 1 7.4444 L 1 1"/>
    </g>
    <g id="piece_003">
      <path id="side_009" style="fill:none;stroke:#000000;stroke-width:0.0508" d="M 48 1 L 55.1429 1 L 55.1429 1 L 61.1429 1 L 61.1429 1 L 68.2857 1 L 68.2857 1 L 74.2857 1 L 74.2857 1 L 81.4286 1 L 81.4286 1 L 87.4286 1 L 87.4286 1 L 94.5714 1 L 94.5714 1 L 100.571 1 L 100.571 1 L 107.714 1 L 107.714 1 L 113.714 1 L 113.714 1 L 120.857 1 L 120.857 1 L 126.857 1 L 126.857 1 L 134 1"/>
      <path id="side_010" style="fill:none;stroke:#000000;stroke-width:0.0508" d="M 134 1 L 134 7.44444 L 131 7.44444 L 131 13.4444 L 134 13.4444 L 134 19.8889 L 131 19.8889 L 131 25.8889 L 134 25.8889 L 134 32.3333 L 131 32.3333 L 131 38.3333 L 134 38.3333 L 134 44.7778 L 131 44.7778 L 131 50.7778 L 134 50.7778 L 134 57.2222 L 131 57.2222 L 131 63.2222 L 134 63.2222 L 134 69.6667 L 131 69.6667 L 131 75.6667 L 134 75.6667 L 134 82.1111 L 131 82.1111 L 131 88.1111 L 134 88.1111 L 134 94.5556 L 131 94.5556 L 131 100.556 L 134 100.556 L 134 107"/>
      <path id="side_011" style="fill:none;stroke:#000000;stroke-width:0.0508" d="M 134 107 L 126.857 107 L 126.857 104 L 120.857 104 L 120.857 107 L 113.714 107 L 113.714 104 L 107.714 104 L 107.714 107 L 100.571 107 L 100.571 104 L 94.5714 104 L 94.5714 107 L 87.4286 107 L 87.4286 104 L 81.4286 104 L 81.4286 107 L 74.2857 107 L 74.2857 104 L 68.2857 104 L 68.2857 107 L 61.1429 107 L 61.1429 104 L 55.1429 104 L 55.1429 107 L 48 107"/>
      <path id="side_012" style="fill:none;stroke:#000000;stroke-width:0.0508" d="M 48 107 L 48 100.556 L 51 100.556 L 51 94.5556 L 48 94.5556 L 48 88.1111 L 51 88.1111 L 51 82.1111 L 48 82.1111 L 48 75.6667 L 51 75.6667 L 51 69.6667 L 48 69.6667 L 48 63.2222 L 51 63.2222 L 51 57.2222 L 48 57.2222 L 48 50.7778 L 51 50.7778 L 51 44.7778 L 48 44.7778 L 48 38.3333 L 51 38.3333 L 51 32.3333 L 48 32.3333 L 48 25.8889 L 51 25.8889 L 51 19.8889 L 48 19.8889 L 48 13.4444 L 51 13.4444 L 51 7.4444 L 48 7.4444 L 48 1"/>
    </g>
    <g id="piece_004">
      <path id="side_013" style="fill:none;stroke:#000000;stroke-width:0.0508" d="M 138 1 L 142 1 L 142 1 L 148 1 L 148 1 L 155 1 L 155 1 L 161 1 L 161 1 L 168 1 L 168 1 L 174 1 L 174 1 L 181 1"/>
      <path id="side_014" style="fill:none;stroke:#000000;stroke-width:0.0508" d="M 181 1 L 181 7.44444 L 181 7.44444 L 181 13.4444 L 181 13.4444 L 181 19.8889 L 181 19.8889 L 181 25.8889 L 181 25.8889 L 181 32.3333 L 181 32.3333 L 181 38.3333 L 181 38.3333 L 181 44.7778 L 181 44.7778 L 181 50.7778 L 181 50.7778 L 181 57.2222 L 181 57.2222 L 181 63.2222 L 181 63.2222 L 181 69.6667 L 181 69.6667 L 181 75.6667 L 181 75.6667 L 181 82.1111 L 181 82.1111 L 181 88.1111 L 181 88.1111 L 181 94.5556 L 181 94.5556 L 181 100.556 L 181 100.556 L 181 104"/>
      <path id="side_015" style="fill:none;stroke:#000000;stroke-width:0.0508" d="M 181 104 L 174 104 L 174 107 L 168 107 L 168 104 L 161 104 L 161 107 L 155 107 L 155 104 L 148 104 L 148 107 L 142 107 L 142 104 L 138 104"/>
      <path id="side_016" style="fill:none;stroke:#000000;stroke-width:0.0508" d="M 138 104 L 138 100.556 L 135 100.556 L 135 94.5556 L 138 94.5556 L 138 88.1111 L 135 88.1111 L 135 82.1111 L 138 82.1111 L 138 75.6667 L 135 75.6667 L 135 69.6667 L 138 69.6667 L 138 63.2222 L 135 63.2222 L 135 57.2222 L 138 57.2222 L 138 50.7778 L 135 50.7778 L 135 44.7778 L 138 44.7778 L 138 38.3333 L 135 38.3333 L 135 32.3333 L 138 32.3333 L 138 25.8889 L 135 25.8889 L 135 19.8889 L 138 19.8889 L 138 13.4444 L 135 13.4444 L 135 7.4444 L 138 7.4444 L 138 1"/>
    </g>
  </g>
</svg>