<!-- Created with Inkscape (http://www.inkscape.org/) -->
<svg xmlns:inkscape="http://www.inkscape.org/namespaces/inkscape" xmlns:sodipodi="http://sodipodi.sourceforge.net/DTD/sodipodi-0.dtd" xmlns="http://www.w3.org/2000/svg" xmlns:svg="http://www.w3.org/2000/svg" width="135mm" height="108mm" viewBox="0 0 135 108" version="1.1" id="svg5" inkscape:version="1.1.2 (0a00cf5339, 2022-02-04)" sodipodi:docname="blank.svg">
  <sodipodi:namedview id="namedview7" pagecolor="#ffffff" bordercolor="#666666" borderopacity="1.0" inkscape:pageshadow="2" inkscape:pageopacity="0.0" inkscape:pagecheckerboard="0" inkscape:document-units="mm" showgrid="false" inkscape:zoom="0.64052329" inkscape:cx="397.33138" inkscape:cy="561.25984" inkscape:window-width="2086" inkscape:window-height="1376" inkscape:window-x="0" inkscape:window-y="0" inkscape:window-maximized="1" inkscape:current-layer="layer1"/>
  <defs id="defs2"/>
  <g inkscape:label="Layer 1" inkscape:groupmode="layer" id="layer1">
    <metadata text="createArgs=['--unit=mm', '--inside=1', '--length=83', '--width=106', '--depth=43', '--equal=0', '--tab=6', '--tabtype=0', '--tabsymmetry=0', '--dimpleheight=0', '--dimplelength=0', '--hairline=1', '--thickness=3', '--kerf=0', '--style=1', '--boxtype=6', '--div-l=0', '--div-w=0', '--keydiv=1', '--spacing=1']"/>
    <g id="piece_001">
      <path id="side_001" style="fill:none;stroke:#000000;stroke-width:0.0508" d="M 1 1 L 8 1 L 8 1 L 14 1 L 14 1 L 21 1 L 21 1 L 27 1 L 27 1 L 34 1 L 34 1 L 40 1 L 40 1 L 44 1"/>
      <path id="side_002" style="fill:none;stroke:#000000;stroke-width:0.0508" d="M 44 1 L 44 7.44444 L 47 7.44444 L 47 13.4444 L 44 13.4444 L 44 19.8889 L 47 19.8889 L 47 25.8889 L 44 25.8889 L 44 32.3333 L 47 32.3333 L 47 38.3333 L 44 38.3333 L 44 44.7778 L 47 44.7778 L 47 50.7778 L 44 50.7778 L 44 57.2222 L 47 57.2222 L 47 63.2222 L 44 63.2222 L 44 69.6667 L 47 69.6667 L 47 75.6667 L 44 75.6667 L 44 82.1111 L 47 82.1111 L 47 88.1111 L 44 88.1111 L 44 94.5556 L 47 94.5556 L 47 100.556 L 44 100.556 L 44 107"/>
      <path id="side_003" style="fill:none;stroke:#000000;stroke-width:0.0508" d="M 44 107 L 40 107 L 40 107 L 34 107 L 34 107 L 27 107 L 27 107 L 21 107 L 21 107 L 14 107 L 14 107 L 8 107 L 8 107 L 1 107"/>
      <path id="side_004" style="fill:none;stroke:#000000;stroke-width:0.0508" d="M 1 107 L 1 100.556 L 1 100.556 L 1 94.5556 L 1 94.5556 L 1 88.1111 L 1 88.1111 L 1 82.1111 L 1 82.1111 L 1 75.6667 L 1 75.6667 L 1 69.6667 L 1 69.6667 L 1 63.2222 L 1 63.2222 L 1 57.2222 L 1 57.2222 L 1 50.7778 L 1 50.7778 L 1 44.7778 L 1 44.7778 L 1 38.3333 L 1 38.3333 L 1 32.3333 L 1 32.3333 L 1 25.8889 L 1 25.8889 L 1 19.8889 L 1 19.8889 L 1 13.4444 L 1 13.4444 L 1 7.44444 L 1 7.44444 L 1 1"/>
    </g>
    <g id="piece_002">
      <path id="side_005" style="fill:none;stroke:#000000;stroke-width:0.0508" d="M 48 1 L 55.1429 1 L 55.1429 1 L 61.1429 1 L 61.1429 1 L 68.2857 1 L 68.2857 1 L 74.2857 1 L 74.2857 1 L 81.4286 1 L 81.4286 1 L 87.4286 1 L 87.4286 1 L 94.5714 1 L 94.5714 1 L 100.571 1 L 100.571 1 L 107.714 1 L 107.714 1 L 113.714 1 L 113.714 1 L 120.857 1 L 120.857 1 L 126.857 1 L 126.857 1 L 134 1"/>
      <path id="side_006" style="fill:none;stroke:#000000;stroke-width:0.0508" d="M 134 1 L 134 7.44444 L 134 7.44444 L 134 13.4444 L 134 13.4444 L 134 19.8889 L 134 19.8889 L 134 25.8889 L 134 25.8889 L 134 32.3333 L 134 32.3333 L 134 38.3333 L 134 38.3333 L 134 44.7778 L 134 44.7778 L 134 50.7778 L 134 50.7778 L 134 57.2222 L 134 57.2222 L 134 63.2222 L 134 63.2222 L 134 69.6667 L 134 69.6667 L 134 75.6667 L 134 75.6667 L 134 82.1111 L 134 82.1111 L 134 88.1111 L 134 88.1111 L 134 94.5556 L 134 94.5556 L 134 100.556 L 134 100.556 L 134 107"/>
      <path id="side_007" style="fill:none;stroke:#000000;stroke-width:0.0508" d="M 134 107 L 126.857 107 L 126.857 107 L 120.857 107 L 120.857 107 L 113.714 107 L 113.714 107 L 107.714 107 L 107.714 107 L 100.571 107 L 100.571 107 L 94.5714 107 L 94.5714 107 L 87.4286 107 L 87.4286 107 L 81.4286 107 L 81.4286 107 L 74.2857 107 L 74.2857 107 L 68.2857 107 L 68.2857 107 L 61.1429 107 L 61.1429 107 L 55.1429 107 L 55.1429 107 L 48 107"/>
      <path id="side_008" style="fill:none;stroke:#000000;stroke-width:0.0508" d="M 48 107 L 48 100.556 L 51 100.556 L 51 94.5556 L 48 94.5556 L 48 88.1111 L 51 88.1111 L 51 82.1111 L 48 82.1111 L 48 75.6667 L 51 75.6667 L 51 69.6667 L 48 69.6667 L 48 63.2222 L 51 63.2222 L 51 57.2222 L 48 57.2222 L 48 50.7778 L 51 50.7778 L 51 44.7778 L 48 44.7778 L 48 38.3333 L 51 38.3333 L 51 32.3333 L 48 32.3333 L 48 25.8889 L 51 25.8889 L 51 19.8889 L 48 19.8889 L 48 13.4444 L 51 13.4444 L 51 7.44444 L 48 7.44444 L 48 1"/>
    </g>
  </g>
</svg>