<!-- Created with Inkscape (http://www.inkscape.org/) -->
<svg xmlns:inkscape="http://www.inkscape.org/namespaces/inkscape" xmlns:sodipodi="http://sodipodi.sourceforge.net/DTD/sodipodi-0.dtd" xmlns="http://www.w3.org/2000/svg" xmlns:svg="http://www.w3.org/2000/svg" width="226mm" height="246mm" viewBox="0 0 226 246" version="1.1" sodipodi:docname="blank.svg">
  <sodipodi:namedview/>
  <defs id="defaults"/>
  <g inkscape:groupmode="layer" inkscape:label="Tabbed Box" id="tabbedbox">
    <metadata text="$ boxmaker.py --unit=mm --inside=1 --length=80 --width=100 --depth=43 --equal=0 --tab=6 --tabtype=0 --tabsymmetry=0 --dimpleheight=0 --dimplelength=0 --hairline=1 --thickness=3 --kerf=0 --style=1 --boxtype=2 --div-l=1 --div-w=1 --keydiv=3 --spacing=1"/>
    <g id="back">
      <path id="side_001" style="fill:none;stroke:#000000;stroke-width:0.0508" d="M 48 158 L 55.1429 158 L 55.1429 155 L 61.1429 155 L 61.1429 158 L 68.2857 158 L 68.2857 155 L 74.2857 155 L 74.2857 158 L 81.4286 158 L 81.4286 155 L 87.4286 155 L 87.4286 158 L 94.5714 158 L 94.5714 155 L 100.571 155 L 100.571 158 L 107.714 158 L 107.714 155 L 113.714 155 L 113.714 158 L 120.857 158 L 120.857 155 L 126.857 155 L 126.857 158 L 134 158"/>
      <path id="side_002" style="fill:none;stroke:#000000;stroke-width:0.0508" d="M 134 158 L 134 162 L 131 162 L 131 168 L 134 168 L 134 175 L 131 175 L 131 181 L 134 181 L 134 188 L 131 188 L 131 194 L 134 194 L 134 201"/>
      <path id="side_003" style="fill:none;stroke:#000000;stroke-width:0.0508" d="M 134 201 L 48 201"/>
      <path id="side_004" style="fill:none;stroke:#000000;stroke-width:0.0508" d="M 48 201 L 48 194 L 51 194 L 51 188 L 48 188 L 48 181 L 51 181 L 51 175 L 48 175 L 48 168 L 51 168 L 51 162 L 48 162 L 48 158"/>
    </g>
    <g id="xdivider">
      <path id="side_005" style="fill:none;stroke:#000000;stroke-width:0.0508" d="M 51 202 L 131 202"/>
      <path id="side_006" style="fill:none;stroke:#000000;stroke-width:0.0508" d="M 131 202 L 131 245"/>
      <path id="side_007" style="fill:none;stroke:#000000;stroke-width:0.0508" d="M 131 245 L 51 245"/>
      <path id="side_008" style="fill:none;stroke:#000000;stroke-width:0.0508" d="M 51 245 L 51 202"/>
      <path id="slot_001" style="fill:none;stroke:#000000;stroke-width:0.0508" d="M 89.5 245 L 89.5 223.5 L 92.5 223.5 L 92.5 245 L 89.5 245 Z"/>
    </g>
    <g id="left">
      <path id="side_009" style="fill:none;stroke:#000000;stroke-width:0.0508" d="M 1 51 L 8 51 L 8 48 L 14 48 L 14 51 L 21 51 L 21 48 L 27 48 L 27 51 L 34 51 L 34 48 L 40 48 L 40 51 L 44 51"/>
      <path id="side_010" style="fill:none;stroke:#000000;stroke-width:0.0508" d="M 44 51 L 44 54.4444 L 47 54.4444 L 47 60.4444 L 44 60.4444 L 44 66.8889 L 47 66.8889 L 47 72.8889 L 44 72.8889 L 44 79.3333 L 47 79.3333 L 47 85.3333 L 44 85.3333 L 44 91.7778 L 47 91.7778 L 47 97.7778 L 44 97.7778 L 44 104.222 L 47 104.222 L 47 110.222 L 44 110.222 L 44 116.667 L 47 116.667 L 47 122.667 L 44 122.667 L 44 129.111 L 47 129.111 L 47 135.111 L 44 135.111 L 44 141.556 L 47 141.556 L 47 147.556 L 44 147.556 L 44 151"/>
      <path id="side_011" style="fill:none;stroke:#000000;stroke-width:0.0508" d="M 44 151 L 40 151 L 40 154 L 34 154 L 34 151 L 27 151 L 27 154 L 21 154 L 21 151 L 14 151 L 14 154 L 8 154 L 8 151 L 1 151"/>
      <path id="side_012" style="fill:none;stroke:#000000;stroke-width:0.0508" d="M 1 151 L 1 51"/>
    </g>
    <g id="ydivider">
      <path id="side_013" style="fill:none;stroke:#000000;stroke-width:0.0508" d="M 182 51 L 225 51"/>
      <path id="slot_002" style="fill:none;stroke:#000000;stroke-width:0.0508" d="M 182 99.5 L 203.5 99.5 L 203.5 102.5 L 182 102.5 L 182 99.5 Z"/>
      <path id="side_014" style="fill:none;stroke:#000000;stroke-width:0.0508" d="M 225 51 L 225 151"/>
      <path id="side_015" style="fill:none;stroke:#000000;stroke-width:0.0508" d="M 225 151 L 182 151"/>
      <path id="side_016" style="fill:none;stroke:#000000;stroke-width:0.0508" d="M 182 151 L 182 51"/>
    </g>
    <g id="bottom">
      <path id="side_017" style="fill:none;stroke:#000000;stroke-width:0.0508" d="M 48 48 L 55.1429 48 L 55.1429 51 L 61.1429 51 L 61.1429 48 L 68.2857 48 L 68.2857 51 L 74.2857 51 L 74.2857 48 L 81.4286 48 L 81.4286 51 L 87.4286 51 L 87.4286 48 L 94.5714 48 L 94.5714 51 L 100.571 51 L 100.571 48 L 107.714 48 L 107.714 51 L 113.714 51 L 113.714 48 L 120.857 48 L 120.857 51 L 126.857 51 L 126.857 48 L 134 48"/>
      <path id="side_018" style="fill:none;stroke:#000000;stroke-width:0.0508" d="M 134 48 L 134 54.4444 L 131 54.4444 L 131 60.4444 L 134 60.4444 L 134 66.8889 L 131 66.8889 L 131 72.8889 L 134 72.8889 L 134 79.3333 L 131 79.3333 L 131 85.3333 L 134 85.3333 L 134 91.7778 L 131 91.7778 L 131 97.7778 L 134 97.7778 L 134 104.222 L 131 104.222 L 131 110.222 L 134 110.222 L 134 116.667 L 131 116.667 L 131 122.667 L 134 122.667 L 134 129.111 L 131 129.111 L 131 135.111 L 134 135.111 L 134 141.556 L 131 141.556 L 131 147.556 L 134 147.556 L 134 154"/>
      <path id="side_019" style="fill:none;stroke:#000000;stroke-width:0.0508" d="M 134 154 L 126.857 154 L 126.857 151 L 120.857 151 L 120.857 154 L 113.714 154 L 113.714 151 L 107.714 151 L 107.714 154 L 100.571 154 L 100.571 151 L 94.5714 151 L 94.5714 154 L 87.4286 154 L 87.4286 151 L 81.4286 151 L 81.4286 154 L 74.2857 154 L 74.2857 151 L 68.2857 151 L 68.2857 154 L 61.1429 154 L 61.1429 151 L 55.1429 151 L 55.1429 154 L 48 154"/>
      <path id="side_020" style="fill:none;stroke:#000000;stroke-width:0.0508" d="M 48 154 L 48 147.556 L 51 147.556 L 51 141.556 L 48 141.556 L 48 135.111 L 51 135.111 L 51 129.111 L 48 129.111 L 48 122.667 L 51 122.667 L 51 116.667 L 48 116.667 L 48 110.222 L 51 110.222 L 51 104.222 L 48 104.222 L 48 97.7778 L 51 97.7778 L 51 91.7778 L 48 91.7778 L 48 85.3333 L 51 85.3333 L 51 79.3333 L 48 79.3333 L 48 72.8889 L 51 72.8889 L 51 66.8889 L 48 66.8889 L 48 60.4444 L 51 60.4444 L 51 54.4444 L 48 54.4444 L 48 48"/>
    </g>
    <g id="right">
      <path id="side_021" style="fill:none;stroke:#000000;stroke-width:0.0508" d="M 138 51 L 142 51 L 142 48 L 148 48 L 148 51 L 155 51 L 155 48 L 161 48 L 161 51 L 168 51 L 168 48 L 174 48 L 174 51 L 181 51"/>
      <path id="side_022" style="fill:none;stroke:#000000;stroke-width:0.0508" d="M 181 51 L 181 151"/>
      <path id="side_023" style="fill:none;stroke:#000000;stroke-width:0.0508" d="M 181 151 L 174 151 L 174 154 L 168 154 L 168 151 L 161 151 L 161 154 L 155 154 L 155 151 L 148 151 L 148 154 L 142 154 L 142 151 L 138 151"/>
      <path id="side_024" style="fill:none;stroke:#000000;stroke-width:0.0508" d="M 138 151 L 138 147.556 L 135 147.556 L 135 141.556 L 138 141.556 L 138 135.111 L 135 135.111 L 135 129.111 L 138 129.111 L 138 122.667 L 135 122.667 L 135 116.667 L 138 116.667 L 138 110.222 L 135 110.222 L 135 104.222 L 138 104.222 L 138 97.7778 L 135 97.7778 L 135 91.7778 L 138 91.7778 L 138 85.3333 L 135 85.3333 L 135 79.3333 L 138 79.3333 L 138 72.8889 L 135 72.8889 L 135 66.8889 L 138 66.8889 L 138 60.4444 L 135 60.4444 L 135 54.4444 L 138 54.4444 L 138 51"/>
    </g>
    <g id="front">
      <path id="side_025" style="fill:none;stroke:#000000;stroke-width:0.0508" d="M 48 1 L 134 1"/>
      <path id="side_026" style="fill:none;stroke:#000000;stroke-width:0.0508" d="M 134 1 L 134 8 L 131 8 L 131 14 L 134 14 L 134 21 L 131 21 L 131 27 L 134 27 L 134 34 L 131 34 L 131 40 L 134 40 L 134 44"/>
      <path id="side_027" style="fill:none;stroke:#000000;stroke-width:0.0508" d="M 134 44 L 126.857 44 L 126.857 47 L 120.857 47 L 120.857 44 L 113.714 44 L 113.714 47 L 107.714 47 L 107.714 44 L 100.571 44 L 100.571 47 L 94.5714 47 L 94.5714 44 L 87.4286 44 L 87.4286 47 L 81.4286 47 L 81.4286 44 L 74.2857 44 L 74.2857 47 L 68.2857 47 L 68.2857 44 L 61.1429 44 L 61.1429 47 L 55.1429 47 L 55.1429 44 L 48 44"/>
      <path id="side_028" style="fill:none;stroke:#000000;stroke-width:0.0508" d="M 48 44 L 48 40 L 51 40 L 51 34 L 48 34 L 48 27 L 51 27 L 51 21 L 48 21 L 48 14 L 51 14 L 51 8 L 48 8 L 48 1"/>
    </g>
  </g>
</svg>