<!-- Created with Inkscape (http://www.inkscape.org/) -->
<svg xmlns:inkscape="http://www.inkscape.org/namespaces/inkscape" xmlns:sodipodi="http://sodipodi.sourceforge.net/DTD/sodipodi-0.dtd" xmlns="http://www.w3.org/2000/svg" xmlns:svg="http://www.w3.org/2000/svg" width="182mm" height="202mm" viewBox="0 0 182 202" version="1.1" sodipodi:docname="blank.svg">
  <sodipodi:namedview/>
  <defs id="defaults"/>
  <g inkscape:label="Tabbed Box" id="tabbedbox">
    <metadata text="$ boxmaker.py --unit=mm --inside=1 --length=80 --width=100 --depth=43 --equal=0 --tab=6 --tabtype=0 --tabsymmetry=1 --dimpleheight=0 --dimplelength=0 --hairline=1 --thickness=3 --kerf=0 --style=1 --boxtype=2 --div-l=0 --div-w=0 --keydiv=1 --spacing=1"/>
    <g id="back">
      <path id="side_001" style="fill:none;stroke:#000000;stroke-width:0.0508" d="m 48 158 l 8.7143 0 l 0 -3 l 5.7143 0 l 0 3 l 5.7143 0 l 0 -3 l 5.7142 0 l 0 3 l 5.7143 0 l 0 -3 l 5.7143 0 l 0 3 l 5.7143 0 l 0 -3 l 5.7143 0 l 0 3 l 5.7147 0 l 0 -3 l 5.714 0 l 0 3 l 5.714 0 l 0 -3 l 5.714 0 l 0 3 l 5.715 0 l 0 -3 l 5.714 0"/>
      <path id="side_002" style="fill:none;stroke:#000000;stroke-width:0.0508" d="m 131 155 l 0 10.167 l 3 0 l 0 7.166 l -3 0 l 0 7.167 l 3 0 l 0 7.167 l -3 0 l 0 7.166 l 3 0 l 0 7.167"/>
      <path id="side_003" style="fill:none;stroke:#000000;stroke-width:0.0508" d="m 134 201 l -8.714 0 l 0 0 l -5.715 0 l 0 0 l -5.714 0 l 0 0 l -5.714 0 l 0 0 l -5.714 0 l 0 0 l -5.7147 0 l 0 0 l -5.7143 0 l 0 0 l -5.7143 0 l 0 0 l -5.7143 0 l 0 0 l -5.7143 0 l 0 0 l -5.7142 0 l 0 0 l -5.7143 0 l 0 0 l -5.7143 0 l 0 0 l -5.7143 0"/>
      <path id="side_004" style="fill:none;stroke:#000000;stroke-width:0.0508" d="m 51 201 l 0 -7.167 l -3 0 l 0 -7.166 l 3 0 l 0 -7.167 l -3 0 l 0 -7.167 l 3 0 l 0 -7.166 l -3 0 l 0 -7.167"/>
    </g>
    <g id="left">
      <path id="side_005" style="fill:none;stroke:#000000;stroke-width:0.0508" d="m 1 51 l 7.16667 0 l 0 -3 l 7.16663 0 l 0 3 l 7.1667 0 l 0 -3 l 7.1667 0 l 0 3 l 7.1666 0 l 0 -3 l 7.1667 0"/>
      <path id="side_006" style="fill:none;stroke:#000000;stroke-width:0.0508" d="m 44 48 l 0 9.25 l 3 0 l 0 6.25 l -3 0 l 0 6.25 l 3 0 l 0 6.25 l -3 0 l 0 6.25 l 3 0 l 0 6.25 l -3 0 l 0 6.25 l 3 0 l 0 6.25 l -3 0 l 0 6.25 l 3 0 l 0 6.25 l -3 0 l 0 6.25 l 3 0 l 0 6.25 l -3 0 l 0 6.25 l 3 0 l 0 6.25 l -3 0 l 0 6.25 l 3 0 l 0 6.25"/>
      <path id="side_007" style="fill:none;stroke:#000000;stroke-width:0.0508" d="m 47 151 l -10.1667 0 l 0 3 l -7.1666 0 l 0 -3 l -7.1667 0 l 0 3 l -7.1667 0 l 0 -3 l -7.16663 0 l 0 3 l -7.16667 0"/>
      <path id="side_008" style="fill:none;stroke:#000000;stroke-width:0.0508" d="m 1 154 l 0 -9.25 l 0 0 l 0 -6.25 l 0 0 l 0 -6.25 l 0 0 l 0 -6.25 l 0 0 l 0 -6.25 l 0 0 l 0 -6.25 l 0 0 l 0 -6.25 l 0 0 l 0 -6.25 l 0 0 l 0 -6.25 l 0 0 l 0 -6.25 l 0 0 l 0 -6.25 l 0 0 l 0 -6.25 l 0 0 l 0 -6.25 l 0 0 l 0 -6.25 l 0 0 l 0 -6.25 l 0 0 l 0 -6.25"/>
    </g>
    <g id="bottom">
      <path id="side_009" style="fill:none;stroke:#000000;stroke-width:0.0508" d="m 48 51 l 0 -3 l 3 0 l 0 3 l 5.7143 0 l 0 -3 l 5.7143 0 l 0 3 l 5.7143 0 l 0 -3 l 5.7142 0 l 0 3 l 5.7143 0 l 0 -3 l 5.7143 0 l 0 3 l 5.7143 0 l 0 -3 l 5.7143 0 l 0 3 l 5.7147 0 l 0 -3 l 5.714 0 l 0 3 l 5.714 0 l 0 -3 l 5.714 0 l 0 3 l 5.715 0 l 0 -3 l 5.714 0"/>
      <path id="side_010" style="fill:none;stroke:#000000;stroke-width:0.0508" d="m 131 48 l 3 0 l 0 3 l -3 0 l 0 6.25 l 3 0 l 0 6.25 l -3 0 l 0 6.25 l 3 0 l 0 6.25 l -3 0 l 0 6.25 l 3 0 l 0 6.25 l -3 0 l 0 6.25 l 3 0 l 0 6.25 l -3 0 l 0 6.25 l 3 0 l 0 6.25 l -3 0 l 0 6.25 l 3 0 l 0 6.25 l -3 0 l 0 6.25 l 3 0 l 0 6.25 l -3 0 l 0 6.25 l 3 0 l 0 6.25"/>
      <path id="side_011" style="fill:none;stroke:#000000;stroke-width:0.0508" d="m 134 151 l 0 3 l -3 0 l 0 -3 l -5.714 0 l 0 3 l -5.715 0 l 0 -3 l -5.714 0 l 0 3 l -5.714 0 l 0 -3 l -5.714 0 l 0 3 l -5.7147 0 l 0 -3 l -5.7143 0 l 0 3 l -5.7143 0 l 0 -3 l -5.7143 0 l 0 3 l -5.7143 0 l 0 -3 l -5.7142 0 l 0 3 l -5.7143 0 l 0 -3 l -5.7143 0 l 0 3 l -5.7143 0"/>
      <path id="side_012" style="fill:none;stroke:#000000;stroke-width:0.0508" d="m 51 154 l -3 0 l 0 -3 l 3 0 l 0 -6.25 l -3 0 l 0 -6.25 l 3 0 l 0 -6.25 l -3 0 l 0 -6.25 l 3 0 l 0 -6.25 l -3 0 l 0 -6.25 l 3 0 l 0 -6.25 l -3 0 l 0 -6.25 l 3 0 l 0 -6.25 l -3 0 l 0 -6.25 l 3 0 l 0 -6.25 l -3 0 l 0 -6.25 l 3 0 l 0 -6.25 l -3 0 l 0 -6.25 l 3 0 l 0 -6.25 l -3 0 l 0 -6.25"/>
    </g>
    <g id="right">
      <path id="side_013" style="fill:none;stroke:#000000;stroke-width:0.0508" d="m 135 51 l 10.167 0 l 0 -3 l 7.166 0 l 0 3 l 7.167 0 l 0 -3 l 7.167 0 l 0 3 l 7.166 0 l 0 -3 l 7.167 0"/>
      <path id="side_014" style="fill:none;stroke:#000000;stroke-width:0.0508" d="m 181 48 l 0 9.25 l 0 0 l 0 6.25 l 0 0 l 0 6.25 l 0 0 l 0 6.25 l 0 0 l 0 6.25 l 0 0 l 0 6.25 l 0 0 l 0 6.25 l 0 0 l 0 6.25 l 0 0 l 0 6.25 l 0 0 l 0 6.25 l 0 0 l 0 6.25 l 0 0 l 0 6.25 l 0 0 l 0 6.25 l 0 0 l 0 6.25 l 0 0 l 0 6.25 l 0 0 l 0 6.25"/>
      <path id="side_015" style="fill:none;stroke:#000000;stroke-width:0.0508" d="m 181 151 l -7.167 0 l 0 3 l -7.166 0 l 0 -3 l -7.167 0 l 0 3 l -7.167 0 l 0 -3 l -7.166 0 l 0 3 l -7.167 0"/>
      <path id="side_016" style="fill:none;stroke:#000000;stroke-width:0.0508" d="m 138 154 l 0 -9.25 l -3 0 l 0 -6.25 l 3 0 l 0 -6.25 l -3 0 l 0 -6.25 l 3 0 l 0 -6.25 l -3 0 l 0 -6.25 l 3 0 l 0 -6.25 l -3 0 l 0 -6.25 l 3 0 l 0 -6.25 l -3 0 l 0 -6.25 l 3 0 l 0 -6.25 l -3 0 l 0 -6.25 l 3 0 l 0 -6.25 l -3 0 l 0 -6.25 l 3 0 l 0 -6.25 l -3 0 l 0 -6.25"/>
    </g>
    <g id="front">
      <path id="side_017" style="fill:none;stroke:#000000;stroke-width:0.0508" d="m 48 1 l 8.7143 0 l 0 0 l 5.7143 0 l 0 0 l 5.7143 0 l 0 0 l 5.7142 0 l 0 0 l 5.7143 0 l 0 0 l 5.7143 0 l 0 0 l 5.7143 0 l 0 0 l 5.7143 0 l 0 0 l 5.7147 0 l 0 0 l 5.714 0 l 0 0 l 5.714 0 l 0 0 l 5.714 0 l 0 0 l 5.715 0 l 0 0 l 5.714 0"/>
      <path id="side_018" style="fill:none;stroke:#000000;stroke-width:0.0508" d="m 131 1 l 0 7.16667 l 3 0 l 0 7.16663 l -3 0 l 0 7.1667 l 3 0 l 0 7.1667 l -3 0 l 0 7.1666 l 3 0 l 0 7.1667"/>
      <path id="side_019" style="fill:none;stroke:#000000;stroke-width:0.0508" d="m 134 44 l -8.714 0 l 0 3 l -5.715 0 l 0 -3 l -5.714 0 l 0 3 l -5.714 0 l 0 -3 l -5.714 0 l 0 3 l -5.7147 0 l 0 -3 l -5.7143 0 l 0 3 l -5.7143 0 l 0 -3 l -5.7143 0 l 0 3 l -5.7143 0 l 0 -3 l -5.7142 0 l 0 3 l -5.7143 0 l 0 -3 l -5.7143 0 l 0 3 l -5.7143 0"/>
      <path id="side_020" style="fill:none;stroke:#000000;stroke-width:0.0508" d="m 51 47 l 0 -10.1667 l -3 0 l 0 -7.1666 l 3 0 l 0 -7.1667 l -3 0 l 0 -7.1667 l 3 0 l 0 -7.16663 l -3 0 l 0 -7.16667"/>
    </g>
  </g>
</svg>