<!-- Created with Inkscape (http://www.inkscape.org/) -->
<svg xmlns:inkscape="http://www.inkscape.org/namespaces/inkscape" xmlns:sodipodi="http://sodipodi.sourceforge.net/DTD/sodipodi-0.dtd" xmlns="http://www.w3.org/2000/svg" xmlns:svg="http://www.w3.org/2000/svg" width="660.7mm" height="476.5mm" viewBox="0 0 660.7 476.5" version="1.1" id="svg5" inkscape:version="1.1.2 (0a00cf5339, 2022-02-04)" sodipodi:docname="blank.svg">
  <sodipodi:namedview id="namedview7" pagecolor="#ffffff" bordercolor="#666666" borderopacity="1.0" inkscape:pageshadow="2" inkscape:pageopacity="0.0" inkscape:pagecheckerboard="0" inkscape:document-units="mm" showgrid="false" inkscape:zoom="0.64052329" inkscape:cx="397.33138" inkscape:cy="561.25984" inkscape:window-width="2086" inkscape:window-height="1376" inkscape:window-x="0" inkscape:window-y="0" inkscape:window-maximized="1" inkscape:current-layer="layer1"/>
  <defs id="defs2"/>
  <g inkscape:label="Layer 1" inkscape:groupmode="layer" id="layer1">
    <metadata text="createArgs=['--unit=mm', '--inside=1', '--length=180', '--width=240', '--depth=50', '--equal=0', '--tab=6', '--tabtype=0', '--tabsymmetry=0', '--dimpleheight=0', '--dimplelength=0', '--hairline=1', '--thickness=3', '--kerf=0.1', '--style=1', '--boxtype=1', '--div_l=2', '--div_w=3', '--keydiv=0', '--spacing=1']"/>
    <g id="piece_001">
      <path id="side_001" style="fill:none;stroke:#000000;stroke-width:0.0508" d="M 58.1 308.2 L 64.1 308.2 L 64.1 305.2 L 70.2 305.2 L 70.2 308.2 L 76.1 308.2 L 76.1 305.2 L 82.2 305.2 L 82.2 308.2 L 88.1 308.2 L 88.1 305.2 L 94.2 305.2 L 94.2 308.2 L 100.1 308.2 L 100.1 305.2 L 106.2 305.2 L 106.2 308.2 L 112.1 308.2 L 112.1 305.2 L 118.2 305.2 L 118.2 308.2 L 124.1 308.2 L 124.1 305.2 L 130.2 305.2 L 130.2 308.2 L 136.1 308.2 L 136.1 305.2 L 142.2 305.2 L 142.2 308.2 L 148.1 308.2 L 148.1 305.2 L 154.2 305.2 L 154.2 308.2 L 160.1 308.2 L 160.1 305.2 L 166.2 305.2 L 166.2 308.2 L 172.1 308.2 L 172.1 305.2 L 178.2 305.2 L 178.2 308.2 L 184.1 308.2 L 184.1 305.2 L 190.2 305.2 L 190.2 308.2 L 196.1 308.2 L 196.1 305.2 L 202.2 305.2 L 202.2 308.2 L 208.1 308.2 L 208.1 305.2 L 214.2 305.2 L 214.2 308.2 L 220.1 308.2 L 220.1 305.2 L 226.2 305.2 L 226.2 308.2 L 232.1 308.2 L 232.1 305.2 L 238.2 305.2 L 238.2 308.2 L 244.2 308.2"/>
      <path id="side_002" style="fill:none;stroke:#000000;stroke-width:0.0508" d="M 244.2 308.2 L 244.2 311.7 L 241.2 311.7 L 241.2 317.6 L 244.2 317.6 L 244.2 324.1 L 241.2 324.1 L 241.2 330 L 244.2 330 L 244.2 336.5 L 241.2 336.5 L 241.2 342.4 L 244.2 342.4 L 244.2 348.9 L 241.2 348.9 L 241.2 354.8 L 244.2 354.8 L 244.2 358.3"/>
      <path id="hole_001" style="fill:none;stroke:#000000;stroke-width:0.0508" d="M 195.45 311.7 L 195.45 317.6 L 198.35 317.6 L 198.35 311.7 L 195.45 311.7 Z"/>
      <path id="hole_002" style="fill:none;stroke:#000000;stroke-width:0.0508" d="M 149.7 311.7 L 149.7 317.6 L 152.6 317.6 L 152.6 311.7 L 149.7 311.7 Z"/>
      <path id="hole_003" style="fill:none;stroke:#000000;stroke-width:0.0508" d="M 103.95 311.7 L 103.95 317.6 L 106.85 317.6 L 106.85 311.7 L 103.95 311.7 Z"/>
      <path id="hole_004" style="fill:none;stroke:#000000;stroke-width:0.0508" d="M 195.45 324.1 L 195.45 330 L 198.35 330 L 198.35 324.1 L 195.45 324.1 Z"/>
      <path id="hole_005" style="fill:none;stroke:#000000;stroke-width:0.0508" d="M 149.7 324.1 L 149.7 330 L 152.6 330 L 152.6 324.1 L 149.7 324.1 Z"/>
      <path id="hole_006" style="fill:none;stroke:#000000;stroke-width:0.0508" d="M 103.95 324.1 L 103.95 330 L 106.85 330 L 106.85 324.1 L 103.95 324.1 Z"/>
      <path id="hole_007" style="fill:none;stroke:#000000;stroke-width:0.0508" d="M 195.45 336.5 L 195.45 342.4 L 198.35 342.4 L 198.35 336.5 L 195.45 336.5 Z"/>
      <path id="hole_008" style="fill:none;stroke:#000000;stroke-width:0.0508" d="M 149.7 336.5 L 149.7 342.4 L 152.6 342.4 L 152.6 336.5 L 149.7 336.5 Z"/>
      <path id="hole_009" style="fill:none;stroke:#000000;stroke-width:0.0508" d="M 103.95 336.5 L 103.95 342.4 L 106.85 342.4 L 106.85 336.5 L 103.95 336.5 Z"/>
      <path id="hole_010" style="fill:none;stroke:#000000;stroke-width:0.0508" d="M 195.45 348.9 L 195.45 354.8 L 198.35 354.8 L 198.35 348.9 L 195.45 348.9 Z"/>
      <path id="hole_011" style="fill:none;stroke:#000000;stroke-width:0.0508" d="M 149.7 348.9 L 149.7 354.8 L 152.6 354.8 L 152.6 348.9 L 149.7 348.9 Z"/>
      <path id="hole_012" style="fill:none;stroke:#000000;stroke-width:0.0508" d="M 103.95 348.9 L 103.95 354.8 L 106.85 354.8 L 106.85 348.9 L 103.95 348.9 Z"/>
      <path id="side_003" style="fill:none;stroke:#000000;stroke-width:0.0508" d="M 244.2 358.3 L 238.2 358.3 L 238.2 361.3 L 232.1 361.3 L 232.1 358.3 L 226.2 358.3 L 226.2 361.3 L 220.1 361.3 L 220.1 358.3 L 214.2 358.3 L 214.2 361.3 L 208.1 361.3 L 208.1 358.3 L 202.2 358.3 L 202.2 361.3 L 196.1 361.3 L 196.1 358.3 L 190.2 358.3 L 190.2 361.3 L 184.1 361.3 L 184.1 358.3 L 178.2 358.3 L 178.2 361.3 L 172.1 361.3 L 172.1 358.3 L 166.2 358.3 L 166.2 361.3 L 160.1 361.3 L 160.1 358.3 L 154.2 358.3 L 154.2 361.3 L 148.1 361.3 L 148.1 358.3 L 142.2 358.3 L 142.2 361.3 L 136.1 361.3 L 136.1 358.3 L 130.2 358.3 L 130.2 361.3 L 124.1 361.3 L 124.1 358.3 L 118.2 358.3 L 118.2 361.3 L 112.1 361.3 L 112.1 358.3 L 106.2 358.3 L 106.2 361.3 L 100.1 361.3 L 100.1 358.3 L 94.2 358.3 L 94.2 361.3 L 88.1 361.3 L 88.1 358.3 L 82.2 358.3 L 82.2 361.3 L 76.1 361.3 L 76.1 358.3 L 70.2 358.3 L 70.2 361.3 L 64.1 361.3 L 64.1 358.3 L 58.1 358.3"/>
      <path id="side_004" style="fill:none;stroke:#000000;stroke-width:0.0508" d="M 58.1 358.3 L 58.1 354.8 L 61.1 354.8 L 61.1 348.9 L 58.1 348.9 L 58.1 342.4 L 61.1 342.4 L 61.1 336.5 L 58.1 336.5 L 58.1 330 L 61.1 330 L 61.1 324.1 L 58.1 324.1 L 58.1 317.6 L 61.1 317.6 L 61.1 311.7 L 58.1 311.7 L 58.1 308.2"/>
    </g>
    <g id="xdivider_001">
      <path id="side_005" style="fill:none;stroke:#000000;stroke-width:0.0508" d="M 58.1 365.3 L 64.1 365.3 L 64.1 362.3 L 70.2 362.3 L 70.2 365.3 L 76.1 365.3 L 76.1 362.3 L 82.2 362.3 L 82.2 365.3 L 88.1 365.3 L 88.1 362.3 L 94.2 362.3 L 94.2 365.3 L 100.1 365.3 L 100.1 362.3 L 106.2 362.3 L 106.2 365.3 L 112.1 365.3 L 112.1 362.3 L 118.2 362.3 L 118.2 365.3 L 124.1 365.3 L 124.1 362.3 L 130.2 362.3 L 130.2 365.3 L 136.1 365.3 L 136.1 362.3 L 142.2 362.3 L 142.2 365.3 L 148.1 365.3 L 148.1 362.3 L 154.2 362.3 L 154.2 365.3 L 160.1 365.3 L 160.1 362.3 L 166.2 362.3 L 166.2 365.3 L 172.1 365.3 L 172.1 362.3 L 178.2 362.3 L 178.2 365.3 L 184.1 365.3 L 184.1 362.3 L 190.2 362.3 L 190.2 365.3 L 196.1 365.3 L 196.1 362.3 L 202.2 362.3 L 202.2 365.3 L 208.1 365.3 L 208.1 362.3 L 214.2 362.3 L 214.2 365.3 L 220.1 365.3 L 220.1 362.3 L 226.2 362.3 L 226.2 365.3 L 232.1 365.3 L 232.1 362.3 L 238.2 362.3 L 238.2 365.3 L 244.2 365.3"/>
      <path id="side_006" style="fill:none;stroke:#000000;stroke-width:0.0508" d="M 244.2 365.3 L 244.2 368.8 L 241.2 368.8 L 241.2 374.7 L 244.2 374.7 L 244.2 381.2 L 241.2 381.2 L 241.2 387.1 L 244.2 387.1 L 244.2 393.6 L 241.2 393.6 L 241.2 399.5 L 244.2 399.5 L 244.2 406 L 241.2 406 L 241.2 411.9 L 244.2 411.9 L 244.2 415.4"/>
      <path id="slot_001" style="fill:none;stroke:#000000;stroke-width:0.0508" d="M 198.35 362.35 L 198.35 390.3 L 195.45 390.3 L 195.45 362.35 L 198.35 362.35 Z"/>
      <path id="slot_002" style="fill:none;stroke:#000000;stroke-width:0.0508" d="M 152.6 362.35 L 152.6 390.3 L 149.7 390.3 L 149.7 362.35 L 152.6 362.35 Z"/>
      <path id="slot_003" style="fill:none;stroke:#000000;stroke-width:0.0508" d="M 106.85 362.35 L 106.85 390.3 L 103.95 390.3 L 103.95 362.35 L 106.85 362.35 Z"/>
      <path id="side_007" style="fill:none;stroke:#000000;stroke-width:0.0508" d="M 244.2 415.4 L 238.2 415.4 L 238.2 418.4 L 232.1 418.4 L 232.1 415.4 L 226.2 415.4 L 226.2 418.4 L 220.1 418.4 L 220.1 415.4 L 214.2 415.4 L 214.2 418.4 L 208.1 418.4 L 208.1 415.4 L 202.2 415.4 L 202.2 418.4 L 196.1 418.4 L 196.1 415.4 L 190.2 415.4 L 190.2 418.4 L 184.1 418.4 L 184.1 415.4 L 178.2 415.4 L 178.2 418.4 L 172.1 418.4 L 172.1 415.4 L 166.2 415.4 L 166.2 418.4 L 160.1 418.4 L 160.1 415.4 L 154.2 415.4 L 154.2 418.4 L 148.1 418.4 L 148.1 415.4 L 142.2 415.4 L 142.2 418.4 L 136.1 418.4 L 136.1 415.4 L 130.2 415.4 L 130.2 418.4 L 124.1 418.4 L 124.1 415.4 L 118.2 415.4 L 118.2 418.4 L 112.1 418.4 L 112.1 415.4 L 106.2 415.4 L 106.2 418.4 L 100.1 418.4 L 100.1 415.4 L 94.2 415.4 L 94.2 418.4 L 88.1 418.4 L 88.1 415.4 L 82.2 415.4 L 82.2 418.4 L 76.1 418.4 L 76.1 415.4 L 70.2 415.4 L 70.2 418.4 L 64.1 418.4 L 64.1 415.4 L 58.1 415.4"/>
      <path id="side_008" style="fill:none;stroke:#000000;stroke-width:0.0508" d="M 58.1 415.4 L 58.1 411.9 L 61.1 411.9 L 61.1 406 L 58.1 406 L 58.1 399.5 L 61.1 399.5 L 61.1 393.6 L 58.1 393.6 L 58.1 387.1 L 61.1 387.1 L 61.1 381.2 L 58.1 381.2 L 58.1 374.7 L 61.1 374.7 L 61.1 368.8 L 58.1 368.8 L 58.1 365.3"/>
    </g>
    <g id="xdivider_002">
      <path id="side_009" style="fill:none;stroke:#000000;stroke-width:0.0508" d="M 58.1 422.4 L 64.1 422.4 L 64.1 419.4 L 70.2 419.4 L 70.2 422.4 L 76.1 422.4 L 76.1 419.4 L 82.2 419.4 L 82.2 422.4 L 88.1 422.4 L 88.1 419.4 L 94.2 419.4 L 94.2 422.4 L 100.1 422.4 L 100.1 419.4 L 106.2 419.4 L 106.2 422.4 L 112.1 422.4 L 112.1 419.4 L 118.2 419.4 L 118.2 422.4 L 124.1 422.4 L 124.1 419.4 L 130.2 419.4 L 130.2 422.4 L 136.1 422.4 L 136.1 419.4 L 142.2 419.4 L 142.2 422.4 L 148.1 422.4 L 148.1 419.4 L 154.2 419.4 L 154.2 422.4 L 160.1 422.4 L 160.1 419.4 L 166.2 419.4 L 166.2 422.4 L 172.1 422.4 L 172.1 419.4 L 178.2 419.4 L 178.2 422.4 L 184.1 422.4 L 184.1 419.4 L 190.2 419.4 L 190.2 422.4 L 196.1 422.4 L 196.1 419.4 L 202.2 419.4 L 202.2 422.4 L 208.1 422.4 L 208.1 419.4 L 214.2 419.4 L 214.2 422.4 L 220.1 422.4 L 220.1 419.4 L 226.2 419.4 L 226.2 422.4 L 232.1 422.4 L 232.1 419.4 L 238.2 419.4 L 238.2 422.4 L 244.2 422.4"/>
      <path id="side_010" style="fill:none;stroke:#000000;stroke-width:0.0508" d="M 244.2 422.4 L 244.2 425.9 L 241.2 425.9 L 241.2 431.8 L 244.2 431.8 L 244.2 438.3 L 241.2 438.3 L 241.2 444.2 L 244.2 444.2 L 244.2 450.7 L 241.2 450.7 L 241.2 456.6 L 244.2 456.6 L 244.2 463.1 L 241.2 463.1 L 241.2 469 L 244.2 469 L 244.2 472.5"/>
      <path id="slot_004" style="fill:none;stroke:#000000;stroke-width:0.0508" d="M 198.35 419.45 L 198.35 447.4 L 195.45 447.4 L 195.45 419.45 L 198.35 419.45 Z"/>
      <path id="slot_005" style="fill:none;stroke:#000000;stroke-width:0.0508" d="M 152.6 419.45 L 152.6 447.4 L 149.7 447.4 L 149.7 419.45 L 152.6 419.45 Z"/>
      <path id="slot_006" style="fill:none;stroke:#000000;stroke-width:0.0508" d="M 106.85 419.45 L 106.85 447.4 L 103.95 447.4 L 103.95 419.45 L 106.85 419.45 Z"/>
      <path id="side_011" style="fill:none;stroke:#000000;stroke-width:0.0508" d="M 244.2 472.5 L 238.2 472.5 L 238.2 475.5 L 232.1 475.5 L 232.1 472.5 L 226.2 472.5 L 226.2 475.5 L 220.1 475.5 L 220.1 472.5 L 214.2 472.5 L 214.2 475.5 L 208.1 475.5 L 208.1 472.5 L 202.2 472.5 L 202.2 475.5 L 196.1 475.5 L 196.1 472.5 L 190.2 472.5 L 190.2 475.5 L 184.1 475.5 L 184.1 472.5 L 178.2 472.5 L 178.2 475.5 L 172.1 475.5 L 172.1 472.5 L 166.2 472.5 L 166.2 475.5 L 160.1 475.5 L 160.1 472.5 L 154.2 472.5 L 154.2 475.5 L 148.1 475.5 L 148.1 472.5 L 142.2 472.5 L 142.2 475.5 L 136.1 475.5 L 136.1 472.5 L 130.2 472.5 L 130.2 475.5 L 124.1 475.5 L 124.1 472.5 L 118.2 472.5 L 118.2 475.5 L 112.1 475.5 L 112.1 472.5 L 106.2 472.5 L 106.2 475.5 L 100.1 475.5 L 100.1 472.5 L 94.2 472.5 L 94.2 475.5 L 88.1 475.5 L 88.1 472.5 L 82.2 472.5 L 82.2 475.5 L 76.1 475.5 L 76.1 472.5 L 70.2 472.5 L 70.2 475.5 L 64.1 475.5 L 64.1 472.5 L 58.1 472.5"/>
      <path id="side_012" style="fill:none;stroke:#000000;stroke-width:0.0508" d="M 58.1 472.5 L 58.1 469 L 61.1 469 L 61.1 463.1 L 58.1 463.1 L 58.1 456.6 L 61.1 456.6 L 61.1 450.7 L 58.1 450.7 L 58.1 444.2 L 61.1 444.2 L 61.1 438.3 L 58.1 438.3 L 58.1 431.8 L 61.1 431.8 L 61.1 425.9 L 58.1 425.9 L 58.1 422.4"/>
    </g>
    <g id="piece_002">
      <path id="side_013" style="fill:none;stroke:#000000;stroke-width:0.0508" d="M 4 61.1 L 7.4 61.1 L 7.4 58.1 L 13.5 58.1 L 13.5 61.1 L 19.8 61.1 L 19.8 58.1 L 25.9 58.1 L 25.9 61.1 L 32.2 61.1 L 32.2 58.1 L 38.3 58.1 L 38.3 61.1 L 44.6 61.1 L 44.6 58.1 L 50.7 58.1 L 50.7 61.1 L 54.1 61.1"/>
      <path id="hole_013" style="fill:none;stroke:#000000;stroke-width:0.0508" d="M 4.05 139.1 L 7.4 139.1 L 7.4 142 L 4.05 142 L 4.05 139.1 Z"/>
      <path id="hole_014" style="fill:none;stroke:#000000;stroke-width:0.0508" d="M 4.05 220.1 L 7.4 220.1 L 7.4 223 L 4.05 223 L 4.05 220.1 Z"/>
      <path id="hole_015" style="fill:none;stroke:#000000;stroke-width:0.0508" d="M 13.5 139.1 L 19.8 139.1 L 19.8 142 L 13.5 142 L 13.5 139.1 Z"/>
      <path id="hole_016" style="fill:none;stroke:#000000;stroke-width:0.0508" d="M 13.5 220.1 L 19.8 220.1 L 19.8 223 L 13.5 223 L 13.5 220.1 Z"/>
      <path id="hole_017" style="fill:none;stroke:#000000;stroke-width:0.0508" d="M 25.9 139.1 L 32.2 139.1 L 32.2 142 L 25.9 142 L 25.9 139.1 Z"/>
      <path id="hole_018" style="fill:none;stroke:#000000;stroke-width:0.0508" d="M 25.9 220.1 L 32.2 220.1 L 32.2 223 L 25.9 223 L 25.9 220.1 Z"/>
      <path id="hole_019" style="fill:none;stroke:#000000;stroke-width:0.0508" d="M 38.3 139.1 L 44.6 139.1 L 44.6 142 L 38.3 142 L 38.3 139.1 Z"/>
      <path id="hole_020" style="fill:none;stroke:#000000;stroke-width:0.0508" d="M 38.3 220.1 L 44.6 220.1 L 44.6 223 L 38.3 223 L 38.3 220.1 Z"/>
      <path id="hole_021" style="fill:none;stroke:#000000;stroke-width:0.0508" d="M 50.7 139.1 L 54 139.1 L 54 142 L 50.7 142 L 50.7 139.1 Z"/>
      <path id="hole_022" style="fill:none;stroke:#000000;stroke-width:0.0508" d="M 50.7 220.1 L 54 220.1 L 54 223 L 50.7 223 L 50.7 220.1 Z"/>
      <path id="side_014" style="fill:none;stroke:#000000;stroke-width:0.0508" d="M 54.1 61.1 L 54.1 64.1 L 57.1 64.1 L 57.1 70.2 L 54.1 70.2 L 54.1 76.1 L 57.1 76.1 L 57.1 82.2 L 54.1 82.2 L 54.1 88.1 L 57.1 88.1 L 57.1 94.2 L 54.1 94.2 L 54.1 100.1 L 57.1 100.1 L 57.1 106.2 L 54.1 106.2 L 54.1 112.1 L 57.1 112.1 L 57.1 118.2 L 54.1 118.2 L 54.1 124.1 L 57.1 124.1 L 57.1 130.2 L 54.1 130.2 L 54.1 136.1 L 57.1 136.1 L 57.1 142.2 L 54.1 142.2 L 54.1 148.1 L 57.1 148.1 L 57.1 154.2 L 54.1 154.2 L 54.1 160.1 L 57.1 160.1 L 57.1 166.2 L 54.1 166.2 L 54.1 172.1 L 57.1 172.1 L 57.1 178.2 L 54.1 178.2 L 54.1 184.1 L 57.1 184.1 L 57.1 190.2 L 54.1 190.2 L 54.1 196.1 L 57.1 196.1 L 57.1 202.2 L 54.1 202.2 L 54.1 208.1 L 57.1 208.1 L 57.1 214.2 L 54.1 214.2 L 54.1 220.1 L 57.1 220.1 L 57.1 226.2 L 54.1 226.2 L 54.1 232.1 L 57.1 232.1 L 57.1 238.2 L 54.1 238.2 L 54.1 244.1 L 57.1 244.1 L 57.1 250.2 L 54.1 250.2 L 54.1 256.1 L 57.1 256.1 L 57.1 262.2 L 54.1 262.2 L 54.1 268.1 L 57.1 268.1 L 57.1 274.2 L 54.1 274.2 L 54.1 280.1 L 57.1 280.1 L 57.1 286.2 L 54.1 286.2 L 54.1 292.1 L 57.1 292.1 L 57.1 298.2 L 54.1 298.2 L 54.1 301.2"/>
      <path id="side_015" style="fill:none;stroke:#000000;stroke-width:0.0508" d="M 54.1 301.2 L 50.7 301.2 L 50.7 304.2 L 44.6 304.2 L 44.6 301.2 L 38.3 301.2 L 38.3 304.2 L 32.2 304.2 L 32.2 301.2 L 25.9 301.2 L 25.9 304.2 L 19.8 304.2 L 19.8 301.2 L 13.5 301.2 L 13.5 304.2 L 7.4 304.2 L 7.4 301.2 L 4 301.2"/>
      <path id="side_016" style="fill:none;stroke:#000000;stroke-width:0.0508" d="M 4 301.2 L 4 298.2 L 1 298.2 L 1 292.1 L 4 292.1 L 4 286.2 L 1 286.2 L 1 280.1 L 4 280.1 L 4 274.2 L 1 274.2 L 1 268.1 L 4 268.1 L 4 262.2 L 1 262.2 L 1 256.1 L 4 256.1 L 4 250.2 L 1 250.2 L 1 244.1 L 4 244.1 L 4 238.2 L 1 238.2 L 1 232.1 L 4 232.1 L 4 226.2 L 1 226.2 L 1 220.1 L 4 220.1 L 4 214.2 L 1 214.2 L 1 208.1 L 4 208.1 L 4 202.2 L 1 202.2 L 1 196.1 L 4 196.1 L 4 190.2 L 1 190.2 L 1 184.1 L 4 184.1 L 4 178.2 L 1 178.2 L 1 172.1 L 4 172.1 L 4 166.2 L 1 166.2 L 1 160.1 L 4 160.1 L 4 154.2 L 1 154.2 L 1 148.1 L 4 148.1 L 4 142.2 L 1 142.2 L 1 136.1 L 4 136.1 L 4 130.2 L 1 130.2 L 1 124.1 L 4 124.1 L 4 118.2 L 1 118.2 L 1 112.1 L 4 112.1 L 4 106.2 L 1 106.2 L 1 100.1 L 4 100.1 L 4 94.2 L 1 94.2 L 1 88.1 L 4 88.1 L 4 82.2 L 1 82.2 L 1 76.1 L 4 76.1 L 4 70.2 L 1 70.2 L 1 64.1 L 4 64.1 L 4 61.1"/>
    </g>
    <g id="ydivider_001">
      <path id="side_017" style="fill:none;stroke:#000000;stroke-width:0.0508" d="M 492.4 61.1 L 495.8 61.1 L 495.8 58.1 L 501.9 58.1 L 501.9 61.1 L 508.2 61.1 L 508.2 58.1 L 514.3 58.1 L 514.3 61.1 L 520.6 61.1 L 520.6 58.1 L 526.7 58.1 L 526.7 61.1 L 533 61.1 L 533 58.1 L 539.1 58.1 L 539.1 61.1 L 542.5 61.1"/>
      <path id="slot_007" style="fill:none;stroke:#000000;stroke-width:0.0508" d="M 489.45 139.2 L 517.5 139.2 L 517.5 142.1 L 489.45 142.1 L 489.45 139.2 Z"/>
      <path id="slot_008" style="fill:none;stroke:#000000;stroke-width:0.0508" d="M 489.45 220.2 L 517.5 220.2 L 517.5 223.1 L 489.45 223.1 L 489.45 220.2 Z"/>
      <path id="side_018" style="fill:none;stroke:#000000;stroke-width:0.0508" d="M 542.5 61.1 L 542.5 64.1 L 545.5 64.1 L 545.5 70.2 L 542.5 70.2 L 542.5 76.1 L 545.5 76.1 L 545.5 82.2 L 542.5 82.2 L 542.5 88.1 L 545.5 88.1 L 545.5 94.2 L 542.5 94.2 L 542.5 100.1 L 545.5 100.1 L 545.5 106.2 L 542.5 106.2 L 542.5 112.1 L 545.5 112.1 L 545.5 118.2 L 542.5 118.2 L 542.5 124.1 L 545.5 124.1 L 545.5 130.2 L 542.5 130.2 L 542.5 136.1 L 545.5 136.1 L 545.5 142.2 L 542.5 142.2 L 542.5 148.1 L 545.5 148.1 L 545.5 154.2 L 542.5 154.2 L 542.5 160.1 L 545.5 160.1 L 545.5 166.2 L 542.5 166.2 L 542.5 172.1 L 545.5 172.1 L 545.5 178.2 L 542.5 178.2 L 542.5 184.1 L 545.5 184.1 L 545.5 190.2 L 542.5 190.2 L 542.5 196.1 L 545.5 196.1 L 545.5 202.2 L 542.5 202.2 L 542.5 208.1 L 545.5 208.1 L 545.5 214.2 L 542.5 214.2 L 542.5 220.1 L 545.5 220.1 L 545.5 226.2 L 542.5 226.2 L 542.5 232.1 L 545.5 232.1 L 545.5 238.2 L 542.5 238.2 L 542.5 244.1 L 545.5 244.1 L 545.5 250.2 L 542.5 250.2 L 542.5 256.1 L 545.5 256.1 L 545.5 262.2 L 542.5 262.2 L 542.5 268.1 L 545.5 268.1 L 545.5 274.2 L 542.5 274.2 L 542.5 280.1 L 545.5 280.1 L 545.5 286.2 L 542.5 286.2 L 542.5 292.1 L 545.5 292.1 L 545.5 298.2 L 542.5 298.2 L 542.5 301.2"/>
      <path id="side_019" style="fill:none;stroke:#000000;stroke-width:0.0508" d="M 542.5 301.2 L 539.1 301.2 L 539.1 304.2 L 533 304.2 L 533 301.2 L 526.7 301.2 L 526.7 304.2 L 520.6 304.2 L 520.6 301.2 L 514.3 301.2 L 514.3 304.2 L 508.2 304.2 L 508.2 301.2 L 501.9 301.2 L 501.9 304.2 L 495.8 304.2 L 495.8 301.2 L 492.4 301.2"/>
      <path id="side_020" style="fill:none;stroke:#000000;stroke-width:0.0508" d="M 492.4 301.2 L 492.4 298.2 L 489.4 298.2 L 489.4 292.1 L 492.4 292.1 L 492.4 286.2 L 489.4 286.2 L 489.4 280.1 L 492.4 280.1 L 492.4 274.2 L 489.4 274.2 L 489.4 268.1 L 492.4 268.1 L 492.4 262.2 L 489.4 262.2 L 489.4 256.1 L 492.4 256.1 L 492.4 250.2 L 489.4 250.2 L 489.4 244.1 L 492.4 244.1 L 492.4 238.2 L 489.4 238.2 L 489.4 232.1 L 492.4 232.1 L 492.4 226.2 L 489.4 226.2 L 489.4 220.1 L 492.4 220.1 L 492.4 214.2 L 489.4 214.2 L 489.4 208.1 L 492.4 208.1 L 492.4 202.2 L 489.4 202.2 L 489.4 196.1 L 492.4 196.1 L 492.4 190.2 L 489.4 190.2 L 489.4 184.1 L 492.4 184.1 L 492.4 178.2 L 489.4 178.2 L 489.4 172.1 L 492.4 172.1 L 492.4 166.2 L 489.4 166.2 L 489.4 160.1 L 492.4 160.1 L 492.4 154.2 L 489.4 154.2 L 489.4 148.1 L 492.4 148.1 L 492.4 142.2 L 489.4 142.2 L 489.4 136.1 L 492.4 136.1 L 492.4 130.2 L 489.4 130.2 L 489.4 124.1 L 492.4 124.1 L 492.4 118.2 L 489.4 118.2 L 489.4 112.1 L 492.4 112.1 L 492.4 106.2 L 489.4 106.2 L 489.4 100.1 L 492.4 100.1 L 492.4 94.2 L 489.4 94.2 L 489.4 88.1 L 492.4 88.1 L 492.4 82.2 L 489.4 82.2 L 489.4 76.1 L 492.4 76.1 L 492.4 70.2 L 489.4 70.2 L 489.4 64.1 L 492.4 64.1 L 492.4 61.1"/>
    </g>
    <g id="ydivider_002">
      <path id="side_021" style="fill:none;stroke:#000000;stroke-width:0.0508" d="M 549.5 61.1 L 552.9 61.1 L 552.9 58.1 L 559 58.1 L 559 61.1 L 565.3 61.1 L 565.3 58.1 L 571.4 58.1 L 571.4 61.1 L 577.7 61.1 L 577.7 58.1 L 583.8 58.1 L 583.8 61.1 L 590.1 61.1 L 590.1 58.1 L 596.2 58.1 L 596.2 61.1 L 599.6 61.1"/>
      <path id="slot_009" style="fill:none;stroke:#000000;stroke-width:0.0508" d="M 546.55 139.2 L 574.6 139.2 L 574.6 142.1 L 546.55 142.1 L 546.55 139.2 Z"/>
      <path id="slot_010" style="fill:none;stroke:#000000;stroke-width:0.0508" d="M 546.55 220.2 L 574.6 220.2 L 574.6 223.1 L 546.55 223.1 L 546.55 220.2 Z"/>
      <path id="side_022" style="fill:none;stroke:#000000;stroke-width:0.0508" d="M 599.6 61.1 L 599.6 64.1 L 602.6 64.1 L 602.6 70.2 L 599.6 70.2 L 599.6 76.1 L 602.6 76.1 L 602.6 82.2 L 599.6 82.2 L 599.6 88.1 L 602.6 88.1 L 602.6 94.2 L 599.6 94.2 L 599.6 100.1 L 602.6 100.1 L 602.6 106.2 L 599.6 106.2 L 599.6 112.1 L 602.6 112.1 L 602.6 118.2 L 599.6 118.2 L 599.6 124.1 L 602.6 124.1 L 602.6 130.2 L 599.6 130.2 L 599.6 136.1 L 602.6 136.1 L 602.6 142.2 L 599.6 142.2 L 599.6 148.1 L 602.6 148.1 L 602.6 154.2 L 599.6 154.2 L 599.6 160.1 L 602.6 160.1 L 602.6 166.2 L 599.6 166.2 L 599.6 172.1 L 602.6 172.1 L 602.6 178.2 L 599.6 178.2 L 599.6 184.1 L 602.6 184.1 L 602.6 190.2 L 599.6 190.2 L 599.6 196.1 L 602.6 196.1 L 602.6 202.2 L 599.6 202.2 L 599.6 208.1 L 602.6 208.1 L 602.6 214.2 L 599.6 214.2 L 599.6 220.1 L 602.6 220.1 L 602.6 226.2 L 599.6 226.2 L 599.6 232.1 L 602.6 232.1 L 602.6 238.2 L 599.6 238.2 L 599.6 244.1 L 602.6 244.1 L 602.6 250.2 L 599.6 250.2 L 599.6 256.1 L 602.6 256.1 L 602.6 262.2 L 599.6 262.2 L 599.6 268.1 L 602.6 268.1 L 602.6 274.2 L 599.6 274.2 L 599.6 280.1 L 602.6 280.1 L 602.6 286.2 L 599.6 286.2 L 599.6 292.1 L 602.6 292.1 L 602.6 298.2 L 599.6 298.2 L 599.6 301.2"/>
      <path id="side_023" style="fill:none;stroke:#000000;stroke-width:0.0508" d="M 599.6 301.2 L 596.2 301.2 L 596.2 304.2 L 590.1 304.2 L 590.1 301.2 L 583.8 301.2 L 583.8 304.2 L 577.7 304.2 L 577.7 301.2 L 571.4 301.2 L 571.4 304.2 L 565.3 304.2 L 565.3 301.2 L 559 301.2 L 559 304.2 L 552.9 304.2 L 552.9 301.2 L 549.5 301.2"/>
      <path id="side_024" style="fill:none;stroke:#000000;stroke-width:0.0508" d="M 549.5 301.2 L 549.5 298.2 L 546.5 298.2 L 546.5 292.1 L 549.5 292.1 L 549.5 286.2 L 546.5 286.2 L 546.5 280.1 L 549.5 280.1 L 549.5 274.2 L 546.5 274.2 L 546.5 268.1 L 549.5 268.1 L 549.5 262.2 L 546.5 262.2 L 546.5 256.1 L 549.5 256.1 L 549.5 250.2 L 546.5 250.2 L 546.5 244.1 L 549.5 244.1 L 549.5 238.2 L 546.5 238.2 L 546.5 232.1 L 549.5 232.1 L 549.5 226.2 L 546.5 226.2 L 546.5 220.1 L 549.5 220.1 L 549.5 214.2 L 546.5 214.2 L 546.5 208.1 L 549.5 208.1 L 549.5 202.2 L 546.5 202.2 L 546.5 196.1 L 549.5 196.1 L 549.5 190.2 L 546.5 190.2 L 546.5 184.1 L 549.5 184.1 L 549.5 178.2 L 546.5 178.2 L 546.5 172.1 L 549.5 172.1 L 549.5 166.2 L 546.5 166.2 L 546.5 160.1 L 549.5 160.1 L 549.5 154.2 L 546.5 154.2 L 546.5 148.1 L 549.5 148.1 L 549.5 142.2 L 546.5 142.2 L 546.5 136.1 L 549.5 136.1 L 549.5 130.2 L 546.5 130.2 L 546.5 124.1 L 549.5 124.1 L 549.5 118.2 L 546.5 118.2 L 546.5 112.1 L 549.5 112.1 L 549.5 106.2 L 546.5 106.2 L 546.5 100.1 L 549.5 100.1 L 549.5 94.2 L 546.5 94.2 L 546.5 88.1 L 549.5 88.1 L 549.5 82.2 L 546.5 82.2 L 546.5 76.1 L 549.5 76.1 L 549.5 70.2 L 546.5 70.2 L 546.5 64.1 L 549.5 64.1 L 549.5 61.1"/>
    </g>
    <g id="ydivider_003">
      <path id="side_025" style="fill:none;stroke:#000000;stroke-width:0.0508" d="M 606.6 61.1 L 610 61.1 L 610 58.1 L 616.1 58.1 L 616.1 61.1 L 622.4 61.1 L 622.4 58.1 L 628.5 58.1 L 628.5 61.1 L 634.8 61.1 L 634.8 58.1 L 640.9 58.1 L 640.9 61.1 L 647.2 61.1 L 647.2 58.1 L 653.3 58.1 L 653.3 61.1 L 656.7 61.1"/>
      <path id="slot_011" style="fill:none;stroke:#000000;stroke-width:0.0508" d="M 603.65 139.2 L 631.7 139.2 L 631.7 142.1 L 603.65 142.1 L 603.65 139.2 Z"/>
      <path id="slot_012" style="fill:none;stroke:#000000;stroke-width:0.0508" d="M 603.65 220.2 L 631.7 220.2 L 631.7 223.1 L 603.65 223.1 L 603.65 220.2 Z"/>
      <path id="side_026" style="fill:none;stroke:#000000;stroke-width:0.0508" d="M 656.7 61.1 L 656.7 64.1 L 659.7 64.1 L 659.7 70.2 L 656.7 70.2 L 656.7 76.1 L 659.7 76.1 L 659.7 82.2 L 656.7 82.2 L 656.7 88.1 L 659.7 88.1 L 659.7 94.2 L 656.7 94.2 L 656.7 100.1 L 659.7 100.1 L 659.7 106.2 L 656.7 106.2 L 656.7 112.1 L 659.7 112.1 L 659.7 118.2 L 656.7 118.2 L 656.7 124.1 L 659.7 124.1 L 659.7 130.2 L 656.7 130.2 L 656.7 136.1 L 659.7 136.1 L 659.7 142.2 L 656.7 142.2 L 656.7 148.1 L 659.7 148.1 L 659.7 154.2 L 656.7 154.2 L 656.7 160.1 L 659.7 160.1 L 659.7 166.2 L 656.7 166.2 L 656.7 172.1 L 659.7 172.1 L 659.7 178.2 L 656.7 178.2 L 656.7 184.1 L 659.7 184.1 L 659.7 190.2 L 656.7 190.2 L 656.7 196.1 L 659.7 196.1 L 659.7 202.2 L 656.7 202.2 L 656.7 208.1 L 659.7 208.1 L 659.7 214.2 L 656.7 214.2 L 656.7 220.1 L 659.7 220.1 L 659.7 226.2 L 656.7 226.2 L 656.7 232.1 L 659.7 232.1 L 659.7 238.2 L 656.7 238.2 L 656.7 244.1 L 659.7 244.1 L 659.7 250.2 L 656.7 250.2 L 656.7 256.1 L 659.7 256.1 L 659.7 262.2 L 656.7 262.2 L 656.7 268.1 L 659.7 268.1 L 659.7 274.2 L 656.7 274.2 L 656.7 280.1 L 659.7 280.1 L 659.7 286.2 L 656.7 286.2 L 656.7 292.1 L 659.7 292.1 L 659.7 298.2 L 656.7 298.2 L 656.7 301.2"/>
      <path id="side_027" style="fill:none;stroke:#000000;stroke-width:0.0508" d="M 656.7 301.2 L 653.3 301.2 L 653.3 304.2 L 647.2 304.2 L 647.2 301.2 L 640.9 301.2 L 640.9 304.2 L 634.8 304.2 L 634.8 301.2 L 628.5 301.2 L 628.5 304.2 L 622.4 304.2 L 622.4 301.2 L 616.1 301.2 L 616.1 304.2 L 610 304.2 L 610 301.2 L 606.6 301.2"/>
      <path id="side_028" style="fill:none;stroke:#000000;stroke-width:0.0508" d="M 606.6 301.2 L 606.6 298.2 L 603.6 298.2 L 603.6 292.1 L 606.6 292.1 L 606.6 286.2 L 603.6 286.2 L 603.6 280.1 L 606.6 280.1 L 606.6 274.2 L 603.6 274.2 L 603.6 268.1 L 606.6 268.1 L 606.6 262.2 L 603.6 262.2 L 603.6 256.1 L 606.6 256.1 L 606.6 250.2 L 603.6 250.2 L 603.6 244.1 L 606.6 244.1 L 606.6 238.2 L 603.6 238.2 L 603.6 232.1 L 606.6 232.1 L 606.6 226.2 L 603.6 226.2 L 603.6 220.1 L 606.6 220.1 L 606.6 214.2 L 603.6 214.2 L 603.6 208.1 L 606.6 208.1 L 606.6 202.2 L 603.6 202.2 L 603.6 196.1 L 606.6 196.1 L 606.6 190.2 L 603.6 190.2 L 603.6 184.1 L 606.6 184.1 L 606.6 178.2 L 603.6 178.2 L 603.6 172.1 L 606.6 172.1 L 606.6 166.2 L 603.6 166.2 L 603.6 160.1 L 606.6 160.1 L 606.6 154.2 L 603.6 154.2 L 603.6 148.1 L 606.6 148.1 L 606.6 142.2 L 603.6 142.2 L 603.6 136.1 L 606.6 136.1 L 606.6 130.2 L 603.6 130.2 L 603.6 124.1 L 606.6 124.1 L 606.6 118.2 L 603.6 118.2 L 603.6 112.1 L 606.6 112.1 L 606.6 106.2 L 603.6 106.2 L 603.6 100.1 L 606.6 100.1 L 606.6 94.2 L 603.6 94.2 L 603.6 88.1 L 606.6 88.1 L 606.6 82.2 L 603.6 82.2 L 603.6 76.1 L 606.6 76.1 L 606.6 70.2 L 603.6 70.2 L 603.6 64.1 L 606.6 64.1 L 606.6 61.1"/>
    </g>
    <g id="piece_003">
      <path id="side_029" style="fill:none;stroke:#000000;stroke-width:0.0508" d="M 58.1 58.1 L 64.2 58.1 L 64.2 61.1 L 70.1 61.1 L 70.1 58.1 L 76.2 58.1 L 76.2 61.1 L 82.1 61.1 L 82.1 58.1 L 88.2 58.1 L 88.2 61.1 L 94.1 61.1 L 94.1 58.1 L 100.2 58.1 L 100.2 61.1 L 106.1 61.1 L 106.1 58.1 L 112.2 58.1 L 112.2 61.1 L 118.1 61.1 L 118.1 58.1 L 124.2 58.1 L 124.2 61.1 L 130.1 61.1 L 130.1 58.1 L 136.2 58.1 L 136.2 61.1 L 142.1 61.1 L 142.1 58.1 L 148.2 58.1 L 148.2 61.1 L 154.1 61.1 L 154.1 58.1 L 160.2 58.1 L 160.2 61.1 L 166.1 61.1 L 166.1 58.1 L 172.2 58.1 L 172.2 61.1 L 178.1 61.1 L 178.1 58.1 L 184.2 58.1 L 184.2 61.1 L 190.1 61.1 L 190.1 58.1 L 196.2 58.1 L 196.2 61.1 L 202.1 61.1 L 202.1 58.1 L 208.2 58.1 L 208.2 61.1 L 214.1 61.1 L 214.1 58.1 L 220.2 58.1 L 220.2 61.1 L 226.1 61.1 L 226.1 58.1 L 232.2 58.1 L 232.2 61.1 L 238.1 61.1 L 238.1 58.1 L 244.2 58.1"/>
      <path id="hole_023" style="fill:none;stroke:#000000;stroke-width:0.0508" d="M 64.2 142.1 L 70.1 142.1 L 70.1 139.2 L 64.2 139.2 L 64.2 142.1 Z"/>
      <path id="hole_024" style="fill:none;stroke:#000000;stroke-width:0.0508" d="M 64.2 223.1 L 70.1 223.1 L 70.1 220.2 L 64.2 220.2 L 64.2 223.1 Z"/>
      <path id="hole_025" style="fill:none;stroke:#000000;stroke-width:0.0508" d="M 76.2 142.1 L 82.1 142.1 L 82.1 139.2 L 76.2 139.2 L 76.2 142.1 Z"/>
      <path id="hole_026" style="fill:none;stroke:#000000;stroke-width:0.0508" d="M 76.2 223.1 L 82.1 223.1 L 82.1 220.2 L 76.2 220.2 L 76.2 223.1 Z"/>
      <path id="hole_027" style="fill:none;stroke:#000000;stroke-width:0.0508" d="M 88.2 142.1 L 94.1 142.1 L 94.1 139.2 L 88.2 139.2 L 88.2 142.1 Z"/>
      <path id="hole_028" style="fill:none;stroke:#000000;stroke-width:0.0508" d="M 88.2 223.1 L 94.1 223.1 L 94.1 220.2 L 88.2 220.2 L 88.2 223.1 Z"/>
      <path id="hole_029" style="fill:none;stroke:#000000;stroke-width:0.0508" d="M 100.2 142.1 L 106.1 142.1 L 106.1 139.2 L 100.2 139.2 L 100.2 142.1 Z"/>
      <path id="hole_030" style="fill:none;stroke:#000000;stroke-width:0.0508" d="M 100.2 223.1 L 106.1 223.1 L 106.1 220.2 L 100.2 220.2 L 100.2 223.1 Z"/>
      <path id="hole_031" style="fill:none;stroke:#000000;stroke-width:0.0508" d="M 112.2 142.1 L 118.1 142.1 L 118.1 139.2 L 112.2 139.2 L 112.2 142.1 Z"/>
      <path id="hole_032" style="fill:none;stroke:#000000;stroke-width:0.0508" d="M 112.2 223.1 L 118.1 223.1 L 118.1 220.2 L 112.2 220.2 L 112.2 223.1 Z"/>
      <path id="hole_033" style="fill:none;stroke:#000000;stroke-width:0.0508" d="M 124.2 142.1 L 130.1 142.1 L 130.1 139.2 L 124.2 139.2 L 124.2 142.1 Z"/>
      <path id="hole_034" style="fill:none;stroke:#000000;stroke-width:0.0508" d="M 124.2 223.1 L 130.1 223.1 L 130.1 220.2 L 124.2 220.2 L 124.2 223.1 Z"/>
      <path id="hole_035" style="fill:none;stroke:#000000;stroke-width:0.0508" d="M 136.2 142.1 L 142.1 142.1 L 142.1 139.2 L 136.2 139.2 L 136.2 142.1 Z"/>
      <path id="hole_036" style="fill:none;stroke:#000000;stroke-width:0.0508" d="M 136.2 223.1 L 142.1 223.1 L 142.1 220.2 L 136.2 220.2 L 136.2 223.1 Z"/>
      <path id="hole_037" style="fill:none;stroke:#000000;stroke-width:0.0508" d="M 148.2 142.1 L 154.1 142.1 L 154.1 139.2 L 148.2 139.2 L 148.2 142.1 Z"/>
      <path id="hole_038" style="fill:none;stroke:#000000;stroke-width:0.0508" d="M 148.2 223.1 L 154.1 223.1 L 154.1 220.2 L 148.2 220.2 L 148.2 223.1 Z"/>
      <path id="hole_039" style="fill:none;stroke:#000000;stroke-width:0.0508" d="M 160.2 142.1 L 166.1 142.1 L 166.1 139.2 L 160.2 139.2 L 160.2 142.1 Z"/>
      <path id="hole_040" style="fill:none;stroke:#000000;stroke-width:0.0508" d="M 160.2 223.1 L 166.1 223.1 L 166.1 220.2 L 160.2 220.2 L 160.2 223.1 Z"/>
      <path id="hole_041" style="fill:none;stroke:#000000;stroke-width:0.0508" d="M 172.2 142.1 L 178.1 142.1 L 178.1 139.2 L 172.2 139.2 L 172.2 142.1 Z"/>
      <path id="hole_042" style="fill:none;stroke:#000000;stroke-width:0.0508" d="M 172.2 223.1 L 178.1 223.1 L 178.1 220.2 L 172.2 220.2 L 172.2 223.1 Z"/>
      <path id="hole_043" style="fill:none;stroke:#000000;stroke-width:0.0508" d="M 184.2 142.1 L 190.1 142.1 L 190.1 139.2 L 184.2 139.2 L 184.2 142.1 Z"/>
      <path id="hole_044" style="fill:none;stroke:#000000;stroke-width:0.0508" d="M 184.2 223.1 L 190.1 223.1 L 190.1 220.2 L 184.2 220.2 L 184.2 223.1 Z"/>
      <path id="hole_045" style="fill:none;stroke:#000000;stroke-width:0.0508" d="M 196.2 142.1 L 202.1 142.1 L 202.1 139.2 L 196.2 139.2 L 196.2 142.1 Z"/>
      <path id="hole_046" style="fill:none;stroke:#000000;stroke-width:0.0508" d="M 196.2 223.1 L 202.1 223.1 L 202.1 220.2 L 196.2 220.2 L 196.2 223.1 Z"/>
      <path id="hole_047" style="fill:none;stroke:#000000;stroke-width:0.0508" d="M 208.2 142.1 L 214.1 142.1 L 214.1 139.2 L 208.2 139.2 L 208.2 142.1 Z"/>
      <path id="hole_048" style="fill:none;stroke:#000000;stroke-width:0.0508" d="M 208.2 223.1 L 214.1 223.1 L 214.1 220.2 L 208.2 220.2 L 208.2 223.1 Z"/>
      <path id="hole_049" style="fill:none;stroke:#000000;stroke-width:0.0508" d="M 220.2 142.1 L 226.1 142.1 L 226.1 139.2 L 220.2 139.2 L 220.2 142.1 Z"/>
      <path id="hole_050" style="fill:none;stroke:#000000;stroke-width:0.0508" d="M 220.2 223.1 L 226.1 223.1 L 226.1 220.2 L 220.2 220.2 L 220.2 223.1 Z"/>
      <path id="hole_051" style="fill:none;stroke:#000000;stroke-width:0.0508" d="M 232.2 142.1 L 238.1 142.1 L 238.1 139.2 L 232.2 139.2 L 232.2 142.1 Z"/>
      <path id="hole_052" style="fill:none;stroke:#000000;stroke-width:0.0508" d="M 232.2 223.1 L 238.1 223.1 L 238.1 220.2 L 232.2 220.2 L 232.2 223.1 Z"/>
      <path id="side_030" style="fill:none;stroke:#000000;stroke-width:0.0508" d="M 244.2 58.1 L 244.2 64.2 L 241.2 64.2 L 241.2 70.1 L 244.2 70.1 L 244.2 76.2 L 241.2 76.2 L 241.2 82.1 L 244.2 82.1 L 244.2 88.2 L 241.2 88.2 L 241.2 94.1 L 244.2 94.1 L 244.2 100.2 L 241.2 100.2 L 241.2 106.1 L 244.2 106.1 L 244.2 112.2 L 241.2 112.2 L 241.2 118.1 L 244.2 118.1 L 244.2 124.2 L 241.2 124.2 L 241.2 130.1 L 244.2 130.1 L 244.2 136.2 L 241.2 136.2 L 241.2 142.1 L 244.2 142.1 L 244.2 148.2 L 241.2 148.2 L 241.2 154.1 L 244.2 154.1 L 244.2 160.2 L 241.2 160.2 L 241.2 166.1 L 244.2 166.1 L 244.2 172.2 L 241.2 172.2 L 241.2 178.1 L 244.2 178.1 L 244.2 184.2 L 241.2 184.2 L 241.2 190.1 L 244.2 190.1 L 244.2 196.2 L 241.2 196.2 L 241.2 202.1 L 244.2 202.1 L 244.2 208.2 L 241.2 208.2 L 241.2 214.1 L 244.2 214.1 L 244.2 220.2 L 241.2 220.2 L 241.2 226.1 L 244.2 226.1 L 244.2 232.2 L 241.2 232.2 L 241.2 238.1 L 244.2 238.1 L 244.2 244.2 L 241.2 244.2 L 241.2 250.1 L 244.2 250.1 L 244.2 256.2 L 241.2 256.2 L 241.2 262.1 L 244.2 262.1 L 244.2 268.2 L 241.2 268.2 L 241.2 274.1 L 244.2 274.1 L 244.2 280.2 L 241.2 280.2 L 241.2 286.1 L 244.2 286.1 L 244.2 292.2 L 241.2 292.2 L 241.2 298.1 L 244.2 298.1 L 244.2 304.2"/>
      <path id="hole_053" style="fill:none;stroke:#000000;stroke-width:0.0508" d="M 195.45 64.2 L 195.45 70.1 L 198.35 70.1 L 198.35 64.2 L 195.45 64.2 Z"/>
      <path id="hole_054" style="fill:none;stroke:#000000;stroke-width:0.0508" d="M 149.7 64.2 L 149.7 70.1 L 152.6 70.1 L 152.6 64.2 L 149.7 64.2 Z"/>
      <path id="hole_055" style="fill:none;stroke:#000000;stroke-width:0.0508" d="M 103.95 64.2 L 103.95 70.1 L 106.85 70.1 L 106.85 64.2 L 103.95 64.2 Z"/>
      <path id="hole_056" style="fill:none;stroke:#000000;stroke-width:0.0508" d="M 195.45 76.2 L 195.45 82.1 L 198.35 82.1 L 198.35 76.2 L 195.45 76.2 Z"/>
      <path id="hole_057" style="fill:none;stroke:#000000;stroke-width:0.0508" d="M 149.7 76.2 L 149.7 82.1 L 152.6 82.1 L 152.6 76.2 L 149.7 76.2 Z"/>
      <path id="hole_058" style="fill:none;stroke:#000000;stroke-width:0.0508" d="M 103.95 76.2 L 103.95 82.1 L 106.85 82.1 L 106.85 76.2 L 103.95 76.2 Z"/>
      <path id="hole_059" style="fill:none;stroke:#000000;stroke-width:0.0508" d="M 195.45 88.2 L 195.45 94.1 L 198.35 94.1 L 198.35 88.2 L 195.45 88.2 Z"/>
      <path id="hole_060" style="fill:none;stroke:#000000;stroke-width:0.0508" d="M 149.7 88.2 L 149.7 94.1 L 152.6 94.1 L 152.6 88.2 L 149.7 88.2 Z"/>
      <path id="hole_061" style="fill:none;stroke:#000000;stroke-width:0.0508" d="M 103.95 88.2 L 103.95 94.1 L 106.85 94.1 L 106.85 88.2 L 103.95 88.2 Z"/>
      <path id="hole_062" style="fill:none;stroke:#000000;stroke-width:0.0508" d="M 195.45 100.2 L 195.45 106.1 L 198.35 106.1 L 198.35 100.2 L 195.45 100.2 Z"/>
      <path id="hole_063" style="fill:none;stroke:#000000;stroke-width:0.0508" d="M 149.7 100.2 L 149.7 106.1 L 152.6 106.1 L 152.6 100.2 L 149.7 100.2 Z"/>
      <path id="hole_064" style="fill:none;stroke:#000000;stroke-width:0.0508" d="M 103.95 100.2 L 103.95 106.1 L 106.85 106.1 L 106.85 100.2 L 103.95 100.2 Z"/>
      <path id="hole_065" style="fill:none;stroke:#000000;stroke-width:0.0508" d="M 195.45 112.2 L 195.45 118.1 L 198.35 118.1 L 198.35 112.2 L 195.45 112.2 Z"/>
      <path id="hole_066" style="fill:none;stroke:#000000;stroke-width:0.0508" d="M 149.7 112.2 L 149.7 118.1 L 152.6 118.1 L 152.6 112.2 L 149.7 112.2 Z"/>
      <path id="hole_067" style="fill:none;stroke:#000000;stroke-width:0.0508" d="M 103.95 112.2 L 103.95 118.1 L 106.85 118.1 L 106.85 112.2 L 103.95 112.2 Z"/>
      <path id="hole_068" style="fill:none;stroke:#000000;stroke-width:0.0508" d="M 195.45 124.2 L 195.45 130.1 L 198.35 130.1 L 198.35 124.2 L 195.45 124.2 Z"/>
      <path id="hole_069" style="fill:none;stroke:#000000;stroke-width:0.0508" d="M 149.7 124.2 L 149.7 130.1 L 152.6 130.1 L 152.6 124.2 L 149.7 124.2 Z"/>
      <path id="hole_070" style="fill:none;stroke:#000000;stroke-width:0.0508" d="M 103.95 124.2 L 103.95 130.1 L 106.85 130.1 L 106.85 124.2 L 103.95 124.2 Z"/>
      <path id="hole_071" style="fill:none;stroke:#000000;stroke-width:0.0508" d="M 195.45 136.2 L 195.45 142.1 L 198.35 142.1 L 198.35 136.2 L 195.45 136.2 Z"/>
      <path id="hole_072" style="fill:none;stroke:#000000;stroke-width:0.0508" d="M 149.7 136.2 L 149.7 142.1 L 152.6 142.1 L 152.6 136.2 L 149.7 136.2 Z"/>
      <path id="hole_073" style="fill:none;stroke:#000000;stroke-width:0.0508" d="M 103.95 136.2 L 103.95 142.1 L 106.85 142.1 L 106.85 136.2 L 103.95 136.2 Z"/>
      <path id="hole_074" style="fill:none;stroke:#000000;stroke-width:0.0508" d="M 195.45 148.2 L 195.45 154.1 L 198.35 154.1 L 198.35 148.2 L 195.45 148.2 Z"/>
      <path id="hole_075" style="fill:none;stroke:#000000;stroke-width:0.0508" d="M 149.7 148.2 L 149.7 154.1 L 152.6 154.1 L 152.6 148.2 L 149.7 148.2 Z"/>
      <path id="hole_076" style="fill:none;stroke:#000000;stroke-width:0.0508" d="M 103.95 148.2 L 103.95 154.1 L 106.85 154.1 L 106.85 148.2 L 103.95 148.2 Z"/>
      <path id="hole_077" style="fill:none;stroke:#000000;stroke-width:0.0508" d="M 195.45 160.2 L 195.45 166.1 L 198.35 166.1 L 198.35 160.2 L 195.45 160.2 Z"/>
      <path id="hole_078" style="fill:none;stroke:#000000;stroke-width:0.0508" d="M 149.7 160.2 L 149.7 166.1 L 152.6 166.1 L 152.6 160.2 L 149.7 160.2 Z"/>
      <path id="hole_079" style="fill:none;stroke:#000000;stroke-width:0.0508" d="M 103.95 160.2 L 103.95 166.1 L 106.85 166.1 L 106.85 160.2 L 103.95 160.2 Z"/>
      <path id="hole_080" style="fill:none;stroke:#000000;stroke-width:0.0508" d="M 195.45 172.2 L 195.45 178.1 L 198.35 178.1 L 198.35 172.2 L 195.45 172.2 Z"/>
      <path id="hole_081" style="fill:none;stroke:#000000;stroke-width:0.0508" d="M 149.7 172.2 L 149.7 178.1 L 152.6 178.1 L 152.6 172.2 L 149.7 172.2 Z"/>
      <path id="hole_082" style="fill:none;stroke:#000000;stroke-width:0.0508" d="M 103.95 172.2 L 103.95 178.1 L 106.85 178.1 L 106.85 172.2 L 103.95 172.2 Z"/>
      <path id="hole_083" style="fill:none;stroke:#000000;stroke-width:0.0508" d="M 195.45 184.2 L 195.45 190.1 L 198.35 190.1 L 198.35 184.2 L 195.45 184.2 Z"/>
      <path id="hole_084" style="fill:none;stroke:#000000;stroke-width:0.0508" d="M 149.7 184.2 L 149.7 190.1 L 152.6 190.1 L 152.6 184.2 L 149.7 184.2 Z"/>
      <path id="hole_085" style="fill:none;stroke:#000000;stroke-width:0.0508" d="M 103.95 184.2 L 103.95 190.1 L 106.85 190.1 L 106.85 184.2 L 103.95 184.2 Z"/>
      <path id="hole_086" style="fill:none;stroke:#000000;stroke-width:0.0508" d="M 195.45 196.2 L 195.45 202.1 L 198.35 202.1 L 198.35 196.2 L 195.45 196.2 Z"/>
      <path id="hole_087" style="fill:none;stroke:#000000;stroke-width:0.0508" d="M 149.7 196.2 L 149.7 202.1 L 152.6 202.1 L 152.6 196.2 L 149.7 196.2 Z"/>
      <path id="hole_088" style="fill:none;stroke:#000000;stroke-width:0.0508" d="M 103.95 196.2 L 103.95 202.1 L 106.85 202.1 L 106.85 196.2 L 103.95 196.2 Z"/>
      <path id="hole_089" style="fill:none;stroke:#000000;stroke-width:0.0508" d="M 195.45 208.2 L 195.45 214.1 L 198.35 214.1 L 198.35 208.2 L 195.45 208.2 Z"/>
      <path id="hole_090" style="fill:none;stroke:#000000;stroke-width:0.0508" d="M 149.7 208.2 L 149.7 214.1 L 152.6 214.1 L 152.6 208.2 L 149.7 208.2 Z"/>
      <path id="hole_091" style="fill:none;stroke:#000000;stroke-width:0.0508" d="M 103.95 208.2 L 103.95 214.1 L 106.85 214.1 L 106.85 208.2 L 103.95 208.2 Z"/>
      <path id="hole_092" style="fill:none;stroke:#000000;stroke-width:0.0508" d="M 195.45 220.2 L 195.45 226.1 L 198.35 226.1 L 198.35 220.2 L 195.45 220.2 Z"/>
      <path id="hole_093" style="fill:none;stroke:#000000;stroke-width:0.0508" d="M 149.7 220.2 L 149.7 226.1 L 152.6 226.1 L 152.6 220.2 L 149.7 220.2 Z"/>
      <path id="hole_094" style="fill:none;stroke:#000000;stroke-width:0.0508" d="M 103.95 220.2 L 103.95 226.1 L 106.85 226.1 L 106.85 220.2 L 103.95 220.2 Z"/>
      <path id="hole_095" style="fill:none;stroke:#000000;stroke-width:0.0508" d="M 195.45 232.2 L 195.45 238.1 L 198.35 238.1 L 198.35 232.2 L 195.45 232.2 Z"/>
      <path id="hole_096" style="fill:none;stroke:#000000;stroke-width:0.0508" d="M 149.7 232.2 L 149.7 238.1 L 152.6 238.1 L 152.6 232.2 L 149.7 232.2 Z"/>
      <path id="hole_097" style="fill:none;stroke:#000000;stroke-width:0.0508" d="M 103.95 232.2 L 103.95 238.1 L 106.85 238.1 L 106.85 232.2 L 103.95 232.2 Z"/>
      <path id="hole_098" style="fill:none;stroke:#000000;stroke-width:0.0508" d="M 195.45 244.2 L 195.45 250.1 L 198.35 250.1 L 198.35 244.2 L 195.45 244.2 Z"/>
      <path id="hole_099" style="fill:none;stroke:#000000;stroke-width:0.0508" d="M 149.7 244.2 L 149.7 250.1 L 152.6 250.1 L 152.6 244.2 L 149.7 244.2 Z"/>
      <path id="hole_100" style="fill:none;stroke:#000000;stroke-width:0.0508" d="M 103.95 244.2 L 103.95 250.1 L 106.85 250.1 L 106.85 244.2 L 103.95 244.2 Z"/>
      <path id="hole_101" style="fill:none;stroke:#000000;stroke-width:0.0508" d="M 195.45 256.2 L 195.45 262.1 L 198.35 262.1 L 198.35 256.2 L 195.45 256.2 Z"/>
      <path id="hole_102" style="fill:none;stroke:#000000;stroke-width:0.0508" d="M 149.7 256.2 L 149.7 262.1 L 152.6 262.1 L 152.6 256.2 L 149.7 256.2 Z"/>
      <path id="hole_103" style="fill:none;stroke:#000000;stroke-width:0.0508" d="M 103.95 256.2 L 103.95 262.1 L 106.85 262.1 L 106.85 256.2 L 103.95 256.2 Z"/>
      <path id="hole_104" style="fill:none;stroke:#000000;stroke-width:0.0508" d="M 195.45 268.2 L 195.45 274.1 L 198.35 274.1 L 198.35 268.2 L 195.45 268.2 Z"/>
      <path id="hole_105" style="fill:none;stroke:#000000;stroke-width:0.0508" d="M 149.7 268.2 L 149.7 274.1 L 152.6 274.1 L 152.6 268.2 L 149.7 268.2 Z"/>
      <path id="hole_106" style="fill:none;stroke:#000000;stroke-width:0.0508" d="M 103.95 268.2 L 103.95 274.1 L 106.85 274.1 L 106.85 268.2 L 103.95 268.2 Z"/>
      <path id="hole_107" style="fill:none;stroke:#000000;stroke-width:0.0508" d="M 195.45 280.2 L 195.45 286.1 L 198.35 286.1 L 198.35 280.2 L 195.45 280.2 Z"/>
      <path id="hole_108" style="fill:none;stroke:#000000;stroke-width:0.0508" d="M 149.7 280.2 L 149.7 286.1 L 152.6 286.1 L 152.6 280.2 L 149.7 280.2 Z"/>
      <path id="hole_109" style="fill:none;stroke:#000000;stroke-width:0.0508" d="M 103.95 280.2 L 103.95 286.1 L 106.85 286.1 L 106.85 280.2 L 103.95 280.2 Z"/>
      <path id="hole_110" style="fill:none;stroke:#000000;stroke-width:0.0508" d="M 195.45 292.2 L 195.45 298.1 L 198.35 298.1 L 198.35 292.2 L 195.45 292.2 Z"/>
      <path id="hole_111" style="fill:none;stroke:#000000;stroke-width:0.0508" d="M 149.7 292.2 L 149.7 298.1 L 152.6 298.1 L 152.6 292.2 L 149.7 292.2 Z"/>
      <path id="hole_112" style="fill:none;stroke:#000000;stroke-width:0.0508" d="M 103.95 292.2 L 103.95 298.1 L 106.85 298.1 L 106.85 292.2 L 103.95 292.2 Z"/>
      <path id="side_031" style="fill:none;stroke:#000000;stroke-width:0.0508" d="M 244.2 304.2 L 238.1 304.2 L 238.1 301.2 L 232.2 301.2 L 232.2 304.2 L 226.1 304.2 L 226.1 301.2 L 220.2 301.2 L 220.2 304.2 L 214.1 304.2 L 214.1 301.2 L 208.2 301.2 L 208.2 304.2 L 202.1 304.2 L 202.1 301.2 L 196.2 301.2 L 196.2 304.2 L 190.1 304.2 L 190.1 301.2 L 184.2 301.2 L 184.2 304.2 L 178.1 304.2 L 178.1 301.2 L 172.2 301.2 L 172.2 304.2 L 166.1 304.2 L 166.1 301.2 L 160.2 301.2 L 160.2 304.2 L 154.1 304.2 L 154.1 301.2 L 148.2 301.2 L 148.2 304.2 L 142.1 304.2 L 142.1 301.2 L 136.2 301.2 L 136.2 304.2 L 130.1 304.2 L 130.1 301.2 L 124.2 301.2 L 124.2 304.2 L 118.1 304.2 L 118.1 301.2 L 112.2 301.2 L 112.2 304.2 L 106.1 304.2 L 106.1 301.2 L 100.2 301.2 L 100.2 304.2 L 94.1 304.2 L 94.1 301.2 L 88.2 301.2 L 88.2 304.2 L 82.1 304.2 L 82.1 301.2 L 76.2 301.2 L 76.2 304.2 L 70.1 304.2 L 70.1 301.2 L 64.2 301.2 L 64.2 304.2 L 58.1 304.2"/>
      <path id="side_032" style="fill:none;stroke:#000000;stroke-width:0.0508" d="M 58.1 304.2 L 58.1 298.1 L 61.1 298.1 L 61.1 292.2 L 58.1 292.2 L 58.1 286.1 L 61.1 286.1 L 61.1 280.2 L 58.1 280.2 L 58.1 274.1 L 61.1 274.1 L 61.1 268.2 L 58.1 268.2 L 58.1 262.1 L 61.1 262.1 L 61.1 256.2 L 58.1 256.2 L 58.1 250.1 L 61.1 250.1 L 61.1 244.2 L 58.1 244.2 L 58.1 238.1 L 61.1 238.1 L 61.1 232.2 L 58.1 232.2 L 58.1 226.1 L 61.1 226.1 L 61.1 220.2 L 58.1 220.2 L 58.1 214.1 L 61.1 214.1 L 61.1 208.2 L 58.1 208.2 L 58.1 202.1 L 61.1 202.1 L 61.1 196.2 L 58.1 196.2 L 58.1 190.1 L 61.1 190.1 L 61.1 184.2 L 58.1 184.2 L 58.1 178.1 L 61.1 178.1 L 61.1 172.2 L 58.1 172.2 L 58.1 166.1 L 61.1 166.1 L 61.1 160.2 L 58.1 160.2 L 58.1 154.1 L 61.1 154.1 L 61.1 148.2 L 58.1 148.2 L 58.1 142.1 L 61.1 142.1 L 61.1 136.2 L 58.1 136.2 L 58.1 130.1 L 61.1 130.1 L 61.1 124.2 L 58.1 124.2 L 58.1 118.1 L 61.1 118.1 L 61.1 112.2 L 58.1 112.2 L 58.1 106.1 L 61.1 106.1 L 61.1 100.2 L 58.1 100.2 L 58.1 94.1 L 61.1 94.1 L 61.1 88.2 L 58.1 88.2 L 58.1 82.1 L 61.1 82.1 L 61.1 76.2 L 58.1 76.2 L 58.1 70.1 L 61.1 70.1 L 61.1 64.2 L 58.1 64.2 L 58.1 58.1"/>
    </g>
    <g id="piece_004">
      <path id="side_033" style="fill:none;stroke:#000000;stroke-width:0.0508" d="M 248.2 61.1 L 251.6 61.1 L 251.6 58.1 L 257.7 58.1 L 257.7 61.1 L 264 61.1 L 264 58.1 L 270.1 58.1 L 270.1 61.1 L 276.4 61.1 L 276.4 58.1 L 282.5 58.1 L 282.5 61.1 L 288.8 61.1 L 288.8 58.1 L 294.9 58.1 L 294.9 61.1 L 298.3 61.1"/>
      <path id="hole_113" style="fill:none;stroke:#000000;stroke-width:0.0508" d="M 248.25 139.1 L 251.6 139.1 L 251.6 142 L 248.25 142 L 248.25 139.1 Z"/>
      <path id="hole_114" style="fill:none;stroke:#000000;stroke-width:0.0508" d="M 248.25 220.1 L 251.6 220.1 L 251.6 223 L 248.25 223 L 248.25 220.1 Z"/>
      <path id="hole_115" style="fill:none;stroke:#000000;stroke-width:0.0508" d="M 257.7 139.1 L 264 139.1 L 264 142 L 257.7 142 L 257.7 139.1 Z"/>
      <path id="hole_116" style="fill:none;stroke:#000000;stroke-width:0.0508" d="M 257.7 220.1 L 264 220.1 L 264 223 L 257.7 223 L 257.7 220.1 Z"/>
      <path id="hole_117" style="fill:none;stroke:#000000;stroke-width:0.0508" d="M 270.1 139.1 L 276.4 139.1 L 276.4 142 L 270.1 142 L 270.1 139.1 Z"/>
      <path id="hole_118" style="fill:none;stroke:#000000;stroke-width:0.0508" d="M 270.1 220.1 L 276.4 220.1 L 276.4 223 L 270.1 223 L 270.1 220.1 Z"/>
      <path id="hole_119" style="fill:none;stroke:#000000;stroke-width:0.0508" d="M 282.5 139.1 L 288.8 139.1 L 288.8 142 L 282.5 142 L 282.5 139.1 Z"/>
      <path id="hole_120" style="fill:none;stroke:#000000;stroke-width:0.0508" d="M 282.5 220.1 L 288.8 220.1 L 288.8 223 L 282.5 223 L 282.5 220.1 Z"/>
      <path id="hole_121" style="fill:none;stroke:#000000;stroke-width:0.0508" d="M 294.9 139.1 L 298.2 139.1 L 298.2 142 L 294.9 142 L 294.9 139.1 Z"/>
      <path id="hole_122" style="fill:none;stroke:#000000;stroke-width:0.0508" d="M 294.9 220.1 L 298.2 220.1 L 298.2 223 L 294.9 223 L 294.9 220.1 Z"/>
      <path id="side_034" style="fill:none;stroke:#000000;stroke-width:0.0508" d="M 298.3 61.1 L 298.3 64.1 L 301.3 64.1 L 301.3 70.2 L 298.3 70.2 L 298.3 76.1 L 301.3 76.1 L 301.3 82.2 L 298.3 82.2 L 298.3 88.1 L 301.3 88.1 L 301.3 94.2 L 298.3 94.2 L 298.3 100.1 L 301.3 100.1 L 301.3 106.2 L 298.3 106.2 L 298.3 112.1 L 301.3 112.1 L 301.3 118.2 L 298.3 118.2 L 298.3 124.1 L 301.3 124.1 L 301.3 130.2 L 298.3 130.2 L 298.3 136.1 L 301.3 136.1 L 301.3 142.2 L 298.3 142.2 L 298.3 148.1 L 301.3 148.1 L 301.3 154.2 L 298.3 154.2 L 298.3 160.1 L 301.3 160.1 L 301.3 166.2 L 298.3 166.2 L 298.3 172.1 L 301.3 172.1 L 301.3 178.2 L 298.3 178.2 L 298.3 184.1 L 301.3 184.1 L 301.3 190.2 L 298.3 190.2 L 298.3 196.1 L 301.3 196.1 L 301.3 202.2 L 298.3 202.2 L 298.3 208.1 L 301.3 208.1 L 301.3 214.2 L 298.3 214.2 L 298.3 220.1 L 301.3 220.1 L 301.3 226.2 L 298.3 226.2 L 298.3 232.1 L 301.3 232.1 L 301.3 238.2 L 298.3 238.2 L 298.3 244.1 L 301.3 244.1 L 301.3 250.2 L 298.3 250.2 L 298.3 256.1 L 301.3 256.1 L 301.3 262.2 L 298.3 262.2 L 298.3 268.1 L 301.3 268.1 L 301.3 274.2 L 298.3 274.2 L 298.3 280.1 L 301.3 280.1 L 301.3 286.2 L 298.3 286.2 L 298.3 292.1 L 301.3 292.1 L 301.3 298.2 L 298.3 298.2 L 298.3 301.2"/>
      <path id="side_035" style="fill:none;stroke:#000000;stroke-width:0.0508" d="M 298.3 301.2 L 294.9 301.2 L 294.9 304.2 L 288.8 304.2 L 288.8 301.2 L 282.5 301.2 L 282.5 304.2 L 276.4 304.2 L 276.4 301.2 L 270.1 301.2 L 270.1 304.2 L 264 304.2 L 264 301.2 L 257.7 301.2 L 257.7 304.2 L 251.6 304.2 L 251.6 301.2 L 248.2 301.2"/>
      <path id="side_036" style="fill:none;stroke:#000000;stroke-width:0.0508" d="M 248.2 301.2 L 248.2 298.2 L 245.2 298.2 L 245.2 292.1 L 248.2 292.1 L 248.2 286.2 L 245.2 286.2 L 245.2 280.1 L 248.2 280.1 L 248.2 274.2 L 245.2 274.2 L 245.2 268.1 L 248.2 268.1 L 248.2 262.2 L 245.2 262.2 L 245.2 256.1 L 248.2 256.1 L 248.2 250.2 L 245.2 250.2 L 245.2 244.1 L 248.2 244.1 L 248.2 238.2 L 245.2 238.2 L 245.2 232.1 L 248.2 232.1 L 248.2 226.2 L 245.2 226.2 L 245.2 220.1 L 248.2 220.1 L 248.2 214.2 L 245.2 214.2 L 245.2 208.1 L 248.2 208.1 L 248.2 202.2 L 245.2 202.2 L 245.2 196.1 L 248.2 196.1 L 248.2 190.2 L 245.2 190.2 L 245.2 184.1 L 248.2 184.1 L 248.2 178.2 L 245.2 178.2 L 245.2 172.1 L 248.2 172.1 L 248.2 166.2 L 245.2 166.2 L 245.2 160.1 L 248.2 160.1 L 248.2 154.2 L 245.2 154.2 L 245.2 148.1 L 248.2 148.1 L 248.2 142.2 L 245.2 142.2 L 245.2 136.1 L 248.2 136.1 L 248.2 130.2 L 245.2 130.2 L 245.2 124.1 L 248.2 124.1 L 248.2 118.2 L 245.2 118.2 L 245.2 112.1 L 248.2 112.1 L 248.2 106.2 L 245.2 106.2 L 245.2 100.1 L 248.2 100.1 L 248.2 94.2 L 245.2 94.2 L 245.2 88.1 L 248.2 88.1 L 248.2 82.2 L 245.2 82.2 L 245.2 76.1 L 248.2 76.1 L 248.2 70.2 L 245.2 70.2 L 245.2 64.1 L 248.2 64.1 L 248.2 61.1"/>
    </g>
    <g id="piece_005">
      <path id="side_037" style="fill:none;stroke:#000000;stroke-width:0.0508" d="M 302.3 58.1 L 308.4 58.1 L 308.4 61.1 L 314.3 61.1 L 314.3 58.1 L 320.4 58.1 L 320.4 61.1 L 326.3 61.1 L 326.3 58.1 L 332.4 58.1 L 332.4 61.1 L 338.3 61.1 L 338.3 58.1 L 344.4 58.1 L 344.4 61.1 L 350.3 61.1 L 350.3 58.1 L 356.4 58.1 L 356.4 61.1 L 362.3 61.1 L 362.3 58.1 L 368.4 58.1 L 368.4 61.1 L 374.3 61.1 L 374.3 58.1 L 380.4 58.1 L 380.4 61.1 L 386.3 61.1 L 386.3 58.1 L 392.4 58.1 L 392.4 61.1 L 398.3 61.1 L 398.3 58.1 L 404.4 58.1 L 404.4 61.1 L 410.3 61.1 L 410.3 58.1 L 416.4 58.1 L 416.4 61.1 L 422.3 61.1 L 422.3 58.1 L 428.4 58.1 L 428.4 61.1 L 434.3 61.1 L 434.3 58.1 L 440.4 58.1 L 440.4 61.1 L 446.3 61.1 L 446.3 58.1 L 452.4 58.1 L 452.4 61.1 L 458.3 61.1 L 458.3 58.1 L 464.4 58.1 L 464.4 61.1 L 470.3 61.1 L 470.3 58.1 L 476.4 58.1 L 476.4 61.1 L 482.3 61.1 L 482.3 58.1 L 488.4 58.1"/>
      <path id="hole_123" style="fill:none;stroke:#000000;stroke-width:0.0508" d="M 308.4 142.1 L 314.3 142.1 L 314.3 139.2 L 308.4 139.2 L 308.4 142.1 Z"/>
      <path id="hole_124" style="fill:none;stroke:#000000;stroke-width:0.0508" d="M 308.4 223.1 L 314.3 223.1 L 314.3 220.2 L 308.4 220.2 L 308.4 223.1 Z"/>
      <path id="hole_125" style="fill:none;stroke:#000000;stroke-width:0.0508" d="M 320.4 142.1 L 326.3 142.1 L 326.3 139.2 L 320.4 139.2 L 320.4 142.1 Z"/>
      <path id="hole_126" style="fill:none;stroke:#000000;stroke-width:0.0508" d="M 320.4 223.1 L 326.3 223.1 L 326.3 220.2 L 320.4 220.2 L 320.4 223.1 Z"/>
      <path id="hole_127" style="fill:none;stroke:#000000;stroke-width:0.0508" d="M 332.4 142.1 L 338.3 142.1 L 338.3 139.2 L 332.4 139.2 L 332.4 142.1 Z"/>
      <path id="hole_128" style="fill:none;stroke:#000000;stroke-width:0.0508" d="M 332.4 223.1 L 338.3 223.1 L 338.3 220.2 L 332.4 220.2 L 332.4 223.1 Z"/>
      <path id="hole_129" style="fill:none;stroke:#000000;stroke-width:0.0508" d="M 344.4 142.1 L 350.3 142.1 L 350.3 139.2 L 344.4 139.2 L 344.4 142.1 Z"/>
      <path id="hole_130" style="fill:none;stroke:#000000;stroke-width:0.0508" d="M 344.4 223.1 L 350.3 223.1 L 350.3 220.2 L 344.4 220.2 L 344.4 223.1 Z"/>
      <path id="hole_131" style="fill:none;stroke:#000000;stroke-width:0.0508" d="M 356.4 142.1 L 362.3 142.1 L 362.3 139.2 L 356.4 139.2 L 356.4 142.1 Z"/>
      <path id="hole_132" style="fill:none;stroke:#000000;stroke-width:0.0508" d="M 356.4 223.1 L 362.3 223.1 L 362.3 220.2 L 356.4 220.2 L 356.4 223.1 Z"/>
      <path id="hole_133" style="fill:none;stroke:#000000;stroke-width:0.0508" d="M 368.4 142.1 L 374.3 142.1 L 374.3 139.2 L 368.4 139.2 L 368.4 142.1 Z"/>
      <path id="hole_134" style="fill:none;stroke:#000000;stroke-width:0.0508" d="M 368.4 223.1 L 374.3 223.1 L 374.3 220.2 L 368.4 220.2 L 368.4 223.1 Z"/>
      <path id="hole_135" style="fill:none;stroke:#000000;stroke-width:0.0508" d="M 380.4 142.1 L 386.3 142.1 L 386.3 139.2 L 380.4 139.2 L 380.4 142.1 Z"/>
      <path id="hole_136" style="fill:none;stroke:#000000;stroke-width:0.0508" d="M 380.4 223.1 L 386.3 223.1 L 386.3 220.2 L 380.4 220.2 L 380.4 223.1 Z"/>
      <path id="hole_137" style="fill:none;stroke:#000000;stroke-width:0.0508" d="M 392.4 142.1 L 398.3 142.1 L 398.3 139.2 L 392.4 139.2 L 392.4 142.1 Z"/>
      <path id="hole_138" style="fill:none;stroke:#000000;stroke-width:0.0508" d="M 392.4 223.1 L 398.3 223.1 L 398.3 220.2 L 392.4 220.2 L 392.4 223.1 Z"/>
      <path id="hole_139" style="fill:none;stroke:#000000;stroke-width:0.0508" d="M 404.4 142.1 L 410.3 142.1 L 410.3 139.2 L 404.4 139.2 L 404.4 142.1 Z"/>
      <path id="hole_140" style="fill:none;stroke:#000000;stroke-width:0.0508" d="M 404.4 223.1 L 410.3 223.1 L 410.3 220.2 L 404.4 220.2 L 404.4 223.1 Z"/>
      <path id="hole_141" style="fill:none;stroke:#000000;stroke-width:0.0508" d="M 416.4 142.1 L 422.3 142.1 L 422.3 139.2 L 416.4 139.2 L 416.4 142.1 Z"/>
      <path id="hole_142" style="fill:none;stroke:#000000;stroke-width:0.0508" d="M 416.4 223.1 L 422.3 223.1 L 422.3 220.2 L 416.4 220.2 L 416.4 223.1 Z"/>
      <path id="hole_143" style="fill:none;stroke:#000000;stroke-width:0.0508" d="M 428.4 142.1 L 434.3 142.1 L 434.3 139.2 L 428.4 139.2 L 428.4 142.1 Z"/>
      <path id="hole_144" style="fill:none;stroke:#000000;stroke-width:0.0508" d="M 428.4 223.1 L 434.3 223.1 L 434.3 220.2 L 428.4 220.2 L 428.4 223.1 Z"/>
      <path id="hole_145" style="fill:none;stroke:#000000;stroke-width:0.0508" d="M 440.4 142.1 L 446.3 142.1 L 446.3 139.2 L 440.4 139.2 L 440.4 142.1 Z"/>
      <path id="hole_146" style="fill:none;stroke:#000000;stroke-width:0.0508" d="M 440.4 223.1 L 446.3 223.1 L 446.3 220.2 L 440.4 220.2 L 440.4 223.1 Z"/>
      <path id="hole_147" style="fill:none;stroke:#000000;stroke-width:0.0508" d="M 452.4 142.1 L 458.3 142.1 L 458.3 139.2 L 452.4 139.2 L 452.4 142.1 Z"/>
      <path id="hole_148" style="fill:none;stroke:#000000;stroke-width:0.0508" d="M 452.4 223.1 L 458.3 223.1 L 458.3 220.2 L 452.4 220.2 L 452.4 223.1 Z"/>
      <path id="hole_149" style="fill:none;stroke:#000000;stroke-width:0.0508" d="M 464.4 142.1 L 470.3 142.1 L 470.3 139.2 L 464.4 139.2 L 464.4 142.1 Z"/>
      <path id="hole_150" style="fill:none;stroke:#000000;stroke-width:0.0508" d="M 464.4 223.1 L 470.3 223.1 L 470.3 220.2 L 464.4 220.2 L 464.4 223.1 Z"/>
      <path id="hole_151" style="fill:none;stroke:#000000;stroke-width:0.0508" d="M 476.4 142.1 L 482.3 142.1 L 482.3 139.2 L 476.4 139.2 L 476.4 142.1 Z"/>
      <path id="hole_152" style="fill:none;stroke:#000000;stroke-width:0.0508" d="M 476.4 223.1 L 482.3 223.1 L 482.3 220.2 L 476.4 220.2 L 476.4 223.1 Z"/>
      <path id="side_038" style="fill:none;stroke:#000000;stroke-width:0.0508" d="M 488.4 58.1 L 488.4 64.2 L 485.4 64.2 L 485.4 70.1 L 488.4 70.1 L 488.4 76.2 L 485.4 76.2 L 485.4 82.1 L 488.4 82.1 L 488.4 88.2 L 485.4 88.2 L 485.4 94.1 L 488.4 94.1 L 488.4 100.2 L 485.4 100.2 L 485.4 106.1 L 488.4 106.1 L 488.4 112.2 L 485.4 112.2 L 485.4 118.1 L 488.4 118.1 L 488.4 124.2 L 485.4 124.2 L 485.4 130.1 L 488.4 130.1 L 488.4 136.2 L 485.4 136.2 L 485.4 142.1 L 488.4 142.1 L 488.4 148.2 L 485.4 148.2 L 485.4 154.1 L 488.4 154.1 L 488.4 160.2 L 485.4 160.2 L 485.4 166.1 L 488.4 166.1 L 488.4 172.2 L 485.4 172.2 L 485.4 178.1 L 488.4 178.1 L 488.4 184.2 L 485.4 184.2 L 485.4 190.1 L 488.4 190.1 L 488.4 196.2 L 485.4 196.2 L 485.4 202.1 L 488.4 202.1 L 488.4 208.2 L 485.4 208.2 L 485.4 214.1 L 488.4 214.1 L 488.4 220.2 L 485.4 220.2 L 485.4 226.1 L 488.4 226.1 L 488.4 232.2 L 485.4 232.2 L 485.4 238.1 L 488.4 238.1 L 488.4 244.2 L 485.4 244.2 L 485.4 250.1 L 488.4 250.1 L 488.4 256.2 L 485.4 256.2 L 485.4 262.1 L 488.4 262.1 L 488.4 268.2 L 485.4 268.2 L 485.4 274.1 L 488.4 274.1 L 488.4 280.2 L 485.4 280.2 L 485.4 286.1 L 488.4 286.1 L 488.4 292.2 L 485.4 292.2 L 485.4 298.1 L 488.4 298.1 L 488.4 304.2"/>
      <path id="hole_153" style="fill:none;stroke:#000000;stroke-width:0.0508" d="M 439.65 64.2 L 439.65 70.1 L 442.55 70.1 L 442.55 64.2 L 439.65 64.2 Z"/>
      <path id="hole_154" style="fill:none;stroke:#000000;stroke-width:0.0508" d="M 393.9 64.2 L 393.9 70.1 L 396.8 70.1 L 396.8 64.2 L 393.9 64.2 Z"/>
      <path id="hole_155" style="fill:none;stroke:#000000;stroke-width:0.0508" d="M 348.15 64.2 L 348.15 70.1 L 351.05 70.1 L 351.05 64.2 L 348.15 64.2 Z"/>
      <path id="hole_156" style="fill:none;stroke:#000000;stroke-width:0.0508" d="M 439.65 76.2 L 439.65 82.1 L 442.55 82.1 L 442.55 76.2 L 439.65 76.2 Z"/>
      <path id="hole_157" style="fill:none;stroke:#000000;stroke-width:0.0508" d="M 393.9 76.2 L 393.9 82.1 L 396.8 82.1 L 396.8 76.2 L 393.9 76.2 Z"/>
      <path id="hole_158" style="fill:none;stroke:#000000;stroke-width:0.0508" d="M 348.15 76.2 L 348.15 82.1 L 351.05 82.1 L 351.05 76.2 L 348.15 76.2 Z"/>
      <path id="hole_159" style="fill:none;stroke:#000000;stroke-width:0.0508" d="M 439.65 88.2 L 439.65 94.1 L 442.55 94.1 L 442.55 88.2 L 439.65 88.2 Z"/>
      <path id="hole_160" style="fill:none;stroke:#000000;stroke-width:0.0508" d="M 393.9 88.2 L 393.9 94.1 L 396.8 94.1 L 396.8 88.2 L 393.9 88.2 Z"/>
      <path id="hole_161" style="fill:none;stroke:#000000;stroke-width:0.0508" d="M 348.15 88.2 L 348.15 94.1 L 351.05 94.1 L 351.05 88.2 L 348.15 88.2 Z"/>
      <path id="hole_162" style="fill:none;stroke:#000000;stroke-width:0.0508" d="M 439.65 100.2 L 439.65 106.1 L 442.55 106.1 L 442.55 100.2 L 439.65 100.2 Z"/>
      <path id="hole_163" style="fill:none;stroke:#000000;stroke-width:0.0508" d="M 393.9 100.2 L 393.9 106.1 L 396.8 106.1 L 396.8 100.2 L 393.9 100.2 Z"/>
      <path id="hole_164" style="fill:none;stroke:#000000;stroke-width:0.0508" d="M 348.15 100.2 L 348.15 106.1 L 351.05 106.1 L 351.05 100.2 L 348.15 100.2 Z"/>
      <path id="hole_165" style="fill:none;stroke:#000000;stroke-width:0.0508" d="M 439.65 112.2 L 439.65 118.1 L 442.55 118.1 L 442.55 112.2 L 439.65 112.2 Z"/>
      <path id="hole_166" style="fill:none;stroke:#000000;stroke-width:0.0508" d="M 393.9 112.2 L 393.9 118.1 L 396.8 118.1 L 396.8 112.2 L 393.9 112.2 Z"/>
      <path id="hole_167" style="fill:none;stroke:#000000;stroke-width:0.0508" d="M 348.15 112.2 L 348.15 118.1 L 351.05 118.1 L 351.05 112.2 L 348.15 112.2 Z"/>
      <path id="hole_168" style="fill:none;stroke:#000000;stroke-width:0.0508" d="M 439.65 124.2 L 439.65 130.1 L 442.55 130.1 L 442.55 124.2 L 439.65 124.2 Z"/>
      <path id="hole_169" style="fill:none;stroke:#000000;stroke-width:0.0508" d="M 393.9 124.2 L 393.9 130.1 L 396.8 130.1 L 396.8 124.2 L 393.9 124.2 Z"/>
      <path id="hole_170" style="fill:none;stroke:#000000;stroke-width:0.0508" d="M 348.15 124.2 L 348.15 130.1 L 351.05 130.1 L 351.05 124.2 L 348.15 124.2 Z"/>
      <path id="hole_171" style="fill:none;stroke:#000000;stroke-width:0.0508" d="M 439.65 136.2 L 439.65 142.1 L 442.55 142.1 L 442.55 136.2 L 439.65 136.2 Z"/>
      <path id="hole_172" style="fill:none;stroke:#000000;stroke-width:0.0508" d="M 393.9 136.2 L 393.9 142.1 L 396.8 142.1 L 396.8 136.2 L 393.9 136.2 Z"/>
      <path id="hole_173" style="fill:none;stroke:#000000;stroke-width:0.0508" d="M 348.15 136.2 L 348.15 142.1 L 351.05 142.1 L 351.05 136.2 L 348.15 136.2 Z"/>
      <path id="hole_174" style="fill:none;stroke:#000000;stroke-width:0.0508" d="M 439.65 148.2 L 439.65 154.1 L 442.55 154.1 L 442.55 148.2 L 439.65 148.2 Z"/>
      <path id="hole_175" style="fill:none;stroke:#000000;stroke-width:0.0508" d="M 393.9 148.2 L 393.9 154.1 L 396.8 154.1 L 396.8 148.2 L 393.9 148.2 Z"/>
      <path id="hole_176" style="fill:none;stroke:#000000;stroke-width:0.0508" d="M 348.15 148.2 L 348.15 154.1 L 351.05 154.1 L 351.05 148.2 L 348.15 148.2 Z"/>
      <path id="hole_177" style="fill:none;stroke:#000000;stroke-width:0.0508" d="M 439.65 160.2 L 439.65 166.1 L 442.55 166.1 L 442.55 160.2 L 439.65 160.2 Z"/>
      <path id="hole_178" style="fill:none;stroke:#000000;stroke-width:0.0508" d="M 393.9 160.2 L 393.9 166.1 L 396.8 166.1 L 396.8 160.2 L 393.9 160.2 Z"/>
      <path id="hole_179" style="fill:none;stroke:#000000;stroke-width:0.0508" d="M 348.15 160.2 L 348.15 166.1 L 351.05 166.1 L 351.05 160.2 L 348.15 160.2 Z"/>
      <path id="hole_180" style="fill:none;stroke:#000000;stroke-width:0.0508" d="M 439.65 172.2 L 439.65 178.1 L 442.55 178.1 L 442.55 172.2 L 439.65 172.2 Z"/>
      <path id="hole_181" style="fill:none;stroke:#000000;stroke-width:0.0508" d="M 393.9 172.2 L 393.9 178.1 L 396.8 178.1 L 396.8 172.2 L 393.9 172.2 Z"/>
      <path id="hole_182" style="fill:none;stroke:#000000;stroke-width:0.0508" d="M 348.15 172.2 L 348.15 178.1 L 351.05 178.1 L 351.05 172.2 L 348.15 172.2 Z"/>
      <path id="hole_183" style="fill:none;stroke:#000000;stroke-width:0.0508" d="M 439.65 184.2 L 439.65 190.1 L 442.55 190.1 L 442.55 184.2 L 439.65 184.2 Z"/>
      <path id="hole_184" style="fill:none;stroke:#000000;stroke-width:0.0508" d="M 393.9 184.2 L 393.9 190.1 L 396.8 190.1 L 396.8 184.2 L 393.9 184.2 Z"/>
      <path id="hole_185" style="fill:none;stroke:#000000;stroke-width:0.0508" d="M 348.15 184.2 L 348.15 190.1 L 351.05 190.1 L 351.05 184.2 L 348.15 184.2 Z"/>
      <path id="hole_186" style="fill:none;stroke:#000000;stroke-width:0.0508" d="M 439.65 196.2 L 439.65 202.1 L 442.55 202.1 L 442.55 196.2 L 439.65 196.2 Z"/>
      <path id="hole_187" style="fill:none;stroke:#000000;stroke-width:0.0508" d="M 393.9 196.2 L 393.9 202.1 L 396.8 202.1 L 396.8 196.2 L 393.9 196.2 Z"/>
      <path id="hole_188" style="fill:none;stroke:#000000;stroke-width:0.0508" d="M 348.15 196.2 L 348.15 202.1 L 351.05 202.1 L 351.05 196.2 L 348.15 196.2 Z"/>
      <path id="hole_189" style="fill:none;stroke:#000000;stroke-width:0.0508" d="M 439.65 208.2 L 439.65 214.1 L 442.55 214.1 L 442.55 208.2 L 439.65 208.2 Z"/>
      <path id="hole_190" style="fill:none;stroke:#000000;stroke-width:0.0508" d="M 393.9 208.2 L 393.9 214.1 L 396.8 214.1 L 396.8 208.2 L 393.9 208.2 Z"/>
      <path id="hole_191" style="fill:none;stroke:#000000;stroke-width:0.0508" d="M 348.15 208.2 L 348.15 214.1 L 351.05 214.1 L 351.05 208.2 L 348.15 208.2 Z"/>
      <path id="hole_192" style="fill:none;stroke:#000000;stroke-width:0.0508" d="M 439.65 220.2 L 439.65 226.1 L 442.55 226.1 L 442.55 220.2 L 439.65 220.2 Z"/>
      <path id="hole_193" style="fill:none;stroke:#000000;stroke-width:0.0508" d="M 393.9 220.2 L 393.9 226.1 L 396.8 226.1 L 396.8 220.2 L 393.9 220.2 Z"/>
      <path id="hole_194" style="fill:none;stroke:#000000;stroke-width:0.0508" d="M 348.15 220.2 L 348.15 226.1 L 351.05 226.1 L 351.05 220.2 L 348.15 220.2 Z"/>
      <path id="hole_195" style="fill:none;stroke:#000000;stroke-width:0.0508" d="M 439.65 232.2 L 439.65 238.1 L 442.55 238.1 L 442.55 232.2 L 439.65 232.2 Z"/>
      <path id="hole_196" style="fill:none;stroke:#000000;stroke-width:0.0508" d="M 393.9 232.2 L 393.9 238.1 L 396.8 238.1 L 396.8 232.2 L 393.9 232.2 Z"/>
      <path id="hole_197" style="fill:none;stroke:#000000;stroke-width:0.0508" d="M 348.15 232.2 L 348.15 238.1 L 351.05 238.1 L 351.05 232.2 L 348.15 232.2 Z"/>
      <path id="hole_198" style="fill:none;stroke:#000000;stroke-width:0.0508" d="M 439.65 244.2 L 439.65 250.1 L 442.55 250.1 L 442.55 244.2 L 439.65 244.2 Z"/>
      <path id="hole_199" style="fill:none;stroke:#000000;stroke-width:0.0508" d="M 393.9 244.2 L 393.9 250.1 L 396.8 250.1 L 396.8 244.2 L 393.9 244.2 Z"/>
      <path id="hole_200" style="fill:none;stroke:#000000;stroke-width:0.0508" d="M 348.15 244.2 L 348.15 250.1 L 351.05 250.1 L 351.05 244.2 L 348.15 244.2 Z"/>
      <path id="hole_201" style="fill:none;stroke:#000000;stroke-width:0.0508" d="M 439.65 256.2 L 439.65 262.1 L 442.55 262.1 L 442.55 256.2 L 439.65 256.2 Z"/>
      <path id="hole_202" style="fill:none;stroke:#000000;stroke-width:0.0508" d="M 393.9 256.2 L 393.9 262.1 L 396.8 262.1 L 396.8 256.2 L 393.9 256.2 Z"/>
      <path id="hole_203" style="fill:none;stroke:#000000;stroke-width:0.0508" d="M 348.15 256.2 L 348.15 262.1 L 351.05 262.1 L 351.05 256.2 L 348.15 256.2 Z"/>
      <path id="hole_204" style="fill:none;stroke:#000000;stroke-width:0.0508" d="M 439.65 268.2 L 439.65 274.1 L 442.55 274.1 L 442.55 268.2 L 439.65 268.2 Z"/>
      <path id="hole_205" style="fill:none;stroke:#000000;stroke-width:0.0508" d="M 393.9 268.2 L 393.9 274.1 L 396.8 274.1 L 396.8 268.2 L 393.9 268.2 Z"/>
      <path id="hole_206" style="fill:none;stroke:#000000;stroke-width:0.0508" d="M 348.15 268.2 L 348.15 274.1 L 351.05 274.1 L 351.05 268.2 L 348.15 268.2 Z"/>
      <path id="hole_207" style="fill:none;stroke:#000000;stroke-width:0.0508" d="M 439.65 280.2 L 439.65 286.1 L 442.55 286.1 L 442.55 280.2 L 439.65 280.2 Z"/>
      <path id="hole_208" style="fill:none;stroke:#000000;stroke-width:0.0508" d="M 393.9 280.2 L 393.9 286.1 L 396.8 286.1 L 396.8 280.2 L 393.9 280.2 Z"/>
      <path id="hole_209" style="fill:none;stroke:#000000;stroke-width:0.0508" d="M 348.15 280.2 L 348.15 286.1 L 351.05 286.1 L 351.05 280.2 L 348.15 280.2 Z"/>
      <path id="hole_210" style="fill:none;stroke:#000000;stroke-width:0.0508" d="M 439.65 292.2 L 439.65 298.1 L 442.55 298.1 L 442.55 292.2 L 439.65 292.2 Z"/>
      <path id="hole_211" style="fill:none;stroke:#000000;stroke-width:0.0508" d="M 393.9 292.2 L 393.9 298.1 L 396.8 298.1 L 396.8 292.2 L 393.9 292.2 Z"/>
      <path id="hole_212" style="fill:none;stroke:#000000;stroke-width:0.0508" d="M 348.15 292.2 L 348.15 298.1 L 351.05 298.1 L 351.05 292.2 L 348.15 292.2 Z"/>
      <path id="side_039" style="fill:none;stroke:#000000;stroke-width:0.0508" d="M 488.4 304.2 L 482.3 304.2 L 482.3 301.2 L 476.4 301.2 L 476.4 304.2 L 470.3 304.2 L 470.3 301.2 L 464.4 301.2 L 464.4 304.2 L 458.3 304.2 L 458.3 301.2 L 452.4 301.2 L 452.4 304.2 L 446.3 304.2 L 446.3 301.2 L 440.4 301.2 L 440.4 304.2 L 434.3 304.2 L 434.3 301.2 L 428.4 301.2 L 428.4 304.2 L 422.3 304.2 L 422.3 301.2 L 416.4 301.2 L 416.4 304.2 L 410.3 304.2 L 410.3 301.2 L 404.4 301.2 L 404.4 304.2 L 398.3 304.2 L 398.3 301.2 L 392.4 301.2 L 392.4 304.2 L 386.3 304.2 L 386.3 301.2 L 380.4 301.2 L 380.4 304.2 L 374.3 304.2 L 374.3 301.2 L 368.4 301.2 L 368.4 304.2 L 362.3 304.2 L 362.3 301.2 L 356.4 301.2 L 356.4 304.2 L 350.3 304.2 L 350.3 301.2 L 344.4 301.2 L 344.4 304.2 L 338.3 304.2 L 338.3 301.2 L 332.4 301.2 L 332.4 304.2 L 326.3 304.2 L 326.3 301.2 L 320.4 301.2 L 320.4 304.2 L 314.3 304.2 L 314.3 301.2 L 308.4 301.2 L 308.4 304.2 L 302.3 304.2"/>
      <path id="side_040" style="fill:none;stroke:#000000;stroke-width:0.0508" d="M 302.3 304.2 L 302.3 298.1 L 305.3 298.1 L 305.3 292.2 L 302.3 292.2 L 302.3 286.1 L 305.3 286.1 L 305.3 280.2 L 302.3 280.2 L 302.3 274.1 L 305.3 274.1 L 305.3 268.2 L 302.3 268.2 L 302.3 262.1 L 305.3 262.1 L 305.3 256.2 L 302.3 256.2 L 302.3 250.1 L 305.3 250.1 L 305.3 244.2 L 302.3 244.2 L 302.3 238.1 L 305.3 238.1 L 305.3 232.2 L 302.3 232.2 L 302.3 226.1 L 305.3 226.1 L 305.3 220.2 L 302.3 220.2 L 302.3 214.1 L 305.3 214.1 L 305.3 208.2 L 302.3 208.2 L 302.3 202.1 L 305.3 202.1 L 305.3 196.2 L 302.3 196.2 L 302.3 190.1 L 305.3 190.1 L 305.3 184.2 L 302.3 184.2 L 302.3 178.1 L 305.3 178.1 L 305.3 172.2 L 302.3 172.2 L 302.3 166.1 L 305.3 166.1 L 305.3 160.2 L 302.3 160.2 L 302.3 154.1 L 305.3 154.1 L 305.3 148.2 L 302.3 148.2 L 302.3 142.1 L 305.3 142.1 L 305.3 136.2 L 302.3 136.2 L 302.3 130.1 L 305.3 130.1 L 305.3 124.2 L 302.3 124.2 L 302.3 118.1 L 305.3 118.1 L 305.3 112.2 L 302.3 112.2 L 302.3 106.1 L 305.3 106.1 L 305.3 100.2 L 302.3 100.2 L 302.3 94.1 L 305.3 94.1 L 305.3 88.2 L 302.3 88.2 L 302.3 82.1 L 305.3 82.1 L 305.3 76.2 L 302.3 76.2 L 302.3 70.1 L 305.3 70.1 L 305.3 64.2 L 302.3 64.2 L 302.3 58.1"/>
    </g>
    <g id="piece_006">
      <path id="side_041" style="fill:none;stroke:#000000;stroke-width:0.0508" d="M 58.1 4 L 64.1 4 L 64.1 1 L 70.2 1 L 70.2 4 L 76.1 4 L 76.1 1 L 82.2 1 L 82.2 4 L 88.1 4 L 88.1 1 L 94.2 1 L 94.2 4 L 100.1 4 L 100.1 1 L 106.2 1 L 106.2 4 L 112.1 4 L 112.1 1 L 118.2 1 L 118.2 4 L 124.1 4 L 124.1 1 L 130.2 1 L 130.2 4 L 136.1 4 L 136.1 1 L 142.2 1 L 142.2 4 L 148.1 4 L 148.1 1 L 154.2 1 L 154.2 4 L 160.1 4 L 160.1 1 L 166.2 1 L 166.2 4 L 172.1 4 L 172.1 1 L 178.2 1 L 178.2 4 L 184.1 4 L 184.1 1 L 190.2 1 L 190.2 4 L 196.1 4 L 196.1 1 L 202.2 1 L 202.2 4 L 208.1 4 L 208.1 1 L 214.2 1 L 214.2 4 L 220.1 4 L 220.1 1 L 226.2 1 L 226.2 4 L 232.1 4 L 232.1 1 L 238.2 1 L 238.2 4 L 244.2 4"/>
      <path id="side_042" style="fill:none;stroke:#000000;stroke-width:0.0508" d="M 244.2 4 L 244.2 7.5 L 241.2 7.5 L 241.2 13.4 L 244.2 13.4 L 244.2 19.9 L 241.2 19.9 L 241.2 25.8 L 244.2 25.8 L 244.2 32.3 L 241.2 32.3 L 241.2 38.2 L 244.2 38.2 L 244.2 44.7 L 241.2 44.7 L 241.2 50.6 L 244.2 50.6 L 244.2 54.1"/>
      <path id="hole_213" style="fill:none;stroke:#000000;stroke-width:0.0508" d="M 195.45 7.5 L 195.45 13.4 L 198.35 13.4 L 198.35 7.5 L 195.45 7.5 Z"/>
      <path id="hole_214" style="fill:none;stroke:#000000;stroke-width:0.0508" d="M 149.7 7.5 L 149.7 13.4 L 152.6 13.4 L 152.6 7.5 L 149.7 7.5 Z"/>
      <path id="hole_215" style="fill:none;stroke:#000000;stroke-width:0.0508" d="M 103.95 7.5 L 103.95 13.4 L 106.85 13.4 L 106.85 7.5 L 103.95 7.5 Z"/>
      <path id="hole_216" style="fill:none;stroke:#000000;stroke-width:0.0508" d="M 195.45 19.9 L 195.45 25.8 L 198.35 25.8 L 198.35 19.9 L 195.45 19.9 Z"/>
      <path id="hole_217" style="fill:none;stroke:#000000;stroke-width:0.0508" d="M 149.7 19.9 L 149.7 25.8 L 152.6 25.8 L 152.6 19.9 L 149.7 19.9 Z"/>
      <path id="hole_218" style="fill:none;stroke:#000000;stroke-width:0.0508" d="M 103.95 19.9 L 103.95 25.8 L 106.85 25.8 L 106.85 19.9 L 103.95 19.9 Z"/>
      <path id="hole_219" style="fill:none;stroke:#000000;stroke-width:0.0508" d="M 195.45 32.3 L 195.45 38.2 L 198.35 38.2 L 198.35 32.3 L 195.45 32.3 Z"/>
      <path id="hole_220" style="fill:none;stroke:#000000;stroke-width:0.0508" d="M 149.7 32.3 L 149.7 38.2 L 152.6 38.2 L 152.6 32.3 L 149.7 32.3 Z"/>
      <path id="hole_221" style="fill:none;stroke:#000000;stroke-width:0.0508" d="M 103.95 32.3 L 103.95 38.2 L 106.85 38.2 L 106.85 32.3 L 103.95 32.3 Z"/>
      <path id="hole_222" style="fill:none;stroke:#000000;stroke-width:0.0508" d="M 195.45 44.7 L 195.45 50.6 L 198.35 50.6 L 198.35 44.7 L 195.45 44.7 Z"/>
      <path id="hole_223" style="fill:none;stroke:#000000;stroke-width:0.0508" d="M 149.7 44.7 L 149.7 50.6 L 152.6 50.6 L 152.6 44.7 L 149.7 44.7 Z"/>
      <path id="hole_224" style="fill:none;stroke:#000000;stroke-width:0.0508" d="M 103.95 44.7 L 103.95 50.6 L 106.85 50.6 L 106.85 44.7 L 103.95 44.7 Z"/>
      <path id="side_043" style="fill:none;stroke:#000000;stroke-width:0.0508" d="M 244.2 54.1 L 238.2 54.1 L 238.2 57.1 L 232.1 57.1 L 232.1 54.1 L 226.2 54.1 L 226.2 57.1 L 220.1 57.1 L 220.1 54.1 L 214.2 54.1 L 214.2 57.1 L 208.1 57.1 L 208.1 54.1 L 202.2 54.1 L 202.2 57.1 L 196.1 57.1 L 196.1 54.1 L 190.2 54.1 L 190.2 57.1 L 184.1 57.1 L 184.1 54.1 L 178.2 54.1 L 178.2 57.1 L 172.1 57.1 L 172.1 54.1 L 166.2 54.1 L 166.2 57.1 L 160.1 57.1 L 160.1 54.1 L 154.2 54.1 L 154.2 57.1 L 148.1 57.1 L 148.1 54.1 L 142.2 54.1 L 142.2 57.1 L 136.1 57.1 L 136.1 54.1 L 130.2 54.1 L 130.2 57.1 L 124.1 57.1 L 124.1 54.1 L 118.2 54.1 L 118.2 57.1 L 112.1 57.1 L 112.1 54.1 L 106.2 54.1 L 106.2 57.1 L 100.1 57.1 L 100.1 54.1 L 94.2 54.1 L 94.2 57.1 L 88.1 57.1 L 88.1 54.1 L 82.2 54.1 L 82.2 57.1 L 76.1 57.1 L 76.1 54.1 L 70.2 54.1 L 70.2 57.1 L 64.1 57.1 L 64.1 54.1 L 58.1 54.1"/>
      <path id="side_044" style="fill:none;stroke:#000000;stroke-width:0.0508" d="M 58.1 54.1 L 58.1 50.6 L 61.1 50.6 L 61.1 44.7 L 58.1 44.7 L 58.1 38.2 L 61.1 38.2 L 61.1 32.3 L 58.1 32.3 L 58.1 25.8 L 61.1 25.8 L 61.1 19.9 L 58.1 19.9 L 58.1 13.4 L 61.1 13.4 L 61.1 7.5 L 58.1 7.5 L 58.1 4"/>
    </g>
  </g>
</svg>