<!-- Created with Inkscape (http://www.inkscape.org/) -->
<svg xmlns:inkscape="http://www.inkscape.org/namespaces/inkscape" xmlns:sodipodi="http://sodipodi.sourceforge.net/DTD/sodipodi-0.dtd" xmlns="http://www.w3.org/2000/svg" xmlns:svg="http://www.w3.org/2000/svg" width="489.4mm" height="666.5mm" viewBox="0 0 489.4 666.5" version="1.1" id="svg5" inkscape:version="1.1.2 (0a00cf5339, 2022-02-04)" sodipodi:docname="blank.svg">
  <sodipodi:namedview id="namedview7" pagecolor="#ffffff" bordercolor="#666666" borderopacity="1.0" inkscape:pageshadow="2" inkscape:pageopacity="0.0" inkscape:pagecheckerboard="0" inkscape:document-units="mm" showgrid="false" inkscape:zoom="0.64052329" inkscape:cx="397.33138" inkscape:cy="561.25984" inkscape:window-width="2086" inkscape:window-height="1376" inkscape:window-x="0" inkscape:window-y="0" inkscape:window-maximized="1" inkscape:current-layer="layer1"/>
  <defs id="defs2"/>
  <g inkscape:label="Layer 1" inkscape:groupmode="layer" id="layer1">
    <metadata text="createArgs=['--unit=mm', '--inside=1', '--length=180', '--width=240', '--depth=50', '--equal=0', '--tab=6', '--tabtype=0', '--tabsymmetry=0', '--dimpleheight=0', '--dimplelength=0', '--hairline=1', '--thickness=3', '--kerf=0.1', '--style=1', '--boxtype=1', '--div_l=2', '--div_w=3', '--keydiv=0', '--spacing=1']"/>
    <g id="piece_001">
      <path id="side_001" style="fill:none;stroke:#000000;stroke-width:0.0508" d="M 58.1 308.2 L 64.0563 308.2 L 64.0563 305.2 L 70.1562 305.2 L 70.1562 308.2 L 76.0625 308.2 L 76.0625 305.2 L 82.1625 305.2 L 82.1625 308.2 L 88.0688 308.2 L 88.0688 305.2 L 94.1688 305.2 L 94.1688 308.2 L 100.075 308.2 L 100.075 305.2 L 106.175 305.2 L 106.175 308.2 L 112.081 308.2 L 112.081 305.2 L 118.181 305.2 L 118.181 308.2 L 124.088 308.2 L 124.088 305.2 L 130.188 305.2 L 130.188 308.2 L 136.094 308.2 L 136.094 305.2 L 142.194 305.2 L 142.194 308.2 L 148.1 308.2 L 148.1 305.2 L 154.2 305.2 L 154.2 308.2 L 160.106 308.2 L 160.106 305.2 L 166.206 305.2 L 166.206 308.2 L 172.112 308.2 L 172.112 305.2 L 178.212 305.2 L 178.212 308.2 L 184.119 308.2 L 184.119 305.2 L 190.219 305.2 L 190.219 308.2 L 196.125 308.2 L 196.125 305.2 L 202.225 305.2 L 202.225 308.2 L 208.131 308.2 L 208.131 305.2 L 214.231 305.2 L 214.231 308.2 L 220.137 308.2 L 220.137 305.2 L 226.237 305.2 L 226.237 308.2 L 232.144 308.2 L 232.144 305.2 L 238.244 305.2 L 238.244 308.2 L 244.2 308.2"/>
      <path id="side_002" style="fill:none;stroke:#000000;stroke-width:0.0508" d="M 244.2 308.2 L 244.2 311.67 L 241.2 311.67 L 241.2 317.57 L 244.2 317.57 L 244.2 324.09 L 241.2 324.09 L 241.2 329.99 L 244.2 329.99 L 244.2 336.51 L 241.2 336.51 L 241.2 342.41 L 244.2 342.41 L 244.2 348.93 L 241.2 348.93 L 241.2 354.83 L 244.2 354.83 L 244.2 358.3"/>
      <path id="hole_001" style="fill:none;stroke:#000000;stroke-width:0.0508" d="M 195.475 311.67 L 195.475 317.57 L 198.375 317.57 L 198.375 311.67 L 195.475 311.67 Z"/>
      <path id="hole_002" style="fill:none;stroke:#000000;stroke-width:0.0508" d="M 149.7 311.67 L 149.7 317.57 L 152.6 317.57 L 152.6 311.67 L 149.7 311.67 Z"/>
      <path id="hole_003" style="fill:none;stroke:#000000;stroke-width:0.0508" d="M 103.925 311.67 L 103.925 317.57 L 106.825 317.57 L 106.825 311.67 L 103.925 311.67 Z"/>
      <path id="hole_004" style="fill:none;stroke:#000000;stroke-width:0.0508" d="M 195.475 324.09 L 195.475 329.99 L 198.375 329.99 L 198.375 324.09 L 195.475 324.09 Z"/>
      <path id="hole_005" style="fill:none;stroke:#000000;stroke-width:0.0508" d="M 149.7 324.09 L 149.7 329.99 L 152.6 329.99 L 152.6 324.09 L 149.7 324.09 Z"/>
      <path id="hole_006" style="fill:none;stroke:#000000;stroke-width:0.0508" d="M 103.925 324.09 L 103.925 329.99 L 106.825 329.99 L 106.825 324.09 L 103.925 324.09 Z"/>
      <path id="hole_007" style="fill:none;stroke:#000000;stroke-width:0.0508" d="M 195.475 336.51 L 195.475 342.41 L 198.375 342.41 L 198.375 336.51 L 195.475 336.51 Z"/>
      <path id="hole_008" style="fill:none;stroke:#000000;stroke-width:0.0508" d="M 149.7 336.51 L 149.7 342.41 L 152.6 342.41 L 152.6 336.51 L 149.7 336.51 Z"/>
      <path id="hole_009" style="fill:none;stroke:#000000;stroke-width:0.0508" d="M 103.925 336.51 L 103.925 342.41 L 106.825 342.41 L 106.825 336.51 L 103.925 336.51 Z"/>
      <path id="hole_010" style="fill:none;stroke:#000000;stroke-width:0.0508" d="M 195.475 348.93 L 195.475 354.83 L 198.375 354.83 L 198.375 348.93 L 195.475 348.93 Z"/>
      <path id="hole_011" style="fill:none;stroke:#000000;stroke-width:0.0508" d="M 149.7 348.93 L 149.7 354.83 L 152.6 354.83 L 152.6 348.93 L 149.7 348.93 Z"/>
      <path id="hole_012" style="fill:none;stroke:#000000;stroke-width:0.0508" d="M 103.925 348.93 L 103.925 354.83 L 106.825 354.83 L 106.825 348.93 L 103.925 348.93 Z"/>
      <path id="side_003" style="fill:none;stroke:#000000;stroke-width:0.0508" d="M 244.2 358.3 L 238.244 358.3 L 238.244 361.3 L 232.144 361.3 L 232.144 358.3 L 226.237 358.3 L 226.237 361.3 L 220.137 361.3 L 220.137 358.3 L 214.231 358.3 L 214.231 361.3 L 208.131 361.3 L 208.131 358.3 L 202.225 358.3 L 202.225 361.3 L 196.125 361.3 L 196.125 358.3 L 190.219 358.3 L 190.219 361.3 L 184.119 361.3 L 184.119 358.3 L 178.212 358.3 L 178.212 361.3 L 172.112 361.3 L 172.112 358.3 L 166.206 358.3 L 166.206 361.3 L 160.106 361.3 L 160.106 358.3 L 154.2 358.3 L 154.2 361.3 L 148.1 361.3 L 148.1 358.3 L 142.194 358.3 L 142.194 361.3 L 136.094 361.3 L 136.094 358.3 L 130.188 358.3 L 130.188 361.3 L 124.088 361.3 L 124.088 358.3 L 118.181 358.3 L 118.181 361.3 L 112.081 361.3 L 112.081 358.3 L 106.175 358.3 L 106.175 361.3 L 100.075 361.3 L 100.075 358.3 L 94.169 358.3 L 94.169 361.3 L 88.069 361.3 L 88.069 358.3 L 82.163 358.3 L 82.163 361.3 L 76.063 361.3 L 76.063 358.3 L 70.156 358.3 L 70.156 361.3 L 64.056 361.3 L 64.056 358.3 L 58.1 358.3"/>
      <path id="side_004" style="fill:none;stroke:#000000;stroke-width:0.0508" d="M 58.1 358.3 L 58.1 354.83 L 61.1 354.83 L 61.1 348.93 L 58.1 348.93 L 58.1 342.41 L 61.1 342.41 L 61.1 336.51 L 58.1 336.51 L 58.1 329.99 L 61.1 329.99 L 61.1 324.09 L 58.1 324.09 L 58.1 317.57 L 61.1 317.57 L 61.1 311.67 L 58.1 311.67 L 58.1 308.2"/>
    </g>
    <g id="xdivider_001">
      <path id="side_005" style="fill:none;stroke:#000000;stroke-width:0.0508" d="M 1 365.3 L 6.95625 365.3 L 6.95625 362.3 L 13.0562 362.3 L 13.0562 365.3 L 18.9625 365.3 L 18.9625 362.3 L 25.0625 362.3 L 25.0625 365.3 L 30.9688 365.3 L 30.9688 362.3 L 37.0688 362.3 L 37.0688 365.3 L 42.975 365.3 L 42.975 362.3 L 49.075 362.3 L 49.075 365.3 L 54.9813 365.3 L 54.9813 362.3 L 61.0813 362.3 L 61.0813 365.3 L 66.9875 365.3 L 66.9875 362.3 L 73.0875 362.3 L 73.0875 365.3 L 78.9938 365.3 L 78.9938 362.3 L 85.0938 362.3 L 85.0938 365.3 L 91 365.3 L 91 362.3 L 97.1 362.3 L 97.1 365.3 L 103.006 365.3 L 103.006 362.3 L 109.106 362.3 L 109.106 365.3 L 115.012 365.3 L 115.012 362.3 L 121.112 362.3 L 121.112 365.3 L 127.019 365.3 L 127.019 362.3 L 133.119 362.3 L 133.119 365.3 L 139.025 365.3 L 139.025 362.3 L 145.125 362.3 L 145.125 365.3 L 151.031 365.3 L 151.031 362.3 L 157.131 362.3 L 157.131 365.3 L 163.037 365.3 L 163.037 362.3 L 169.137 362.3 L 169.137 365.3 L 175.044 365.3 L 175.044 362.3 L 181.144 362.3 L 181.144 365.3 L 187.1 365.3"/>
      <path id="side_006" style="fill:none;stroke:#000000;stroke-width:0.0508" d="M 187.1 365.3 L 187.1 368.77 L 184.1 368.77 L 184.1 374.67 L 187.1 374.67 L 187.1 381.19 L 184.1 381.19 L 184.1 387.09 L 187.1 387.09 L 187.1 393.61 L 184.1 393.61 L 184.1 399.51 L 187.1 399.51 L 187.1 406.03 L 184.1 406.03 L 184.1 411.93 L 187.1 411.93 L 187.1 415.4"/>
      <path id="slot_001" style="fill:none;stroke:#000000;stroke-width:0.0508" d="M 138.375 362.3 L 138.375 387.3 L 141.275 387.3 L 141.275 362.3 L 138.375 362.3 Z"/>
      <path id="slot_002" style="fill:none;stroke:#000000;stroke-width:0.0508" d="M 92.6 362.3 L 92.6 387.3 L 95.5 387.3 L 95.5 362.3 L 92.6 362.3 Z"/>
      <path id="slot_003" style="fill:none;stroke:#000000;stroke-width:0.0508" d="M 46.825 362.3 L 46.825 387.3 L 49.725 387.3 L 49.725 362.3 L 46.825 362.3 Z"/>
      <path id="side_007" style="fill:none;stroke:#000000;stroke-width:0.0508" d="M 187.1 415.4 L 181.144 415.4 L 181.144 418.4 L 175.044 418.4 L 175.044 415.4 L 169.137 415.4 L 169.137 418.4 L 163.037 418.4 L 163.037 415.4 L 157.131 415.4 L 157.131 418.4 L 151.031 418.4 L 151.031 415.4 L 145.125 415.4 L 145.125 418.4 L 139.025 418.4 L 139.025 415.4 L 133.119 415.4 L 133.119 418.4 L 127.019 418.4 L 127.019 415.4 L 121.112 415.4 L 121.112 418.4 L 115.012 418.4 L 115.012 415.4 L 109.106 415.4 L 109.106 418.4 L 103.006 418.4 L 103.006 415.4 L 97.1 415.4 L 97.1 418.4 L 91 418.4 L 91 415.4 L 85.094 415.4 L 85.094 418.4 L 78.994 418.4 L 78.994 415.4 L 73.088 415.4 L 73.088 418.4 L 66.988 418.4 L 66.988 415.4 L 61.081 415.4 L 61.081 418.4 L 54.981 418.4 L 54.981 415.4 L 49.075 415.4 L 49.075 418.4 L 42.975 418.4 L 42.975 415.4 L 37.069 415.4 L 37.069 418.4 L 30.969 418.4 L 30.969 415.4 L 25.063 415.4 L 25.063 418.4 L 18.963 418.4 L 18.963 415.4 L 13.056 415.4 L 13.056 418.4 L 6.956 418.4 L 6.956 415.4 L 1 415.4"/>
      <path id="side_008" style="fill:none;stroke:#000000;stroke-width:0.0508" d="M 1 415.4 L 1 411.93 L 4 411.93 L 4 406.03 L 1 406.03 L 1 399.51 L 4 399.51 L 4 393.61 L 1 393.61 L 1 387.09 L 4 387.09 L 4 381.19 L 1 381.19 L 1 374.67 L 4 374.67 L 4 368.77 L 1 368.77 L 1 365.3"/>
    </g>
    <g id="xdivider_002">
      <path id="side_009" style="fill:none;stroke:#000000;stroke-width:0.0508" d="M 188.1 365.3 L 194.056 365.3 L 194.056 362.3 L 200.156 362.3 L 200.156 365.3 L 206.062 365.3 L 206.062 362.3 L 212.162 362.3 L 212.162 365.3 L 218.069 365.3 L 218.069 362.3 L 224.169 362.3 L 224.169 365.3 L 230.075 365.3 L 230.075 362.3 L 236.175 362.3 L 236.175 365.3 L 242.081 365.3 L 242.081 362.3 L 248.181 362.3 L 248.181 365.3 L 254.087 365.3 L 254.087 362.3 L 260.188 362.3 L 260.188 365.3 L 266.094 365.3 L 266.094 362.3 L 272.194 362.3 L 272.194 365.3 L 278.1 365.3 L 278.1 362.3 L 284.2 362.3 L 284.2 365.3 L 290.106 365.3 L 290.106 362.3 L 296.206 362.3 L 296.206 365.3 L 302.112 365.3 L 302.112 362.3 L 308.212 362.3 L 308.212 365.3 L 314.119 365.3 L 314.119 362.3 L 320.219 362.3 L 320.219 365.3 L 326.125 365.3 L 326.125 362.3 L 332.225 362.3 L 332.225 365.3 L 338.131 365.3 L 338.131 362.3 L 344.231 362.3 L 344.231 365.3 L 350.137 365.3 L 350.137 362.3 L 356.237 362.3 L 356.237 365.3 L 362.144 365.3 L 362.144 362.3 L 368.244 362.3 L 368.244 365.3 L 374.2 365.3"/>
      <path id="side_010" style="fill:none;stroke:#000000;stroke-width:0.0508" d="M 374.2 365.3 L 374.2 368.77 L 371.2 368.77 L 371.2 374.67 L 374.2 374.67 L 374.2 381.19 L 371.2 381.19 L 371.2 387.09 L 374.2 387.09 L 374.2 393.61 L 371.2 393.61 L 371.2 399.51 L 374.2 399.51 L 374.2 406.03 L 371.2 406.03 L 371.2 411.93 L 374.2 411.93 L 374.2 415.4"/>
      <path id="slot_004" style="fill:none;stroke:#000000;stroke-width:0.0508" d="M 325.475 362.3 L 325.475 387.3 L 328.375 387.3 L 328.375 362.3 L 325.475 362.3 Z"/>
      <path id="slot_005" style="fill:none;stroke:#000000;stroke-width:0.0508" d="M 279.7 362.3 L 279.7 387.3 L 282.6 387.3 L 282.6 362.3 L 279.7 362.3 Z"/>
      <path id="slot_006" style="fill:none;stroke:#000000;stroke-width:0.0508" d="M 233.925 362.3 L 233.925 387.3 L 236.825 387.3 L 236.825 362.3 L 233.925 362.3 Z"/>
      <path id="side_011" style="fill:none;stroke:#000000;stroke-width:0.0508" d="M 374.2 415.4 L 368.244 415.4 L 368.244 418.4 L 362.144 418.4 L 362.144 415.4 L 356.238 415.4 L 356.238 418.4 L 350.137 418.4 L 350.137 415.4 L 344.231 415.4 L 344.231 418.4 L 338.131 418.4 L 338.131 415.4 L 332.225 415.4 L 332.225 418.4 L 326.125 418.4 L 326.125 415.4 L 320.219 415.4 L 320.219 418.4 L 314.119 418.4 L 314.119 415.4 L 308.212 415.4 L 308.212 418.4 L 302.112 418.4 L 302.112 415.4 L 296.206 415.4 L 296.206 418.4 L 290.106 418.4 L 290.106 415.4 L 284.2 415.4 L 284.2 418.4 L 278.1 418.4 L 278.1 415.4 L 272.194 415.4 L 272.194 418.4 L 266.094 418.4 L 266.094 415.4 L 260.188 415.4 L 260.188 418.4 L 254.088 418.4 L 254.088 415.4 L 248.181 415.4 L 248.181 418.4 L 242.081 418.4 L 242.081 415.4 L 236.175 415.4 L 236.175 418.4 L 230.075 418.4 L 230.075 415.4 L 224.169 415.4 L 224.169 418.4 L 218.069 418.4 L 218.069 415.4 L 212.163 415.4 L 212.163 418.4 L 206.063 418.4 L 206.063 415.4 L 200.156 415.4 L 200.156 418.4 L 194.056 418.4 L 194.056 415.4 L 188.1 415.4"/>
      <path id="side_012" style="fill:none;stroke:#000000;stroke-width:0.0508" d="M 188.1 415.4 L 188.1 411.93 L 191.1 411.93 L 191.1 406.03 L 188.1 406.03 L 188.1 399.51 L 191.1 399.51 L 191.1 393.61 L 188.1 393.61 L 188.1 387.09 L 191.1 387.09 L 191.1 381.19 L 188.1 381.19 L 188.1 374.67 L 191.1 374.67 L 191.1 368.77 L 188.1 368.77 L 188.1 365.3"/>
    </g>
    <g id="piece_002">
      <path id="side_013" style="fill:none;stroke:#000000;stroke-width:0.0508" d="M 4 61.1 L 7.37 61.1 L 7.37 58.1 L 13.47 58.1 L 13.47 61.1 L 19.79 61.1 L 19.79 58.1 L 25.89 58.1 L 25.89 61.1 L 32.21 61.1 L 32.21 58.1 L 38.31 58.1 L 38.31 61.1 L 44.63 61.1 L 44.63 58.1 L 50.73 58.1 L 50.73 61.1 L 54.1 61.1"/>
      <path id="hole_013" style="fill:none;stroke:#000000;stroke-width:0.0508" d="M 4 142.083 L 7.37 142.083 L 7.37 139.183 L 4 139.183 L 4 142.083 Z"/>
      <path id="hole_014" style="fill:none;stroke:#000000;stroke-width:0.0508" d="M 4 223.117 L 7.37 223.117 L 7.37 220.217 L 4 220.217 L 4 223.117 Z"/>
      <path id="hole_015" style="fill:none;stroke:#000000;stroke-width:0.0508" d="M 13.47 142.083 L 19.79 142.083 L 19.79 139.183 L 13.47 139.183 L 13.47 142.083 Z"/>
      <path id="hole_016" style="fill:none;stroke:#000000;stroke-width:0.0508" d="M 13.47 223.117 L 19.79 223.117 L 19.79 220.217 L 13.47 220.217 L 13.47 223.117 Z"/>
      <path id="hole_017" style="fill:none;stroke:#000000;stroke-width:0.0508" d="M 25.89 142.083 L 32.21 142.083 L 32.21 139.183 L 25.89 139.183 L 25.89 142.083 Z"/>
      <path id="hole_018" style="fill:none;stroke:#000000;stroke-width:0.0508" d="M 25.89 223.117 L 32.21 223.117 L 32.21 220.217 L 25.89 220.217 L 25.89 223.117 Z"/>
      <path id="hole_019" style="fill:none;stroke:#000000;stroke-width:0.0508" d="M 38.31 142.083 L 44.63 142.083 L 44.63 139.183 L 38.31 139.183 L 38.31 142.083 Z"/>
      <path id="hole_020" style="fill:none;stroke:#000000;stroke-width:0.0508" d="M 38.31 223.117 L 44.63 223.117 L 44.63 220.217 L 38.31 220.217 L 38.31 223.117 Z"/>
      <path id="hole_021" style="fill:none;stroke:#000000;stroke-width:0.0508" d="M 50.73 142.083 L 54.05 142.083 L 54.05 139.183 L 50.73 139.183 L 50.73 142.083 Z"/>
      <path id="hole_022" style="fill:none;stroke:#000000;stroke-width:0.0508" d="M 50.73 223.117 L 54.05 223.117 L 54.05 220.217 L 50.73 220.217 L 50.73 223.117 Z"/>
      <path id="side_014" style="fill:none;stroke:#000000;stroke-width:0.0508" d="M 54.1 61.1 L 54.1 64.0548 L 57.1 64.0548 L 57.1 70.1548 L 54.1 70.1548 L 54.1 76.0595 L 57.1 76.0595 L 57.1 82.1595 L 54.1 82.1595 L 54.1 88.0643 L 57.1 88.0643 L 57.1 94.1643 L 54.1 94.1643 L 54.1 100.069 L 57.1 100.069 L 57.1 106.169 L 54.1 106.169 L 54.1 112.074 L 57.1 112.074 L 57.1 118.174 L 54.1 118.174 L 54.1 124.079 L 57.1 124.079 L 57.1 130.179 L 54.1 130.179 L 54.1 136.083 L 57.1 136.083 L 57.1 142.183 L 54.1 142.183 L 54.1 148.088 L 57.1 148.088 L 57.1 154.188 L 54.1 154.188 L 54.1 160.093 L 57.1 160.093 L 57.1 166.193 L 54.1 166.193 L 54.1 172.098 L 57.1 172.098 L 57.1 178.198 L 54.1 178.198 L 54.1 184.102 L 57.1 184.102 L 57.1 190.202 L 54.1 190.202 L 54.1 196.107 L 57.1 196.107 L 57.1 202.207 L 54.1 202.207 L 54.1 208.112 L 57.1 208.112 L 57.1 214.212 L 54.1 214.212 L 54.1 220.117 L 57.1 220.117 L 57.1 226.217 L 54.1 226.217 L 54.1 232.121 L 57.1 232.121 L 57.1 238.221 L 54.1 238.221 L 54.1 244.126 L 57.1 244.126 L 57.1 250.226 L 54.1 250.226 L 54.1 256.131 L 57.1 256.131 L 57.1 262.231 L 54.1 262.231 L 54.1 268.136 L 57.1 268.136 L 57.1 274.236 L 54.1 274.236 L 54.1 280.14 L 57.1 280.14 L 57.1 286.24 L 54.1 286.24 L 54.1 292.145 L 57.1 292.145 L 57.1 298.245 L 54.1 298.245 L 54.1 301.2"/>
      <path id="side_015" style="fill:none;stroke:#000000;stroke-width:0.0508" d="M 54.1 301.2 L 50.73 301.2 L 50.73 304.2 L 44.63 304.2 L 44.63 301.2 L 38.31 301.2 L 38.31 304.2 L 32.21 304.2 L 32.21 301.2 L 25.89 301.2 L 25.89 304.2 L 19.79 304.2 L 19.79 301.2 L 13.47 301.2 L 13.47 304.2 L 7.37 304.2 L 7.37 301.2 L 4 301.2"/>
      <path id="side_016" style="fill:none;stroke:#000000;stroke-width:0.0508" d="M 4 301.2 L 4 298.245 L 1 298.245 L 1 292.145 L 4 292.145 L 4 286.24 L 1 286.24 L 1 280.14 L 4 280.14 L 4 274.236 L 1 274.236 L 1 268.136 L 4 268.136 L 4 262.231 L 1 262.231 L 1 256.131 L 4 256.131 L 4 250.226 L 1 250.226 L 1 244.126 L 4 244.126 L 4 238.221 L 1 238.221 L 1 232.121 L 4 232.121 L 4 226.217 L 1 226.217 L 1 220.117 L 4 220.117 L 4 214.212 L 1 214.212 L 1 208.112 L 4 208.112 L 4 202.207 L 1 202.207 L 1 196.107 L 4 196.107 L 4 190.202 L 1 190.202 L 1 184.102 L 4 184.102 L 4 178.198 L 1 178.198 L 1 172.098 L 4 172.098 L 4 166.193 L 1 166.193 L 1 160.093 L 4 160.093 L 4 154.188 L 1 154.188 L 1 148.088 L 4 148.088 L 4 142.183 L 1 142.183 L 1 136.083 L 4 136.083 L 4 130.179 L 1 130.179 L 1 124.079 L 4 124.079 L 4 118.174 L 1 118.174 L 1 112.074 L 4 112.074 L 4 106.169 L 1 106.169 L 1 100.069 L 4 100.069 L 4 94.164 L 1 94.164 L 1 88.064 L 4 88.064 L 4 82.16 L 1 82.16 L 1 76.06 L 4 76.06 L 4 70.155 L 1 70.155 L 1 64.055 L 4 64.055 L 4 61.1"/>
    </g>
    <g id="ydivider_001">
      <path id="side_017" style="fill:none;stroke:#000000;stroke-width:0.0508" d="M 4 422.4 L 7.37 422.4 L 7.37 419.4 L 13.47 419.4 L 13.47 422.4 L 19.79 422.4 L 19.79 419.4 L 25.89 419.4 L 25.89 422.4 L 32.21 422.4 L 32.21 419.4 L 38.31 419.4 L 38.31 422.4 L 44.63 422.4 L 44.63 419.4 L 50.73 419.4 L 50.73 422.4 L 54.1 422.4"/>
      <path id="slot_007" style="fill:none;stroke:#000000;stroke-width:0.0508" d="M 1 500.483 L 26.1 500.483 L 26.1 503.383 L 1 503.383 L 1 500.483 Z"/>
      <path id="slot_008" style="fill:none;stroke:#000000;stroke-width:0.0508" d="M 1 581.517 L 26.1 581.517 L 26.1 584.417 L 1 584.417 L 1 581.517 Z"/>
      <path id="side_018" style="fill:none;stroke:#000000;stroke-width:0.0508" d="M 54.1 422.4 L 54.1 425.355 L 57.1 425.355 L 57.1 431.455 L 54.1 431.455 L 54.1 437.359 L 57.1 437.359 L 57.1 443.459 L 54.1 443.459 L 54.1 449.364 L 57.1 449.364 L 57.1 455.464 L 54.1 455.464 L 54.1 461.369 L 57.1 461.369 L 57.1 467.469 L 54.1 467.469 L 54.1 473.374 L 57.1 473.374 L 57.1 479.474 L 54.1 479.474 L 54.1 485.379 L 57.1 485.379 L 57.1 491.479 L 54.1 491.479 L 54.1 497.383 L 57.1 497.383 L 57.1 503.483 L 54.1 503.483 L 54.1 509.388 L 57.1 509.388 L 57.1 515.488 L 54.1 515.488 L 54.1 521.393 L 57.1 521.393 L 57.1 527.493 L 54.1 527.493 L 54.1 533.398 L 57.1 533.398 L 57.1 539.498 L 54.1 539.498 L 54.1 545.402 L 57.1 545.402 L 57.1 551.502 L 54.1 551.502 L 54.1 557.407 L 57.1 557.407 L 57.1 563.507 L 54.1 563.507 L 54.1 569.412 L 57.1 569.412 L 57.1 575.512 L 54.1 575.512 L 54.1 581.417 L 57.1 581.417 L 57.1 587.517 L 54.1 587.517 L 54.1 593.421 L 57.1 593.421 L 57.1 599.521 L 54.1 599.521 L 54.1 605.426 L 57.1 605.426 L 57.1 611.526 L 54.1 611.526 L 54.1 617.431 L 57.1 617.431 L 57.1 623.531 L 54.1 623.531 L 54.1 629.436 L 57.1 629.436 L 57.1 635.536 L 54.1 635.536 L 54.1 641.44 L 57.1 641.44 L 57.1 647.54 L 54.1 647.54 L 54.1 653.445 L 57.1 653.445 L 57.1 659.545 L 54.1 659.545 L 54.1 662.5"/>
      <path id="side_019" style="fill:none;stroke:#000000;stroke-width:0.0508" d="M 54.1 662.5 L 50.73 662.5 L 50.73 665.5 L 44.63 665.5 L 44.63 662.5 L 38.31 662.5 L 38.31 665.5 L 32.21 665.5 L 32.21 662.5 L 25.89 662.5 L 25.89 665.5 L 19.79 665.5 L 19.79 662.5 L 13.47 662.5 L 13.47 665.5 L 7.37 665.5 L 7.37 662.5 L 4 662.5"/>
      <path id="side_020" style="fill:none;stroke:#000000;stroke-width:0.0508" d="M 4 662.5 L 4 659.545 L 1 659.545 L 1 653.445 L 4 653.445 L 4 647.54 L 1 647.54 L 1 641.441 L 4 641.441 L 4 635.536 L 1 635.536 L 1 629.436 L 4 629.436 L 4 623.531 L 1 623.531 L 1 617.431 L 4 617.431 L 4 611.526 L 1 611.526 L 1 605.426 L 4 605.426 L 4 599.521 L 1 599.521 L 1 593.421 L 4 593.421 L 4 587.517 L 1 587.517 L 1 581.417 L 4 581.417 L 4 575.512 L 1 575.512 L 1 569.412 L 4 569.412 L 4 563.507 L 1 563.507 L 1 557.407 L 4 557.407 L 4 551.502 L 1 551.502 L 1 545.402 L 4 545.402 L 4 539.498 L 1 539.498 L 1 533.398 L 4 533.398 L 4 527.493 L 1 527.493 L 1 521.393 L 4 521.393 L 4 515.488 L 1 515.488 L 1 509.388 L 4 509.388 L 4 503.483 L 1 503.483 L 1 497.383 L 4 497.383 L 4 491.479 L 1 491.479 L 1 485.379 L 4 485.379 L 4 479.474 L 1 479.474 L 1 473.374 L 4 473.374 L 4 467.469 L 1 467.469 L 1 461.369 L 4 461.369 L 4 455.464 L 1 455.464 L 1 449.364 L 4 449.364 L 4 443.46 L 1 443.46 L 1 437.36 L 4 437.36 L 4 431.455 L 1 431.455 L 1 425.355 L 4 425.355 L 4 422.4"/>
    </g>
    <g id="ydivider_002">
      <path id="side_021" style="fill:none;stroke:#000000;stroke-width:0.0508" d="M 61.1 422.4 L 64.47 422.4 L 64.47 419.4 L 70.57 419.4 L 70.57 422.4 L 76.89 422.4 L 76.89 419.4 L 82.99 419.4 L 82.99 422.4 L 89.31 422.4 L 89.31 419.4 L 95.41 419.4 L 95.41 422.4 L 101.73 422.4 L 101.73 419.4 L 107.83 419.4 L 107.83 422.4 L 111.2 422.4"/>
      <path id="slot_009" style="fill:none;stroke:#000000;stroke-width:0.0508" d="M 58.1 500.483 L 83.2 500.483 L 83.2 503.383 L 58.1 503.383 L 58.1 500.483 Z"/>
      <path id="slot_010" style="fill:none;stroke:#000000;stroke-width:0.0508" d="M 58.1 581.517 L 83.2 581.517 L 83.2 584.417 L 58.1 584.417 L 58.1 581.517 Z"/>
      <path id="side_022" style="fill:none;stroke:#000000;stroke-width:0.0508" d="M 111.2 422.4 L 111.2 425.355 L 114.2 425.355 L 114.2 431.455 L 111.2 431.455 L 111.2 437.359 L 114.2 437.359 L 114.2 443.459 L 111.2 443.459 L 111.2 449.364 L 114.2 449.364 L 114.2 455.464 L 111.2 455.464 L 111.2 461.369 L 114.2 461.369 L 114.2 467.469 L 111.2 467.469 L 111.2 473.374 L 114.2 473.374 L 114.2 479.474 L 111.2 479.474 L 111.2 485.379 L 114.2 485.379 L 114.2 491.479 L 111.2 491.479 L 111.2 497.383 L 114.2 497.383 L 114.2 503.483 L 111.2 503.483 L 111.2 509.388 L 114.2 509.388 L 114.2 515.488 L 111.2 515.488 L 111.2 521.393 L 114.2 521.393 L 114.2 527.493 L 111.2 527.493 L 111.2 533.398 L 114.2 533.398 L 114.2 539.498 L 111.2 539.498 L 111.2 545.402 L 114.2 545.402 L 114.2 551.502 L 111.2 551.502 L 111.2 557.407 L 114.2 557.407 L 114.2 563.507 L 111.2 563.507 L 111.2 569.412 L 114.2 569.412 L 114.2 575.512 L 111.2 575.512 L 111.2 581.417 L 114.2 581.417 L 114.2 587.517 L 111.2 587.517 L 111.2 593.421 L 114.2 593.421 L 114.2 599.521 L 111.2 599.521 L 111.2 605.426 L 114.2 605.426 L 114.2 611.526 L 111.2 611.526 L 111.2 617.431 L 114.2 617.431 L 114.2 623.531 L 111.2 623.531 L 111.2 629.436 L 114.2 629.436 L 114.2 635.536 L 111.2 635.536 L 111.2 641.44 L 114.2 641.44 L 114.2 647.54 L 111.2 647.54 L 111.2 653.445 L 114.2 653.445 L 114.2 659.545 L 111.2 659.545 L 111.2 662.5"/>
      <path id="side_023" style="fill:none;stroke:#000000;stroke-width:0.0508" d="M 111.2 662.5 L 107.83 662.5 L 107.83 665.5 L 101.73 665.5 L 101.73 662.5 L 95.41 662.5 L 95.41 665.5 L 89.31 665.5 L 89.31 662.5 L 82.99 662.5 L 82.99 665.5 L 76.89 665.5 L 76.89 662.5 L 70.57 662.5 L 70.57 665.5 L 64.47 665.5 L 64.47 662.5 L 61.1 662.5"/>
      <path id="side_024" style="fill:none;stroke:#000000;stroke-width:0.0508" d="M 61.1 662.5 L 61.1 659.545 L 58.1 659.545 L 58.1 653.445 L 61.1 653.445 L 61.1 647.54 L 58.1 647.54 L 58.1 641.441 L 61.1 641.441 L 61.1 635.536 L 58.1 635.536 L 58.1 629.436 L 61.1 629.436 L 61.1 623.531 L 58.1 623.531 L 58.1 617.431 L 61.1 617.431 L 61.1 611.526 L 58.1 611.526 L 58.1 605.426 L 61.1 605.426 L 61.1 599.521 L 58.1 599.521 L 58.1 593.421 L 61.1 593.421 L 61.1 587.517 L 58.1 587.517 L 58.1 581.417 L 61.1 581.417 L 61.1 575.512 L 58.1 575.512 L 58.1 569.412 L 61.1 569.412 L 61.1 563.507 L 58.1 563.507 L 58.1 557.407 L 61.1 557.407 L 61.1 551.502 L 58.1 551.502 L 58.1 545.402 L 61.1 545.402 L 61.1 539.498 L 58.1 539.498 L 58.1 533.398 L 61.1 533.398 L 61.1 527.493 L 58.1 527.493 L 58.1 521.393 L 61.1 521.393 L 61.1 515.488 L 58.1 515.488 L 58.1 509.388 L 61.1 509.388 L 61.1 503.483 L 58.1 503.483 L 58.1 497.383 L 61.1 497.383 L 61.1 491.479 L 58.1 491.479 L 58.1 485.379 L 61.1 485.379 L 61.1 479.474 L 58.1 479.474 L 58.1 473.374 L 61.1 473.374 L 61.1 467.469 L 58.1 467.469 L 58.1 461.369 L 61.1 461.369 L 61.1 455.464 L 58.1 455.464 L 58.1 449.364 L 61.1 449.364 L 61.1 443.46 L 58.1 443.46 L 58.1 437.36 L 61.1 437.36 L 61.1 431.455 L 58.1 431.455 L 58.1 425.355 L 61.1 425.355 L 61.1 422.4"/>
    </g>
    <g id="ydivider_003">
      <path id="side_025" style="fill:none;stroke:#000000;stroke-width:0.0508" d="M 118.2 422.4 L 121.57 422.4 L 121.57 419.4 L 127.67 419.4 L 127.67 422.4 L 133.99 422.4 L 133.99 419.4 L 140.09 419.4 L 140.09 422.4 L 146.41 422.4 L 146.41 419.4 L 152.51 419.4 L 152.51 422.4 L 158.83 422.4 L 158.83 419.4 L 164.93 419.4 L 164.93 422.4 L 168.3 422.4"/>
      <path id="slot_011" style="fill:none;stroke:#000000;stroke-width:0.0508" d="M 115.2 500.483 L 140.3 500.483 L 140.3 503.383 L 115.2 503.383 L 115.2 500.483 Z"/>
      <path id="slot_012" style="fill:none;stroke:#000000;stroke-width:0.0508" d="M 115.2 581.517 L 140.3 581.517 L 140.3 584.417 L 115.2 584.417 L 115.2 581.517 Z"/>
      <path id="side_026" style="fill:none;stroke:#000000;stroke-width:0.0508" d="M 168.3 422.4 L 168.3 425.355 L 171.3 425.355 L 171.3 431.455 L 168.3 431.455 L 168.3 437.359 L 171.3 437.359 L 171.3 443.459 L 168.3 443.459 L 168.3 449.364 L 171.3 449.364 L 171.3 455.464 L 168.3 455.464 L 168.3 461.369 L 171.3 461.369 L 171.3 467.469 L 168.3 467.469 L 168.3 473.374 L 171.3 473.374 L 171.3 479.474 L 168.3 479.474 L 168.3 485.379 L 171.3 485.379 L 171.3 491.479 L 168.3 491.479 L 168.3 497.383 L 171.3 497.383 L 171.3 503.483 L 168.3 503.483 L 168.3 509.388 L 171.3 509.388 L 171.3 515.488 L 168.3 515.488 L 168.3 521.393 L 171.3 521.393 L 171.3 527.493 L 168.3 527.493 L 168.3 533.398 L 171.3 533.398 L 171.3 539.498 L 168.3 539.498 L 168.3 545.402 L 171.3 545.402 L 171.3 551.502 L 168.3 551.502 L 168.3 557.407 L 171.3 557.407 L 171.3 563.507 L 168.3 563.507 L 168.3 569.412 L 171.3 569.412 L 171.3 575.512 L 168.3 575.512 L 168.3 581.417 L 171.3 581.417 L 171.3 587.517 L 168.3 587.517 L 168.3 593.421 L 171.3 593.421 L 171.3 599.521 L 168.3 599.521 L 168.3 605.426 L 171.3 605.426 L 171.3 611.526 L 168.3 611.526 L 168.3 617.431 L 171.3 617.431 L 171.3 623.531 L 168.3 623.531 L 168.3 629.436 L 171.3 629.436 L 171.3 635.536 L 168.3 635.536 L 168.3 641.44 L 171.3 641.44 L 171.3 647.54 L 168.3 647.54 L 168.3 653.445 L 171.3 653.445 L 171.3 659.545 L 168.3 659.545 L 168.3 662.5"/>
      <path id="side_027" style="fill:none;stroke:#000000;stroke-width:0.0508" d="M 168.3 662.5 L 164.93 662.5 L 164.93 665.5 L 158.83 665.5 L 158.83 662.5 L 152.51 662.5 L 152.51 665.5 L 146.41 665.5 L 146.41 662.5 L 140.09 662.5 L 140.09 665.5 L 133.99 665.5 L 133.99 662.5 L 127.67 662.5 L 127.67 665.5 L 121.57 665.5 L 121.57 662.5 L 118.2 662.5"/>
      <path id="side_028" style="fill:none;stroke:#000000;stroke-width:0.0508" d="M 118.2 662.5 L 118.2 659.545 L 115.2 659.545 L 115.2 653.445 L 118.2 653.445 L 118.2 647.54 L 115.2 647.54 L 115.2 641.441 L 118.2 641.441 L 118.2 635.536 L 115.2 635.536 L 115.2 629.436 L 118.2 629.436 L 118.2 623.531 L 115.2 623.531 L 115.2 617.431 L 118.2 617.431 L 118.2 611.526 L 115.2 611.526 L 115.2 605.426 L 118.2 605.426 L 118.2 599.521 L 115.2 599.521 L 115.2 593.421 L 118.2 593.421 L 118.2 587.517 L 115.2 587.517 L 115.2 581.417 L 118.2 581.417 L 118.2 575.512 L 115.2 575.512 L 115.2 569.412 L 118.2 569.412 L 118.2 563.507 L 115.2 563.507 L 115.2 557.407 L 118.2 557.407 L 118.2 551.502 L 115.2 551.502 L 115.2 545.402 L 118.2 545.402 L 118.2 539.498 L 115.2 539.498 L 115.2 533.398 L 118.2 533.398 L 118.2 527.493 L 115.2 527.493 L 115.2 521.393 L 118.2 521.393 L 118.2 515.488 L 115.2 515.488 L 115.2 509.388 L 118.2 509.388 L 118.2 503.483 L 115.2 503.483 L 115.2 497.383 L 118.2 497.383 L 118.2 491.479 L 115.2 491.479 L 115.2 485.379 L 118.2 485.379 L 118.2 479.474 L 115.2 479.474 L 115.2 473.374 L 118.2 473.374 L 118.2 467.469 L 115.2 467.469 L 115.2 461.369 L 118.2 461.369 L 118.2 455.464 L 115.2 455.464 L 115.2 449.364 L 118.2 449.364 L 118.2 443.46 L 115.2 443.46 L 115.2 437.36 L 118.2 437.36 L 118.2 431.455 L 115.2 431.455 L 115.2 425.355 L 118.2 425.355 L 118.2 422.4"/>
    </g>
    <g id="piece_003">
      <path id="side_029" style="fill:none;stroke:#000000;stroke-width:0.0508" d="M 58.1 58.1 L 64.1562 58.1 L 64.1562 61.1 L 70.0563 61.1 L 70.0563 58.1 L 76.1625 58.1 L 76.1625 61.1 L 82.0625 61.1 L 82.0625 58.1 L 88.1687 58.1 L 88.1687 61.1 L 94.0688 61.1 L 94.0688 58.1 L 100.175 58.1 L 100.175 61.1 L 106.075 61.1 L 106.075 58.1 L 112.181 58.1 L 112.181 61.1 L 118.081 61.1 L 118.081 58.1 L 124.188 58.1 L 124.188 61.1 L 130.088 61.1 L 130.088 58.1 L 136.194 58.1 L 136.194 61.1 L 142.094 61.1 L 142.094 58.1 L 148.2 58.1 L 148.2 61.1 L 154.1 61.1 L 154.1 58.1 L 160.206 58.1 L 160.206 61.1 L 166.106 61.1 L 166.106 58.1 L 172.213 58.1 L 172.213 61.1 L 178.113 61.1 L 178.113 58.1 L 184.219 58.1 L 184.219 61.1 L 190.119 61.1 L 190.119 58.1 L 196.225 58.1 L 196.225 61.1 L 202.125 61.1 L 202.125 58.1 L 208.231 58.1 L 208.231 61.1 L 214.131 61.1 L 214.131 58.1 L 220.238 58.1 L 220.238 61.1 L 226.138 61.1 L 226.138 58.1 L 232.244 58.1 L 232.244 61.1 L 238.144 61.1 L 238.144 58.1 L 244.2 58.1"/>
      <path id="hole_023" style="fill:none;stroke:#000000;stroke-width:0.0508" d="M 64.1562 142.083 L 70.0563 142.083 L 70.0563 139.183 L 64.1562 139.183 L 64.1562 142.083 Z"/>
      <path id="hole_024" style="fill:none;stroke:#000000;stroke-width:0.0508" d="M 64.1562 223.117 L 70.0563 223.117 L 70.0563 220.217 L 64.1562 220.217 L 64.1562 223.117 Z"/>
      <path id="hole_025" style="fill:none;stroke:#000000;stroke-width:0.0508" d="M 76.1625 142.083 L 82.0625 142.083 L 82.0625 139.183 L 76.1625 139.183 L 76.1625 142.083 Z"/>
      <path id="hole_026" style="fill:none;stroke:#000000;stroke-width:0.0508" d="M 76.1625 223.117 L 82.0625 223.117 L 82.0625 220.217 L 76.1625 220.217 L 76.1625 223.117 Z"/>
      <path id="hole_027" style="fill:none;stroke:#000000;stroke-width:0.0508" d="M 88.1687 142.083 L 94.0688 142.083 L 94.0688 139.183 L 88.1688 139.183 L 88.1688 142.083 Z"/>
      <path id="hole_028" style="fill:none;stroke:#000000;stroke-width:0.0508" d="M 88.1687 223.117 L 94.0688 223.117 L 94.0688 220.217 L 88.1688 220.217 L 88.1688 223.117 Z"/>
      <path id="hole_029" style="fill:none;stroke:#000000;stroke-width:0.0508" d="M 100.175 142.083 L 106.075 142.083 L 106.075 139.183 L 100.175 139.183 L 100.175 142.083 Z"/>
      <path id="hole_030" style="fill:none;stroke:#000000;stroke-width:0.0508" d="M 100.175 223.117 L 106.075 223.117 L 106.075 220.217 L 100.175 220.217 L 100.175 223.117 Z"/>
      <path id="hole_031" style="fill:none;stroke:#000000;stroke-width:0.0508" d="M 112.181 142.083 L 118.081 142.083 L 118.081 139.183 L 112.181 139.183 L 112.181 142.083 Z"/>
      <path id="hole_032" style="fill:none;stroke:#000000;stroke-width:0.0508" d="M 112.181 223.117 L 118.081 223.117 L 118.081 220.217 L 112.181 220.217 L 112.181 223.117 Z"/>
      <path id="hole_033" style="fill:none;stroke:#000000;stroke-width:0.0508" d="M 124.188 142.083 L 130.088 142.083 L 130.088 139.183 L 124.188 139.183 L 124.188 142.083 Z"/>
      <path id="hole_034" style="fill:none;stroke:#000000;stroke-width:0.0508" d="M 124.188 223.117 L 130.088 223.117 L 130.088 220.217 L 124.188 220.217 L 124.188 223.117 Z"/>
      <path id="hole_035" style="fill:none;stroke:#000000;stroke-width:0.0508" d="M 136.194 142.083 L 142.094 142.083 L 142.094 139.183 L 136.194 139.183 L 136.194 142.083 Z"/>
      <path id="hole_036" style="fill:none;stroke:#000000;stroke-width:0.0508" d="M 136.194 223.117 L 142.094 223.117 L 142.094 220.217 L 136.194 220.217 L 136.194 223.117 Z"/>
      <path id="hole_037" style="fill:none;stroke:#000000;stroke-width:0.0508" d="M 148.2 142.083 L 154.1 142.083 L 154.1 139.183 L 148.2 139.183 L 148.2 142.083 Z"/>
      <path id="hole_038" style="fill:none;stroke:#000000;stroke-width:0.0508" d="M 148.2 223.117 L 154.1 223.117 L 154.1 220.217 L 148.2 220.217 L 148.2 223.117 Z"/>
      <path id="hole_039" style="fill:none;stroke:#000000;stroke-width:0.0508" d="M 160.206 142.083 L 166.106 142.083 L 166.106 139.183 L 160.206 139.183 L 160.206 142.083 Z"/>
      <path id="hole_040" style="fill:none;stroke:#000000;stroke-width:0.0508" d="M 160.206 223.117 L 166.106 223.117 L 166.106 220.217 L 160.206 220.217 L 160.206 223.117 Z"/>
      <path id="hole_041" style="fill:none;stroke:#000000;stroke-width:0.0508" d="M 172.213 142.083 L 178.113 142.083 L 178.113 139.183 L 172.213 139.183 L 172.213 142.083 Z"/>
      <path id="hole_042" style="fill:none;stroke:#000000;stroke-width:0.0508" d="M 172.213 223.117 L 178.113 223.117 L 178.113 220.217 L 172.213 220.217 L 172.213 223.117 Z"/>
      <path id="hole_043" style="fill:none;stroke:#000000;stroke-width:0.0508" d="M 184.219 142.083 L 190.119 142.083 L 190.119 139.183 L 184.219 139.183 L 184.219 142.083 Z"/>
      <path id="hole_044" style="fill:none;stroke:#000000;stroke-width:0.0508" d="M 184.219 223.117 L 190.119 223.117 L 190.119 220.217 L 184.219 220.217 L 184.219 223.117 Z"/>
      <path id="hole_045" style="fill:none;stroke:#000000;stroke-width:0.0508" d="M 196.225 142.083 L 202.125 142.083 L 202.125 139.183 L 196.225 139.183 L 196.225 142.083 Z"/>
      <path id="hole_046" style="fill:none;stroke:#000000;stroke-width:0.0508" d="M 196.225 223.117 L 202.125 223.117 L 202.125 220.217 L 196.225 220.217 L 196.225 223.117 Z"/>
      <path id="hole_047" style="fill:none;stroke:#000000;stroke-width:0.0508" d="M 208.231 142.083 L 214.131 142.083 L 214.131 139.183 L 208.231 139.183 L 208.231 142.083 Z"/>
      <path id="hole_048" style="fill:none;stroke:#000000;stroke-width:0.0508" d="M 208.231 223.117 L 214.131 223.117 L 214.131 220.217 L 208.231 220.217 L 208.231 223.117 Z"/>
      <path id="hole_049" style="fill:none;stroke:#000000;stroke-width:0.0508" d="M 220.238 142.083 L 226.138 142.083 L 226.138 139.183 L 220.238 139.183 L 220.238 142.083 Z"/>
      <path id="hole_050" style="fill:none;stroke:#000000;stroke-width:0.0508" d="M 220.238 223.117 L 226.138 223.117 L 226.138 220.217 L 220.238 220.217 L 220.238 223.117 Z"/>
      <path id="hole_051" style="fill:none;stroke:#000000;stroke-width:0.0508" d="M 232.244 142.083 L 238.144 142.083 L 238.144 139.183 L 232.244 139.183 L 232.244 142.083 Z"/>
      <path id="hole_052" style="fill:none;stroke:#000000;stroke-width:0.0508" d="M 232.244 223.117 L 238.144 223.117 L 238.144 220.217 L 232.244 220.217 L 232.244 223.117 Z"/>
      <path id="side_030" style="fill:none;stroke:#000000;stroke-width:0.0508" d="M 244.2 58.1 L 244.2 64.1548 L 241.2 64.1548 L 241.2 70.0548 L 244.2 70.0548 L 244.2 76.1595 L 241.2 76.1595 L 241.2 82.0595 L 244.2 82.0595 L 244.2 88.1643 L 241.2 88.1643 L 241.2 94.0643 L 244.2 94.0643 L 244.2 100.169 L 241.2 100.169 L 241.2 106.069 L 244.2 106.069 L 244.2 112.174 L 241.2 112.174 L 241.2 118.074 L 244.2 118.074 L 244.2 124.179 L 241.2 124.179 L 241.2 130.079 L 244.2 130.079 L 244.2 136.183 L 241.2 136.183 L 241.2 142.083 L 244.2 142.083 L 244.2 148.188 L 241.2 148.188 L 241.2 154.088 L 244.2 154.088 L 244.2 160.193 L 241.2 160.193 L 241.2 166.093 L 244.2 166.093 L 244.2 172.198 L 241.2 172.198 L 241.2 178.098 L 244.2 178.098 L 244.2 184.202 L 241.2 184.202 L 241.2 190.102 L 244.2 190.102 L 244.2 196.207 L 241.2 196.207 L 241.2 202.107 L 244.2 202.107 L 244.2 208.212 L 241.2 208.212 L 241.2 214.112 L 244.2 214.112 L 244.2 220.217 L 241.2 220.217 L 241.2 226.117 L 244.2 226.117 L 244.2 232.221 L 241.2 232.221 L 241.2 238.121 L 244.2 238.121 L 244.2 244.226 L 241.2 244.226 L 241.2 250.126 L 244.2 250.126 L 244.2 256.231 L 241.2 256.231 L 241.2 262.131 L 244.2 262.131 L 244.2 268.236 L 241.2 268.236 L 241.2 274.136 L 244.2 274.136 L 244.2 280.24 L 241.2 280.24 L 241.2 286.14 L 244.2 286.14 L 244.2 292.245 L 241.2 292.245 L 241.2 298.145 L 244.2 298.145 L 244.2 304.2"/>
      <path id="hole_053" style="fill:none;stroke:#000000;stroke-width:0.0508" d="M 195.475 64.1548 L 195.475 70.0548 L 198.375 70.0548 L 198.375 64.1548 L 195.475 64.1548 Z"/>
      <path id="hole_054" style="fill:none;stroke:#000000;stroke-width:0.0508" d="M 149.7 64.1548 L 149.7 70.0548 L 152.6 70.0548 L 152.6 64.1548 L 149.7 64.1548 Z"/>
      <path id="hole_055" style="fill:none;stroke:#000000;stroke-width:0.0508" d="M 103.925 64.1548 L 103.925 70.0548 L 106.825 70.0548 L 106.825 64.1548 L 103.925 64.1548 Z"/>
      <path id="hole_056" style="fill:none;stroke:#000000;stroke-width:0.0508" d="M 195.475 76.1595 L 195.475 82.0595 L 198.375 82.0595 L 198.375 76.1595 L 195.475 76.1595 Z"/>
      <path id="hole_057" style="fill:none;stroke:#000000;stroke-width:0.0508" d="M 149.7 76.1595 L 149.7 82.0595 L 152.6 82.0595 L 152.6 76.1595 L 149.7 76.1595 Z"/>
      <path id="hole_058" style="fill:none;stroke:#000000;stroke-width:0.0508" d="M 103.925 76.1595 L 103.925 82.0595 L 106.825 82.0595 L 106.825 76.1595 L 103.925 76.1595 Z"/>
      <path id="hole_059" style="fill:none;stroke:#000000;stroke-width:0.0508" d="M 195.475 88.1643 L 195.475 94.0643 L 198.375 94.0643 L 198.375 88.1643 L 195.475 88.1643 Z"/>
      <path id="hole_060" style="fill:none;stroke:#000000;stroke-width:0.0508" d="M 149.7 88.1643 L 149.7 94.0643 L 152.6 94.0643 L 152.6 88.1643 L 149.7 88.1643 Z"/>
      <path id="hole_061" style="fill:none;stroke:#000000;stroke-width:0.0508" d="M 103.925 88.1643 L 103.925 94.0643 L 106.825 94.0643 L 106.825 88.1643 L 103.925 88.1643 Z"/>
      <path id="hole_062" style="fill:none;stroke:#000000;stroke-width:0.0508" d="M 195.475 100.169 L 195.475 106.069 L 198.375 106.069 L 198.375 100.169 L 195.475 100.169 Z"/>
      <path id="hole_063" style="fill:none;stroke:#000000;stroke-width:0.0508" d="M 149.7 100.169 L 149.7 106.069 L 152.6 106.069 L 152.6 100.169 L 149.7 100.169 Z"/>
      <path id="hole_064" style="fill:none;stroke:#000000;stroke-width:0.0508" d="M 103.925 100.169 L 103.925 106.069 L 106.825 106.069 L 106.825 100.169 L 103.925 100.169 Z"/>
      <path id="hole_065" style="fill:none;stroke:#000000;stroke-width:0.0508" d="M 195.475 112.174 L 195.475 118.074 L 198.375 118.074 L 198.375 112.174 L 195.475 112.174 Z"/>
      <path id="hole_066" style="fill:none;stroke:#000000;stroke-width:0.0508" d="M 149.7 112.174 L 149.7 118.074 L 152.6 118.074 L 152.6 112.174 L 149.7 112.174 Z"/>
      <path id="hole_067" style="fill:none;stroke:#000000;stroke-width:0.0508" d="M 103.925 112.174 L 103.925 118.074 L 106.825 118.074 L 106.825 112.174 L 103.925 112.174 Z"/>
      <path id="hole_068" style="fill:none;stroke:#000000;stroke-width:0.0508" d="M 195.475 124.179 L 195.475 130.079 L 198.375 130.079 L 198.375 124.179 L 195.475 124.179 Z"/>
      <path id="hole_069" style="fill:none;stroke:#000000;stroke-width:0.0508" d="M 149.7 124.179 L 149.7 130.079 L 152.6 130.079 L 152.6 124.179 L 149.7 124.179 Z"/>
      <path id="hole_070" style="fill:none;stroke:#000000;stroke-width:0.0508" d="M 103.925 124.179 L 103.925 130.079 L 106.825 130.079 L 106.825 124.179 L 103.925 124.179 Z"/>
      <path id="hole_071" style="fill:none;stroke:#000000;stroke-width:0.0508" d="M 195.475 136.183 L 195.475 142.083 L 198.375 142.083 L 198.375 136.183 L 195.475 136.183 Z"/>
      <path id="hole_072" style="fill:none;stroke:#000000;stroke-width:0.0508" d="M 149.7 136.183 L 149.7 142.083 L 152.6 142.083 L 152.6 136.183 L 149.7 136.183 Z"/>
      <path id="hole_073" style="fill:none;stroke:#000000;stroke-width:0.0508" d="M 103.925 136.183 L 103.925 142.083 L 106.825 142.083 L 106.825 136.183 L 103.925 136.183 Z"/>
      <path id="hole_074" style="fill:none;stroke:#000000;stroke-width:0.0508" d="M 195.475 148.188 L 195.475 154.088 L 198.375 154.088 L 198.375 148.188 L 195.475 148.188 Z"/>
      <path id="hole_075" style="fill:none;stroke:#000000;stroke-width:0.0508" d="M 149.7 148.188 L 149.7 154.088 L 152.6 154.088 L 152.6 148.188 L 149.7 148.188 Z"/>
      <path id="hole_076" style="fill:none;stroke:#000000;stroke-width:0.0508" d="M 103.925 148.188 L 103.925 154.088 L 106.825 154.088 L 106.825 148.188 L 103.925 148.188 Z"/>
      <path id="hole_077" style="fill:none;stroke:#000000;stroke-width:0.0508" d="M 195.475 160.193 L 195.475 166.093 L 198.375 166.093 L 198.375 160.193 L 195.475 160.193 Z"/>
      <path id="hole_078" style="fill:none;stroke:#000000;stroke-width:0.0508" d="M 149.7 160.193 L 149.7 166.093 L 152.6 166.093 L 152.6 160.193 L 149.7 160.193 Z"/>
      <path id="hole_079" style="fill:none;stroke:#000000;stroke-width:0.0508" d="M 103.925 160.193 L 103.925 166.093 L 106.825 166.093 L 106.825 160.193 L 103.925 160.193 Z"/>
      <path id="hole_080" style="fill:none;stroke:#000000;stroke-width:0.0508" d="M 195.475 172.198 L 195.475 178.098 L 198.375 178.098 L 198.375 172.198 L 195.475 172.198 Z"/>
      <path id="hole_081" style="fill:none;stroke:#000000;stroke-width:0.0508" d="M 149.7 172.198 L 149.7 178.098 L 152.6 178.098 L 152.6 172.198 L 149.7 172.198 Z"/>
      <path id="hole_082" style="fill:none;stroke:#000000;stroke-width:0.0508" d="M 103.925 172.198 L 103.925 178.098 L 106.825 178.098 L 106.825 172.198 L 103.925 172.198 Z"/>
      <path id="hole_083" style="fill:none;stroke:#000000;stroke-width:0.0508" d="M 195.475 184.202 L 195.475 190.102 L 198.375 190.102 L 198.375 184.202 L 195.475 184.202 Z"/>
      <path id="hole_084" style="fill:none;stroke:#000000;stroke-width:0.0508" d="M 149.7 184.202 L 149.7 190.102 L 152.6 190.102 L 152.6 184.202 L 149.7 184.202 Z"/>
      <path id="hole_085" style="fill:none;stroke:#000000;stroke-width:0.0508" d="M 103.925 184.202 L 103.925 190.102 L 106.825 190.102 L 106.825 184.202 L 103.925 184.202 Z"/>
      <path id="hole_086" style="fill:none;stroke:#000000;stroke-width:0.0508" d="M 195.475 196.207 L 195.475 202.107 L 198.375 202.107 L 198.375 196.207 L 195.475 196.207 Z"/>
      <path id="hole_087" style="fill:none;stroke:#000000;stroke-width:0.0508" d="M 149.7 196.207 L 149.7 202.107 L 152.6 202.107 L 152.6 196.207 L 149.7 196.207 Z"/>
      <path id="hole_088" style="fill:none;stroke:#000000;stroke-width:0.0508" d="M 103.925 196.207 L 103.925 202.107 L 106.825 202.107 L 106.825 196.207 L 103.925 196.207 Z"/>
      <path id="hole_089" style="fill:none;stroke:#000000;stroke-width:0.0508" d="M 195.475 208.212 L 195.475 214.112 L 198.375 214.112 L 198.375 208.212 L 195.475 208.212 Z"/>
      <path id="hole_090" style="fill:none;stroke:#000000;stroke-width:0.0508" d="M 149.7 208.212 L 149.7 214.112 L 152.6 214.112 L 152.6 208.212 L 149.7 208.212 Z"/>
      <path id="hole_091" style="fill:none;stroke:#000000;stroke-width:0.0508" d="M 103.925 208.212 L 103.925 214.112 L 106.825 214.112 L 106.825 208.212 L 103.925 208.212 Z"/>
      <path id="hole_092" style="fill:none;stroke:#000000;stroke-width:0.0508" d="M 195.475 220.217 L 195.475 226.117 L 198.375 226.117 L 198.375 220.217 L 195.475 220.217 Z"/>
      <path id="hole_093" style="fill:none;stroke:#000000;stroke-width:0.0508" d="M 149.7 220.217 L 149.7 226.117 L 152.6 226.117 L 152.6 220.217 L 149.7 220.217 Z"/>
      <path id="hole_094" style="fill:none;stroke:#000000;stroke-width:0.0508" d="M 103.925 220.217 L 103.925 226.117 L 106.825 226.117 L 106.825 220.217 L 103.925 220.217 Z"/>
      <path id="hole_095" style="fill:none;stroke:#000000;stroke-width:0.0508" d="M 195.475 232.221 L 195.475 238.121 L 198.375 238.121 L 198.375 232.221 L 195.475 232.221 Z"/>
      <path id="hole_096" style="fill:none;stroke:#000000;stroke-width:0.0508" d="M 149.7 232.221 L 149.7 238.121 L 152.6 238.121 L 152.6 232.221 L 149.7 232.221 Z"/>
      <path id="hole_097" style="fill:none;stroke:#000000;stroke-width:0.0508" d="M 103.925 232.221 L 103.925 238.121 L 106.825 238.121 L 106.825 232.221 L 103.925 232.221 Z"/>
      <path id="hole_098" style="fill:none;stroke:#000000;stroke-width:0.0508" d="M 195.475 244.226 L 195.475 250.126 L 198.375 250.126 L 198.375 244.226 L 195.475 244.226 Z"/>
      <path id="hole_099" style="fill:none;stroke:#000000;stroke-width:0.0508" d="M 149.7 244.226 L 149.7 250.126 L 152.6 250.126 L 152.6 244.226 L 149.7 244.226 Z"/>
      <path id="hole_100" style="fill:none;stroke:#000000;stroke-width:0.0508" d="M 103.925 244.226 L 103.925 250.126 L 106.825 250.126 L 106.825 244.226 L 103.925 244.226 Z"/>
      <path id="hole_101" style="fill:none;stroke:#000000;stroke-width:0.0508" d="M 195.475 256.231 L 195.475 262.131 L 198.375 262.131 L 198.375 256.231 L 195.475 256.231 Z"/>
      <path id="hole_102" style="fill:none;stroke:#000000;stroke-width:0.0508" d="M 149.7 256.231 L 149.7 262.131 L 152.6 262.131 L 152.6 256.231 L 149.7 256.231 Z"/>
      <path id="hole_103" style="fill:none;stroke:#000000;stroke-width:0.0508" d="M 103.925 256.231 L 103.925 262.131 L 106.825 262.131 L 106.825 256.231 L 103.925 256.231 Z"/>
      <path id="hole_104" style="fill:none;stroke:#000000;stroke-width:0.0508" d="M 195.475 268.236 L 195.475 274.136 L 198.375 274.136 L 198.375 268.236 L 195.475 268.236 Z"/>
      <path id="hole_105" style="fill:none;stroke:#000000;stroke-width:0.0508" d="M 149.7 268.236 L 149.7 274.136 L 152.6 274.136 L 152.6 268.236 L 149.7 268.236 Z"/>
      <path id="hole_106" style="fill:none;stroke:#000000;stroke-width:0.0508" d="M 103.925 268.236 L 103.925 274.136 L 106.825 274.136 L 106.825 268.236 L 103.925 268.236 Z"/>
      <path id="hole_107" style="fill:none;stroke:#000000;stroke-width:0.0508" d="M 195.475 280.24 L 195.475 286.14 L 198.375 286.14 L 198.375 280.24 L 195.475 280.24 Z"/>
      <path id="hole_108" style="fill:none;stroke:#000000;stroke-width:0.0508" d="M 149.7 280.24 L 149.7 286.14 L 152.6 286.14 L 152.6 280.24 L 149.7 280.24 Z"/>
      <path id="hole_109" style="fill:none;stroke:#000000;stroke-width:0.0508" d="M 103.925 280.24 L 103.925 286.14 L 106.825 286.14 L 106.825 280.24 L 103.925 280.24 Z"/>
      <path id="hole_110" style="fill:none;stroke:#000000;stroke-width:0.0508" d="M 195.475 292.245 L 195.475 298.145 L 198.375 298.145 L 198.375 292.245 L 195.475 292.245 Z"/>
      <path id="hole_111" style="fill:none;stroke:#000000;stroke-width:0.0508" d="M 149.7 292.245 L 149.7 298.145 L 152.6 298.145 L 152.6 292.245 L 149.7 292.245 Z"/>
      <path id="hole_112" style="fill:none;stroke:#000000;stroke-width:0.0508" d="M 103.925 292.245 L 103.925 298.145 L 106.825 298.145 L 106.825 292.245 L 103.925 292.245 Z"/>
      <path id="side_031" style="fill:none;stroke:#000000;stroke-width:0.0508" d="M 244.2 304.2 L 238.144 304.2 L 238.144 301.2 L 232.244 301.2 L 232.244 304.2 L 226.137 304.2 L 226.137 301.2 L 220.237 301.2 L 220.237 304.2 L 214.131 304.2 L 214.131 301.2 L 208.231 301.2 L 208.231 304.2 L 202.125 304.2 L 202.125 301.2 L 196.225 301.2 L 196.225 304.2 L 190.119 304.2 L 190.119 301.2 L 184.219 301.2 L 184.219 304.2 L 178.112 304.2 L 178.112 301.2 L 172.212 301.2 L 172.212 304.2 L 166.106 304.2 L 166.106 301.2 L 160.206 301.2 L 160.206 304.2 L 154.1 304.2 L 154.1 301.2 L 148.2 301.2 L 148.2 304.2 L 142.094 304.2 L 142.094 301.2 L 136.194 301.2 L 136.194 304.2 L 130.087 304.2 L 130.087 301.2 L 124.187 301.2 L 124.187 304.2 L 118.081 304.2 L 118.081 301.2 L 112.181 301.2 L 112.181 304.2 L 106.075 304.2 L 106.075 301.2 L 100.175 301.2 L 100.175 304.2 L 94.069 304.2 L 94.069 301.2 L 88.169 301.2 L 88.169 304.2 L 82.062 304.2 L 82.062 301.2 L 76.162 301.2 L 76.162 304.2 L 70.056 304.2 L 70.056 301.2 L 64.156 301.2 L 64.156 304.2 L 58.1 304.2"/>
      <path id="side_032" style="fill:none;stroke:#000000;stroke-width:0.0508" d="M 58.1 304.2 L 58.1 298.145 L 61.1 298.145 L 61.1 292.245 L 58.1 292.245 L 58.1 286.14 L 61.1 286.14 L 61.1 280.24 L 58.1 280.24 L 58.1 274.136 L 61.1 274.136 L 61.1 268.236 L 58.1 268.236 L 58.1 262.131 L 61.1 262.131 L 61.1 256.231 L 58.1 256.231 L 58.1 250.126 L 61.1 250.126 L 61.1 244.226 L 58.1 244.226 L 58.1 238.121 L 61.1 238.121 L 61.1 232.221 L 58.1 232.221 L 58.1 226.117 L 61.1 226.117 L 61.1 220.217 L 58.1 220.217 L 58.1 214.112 L 61.1 214.112 L 61.1 208.212 L 58.1 208.212 L 58.1 202.107 L 61.1 202.107 L 61.1 196.207 L 58.1 196.207 L 58.1 190.102 L 61.1 190.102 L 61.1 184.202 L 58.1 184.202 L 58.1 178.098 L 61.1 178.098 L 61.1 172.198 L 58.1 172.198 L 58.1 166.093 L 61.1 166.093 L 61.1 160.193 L 58.1 160.193 L 58.1 154.088 L 61.1 154.088 L 61.1 148.188 L 58.1 148.188 L 58.1 142.083 L 61.1 142.083 L 61.1 136.183 L 58.1 136.183 L 58.1 130.079 L 61.1 130.079 L 61.1 124.179 L 58.1 124.179 L 58.1 118.074 L 61.1 118.074 L 61.1 112.174 L 58.1 112.174 L 58.1 106.069 L 61.1 106.069 L 61.1 100.169 L 58.1 100.169 L 58.1 94.064 L 61.1 94.064 L 61.1 88.164 L 58.1 88.164 L 58.1 82.06 L 61.1 82.06 L 61.1 76.16 L 58.1 76.16 L 58.1 70.055 L 61.1 70.055 L 61.1 64.155 L 58.1 64.155 L 58.1 58.1"/>
    </g>
    <g id="piece_004">
      <path id="side_033" style="fill:none;stroke:#000000;stroke-width:0.0508" d="M 248.2 61.1 L 251.57 61.1 L 251.57 58.1 L 257.67 58.1 L 257.67 61.1 L 263.99 61.1 L 263.99 58.1 L 270.09 58.1 L 270.09 61.1 L 276.41 61.1 L 276.41 58.1 L 282.51 58.1 L 282.51 61.1 L 288.83 61.1 L 288.83 58.1 L 294.93 58.1 L 294.93 61.1 L 298.3 61.1"/>
      <path id="hole_113" style="fill:none;stroke:#000000;stroke-width:0.0508" d="M 248.2 142.083 L 251.57 142.083 L 251.57 139.183 L 248.2 139.183 L 248.2 142.083 Z"/>
      <path id="hole_114" style="fill:none;stroke:#000000;stroke-width:0.0508" d="M 248.2 223.117 L 251.57 223.117 L 251.57 220.217 L 248.2 220.217 L 248.2 223.117 Z"/>
      <path id="hole_115" style="fill:none;stroke:#000000;stroke-width:0.0508" d="M 257.67 142.083 L 263.99 142.083 L 263.99 139.183 L 257.67 139.183 L 257.67 142.083 Z"/>
      <path id="hole_116" style="fill:none;stroke:#000000;stroke-width:0.0508" d="M 257.67 223.117 L 263.99 223.117 L 263.99 220.217 L 257.67 220.217 L 257.67 223.117 Z"/>
      <path id="hole_117" style="fill:none;stroke:#000000;stroke-width:0.0508" d="M 270.09 142.083 L 276.41 142.083 L 276.41 139.183 L 270.09 139.183 L 270.09 142.083 Z"/>
      <path id="hole_118" style="fill:none;stroke:#000000;stroke-width:0.0508" d="M 270.09 223.117 L 276.41 223.117 L 276.41 220.217 L 270.09 220.217 L 270.09 223.117 Z"/>
      <path id="hole_119" style="fill:none;stroke:#000000;stroke-width:0.0508" d="M 282.51 142.083 L 288.83 142.083 L 288.83 139.183 L 282.51 139.183 L 282.51 142.083 Z"/>
      <path id="hole_120" style="fill:none;stroke:#000000;stroke-width:0.0508" d="M 282.51 223.117 L 288.83 223.117 L 288.83 220.217 L 282.51 220.217 L 282.51 223.117 Z"/>
      <path id="hole_121" style="fill:none;stroke:#000000;stroke-width:0.0508" d="M 294.93 142.083 L 298.25 142.083 L 298.25 139.183 L 294.93 139.183 L 294.93 142.083 Z"/>
      <path id="hole_122" style="fill:none;stroke:#000000;stroke-width:0.0508" d="M 294.93 223.117 L 298.25 223.117 L 298.25 220.217 L 294.93 220.217 L 294.93 223.117 Z"/>
      <path id="side_034" style="fill:none;stroke:#000000;stroke-width:0.0508" d="M 298.3 61.1 L 298.3 64.0548 L 301.3 64.0548 L 301.3 70.1548 L 298.3 70.1548 L 298.3 76.0595 L 301.3 76.0595 L 301.3 82.1595 L 298.3 82.1595 L 298.3 88.0643 L 301.3 88.0643 L 301.3 94.1643 L 298.3 94.1643 L 298.3 100.069 L 301.3 100.069 L 301.3 106.169 L 298.3 106.169 L 298.3 112.074 L 301.3 112.074 L 301.3 118.174 L 298.3 118.174 L 298.3 124.079 L 301.3 124.079 L 301.3 130.179 L 298.3 130.179 L 298.3 136.083 L 301.3 136.083 L 301.3 142.183 L 298.3 142.183 L 298.3 148.088 L 301.3 148.088 L 301.3 154.188 L 298.3 154.188 L 298.3 160.093 L 301.3 160.093 L 301.3 166.193 L 298.3 166.193 L 298.3 172.098 L 301.3 172.098 L 301.3 178.198 L 298.3 178.198 L 298.3 184.102 L 301.3 184.102 L 301.3 190.202 L 298.3 190.202 L 298.3 196.107 L 301.3 196.107 L 301.3 202.207 L 298.3 202.207 L 298.3 208.112 L 301.3 208.112 L 301.3 214.212 L 298.3 214.212 L 298.3 220.117 L 301.3 220.117 L 301.3 226.217 L 298.3 226.217 L 298.3 232.121 L 301.3 232.121 L 301.3 238.221 L 298.3 238.221 L 298.3 244.126 L 301.3 244.126 L 301.3 250.226 L 298.3 250.226 L 298.3 256.131 L 301.3 256.131 L 301.3 262.231 L 298.3 262.231 L 298.3 268.136 L 301.3 268.136 L 301.3 274.236 L 298.3 274.236 L 298.3 280.14 L 301.3 280.14 L 301.3 286.24 L 298.3 286.24 L 298.3 292.145 L 301.3 292.145 L 301.3 298.245 L 298.3 298.245 L 298.3 301.2"/>
      <path id="side_035" style="fill:none;stroke:#000000;stroke-width:0.0508" d="M 298.3 301.2 L 294.93 301.2 L 294.93 304.2 L 288.83 304.2 L 288.83 301.2 L 282.51 301.2 L 282.51 304.2 L 276.41 304.2 L 276.41 301.2 L 270.09 301.2 L 270.09 304.2 L 263.99 304.2 L 263.99 301.2 L 257.67 301.2 L 257.67 304.2 L 251.57 304.2 L 251.57 301.2 L 248.2 301.2"/>
      <path id="side_036" style="fill:none;stroke:#000000;stroke-width:0.0508" d="M 248.2 301.2 L 248.2 298.245 L 245.2 298.245 L 245.2 292.145 L 248.2 292.145 L 248.2 286.24 L 245.2 286.24 L 245.2 280.14 L 248.2 280.14 L 248.2 274.236 L 245.2 274.236 L 245.2 268.136 L 248.2 268.136 L 248.2 262.231 L 245.2 262.231 L 245.2 256.131 L 248.2 256.131 L 248.2 250.226 L 245.2 250.226 L 245.2 244.126 L 248.2 244.126 L 248.2 238.221 L 245.2 238.221 L 245.2 232.121 L 248.2 232.121 L 248.2 226.217 L 245.2 226.217 L 245.2 220.117 L 248.2 220.117 L 248.2 214.212 L 245.2 214.212 L 245.2 208.112 L 248.2 208.112 L 248.2 202.207 L 245.2 202.207 L 245.2 196.107 L 248.2 196.107 L 248.2 190.202 L 245.2 190.202 L 245.2 184.102 L 248.2 184.102 L 248.2 178.198 L 245.2 178.198 L 245.2 172.098 L 248.2 172.098 L 248.2 166.193 L 245.2 166.193 L 245.2 160.093 L 248.2 160.093 L 248.2 154.188 L 245.2 154.188 L 245.2 148.088 L 248.2 148.088 L 248.2 142.183 L 245.2 142.183 L 245.2 136.083 L 248.2 136.083 L 248.2 130.179 L 245.2 130.179 L 245.2 124.079 L 248.2 124.079 L 248.2 118.174 L 245.2 118.174 L 245.2 112.074 L 248.2 112.074 L 248.2 106.169 L 245.2 106.169 L 245.2 100.069 L 248.2 100.069 L 248.2 94.164 L 245.2 94.164 L 245.2 88.064 L 248.2 88.064 L 248.2 82.16 L 245.2 82.16 L 245.2 76.06 L 248.2 76.06 L 248.2 70.155 L 245.2 70.155 L 245.2 64.055 L 248.2 64.055 L 248.2 61.1"/>
    </g>
    <g id="piece_005">
      <path id="side_037" style="fill:none;stroke:#000000;stroke-width:0.0508" d="M 302.3 58.1 L 308.356 58.1 L 308.356 61.1 L 314.256 61.1 L 314.256 58.1 L 320.363 58.1 L 320.363 61.1 L 326.262 61.1 L 326.262 58.1 L 332.369 58.1 L 332.369 61.1 L 338.269 61.1 L 338.269 58.1 L 344.375 58.1 L 344.375 61.1 L 350.275 61.1 L 350.275 58.1 L 356.381 58.1 L 356.381 61.1 L 362.281 61.1 L 362.281 58.1 L 368.388 58.1 L 368.388 61.1 L 374.288 61.1 L 374.288 58.1 L 380.394 58.1 L 380.394 61.1 L 386.294 61.1 L 386.294 58.1 L 392.4 58.1 L 392.4 61.1 L 398.3 61.1 L 398.3 58.1 L 404.406 58.1 L 404.406 61.1 L 410.306 61.1 L 410.306 58.1 L 416.413 58.1 L 416.413 61.1 L 422.313 61.1 L 422.313 58.1 L 428.419 58.1 L 428.419 61.1 L 434.319 61.1 L 434.319 58.1 L 440.425 58.1 L 440.425 61.1 L 446.325 61.1 L 446.325 58.1 L 452.431 58.1 L 452.431 61.1 L 458.331 61.1 L 458.331 58.1 L 464.438 58.1 L 464.438 61.1 L 470.338 61.1 L 470.338 58.1 L 476.444 58.1 L 476.444 61.1 L 482.344 61.1 L 482.344 58.1 L 488.4 58.1"/>
      <path id="hole_123" style="fill:none;stroke:#000000;stroke-width:0.0508" d="M 308.356 142.083 L 314.256 142.083 L 314.256 139.183 L 308.356 139.183 L 308.356 142.083 Z"/>
      <path id="hole_124" style="fill:none;stroke:#000000;stroke-width:0.0508" d="M 308.356 223.117 L 314.256 223.117 L 314.256 220.217 L 308.356 220.217 L 308.356 223.117 Z"/>
      <path id="hole_125" style="fill:none;stroke:#000000;stroke-width:0.0508" d="M 320.363 142.083 L 326.262 142.083 L 326.262 139.183 L 320.363 139.183 L 320.363 142.083 Z"/>
      <path id="hole_126" style="fill:none;stroke:#000000;stroke-width:0.0508" d="M 320.363 223.117 L 326.262 223.117 L 326.262 220.217 L 320.363 220.217 L 320.363 223.117 Z"/>
      <path id="hole_127" style="fill:none;stroke:#000000;stroke-width:0.0508" d="M 332.369 142.083 L 338.269 142.083 L 338.269 139.183 L 332.369 139.183 L 332.369 142.083 Z"/>
      <path id="hole_128" style="fill:none;stroke:#000000;stroke-width:0.0508" d="M 332.369 223.117 L 338.269 223.117 L 338.269 220.217 L 332.369 220.217 L 332.369 223.117 Z"/>
      <path id="hole_129" style="fill:none;stroke:#000000;stroke-width:0.0508" d="M 344.375 142.083 L 350.275 142.083 L 350.275 139.183 L 344.375 139.183 L 344.375 142.083 Z"/>
      <path id="hole_130" style="fill:none;stroke:#000000;stroke-width:0.0508" d="M 344.375 223.117 L 350.275 223.117 L 350.275 220.217 L 344.375 220.217 L 344.375 223.117 Z"/>
      <path id="hole_131" style="fill:none;stroke:#000000;stroke-width:0.0508" d="M 356.381 142.083 L 362.281 142.083 L 362.281 139.183 L 356.381 139.183 L 356.381 142.083 Z"/>
      <path id="hole_132" style="fill:none;stroke:#000000;stroke-width:0.0508" d="M 356.381 223.117 L 362.281 223.117 L 362.281 220.217 L 356.381 220.217 L 356.381 223.117 Z"/>
      <path id="hole_133" style="fill:none;stroke:#000000;stroke-width:0.0508" d="M 368.388 142.083 L 374.288 142.083 L 374.288 139.183 L 368.388 139.183 L 368.388 142.083 Z"/>
      <path id="hole_134" style="fill:none;stroke:#000000;stroke-width:0.0508" d="M 368.388 223.117 L 374.288 223.117 L 374.288 220.217 L 368.388 220.217 L 368.388 223.117 Z"/>
      <path id="hole_135" style="fill:none;stroke:#000000;stroke-width:0.0508" d="M 380.394 142.083 L 386.294 142.083 L 386.294 139.183 L 380.394 139.183 L 380.394 142.083 Z"/>
      <path id="hole_136" style="fill:none;stroke:#000000;stroke-width:0.0508" d="M 380.394 223.117 L 386.294 223.117 L 386.294 220.217 L 380.394 220.217 L 380.394 223.117 Z"/>
      <path id="hole_137" style="fill:none;stroke:#000000;stroke-width:0.0508" d="M 392.4 142.083 L 398.3 142.083 L 398.3 139.183 L 392.4 139.183 L 392.4 142.083 Z"/>
      <path id="hole_138" style="fill:none;stroke:#000000;stroke-width:0.0508" d="M 392.4 223.117 L 398.3 223.117 L 398.3 220.217 L 392.4 220.217 L 392.4 223.117 Z"/>
      <path id="hole_139" style="fill:none;stroke:#000000;stroke-width:0.0508" d="M 404.406 142.083 L 410.306 142.083 L 410.306 139.183 L 404.406 139.183 L 404.406 142.083 Z"/>
      <path id="hole_140" style="fill:none;stroke:#000000;stroke-width:0.0508" d="M 404.406 223.117 L 410.306 223.117 L 410.306 220.217 L 404.406 220.217 L 404.406 223.117 Z"/>
      <path id="hole_141" style="fill:none;stroke:#000000;stroke-width:0.0508" d="M 416.413 142.083 L 422.313 142.083 L 422.313 139.183 L 416.413 139.183 L 416.413 142.083 Z"/>
      <path id="hole_142" style="fill:none;stroke:#000000;stroke-width:0.0508" d="M 416.413 223.117 L 422.313 223.117 L 422.313 220.217 L 416.413 220.217 L 416.413 223.117 Z"/>
      <path id="hole_143" style="fill:none;stroke:#000000;stroke-width:0.0508" d="M 428.419 142.083 L 434.319 142.083 L 434.319 139.183 L 428.419 139.183 L 428.419 142.083 Z"/>
      <path id="hole_144" style="fill:none;stroke:#000000;stroke-width:0.0508" d="M 428.419 223.117 L 434.319 223.117 L 434.319 220.217 L 428.419 220.217 L 428.419 223.117 Z"/>
      <path id="hole_145" style="fill:none;stroke:#000000;stroke-width:0.0508" d="M 440.425 142.083 L 446.325 142.083 L 446.325 139.183 L 440.425 139.183 L 440.425 142.083 Z"/>
      <path id="hole_146" style="fill:none;stroke:#000000;stroke-width:0.0508" d="M 440.425 223.117 L 446.325 223.117 L 446.325 220.217 L 440.425 220.217 L 440.425 223.117 Z"/>
      <path id="hole_147" style="fill:none;stroke:#000000;stroke-width:0.0508" d="M 452.431 142.083 L 458.331 142.083 L 458.331 139.183 L 452.431 139.183 L 452.431 142.083 Z"/>
      <path id="hole_148" style="fill:none;stroke:#000000;stroke-width:0.0508" d="M 452.431 223.117 L 458.331 223.117 L 458.331 220.217 L 452.431 220.217 L 452.431 223.117 Z"/>
      <path id="hole_149" style="fill:none;stroke:#000000;stroke-width:0.0508" d="M 464.438 142.083 L 470.338 142.083 L 470.338 139.183 L 464.438 139.183 L 464.438 142.083 Z"/>
      <path id="hole_150" style="fill:none;stroke:#000000;stroke-width:0.0508" d="M 464.438 223.117 L 470.338 223.117 L 470.338 220.217 L 464.438 220.217 L 464.438 223.117 Z"/>
      <path id="hole_151" style="fill:none;stroke:#000000;stroke-width:0.0508" d="M 476.444 142.083 L 482.344 142.083 L 482.344 139.183 L 476.444 139.183 L 476.444 142.083 Z"/>
      <path id="hole_152" style="fill:none;stroke:#000000;stroke-width:0.0508" d="M 476.444 223.117 L 482.344 223.117 L 482.344 220.217 L 476.444 220.217 L 476.444 223.117 Z"/>
      <path id="side_038" style="fill:none;stroke:#000000;stroke-width:0.0508" d="M 488.4 58.1 L 488.4 64.1548 L 485.4 64.1548 L 485.4 70.0548 L 488.4 70.0548 L 488.4 76.1595 L 485.4 76.1595 L 485.4 82.0595 L 488.4 82.0595 L 488.4 88.1643 L 485.4 88.1643 L 485.4 94.0643 L 488.4 94.0643 L 488.4 100.169 L 485.4 100.169 L 485.4 106.069 L 488.4 106.069 L 488.4 112.174 L 485.4 112.174 L 485.4 118.074 L 488.4 118.074 L 488.4 124.179 L 485.4 124.179 L 485.4 130.079 L 488.4 130.079 L 488.4 136.183 L 485.4 136.183 L 485.4 142.083 L 488.4 142.083 L 488.4 148.188 L 485.4 148.188 L 485.4 154.088 L 488.4 154.088 L 488.4 160.193 L 485.4 160.193 L 485.4 166.093 L 488.4 166.093 L 488.4 172.198 L 485.4 172.198 L 485.4 178.098 L 488.4 178.098 L 488.4 184.202 L 485.4 184.202 L 485.4 190.102 L 488.4 190.102 L 488.4 196.207 L 485.4 196.207 L 485.4 202.107 L 488.4 202.107 L 488.4 208.212 L 485.4 208.212 L 485.4 214.112 L 488.4 214.112 L 488.4 220.217 L 485.4 220.217 L 485.4 226.117 L 488.4 226.117 L 488.4 232.221 L 485.4 232.221 L 485.4 238.121 L 488.4 238.121 L 488.4 244.226 L 485.4 244.226 L 485.4 250.126 L 488.4 250.126 L 488.4 256.231 L 485.4 256.231 L 485.4 262.131 L 488.4 262.131 L 488.4 268.236 L 485.4 268.236 L 485.4 274.136 L 488.4 274.136 L 488.4 280.24 L 485.4 280.24 L 485.4 286.14 L 488.4 286.14 L 488.4 292.245 L 485.4 292.245 L 485.4 298.145 L 488.4 298.145 L 488.4 304.2"/>
      <path id="hole_153" style="fill:none;stroke:#000000;stroke-width:0.0508" d="M 439.675 64.1548 L 439.675 70.0548 L 442.575 70.0548 L 442.575 64.1548 L 439.675 64.1548 Z"/>
      <path id="hole_154" style="fill:none;stroke:#000000;stroke-width:0.0508" d="M 393.9 64.1548 L 393.9 70.0548 L 396.8 70.0548 L 396.8 64.1548 L 393.9 64.1548 Z"/>
      <path id="hole_155" style="fill:none;stroke:#000000;stroke-width:0.0508" d="M 348.125 64.1548 L 348.125 70.0548 L 351.025 70.0548 L 351.025 64.1548 L 348.125 64.1548 Z"/>
      <path id="hole_156" style="fill:none;stroke:#000000;stroke-width:0.0508" d="M 439.675 76.1595 L 439.675 82.0595 L 442.575 82.0595 L 442.575 76.1595 L 439.675 76.1595 Z"/>
      <path id="hole_157" style="fill:none;stroke:#000000;stroke-width:0.0508" d="M 393.9 76.1595 L 393.9 82.0595 L 396.8 82.0595 L 396.8 76.1595 L 393.9 76.1595 Z"/>
      <path id="hole_158" style="fill:none;stroke:#000000;stroke-width:0.0508" d="M 348.125 76.1595 L 348.125 82.0595 L 351.025 82.0595 L 351.025 76.1595 L 348.125 76.1595 Z"/>
      <path id="hole_159" style="fill:none;stroke:#000000;stroke-width:0.0508" d="M 439.675 88.1643 L 439.675 94.0643 L 442.575 94.0643 L 442.575 88.1643 L 439.675 88.1643 Z"/>
      <path id="hole_160" style="fill:none;stroke:#000000;stroke-width:0.0508" d="M 393.9 88.1643 L 393.9 94.0643 L 396.8 94.0643 L 396.8 88.1643 L 393.9 88.1643 Z"/>
      <path id="hole_161" style="fill:none;stroke:#000000;stroke-width:0.0508" d="M 348.125 88.1643 L 348.125 94.0643 L 351.025 94.0643 L 351.025 88.1643 L 348.125 88.1643 Z"/>
      <path id="hole_162" style="fill:none;stroke:#000000;stroke-width:0.0508" d="M 439.675 100.169 L 439.675 106.069 L 442.575 106.069 L 442.575 100.169 L 439.675 100.169 Z"/>
      <path id="hole_163" style="fill:none;stroke:#000000;stroke-width:0.0508" d="M 393.9 100.169 L 393.9 106.069 L 396.8 106.069 L 396.8 100.169 L 393.9 100.169 Z"/>
      <path id="hole_164" style="fill:none;stroke:#000000;stroke-width:0.0508" d="M 348.125 100.169 L 348.125 106.069 L 351.025 106.069 L 351.025 100.169 L 348.125 100.169 Z"/>
      <path id="hole_165" style="fill:none;stroke:#000000;stroke-width:0.0508" d="M 439.675 112.174 L 439.675 118.074 L 442.575 118.074 L 442.575 112.174 L 439.675 112.174 Z"/>
      <path id="hole_166" style="fill:none;stroke:#000000;stroke-width:0.0508" d="M 393.9 112.174 L 393.9 118.074 L 396.8 118.074 L 396.8 112.174 L 393.9 112.174 Z"/>
      <path id="hole_167" style="fill:none;stroke:#000000;stroke-width:0.0508" d="M 348.125 112.174 L 348.125 118.074 L 351.025 118.074 L 351.025 112.174 L 348.125 112.174 Z"/>
      <path id="hole_168" style="fill:none;stroke:#000000;stroke-width:0.0508" d="M 439.675 124.179 L 439.675 130.079 L 442.575 130.079 L 442.575 124.179 L 439.675 124.179 Z"/>
      <path id="hole_169" style="fill:none;stroke:#000000;stroke-width:0.0508" d="M 393.9 124.179 L 393.9 130.079 L 396.8 130.079 L 396.8 124.179 L 393.9 124.179 Z"/>
      <path id="hole_170" style="fill:none;stroke:#000000;stroke-width:0.0508" d="M 348.125 124.179 L 348.125 130.079 L 351.025 130.079 L 351.025 124.179 L 348.125 124.179 Z"/>
      <path id="hole_171" style="fill:none;stroke:#000000;stroke-width:0.0508" d="M 439.675 136.183 L 439.675 142.083 L 442.575 142.083 L 442.575 136.183 L 439.675 136.183 Z"/>
      <path id="hole_172" style="fill:none;stroke:#000000;stroke-width:0.0508" d="M 393.9 136.183 L 393.9 142.083 L 396.8 142.083 L 396.8 136.183 L 393.9 136.183 Z"/>
      <path id="hole_173" style="fill:none;stroke:#000000;stroke-width:0.0508" d="M 348.125 136.183 L 348.125 142.083 L 351.025 142.083 L 351.025 136.183 L 348.125 136.183 Z"/>
      <path id="hole_174" style="fill:none;stroke:#000000;stroke-width:0.0508" d="M 439.675 148.188 L 439.675 154.088 L 442.575 154.088 L 442.575 148.188 L 439.675 148.188 Z"/>
      <path id="hole_175" style="fill:none;stroke:#000000;stroke-width:0.0508" d="M 393.9 148.188 L 393.9 154.088 L 396.8 154.088 L 396.8 148.188 L 393.9 148.188 Z"/>
      <path id="hole_176" style="fill:none;stroke:#000000;stroke-width:0.0508" d="M 348.125 148.188 L 348.125 154.088 L 351.025 154.088 L 351.025 148.188 L 348.125 148.188 Z"/>
      <path id="hole_177" style="fill:none;stroke:#000000;stroke-width:0.0508" d="M 439.675 160.193 L 439.675 166.093 L 442.575 166.093 L 442.575 160.193 L 439.675 160.193 Z"/>
      <path id="hole_178" style="fill:none;stroke:#000000;stroke-width:0.0508" d="M 393.9 160.193 L 393.9 166.093 L 396.8 166.093 L 396.8 160.193 L 393.9 160.193 Z"/>
      <path id="hole_179" style="fill:none;stroke:#000000;stroke-width:0.0508" d="M 348.125 160.193 L 348.125 166.093 L 351.025 166.093 L 351.025 160.193 L 348.125 160.193 Z"/>
      <path id="hole_180" style="fill:none;stroke:#000000;stroke-width:0.0508" d="M 439.675 172.198 L 439.675 178.098 L 442.575 178.098 L 442.575 172.198 L 439.675 172.198 Z"/>
      <path id="hole_181" style="fill:none;stroke:#000000;stroke-width:0.0508" d="M 393.9 172.198 L 393.9 178.098 L 396.8 178.098 L 396.8 172.198 L 393.9 172.198 Z"/>
      <path id="hole_182" style="fill:none;stroke:#000000;stroke-width:0.0508" d="M 348.125 172.198 L 348.125 178.098 L 351.025 178.098 L 351.025 172.198 L 348.125 172.198 Z"/>
      <path id="hole_183" style="fill:none;stroke:#000000;stroke-width:0.0508" d="M 439.675 184.202 L 439.675 190.102 L 442.575 190.102 L 442.575 184.202 L 439.675 184.202 Z"/>
      <path id="hole_184" style="fill:none;stroke:#000000;stroke-width:0.0508" d="M 393.9 184.202 L 393.9 190.102 L 396.8 190.102 L 396.8 184.202 L 393.9 184.202 Z"/>
      <path id="hole_185" style="fill:none;stroke:#000000;stroke-width:0.0508" d="M 348.125 184.202 L 348.125 190.102 L 351.025 190.102 L 351.025 184.202 L 348.125 184.202 Z"/>
      <path id="hole_186" style="fill:none;stroke:#000000;stroke-width:0.0508" d="M 439.675 196.207 L 439.675 202.107 L 442.575 202.107 L 442.575 196.207 L 439.675 196.207 Z"/>
      <path id="hole_187" style="fill:none;stroke:#000000;stroke-width:0.0508" d="M 393.9 196.207 L 393.9 202.107 L 396.8 202.107 L 396.8 196.207 L 393.9 196.207 Z"/>
      <path id="hole_188" style="fill:none;stroke:#000000;stroke-width:0.0508" d="M 348.125 196.207 L 348.125 202.107 L 351.025 202.107 L 351.025 196.207 L 348.125 196.207 Z"/>
      <path id="hole_189" style="fill:none;stroke:#000000;stroke-width:0.0508" d="M 439.675 208.212 L 439.675 214.112 L 442.575 214.112 L 442.575 208.212 L 439.675 208.212 Z"/>
      <path id="hole_190" style="fill:none;stroke:#000000;stroke-width:0.0508" d="M 393.9 208.212 L 393.9 214.112 L 396.8 214.112 L 396.8 208.212 L 393.9 208.212 Z"/>
      <path id="hole_191" style="fill:none;stroke:#000000;stroke-width:0.0508" d="M 348.125 208.212 L 348.125 214.112 L 351.025 214.112 L 351.025 208.212 L 348.125 208.212 Z"/>
      <path id="hole_192" style="fill:none;stroke:#000000;stroke-width:0.0508" d="M 439.675 220.217 L 439.675 226.117 L 442.575 226.117 L 442.575 220.217 L 439.675 220.217 Z"/>
      <path id="hole_193" style="fill:none;stroke:#000000;stroke-width:0.0508" d="M 393.9 220.217 L 393.9 226.117 L 396.8 226.117 L 396.8 220.217 L 393.9 220.217 Z"/>
      <path id="hole_194" style="fill:none;stroke:#000000;stroke-width:0.0508" d="M 348.125 220.217 L 348.125 226.117 L 351.025 226.117 L 351.025 220.217 L 348.125 220.217 Z"/>
      <path id="hole_195" style="fill:none;stroke:#000000;stroke-width:0.0508" d="M 439.675 232.221 L 439.675 238.121 L 442.575 238.121 L 442.575 232.221 L 439.675 232.221 Z"/>
      <path id="hole_196" style="fill:none;stroke:#000000;stroke-width:0.0508" d="M 393.9 232.221 L 393.9 238.121 L 396.8 238.121 L 396.8 232.221 L 393.9 232.221 Z"/>
      <path id="hole_197" style="fill:none;stroke:#000000;stroke-width:0.0508" d="M 348.125 232.221 L 348.125 238.121 L 351.025 238.121 L 351.025 232.221 L 348.125 232.221 Z"/>
      <path id="hole_198" style="fill:none;stroke:#000000;stroke-width:0.0508" d="M 439.675 244.226 L 439.675 250.126 L 442.575 250.126 L 442.575 244.226 L 439.675 244.226 Z"/>
      <path id="hole_199" style="fill:none;stroke:#000000;stroke-width:0.0508" d="M 393.9 244.226 L 393.9 250.126 L 396.8 250.126 L 396.8 244.226 L 393.9 244.226 Z"/>
      <path id="hole_200" style="fill:none;stroke:#000000;stroke-width:0.0508" d="M 348.125 244.226 L 348.125 250.126 L 351.025 250.126 L 351.025 244.226 L 348.125 244.226 Z"/>
      <path id="hole_201" style="fill:none;stroke:#000000;stroke-width:0.0508" d="M 439.675 256.231 L 439.675 262.131 L 442.575 262.131 L 442.575 256.231 L 439.675 256.231 Z"/>
      <path id="hole_202" style="fill:none;stroke:#000000;stroke-width:0.0508" d="M 393.9 256.231 L 393.9 262.131 L 396.8 262.131 L 396.8 256.231 L 393.9 256.231 Z"/>
      <path id="hole_203" style="fill:none;stroke:#000000;stroke-width:0.0508" d="M 348.125 256.231 L 348.125 262.131 L 351.025 262.131 L 351.025 256.231 L 348.125 256.231 Z"/>
      <path id="hole_204" style="fill:none;stroke:#000000;stroke-width:0.0508" d="M 439.675 268.236 L 439.675 274.136 L 442.575 274.136 L 442.575 268.236 L 439.675 268.236 Z"/>
      <path id="hole_205" style="fill:none;stroke:#000000;stroke-width:0.0508" d="M 393.9 268.236 L 393.9 274.136 L 396.8 274.136 L 396.8 268.236 L 393.9 268.236 Z"/>
      <path id="hole_206" style="fill:none;stroke:#000000;stroke-width:0.0508" d="M 348.125 268.236 L 348.125 274.136 L 351.025 274.136 L 351.025 268.236 L 348.125 268.236 Z"/>
      <path id="hole_207" style="fill:none;stroke:#000000;stroke-width:0.0508" d="M 439.675 280.24 L 439.675 286.14 L 442.575 286.14 L 442.575 280.24 L 439.675 280.24 Z"/>
      <path id="hole_208" style="fill:none;stroke:#000000;stroke-width:0.0508" d="M 393.9 280.24 L 393.9 286.14 L 396.8 286.14 L 396.8 280.24 L 393.9 280.24 Z"/>
      <path id="hole_209" style="fill:none;stroke:#000000;stroke-width:0.0508" d="M 348.125 280.24 L 348.125 286.14 L 351.025 286.14 L 351.025 280.24 L 348.125 280.24 Z"/>
      <path id="hole_210" style="fill:none;stroke:#000000;stroke-width:0.0508" d="M 439.675 292.245 L 439.675 298.145 L 442.575 298.145 L 442.575 292.245 L 439.675 292.245 Z"/>
      <path id="hole_211" style="fill:none;stroke:#000000;stroke-width:0.0508" d="M 393.9 292.245 L 393.9 298.145 L 396.8 298.145 L 396.8 292.245 L 393.9 292.245 Z"/>
      <path id="hole_212" style="fill:none;stroke:#000000;stroke-width:0.0508" d="M 348.125 292.245 L 348.125 298.145 L 351.025 298.145 L 351.025 292.245 L 348.125 292.245 Z"/>
      <path id="side_039" style="fill:none;stroke:#000000;stroke-width:0.0508" d="M 488.4 304.2 L 482.344 304.2 L 482.344 301.2 L 476.444 301.2 L 476.444 304.2 L 470.337 304.2 L 470.337 301.2 L 464.438 301.2 L 464.438 304.2 L 458.331 304.2 L 458.331 301.2 L 452.431 301.2 L 452.431 304.2 L 446.325 304.2 L 446.325 301.2 L 440.425 301.2 L 440.425 304.2 L 434.319 304.2 L 434.319 301.2 L 428.419 301.2 L 428.419 304.2 L 422.312 304.2 L 422.312 301.2 L 416.412 301.2 L 416.412 304.2 L 410.306 304.2 L 410.306 301.2 L 404.406 301.2 L 404.406 304.2 L 398.3 304.2 L 398.3 301.2 L 392.4 301.2 L 392.4 304.2 L 386.294 304.2 L 386.294 301.2 L 380.394 301.2 L 380.394 304.2 L 374.287 304.2 L 374.287 301.2 L 368.387 301.2 L 368.387 304.2 L 362.281 304.2 L 362.281 301.2 L 356.381 301.2 L 356.381 304.2 L 350.275 304.2 L 350.275 301.2 L 344.375 301.2 L 344.375 304.2 L 338.269 304.2 L 338.269 301.2 L 332.369 301.2 L 332.369 304.2 L 326.262 304.2 L 326.262 301.2 L 320.362 301.2 L 320.362 304.2 L 314.256 304.2 L 314.256 301.2 L 308.356 301.2 L 308.356 304.2 L 302.3 304.2"/>
      <path id="side_040" style="fill:none;stroke:#000000;stroke-width:0.0508" d="M 302.3 304.2 L 302.3 298.145 L 305.3 298.145 L 305.3 292.245 L 302.3 292.245 L 302.3 286.14 L 305.3 286.14 L 305.3 280.24 L 302.3 280.24 L 302.3 274.136 L 305.3 274.136 L 305.3 268.236 L 302.3 268.236 L 302.3 262.131 L 305.3 262.131 L 305.3 256.231 L 302.3 256.231 L 302.3 250.126 L 305.3 250.126 L 305.3 244.226 L 302.3 244.226 L 302.3 238.121 L 305.3 238.121 L 305.3 232.221 L 302.3 232.221 L 302.3 226.117 L 305.3 226.117 L 305.3 220.217 L 302.3 220.217 L 302.3 214.112 L 305.3 214.112 L 305.3 208.212 L 302.3 208.212 L 302.3 202.107 L 305.3 202.107 L 305.3 196.207 L 302.3 196.207 L 302.3 190.102 L 305.3 190.102 L 305.3 184.202 L 302.3 184.202 L 302.3 178.098 L 305.3 178.098 L 305.3 172.198 L 302.3 172.198 L 302.3 166.093 L 305.3 166.093 L 305.3 160.193 L 302.3 160.193 L 302.3 154.088 L 305.3 154.088 L 305.3 148.188 L 302.3 148.188 L 302.3 142.083 L 305.3 142.083 L 305.3 136.183 L 302.3 136.183 L 302.3 130.079 L 305.3 130.079 L 305.3 124.179 L 302.3 124.179 L 302.3 118.074 L 305.3 118.074 L 305.3 112.174 L 302.3 112.174 L 302.3 106.069 L 305.3 106.069 L 305.3 100.169 L 302.3 100.169 L 302.3 94.064 L 305.3 94.064 L 305.3 88.164 L 302.3 88.164 L 302.3 82.06 L 305.3 82.06 L 305.3 76.16 L 302.3 76.16 L 302.3 70.055 L 305.3 70.055 L 305.3 64.155 L 302.3 64.155 L 302.3 58.1"/>
    </g>
    <g id="piece_006">
      <path id="side_041" style="fill:none;stroke:#000000;stroke-width:0.0508" d="M 58.1 4 L 64.0563 4 L 64.0563 1 L 70.1562 1 L 70.1562 4 L 76.0625 4 L 76.0625 1 L 82.1625 1 L 82.1625 4 L 88.0688 4 L 88.0688 1 L 94.1688 1 L 94.1688 4 L 100.075 4 L 100.075 1 L 106.175 1 L 106.175 4 L 112.081 4 L 112.081 1 L 118.181 1 L 118.181 4 L 124.088 4 L 124.088 1 L 130.188 1 L 130.188 4 L 136.094 4 L 136.094 1 L 142.194 1 L 142.194 4 L 148.1 4 L 148.1 1 L 154.2 1 L 154.2 4 L 160.106 4 L 160.106 1 L 166.206 1 L 166.206 4 L 172.112 4 L 172.112 1 L 178.212 1 L 178.212 4 L 184.119 4 L 184.119 1 L 190.219 1 L 190.219 4 L 196.125 4 L 196.125 1 L 202.225 1 L 202.225 4 L 208.131 4 L 208.131 1 L 214.231 1 L 214.231 4 L 220.137 4 L 220.137 1 L 226.237 1 L 226.237 4 L 232.144 4 L 232.144 1 L 238.244 1 L 238.244 4 L 244.2 4"/>
      <path id="side_042" style="fill:none;stroke:#000000;stroke-width:0.0508" d="M 244.2 4 L 244.2 7.47 L 241.2 7.47 L 241.2 13.37 L 244.2 13.37 L 244.2 19.89 L 241.2 19.89 L 241.2 25.79 L 244.2 25.79 L 244.2 32.31 L 241.2 32.31 L 241.2 38.21 L 244.2 38.21 L 244.2 44.73 L 241.2 44.73 L 241.2 50.63 L 244.2 50.63 L 244.2 54.1"/>
      <path id="hole_213" style="fill:none;stroke:#000000;stroke-width:0.0508" d="M 195.475 7.47 L 195.475 13.37 L 198.375 13.37 L 198.375 7.47 L 195.475 7.47 Z"/>
      <path id="hole_214" style="fill:none;stroke:#000000;stroke-width:0.0508" d="M 149.7 7.47 L 149.7 13.37 L 152.6 13.37 L 152.6 7.47 L 149.7 7.47 Z"/>
      <path id="hole_215" style="fill:none;stroke:#000000;stroke-width:0.0508" d="M 103.925 7.47 L 103.925 13.37 L 106.825 13.37 L 106.825 7.47 L 103.925 7.47 Z"/>
      <path id="hole_216" style="fill:none;stroke:#000000;stroke-width:0.0508" d="M 195.475 19.89 L 195.475 25.79 L 198.375 25.79 L 198.375 19.89 L 195.475 19.89 Z"/>
      <path id="hole_217" style="fill:none;stroke:#000000;stroke-width:0.0508" d="M 149.7 19.89 L 149.7 25.79 L 152.6 25.79 L 152.6 19.89 L 149.7 19.89 Z"/>
      <path id="hole_218" style="fill:none;stroke:#000000;stroke-width:0.0508" d="M 103.925 19.89 L 103.925 25.79 L 106.825 25.79 L 106.825 19.89 L 103.925 19.89 Z"/>
      <path id="hole_219" style="fill:none;stroke:#000000;stroke-width:0.0508" d="M 195.475 32.31 L 195.475 38.21 L 198.375 38.21 L 198.375 32.31 L 195.475 32.31 Z"/>
      <path id="hole_220" style="fill:none;stroke:#000000;stroke-width:0.0508" d="M 149.7 32.31 L 149.7 38.21 L 152.6 38.21 L 152.6 32.31 L 149.7 32.31 Z"/>
      <path id="hole_221" style="fill:none;stroke:#000000;stroke-width:0.0508" d="M 103.925 32.31 L 103.925 38.21 L 106.825 38.21 L 106.825 32.31 L 103.925 32.31 Z"/>
      <path id="hole_222" style="fill:none;stroke:#000000;stroke-width:0.0508" d="M 195.475 44.73 L 195.475 50.63 L 198.375 50.63 L 198.375 44.73 L 195.475 44.73 Z"/>
      <path id="hole_223" style="fill:none;stroke:#000000;stroke-width:0.0508" d="M 149.7 44.73 L 149.7 50.63 L 152.6 50.63 L 152.6 44.73 L 149.7 44.73 Z"/>
      <path id="hole_224" style="fill:none;stroke:#000000;stroke-width:0.0508" d="M 103.925 44.73 L 103.925 50.63 L 106.825 50.63 L 106.825 44.73 L 103.925 44.73 Z"/>
      <path id="side_043" style="fill:none;stroke:#000000;stroke-width:0.0508" d="M 244.2 54.1 L 238.244 54.1 L 238.244 57.1 L 232.144 57.1 L 232.144 54.1 L 226.237 54.1 L 226.237 57.1 L 220.137 57.1 L 220.137 54.1 L 214.231 54.1 L 214.231 57.1 L 208.131 57.1 L 208.131 54.1 L 202.225 54.1 L 202.225 57.1 L 196.125 57.1 L 196.125 54.1 L 190.219 54.1 L 190.219 57.1 L 184.119 57.1 L 184.119 54.1 L 178.212 54.1 L 178.212 57.1 L 172.112 57.1 L 172.112 54.1 L 166.206 54.1 L 166.206 57.1 L 160.106 57.1 L 160.106 54.1 L 154.2 54.1 L 154.2 57.1 L 148.1 57.1 L 148.1 54.1 L 142.194 54.1 L 142.194 57.1 L 136.094 57.1 L 136.094 54.1 L 130.188 54.1 L 130.188 57.1 L 124.088 57.1 L 124.088 54.1 L 118.181 54.1 L 118.181 57.1 L 112.081 57.1 L 112.081 54.1 L 106.175 54.1 L 106.175 57.1 L 100.075 57.1 L 100.075 54.1 L 94.169 54.1 L 94.169 57.1 L 88.069 57.1 L 88.069 54.1 L 82.163 54.1 L 82.163 57.1 L 76.063 57.1 L 76.063 54.1 L 70.156 54.1 L 70.156 57.1 L 64.056 57.1 L 64.056 54.1 L 58.1 54.1"/>
      <path id="side_044" style="fill:none;stroke:#000000;stroke-width:0.0508" d="M 58.1 54.1 L 58.1 50.63 L 61.1 50.63 L 61.1 44.73 L 58.1 44.73 L 58.1 38.21 L 61.1 38.21 L 61.1 32.31 L 58.1 32.31 L 58.1 25.79 L 61.1 25.79 L 61.1 19.89 L 58.1 19.89 L 58.1 13.37 L 61.1 13.37 L 61.1 7.47 L 58.1 7.47 L 58.1 4"/>
    </g>
  </g>
</svg>