<!-- Created with Inkscape (http://www.inkscape.org/) -->
<svg xmlns:inkscape="http://www.inkscape.org/namespaces/inkscape" xmlns:sodipodi="http://sodipodi.sourceforge.net/DTD/sodipodi-0.dtd" xmlns="http://www.w3.org/2000/svg" xmlns:svg="http://www.w3.org/2000/svg" width="660.7mm" height="476.5mm" viewBox="0 0 660.7 476.5" version="1.1" id="svg5" inkscape:version="1.1.2 (0a00cf5339, 2022-02-04)" sodipodi:docname="blank.svg">
  <sodipodi:namedview id="namedview7" pagecolor="#ffffff" bordercolor="#666666" borderopacity="1.0" inkscape:pageshadow="2" inkscape:pageopacity="0.0" inkscape:pagecheckerboard="0" inkscape:document-units="mm" showgrid="false" inkscape:zoom="0.64052329" inkscape:cx="397.33138" inkscape:cy="561.25984" inkscape:window-width="2086" inkscape:window-height="1376" inkscape:window-x="0" inkscape:window-y="0" inkscape:window-maximized="1" inkscape:current-layer="layer1"/>
  <defs id="defs2"/>
  <g inkscape:label="Layer 1" inkscape:groupmode="layer" id="layer1">
    <metadata text="createArgs=['--unit=mm', '--inside=1', '--length=180', '--width=240', '--depth=50', '--equal=0', '--tab=6', '--tabtype=0', '--tabsymmetry=0', '--dimpleheight=0', '--dimplelength=0', '--hairline=1', '--thickness=3', '--kerf=0.1', '--style=1', '--boxtype=1', '--div_l=2', '--div_w=3', '--keydiv=0', '--spacing=1']"/>
    <path id="piece_001" style="fill:none;stroke:#000000;stroke-width:0.0508" d="M 58.1 311.67 L 61.1 311.67 L 61.1 317.57 L 58.1 317.57 L 58.1 324.09 L 61.1 324.09 L 61.1 329.99 L 58.1 329.99 L 58.1 336.51 L 61.1 336.51 L 61.1 342.41 L 58.1 342.41 L 58.1 348.93 L 61.1 348.93 L 61.1 354.83 L 58.1 354.83 L 58.1 358.3 L 64.056 358.3 L 64.056 361.3 L 70.156 361.3 L 70.156 358.3 L 76.063 358.3 L 76.063 361.3 L 82.163 361.3 L 82.163 358.3 L 88.069 358.3 L 88.069 361.3 L 94.169 361.3 L 94.169 358.3 L 100.075 358.3 L 100.075 361.3 L 106.175 361.3 L 106.175 358.3 L 112.081 358.3 L 112.081 361.3 L 118.181 361.3 L 118.181 358.3 L 124.088 358.3 L 124.088 361.3 L 130.188 361.3 L 130.188 358.3 L 136.094 358.3 L 136.094 361.3 L 142.194 361.3 L 142.194 358.3 L 148.1 358.3 L 148.1 361.3 L 154.2 361.3 L 154.2 358.3 L 160.106 358.3 L 160.106 361.3 L 166.206 361.3 L 166.206 358.3 L 172.112 358.3 L 172.112 361.3 L 178.212 361.3 L 178.212 358.3 L 184.119 358.3 L 184.119 361.3 L 190.219 361.3 L 190.219 358.3 L 196.125 358.3 L 196.125 361.3 L 202.225 361.3 L 202.225 358.3 L 208.131 358.3 L 208.131 361.3 L 214.231 361.3 L 214.231 358.3 L 220.137 358.3 L 220.137 361.3 L 226.237 361.3 L 226.237 358.3 L 232.144 358.3 L 232.144 361.3 L 238.244 361.3 L 238.244 358.3 L 244.2 358.3 L 244.2 354.83 L 241.2 354.83 L 241.2 348.93 L 244.2 348.93 L 244.2 342.41 L 241.2 342.41 L 241.2 336.51 L 244.2 336.51 L 244.2 329.99 L 241.2 329.99 L 241.2 324.09 L 244.2 324.09 L 244.2 317.57 L 241.2 317.57 L 241.2 311.67 L 244.2 311.67 L 244.2 308.2 L 238.244 308.2 L 238.244 305.2 L 232.144 305.2 L 232.144 308.2 L 226.237 308.2 L 226.237 305.2 L 220.137 305.2 L 220.137 308.2 L 214.231 308.2 L 214.231 305.2 L 208.131 305.2 L 208.131 308.2 L 202.225 308.2 L 202.225 305.2 L 196.125 305.2 L 196.125 308.2 L 190.219 308.2 L 190.219 305.2 L 184.119 305.2 L 184.119 308.2 L 178.212 308.2 L 178.212 305.2 L 172.112 305.2 L 172.112 308.2 L 166.206 308.2 L 166.206 305.2 L 160.106 305.2 L 160.106 308.2 L 154.2 308.2 L 154.2 305.2 L 148.1 305.2 L 148.1 308.2 L 142.194 308.2 L 142.194 305.2 L 136.094 305.2 L 136.094 308.2 L 130.188 308.2 L 130.188 305.2 L 124.088 305.2 L 124.088 308.2 L 118.181 308.2 L 118.181 305.2 L 112.081 305.2 L 112.081 308.2 L 106.175 308.2 L 106.175 305.2 L 100.075 305.2 L 100.075 308.2 L 94.1688 308.2 L 94.1688 305.2 L 88.0688 305.2 L 88.0688 308.2 L 82.1625 308.2 L 82.1625 305.2 L 76.0625 305.2 L 76.0625 308.2 L 70.1562 308.2 L 70.1562 305.2 L 64.0563 305.2 L 64.0563 308.2 L 58.1 308.2 L 58.1 311.67 Z M 103.925 311.67 L 106.825 311.67 L 106.825 317.57 L 103.925 317.57 L 103.925 311.67 Z M 103.925 324.09 L 106.825 324.09 L 106.825 329.99 L 103.925 329.99 L 103.925 324.09 Z M 103.925 336.51 L 106.825 336.51 L 106.825 342.41 L 103.925 342.41 L 103.925 336.51 Z M 103.925 348.93 L 106.825 348.93 L 106.825 354.83 L 103.925 354.83 L 103.925 348.93 Z M 149.7 311.67 L 152.6 311.67 L 152.6 317.57 L 149.7 317.57 L 149.7 311.67 Z M 149.7 324.09 L 152.6 324.09 L 152.6 329.99 L 149.7 329.99 L 149.7 324.09 Z M 149.7 336.51 L 152.6 336.51 L 152.6 342.41 L 149.7 342.41 L 149.7 336.51 Z M 149.7 348.93 L 152.6 348.93 L 152.6 354.83 L 149.7 354.83 L 149.7 348.93 Z M 195.475 311.67 L 198.375 311.67 L 198.375 317.57 L 195.475 317.57 L 195.475 311.67 Z M 195.475 324.09 L 198.375 324.09 L 198.375 329.99 L 195.475 329.99 L 195.475 324.09 Z M 195.475 336.51 L 198.375 336.51 L 198.375 342.41 L 195.475 342.41 L 195.475 336.51 Z M 195.475 348.93 L 198.375 348.93 L 198.375 354.83 L 195.475 354.83 L 195.475 348.93 Z"/>
    <path id="xdivider_001" style="fill:none;stroke:#000000;stroke-width:0.0508" d="M 58.1 368.77 L 61.1 368.77 L 61.1 374.67 L 58.1 374.67 L 58.1 381.19 L 61.1 381.19 L 61.1 387.09 L 58.1 387.09 L 58.1 393.61 L 61.1 393.61 L 61.1 399.51 L 58.1 399.51 L 58.1 406.03 L 61.1 406.03 L 61.1 411.93 L 58.1 411.93 L 58.1 415.4 L 64.056 415.4 L 64.056 418.4 L 70.156 418.4 L 70.156 415.4 L 76.063 415.4 L 76.063 418.4 L 82.163 418.4 L 82.163 415.4 L 88.069 415.4 L 88.069 418.4 L 94.169 418.4 L 94.169 415.4 L 100.075 415.4 L 100.075 418.4 L 106.175 418.4 L 106.175 415.4 L 112.081 415.4 L 112.081 418.4 L 118.181 418.4 L 118.181 415.4 L 124.088 415.4 L 124.088 418.4 L 130.188 418.4 L 130.188 415.4 L 136.094 415.4 L 136.094 418.4 L 142.194 418.4 L 142.194 415.4 L 148.1 415.4 L 148.1 418.4 L 154.2 418.4 L 154.2 415.4 L 160.106 415.4 L 160.106 418.4 L 166.206 418.4 L 166.206 415.4 L 172.112 415.4 L 172.112 418.4 L 178.212 418.4 L 178.212 415.4 L 184.119 415.4 L 184.119 418.4 L 190.219 418.4 L 190.219 415.4 L 196.125 415.4 L 196.125 418.4 L 202.225 418.4 L 202.225 415.4 L 208.131 415.4 L 208.131 418.4 L 214.231 418.4 L 214.231 415.4 L 220.137 415.4 L 220.137 418.4 L 226.237 418.4 L 226.237 415.4 L 232.144 415.4 L 232.144 418.4 L 238.244 418.4 L 238.244 415.4 L 244.2 415.4 L 244.2 411.93 L 241.2 411.93 L 241.2 406.03 L 244.2 406.03 L 244.2 399.51 L 241.2 399.51 L 241.2 393.61 L 244.2 393.61 L 244.2 387.09 L 241.2 387.09 L 241.2 381.19 L 244.2 381.19 L 244.2 374.67 L 241.2 374.67 L 241.2 368.77 L 244.2 368.77 L 244.2 365.3 L 238.244 365.3 L 238.244 362.3 L 232.144 362.3 L 232.144 365.3 L 226.237 365.3 L 226.237 362.3 L 220.137 362.3 L 220.137 365.3 L 214.231 365.3 L 214.231 362.3 L 208.131 362.3 L 208.131 365.3 L 202.225 365.3 L 202.225 362.3 L 198.375 362.3 L 198.375 390.3 L 195.475 390.3 L 195.475 365.3 L 190.219 365.3 L 190.219 362.3 L 184.119 362.3 L 184.119 365.3 L 178.212 365.3 L 178.212 362.3 L 172.112 362.3 L 172.112 365.3 L 166.206 365.3 L 166.206 362.3 L 160.106 362.3 L 160.106 365.3 L 154.2 365.3 L 154.2 362.3 L 152.6 362.3 L 152.6 390.3 L 149.7 390.3 L 149.7 362.3 L 148.1 362.3 L 148.1 365.3 L 142.194 365.3 L 142.194 362.3 L 136.094 362.3 L 136.094 365.3 L 130.188 365.3 L 130.188 362.3 L 124.088 362.3 L 124.088 365.3 L 118.181 365.3 L 118.181 362.3 L 112.081 362.3 L 112.081 365.3 L 106.825 365.3 L 106.825 390.3 L 103.925 390.3 L 103.925 362.3 L 100.075 362.3 L 100.075 365.3 L 94.1688 365.3 L 94.1688 362.3 L 88.0688 362.3 L 88.0688 365.3 L 82.1625 365.3 L 82.1625 362.3 L 76.0625 362.3 L 76.0625 365.3 L 70.1562 365.3 L 70.1562 362.3 L 64.0563 362.3 L 64.0563 365.3 L 58.1 365.3 L 58.1 368.77 Z"/>
    <path id="xdivider_002" style="fill:none;stroke:#000000;stroke-width:0.0508" d="M 58.1 425.87 L 61.1 425.87 L 61.1 431.77 L 58.1 431.77 L 58.1 438.29 L 61.1 438.29 L 61.1 444.19 L 58.1 444.19 L 58.1 450.71 L 61.1 450.71 L 61.1 456.61 L 58.1 456.61 L 58.1 463.13 L 61.1 463.13 L 61.1 469.03 L 58.1 469.03 L 58.1 472.5 L 64.056 472.5 L 64.056 475.5 L 70.156 475.5 L 70.156 472.5 L 76.063 472.5 L 76.063 475.5 L 82.163 475.5 L 82.163 472.5 L 88.069 472.5 L 88.069 475.5 L 94.169 475.5 L 94.169 472.5 L 100.075 472.5 L 100.075 475.5 L 106.175 475.5 L 106.175 472.5 L 112.081 472.5 L 112.081 475.5 L 118.181 475.5 L 118.181 472.5 L 124.088 472.5 L 124.088 475.5 L 130.188 475.5 L 130.188 472.5 L 136.094 472.5 L 136.094 475.5 L 142.194 475.5 L 142.194 472.5 L 148.1 472.5 L 148.1 475.5 L 154.2 475.5 L 154.2 472.5 L 160.106 472.5 L 160.106 475.5 L 166.206 475.5 L 166.206 472.5 L 172.112 472.5 L 172.112 475.5 L 178.212 475.5 L 178.212 472.5 L 184.119 472.5 L 184.119 475.5 L 190.219 475.5 L 190.219 472.5 L 196.125 472.5 L 196.125 475.5 L 202.225 475.5 L 202.225 472.5 L 208.131 472.5 L 208.131 475.5 L 214.231 475.5 L 214.231 472.5 L 220.137 472.5 L 220.137 475.5 L 226.237 475.5 L 226.237 472.5 L 232.144 472.5 L 232.144 475.5 L 238.244 475.5 L 238.244 472.5 L 244.2 472.5 L 244.2 469.03 L 241.2 469.03 L 241.2 463.13 L 244.2 463.13 L 244.2 456.61 L 241.2 456.61 L 241.2 450.71 L 244.2 450.71 L 244.2 444.19 L 241.2 444.19 L 241.2 438.29 L 244.2 438.29 L 244.2 431.77 L 241.2 431.77 L 241.2 425.87 L 244.2 425.87 L 244.2 422.4 L 238.244 422.4 L 238.244 419.4 L 232.144 419.4 L 232.144 422.4 L 226.237 422.4 L 226.237 419.4 L 220.137 419.4 L 220.137 422.4 L 214.231 422.4 L 214.231 419.4 L 208.131 419.4 L 208.131 422.4 L 202.225 422.4 L 202.225 419.4 L 198.375 419.4 L 198.375 447.4 L 195.475 447.4 L 195.475 422.4 L 190.219 422.4 L 190.219 419.4 L 184.119 419.4 L 184.119 422.4 L 178.212 422.4 L 178.212 419.4 L 172.112 419.4 L 172.112 422.4 L 166.206 422.4 L 166.206 419.4 L 160.106 419.4 L 160.106 422.4 L 154.2 422.4 L 154.2 419.4 L 152.6 419.4 L 152.6 447.4 L 149.7 447.4 L 149.7 419.4 L 148.1 419.4 L 148.1 422.4 L 142.194 422.4 L 142.194 419.4 L 136.094 419.4 L 136.094 422.4 L 130.188 422.4 L 130.188 419.4 L 124.088 419.4 L 124.088 422.4 L 118.181 422.4 L 118.181 419.4 L 112.081 419.4 L 112.081 422.4 L 106.825 422.4 L 106.825 447.4 L 103.925 447.4 L 103.925 419.4 L 100.075 419.4 L 100.075 422.4 L 94.1688 422.4 L 94.1688 419.4 L 88.0688 419.4 L 88.0688 422.4 L 82.1625 422.4 L 82.1625 419.4 L 76.0625 419.4 L 76.0625 422.4 L 70.1562 422.4 L 70.1562 419.4 L 64.0563 419.4 L 64.0563 422.4 L 58.1 422.4 L 58.1 425.87 Z"/>
    <path id="piece_002" style="fill:none;stroke:#000000;stroke-width:0.0508" d="M 4 64.055 L 1 64.055 L 1 70.155 L 4 70.155 L 4 76.06 L 1 76.06 L 1 82.16 L 4 82.16 L 4 88.064 L 1 88.064 L 1 94.164 L 4 94.164 L 4 100.069 L 1 100.069 L 1 106.169 L 4 106.169 L 4 112.074 L 1 112.074 L 1 118.174 L 4 118.174 L 4 124.079 L 1 124.079 L 1 130.179 L 4 130.179 L 4 136.083 L 1 136.083 L 1 142.183 L 4 142.183 L 4 148.088 L 1 148.088 L 1 154.188 L 4 154.188 L 4 160.093 L 1 160.093 L 1 166.193 L 4 166.193 L 4 172.098 L 1 172.098 L 1 178.198 L 4 178.198 L 4 184.102 L 1 184.102 L 1 190.202 L 4 190.202 L 4 196.107 L 1 196.107 L 1 202.207 L 4 202.207 L 4 208.112 L 1 208.112 L 1 214.212 L 4 214.212 L 4 220.117 L 1 220.117 L 1 226.217 L 4 226.217 L 4 232.121 L 1 232.121 L 1 238.221 L 4 238.221 L 4 244.126 L 1 244.126 L 1 250.226 L 4 250.226 L 4 256.131 L 1 256.131 L 1 262.231 L 4 262.231 L 4 268.136 L 1 268.136 L 1 274.236 L 4 274.236 L 4 280.14 L 1 280.14 L 1 286.24 L 4 286.24 L 4 292.145 L 1 292.145 L 1 298.245 L 4 298.245 L 4 301.2 L 7.37 301.2 L 7.37 304.2 L 13.47 304.2 L 13.47 301.2 L 19.79 301.2 L 19.79 304.2 L 25.89 304.2 L 25.89 301.2 L 32.21 301.2 L 32.21 304.2 L 38.31 304.2 L 38.31 301.2 L 44.63 301.2 L 44.63 304.2 L 50.73 304.2 L 50.73 301.2 L 54.1 301.2 L 54.1 298.245 L 57.1 298.245 L 57.1 292.145 L 54.1 292.145 L 54.1 286.24 L 57.1 286.24 L 57.1 280.14 L 54.1 280.14 L 54.1 274.236 L 57.1 274.236 L 57.1 268.136 L 54.1 268.136 L 54.1 262.231 L 57.1 262.231 L 57.1 256.131 L 54.1 256.131 L 54.1 250.226 L 57.1 250.226 L 57.1 244.126 L 54.1 244.126 L 54.1 238.221 L 57.1 238.221 L 57.1 232.121 L 54.1 232.121 L 54.1 226.217 L 57.1 226.217 L 57.1 220.117 L 54.1 220.117 L 54.1 214.212 L 57.1 214.212 L 57.1 208.112 L 54.1 208.112 L 54.1 202.207 L 57.1 202.207 L 57.1 196.107 L 54.1 196.107 L 54.1 190.202 L 57.1 190.202 L 57.1 184.102 L 54.1 184.102 L 54.1 178.198 L 57.1 178.198 L 57.1 172.098 L 54.1 172.098 L 54.1 166.193 L 57.1 166.193 L 57.1 160.093 L 54.1 160.093 L 54.1 154.188 L 57.1 154.188 L 57.1 148.088 L 54.1 148.088 L 54.1 142.183 L 57.1 142.183 L 57.1 136.083 L 54.1 136.083 L 54.1 130.179 L 57.1 130.179 L 57.1 124.079 L 54.1 124.079 L 54.1 118.174 L 57.1 118.174 L 57.1 112.074 L 54.1 112.074 L 54.1 106.169 L 57.1 106.169 L 57.1 100.069 L 54.1 100.069 L 54.1 94.1643 L 57.1 94.1643 L 57.1 88.0643 L 54.1 88.0643 L 54.1 82.1595 L 57.1 82.1595 L 57.1 76.0595 L 54.1 76.0595 L 54.1 70.1548 L 57.1 70.1548 L 57.1 64.0548 L 54.1 64.0548 L 54.1 61.1 L 50.73 61.1 L 50.73 58.1 L 44.63 58.1 L 44.63 61.1 L 38.31 61.1 L 38.31 58.1 L 32.21 58.1 L 32.21 61.1 L 25.89 61.1 L 25.89 58.1 L 19.79 58.1 L 19.79 61.1 L 13.47 61.1 L 13.47 58.1 L 7.37 58.1 L 7.37 61.1 L 4 61.1 L 4 64.055 Z M 13.47 139.083 L 19.79 139.083 L 19.79 141.983 L 13.47 141.983 L 13.47 139.083 Z M 13.47 220.117 L 19.79 220.117 L 19.79 223.017 L 13.47 223.017 L 13.47 220.117 Z M 25.89 139.083 L 32.21 139.083 L 32.21 141.983 L 25.89 141.983 L 25.89 139.083 Z M 25.89 220.117 L 32.21 220.117 L 32.21 223.017 L 25.89 223.017 L 25.89 220.117 Z M 38.31 139.083 L 44.63 139.083 L 44.63 141.983 L 38.31 141.983 L 38.31 139.083 Z M 38.31 220.117 L 44.63 220.117 L 44.63 223.017 L 38.31 223.017 L 38.31 220.117 Z M 4 139.083 L 7.37 139.083 L 7.37 141.983 L 4 141.983 L 4 139.083 Z M 4 220.117 L 7.37 220.117 L 7.37 223.017 L 4 223.017 L 4 220.117 Z M 50.73 139.083 L 54.05 139.083 L 54.05 141.983 L 50.73 141.983 L 50.73 139.083 Z M 50.73 220.117 L 54.05 220.117 L 54.05 223.017 L 50.73 223.017 L 50.73 220.117 Z"/>
    <path id="ydivider_001" style="fill:none;stroke:#000000;stroke-width:0.0508" d="M 492.4 64.055 L 489.4 64.055 L 489.4 70.155 L 492.4 70.155 L 492.4 76.06 L 489.4 76.06 L 489.4 82.16 L 492.4 82.16 L 492.4 88.064 L 489.4 88.064 L 489.4 94.164 L 492.4 94.164 L 492.4 100.069 L 489.4 100.069 L 489.4 106.169 L 492.4 106.169 L 492.4 112.074 L 489.4 112.074 L 489.4 118.174 L 492.4 118.174 L 492.4 124.079 L 489.4 124.079 L 489.4 130.179 L 492.4 130.179 L 492.4 136.083 L 489.4 136.083 L 489.4 139.183 L 517.5 139.183 L 517.5 142.083 L 489.4 142.083 L 489.4 142.183 L 492.4 142.183 L 492.4 148.088 L 489.4 148.088 L 489.4 154.188 L 492.4 154.188 L 492.4 160.093 L 489.4 160.093 L 489.4 166.193 L 492.4 166.193 L 492.4 172.098 L 489.4 172.098 L 489.4 178.198 L 492.4 178.198 L 492.4 184.102 L 489.4 184.102 L 489.4 190.202 L 492.4 190.202 L 492.4 196.107 L 489.4 196.107 L 489.4 202.207 L 492.4 202.207 L 492.4 208.112 L 489.4 208.112 L 489.4 214.212 L 492.4 214.212 L 492.4 220.117 L 489.4 220.117 L 489.4 220.217 L 517.5 220.217 L 517.5 223.117 L 489.4 223.117 L 489.4 226.217 L 492.4 226.217 L 492.4 232.121 L 489.4 232.121 L 489.4 238.221 L 492.4 238.221 L 492.4 244.126 L 489.4 244.126 L 489.4 250.226 L 492.4 250.226 L 492.4 256.131 L 489.4 256.131 L 489.4 262.231 L 492.4 262.231 L 492.4 268.136 L 489.4 268.136 L 489.4 274.236 L 492.4 274.236 L 492.4 280.14 L 489.4 280.14 L 489.4 286.24 L 492.4 286.24 L 492.4 292.145 L 489.4 292.145 L 489.4 298.245 L 492.4 298.245 L 492.4 301.2 L 495.77 301.2 L 495.77 304.2 L 501.87 304.2 L 501.87 301.2 L 508.19 301.2 L 508.19 304.2 L 514.29 304.2 L 514.29 301.2 L 520.61 301.2 L 520.61 304.2 L 526.71 304.2 L 526.71 301.2 L 533.03 301.2 L 533.03 304.2 L 539.13 304.2 L 539.13 301.2 L 542.5 301.2 L 542.5 298.245 L 545.5 298.245 L 545.5 292.145 L 542.5 292.145 L 542.5 286.24 L 545.5 286.24 L 545.5 280.14 L 542.5 280.14 L 542.5 274.236 L 545.5 274.236 L 545.5 268.136 L 542.5 268.136 L 542.5 262.231 L 545.5 262.231 L 545.5 256.131 L 542.5 256.131 L 542.5 250.226 L 545.5 250.226 L 545.5 244.126 L 542.5 244.126 L 542.5 238.221 L 545.5 238.221 L 545.5 232.121 L 542.5 232.121 L 542.5 226.217 L 545.5 226.217 L 545.5 220.117 L 542.5 220.117 L 542.5 214.212 L 545.5 214.212 L 545.5 208.112 L 542.5 208.112 L 542.5 202.207 L 545.5 202.207 L 545.5 196.107 L 542.5 196.107 L 542.5 190.202 L 545.5 190.202 L 545.5 184.102 L 542.5 184.102 L 542.5 178.198 L 545.5 178.198 L 545.5 172.098 L 542.5 172.098 L 542.5 166.193 L 545.5 166.193 L 545.5 160.093 L 542.5 160.093 L 542.5 154.188 L 545.5 154.188 L 545.5 148.088 L 542.5 148.088 L 542.5 142.183 L 545.5 142.183 L 545.5 136.083 L 542.5 136.083 L 542.5 130.179 L 545.5 130.179 L 545.5 124.079 L 542.5 124.079 L 542.5 118.174 L 545.5 118.174 L 545.5 112.074 L 542.5 112.074 L 542.5 106.169 L 545.5 106.169 L 545.5 100.069 L 542.5 100.069 L 542.5 94.1643 L 545.5 94.1643 L 545.5 88.0643 L 542.5 88.0643 L 542.5 82.1595 L 545.5 82.1595 L 545.5 76.0595 L 542.5 76.0595 L 542.5 70.1548 L 545.5 70.1548 L 545.5 64.0548 L 542.5 64.0548 L 542.5 61.1 L 539.13 61.1 L 539.13 58.1 L 533.03 58.1 L 533.03 61.1 L 526.71 61.1 L 526.71 58.1 L 520.61 58.1 L 520.61 61.1 L 514.29 61.1 L 514.29 58.1 L 508.19 58.1 L 508.19 61.1 L 501.87 61.1 L 501.87 58.1 L 495.77 58.1 L 495.77 61.1 L 492.4 61.1 L 492.4 64.055 Z"/>
    <path id="ydivider_002" style="fill:none;stroke:#000000;stroke-width:0.0508" d="M 549.5 64.055 L 546.5 64.055 L 546.5 70.155 L 549.5 70.155 L 549.5 76.06 L 546.5 76.06 L 546.5 82.16 L 549.5 82.16 L 549.5 88.064 L 546.5 88.064 L 546.5 94.164 L 549.5 94.164 L 549.5 100.069 L 546.5 100.069 L 546.5 106.169 L 549.5 106.169 L 549.5 112.074 L 546.5 112.074 L 546.5 118.174 L 549.5 118.174 L 549.5 124.079 L 546.5 124.079 L 546.5 130.179 L 549.5 130.179 L 549.5 136.083 L 546.5 136.083 L 546.5 139.183 L 574.6 139.183 L 574.6 142.083 L 546.5 142.083 L 546.5 142.183 L 549.5 142.183 L 549.5 148.088 L 546.5 148.088 L 546.5 154.188 L 549.5 154.188 L 549.5 160.093 L 546.5 160.093 L 546.5 166.193 L 549.5 166.193 L 549.5 172.098 L 546.5 172.098 L 546.5 178.198 L 549.5 178.198 L 549.5 184.102 L 546.5 184.102 L 546.5 190.202 L 549.5 190.202 L 549.5 196.107 L 546.5 196.107 L 546.5 202.207 L 549.5 202.207 L 549.5 208.112 L 546.5 208.112 L 546.5 214.212 L 549.5 214.212 L 549.5 220.117 L 546.5 220.117 L 546.5 220.217 L 574.6 220.217 L 574.6 223.117 L 546.5 223.117 L 546.5 226.217 L 549.5 226.217 L 549.5 232.121 L 546.5 232.121 L 546.5 238.221 L 549.5 238.221 L 549.5 244.126 L 546.5 244.126 L 546.5 250.226 L 549.5 250.226 L 549.5 256.131 L 546.5 256.131 L 546.5 262.231 L 549.5 262.231 L 549.5 268.136 L 546.5 268.136 L 546.5 274.236 L 549.5 274.236 L 549.5 280.14 L 546.5 280.14 L 546.5 286.24 L 549.5 286.24 L 549.5 292.145 L 546.5 292.145 L 546.5 298.245 L 549.5 298.245 L 549.5 301.2 L 552.87 301.2 L 552.87 304.2 L 558.97 304.2 L 558.97 301.2 L 565.29 301.2 L 565.29 304.2 L 571.39 304.2 L 571.39 301.2 L 577.71 301.2 L 577.71 304.2 L 583.81 304.2 L 583.81 301.2 L 590.13 301.2 L 590.13 304.2 L 596.23 304.2 L 596.23 301.2 L 599.6 301.2 L 599.6 298.245 L 602.6 298.245 L 602.6 292.145 L 599.6 292.145 L 599.6 286.24 L 602.6 286.24 L 602.6 280.14 L 599.6 280.14 L 599.6 274.236 L 602.6 274.236 L 602.6 268.136 L 599.6 268.136 L 599.6 262.231 L 602.6 262.231 L 602.6 256.131 L 599.6 256.131 L 599.6 250.226 L 602.6 250.226 L 602.6 244.126 L 599.6 244.126 L 599.6 238.221 L 602.6 238.221 L 602.6 232.121 L 599.6 232.121 L 599.6 226.217 L 602.6 226.217 L 602.6 220.117 L 599.6 220.117 L 599.6 214.212 L 602.6 214.212 L 602.6 208.112 L 599.6 208.112 L 599.6 202.207 L 602.6 202.207 L 602.6 196.107 L 599.6 196.107 L 599.6 190.202 L 602.6 190.202 L 602.6 184.102 L 599.6 184.102 L 599.6 178.198 L 602.6 178.198 L 602.6 172.098 L 599.6 172.098 L 599.6 166.193 L 602.6 166.193 L 602.6 160.093 L 599.6 160.093 L 599.6 154.188 L 602.6 154.188 L 602.6 148.088 L 599.6 148.088 L 599.6 142.183 L 602.6 142.183 L 602.6 136.083 L 599.6 136.083 L 599.6 130.179 L 602.6 130.179 L 602.6 124.079 L 599.6 124.079 L 599.6 118.174 L 602.6 118.174 L 602.6 112.074 L 599.6 112.074 L 599.6 106.169 L 602.6 106.169 L 602.6 100.069 L 599.6 100.069 L 599.6 94.1643 L 602.6 94.1643 L 602.6 88.0643 L 599.6 88.0643 L 599.6 82.1595 L 602.6 82.1595 L 602.6 76.0595 L 599.6 76.0595 L 599.6 70.1548 L 602.6 70.1548 L 602.6 64.0548 L 599.6 64.0548 L 599.6 61.1 L 596.23 61.1 L 596.23 58.1 L 590.13 58.1 L 590.13 61.1 L 583.81 61.1 L 583.81 58.1 L 577.71 58.1 L 577.71 61.1 L 571.39 61.1 L 571.39 58.1 L 565.29 58.1 L 565.29 61.1 L 558.97 61.1 L 558.97 58.1 L 552.87 58.1 L 552.87 61.1 L 549.5 61.1 L 549.5 64.055 Z"/>
    <path id="ydivider_003" style="fill:none;stroke:#000000;stroke-width:0.0508" d="M 606.6 64.055 L 603.6 64.055 L 603.6 70.155 L 606.6 70.155 L 606.6 76.06 L 603.6 76.06 L 603.6 82.16 L 606.6 82.16 L 606.6 88.064 L 603.6 88.064 L 603.6 94.164 L 606.6 94.164 L 606.6 100.069 L 603.6 100.069 L 603.6 106.169 L 606.6 106.169 L 606.6 112.074 L 603.6 112.074 L 603.6 118.174 L 606.6 118.174 L 606.6 124.079 L 603.6 124.079 L 603.6 130.179 L 606.6 130.179 L 606.6 136.083 L 603.6 136.083 L 603.6 139.183 L 631.7 139.183 L 631.7 142.083 L 603.6 142.083 L 603.6 142.183 L 606.6 142.183 L 606.6 148.088 L 603.6 148.088 L 603.6 154.188 L 606.6 154.188 L 606.6 160.093 L 603.6 160.093 L 603.6 166.193 L 606.6 166.193 L 606.6 172.098 L 603.6 172.098 L 603.6 178.198 L 606.6 178.198 L 606.6 184.102 L 603.6 184.102 L 603.6 190.202 L 606.6 190.202 L 606.6 196.107 L 603.6 196.107 L 603.6 202.207 L 606.6 202.207 L 606.6 208.112 L 603.6 208.112 L 603.6 214.212 L 606.6 214.212 L 606.6 220.117 L 603.6 220.117 L 603.6 220.217 L 631.7 220.217 L 631.7 223.117 L 603.6 223.117 L 603.6 226.217 L 606.6 226.217 L 606.6 232.121 L 603.6 232.121 L 603.6 238.221 L 606.6 238.221 L 606.6 244.126 L 603.6 244.126 L 603.6 250.226 L 606.6 250.226 L 606.6 256.131 L 603.6 256.131 L 603.6 262.231 L 606.6 262.231 L 606.6 268.136 L 603.6 268.136 L 603.6 274.236 L 606.6 274.236 L 606.6 280.14 L 603.6 280.14 L 603.6 286.24 L 606.6 286.24 L 606.6 292.145 L 603.6 292.145 L 603.6 298.245 L 606.6 298.245 L 606.6 301.2 L 609.97 301.2 L 609.97 304.2 L 616.07 304.2 L 616.07 301.2 L 622.39 301.2 L 622.39 304.2 L 628.49 304.2 L 628.49 301.2 L 634.81 301.2 L 634.81 304.2 L 640.91 304.2 L 640.91 301.2 L 647.23 301.2 L 647.23 304.2 L 653.33 304.2 L 653.33 301.2 L 656.7 301.2 L 656.7 298.245 L 659.7 298.245 L 659.7 292.145 L 656.7 292.145 L 656.7 286.24 L 659.7 286.24 L 659.7 280.14 L 656.7 280.14 L 656.7 274.236 L 659.7 274.236 L 659.7 268.136 L 656.7 268.136 L 656.7 262.231 L 659.7 262.231 L 659.7 256.131 L 656.7 256.131 L 656.7 250.226 L 659.7 250.226 L 659.7 244.126 L 656.7 244.126 L 656.7 238.221 L 659.7 238.221 L 659.7 232.121 L 656.7 232.121 L 656.7 226.217 L 659.7 226.217 L 659.7 220.117 L 656.7 220.117 L 656.7 214.212 L 659.7 214.212 L 659.7 208.112 L 656.7 208.112 L 656.7 202.207 L 659.7 202.207 L 659.7 196.107 L 656.7 196.107 L 656.7 190.202 L 659.7 190.202 L 659.7 184.102 L 656.7 184.102 L 656.7 178.198 L 659.7 178.198 L 659.7 172.098 L 656.7 172.098 L 656.7 166.193 L 659.7 166.193 L 659.7 160.093 L 656.7 160.093 L 656.7 154.188 L 659.7 154.188 L 659.7 148.088 L 656.7 148.088 L 656.7 142.183 L 659.7 142.183 L 659.7 136.083 L 656.7 136.083 L 656.7 130.179 L 659.7 130.179 L 659.7 124.079 L 656.7 124.079 L 656.7 118.174 L 659.7 118.174 L 659.7 112.074 L 656.7 112.074 L 656.7 106.169 L 659.7 106.169 L 659.7 100.069 L 656.7 100.069 L 656.7 94.1643 L 659.7 94.1643 L 659.7 88.0643 L 656.7 88.0643 L 656.7 82.1595 L 659.7 82.1595 L 659.7 76.0595 L 656.7 76.0595 L 656.7 70.1548 L 659.7 70.1548 L 659.7 64.0548 L 656.7 64.0548 L 656.7 61.1 L 653.33 61.1 L 653.33 58.1 L 647.23 58.1 L 647.23 61.1 L 640.91 61.1 L 640.91 58.1 L 634.81 58.1 L 634.81 61.1 L 628.49 61.1 L 628.49 58.1 L 622.39 58.1 L 622.39 61.1 L 616.07 61.1 L 616.07 58.1 L 609.97 58.1 L 609.97 61.1 L 606.6 61.1 L 606.6 64.055 Z"/>
    <path id="piece_003" style="fill:none;stroke:#000000;stroke-width:0.0508" d="M 58.1 64.155 L 61.1 64.155 L 61.1 70.055 L 58.1 70.055 L 58.1 76.16 L 61.1 76.16 L 61.1 82.06 L 58.1 82.06 L 58.1 88.164 L 61.1 88.164 L 61.1 94.064 L 58.1 94.064 L 58.1 100.169 L 61.1 100.169 L 61.1 106.069 L 58.1 106.069 L 58.1 112.174 L 61.1 112.174 L 61.1 118.074 L 58.1 118.074 L 58.1 124.179 L 61.1 124.179 L 61.1 130.079 L 58.1 130.079 L 58.1 136.183 L 61.1 136.183 L 61.1 142.083 L 58.1 142.083 L 58.1 148.188 L 61.1 148.188 L 61.1 154.088 L 58.1 154.088 L 58.1 160.193 L 61.1 160.193 L 61.1 166.093 L 58.1 166.093 L 58.1 172.198 L 61.1 172.198 L 61.1 178.098 L 58.1 178.098 L 58.1 184.202 L 61.1 184.202 L 61.1 190.102 L 58.1 190.102 L 58.1 196.207 L 61.1 196.207 L 61.1 202.107 L 58.1 202.107 L 58.1 208.212 L 61.1 208.212 L 61.1 214.112 L 58.1 214.112 L 58.1 220.217 L 61.1 220.217 L 61.1 226.117 L 58.1 226.117 L 58.1 232.221 L 61.1 232.221 L 61.1 238.121 L 58.1 238.121 L 58.1 244.226 L 61.1 244.226 L 61.1 250.126 L 58.1 250.126 L 58.1 256.231 L 61.1 256.231 L 61.1 262.131 L 58.1 262.131 L 58.1 268.236 L 61.1 268.236 L 61.1 274.136 L 58.1 274.136 L 58.1 280.24 L 61.1 280.24 L 61.1 286.14 L 58.1 286.14 L 58.1 292.245 L 61.1 292.245 L 61.1 298.145 L 58.1 298.145 L 58.1 304.2 L 64.156 304.2 L 64.156 301.2 L 70.056 301.2 L 70.056 304.2 L 76.162 304.2 L 76.162 301.2 L 82.062 301.2 L 82.062 304.2 L 88.169 304.2 L 88.169 301.2 L 94.069 301.2 L 94.069 304.2 L 100.175 304.2 L 100.175 301.2 L 106.075 301.2 L 106.075 304.2 L 112.181 304.2 L 112.181 301.2 L 118.081 301.2 L 118.081 304.2 L 124.187 304.2 L 124.187 301.2 L 130.087 301.2 L 130.087 304.2 L 136.194 304.2 L 136.194 301.2 L 142.094 301.2 L 142.094 304.2 L 148.2 304.2 L 148.2 301.2 L 154.1 301.2 L 154.1 304.2 L 160.206 304.2 L 160.206 301.2 L 166.106 301.2 L 166.106 304.2 L 172.212 304.2 L 172.212 301.2 L 178.112 301.2 L 178.112 304.2 L 184.219 304.2 L 184.219 301.2 L 190.119 301.2 L 190.119 304.2 L 196.225 304.2 L 196.225 301.2 L 202.125 301.2 L 202.125 304.2 L 208.231 304.2 L 208.231 301.2 L 214.131 301.2 L 214.131 304.2 L 220.237 304.2 L 220.237 301.2 L 226.137 301.2 L 226.137 304.2 L 232.244 304.2 L 232.244 301.2 L 238.144 301.2 L 238.144 304.2 L 244.2 304.2 L 244.2 298.145 L 241.2 298.145 L 241.2 292.245 L 244.2 292.245 L 244.2 286.14 L 241.2 286.14 L 241.2 280.24 L 244.2 280.24 L 244.2 274.136 L 241.2 274.136 L 241.2 268.236 L 244.2 268.236 L 244.2 262.131 L 241.2 262.131 L 241.2 256.231 L 244.2 256.231 L 244.2 250.126 L 241.2 250.126 L 241.2 244.226 L 244.2 244.226 L 244.2 238.121 L 241.2 238.121 L 241.2 232.221 L 244.2 232.221 L 244.2 226.117 L 241.2 226.117 L 241.2 220.217 L 244.2 220.217 L 244.2 214.112 L 241.2 214.112 L 241.2 208.212 L 244.2 208.212 L 244.2 202.107 L 241.2 202.107 L 241.2 196.207 L 244.2 196.207 L 244.2 190.102 L 241.2 190.102 L 241.2 184.202 L 244.2 184.202 L 244.2 178.098 L 241.2 178.098 L 241.2 172.198 L 244.2 172.198 L 244.2 166.093 L 241.2 166.093 L 241.2 160.193 L 244.2 160.193 L 244.2 154.088 L 241.2 154.088 L 241.2 148.188 L 244.2 148.188 L 244.2 142.083 L 241.2 142.083 L 241.2 136.183 L 244.2 136.183 L 244.2 130.079 L 241.2 130.079 L 241.2 124.179 L 244.2 124.179 L 244.2 118.074 L 241.2 118.074 L 241.2 112.174 L 244.2 112.174 L 244.2 106.069 L 241.2 106.069 L 241.2 100.169 L 244.2 100.169 L 244.2 94.0643 L 241.2 94.0643 L 241.2 88.1643 L 244.2 88.1643 L 244.2 82.0595 L 241.2 82.0595 L 241.2 76.1595 L 244.2 76.1595 L 244.2 70.0548 L 241.2 70.0548 L 241.2 64.1548 L 244.2 64.1548 L 244.2 58.1 L 238.144 58.1 L 238.144 61.1 L 232.244 61.1 L 232.244 58.1 L 226.138 58.1 L 226.138 61.1 L 220.238 61.1 L 220.238 58.1 L 214.131 58.1 L 214.131 61.1 L 208.231 61.1 L 208.231 58.1 L 202.125 58.1 L 202.125 61.1 L 196.225 61.1 L 196.225 58.1 L 190.119 58.1 L 190.119 61.1 L 184.219 61.1 L 184.219 58.1 L 178.113 58.1 L 178.113 61.1 L 172.213 61.1 L 172.213 58.1 L 166.106 58.1 L 166.106 61.1 L 160.206 61.1 L 160.206 58.1 L 154.1 58.1 L 154.1 61.1 L 148.2 61.1 L 148.2 58.1 L 142.094 58.1 L 142.094 61.1 L 136.194 61.1 L 136.194 58.1 L 130.088 58.1 L 130.088 61.1 L 124.188 61.1 L 124.188 58.1 L 118.081 58.1 L 118.081 61.1 L 112.181 61.1 L 112.181 58.1 L 106.075 58.1 L 106.075 61.1 L 100.175 61.1 L 100.175 58.1 L 94.0688 58.1 L 94.0688 61.1 L 88.1687 61.1 L 88.1687 58.1 L 82.0625 58.1 L 82.0625 61.1 L 76.1625 61.1 L 76.1625 58.1 L 70.0563 58.1 L 70.0563 61.1 L 64.1562 61.1 L 64.1562 58.1 L 58.1 58.1 L 58.1 64.155 Z M 100.175 139.183 L 103.925 139.183 L 103.925 136.183 L 106.825 136.183 L 106.825 142.083 L 106.075 142.083 L 103.925 142.083 L 100.175 142.083 L 100.175 139.183 Z M 100.175 220.217 L 103.925 220.217 L 106.075 220.217 L 106.825 220.217 L 106.825 226.117 L 103.925 226.117 L 103.925 223.117 L 100.175 223.117 L 100.175 220.217 Z M 103.925 100.169 L 106.825 100.169 L 106.825 106.069 L 103.925 106.069 L 103.925 100.169 Z M 103.925 112.174 L 106.825 112.174 L 106.825 118.074 L 103.925 118.074 L 103.925 112.174 Z M 103.925 124.179 L 106.825 124.179 L 106.825 130.079 L 103.925 130.079 L 103.925 124.179 Z M 103.925 148.188 L 106.825 148.188 L 106.825 154.088 L 103.925 154.088 L 103.925 148.188 Z M 103.925 160.193 L 106.825 160.193 L 106.825 166.093 L 103.925 166.093 L 103.925 160.193 Z M 103.925 172.198 L 106.825 172.198 L 106.825 178.098 L 103.925 178.098 L 103.925 172.198 Z M 103.925 184.202 L 106.825 184.202 L 106.825 190.102 L 103.925 190.102 L 103.925 184.202 Z M 103.925 196.207 L 106.825 196.207 L 106.825 202.107 L 103.925 202.107 L 103.925 196.207 Z M 103.925 208.212 L 106.825 208.212 L 106.825 214.112 L 103.925 214.112 L 103.925 208.212 Z M 103.925 232.221 L 106.825 232.221 L 106.825 238.121 L 103.925 238.121 L 103.925 232.221 Z M 103.925 244.226 L 106.825 244.226 L 106.825 250.126 L 103.925 250.126 L 103.925 244.226 Z M 103.925 256.231 L 106.825 256.231 L 106.825 262.131 L 103.925 262.131 L 103.925 256.231 Z M 103.925 268.236 L 106.825 268.236 L 106.825 274.136 L 103.925 274.136 L 103.925 268.236 Z M 103.925 280.24 L 106.825 280.24 L 106.825 286.14 L 103.925 286.14 L 103.925 280.24 Z M 103.925 292.245 L 106.825 292.245 L 106.825 298.145 L 103.925 298.145 L 103.925 292.245 Z M 103.925 64.1548 L 106.825 64.1548 L 106.825 70.0548 L 103.925 70.0548 L 103.925 64.1548 Z M 103.925 76.1595 L 106.825 76.1595 L 106.825 82.0595 L 103.925 82.0595 L 103.925 76.1595 Z M 103.925 88.1643 L 106.825 88.1643 L 106.825 94.0643 L 103.925 94.0643 L 103.925 88.1643 Z M 112.181 139.183 L 118.081 139.183 L 118.081 142.083 L 112.181 142.083 L 112.181 139.183 Z M 112.181 220.217 L 118.081 220.217 L 118.081 223.117 L 112.181 223.117 L 112.181 220.217 Z M 124.188 139.183 L 130.088 139.183 L 130.088 142.083 L 124.188 142.083 L 124.188 139.183 Z M 124.188 220.217 L 130.088 220.217 L 130.088 223.117 L 124.188 223.117 L 124.188 220.217 Z M 136.194 139.183 L 142.094 139.183 L 142.094 142.083 L 136.194 142.083 L 136.194 139.183 Z M 136.194 220.217 L 142.094 220.217 L 142.094 223.117 L 136.194 223.117 L 136.194 220.217 Z M 148.2 139.183 L 149.7 139.183 L 149.7 136.183 L 152.6 136.183 L 152.6 139.183 L 154.1 139.183 L 154.1 142.083 L 152.6 142.083 L 149.7 142.083 L 148.2 142.083 L 148.2 139.183 Z M 148.2 220.217 L 149.7 220.217 L 152.6 220.217 L 154.1 220.217 L 154.1 223.117 L 152.6 223.117 L 152.6 226.117 L 149.7 226.117 L 149.7 223.117 L 148.2 223.117 L 148.2 220.217 Z M 149.7 100.169 L 152.6 100.169 L 152.6 106.069 L 149.7 106.069 L 149.7 100.169 Z M 149.7 112.174 L 152.6 112.174 L 152.6 118.074 L 149.7 118.074 L 149.7 112.174 Z M 149.7 124.179 L 152.6 124.179 L 152.6 130.079 L 149.7 130.079 L 149.7 124.179 Z M 149.7 148.188 L 152.6 148.188 L 152.6 154.088 L 149.7 154.088 L 149.7 148.188 Z M 149.7 160.193 L 152.6 160.193 L 152.6 166.093 L 149.7 166.093 L 149.7 160.193 Z M 149.7 172.198 L 152.6 172.198 L 152.6 178.098 L 149.7 178.098 L 149.7 172.198 Z M 149.7 184.202 L 152.6 184.202 L 152.6 190.102 L 149.7 190.102 L 149.7 184.202 Z M 149.7 196.207 L 152.6 196.207 L 152.6 202.107 L 149.7 202.107 L 149.7 196.207 Z M 149.7 208.212 L 152.6 208.212 L 152.6 214.112 L 149.7 214.112 L 149.7 208.212 Z M 149.7 232.221 L 152.6 232.221 L 152.6 238.121 L 149.7 238.121 L 149.7 232.221 Z M 149.7 244.226 L 152.6 244.226 L 152.6 250.126 L 149.7 250.126 L 149.7 244.226 Z M 149.7 256.231 L 152.6 256.231 L 152.6 262.131 L 149.7 262.131 L 149.7 256.231 Z M 149.7 268.236 L 152.6 268.236 L 152.6 274.136 L 149.7 274.136 L 149.7 268.236 Z M 149.7 280.24 L 152.6 280.24 L 152.6 286.14 L 149.7 286.14 L 149.7 280.24 Z M 149.7 292.245 L 152.6 292.245 L 152.6 298.145 L 149.7 298.145 L 149.7 292.245 Z M 149.7 64.1548 L 152.6 64.1548 L 152.6 70.0548 L 149.7 70.0548 L 149.7 64.1548 Z M 149.7 76.1595 L 152.6 76.1595 L 152.6 82.0595 L 149.7 82.0595 L 149.7 76.1595 Z M 149.7 88.1643 L 152.6 88.1643 L 152.6 94.0643 L 149.7 94.0643 L 149.7 88.1643 Z M 160.206 139.183 L 166.106 139.183 L 166.106 142.083 L 160.206 142.083 L 160.206 139.183 Z M 160.206 220.217 L 166.106 220.217 L 166.106 223.117 L 160.206 223.117 L 160.206 220.217 Z M 172.213 139.183 L 178.113 139.183 L 178.113 142.083 L 172.213 142.083 L 172.213 139.183 Z M 172.213 220.217 L 178.113 220.217 L 178.113 223.117 L 172.213 223.117 L 172.213 220.217 Z M 184.219 139.183 L 190.119 139.183 L 190.119 142.083 L 184.219 142.083 L 184.219 139.183 Z M 184.219 220.217 L 190.119 220.217 L 190.119 223.117 L 184.219 223.117 L 184.219 220.217 Z M 195.475 100.169 L 198.375 100.169 L 198.375 106.069 L 195.475 106.069 L 195.475 100.169 Z M 195.475 112.174 L 198.375 112.174 L 198.375 118.074 L 195.475 118.074 L 195.475 112.174 Z M 195.475 124.179 L 198.375 124.179 L 198.375 130.079 L 195.475 130.079 L 195.475 124.179 Z M 195.475 136.183 L 198.375 136.183 L 198.375 139.183 L 202.125 139.183 L 202.125 142.083 L 198.375 142.083 L 196.225 142.083 L 195.475 142.083 L 195.475 136.183 Z M 195.475 148.188 L 198.375 148.188 L 198.375 154.088 L 195.475 154.088 L 195.475 148.188 Z M 195.475 160.193 L 198.375 160.193 L 198.375 166.093 L 195.475 166.093 L 195.475 160.193 Z M 195.475 172.198 L 198.375 172.198 L 198.375 178.098 L 195.475 178.098 L 195.475 172.198 Z M 195.475 184.202 L 198.375 184.202 L 198.375 190.102 L 195.475 190.102 L 195.475 184.202 Z M 195.475 196.207 L 198.375 196.207 L 198.375 202.107 L 195.475 202.107 L 195.475 196.207 Z M 195.475 208.212 L 198.375 208.212 L 198.375 214.112 L 195.475 214.112 L 195.475 208.212 Z M 195.475 220.217 L 196.225 220.217 L 198.375 220.217 L 202.125 220.217 L 202.125 223.117 L 198.375 223.117 L 198.375 226.117 L 195.475 226.117 L 195.475 220.217 Z M 195.475 232.221 L 198.375 232.221 L 198.375 238.121 L 195.475 238.121 L 195.475 232.221 Z M 195.475 244.226 L 198.375 244.226 L 198.375 250.126 L 195.475 250.126 L 195.475 244.226 Z M 195.475 256.231 L 198.375 256.231 L 198.375 262.131 L 195.475 262.131 L 195.475 256.231 Z M 195.475 268.236 L 198.375 268.236 L 198.375 274.136 L 195.475 274.136 L 195.475 268.236 Z M 195.475 280.24 L 198.375 280.24 L 198.375 286.14 L 195.475 286.14 L 195.475 280.24 Z M 195.475 292.245 L 198.375 292.245 L 198.375 298.145 L 195.475 298.145 L 195.475 292.245 Z M 195.475 64.1548 L 198.375 64.1548 L 198.375 70.0548 L 195.475 70.0548 L 195.475 64.1548 Z M 195.475 76.1595 L 198.375 76.1595 L 198.375 82.0595 L 195.475 82.0595 L 195.475 76.1595 Z M 195.475 88.1643 L 198.375 88.1643 L 198.375 94.0643 L 195.475 94.0643 L 195.475 88.1643 Z M 208.231 139.183 L 214.131 139.183 L 214.131 142.083 L 208.231 142.083 L 208.231 139.183 Z M 208.231 220.217 L 214.131 220.217 L 214.131 223.117 L 208.231 223.117 L 208.231 220.217 Z M 220.238 139.183 L 226.138 139.183 L 226.138 142.083 L 220.238 142.083 L 220.238 139.183 Z M 220.238 220.217 L 226.138 220.217 L 226.138 223.117 L 220.238 223.117 L 220.238 220.217 Z M 232.244 139.183 L 238.144 139.183 L 238.144 142.083 L 232.244 142.083 L 232.244 139.183 Z M 232.244 220.217 L 238.144 220.217 L 238.144 223.117 L 232.244 223.117 L 232.244 220.217 Z M 64.1562 139.183 L 70.0563 139.183 L 70.0563 142.083 L 64.1562 142.083 L 64.1562 139.183 Z M 64.1562 220.217 L 70.0563 220.217 L 70.0563 223.117 L 64.1562 223.117 L 64.1562 220.217 Z M 76.1625 139.183 L 82.0625 139.183 L 82.0625 142.083 L 76.1625 142.083 L 76.1625 139.183 Z M 76.1625 220.217 L 82.0625 220.217 L 82.0625 223.117 L 76.1625 223.117 L 76.1625 220.217 Z M 88.1688 139.183 L 94.0688 139.183 L 94.0688 142.083 L 88.1688 142.083 L 88.1688 139.183 Z M 88.1688 220.217 L 94.0688 220.217 L 94.0688 223.117 L 88.1688 223.117 L 88.1688 220.217 Z"/>
    <path id="piece_004" style="fill:none;stroke:#000000;stroke-width:0.0508" d="M 248.2 64.055 L 245.2 64.055 L 245.2 70.155 L 248.2 70.155 L 248.2 76.06 L 245.2 76.06 L 245.2 82.16 L 248.2 82.16 L 248.2 88.064 L 245.2 88.064 L 245.2 94.164 L 248.2 94.164 L 248.2 100.069 L 245.2 100.069 L 245.2 106.169 L 248.2 106.169 L 248.2 112.074 L 245.2 112.074 L 245.2 118.174 L 248.2 118.174 L 248.2 124.079 L 245.2 124.079 L 245.2 130.179 L 248.2 130.179 L 248.2 136.083 L 245.2 136.083 L 245.2 142.183 L 248.2 142.183 L 248.2 148.088 L 245.2 148.088 L 245.2 154.188 L 248.2 154.188 L 248.2 160.093 L 245.2 160.093 L 245.2 166.193 L 248.2 166.193 L 248.2 172.098 L 245.2 172.098 L 245.2 178.198 L 248.2 178.198 L 248.2 184.102 L 245.2 184.102 L 245.2 190.202 L 248.2 190.202 L 248.2 196.107 L 245.2 196.107 L 245.2 202.207 L 248.2 202.207 L 248.2 208.112 L 245.2 208.112 L 245.2 214.212 L 248.2 214.212 L 248.2 220.117 L 245.2 220.117 L 245.2 226.217 L 248.2 226.217 L 248.2 232.121 L 245.2 232.121 L 245.2 238.221 L 248.2 238.221 L 248.2 244.126 L 245.2 244.126 L 245.2 250.226 L 248.2 250.226 L 248.2 256.131 L 245.2 256.131 L 245.2 262.231 L 248.2 262.231 L 248.2 268.136 L 245.2 268.136 L 245.2 274.236 L 248.2 274.236 L 248.2 280.14 L 245.2 280.14 L 245.2 286.24 L 248.2 286.24 L 248.2 292.145 L 245.2 292.145 L 245.2 298.245 L 248.2 298.245 L 248.2 301.2 L 251.57 301.2 L 251.57 304.2 L 257.67 304.2 L 257.67 301.2 L 263.99 301.2 L 263.99 304.2 L 270.09 304.2 L 270.09 301.2 L 276.41 301.2 L 276.41 304.2 L 282.51 304.2 L 282.51 301.2 L 288.83 301.2 L 288.83 304.2 L 294.93 304.2 L 294.93 301.2 L 298.3 301.2 L 298.3 298.245 L 301.3 298.245 L 301.3 292.145 L 298.3 292.145 L 298.3 286.24 L 301.3 286.24 L 301.3 280.14 L 298.3 280.14 L 298.3 274.236 L 301.3 274.236 L 301.3 268.136 L 298.3 268.136 L 298.3 262.231 L 301.3 262.231 L 301.3 256.131 L 298.3 256.131 L 298.3 250.226 L 301.3 250.226 L 301.3 244.126 L 298.3 244.126 L 298.3 238.221 L 301.3 238.221 L 301.3 232.121 L 298.3 232.121 L 298.3 226.217 L 301.3 226.217 L 301.3 220.117 L 298.3 220.117 L 298.3 214.212 L 301.3 214.212 L 301.3 208.112 L 298.3 208.112 L 298.3 202.207 L 301.3 202.207 L 301.3 196.107 L 298.3 196.107 L 298.3 190.202 L 301.3 190.202 L 301.3 184.102 L 298.3 184.102 L 298.3 178.198 L 301.3 178.198 L 301.3 172.098 L 298.3 172.098 L 298.3 166.193 L 301.3 166.193 L 301.3 160.093 L 298.3 160.093 L 298.3 154.188 L 301.3 154.188 L 301.3 148.088 L 298.3 148.088 L 298.3 142.183 L 301.3 142.183 L 301.3 136.083 L 298.3 136.083 L 298.3 130.179 L 301.3 130.179 L 301.3 124.079 L 298.3 124.079 L 298.3 118.174 L 301.3 118.174 L 301.3 112.074 L 298.3 112.074 L 298.3 106.169 L 301.3 106.169 L 301.3 100.069 L 298.3 100.069 L 298.3 94.1643 L 301.3 94.1643 L 301.3 88.0643 L 298.3 88.0643 L 298.3 82.1595 L 301.3 82.1595 L 301.3 76.0595 L 298.3 76.0595 L 298.3 70.1548 L 301.3 70.1548 L 301.3 64.0548 L 298.3 64.0548 L 298.3 61.1 L 294.93 61.1 L 294.93 58.1 L 288.83 58.1 L 288.83 61.1 L 282.51 61.1 L 282.51 58.1 L 276.41 58.1 L 276.41 61.1 L 270.09 61.1 L 270.09 58.1 L 263.99 58.1 L 263.99 61.1 L 257.67 61.1 L 257.67 58.1 L 251.57 58.1 L 251.57 61.1 L 248.2 61.1 L 248.2 64.055 Z M 248.2 139.083 L 251.57 139.083 L 251.57 141.983 L 248.2 141.983 L 248.2 139.083 Z M 248.2 220.117 L 251.57 220.117 L 251.57 223.017 L 248.2 223.017 L 248.2 220.117 Z M 257.67 139.083 L 263.99 139.083 L 263.99 141.983 L 257.67 141.983 L 257.67 139.083 Z M 257.67 220.117 L 263.99 220.117 L 263.99 223.017 L 257.67 223.017 L 257.67 220.117 Z M 270.09 139.083 L 276.41 139.083 L 276.41 141.983 L 270.09 141.983 L 270.09 139.083 Z M 270.09 220.117 L 276.41 220.117 L 276.41 223.017 L 270.09 223.017 L 270.09 220.117 Z M 282.51 139.083 L 288.83 139.083 L 288.83 141.983 L 282.51 141.983 L 282.51 139.083 Z M 282.51 220.117 L 288.83 220.117 L 288.83 223.017 L 282.51 223.017 L 282.51 220.117 Z M 294.93 139.083 L 298.25 139.083 L 298.25 141.983 L 294.93 141.983 L 294.93 139.083 Z M 294.93 220.117 L 298.25 220.117 L 298.25 223.017 L 294.93 223.017 L 294.93 220.117 Z"/>
    <path id="piece_005" style="fill:none;stroke:#000000;stroke-width:0.0508" d="M 302.3 64.155 L 305.3 64.155 L 305.3 70.055 L 302.3 70.055 L 302.3 76.16 L 305.3 76.16 L 305.3 82.06 L 302.3 82.06 L 302.3 88.164 L 305.3 88.164 L 305.3 94.064 L 302.3 94.064 L 302.3 100.169 L 305.3 100.169 L 305.3 106.069 L 302.3 106.069 L 302.3 112.174 L 305.3 112.174 L 305.3 118.074 L 302.3 118.074 L 302.3 124.179 L 305.3 124.179 L 305.3 130.079 L 302.3 130.079 L 302.3 136.183 L 305.3 136.183 L 305.3 142.083 L 302.3 142.083 L 302.3 148.188 L 305.3 148.188 L 305.3 154.088 L 302.3 154.088 L 302.3 160.193 L 305.3 160.193 L 305.3 166.093 L 302.3 166.093 L 302.3 172.198 L 305.3 172.198 L 305.3 178.098 L 302.3 178.098 L 302.3 184.202 L 305.3 184.202 L 305.3 190.102 L 302.3 190.102 L 302.3 196.207 L 305.3 196.207 L 305.3 202.107 L 302.3 202.107 L 302.3 208.212 L 305.3 208.212 L 305.3 214.112 L 302.3 214.112 L 302.3 220.217 L 305.3 220.217 L 305.3 226.117 L 302.3 226.117 L 302.3 232.221 L 305.3 232.221 L 305.3 238.121 L 302.3 238.121 L 302.3 244.226 L 305.3 244.226 L 305.3 250.126 L 302.3 250.126 L 302.3 256.231 L 305.3 256.231 L 305.3 262.131 L 302.3 262.131 L 302.3 268.236 L 305.3 268.236 L 305.3 274.136 L 302.3 274.136 L 302.3 280.24 L 305.3 280.24 L 305.3 286.14 L 302.3 286.14 L 302.3 292.245 L 305.3 292.245 L 305.3 298.145 L 302.3 298.145 L 302.3 304.2 L 308.356 304.2 L 308.356 301.2 L 314.256 301.2 L 314.256 304.2 L 320.362 304.2 L 320.362 301.2 L 326.262 301.2 L 326.262 304.2 L 332.369 304.2 L 332.369 301.2 L 338.269 301.2 L 338.269 304.2 L 344.375 304.2 L 344.375 301.2 L 350.275 301.2 L 350.275 304.2 L 356.381 304.2 L 356.381 301.2 L 362.281 301.2 L 362.281 304.2 L 368.387 304.2 L 368.387 301.2 L 374.287 301.2 L 374.287 304.2 L 380.394 304.2 L 380.394 301.2 L 386.294 301.2 L 386.294 304.2 L 392.4 304.2 L 392.4 301.2 L 398.3 301.2 L 398.3 304.2 L 404.406 304.2 L 404.406 301.2 L 410.306 301.2 L 410.306 304.2 L 416.412 304.2 L 416.412 301.2 L 422.312 301.2 L 422.312 304.2 L 428.419 304.2 L 428.419 301.2 L 434.319 301.2 L 434.319 304.2 L 440.425 304.2 L 440.425 301.2 L 446.325 301.2 L 446.325 304.2 L 452.431 304.2 L 452.431 301.2 L 458.331 301.2 L 458.331 304.2 L 464.438 304.2 L 464.438 301.2 L 470.337 301.2 L 470.337 304.2 L 476.444 304.2 L 476.444 301.2 L 482.344 301.2 L 482.344 304.2 L 488.4 304.2 L 488.4 298.145 L 485.4 298.145 L 485.4 292.245 L 488.4 292.245 L 488.4 286.14 L 485.4 286.14 L 485.4 280.24 L 488.4 280.24 L 488.4 274.136 L 485.4 274.136 L 485.4 268.236 L 488.4 268.236 L 488.4 262.131 L 485.4 262.131 L 485.4 256.231 L 488.4 256.231 L 488.4 250.126 L 485.4 250.126 L 485.4 244.226 L 488.4 244.226 L 488.4 238.121 L 485.4 238.121 L 485.4 232.221 L 488.4 232.221 L 488.4 226.117 L 485.4 226.117 L 485.4 220.217 L 488.4 220.217 L 488.4 214.112 L 485.4 214.112 L 485.4 208.212 L 488.4 208.212 L 488.4 202.107 L 485.4 202.107 L 485.4 196.207 L 488.4 196.207 L 488.4 190.102 L 485.4 190.102 L 485.4 184.202 L 488.4 184.202 L 488.4 178.098 L 485.4 178.098 L 485.4 172.198 L 488.4 172.198 L 488.4 166.093 L 485.4 166.093 L 485.4 160.193 L 488.4 160.193 L 488.4 154.088 L 485.4 154.088 L 485.4 148.188 L 488.4 148.188 L 488.4 142.083 L 485.4 142.083 L 485.4 136.183 L 488.4 136.183 L 488.4 130.079 L 485.4 130.079 L 485.4 124.179 L 488.4 124.179 L 488.4 118.074 L 485.4 118.074 L 485.4 112.174 L 488.4 112.174 L 488.4 106.069 L 485.4 106.069 L 485.4 100.169 L 488.4 100.169 L 488.4 94.0643 L 485.4 94.0643 L 485.4 88.1643 L 488.4 88.1643 L 488.4 82.0595 L 485.4 82.0595 L 485.4 76.1595 L 488.4 76.1595 L 488.4 70.0548 L 485.4 70.0548 L 485.4 64.1548 L 488.4 64.1548 L 488.4 58.1 L 482.344 58.1 L 482.344 61.1 L 476.444 61.1 L 476.444 58.1 L 470.338 58.1 L 470.338 61.1 L 464.438 61.1 L 464.438 58.1 L 458.331 58.1 L 458.331 61.1 L 452.431 61.1 L 452.431 58.1 L 446.325 58.1 L 446.325 61.1 L 440.425 61.1 L 440.425 58.1 L 434.319 58.1 L 434.319 61.1 L 428.419 61.1 L 428.419 58.1 L 422.313 58.1 L 422.313 61.1 L 416.413 61.1 L 416.413 58.1 L 410.306 58.1 L 410.306 61.1 L 404.406 61.1 L 404.406 58.1 L 398.3 58.1 L 398.3 61.1 L 392.4 61.1 L 392.4 58.1 L 386.294 58.1 L 386.294 61.1 L 380.394 61.1 L 380.394 58.1 L 374.288 58.1 L 374.288 61.1 L 368.388 61.1 L 368.388 58.1 L 362.281 58.1 L 362.281 61.1 L 356.381 61.1 L 356.381 58.1 L 350.275 58.1 L 350.275 61.1 L 344.375 61.1 L 344.375 58.1 L 338.269 58.1 L 338.269 61.1 L 332.369 61.1 L 332.369 58.1 L 326.262 58.1 L 326.262 61.1 L 320.363 61.1 L 320.363 58.1 L 314.256 58.1 L 314.256 61.1 L 308.356 61.1 L 308.356 58.1 L 302.3 58.1 L 302.3 64.155 Z M 308.356 139.183 L 314.256 139.183 L 314.256 142.083 L 308.356 142.083 L 308.356 139.183 Z M 308.356 220.217 L 314.256 220.217 L 314.256 223.117 L 308.356 223.117 L 308.356 220.217 Z M 320.363 139.183 L 326.262 139.183 L 326.262 142.083 L 320.363 142.083 L 320.363 139.183 Z M 320.363 220.217 L 326.262 220.217 L 326.262 223.117 L 320.363 223.117 L 320.363 220.217 Z M 332.369 139.183 L 338.269 139.183 L 338.269 142.083 L 332.369 142.083 L 332.369 139.183 Z M 332.369 220.217 L 338.269 220.217 L 338.269 223.117 L 332.369 223.117 L 332.369 220.217 Z M 344.375 139.183 L 348.125 139.183 L 348.125 136.183 L 351.025 136.183 L 351.025 142.083 L 350.275 142.083 L 348.125 142.083 L 344.375 142.083 L 344.375 139.183 Z M 344.375 220.217 L 348.125 220.217 L 350.275 220.217 L 351.025 220.217 L 351.025 226.117 L 348.125 226.117 L 348.125 223.117 L 344.375 223.117 L 344.375 220.217 Z M 348.125 100.169 L 351.025 100.169 L 351.025 106.069 L 348.125 106.069 L 348.125 100.169 Z M 348.125 112.174 L 351.025 112.174 L 351.025 118.074 L 348.125 118.074 L 348.125 112.174 Z M 348.125 124.179 L 351.025 124.179 L 351.025 130.079 L 348.125 130.079 L 348.125 124.179 Z M 348.125 148.188 L 351.025 148.188 L 351.025 154.088 L 348.125 154.088 L 348.125 148.188 Z M 348.125 160.193 L 351.025 160.193 L 351.025 166.093 L 348.125 166.093 L 348.125 160.193 Z M 348.125 172.198 L 351.025 172.198 L 351.025 178.098 L 348.125 178.098 L 348.125 172.198 Z M 348.125 184.202 L 351.025 184.202 L 351.025 190.102 L 348.125 190.102 L 348.125 184.202 Z M 348.125 196.207 L 351.025 196.207 L 351.025 202.107 L 348.125 202.107 L 348.125 196.207 Z M 348.125 208.212 L 351.025 208.212 L 351.025 214.112 L 348.125 214.112 L 348.125 208.212 Z M 348.125 232.221 L 351.025 232.221 L 351.025 238.121 L 348.125 238.121 L 348.125 232.221 Z M 348.125 244.226 L 351.025 244.226 L 351.025 250.126 L 348.125 250.126 L 348.125 244.226 Z M 348.125 256.231 L 351.025 256.231 L 351.025 262.131 L 348.125 262.131 L 348.125 256.231 Z M 348.125 268.236 L 351.025 268.236 L 351.025 274.136 L 348.125 274.136 L 348.125 268.236 Z M 348.125 280.24 L 351.025 280.24 L 351.025 286.14 L 348.125 286.14 L 348.125 280.24 Z M 348.125 292.245 L 351.025 292.245 L 351.025 298.145 L 348.125 298.145 L 348.125 292.245 Z M 348.125 64.1548 L 351.025 64.1548 L 351.025 70.0548 L 348.125 70.0548 L 348.125 64.1548 Z M 348.125 76.1595 L 351.025 76.1595 L 351.025 82.0595 L 348.125 82.0595 L 348.125 76.1595 Z M 348.125 88.1643 L 351.025 88.1643 L 351.025 94.0643 L 348.125 94.0643 L 348.125 88.1643 Z M 356.381 139.183 L 362.281 139.183 L 362.281 142.083 L 356.381 142.083 L 356.381 139.183 Z M 356.381 220.217 L 362.281 220.217 L 362.281 223.117 L 356.381 223.117 L 356.381 220.217 Z M 368.388 139.183 L 374.288 139.183 L 374.288 142.083 L 368.388 142.083 L 368.388 139.183 Z M 368.388 220.217 L 374.288 220.217 L 374.288 223.117 L 368.388 223.117 L 368.388 220.217 Z M 380.394 139.183 L 386.294 139.183 L 386.294 142.083 L 380.394 142.083 L 380.394 139.183 Z M 380.394 220.217 L 386.294 220.217 L 386.294 223.117 L 380.394 223.117 L 380.394 220.217 Z M 392.4 139.183 L 393.9 139.183 L 393.9 136.183 L 396.8 136.183 L 396.8 139.183 L 398.3 139.183 L 398.3 142.083 L 396.8 142.083 L 393.9 142.083 L 392.4 142.083 L 392.4 139.183 Z M 392.4 220.217 L 393.9 220.217 L 396.8 220.217 L 398.3 220.217 L 398.3 223.117 L 396.8 223.117 L 396.8 226.117 L 393.9 226.117 L 393.9 223.117 L 392.4 223.117 L 392.4 220.217 Z M 393.9 100.169 L 396.8 100.169 L 396.8 106.069 L 393.9 106.069 L 393.9 100.169 Z M 393.9 112.174 L 396.8 112.174 L 396.8 118.074 L 393.9 118.074 L 393.9 112.174 Z M 393.9 124.179 L 396.8 124.179 L 396.8 130.079 L 393.9 130.079 L 393.9 124.179 Z M 393.9 148.188 L 396.8 148.188 L 396.8 154.088 L 393.9 154.088 L 393.9 148.188 Z M 393.9 160.193 L 396.8 160.193 L 396.8 166.093 L 393.9 166.093 L 393.9 160.193 Z M 393.9 172.198 L 396.8 172.198 L 396.8 178.098 L 393.9 178.098 L 393.9 172.198 Z M 393.9 184.202 L 396.8 184.202 L 396.8 190.102 L 393.9 190.102 L 393.9 184.202 Z M 393.9 196.207 L 396.8 196.207 L 396.8 202.107 L 393.9 202.107 L 393.9 196.207 Z M 393.9 208.212 L 396.8 208.212 L 396.8 214.112 L 393.9 214.112 L 393.9 208.212 Z M 393.9 232.221 L 396.8 232.221 L 396.8 238.121 L 393.9 238.121 L 393.9 232.221 Z M 393.9 244.226 L 396.8 244.226 L 396.8 250.126 L 393.9 250.126 L 393.9 244.226 Z M 393.9 256.231 L 396.8 256.231 L 396.8 262.131 L 393.9 262.131 L 393.9 256.231 Z M 393.9 268.236 L 396.8 268.236 L 396.8 274.136 L 393.9 274.136 L 393.9 268.236 Z M 393.9 280.24 L 396.8 280.24 L 396.8 286.14 L 393.9 286.14 L 393.9 280.24 Z M 393.9 292.245 L 396.8 292.245 L 396.8 298.145 L 393.9 298.145 L 393.9 292.245 Z M 393.9 64.1548 L 396.8 64.1548 L 396.8 70.0548 L 393.9 70.0548 L 393.9 64.1548 Z M 393.9 76.1595 L 396.8 76.1595 L 396.8 82.0595 L 393.9 82.0595 L 393.9 76.1595 Z M 393.9 88.1643 L 396.8 88.1643 L 396.8 94.0643 L 393.9 94.0643 L 393.9 88.1643 Z M 404.406 139.183 L 410.306 139.183 L 410.306 142.083 L 404.406 142.083 L 404.406 139.183 Z M 404.406 220.217 L 410.306 220.217 L 410.306 223.117 L 404.406 223.117 L 404.406 220.217 Z M 416.413 139.183 L 422.313 139.183 L 422.313 142.083 L 416.413 142.083 L 416.413 139.183 Z M 416.413 220.217 L 422.313 220.217 L 422.313 223.117 L 416.413 223.117 L 416.413 220.217 Z M 428.419 139.183 L 434.319 139.183 L 434.319 142.083 L 428.419 142.083 L 428.419 139.183 Z M 428.419 220.217 L 434.319 220.217 L 434.319 223.117 L 428.419 223.117 L 428.419 220.217 Z M 439.675 100.169 L 442.575 100.169 L 442.575 106.069 L 439.675 106.069 L 439.675 100.169 Z M 439.675 112.174 L 442.575 112.174 L 442.575 118.074 L 439.675 118.074 L 439.675 112.174 Z M 439.675 124.179 L 442.575 124.179 L 442.575 130.079 L 439.675 130.079 L 439.675 124.179 Z M 439.675 136.183 L 442.575 136.183 L 442.575 139.183 L 446.325 139.183 L 446.325 142.083 L 442.575 142.083 L 440.425 142.083 L 439.675 142.083 L 439.675 136.183 Z M 439.675 148.188 L 442.575 148.188 L 442.575 154.088 L 439.675 154.088 L 439.675 148.188 Z M 439.675 160.193 L 442.575 160.193 L 442.575 166.093 L 439.675 166.093 L 439.675 160.193 Z M 439.675 172.198 L 442.575 172.198 L 442.575 178.098 L 439.675 178.098 L 439.675 172.198 Z M 439.675 184.202 L 442.575 184.202 L 442.575 190.102 L 439.675 190.102 L 439.675 184.202 Z M 439.675 196.207 L 442.575 196.207 L 442.575 202.107 L 439.675 202.107 L 439.675 196.207 Z M 439.675 208.212 L 442.575 208.212 L 442.575 214.112 L 439.675 214.112 L 439.675 208.212 Z M 439.675 220.217 L 440.425 220.217 L 442.575 220.217 L 446.325 220.217 L 446.325 223.117 L 442.575 223.117 L 442.575 226.117 L 439.675 226.117 L 439.675 220.217 Z M 439.675 232.221 L 442.575 232.221 L 442.575 238.121 L 439.675 238.121 L 439.675 232.221 Z M 439.675 244.226 L 442.575 244.226 L 442.575 250.126 L 439.675 250.126 L 439.675 244.226 Z M 439.675 256.231 L 442.575 256.231 L 442.575 262.131 L 439.675 262.131 L 439.675 256.231 Z M 439.675 268.236 L 442.575 268.236 L 442.575 274.136 L 439.675 274.136 L 439.675 268.236 Z M 439.675 280.24 L 442.575 280.24 L 442.575 286.14 L 439.675 286.14 L 439.675 280.24 Z M 439.675 292.245 L 442.575 292.245 L 442.575 298.145 L 439.675 298.145 L 439.675 292.245 Z M 439.675 64.1548 L 442.575 64.1548 L 442.575 70.0548 L 439.675 70.0548 L 439.675 64.1548 Z M 439.675 76.1595 L 442.575 76.1595 L 442.575 82.0595 L 439.675 82.0595 L 439.675 76.1595 Z M 439.675 88.1643 L 442.575 88.1643 L 442.575 94.0643 L 439.675 94.0643 L 439.675 88.1643 Z M 452.431 139.183 L 458.331 139.183 L 458.331 142.083 L 452.431 142.083 L 452.431 139.183 Z M 452.431 220.217 L 458.331 220.217 L 458.331 223.117 L 452.431 223.117 L 452.431 220.217 Z M 464.438 139.183 L 470.338 139.183 L 470.338 142.083 L 464.438 142.083 L 464.438 139.183 Z M 464.438 220.217 L 470.338 220.217 L 470.338 223.117 L 464.438 223.117 L 464.438 220.217 Z M 476.444 139.183 L 482.344 139.183 L 482.344 142.083 L 476.444 142.083 L 476.444 139.183 Z M 476.444 220.217 L 482.344 220.217 L 482.344 223.117 L 476.444 223.117 L 476.444 220.217 Z"/>
    <path id="piece_006" style="fill:none;stroke:#000000;stroke-width:0.0508" d="M 58.1 7.47 L 61.1 7.47 L 61.1 13.37 L 58.1 13.37 L 58.1 19.89 L 61.1 19.89 L 61.1 25.79 L 58.1 25.79 L 58.1 32.31 L 61.1 32.31 L 61.1 38.21 L 58.1 38.21 L 58.1 44.73 L 61.1 44.73 L 61.1 50.63 L 58.1 50.63 L 58.1 54.1 L 64.056 54.1 L 64.056 57.1 L 70.156 57.1 L 70.156 54.1 L 76.063 54.1 L 76.063 57.1 L 82.163 57.1 L 82.163 54.1 L 88.069 54.1 L 88.069 57.1 L 94.169 57.1 L 94.169 54.1 L 100.075 54.1 L 100.075 57.1 L 106.175 57.1 L 106.175 54.1 L 112.081 54.1 L 112.081 57.1 L 118.181 57.1 L 118.181 54.1 L 124.088 54.1 L 124.088 57.1 L 130.188 57.1 L 130.188 54.1 L 136.094 54.1 L 136.094 57.1 L 142.194 57.1 L 142.194 54.1 L 148.1 54.1 L 148.1 57.1 L 154.2 57.1 L 154.2 54.1 L 160.106 54.1 L 160.106 57.1 L 166.206 57.1 L 166.206 54.1 L 172.112 54.1 L 172.112 57.1 L 178.212 57.1 L 178.212 54.1 L 184.119 54.1 L 184.119 57.1 L 190.219 57.1 L 190.219 54.1 L 196.125 54.1 L 196.125 57.1 L 202.225 57.1 L 202.225 54.1 L 208.131 54.1 L 208.131 57.1 L 214.231 57.1 L 214.231 54.1 L 220.137 54.1 L 220.137 57.1 L 226.237 57.1 L 226.237 54.1 L 232.144 54.1 L 232.144 57.1 L 238.244 57.1 L 238.244 54.1 L 244.2 54.1 L 244.2 50.63 L 241.2 50.63 L 241.2 44.73 L 244.2 44.73 L 244.2 38.21 L 241.2 38.21 L 241.2 32.31 L 244.2 32.31 L 244.2 25.79 L 241.2 25.79 L 241.2 19.89 L 244.2 19.89 L 244.2 13.37 L 241.2 13.37 L 241.2 7.47 L 244.2 7.47 L 244.2 4 L 238.244 4 L 238.244 1 L 232.144 1 L 232.144 4 L 226.237 4 L 226.237 1 L 220.137 1 L 220.137 4 L 214.231 4 L 214.231 1 L 208.131 1 L 208.131 4 L 202.225 4 L 202.225 1 L 196.125 1 L 196.125 4 L 190.219 4 L 190.219 1 L 184.119 1 L 184.119 4 L 178.212 4 L 178.212 1 L 172.112 1 L 172.112 4 L 166.206 4 L 166.206 1 L 160.106 1 L 160.106 4 L 154.2 4 L 154.2 1 L 148.1 1 L 148.1 4 L 142.194 4 L 142.194 1 L 136.094 1 L 136.094 4 L 130.188 4 L 130.188 1 L 124.088 1 L 124.088 4 L 118.181 4 L 118.181 1 L 112.081 1 L 112.081 4 L 106.175 4 L 106.175 1 L 100.075 1 L 100.075 4 L 94.1688 4 L 94.1688 1 L 88.0688 1 L 88.0688 4 L 82.1625 4 L 82.1625 1 L 76.0625 1 L 76.0625 4 L 70.1562 4 L 70.1562 1 L 64.0563 1 L 64.0563 4 L 58.1 4 L 58.1 7.47 Z M 103.925 19.89 L 106.825 19.89 L 106.825 25.79 L 103.925 25.79 L 103.925 19.89 Z M 103.925 32.31 L 106.825 32.31 L 106.825 38.21 L 103.925 38.21 L 103.925 32.31 Z M 103.925 44.73 L 106.825 44.73 L 106.825 50.63 L 103.925 50.63 L 103.925 44.73 Z M 103.925 7.47 L 106.825 7.47 L 106.825 13.37 L 103.925 13.37 L 103.925 7.47 Z M 149.7 19.89 L 152.6 19.89 L 152.6 25.79 L 149.7 25.79 L 149.7 19.89 Z M 149.7 32.31 L 152.6 32.31 L 152.6 38.21 L 149.7 38.21 L 149.7 32.31 Z M 149.7 44.73 L 152.6 44.73 L 152.6 50.63 L 149.7 50.63 L 149.7 44.73 Z M 149.7 7.47 L 152.6 7.47 L 152.6 13.37 L 149.7 13.37 L 149.7 7.47 Z M 195.475 19.89 L 198.375 19.89 L 198.375 25.79 L 195.475 25.79 L 195.475 19.89 Z M 195.475 32.31 L 198.375 32.31 L 198.375 38.21 L 195.475 38.21 L 195.475 32.31 Z M 195.475 44.73 L 198.375 44.73 L 198.375 50.63 L 195.475 50.63 L 195.475 44.73 Z M 195.475 7.47 L 198.375 7.47 L 198.375 13.37 L 195.475 13.37 L 195.475 7.47 Z"/>
  </g>
</svg>