<!-- Created with Inkscape (http://www.inkscape.org/) -->
<svg xmlns:inkscape="http://www.inkscape.org/namespaces/inkscape" xmlns:sodipodi="http://sodipodi.sourceforge.net/DTD/sodipodi-0.dtd" xmlns="http://www.w3.org/2000/svg" xmlns:svg="http://www.w3.org/2000/svg" width="182.3mm" height="202.3mm" viewBox="0 0 182.3 202.3" version="1.1" sodipodi:docname="blank.svg">
  <sodipodi:namedview/>
  <defs id="defaults"/>
  <g inkscape:groupmode="layer" inkscape:label="Tabbed Box" id="tabbedbox">
    <metadata text="$ boxmaker.py --unit=mm --inside=1 --length=80 --width=100 --depth=43 --equal=0 --tab=6 --tabtype=0 --tabsymmetry=0 --dimpleheight=0 --dimplelength=0 --hairline=1 --thickness=3 --kerf=0.1 --style=1 --boxtype=2 --div-l=0 --div-w=0 --keydiv=1 --spacing=1"/>
    <g id="back">
      <path id="side_001" style="fill:none;stroke:#000000;stroke-width:0.0508" d="M 48.1 158.2 L 55.2429 158.2 L 55.2429 155.2 L 61.3429 155.2 L 61.3429 158.2 L 68.3857 158.2 L 68.3857 155.2 L 74.4857 155.2 L 74.4857 158.2 L 81.5286 158.2 L 81.5286 155.2 L 87.6286 155.2 L 87.6286 158.2 L 94.6714 158.2 L 94.6714 155.2 L 100.771 155.2 L 100.771 158.2 L 107.814 158.2 L 107.814 155.2 L 113.914 155.2 L 113.914 158.2 L 120.957 158.2 L 120.957 155.2 L 127.057 155.2 L 127.057 158.2 L 134.2 158.2"/>
      <path id="side_002" style="fill:none;stroke:#000000;stroke-width:0.0508" d="M 134.2 158.2 L 134.2 162.3 L 131.2 162.3 L 131.2 168.2 L 134.2 168.2 L 134.2 175.3 L 131.2 175.3 L 131.2 181.2 L 134.2 181.2 L 134.2 188.3 L 131.2 188.3 L 131.2 194.2 L 134.2 194.2 L 134.2 201.3"/>
      <path id="side_003" style="fill:none;stroke:#000000;stroke-width:0.0508" d="M 134.2 201.3 L 48.1 201.3"/>
      <path id="side_004" style="fill:none;stroke:#000000;stroke-width:0.0508" d="M 48.1 201.3 L 48.1 194.2 L 51.1 194.2 L 51.1 188.3 L 48.1 188.3 L 48.1 181.2 L 51.1 181.2 L 51.1 175.3 L 48.1 175.3 L 48.1 168.2 L 51.1 168.2 L 51.1 162.3 L 48.1 162.3 L 48.1 158.2"/>
    </g>
    <g id="left">
      <path id="side_005" style="fill:none;stroke:#000000;stroke-width:0.0508" d="M 1 51.1 L 8 51.1 L 8 48.1 L 14.1 48.1 L 14.1 51.1 L 21 51.1 L 21 48.1 L 27.1 48.1 L 27.1 51.1 L 34 51.1 L 34 48.1 L 40.1 48.1 L 40.1 51.1 L 44.1 51.1"/>
      <path id="side_006" style="fill:none;stroke:#000000;stroke-width:0.0508" d="M 44.1 51.1 L 44.1 54.5444 L 47.1 54.5444 L 47.1 60.6444 L 44.1 60.6444 L 44.1 66.9889 L 47.1 66.9889 L 47.1 73.0889 L 44.1 73.0889 L 44.1 79.4333 L 47.1 79.4333 L 47.1 85.5333 L 44.1 85.5333 L 44.1 91.8778 L 47.1 91.8778 L 47.1 97.9778 L 44.1 97.9778 L 44.1 104.322 L 47.1 104.322 L 47.1 110.422 L 44.1 110.422 L 44.1 116.767 L 47.1 116.767 L 47.1 122.867 L 44.1 122.867 L 44.1 129.211 L 47.1 129.211 L 47.1 135.311 L 44.1 135.311 L 44.1 141.656 L 47.1 141.656 L 47.1 147.756 L 44.1 147.756 L 44.1 151.2"/>
      <path id="side_007" style="fill:none;stroke:#000000;stroke-width:0.0508" d="M 44.1 151.2 L 40.1 151.2 L 40.1 154.2 L 34 154.2 L 34 151.2 L 27.1 151.2 L 27.1 154.2 L 21 154.2 L 21 151.2 L 14.1 151.2 L 14.1 154.2 L 8 154.2 L 8 151.2 L 1 151.2"/>
      <path id="side_008" style="fill:none;stroke:#000000;stroke-width:0.0508" d="M 1 151.2 L 1 51.1"/>
    </g>
    <g id="bottom">
      <path id="side_009" style="fill:none;stroke:#000000;stroke-width:0.0508" d="M 48.1 48.1 L 55.3429 48.1 L 55.3429 51.1 L 61.2429 51.1 L 61.2429 48.1 L 68.4857 48.1 L 68.4857 51.1 L 74.3857 51.1 L 74.3857 48.1 L 81.6286 48.1 L 81.6286 51.1 L 87.5286 51.1 L 87.5286 48.1 L 94.7714 48.1 L 94.7714 51.1 L 100.671 51.1 L 100.671 48.1 L 107.914 48.1 L 107.914 51.1 L 113.814 51.1 L 113.814 48.1 L 121.057 48.1 L 121.057 51.1 L 126.957 51.1 L 126.957 48.1 L 134.2 48.1"/>
      <path id="side_010" style="fill:none;stroke:#000000;stroke-width:0.0508" d="M 134.2 48.1 L 134.2 54.6444 L 131.2 54.6444 L 131.2 60.5444 L 134.2 60.5444 L 134.2 67.0889 L 131.2 67.0889 L 131.2 72.9889 L 134.2 72.9889 L 134.2 79.5333 L 131.2 79.5333 L 131.2 85.4333 L 134.2 85.4333 L 134.2 91.9778 L 131.2 91.9778 L 131.2 97.8778 L 134.2 97.8778 L 134.2 104.422 L 131.2 104.422 L 131.2 110.322 L 134.2 110.322 L 134.2 116.867 L 131.2 116.867 L 131.2 122.767 L 134.2 122.767 L 134.2 129.311 L 131.2 129.311 L 131.2 135.211 L 134.2 135.211 L 134.2 141.756 L 131.2 141.756 L 131.2 147.656 L 134.2 147.656 L 134.2 154.2"/>
      <path id="side_011" style="fill:none;stroke:#000000;stroke-width:0.0508" d="M 134.2 154.2 L 126.957 154.2 L 126.957 151.2 L 121.057 151.2 L 121.057 154.2 L 113.814 154.2 L 113.814 151.2 L 107.914 151.2 L 107.914 154.2 L 100.671 154.2 L 100.671 151.2 L 94.7714 151.2 L 94.7714 154.2 L 87.5286 154.2 L 87.5286 151.2 L 81.6286 151.2 L 81.6286 154.2 L 74.3857 154.2 L 74.3857 151.2 L 68.4857 151.2 L 68.4857 154.2 L 61.2429 154.2 L 61.2429 151.2 L 55.3429 151.2 L 55.3429 154.2 L 48.1 154.2"/>
      <path id="side_012" style="fill:none;stroke:#000000;stroke-width:0.0508" d="M 48.1 154.2 L 48.1 147.656 L 51.1 147.656 L 51.1 141.756 L 48.1 141.756 L 48.1 135.211 L 51.1 135.211 L 51.1 129.311 L 48.1 129.311 L 48.1 122.767 L 51.1 122.767 L 51.1 116.867 L 48.1 116.867 L 48.1 110.322 L 51.1 110.322 L 51.1 104.422 L 48.1 104.422 L 48.1 97.8778 L 51.1 97.8778 L 51.1 91.9778 L 48.1 91.9778 L 48.1 85.4333 L 51.1 85.4333 L 51.1 79.5333 L 48.1 79.5333 L 48.1 72.9889 L 51.1 72.9889 L 51.1 67.0889 L 48.1 67.0889 L 48.1 60.5444 L 51.1 60.5444 L 51.1 54.6444 L 48.1 54.6444 L 48.1 48.1"/>
    </g>
    <g id="right">
      <path id="side_013" style="fill:none;stroke:#000000;stroke-width:0.0508" d="M 138.2 51.1 L 142.2 51.1 L 142.2 48.1 L 148.3 48.1 L 148.3 51.1 L 155.2 51.1 L 155.2 48.1 L 161.3 48.1 L 161.3 51.1 L 168.2 51.1 L 168.2 48.1 L 174.3 48.1 L 174.3 51.1 L 181.3 51.1"/>
      <path id="side_014" style="fill:none;stroke:#000000;stroke-width:0.0508" d="M 181.3 51.1 L 181.3 151.2"/>
      <path id="side_015" style="fill:none;stroke:#000000;stroke-width:0.0508" d="M 181.3 151.2 L 174.3 151.2 L 174.3 154.2 L 168.2 154.2 L 168.2 151.2 L 161.3 151.2 L 161.3 154.2 L 155.2 154.2 L 155.2 151.2 L 148.3 151.2 L 148.3 154.2 L 142.2 154.2 L 142.2 151.2 L 138.2 151.2"/>
      <path id="side_016" style="fill:none;stroke:#000000;stroke-width:0.0508" d="M 138.2 151.2 L 138.2 147.756 L 135.2 147.756 L 135.2 141.656 L 138.2 141.656 L 138.2 135.311 L 135.2 135.311 L 135.2 129.211 L 138.2 129.211 L 138.2 122.867 L 135.2 122.867 L 135.2 116.767 L 138.2 116.767 L 138.2 110.422 L 135.2 110.422 L 135.2 104.322 L 138.2 104.322 L 138.2 97.9778 L 135.2 97.9778 L 135.2 91.8778 L 138.2 91.8778 L 138.2 85.5333 L 135.2 85.5333 L 135.2 79.4333 L 138.2 79.4333 L 138.2 73.0889 L 135.2 73.0889 L 135.2 66.9889 L 138.2 66.9889 L 138.2 60.6444 L 135.2 60.6444 L 135.2 54.5444 L 138.2 54.5444 L 138.2 51.1"/>
    </g>
    <g id="front">
      <path id="side_017" style="fill:none;stroke:#000000;stroke-width:0.0508" d="M 48.1 1 L 134.2 1"/>
      <path id="side_018" style="fill:none;stroke:#000000;stroke-width:0.0508" d="M 134.2 1 L 134.2 8.1 L 131.2 8.1 L 131.2 14 L 134.2 14 L 134.2 21.1 L 131.2 21.1 L 131.2 27 L 134.2 27 L 134.2 34.1 L 131.2 34.1 L 131.2 40 L 134.2 40 L 134.2 44.1"/>
      <path id="side_019" style="fill:none;stroke:#000000;stroke-width:0.0508" d="M 134.2 44.1 L 127.057 44.1 L 127.057 47.1 L 120.957 47.1 L 120.957 44.1 L 113.914 44.1 L 113.914 47.1 L 107.814 47.1 L 107.814 44.1 L 100.771 44.1 L 100.771 47.1 L 94.6714 47.1 L 94.6714 44.1 L 87.6286 44.1 L 87.6286 47.1 L 81.5286 47.1 L 81.5286 44.1 L 74.4857 44.1 L 74.4857 47.1 L 68.3857 47.1 L 68.3857 44.1 L 61.3429 44.1 L 61.3429 47.1 L 55.2429 47.1 L 55.2429 44.1 L 48.1 44.1"/>
      <path id="side_020" style="fill:none;stroke:#000000;stroke-width:0.0508" d="M 48.1 44.1 L 48.1 40 L 51.1 40 L 51.1 34.1 L 48.1 34.1 L 48.1 27 L 51.1 27 L 51.1 21.1 L 48.1 21.1 L 48.1 14 L 51.1 14 L 51.1 8.1 L 48.1 8.1 L 48.1 1"/>
    </g>
  </g>
</svg>