<!-- Created with Inkscape (http://www.inkscape.org/) -->
<svg xmlns:inkscape="http://www.inkscape.org/namespaces/inkscape" xmlns:sodipodi="http://sodipodi.sourceforge.net/DTD/sodipodi-0.dtd" xmlns="http://www.w3.org/2000/svg" xmlns:svg="http://www.w3.org/2000/svg" width="179.3mm" height="199.3mm" viewBox="0 0 179.3 199.3" version="1.1" id="svg5" inkscape:version="1.1.2 (0a00cf5339, 2022-02-04)" sodipodi:docname="blank.svg">
  <sodipodi:namedview id="namedview7" pagecolor="#ffffff" bordercolor="#666666" borderopacity="1.0" inkscape:pageshadow="2" inkscape:pageopacity="0.0" inkscape:pagecheckerboard="0" inkscape:document-units="mm" showgrid="false" inkscape:zoom="0.64052329" inkscape:cx="397.33138" inkscape:cy="561.25984" inkscape:window-width="2086" inkscape:window-height="1376" inkscape:window-x="0" inkscape:window-y="0" inkscape:window-maximized="1" inkscape:current-layer="layer1"/>
  <defs id="defs2"/>
  <g inkscape:label="Layer 1" inkscape:groupmode="layer" id="layer1">
    <metadata text="createArgs=['--unit=mm', '--inside=1', '--length=80', '--width=100', '--depth=40', '--equal=0', '--tab=6', '--tabtype=0', '--tabsymmetry=0', '--dimpleheight=0', '--dimplelength=0', '--hairline=1', '--thickness=3', '--kerf=0.1', '--style=1', '--boxtype=2', '--div_l=0', '--div_w=0', '--keydiv=1', '--spacing=1']"/>
    <g id="piece_001">
      <path id="side_001" style="fill:none;stroke:#000000;stroke-width:0.0508" d="m 48.1 158.2 l 7.1071 0 l 0 -3 l 6.1 0 l 0 3 l 7.0572 0 l 0 -3 l 6.1 0 l 0 3 l 7.0571 0 l 0 -3 l 6.1 0 l 0 3 l 7.0572 0 l 0 -3 l 6.1004 0 l 0 3 l 7.057 0 l 0 -3 l 6.1 0 l 0 3 l 7.057 0 l 0 -3 l 6.1 0 l 0 3 l 7.107 0"/>
      <path id="side_002" style="fill:none;stroke:#000000;stroke-width:0.0508" d="m 134.2 158.2 l 0 4.075 l -3 0 l 0 5.9 l 3 0 l 0 7.125 l -3 0 l 0 5.9 l 3 0 l 0 7.125 l -3 0 l 0 5.9 l 3 0 l 0 4.075"/>
      <path id="side_003" style="fill:none;stroke:#000000;stroke-width:0.0508" d="m 134.2 198.3 l -7.107 0 l 0 0 l -6.1 0 l 0 0 l -7.057 0 l 0 0 l -6.1 0 l 0 0 l -7.057 0 l 0 0 l -6.1004 0 l 0 0 l -7.0572 0 l 0 0 l -6.1 0 l 0 0 l -7.0571 0 l 0 0 l -6.1 0 l 0 0 l -7.0572 0 l 0 0 l -6.1 0 l 0 0 l -7.1071 0"/>
      <path id="side_004" style="fill:none;stroke:#000000;stroke-width:0.0508" d="m 48.1 198.3 l 0 -4.075 l 3 0 l 0 -5.9 l -3 0 l 0 -7.125 l 3 0 l 0 -5.9 l -3 0 l 0 -7.125 l 3 0 l 0 -5.9 l -3 0 l 0 -4.075"/>
    </g>
    <g id="piece_002">
      <path id="side_005" style="fill:none;stroke:#000000;stroke-width:0.0508" d="m 4 51.1 l 3.975 0 l 0 -3 l 6.1 0 l 0 3 l 6.925 0 l 0 -3 l 6.1 0 l 0 3 l 6.925 0 l 0 -3 l 6.1 0 l 0 3 l 3.975 0"/>
      <path id="side_006" style="fill:none;stroke:#000000;stroke-width:0.0508" d="m 44.1 51.1 l 0 3.4056 l 3 0 l 0 6.1 l -3 0 l 0 6.3555 l 3 0 l 0 6.1 l -3 0 l 0 6.3556 l 3 0 l 0 6.1 l -3 0 l 0 6.3555 l 3 0 l 0 6.1 l -3 0 l 0 6.3558 l 3 0 l 0 6.1 l -3 0 l 0 6.355 l 3 0 l 0 6.1 l -3 0 l 0 6.356 l 3 0 l 0 6.1 l -3 0 l 0 6.355 l 3 0 l 0 6.1 l -3 0 l 0 3.406"/>
      <path id="side_007" style="fill:none;stroke:#000000;stroke-width:0.0508" d="m 44.1 151.2 l -3.975 0 l 0 3 l -6.1 0 l 0 -3 l -6.925 0 l 0 3 l -6.1 0 l 0 -3 l -6.925 0 l 0 3 l -6.1 0 l 0 -3 l -3.975 0"/>
      <path id="side_008" style="fill:none;stroke:#000000;stroke-width:0.0508" d="m 4 151.2 l 0 -3.406 l 0 0 l 0 -6.1 l 0 0 l 0 -6.355 l 0 0 l 0 -6.1 l 0 0 l 0 -6.356 l 0 0 l 0 -6.1 l 0 0 l 0 -6.355 l 0 0 l 0 -6.1 l 0 0 l 0 -6.3558 l 0 0 l 0 -6.1 l 0 0 l 0 -6.3555 l 0 0 l 0 -6.1 l 0 0 l 0 -6.3556 l 0 0 l 0 -6.1 l 0 0 l 0 -6.3555 l 0 0 l 0 -6.1 l 0 0 l 0 -3.4056"/>
    </g>
    <g id="piece_003">
      <path id="side_009" style="fill:none;stroke:#000000;stroke-width:0.0508" d="m 48.1 48.1 l 7.2071 0 l 0 3 l 5.9 0 l 0 -3 l 7.2572 0 l 0 3 l 5.9 0 l 0 -3 l 7.2571 0 l 0 3 l 5.9 0 l 0 -3 l 7.2572 0 l 0 3 l 5.9004 0 l 0 -3 l 7.257 0 l 0 3 l 5.9 0 l 0 -3 l 7.257 0 l 0 3 l 5.9 0 l 0 -3 l 7.207 0"/>
      <path id="side_010" style="fill:none;stroke:#000000;stroke-width:0.0508" d="m 134.2 48.1 l 0 6.5056 l -3 0 l 0 5.9 l 3 0 l 0 6.5555 l -3 0 l 0 5.9 l 3 0 l 0 6.5556 l -3 0 l 0 5.9 l 3 0 l 0 6.5555 l -3 0 l 0 5.9 l 3 0 l 0 6.5558 l -3 0 l 0 5.9 l 3 0 l 0 6.555 l -3 0 l 0 5.9 l 3 0 l 0 6.556 l -3 0 l 0 5.9 l 3 0 l 0 6.555 l -3 0 l 0 5.9 l 3 0 l 0 6.506"/>
      <path id="side_011" style="fill:none;stroke:#000000;stroke-width:0.0508" d="m 134.2 154.2 l -7.207 0 l 0 -3 l -5.9 0 l 0 3 l -7.257 0 l 0 -3 l -5.9 0 l 0 3 l -7.257 0 l 0 -3 l -5.9004 0 l 0 3 l -7.2572 0 l 0 -3 l -5.9 0 l 0 3 l -7.2571 0 l 0 -3 l -5.9 0 l 0 3 l -7.2572 0 l 0 -3 l -5.9 0 l 0 3 l -7.2071 0"/>
      <path id="side_012" style="fill:none;stroke:#000000;stroke-width:0.0508" d="m 48.1 154.2 l 0 -6.506 l 3 0 l 0 -5.9 l -3 0 l 0 -6.555 l 3 0 l 0 -5.9 l -3 0 l 0 -6.556 l 3 0 l 0 -5.9 l -3 0 l 0 -6.555 l 3 0 l 0 -5.9 l -3 0 l 0 -6.5558 l 3 0 l 0 -5.9 l -3 0 l 0 -6.5555 l 3 0 l 0 -5.9 l -3 0 l 0 -6.5556 l 3 0 l 0 -5.9 l -3 0 l 0 -6.5555 l 3 0 l 0 -5.9 l -3 0 l 0 -6.5056"/>
    </g>
    <g id="piece_004">
      <path id="side_013" style="fill:none;stroke:#000000;stroke-width:0.0508" d="m 138.2 51.1 l 3.975 0 l 0 -3 l 6.1 0 l 0 3 l 6.925 0 l 0 -3 l 6.1 0 l 0 3 l 6.925 0 l 0 -3 l 6.1 0 l 0 3 l 3.975 0"/>
      <path id="side_014" style="fill:none;stroke:#000000;stroke-width:0.0508" d="m 178.3 51.1 l 0 3.4056 l 0 0 l 0 6.1 l 0 0 l 0 6.3555 l 0 0 l 0 6.1 l 0 0 l 0 6.3556 l 0 0 l 0 6.1 l 0 0 l 0 6.3555 l 0 0 l 0 6.1 l 0 0 l 0 6.3558 l 0 0 l 0 6.1 l 0 0 l 0 6.355 l 0 0 l 0 6.1 l 0 0 l 0 6.356 l 0 0 l 0 6.1 l 0 0 l 0 6.355 l 0 0 l 0 6.1 l 0 0 l 0 3.406"/>
      <path id="side_015" style="fill:none;stroke:#000000;stroke-width:0.0508" d="m 178.3 151.2 l -3.975 0 l 0 3 l -6.1 0 l 0 -3 l -6.925 0 l 0 3 l -6.1 0 l 0 -3 l -6.925 0 l 0 3 l -6.1 0 l 0 -3 l -3.975 0"/>
      <path id="side_016" style="fill:none;stroke:#000000;stroke-width:0.0508" d="m 138.2 151.2 l 0 -3.406 l -3 0 l 0 -6.1 l 3 0 l 0 -6.355 l -3 0 l 0 -6.1 l 3 0 l 0 -6.356 l -3 0 l 0 -6.1 l 3 0 l 0 -6.355 l -3 0 l 0 -6.1 l 3 0 l 0 -6.3558 l -3 0 l 0 -6.1 l 3 0 l 0 -6.3555 l -3 0 l 0 -6.1 l 3 0 l 0 -6.3556 l -3 0 l 0 -6.1 l 3 0 l 0 -6.3555 l -3 0 l 0 -6.1 l 3 0 l 0 -3.4056"/>
    </g>
    <g id="piece_005">
      <path id="side_017" style="fill:none;stroke:#000000;stroke-width:0.0508" d="m 48.1 4 l 7.1071 0 l 0 0 l 6.1 0 l 0 0 l 7.0572 0 l 0 0 l 6.1 0 l 0 0 l 7.0571 0 l 0 0 l 6.1 0 l 0 0 l 7.0572 0 l 0 0 l 6.1004 0 l 0 0 l 7.057 0 l 0 0 l 6.1 0 l 0 0 l 7.057 0 l 0 0 l 6.1 0 l 0 0 l 7.107 0"/>
      <path id="side_018" style="fill:none;stroke:#000000;stroke-width:0.0508" d="m 134.2 4 l 0 4.075 l -3 0 l 0 5.9 l 3 0 l 0 7.125 l -3 0 l 0 5.9 l 3 0 l 0 7.125 l -3 0 l 0 5.9 l 3 0 l 0 4.075"/>
      <path id="side_019" style="fill:none;stroke:#000000;stroke-width:0.0508" d="m 134.2 44.1 l -7.107 0 l 0 3 l -6.1 0 l 0 -3 l -7.057 0 l 0 3 l -6.1 0 l 0 -3 l -7.057 0 l 0 3 l -6.1004 0 l 0 -3 l -7.0572 0 l 0 3 l -6.1 0 l 0 -3 l -7.0571 0 l 0 3 l -6.1 0 l 0 -3 l -7.0572 0 l 0 3 l -6.1 0 l 0 -3 l -7.1071 0"/>
      <path id="side_020" style="fill:none;stroke:#000000;stroke-width:0.0508" d="m 48.1 44.1 l 0 -4.075 l 3 0 l 0 -5.9 l -3 0 l 0 -7.125 l 3 0 l 0 -5.9 l -3 0 l 0 -7.125 l 3 0 l 0 -5.9 l -3 0 l 0 -4.075"/>
    </g>
  </g>
</svg>