<!-- Created with Inkscape (http://www.inkscape.org/) -->
<svg xmlns:inkscape="http://www.inkscape.org/namespaces/inkscape" xmlns:sodipodi="http://sodipodi.sourceforge.net/DTD/sodipodi-0.dtd" xmlns="http://www.w3.org/2000/svg" xmlns:svg="http://www.w3.org/2000/svg" width="660.7mm" height="476.5mm" viewBox="0 0 660.7 476.5" version="1.1" id="svg5" inkscape:version="1.1.2 (0a00cf5339, 2022-02-04)" sodipodi:docname="blank.svg">
  <sodipodi:namedview id="namedview7" pagecolor="#ffffff" bordercolor="#666666" borderopacity="1.0" inkscape:pageshadow="2" inkscape:pageopacity="0.0" inkscape:pagecheckerboard="0" inkscape:document-units="mm" showgrid="false" inkscape:zoom="0.64052329" inkscape:cx="397.33138" inkscape:cy="561.25984" inkscape:window-width="2086" inkscape:window-height="1376" inkscape:window-x="0" inkscape:window-y="0" inkscape:window-maximized="1" inkscape:current-layer="layer1"/>
  <defs id="defs2"/>
  <g inkscape:label="Layer 1" inkscape:groupmode="layer" id="layer1">
    <metadata text="createArgs=['--unit=mm', '--inside=1', '--length=180', '--width=240', '--depth=50', '--equal=0', '--tab=6', '--tabtype=0', '--tabsymmetry=0', '--dimpleheight=0', '--dimplelength=0', '--hairline=1', '--thickness=3', '--kerf=0.1', '--style=1', '--boxtype=1', '--div_l=2', '--div_w=3', '--keydiv=0', '--spacing=1']"/>
    <g id="piece_001">
      <path id="side_001" style="fill:none;stroke:#000000;stroke-width:0.0508" d="m 58.1 308.2 l 6 0 l 0 -3 l 6.1 0 l 0 3 l 5.9 0 l 0 -3 l 6.1 0 l 0 3 l 5.9 0 l 0 -3 l 6.1 0 l 0 3 l 5.9 0 l 0 -3 l 6.1 0 l 0 3 l 5.9 0 l 0 -3 l 6.1 0 l 0 3 l 5.9 0 l 0 -3 l 6.1 0 l 0 3 l 5.9 0 l 0 -3 l 6.1 0 l 0 3 l 5.9 0 l 0 -3 l 6.1 0 l 0 3 l 5.9 0 l 0 -3 l 6.1 0 l 0 3 l 5.9 0 l 0 -3 l 6.1 0 l 0 3 l 5.9 0 l 0 -3 l 6.1 0 l 0 3 l 5.9 0 l 0 -3 l 6.1 0 l 0 3 l 5.9 0 l 0 -3 l 6.1 0 l 0 3 l 5.9 0 l 0 -3 l 6.1 0 l 0 3 l 5.9 0 l 0 -3 l 6.1 0 l 0 3 l 6 0"/>
      <path id="side_002" style="fill:none;stroke:#000000;stroke-width:0.0508" d="m 244.2 308.2 l 0 3.5 l -3 0 l 0 5.9 l 3 0 l 0 6.5 l -3 0 l 0 5.9 l 3 0 l 0 6.5 l -3 0 l 0 5.9 l 3 0 l 0 6.5 l -3 0 l 0 5.9 l 3 0 l 0 3.5"/>
      <path id="hole_001" style="fill:none;stroke:#000000;stroke-width:0.0508" d="m 198.45 311.75 l 0 5.9 l -2.9 0 l 0 -5.9 l 2.9 0 z"/>
      <path id="hole_002" style="fill:none;stroke:#000000;stroke-width:0.0508" d="m 152.7 311.75 l 0 5.9 l -2.9 0 l 0 -5.9 l 2.9 0 z"/>
      <path id="hole_003" style="fill:none;stroke:#000000;stroke-width:0.0508" d="m 106.95 311.75 l 0 5.9 l -2.9 0 l 0 -5.9 l 2.9 0 z"/>
      <path id="hole_004" style="fill:none;stroke:#000000;stroke-width:0.0508" d="m 198.45 324.15 l 0 5.9 l -2.9 0 l 0 -5.9 l 2.9 0 z"/>
      <path id="hole_005" style="fill:none;stroke:#000000;stroke-width:0.0508" d="m 152.7 324.15 l 0 5.9 l -2.9 0 l 0 -5.9 l 2.9 0 z"/>
      <path id="hole_006" style="fill:none;stroke:#000000;stroke-width:0.0508" d="m 106.95 324.15 l 0 5.9 l -2.9 0 l 0 -5.9 l 2.9 0 z"/>
      <path id="hole_007" style="fill:none;stroke:#000000;stroke-width:0.0508" d="m 198.45 336.55 l 0 5.9 l -2.9 0 l 0 -5.9 l 2.9 0 z"/>
      <path id="hole_008" style="fill:none;stroke:#000000;stroke-width:0.0508" d="m 152.7 336.55 l 0 5.9 l -2.9 0 l 0 -5.9 l 2.9 0 z"/>
      <path id="hole_009" style="fill:none;stroke:#000000;stroke-width:0.0508" d="m 106.95 336.55 l 0 5.9 l -2.9 0 l 0 -5.9 l 2.9 0 z"/>
      <path id="hole_010" style="fill:none;stroke:#000000;stroke-width:0.0508" d="m 198.45 348.95 l 0 5.9 l -2.9 0 l 0 -5.9 l 2.9 0 z"/>
      <path id="hole_011" style="fill:none;stroke:#000000;stroke-width:0.0508" d="m 152.7 348.95 l 0 5.9 l -2.9 0 l 0 -5.9 l 2.9 0 z"/>
      <path id="hole_012" style="fill:none;stroke:#000000;stroke-width:0.0508" d="m 106.95 348.95 l 0 5.9 l -2.9 0 l 0 -5.9 l 2.9 0 z"/>
      <path id="side_003" style="fill:none;stroke:#000000;stroke-width:0.0508" d="m 244.2 358.3 l -6 0 l 0 3 l -6.1 0 l 0 -3 l -5.9 0 l 0 3 l -6.1 0 l 0 -3 l -5.9 0 l 0 3 l -6.1 0 l 0 -3 l -5.9 0 l 0 3 l -6.1 0 l 0 -3 l -5.9 0 l 0 3 l -6.1 0 l 0 -3 l -5.9 0 l 0 3 l -6.1 0 l 0 -3 l -5.9 0 l 0 3 l -6.1 0 l 0 -3 l -5.9 0 l 0 3 l -6.1 0 l 0 -3 l -5.9 0 l 0 3 l -6.1 0 l 0 -3 l -5.9 0 l 0 3 l -6.1 0 l 0 -3 l -5.9 0 l 0 3 l -6.1 0 l 0 -3 l -5.9 0 l 0 3 l -6.1 0 l 0 -3 l -5.9 0 l 0 3 l -6.1 0 l 0 -3 l -5.9 0 l 0 3 l -6.1 0 l 0 -3 l -5.9 0 l 0 3 l -6.1 0 l 0 -3 l -6 0"/>
      <path id="side_004" style="fill:none;stroke:#000000;stroke-width:0.0508" d="m 58.1 358.3 l 0 -3.5 l 3 0 l 0 -5.9 l -3 0 l 0 -6.5 l 3 0 l 0 -5.9 l -3 0 l 0 -6.5 l 3 0 l 0 -5.9 l -3 0 l 0 -6.5 l 3 0 l 0 -5.9 l -3 0 l 0 -3.5"/>
    </g>
    <g id="xdivider_001">
      <path id="side_005" style="fill:none;stroke:#000000;stroke-width:0.0508" d="m 58.1 365.3 l 6 0 l 0 -3 l 6.1 0 l 0 3 l 5.9 0 l 0 -3 l 6.1 0 l 0 3 l 5.9 0 l 0 -3 l 6.1 0 l 0 3 l 5.9 0 l 0 -3 l 6.1 0 l 0 3 l 5.9 0 l 0 -3 l 6.1 0 l 0 3 l 5.9 0 l 0 -3 l 6.1 0 l 0 3 l 5.9 0 l 0 -3 l 6.1 0 l 0 3 l 5.9 0 l 0 -3 l 6.1 0 l 0 3 l 5.9 0 l 0 -3 l 6.1 0 l 0 3 l 5.9 0 l 0 -3 l 6.1 0 l 0 3 l 5.9 0 l 0 -3 l 6.1 0 l 0 3 l 5.9 0 l 0 -3 l 6.1 0 l 0 3 l 5.9 0 l 0 -3 l 6.1 0 l 0 3 l 5.9 0 l 0 -3 l 6.1 0 l 0 3 l 5.9 0 l 0 -3 l 6.1 0 l 0 3 l 6 0"/>
      <path id="side_006" style="fill:none;stroke:#000000;stroke-width:0.0508" d="m 244.2 365.3 l 0 3.5 l -3 0 l 0 5.9 l 3 0 l 0 6.5 l -3 0 l 0 5.9 l 3 0 l 0 6.5 l -3 0 l 0 5.9 l 3 0 l 0 6.5 l -3 0 l 0 5.9 l 3 0 l 0 3.5"/>
      <path id="slot_001" style="fill:none;stroke:#000000;stroke-width:0.0508" d="m 198.35 362.3 l 0 28 l -2.9 0 l 0 -28 l 2.9 0 z"/>
      <path id="slot_002" style="fill:none;stroke:#000000;stroke-width:0.0508" d="m 152.6 362.3 l 0 28 l -2.9 0 l 0 -28 l 2.9 0 z"/>
      <path id="slot_003" style="fill:none;stroke:#000000;stroke-width:0.0508" d="m 106.85 362.3 l 0 28 l -2.9 0 l 0 -28 l 2.9 0 z"/>
      <path id="side_007" style="fill:none;stroke:#000000;stroke-width:0.0508" d="m 244.2 415.4 l -6 0 l 0 3 l -6.1 0 l 0 -3 l -5.9 0 l 0 3 l -6.1 0 l 0 -3 l -5.9 0 l 0 3 l -6.1 0 l 0 -3 l -5.9 0 l 0 3 l -6.1 0 l 0 -3 l -5.9 0 l 0 3 l -6.1 0 l 0 -3 l -5.9 0 l 0 3 l -6.1 0 l 0 -3 l -5.9 0 l 0 3 l -6.1 0 l 0 -3 l -5.9 0 l 0 3 l -6.1 0 l 0 -3 l -5.9 0 l 0 3 l -6.1 0 l 0 -3 l -5.9 0 l 0 3 l -6.1 0 l 0 -3 l -5.9 0 l 0 3 l -6.1 0 l 0 -3 l -5.9 0 l 0 3 l -6.1 0 l 0 -3 l -5.9 0 l 0 3 l -6.1 0 l 0 -3 l -5.9 0 l 0 3 l -6.1 0 l 0 -3 l -5.9 0 l 0 3 l -6.1 0 l 0 -3 l -6 0"/>
      <path id="side_008" style="fill:none;stroke:#000000;stroke-width:0.0508" d="m 58.1 415.4 l 0 -3.5 l 3 0 l 0 -5.9 l -3 0 l 0 -6.5 l 3 0 l 0 -5.9 l -3 0 l 0 -6.5 l 3 0 l 0 -5.9 l -3 0 l 0 -6.5 l 3 0 l 0 -5.9 l -3 0 l 0 -3.5"/>
    </g>
    <g id="xdivider_002">
      <path id="side_009" style="fill:none;stroke:#000000;stroke-width:0.0508" d="m 58.1 422.4 l 6 0 l 0 -3 l 6.1 0 l 0 3 l 5.9 0 l 0 -3 l 6.1 0 l 0 3 l 5.9 0 l 0 -3 l 6.1 0 l 0 3 l 5.9 0 l 0 -3 l 6.1 0 l 0 3 l 5.9 0 l 0 -3 l 6.1 0 l 0 3 l 5.9 0 l 0 -3 l 6.1 0 l 0 3 l 5.9 0 l 0 -3 l 6.1 0 l 0 3 l 5.9 0 l 0 -3 l 6.1 0 l 0 3 l 5.9 0 l 0 -3 l 6.1 0 l 0 3 l 5.9 0 l 0 -3 l 6.1 0 l 0 3 l 5.9 0 l 0 -3 l 6.1 0 l 0 3 l 5.9 0 l 0 -3 l 6.1 0 l 0 3 l 5.9 0 l 0 -3 l 6.1 0 l 0 3 l 5.9 0 l 0 -3 l 6.1 0 l 0 3 l 5.9 0 l 0 -3 l 6.1 0 l 0 3 l 6 0"/>
      <path id="side_010" style="fill:none;stroke:#000000;stroke-width:0.0508" d="m 244.2 422.4 l 0 3.5 l -3 0 l 0 5.9 l 3 0 l 0 6.5 l -3 0 l 0 5.9 l 3 0 l 0 6.5 l -3 0 l 0 5.9 l 3 0 l 0 6.5 l -3 0 l 0 5.9 l 3 0 l 0 3.5"/>
      <path id="slot_004" style="fill:none;stroke:#000000;stroke-width:0.0508" d="m 198.35 419.4 l 0 28 l -2.9 0 l 0 -28 l 2.9 0 z"/>
      <path id="slot_005" style="fill:none;stroke:#000000;stroke-width:0.0508" d="m 152.6 419.4 l 0 28 l -2.9 0 l 0 -28 l 2.9 0 z"/>
      <path id="slot_006" style="fill:none;stroke:#000000;stroke-width:0.0508" d="m 106.85 419.4 l 0 28 l -2.9 0 l 0 -28 l 2.9 0 z"/>
      <path id="side_011" style="fill:none;stroke:#000000;stroke-width:0.0508" d="m 244.2 472.5 l -6 0 l 0 3 l -6.1 0 l 0 -3 l -5.9 0 l 0 3 l -6.1 0 l 0 -3 l -5.9 0 l 0 3 l -6.1 0 l 0 -3 l -5.9 0 l 0 3 l -6.1 0 l 0 -3 l -5.9 0 l 0 3 l -6.1 0 l 0 -3 l -5.9 0 l 0 3 l -6.1 0 l 0 -3 l -5.9 0 l 0 3 l -6.1 0 l 0 -3 l -5.9 0 l 0 3 l -6.1 0 l 0 -3 l -5.9 0 l 0 3 l -6.1 0 l 0 -3 l -5.9 0 l 0 3 l -6.1 0 l 0 -3 l -5.9 0 l 0 3 l -6.1 0 l 0 -3 l -5.9 0 l 0 3 l -6.1 0 l 0 -3 l -5.9 0 l 0 3 l -6.1 0 l 0 -3 l -5.9 0 l 0 3 l -6.1 0 l 0 -3 l -5.9 0 l 0 3 l -6.1 0 l 0 -3 l -6 0"/>
      <path id="side_012" style="fill:none;stroke:#000000;stroke-width:0.0508" d="m 58.1 472.5 l 0 -3.5 l 3 0 l 0 -5.9 l -3 0 l 0 -6.5 l 3 0 l 0 -5.9 l -3 0 l 0 -6.5 l 3 0 l 0 -5.9 l -3 0 l 0 -6.5 l 3 0 l 0 -5.9 l -3 0 l 0 -3.5"/>
    </g>
    <g id="piece_002">
      <path id="side_013" style="fill:none;stroke:#000000;stroke-width:0.0508" d="m 4 61.1 l 3.4 0 l 0 -3 l 6.1 0 l 0 3 l 6.3 0 l 0 -3 l 6.1 0 l 0 3 l 6.3 0 l 0 -3 l 6.1 0 l 0 3 l 6.3 0 l 0 -3 l 6.1 0 l 0 3 l 3.4 0"/>
      <path id="hole_013" style="fill:none;stroke:#000000;stroke-width:0.0508" d="m 4.05 139.1 l 3.3 0 l 0 2.9 l -3.3 0 l 0 -2.9 z"/>
      <path id="hole_014" style="fill:none;stroke:#000000;stroke-width:0.0508" d="m 4.05 220.1 l 3.3 0 l 0 2.9 l -3.3 0 l 0 -2.9 z"/>
      <path id="hole_015" style="fill:none;stroke:#000000;stroke-width:0.0508" d="m 13.45 139.1 l 6.3 0 l 0 2.9 l -6.3 0 l 0 -2.9 z"/>
      <path id="hole_016" style="fill:none;stroke:#000000;stroke-width:0.0508" d="m 13.45 220.1 l 6.3 0 l 0 2.9 l -6.3 0 l 0 -2.9 z"/>
      <path id="hole_017" style="fill:none;stroke:#000000;stroke-width:0.0508" d="m 25.85 139.1 l 6.3 0 l 0 2.9 l -6.3 0 l 0 -2.9 z"/>
      <path id="hole_018" style="fill:none;stroke:#000000;stroke-width:0.0508" d="m 25.85 220.1 l 6.3 0 l 0 2.9 l -6.3 0 l 0 -2.9 z"/>
      <path id="hole_019" style="fill:none;stroke:#000000;stroke-width:0.0508" d="m 38.25 139.1 l 6.3 0 l 0 2.9 l -6.3 0 l 0 -2.9 z"/>
      <path id="hole_020" style="fill:none;stroke:#000000;stroke-width:0.0508" d="m 38.25 220.1 l 6.3 0 l 0 2.9 l -6.3 0 l 0 -2.9 z"/>
      <path id="hole_021" style="fill:none;stroke:#000000;stroke-width:0.0508" d="m 50.65 139.1 l 3.3 0 l 0 2.9 l -3.3 0 l 0 -2.9 z"/>
      <path id="hole_022" style="fill:none;stroke:#000000;stroke-width:0.0508" d="m 50.65 220.1 l 3.3 0 l 0 2.9 l -3.3 0 l 0 -2.9 z"/>
      <path id="side_014" style="fill:none;stroke:#000000;stroke-width:0.0508" d="m 54.1 61.1 l 0 3 l 3 0 l 0 6.1 l -3 0 l 0 5.9 l 3 0 l 0 6.1 l -3 0 l 0 5.9 l 3 0 l 0 6.1 l -3 0 l 0 5.9 l 3 0 l 0 6.1 l -3 0 l 0 5.9 l 3 0 l 0 6.1 l -3 0 l 0 5.9 l 3 0 l 0 6.1 l -3 0 l 0 5.9 l 3 0 l 0 6.1 l -3 0 l 0 5.9 l 3 0 l 0 6.1 l -3 0 l 0 5.9 l 3 0 l 0 6.1 l -3 0 l 0 5.9 l 3 0 l 0 6.1 l -3 0 l 0 5.9 l 3 0 l 0 6.1 l -3 0 l 0 5.9 l 3 0 l 0 6.1 l -3 0 l 0 5.9 l 3 0 l 0 6.1 l -3 0 l 0 5.9 l 3 0 l 0 6.1 l -3 0 l 0 5.9 l 3 0 l 0 6.1 l -3 0 l 0 5.9 l 3 0 l 0 6.1 l -3 0 l 0 5.9 l 3 0 l 0 6.1 l -3 0 l 0 5.9 l 3 0 l 0 6.1 l -3 0 l 0 5.9 l 3 0 l 0 6.1 l -3 0 l 0 5.9 l 3 0 l 0 6.1 l -3 0 l 0 3"/>
      <path id="side_015" style="fill:none;stroke:#000000;stroke-width:0.0508" d="m 54.1 301.2 l -3.4 0 l 0 3 l -6.1 0 l 0 -3 l -6.3 0 l 0 3 l -6.1 0 l 0 -3 l -6.3 0 l 0 3 l -6.1 0 l 0 -3 l -6.3 0 l 0 3 l -6.1 0 l 0 -3 l -3.4 0"/>
      <path id="side_016" style="fill:none;stroke:#000000;stroke-width:0.0508" d="m 4 301.2 l 0 -3 l -3 0 l 0 -6.1 l 3 0 l 0 -5.9 l -3 0 l 0 -6.1 l 3 0 l 0 -5.9 l -3 0 l 0 -6.1 l 3 0 l 0 -5.9 l -3 0 l 0 -6.1 l 3 0 l 0 -5.9 l -3 0 l 0 -6.1 l 3 0 l 0 -5.9 l -3 0 l 0 -6.1 l 3 0 l 0 -5.9 l -3 0 l 0 -6.1 l 3 0 l 0 -5.9 l -3 0 l 0 -6.1 l 3 0 l 0 -5.9 l -3 0 l 0 -6.1 l 3 0 l 0 -5.9 l -3 0 l 0 -6.1 l 3 0 l 0 -5.9 l -3 0 l 0 -6.1 l 3 0 l 0 -5.9 l -3 0 l 0 -6.1 l 3 0 l 0 -5.9 l -3 0 l 0 -6.1 l 3 0 l 0 -5.9 l -3 0 l 0 -6.1 l 3 0 l 0 -5.9 l -3 0 l 0 -6.1 l 3 0 l 0 -5.9 l -3 0 l 0 -6.1 l 3 0 l 0 -5.9 l -3 0 l 0 -6.1 l 3 0 l 0 -5.9 l -3 0 l 0 -6.1 l 3 0 l 0 -5.9 l -3 0 l 0 -6.1 l 3 0 l 0 -5.9 l -3 0 l 0 -6.1 l 3 0 l 0 -3"/>
    </g>
    <g id="ydivider_001">
      <path id="side_017" style="fill:none;stroke:#000000;stroke-width:0.0508" d="m 492.4 61.1 l 3.4 0 l 0 -3 l 6.1 0 l 0 3 l 6.3 0 l 0 -3 l 6.1 0 l 0 3 l 6.3 0 l 0 -3 l 6.1 0 l 0 3 l 6.3 0 l 0 -3 l 6.1 0 l 0 3 l 3.4 0"/>
      <path id="slot_007" style="fill:none;stroke:#000000;stroke-width:0.0508" d="m 489.4 139.2 l 28 0 l 0 2.9 l -28 0 l 0 -2.9 z"/>
      <path id="slot_008" style="fill:none;stroke:#000000;stroke-width:0.0508" d="m 489.4 220.2 l 28 0 l 0 2.9 l -28 0 l 0 -2.9 z"/>
      <path id="side_018" style="fill:none;stroke:#000000;stroke-width:0.0508" d="m 542.5 61.1 l 0 3 l 3 0 l 0 6.1 l -3 0 l 0 5.9 l 3 0 l 0 6.1 l -3 0 l 0 5.9 l 3 0 l 0 6.1 l -3 0 l 0 5.9 l 3 0 l 0 6.1 l -3 0 l 0 5.9 l 3 0 l 0 6.1 l -3 0 l 0 5.9 l 3 0 l 0 6.1 l -3 0 l 0 5.9 l 3 0 l 0 6.1 l -3 0 l 0 5.9 l 3 0 l 0 6.1 l -3 0 l 0 5.9 l 3 0 l 0 6.1 l -3 0 l 0 5.9 l 3 0 l 0 6.1 l -3 0 l 0 5.9 l 3 0 l 0 6.1 l -3 0 l 0 5.9 l 3 0 l 0 6.1 l -3 0 l 0 5.9 l 3 0 l 0 6.1 l -3 0 l 0 5.9 l 3 0 l 0 6.1 l -3 0 l 0 5.9 l 3 0 l 0 6.1 l -3 0 l 0 5.9 l 3 0 l 0 6.1 l -3 0 l 0 5.9 l 3 0 l 0 6.1 l -3 0 l 0 5.9 l 3 0 l 0 6.1 l -3 0 l 0 5.9 l 3 0 l 0 6.1 l -3 0 l 0 5.9 l 3 0 l 0 6.1 l -3 0 l 0 3"/>
      <path id="side_019" style="fill:none;stroke:#000000;stroke-width:0.0508" d="m 542.5 301.2 l -3.4 0 l 0 3 l -6.1 0 l 0 -3 l -6.3 0 l 0 3 l -6.1 0 l 0 -3 l -6.3 0 l 0 3 l -6.1 0 l 0 -3 l -6.3 0 l 0 3 l -6.1 0 l 0 -3 l -3.4 0"/>
      <path id="side_020" style="fill:none;stroke:#000000;stroke-width:0.0508" d="m 492.4 301.2 l 0 -3 l -3 0 l 0 -6.1 l 3 0 l 0 -5.9 l -3 0 l 0 -6.1 l 3 0 l 0 -5.9 l -3 0 l 0 -6.1 l 3 0 l 0 -5.9 l -3 0 l 0 -6.1 l 3 0 l 0 -5.9 l -3 0 l 0 -6.1 l 3 0 l 0 -5.9 l -3 0 l 0 -6.1 l 3 0 l 0 -5.9 l -3 0 l 0 -6.1 l 3 0 l 0 -5.9 l -3 0 l 0 -6.1 l 3 0 l 0 -5.9 l -3 0 l 0 -6.1 l 3 0 l 0 -5.9 l -3 0 l 0 -6.1 l 3 0 l 0 -5.9 l -3 0 l 0 -6.1 l 3 0 l 0 -5.9 l -3 0 l 0 -6.1 l 3 0 l 0 -5.9 l -3 0 l 0 -6.1 l 3 0 l 0 -5.9 l -3 0 l 0 -6.1 l 3 0 l 0 -5.9 l -3 0 l 0 -6.1 l 3 0 l 0 -5.9 l -3 0 l 0 -6.1 l 3 0 l 0 -5.9 l -3 0 l 0 -6.1 l 3 0 l 0 -5.9 l -3 0 l 0 -6.1 l 3 0 l 0 -5.9 l -3 0 l 0 -6.1 l 3 0 l 0 -5.9 l -3 0 l 0 -6.1 l 3 0 l 0 -3"/>
    </g>
    <g id="ydivider_002">
      <path id="side_021" style="fill:none;stroke:#000000;stroke-width:0.0508" d="m 549.5 61.1 l 3.4 0 l 0 -3 l 6.1 0 l 0 3 l 6.3 0 l 0 -3 l 6.1 0 l 0 3 l 6.3 0 l 0 -3 l 6.1 0 l 0 3 l 6.3 0 l 0 -3 l 6.1 0 l 0 3 l 3.4 0"/>
      <path id="slot_009" style="fill:none;stroke:#000000;stroke-width:0.0508" d="m 546.5 139.2 l 28 0 l 0 2.9 l -28 0 l 0 -2.9 z"/>
      <path id="slot_010" style="fill:none;stroke:#000000;stroke-width:0.0508" d="m 546.5 220.2 l 28 0 l 0 2.9 l -28 0 l 0 -2.9 z"/>
      <path id="side_022" style="fill:none;stroke:#000000;stroke-width:0.0508" d="m 599.6 61.1 l 0 3 l 3 0 l 0 6.1 l -3 0 l 0 5.9 l 3 0 l 0 6.1 l -3 0 l 0 5.9 l 3 0 l 0 6.1 l -3 0 l 0 5.9 l 3 0 l 0 6.1 l -3 0 l 0 5.9 l 3 0 l 0 6.1 l -3 0 l 0 5.9 l 3 0 l 0 6.1 l -3 0 l 0 5.9 l 3 0 l 0 6.1 l -3 0 l 0 5.9 l 3 0 l 0 6.1 l -3 0 l 0 5.9 l 3 0 l 0 6.1 l -3 0 l 0 5.9 l 3 0 l 0 6.1 l -3 0 l 0 5.9 l 3 0 l 0 6.1 l -3 0 l 0 5.9 l 3 0 l 0 6.1 l -3 0 l 0 5.9 l 3 0 l 0 6.1 l -3 0 l 0 5.9 l 3 0 l 0 6.1 l -3 0 l 0 5.9 l 3 0 l 0 6.1 l -3 0 l 0 5.9 l 3 0 l 0 6.1 l -3 0 l 0 5.9 l 3 0 l 0 6.1 l -3 0 l 0 5.9 l 3 0 l 0 6.1 l -3 0 l 0 5.9 l 3 0 l 0 6.1 l -3 0 l 0 5.9 l 3 0 l 0 6.1 l -3 0 l 0 3"/>
      <path id="side_023" style="fill:none;stroke:#000000;stroke-width:0.0508" d="m 599.6 301.2 l -3.4 0 l 0 3 l -6.1 0 l 0 -3 l -6.3 0 l 0 3 l -6.1 0 l 0 -3 l -6.3 0 l 0 3 l -6.1 0 l 0 -3 l -6.3 0 l 0 3 l -6.1 0 l 0 -3 l -3.4 0"/>
      <path id="side_024" style="fill:none;stroke:#000000;stroke-width:0.0508" d="m 549.5 301.2 l 0 -3 l -3 0 l 0 -6.1 l 3 0 l 0 -5.9 l -3 0 l 0 -6.1 l 3 0 l 0 -5.9 l -3 0 l 0 -6.1 l 3 0 l 0 -5.9 l -3 0 l 0 -6.1 l 3 0 l 0 -5.9 l -3 0 l 0 -6.1 l 3 0 l 0 -5.9 l -3 0 l 0 -6.1 l 3 0 l 0 -5.9 l -3 0 l 0 -6.1 l 3 0 l 0 -5.9 l -3 0 l 0 -6.1 l 3 0 l 0 -5.9 l -3 0 l 0 -6.1 l 3 0 l 0 -5.9 l -3 0 l 0 -6.1 l 3 0 l 0 -5.9 l -3 0 l 0 -6.1 l 3 0 l 0 -5.9 l -3 0 l 0 -6.1 l 3 0 l 0 -5.9 l -3 0 l 0 -6.1 l 3 0 l 0 -5.9 l -3 0 l 0 -6.1 l 3 0 l 0 -5.9 l -3 0 l 0 -6.1 l 3 0 l 0 -5.9 l -3 0 l 0 -6.1 l 3 0 l 0 -5.9 l -3 0 l 0 -6.1 l 3 0 l 0 -5.9 l -3 0 l 0 -6.1 l 3 0 l 0 -5.9 l -3 0 l 0 -6.1 l 3 0 l 0 -5.9 l -3 0 l 0 -6.1 l 3 0 l 0 -3"/>
    </g>
    <g id="ydivider_003">
      <path id="side_025" style="fill:none;stroke:#000000;stroke-width:0.0508" d="m 606.6 61.1 l 3.4 0 l 0 -3 l 6.1 0 l 0 3 l 6.3 0 l 0 -3 l 6.1 0 l 0 3 l 6.3 0 l 0 -3 l 6.1 0 l 0 3 l 6.3 0 l 0 -3 l 6.1 0 l 0 3 l 3.4 0"/>
      <path id="slot_011" style="fill:none;stroke:#000000;stroke-width:0.0508" d="m 603.6 139.2 l 28 0 l 0 2.9 l -28 0 l 0 -2.9 z"/>
      <path id="slot_012" style="fill:none;stroke:#000000;stroke-width:0.0508" d="m 603.6 220.2 l 28 0 l 0 2.9 l -28 0 l 0 -2.9 z"/>
      <path id="side_026" style="fill:none;stroke:#000000;stroke-width:0.0508" d="m 656.7 61.1 l 0 3 l 3 0 l 0 6.1 l -3 0 l 0 5.9 l 3 0 l 0 6.1 l -3 0 l 0 5.9 l 3 0 l 0 6.1 l -3 0 l 0 5.9 l 3 0 l 0 6.1 l -3 0 l 0 5.9 l 3 0 l 0 6.1 l -3 0 l 0 5.9 l 3 0 l 0 6.1 l -3 0 l 0 5.9 l 3 0 l 0 6.1 l -3 0 l 0 5.9 l 3 0 l 0 6.1 l -3 0 l 0 5.9 l 3 0 l 0 6.1 l -3 0 l 0 5.9 l 3 0 l 0 6.1 l -3 0 l 0 5.9 l 3 0 l 0 6.1 l -3 0 l 0 5.9 l 3 0 l 0 6.1 l -3 0 l 0 5.9 l 3 0 l 0 6.1 l -3 0 l 0 5.9 l 3 0 l 0 6.1 l -3 0 l 0 5.9 l 3 0 l 0 6.1 l -3 0 l 0 5.9 l 3 0 l 0 6.1 l -3 0 l 0 5.9 l 3 0 l 0 6.1 l -3 0 l 0 5.9 l 3 0 l 0 6.1 l -3 0 l 0 5.9 l 3 0 l 0 6.1 l -3 0 l 0 5.9 l 3 0 l 0 6.1 l -3 0 l 0 3"/>
      <path id="side_027" style="fill:none;stroke:#000000;stroke-width:0.0508" d="m 656.7 301.2 l -3.4 0 l 0 3 l -6.1 0 l 0 -3 l -6.3 0 l 0 3 l -6.1 0 l 0 -3 l -6.3 0 l 0 3 l -6.1 0 l 0 -3 l -6.3 0 l 0 3 l -6.1 0 l 0 -3 l -3.4 0"/>
      <path id="side_028" style="fill:none;stroke:#000000;stroke-width:0.0508" d="m 606.6 301.2 l 0 -3 l -3 0 l 0 -6.1 l 3 0 l 0 -5.9 l -3 0 l 0 -6.1 l 3 0 l 0 -5.9 l -3 0 l 0 -6.1 l 3 0 l 0 -5.9 l -3 0 l 0 -6.1 l 3 0 l 0 -5.9 l -3 0 l 0 -6.1 l 3 0 l 0 -5.9 l -3 0 l 0 -6.1 l 3 0 l 0 -5.9 l -3 0 l 0 -6.1 l 3 0 l 0 -5.9 l -3 0 l 0 -6.1 l 3 0 l 0 -5.9 l -3 0 l 0 -6.1 l 3 0 l 0 -5.9 l -3 0 l 0 -6.1 l 3 0 l 0 -5.9 l -3 0 l 0 -6.1 l 3 0 l 0 -5.9 l -3 0 l 0 -6.1 l 3 0 l 0 -5.9 l -3 0 l 0 -6.1 l 3 0 l 0 -5.9 l -3 0 l 0 -6.1 l 3 0 l 0 -5.9 l -3 0 l 0 -6.1 l 3 0 l 0 -5.9 l -3 0 l 0 -6.1 l 3 0 l 0 -5.9 l -3 0 l 0 -6.1 l 3 0 l 0 -5.9 l -3 0 l 0 -6.1 l 3 0 l 0 -5.9 l -3 0 l 0 -6.1 l 3 0 l 0 -5.9 l -3 0 l 0 -6.1 l 3 0 l 0 -3"/>
    </g>
    <g id="piece_003">
      <path id="side_029" style="fill:none;stroke:#000000;stroke-width:0.0508" d="m 58.1 58.1 l 6.1 0 l 0 3 l 5.9 0 l 0 -3 l 6.1 0 l 0 3 l 5.9 0 l 0 -3 l 6.1 0 l 0 3 l 5.9 0 l 0 -3 l 6.1 0 l 0 3 l 5.9 0 l 0 -3 l 6.1 0 l 0 3 l 5.9 0 l 0 -3 l 6.1 0 l 0 3 l 5.9 0 l 0 -3 l 6.1 0 l 0 3 l 5.9 0 l 0 -3 l 6.1 0 l 0 3 l 5.9 0 l 0 -3 l 6.1 0 l 0 3 l 5.9 0 l 0 -3 l 6.1 0 l 0 3 l 5.9 0 l 0 -3 l 6.1 0 l 0 3 l 5.9 0 l 0 -3 l 6.1 0 l 0 3 l 5.9 0 l 0 -3 l 6.1 0 l 0 3 l 5.9 0 l 0 -3 l 6.1 0 l 0 3 l 5.9 0 l 0 -3 l 6.1 0 l 0 3 l 5.9 0 l 0 -3 l 6.1 0"/>
      <path id="hole_023" style="fill:none;stroke:#000000;stroke-width:0.0508" d="m 64.25 139.1 l 5.9 0 l 0 2.9 l -5.9 0 l 0 -2.9 z"/>
      <path id="hole_024" style="fill:none;stroke:#000000;stroke-width:0.0508" d="m 64.25 220.1 l 5.9 0 l 0 2.9 l -5.9 0 l 0 -2.9 z"/>
      <path id="hole_025" style="fill:none;stroke:#000000;stroke-width:0.0508" d="m 76.25 139.1 l 5.9 0 l 0 2.9 l -5.9 0 l 0 -2.9 z"/>
      <path id="hole_026" style="fill:none;stroke:#000000;stroke-width:0.0508" d="m 76.25 220.1 l 5.9 0 l 0 2.9 l -5.9 0 l 0 -2.9 z"/>
      <path id="hole_027" style="fill:none;stroke:#000000;stroke-width:0.0508" d="m 88.25 139.1 l 5.9 0 l 0 2.9 l -5.9 0 l 0 -2.9 z"/>
      <path id="hole_028" style="fill:none;stroke:#000000;stroke-width:0.0508" d="m 88.25 220.1 l 5.9 0 l 0 2.9 l -5.9 0 l 0 -2.9 z"/>
      <path id="hole_029" style="fill:none;stroke:#000000;stroke-width:0.0508" d="m 100.25 139.1 l 5.9 0 l 0 2.9 l -5.9 0 l 0 -2.9 z"/>
      <path id="hole_030" style="fill:none;stroke:#000000;stroke-width:0.0508" d="m 100.25 220.1 l 5.9 0 l 0 2.9 l -5.9 0 l 0 -2.9 z"/>
      <path id="hole_031" style="fill:none;stroke:#000000;stroke-width:0.0508" d="m 112.25 139.1 l 5.9 0 l 0 2.9 l -5.9 0 l 0 -2.9 z"/>
      <path id="hole_032" style="fill:none;stroke:#000000;stroke-width:0.0508" d="m 112.25 220.1 l 5.9 0 l 0 2.9 l -5.9 0 l 0 -2.9 z"/>
      <path id="hole_033" style="fill:none;stroke:#000000;stroke-width:0.0508" d="m 124.25 139.1 l 5.9 0 l 0 2.9 l -5.9 0 l 0 -2.9 z"/>
      <path id="hole_034" style="fill:none;stroke:#000000;stroke-width:0.0508" d="m 124.25 220.1 l 5.9 0 l 0 2.9 l -5.9 0 l 0 -2.9 z"/>
      <path id="hole_035" style="fill:none;stroke:#000000;stroke-width:0.0508" d="m 136.25 139.1 l 5.9 0 l 0 2.9 l -5.9 0 l 0 -2.9 z"/>
      <path id="hole_036" style="fill:none;stroke:#000000;stroke-width:0.0508" d="m 136.25 220.1 l 5.9 0 l 0 2.9 l -5.9 0 l 0 -2.9 z"/>
      <path id="hole_037" style="fill:none;stroke:#000000;stroke-width:0.0508" d="m 148.25 139.1 l 5.9 0 l 0 2.9 l -5.9 0 l 0 -2.9 z"/>
      <path id="hole_038" style="fill:none;stroke:#000000;stroke-width:0.0508" d="m 148.25 220.1 l 5.9 0 l 0 2.9 l -5.9 0 l 0 -2.9 z"/>
      <path id="hole_039" style="fill:none;stroke:#000000;stroke-width:0.0508" d="m 160.25 139.1 l 5.9 0 l 0 2.9 l -5.9 0 l 0 -2.9 z"/>
      <path id="hole_040" style="fill:none;stroke:#000000;stroke-width:0.0508" d="m 160.25 220.1 l 5.9 0 l 0 2.9 l -5.9 0 l 0 -2.9 z"/>
      <path id="hole_041" style="fill:none;stroke:#000000;stroke-width:0.0508" d="m 172.25 139.1 l 5.9 0 l 0 2.9 l -5.9 0 l 0 -2.9 z"/>
      <path id="hole_042" style="fill:none;stroke:#000000;stroke-width:0.0508" d="m 172.25 220.1 l 5.9 0 l 0 2.9 l -5.9 0 l 0 -2.9 z"/>
      <path id="hole_043" style="fill:none;stroke:#000000;stroke-width:0.0508" d="m 184.25 139.1 l 5.9 0 l 0 2.9 l -5.9 0 l 0 -2.9 z"/>
      <path id="hole_044" style="fill:none;stroke:#000000;stroke-width:0.0508" d="m 184.25 220.1 l 5.9 0 l 0 2.9 l -5.9 0 l 0 -2.9 z"/>
      <path id="hole_045" style="fill:none;stroke:#000000;stroke-width:0.0508" d="m 196.25 139.1 l 5.9 0 l 0 2.9 l -5.9 0 l 0 -2.9 z"/>
      <path id="hole_046" style="fill:none;stroke:#000000;stroke-width:0.0508" d="m 196.25 220.1 l 5.9 0 l 0 2.9 l -5.9 0 l 0 -2.9 z"/>
      <path id="hole_047" style="fill:none;stroke:#000000;stroke-width:0.0508" d="m 208.25 139.1 l 5.9 0 l 0 2.9 l -5.9 0 l 0 -2.9 z"/>
      <path id="hole_048" style="fill:none;stroke:#000000;stroke-width:0.0508" d="m 208.25 220.1 l 5.9 0 l 0 2.9 l -5.9 0 l 0 -2.9 z"/>
      <path id="hole_049" style="fill:none;stroke:#000000;stroke-width:0.0508" d="m 220.25 139.1 l 5.9 0 l 0 2.9 l -5.9 0 l 0 -2.9 z"/>
      <path id="hole_050" style="fill:none;stroke:#000000;stroke-width:0.0508" d="m 220.25 220.1 l 5.9 0 l 0 2.9 l -5.9 0 l 0 -2.9 z"/>
      <path id="hole_051" style="fill:none;stroke:#000000;stroke-width:0.0508" d="m 232.25 139.1 l 5.9 0 l 0 2.9 l -5.9 0 l 0 -2.9 z"/>
      <path id="hole_052" style="fill:none;stroke:#000000;stroke-width:0.0508" d="m 232.25 220.1 l 5.9 0 l 0 2.9 l -5.9 0 l 0 -2.9 z"/>
      <path id="side_030" style="fill:none;stroke:#000000;stroke-width:0.0508" d="m 244.2 58.1 l 0 6.1 l -3 0 l 0 5.9 l 3 0 l 0 6.1 l -3 0 l 0 5.9 l 3 0 l 0 6.1 l -3 0 l 0 5.9 l 3 0 l 0 6.1 l -3 0 l 0 5.9 l 3 0 l 0 6.1 l -3 0 l 0 5.9 l 3 0 l 0 6.1 l -3 0 l 0 5.9 l 3 0 l 0 6.1 l -3 0 l 0 5.9 l 3 0 l 0 6.1 l -3 0 l 0 5.9 l 3 0 l 0 6.1 l -3 0 l 0 5.9 l 3 0 l 0 6.1 l -3 0 l 0 5.9 l 3 0 l 0 6.1 l -3 0 l 0 5.9 l 3 0 l 0 6.1 l -3 0 l 0 5.9 l 3 0 l 0 6.1 l -3 0 l 0 5.9 l 3 0 l 0 6.1 l -3 0 l 0 5.9 l 3 0 l 0 6.1 l -3 0 l 0 5.9 l 3 0 l 0 6.1 l -3 0 l 0 5.9 l 3 0 l 0 6.1 l -3 0 l 0 5.9 l 3 0 l 0 6.1 l -3 0 l 0 5.9 l 3 0 l 0 6.1 l -3 0 l 0 5.9 l 3 0 l 0 6.1 l -3 0 l 0 5.9 l 3 0 l 0 6.1"/>
      <path id="hole_053" style="fill:none;stroke:#000000;stroke-width:0.0508" d="m 198.45 64.25 l 0 5.9 l -2.9 0 l 0 -5.9 l 2.9 0 z"/>
      <path id="hole_054" style="fill:none;stroke:#000000;stroke-width:0.0508" d="m 152.7 64.25 l 0 5.9 l -2.9 0 l 0 -5.9 l 2.9 0 z"/>
      <path id="hole_055" style="fill:none;stroke:#000000;stroke-width:0.0508" d="m 106.95 64.25 l 0 5.9 l -2.9 0 l 0 -5.9 l 2.9 0 z"/>
      <path id="hole_056" style="fill:none;stroke:#000000;stroke-width:0.0508" d="m 198.45 76.25 l 0 5.9 l -2.9 0 l 0 -5.9 l 2.9 0 z"/>
      <path id="hole_057" style="fill:none;stroke:#000000;stroke-width:0.0508" d="m 152.7 76.25 l 0 5.9 l -2.9 0 l 0 -5.9 l 2.9 0 z"/>
      <path id="hole_058" style="fill:none;stroke:#000000;stroke-width:0.0508" d="m 106.95 76.25 l 0 5.9 l -2.9 0 l 0 -5.9 l 2.9 0 z"/>
      <path id="hole_059" style="fill:none;stroke:#000000;stroke-width:0.0508" d="m 198.45 88.25 l 0 5.9 l -2.9 0 l 0 -5.9 l 2.9 0 z"/>
      <path id="hole_060" style="fill:none;stroke:#000000;stroke-width:0.0508" d="m 152.7 88.25 l 0 5.9 l -2.9 0 l 0 -5.9 l 2.9 0 z"/>
      <path id="hole_061" style="fill:none;stroke:#000000;stroke-width:0.0508" d="m 106.95 88.25 l 0 5.9 l -2.9 0 l 0 -5.9 l 2.9 0 z"/>
      <path id="hole_062" style="fill:none;stroke:#000000;stroke-width:0.0508" d="m 198.45 100.25 l 0 5.9 l -2.9 0 l 0 -5.9 l 2.9 0 z"/>
      <path id="hole_063" style="fill:none;stroke:#000000;stroke-width:0.0508" d="m 152.7 100.25 l 0 5.9 l -2.9 0 l 0 -5.9 l 2.9 0 z"/>
      <path id="hole_064" style="fill:none;stroke:#000000;stroke-width:0.0508" d="m 106.95 100.25 l 0 5.9 l -2.9 0 l 0 -5.9 l 2.9 0 z"/>
      <path id="hole_065" style="fill:none;stroke:#000000;stroke-width:0.0508" d="m 198.45 112.25 l 0 5.9 l -2.9 0 l 0 -5.9 l 2.9 0 z"/>
      <path id="hole_066" style="fill:none;stroke:#000000;stroke-width:0.0508" d="m 152.7 112.25 l 0 5.9 l -2.9 0 l 0 -5.9 l 2.9 0 z"/>
      <path id="hole_067" style="fill:none;stroke:#000000;stroke-width:0.0508" d="m 106.95 112.25 l 0 5.9 l -2.9 0 l 0 -5.9 l 2.9 0 z"/>
      <path id="hole_068" style="fill:none;stroke:#000000;stroke-width:0.0508" d="m 198.45 124.25 l 0 5.9 l -2.9 0 l 0 -5.9 l 2.9 0 z"/>
      <path id="hole_069" style="fill:none;stroke:#000000;stroke-width:0.0508" d="m 152.7 124.25 l 0 5.9 l -2.9 0 l 0 -5.9 l 2.9 0 z"/>
      <path id="hole_070" style="fill:none;stroke:#000000;stroke-width:0.0508" d="m 106.95 124.25 l 0 5.9 l -2.9 0 l 0 -5.9 l 2.9 0 z"/>
      <path id="hole_071" style="fill:none;stroke:#000000;stroke-width:0.0508" d="m 198.45 136.25 l 0 5.9 l -2.9 0 l 0 -5.9 l 2.9 0 z"/>
      <path id="hole_072" style="fill:none;stroke:#000000;stroke-width:0.0508" d="m 152.7 136.25 l 0 5.9 l -2.9 0 l 0 -5.9 l 2.9 0 z"/>
      <path id="hole_073" style="fill:none;stroke:#000000;stroke-width:0.0508" d="m 106.95 136.25 l 0 5.9 l -2.9 0 l 0 -5.9 l 2.9 0 z"/>
      <path id="hole_074" style="fill:none;stroke:#000000;stroke-width:0.0508" d="m 198.45 148.25 l 0 5.9 l -2.9 0 l 0 -5.9 l 2.9 0 z"/>
      <path id="hole_075" style="fill:none;stroke:#000000;stroke-width:0.0508" d="m 152.7 148.25 l 0 5.9 l -2.9 0 l 0 -5.9 l 2.9 0 z"/>
      <path id="hole_076" style="fill:none;stroke:#000000;stroke-width:0.0508" d="m 106.95 148.25 l 0 5.9 l -2.9 0 l 0 -5.9 l 2.9 0 z"/>
      <path id="hole_077" style="fill:none;stroke:#000000;stroke-width:0.0508" d="m 198.45 160.25 l 0 5.9 l -2.9 0 l 0 -5.9 l 2.9 0 z"/>
      <path id="hole_078" style="fill:none;stroke:#000000;stroke-width:0.0508" d="m 152.7 160.25 l 0 5.9 l -2.9 0 l 0 -5.9 l 2.9 0 z"/>
      <path id="hole_079" style="fill:none;stroke:#000000;stroke-width:0.0508" d="m 106.95 160.25 l 0 5.9 l -2.9 0 l 0 -5.9 l 2.9 0 z"/>
      <path id="hole_080" style="fill:none;stroke:#000000;stroke-width:0.0508" d="m 198.45 172.25 l 0 5.9 l -2.9 0 l 0 -5.9 l 2.9 0 z"/>
      <path id="hole_081" style="fill:none;stroke:#000000;stroke-width:0.0508" d="m 152.7 172.25 l 0 5.9 l -2.9 0 l 0 -5.9 l 2.9 0 z"/>
      <path id="hole_082" style="fill:none;stroke:#000000;stroke-width:0.0508" d="m 106.95 172.25 l 0 5.9 l -2.9 0 l 0 -5.9 l 2.9 0 z"/>
      <path id="hole_083" style="fill:none;stroke:#000000;stroke-width:0.0508" d="m 198.45 184.25 l 0 5.9 l -2.9 0 l 0 -5.9 l 2.9 0 z"/>
      <path id="hole_084" style="fill:none;stroke:#000000;stroke-width:0.0508" d="m 152.7 184.25 l 0 5.9 l -2.9 0 l 0 -5.9 l 2.9 0 z"/>
      <path id="hole_085" style="fill:none;stroke:#000000;stroke-width:0.0508" d="m 106.95 184.25 l 0 5.9 l -2.9 0 l 0 -5.9 l 2.9 0 z"/>
      <path id="hole_086" style="fill:none;stroke:#000000;stroke-width:0.0508" d="m 198.45 196.25 l 0 5.9 l -2.9 0 l 0 -5.9 l 2.9 0 z"/>
      <path id="hole_087" style="fill:none;stroke:#000000;stroke-width:0.0508" d="m 152.7 196.25 l 0 5.9 l -2.9 0 l 0 -5.9 l 2.9 0 z"/>
      <path id="hole_088" style="fill:none;stroke:#000000;stroke-width:0.0508" d="m 106.95 196.25 l 0 5.9 l -2.9 0 l 0 -5.9 l 2.9 0 z"/>
      <path id="hole_089" style="fill:none;stroke:#000000;stroke-width:0.0508" d="m 198.45 208.25 l 0 5.9 l -2.9 0 l 0 -5.9 l 2.9 0 z"/>
      <path id="hole_090" style="fill:none;stroke:#000000;stroke-width:0.0508" d="m 152.7 208.25 l 0 5.9 l -2.9 0 l 0 -5.9 l 2.9 0 z"/>
      <path id="hole_091" style="fill:none;stroke:#000000;stroke-width:0.0508" d="m 106.95 208.25 l 0 5.9 l -2.9 0 l 0 -5.9 l 2.9 0 z"/>
      <path id="hole_092" style="fill:none;stroke:#000000;stroke-width:0.0508" d="m 198.45 220.25 l 0 5.9 l -2.9 0 l 0 -5.9 l 2.9 0 z"/>
      <path id="hole_093" style="fill:none;stroke:#000000;stroke-width:0.0508" d="m 152.7 220.25 l 0 5.9 l -2.9 0 l 0 -5.9 l 2.9 0 z"/>
      <path id="hole_094" style="fill:none;stroke:#000000;stroke-width:0.0508" d="m 106.95 220.25 l 0 5.9 l -2.9 0 l 0 -5.9 l 2.9 0 z"/>
      <path id="hole_095" style="fill:none;stroke:#000000;stroke-width:0.0508" d="m 198.45 232.25 l 0 5.9 l -2.9 0 l 0 -5.9 l 2.9 0 z"/>
      <path id="hole_096" style="fill:none;stroke:#000000;stroke-width:0.0508" d="m 152.7 232.25 l 0 5.9 l -2.9 0 l 0 -5.9 l 2.9 0 z"/>
      <path id="hole_097" style="fill:none;stroke:#000000;stroke-width:0.0508" d="m 106.95 232.25 l 0 5.9 l -2.9 0 l 0 -5.9 l 2.9 0 z"/>
      <path id="hole_098" style="fill:none;stroke:#000000;stroke-width:0.0508" d="m 198.45 244.25 l 0 5.9 l -2.9 0 l 0 -5.9 l 2.9 0 z"/>
      <path id="hole_099" style="fill:none;stroke:#000000;stroke-width:0.0508" d="m 152.7 244.25 l 0 5.9 l -2.9 0 l 0 -5.9 l 2.9 0 z"/>
      <path id="hole_100" style="fill:none;stroke:#000000;stroke-width:0.0508" d="m 106.95 244.25 l 0 5.9 l -2.9 0 l 0 -5.9 l 2.9 0 z"/>
      <path id="hole_101" style="fill:none;stroke:#000000;stroke-width:0.0508" d="m 198.45 256.25 l 0 5.9 l -2.9 0 l 0 -5.9 l 2.9 0 z"/>
      <path id="hole_102" style="fill:none;stroke:#000000;stroke-width:0.0508" d="m 152.7 256.25 l 0 5.9 l -2.9 0 l 0 -5.9 l 2.9 0 z"/>
      <path id="hole_103" style="fill:none;stroke:#000000;stroke-width:0.0508" d="m 106.95 256.25 l 0 5.9 l -2.9 0 l 0 -5.9 l 2.9 0 z"/>
      <path id="hole_104" style="fill:none;stroke:#000000;stroke-width:0.0508" d="m 198.45 268.25 l 0 5.9 l -2.9 0 l 0 -5.9 l 2.9 0 z"/>
      <path id="hole_105" style="fill:none;stroke:#000000;stroke-width:0.0508" d="m 152.7 268.25 l 0 5.9 l -2.9 0 l 0 -5.9 l 2.9 0 z"/>
      <path id="hole_106" style="fill:none;stroke:#000000;stroke-width:0.0508" d="m 106.95 268.25 l 0 5.9 l -2.9 0 l 0 -5.9 l 2.9 0 z"/>
      <path id="hole_107" style="fill:none;stroke:#000000;stroke-width:0.0508" d="m 198.45 280.25 l 0 5.9 l -2.9 0 l 0 -5.9 l 2.9 0 z"/>
      <path id="hole_108" style="fill:none;stroke:#000000;stroke-width:0.0508" d="m 152.7 280.25 l 0 5.9 l -2.9 0 l 0 -5.9 l 2.9 0 z"/>
      <path id="hole_109" style="fill:none;stroke:#000000;stroke-width:0.0508" d="m 106.95 280.25 l 0 5.9 l -2.9 0 l 0 -5.9 l 2.9 0 z"/>
      <path id="hole_110" style="fill:none;stroke:#000000;stroke-width:0.0508" d="m 198.45 292.25 l 0 5.9 l -2.9 0 l 0 -5.9 l 2.9 0 z"/>
      <path id="hole_111" style="fill:none;stroke:#000000;stroke-width:0.0508" d="m 152.7 292.25 l 0 5.9 l -2.9 0 l 0 -5.9 l 2.9 0 z"/>
      <path id="hole_112" style="fill:none;stroke:#000000;stroke-width:0.0508" d="m 106.95 292.25 l 0 5.9 l -2.9 0 l 0 -5.9 l 2.9 0 z"/>
      <path id="side_031" style="fill:none;stroke:#000000;stroke-width:0.0508" d="m 244.2 304.2 l -6.1 0 l 0 -3 l -5.9 0 l 0 3 l -6.1 0 l 0 -3 l -5.9 0 l 0 3 l -6.1 0 l 0 -3 l -5.9 0 l 0 3 l -6.1 0 l 0 -3 l -5.9 0 l 0 3 l -6.1 0 l 0 -3 l -5.9 0 l 0 3 l -6.1 0 l 0 -3 l -5.9 0 l 0 3 l -6.1 0 l 0 -3 l -5.9 0 l 0 3 l -6.1 0 l 0 -3 l -5.9 0 l 0 3 l -6.1 0 l 0 -3 l -5.9 0 l 0 3 l -6.1 0 l 0 -3 l -5.9 0 l 0 3 l -6.1 0 l 0 -3 l -5.9 0 l 0 3 l -6.1 0 l 0 -3 l -5.9 0 l 0 3 l -6.1 0 l 0 -3 l -5.9 0 l 0 3 l -6.1 0 l 0 -3 l -5.9 0 l 0 3 l -6.1 0 l 0 -3 l -5.9 0 l 0 3 l -6.1 0"/>
      <path id="side_032" style="fill:none;stroke:#000000;stroke-width:0.0508" d="m 58.1 304.2 l 0 -6.1 l 3 0 l 0 -5.9 l -3 0 l 0 -6.1 l 3 0 l 0 -5.9 l -3 0 l 0 -6.1 l 3 0 l 0 -5.9 l -3 0 l 0 -6.1 l 3 0 l 0 -5.9 l -3 0 l 0 -6.1 l 3 0 l 0 -5.9 l -3 0 l 0 -6.1 l 3 0 l 0 -5.9 l -3 0 l 0 -6.1 l 3 0 l 0 -5.9 l -3 0 l 0 -6.1 l 3 0 l 0 -5.9 l -3 0 l 0 -6.1 l 3 0 l 0 -5.9 l -3 0 l 0 -6.1 l 3 0 l 0 -5.9 l -3 0 l 0 -6.1 l 3 0 l 0 -5.9 l -3 0 l 0 -6.1 l 3 0 l 0 -5.9 l -3 0 l 0 -6.1 l 3 0 l 0 -5.9 l -3 0 l 0 -6.1 l 3 0 l 0 -5.9 l -3 0 l 0 -6.1 l 3 0 l 0 -5.9 l -3 0 l 0 -6.1 l 3 0 l 0 -5.9 l -3 0 l 0 -6.1 l 3 0 l 0 -5.9 l -3 0 l 0 -6.1 l 3 0 l 0 -5.9 l -3 0 l 0 -6.1 l 3 0 l 0 -5.9 l -3 0 l 0 -6.1 l 3 0 l 0 -5.9 l -3 0 l 0 -6.1"/>
    </g>
    <g id="piece_004">
      <path id="side_033" style="fill:none;stroke:#000000;stroke-width:0.0508" d="m 248.2 61.1 l 3.4 0 l 0 -3 l 6.1 0 l 0 3 l 6.3 0 l 0 -3 l 6.1 0 l 0 3 l 6.3 0 l 0 -3 l 6.1 0 l 0 3 l 6.3 0 l 0 -3 l 6.1 0 l 0 3 l 3.4 0"/>
      <path id="hole_113" style="fill:none;stroke:#000000;stroke-width:0.0508" d="m 248.25 139.1 l 3.3 0 l 0 2.9 l -3.3 0 l 0 -2.9 z"/>
      <path id="hole_114" style="fill:none;stroke:#000000;stroke-width:0.0508" d="m 248.25 220.1 l 3.3 0 l 0 2.9 l -3.3 0 l 0 -2.9 z"/>
      <path id="hole_115" style="fill:none;stroke:#000000;stroke-width:0.0508" d="m 257.65 139.1 l 6.3 0 l 0 2.9 l -6.3 0 l 0 -2.9 z"/>
      <path id="hole_116" style="fill:none;stroke:#000000;stroke-width:0.0508" d="m 257.65 220.1 l 6.3 0 l 0 2.9 l -6.3 0 l 0 -2.9 z"/>
      <path id="hole_117" style="fill:none;stroke:#000000;stroke-width:0.0508" d="m 270.05 139.1 l 6.3 0 l 0 2.9 l -6.3 0 l 0 -2.9 z"/>
      <path id="hole_118" style="fill:none;stroke:#000000;stroke-width:0.0508" d="m 270.05 220.1 l 6.3 0 l 0 2.9 l -6.3 0 l 0 -2.9 z"/>
      <path id="hole_119" style="fill:none;stroke:#000000;stroke-width:0.0508" d="m 282.45 139.1 l 6.3 0 l 0 2.9 l -6.3 0 l 0 -2.9 z"/>
      <path id="hole_120" style="fill:none;stroke:#000000;stroke-width:0.0508" d="m 282.45 220.1 l 6.3 0 l 0 2.9 l -6.3 0 l 0 -2.9 z"/>
      <path id="hole_121" style="fill:none;stroke:#000000;stroke-width:0.0508" d="m 294.85 139.1 l 3.3 0 l 0 2.9 l -3.3 0 l 0 -2.9 z"/>
      <path id="hole_122" style="fill:none;stroke:#000000;stroke-width:0.0508" d="m 294.85 220.1 l 3.3 0 l 0 2.9 l -3.3 0 l 0 -2.9 z"/>
      <path id="side_034" style="fill:none;stroke:#000000;stroke-width:0.0508" d="m 298.3 61.1 l 0 3 l 3 0 l 0 6.1 l -3 0 l 0 5.9 l 3 0 l 0 6.1 l -3 0 l 0 5.9 l 3 0 l 0 6.1 l -3 0 l 0 5.9 l 3 0 l 0 6.1 l -3 0 l 0 5.9 l 3 0 l 0 6.1 l -3 0 l 0 5.9 l 3 0 l 0 6.1 l -3 0 l 0 5.9 l 3 0 l 0 6.1 l -3 0 l 0 5.9 l 3 0 l 0 6.1 l -3 0 l 0 5.9 l 3 0 l 0 6.1 l -3 0 l 0 5.9 l 3 0 l 0 6.1 l -3 0 l 0 5.9 l 3 0 l 0 6.1 l -3 0 l 0 5.9 l 3 0 l 0 6.1 l -3 0 l 0 5.9 l 3 0 l 0 6.1 l -3 0 l 0 5.9 l 3 0 l 0 6.1 l -3 0 l 0 5.9 l 3 0 l 0 6.1 l -3 0 l 0 5.9 l 3 0 l 0 6.1 l -3 0 l 0 5.9 l 3 0 l 0 6.1 l -3 0 l 0 5.9 l 3 0 l 0 6.1 l -3 0 l 0 5.9 l 3 0 l 0 6.1 l -3 0 l 0 5.9 l 3 0 l 0 6.1 l -3 0 l 0 3"/>
      <path id="side_035" style="fill:none;stroke:#000000;stroke-width:0.0508" d="m 298.3 301.2 l -3.4 0 l 0 3 l -6.1 0 l 0 -3 l -6.3 0 l 0 3 l -6.1 0 l 0 -3 l -6.3 0 l 0 3 l -6.1 0 l 0 -3 l -6.3 0 l 0 3 l -6.1 0 l 0 -3 l -3.4 0"/>
      <path id="side_036" style="fill:none;stroke:#000000;stroke-width:0.0508" d="m 248.2 301.2 l 0 -3 l -3 0 l 0 -6.1 l 3 0 l 0 -5.9 l -3 0 l 0 -6.1 l 3 0 l 0 -5.9 l -3 0 l 0 -6.1 l 3 0 l 0 -5.9 l -3 0 l 0 -6.1 l 3 0 l 0 -5.9 l -3 0 l 0 -6.1 l 3 0 l 0 -5.9 l -3 0 l 0 -6.1 l 3 0 l 0 -5.9 l -3 0 l 0 -6.1 l 3 0 l 0 -5.9 l -3 0 l 0 -6.1 l 3 0 l 0 -5.9 l -3 0 l 0 -6.1 l 3 0 l 0 -5.9 l -3 0 l 0 -6.1 l 3 0 l 0 -5.9 l -3 0 l 0 -6.1 l 3 0 l 0 -5.9 l -3 0 l 0 -6.1 l 3 0 l 0 -5.9 l -3 0 l 0 -6.1 l 3 0 l 0 -5.9 l -3 0 l 0 -6.1 l 3 0 l 0 -5.9 l -3 0 l 0 -6.1 l 3 0 l 0 -5.9 l -3 0 l 0 -6.1 l 3 0 l 0 -5.9 l -3 0 l 0 -6.1 l 3 0 l 0 -5.9 l -3 0 l 0 -6.1 l 3 0 l 0 -5.9 l -3 0 l 0 -6.1 l 3 0 l 0 -5.9 l -3 0 l 0 -6.1 l 3 0 l 0 -3"/>
    </g>
    <g id="piece_005">
      <path id="side_037" style="fill:none;stroke:#000000;stroke-width:0.0508" d="m 302.3 58.1 l 6.1 0 l 0 3 l 5.9 0 l 0 -3 l 6.1 0 l 0 3 l 5.9 0 l 0 -3 l 6.1 0 l 0 3 l 5.9 0 l 0 -3 l 6.1 0 l 0 3 l 5.9 0 l 0 -3 l 6.1 0 l 0 3 l 5.9 0 l 0 -3 l 6.1 0 l 0 3 l 5.9 0 l 0 -3 l 6.1 0 l 0 3 l 5.9 0 l 0 -3 l 6.1 0 l 0 3 l 5.9 0 l 0 -3 l 6.1 0 l 0 3 l 5.9 0 l 0 -3 l 6.1 0 l 0 3 l 5.9 0 l 0 -3 l 6.1 0 l 0 3 l 5.9 0 l 0 -3 l 6.1 0 l 0 3 l 5.9 0 l 0 -3 l 6.1 0 l 0 3 l 5.9 0 l 0 -3 l 6.1 0 l 0 3 l 5.9 0 l 0 -3 l 6.1 0 l 0 3 l 5.9 0 l 0 -3 l 6.1 0"/>
      <path id="hole_123" style="fill:none;stroke:#000000;stroke-width:0.0508" d="m 308.45 139.1 l 5.9 0 l 0 2.9 l -5.9 0 l 0 -2.9 z"/>
      <path id="hole_124" style="fill:none;stroke:#000000;stroke-width:0.0508" d="m 308.45 220.1 l 5.9 0 l 0 2.9 l -5.9 0 l 0 -2.9 z"/>
      <path id="hole_125" style="fill:none;stroke:#000000;stroke-width:0.0508" d="m 320.45 139.1 l 5.9 0 l 0 2.9 l -5.9 0 l 0 -2.9 z"/>
      <path id="hole_126" style="fill:none;stroke:#000000;stroke-width:0.0508" d="m 320.45 220.1 l 5.9 0 l 0 2.9 l -5.9 0 l 0 -2.9 z"/>
      <path id="hole_127" style="fill:none;stroke:#000000;stroke-width:0.0508" d="m 332.45 139.1 l 5.9 0 l 0 2.9 l -5.9 0 l 0 -2.9 z"/>
      <path id="hole_128" style="fill:none;stroke:#000000;stroke-width:0.0508" d="m 332.45 220.1 l 5.9 0 l 0 2.9 l -5.9 0 l 0 -2.9 z"/>
      <path id="hole_129" style="fill:none;stroke:#000000;stroke-width:0.0508" d="m 344.45 139.1 l 5.9 0 l 0 2.9 l -5.9 0 l 0 -2.9 z"/>
      <path id="hole_130" style="fill:none;stroke:#000000;stroke-width:0.0508" d="m 344.45 220.1 l 5.9 0 l 0 2.9 l -5.9 0 l 0 -2.9 z"/>
      <path id="hole_131" style="fill:none;stroke:#000000;stroke-width:0.0508" d="m 356.45 139.1 l 5.9 0 l 0 2.9 l -5.9 0 l 0 -2.9 z"/>
      <path id="hole_132" style="fill:none;stroke:#000000;stroke-width:0.0508" d="m 356.45 220.1 l 5.9 0 l 0 2.9 l -5.9 0 l 0 -2.9 z"/>
      <path id="hole_133" style="fill:none;stroke:#000000;stroke-width:0.0508" d="m 368.45 139.1 l 5.9 0 l 0 2.9 l -5.9 0 l 0 -2.9 z"/>
      <path id="hole_134" style="fill:none;stroke:#000000;stroke-width:0.0508" d="m 368.45 220.1 l 5.9 0 l 0 2.9 l -5.9 0 l 0 -2.9 z"/>
      <path id="hole_135" style="fill:none;stroke:#000000;stroke-width:0.0508" d="m 380.45 139.1 l 5.9 0 l 0 2.9 l -5.9 0 l 0 -2.9 z"/>
      <path id="hole_136" style="fill:none;stroke:#000000;stroke-width:0.0508" d="m 380.45 220.1 l 5.9 0 l 0 2.9 l -5.9 0 l 0 -2.9 z"/>
      <path id="hole_137" style="fill:none;stroke:#000000;stroke-width:0.0508" d="m 392.45 139.1 l 5.9 0 l 0 2.9 l -5.9 0 l 0 -2.9 z"/>
      <path id="hole_138" style="fill:none;stroke:#000000;stroke-width:0.0508" d="m 392.45 220.1 l 5.9 0 l 0 2.9 l -5.9 0 l 0 -2.9 z"/>
      <path id="hole_139" style="fill:none;stroke:#000000;stroke-width:0.0508" d="m 404.45 139.1 l 5.9 0 l 0 2.9 l -5.9 0 l 0 -2.9 z"/>
      <path id="hole_140" style="fill:none;stroke:#000000;stroke-width:0.0508" d="m 404.45 220.1 l 5.9 0 l 0 2.9 l -5.9 0 l 0 -2.9 z"/>
      <path id="hole_141" style="fill:none;stroke:#000000;stroke-width:0.0508" d="m 416.45 139.1 l 5.9 0 l 0 2.9 l -5.9 0 l 0 -2.9 z"/>
      <path id="hole_142" style="fill:none;stroke:#000000;stroke-width:0.0508" d="m 416.45 220.1 l 5.9 0 l 0 2.9 l -5.9 0 l 0 -2.9 z"/>
      <path id="hole_143" style="fill:none;stroke:#000000;stroke-width:0.0508" d="m 428.45 139.1 l 5.9 0 l 0 2.9 l -5.9 0 l 0 -2.9 z"/>
      <path id="hole_144" style="fill:none;stroke:#000000;stroke-width:0.0508" d="m 428.45 220.1 l 5.9 0 l 0 2.9 l -5.9 0 l 0 -2.9 z"/>
      <path id="hole_145" style="fill:none;stroke:#000000;stroke-width:0.0508" d="m 440.45 139.1 l 5.9 0 l 0 2.9 l -5.9 0 l 0 -2.9 z"/>
      <path id="hole_146" style="fill:none;stroke:#000000;stroke-width:0.0508" d="m 440.45 220.1 l 5.9 0 l 0 2.9 l -5.9 0 l 0 -2.9 z"/>
      <path id="hole_147" style="fill:none;stroke:#000000;stroke-width:0.0508" d="m 452.45 139.1 l 5.9 0 l 0 2.9 l -5.9 0 l 0 -2.9 z"/>
      <path id="hole_148" style="fill:none;stroke:#000000;stroke-width:0.0508" d="m 452.45 220.1 l 5.9 0 l 0 2.9 l -5.9 0 l 0 -2.9 z"/>
      <path id="hole_149" style="fill:none;stroke:#000000;stroke-width:0.0508" d="m 464.45 139.1 l 5.9 0 l 0 2.9 l -5.9 0 l 0 -2.9 z"/>
      <path id="hole_150" style="fill:none;stroke:#000000;stroke-width:0.0508" d="m 464.45 220.1 l 5.9 0 l 0 2.9 l -5.9 0 l 0 -2.9 z"/>
      <path id="hole_151" style="fill:none;stroke:#000000;stroke-width:0.0508" d="m 476.45 139.1 l 5.9 0 l 0 2.9 l -5.9 0 l 0 -2.9 z"/>
      <path id="hole_152" style="fill:none;stroke:#000000;stroke-width:0.0508" d="m 476.45 220.1 l 5.9 0 l 0 2.9 l -5.9 0 l 0 -2.9 z"/>
      <path id="side_038" style="fill:none;stroke:#000000;stroke-width:0.0508" d="m 488.4 58.1 l 0 6.1 l -3 0 l 0 5.9 l 3 0 l 0 6.1 l -3 0 l 0 5.9 l 3 0 l 0 6.1 l -3 0 l 0 5.9 l 3 0 l 0 6.1 l -3 0 l 0 5.9 l 3 0 l 0 6.1 l -3 0 l 0 5.9 l 3 0 l 0 6.1 l -3 0 l 0 5.9 l 3 0 l 0 6.1 l -3 0 l 0 5.9 l 3 0 l 0 6.1 l -3 0 l 0 5.9 l 3 0 l 0 6.1 l -3 0 l 0 5.9 l 3 0 l 0 6.1 l -3 0 l 0 5.9 l 3 0 l 0 6.1 l -3 0 l 0 5.9 l 3 0 l 0 6.1 l -3 0 l 0 5.9 l 3 0 l 0 6.1 l -3 0 l 0 5.9 l 3 0 l 0 6.1 l -3 0 l 0 5.9 l 3 0 l 0 6.1 l -3 0 l 0 5.9 l 3 0 l 0 6.1 l -3 0 l 0 5.9 l 3 0 l 0 6.1 l -3 0 l 0 5.9 l 3 0 l 0 6.1 l -3 0 l 0 5.9 l 3 0 l 0 6.1 l -3 0 l 0 5.9 l 3 0 l 0 6.1 l -3 0 l 0 5.9 l 3 0 l 0 6.1"/>
      <path id="hole_153" style="fill:none;stroke:#000000;stroke-width:0.0508" d="m 442.65 64.25 l 0 5.9 l -2.9 0 l 0 -5.9 l 2.9 0 z"/>
      <path id="hole_154" style="fill:none;stroke:#000000;stroke-width:0.0508" d="m 396.9 64.25 l 0 5.9 l -2.9 0 l 0 -5.9 l 2.9 0 z"/>
      <path id="hole_155" style="fill:none;stroke:#000000;stroke-width:0.0508" d="m 351.15 64.25 l 0 5.9 l -2.9 0 l 0 -5.9 l 2.9 0 z"/>
      <path id="hole_156" style="fill:none;stroke:#000000;stroke-width:0.0508" d="m 442.65 76.25 l 0 5.9 l -2.9 0 l 0 -5.9 l 2.9 0 z"/>
      <path id="hole_157" style="fill:none;stroke:#000000;stroke-width:0.0508" d="m 396.9 76.25 l 0 5.9 l -2.9 0 l 0 -5.9 l 2.9 0 z"/>
      <path id="hole_158" style="fill:none;stroke:#000000;stroke-width:0.0508" d="m 351.15 76.25 l 0 5.9 l -2.9 0 l 0 -5.9 l 2.9 0 z"/>
      <path id="hole_159" style="fill:none;stroke:#000000;stroke-width:0.0508" d="m 442.65 88.25 l 0 5.9 l -2.9 0 l 0 -5.9 l 2.9 0 z"/>
      <path id="hole_160" style="fill:none;stroke:#000000;stroke-width:0.0508" d="m 396.9 88.25 l 0 5.9 l -2.9 0 l 0 -5.9 l 2.9 0 z"/>
      <path id="hole_161" style="fill:none;stroke:#000000;stroke-width:0.0508" d="m 351.15 88.25 l 0 5.9 l -2.9 0 l 0 -5.9 l 2.9 0 z"/>
      <path id="hole_162" style="fill:none;stroke:#000000;stroke-width:0.0508" d="m 442.65 100.25 l 0 5.9 l -2.9 0 l 0 -5.9 l 2.9 0 z"/>
      <path id="hole_163" style="fill:none;stroke:#000000;stroke-width:0.0508" d="m 396.9 100.25 l 0 5.9 l -2.9 0 l 0 -5.9 l 2.9 0 z"/>
      <path id="hole_164" style="fill:none;stroke:#000000;stroke-width:0.0508" d="m 351.15 100.25 l 0 5.9 l -2.9 0 l 0 -5.9 l 2.9 0 z"/>
      <path id="hole_165" style="fill:none;stroke:#000000;stroke-width:0.0508" d="m 442.65 112.25 l 0 5.9 l -2.9 0 l 0 -5.9 l 2.9 0 z"/>
      <path id="hole_166" style="fill:none;stroke:#000000;stroke-width:0.0508" d="m 396.9 112.25 l 0 5.9 l -2.9 0 l 0 -5.9 l 2.9 0 z"/>
      <path id="hole_167" style="fill:none;stroke:#000000;stroke-width:0.0508" d="m 351.15 112.25 l 0 5.9 l -2.9 0 l 0 -5.9 l 2.9 0 z"/>
      <path id="hole_168" style="fill:none;stroke:#000000;stroke-width:0.0508" d="m 442.65 124.25 l 0 5.9 l -2.9 0 l 0 -5.9 l 2.9 0 z"/>
      <path id="hole_169" style="fill:none;stroke:#000000;stroke-width:0.0508" d="m 396.9 124.25 l 0 5.9 l -2.9 0 l 0 -5.9 l 2.9 0 z"/>
      <path id="hole_170" style="fill:none;stroke:#000000;stroke-width:0.0508" d="m 351.15 124.25 l 0 5.9 l -2.9 0 l 0 -5.9 l 2.9 0 z"/>
      <path id="hole_171" style="fill:none;stroke:#000000;stroke-width:0.0508" d="m 442.65 136.25 l 0 5.9 l -2.9 0 l 0 -5.9 l 2.9 0 z"/>
      <path id="hole_172" style="fill:none;stroke:#000000;stroke-width:0.0508" d="m 396.9 136.25 l 0 5.9 l -2.9 0 l 0 -5.9 l 2.9 0 z"/>
      <path id="hole_173" style="fill:none;stroke:#000000;stroke-width:0.0508" d="m 351.15 136.25 l 0 5.9 l -2.9 0 l 0 -5.9 l 2.9 0 z"/>
      <path id="hole_174" style="fill:none;stroke:#000000;stroke-width:0.0508" d="m 442.65 148.25 l 0 5.9 l -2.9 0 l 0 -5.9 l 2.9 0 z"/>
      <path id="hole_175" style="fill:none;stroke:#000000;stroke-width:0.0508" d="m 396.9 148.25 l 0 5.9 l -2.9 0 l 0 -5.9 l 2.9 0 z"/>
      <path id="hole_176" style="fill:none;stroke:#000000;stroke-width:0.0508" d="m 351.15 148.25 l 0 5.9 l -2.9 0 l 0 -5.9 l 2.9 0 z"/>
      <path id="hole_177" style="fill:none;stroke:#000000;stroke-width:0.0508" d="m 442.65 160.25 l 0 5.9 l -2.9 0 l 0 -5.9 l 2.9 0 z"/>
      <path id="hole_178" style="fill:none;stroke:#000000;stroke-width:0.0508" d="m 396.9 160.25 l 0 5.9 l -2.9 0 l 0 -5.9 l 2.9 0 z"/>
      <path id="hole_179" style="fill:none;stroke:#000000;stroke-width:0.0508" d="m 351.15 160.25 l 0 5.9 l -2.9 0 l 0 -5.9 l 2.9 0 z"/>
      <path id="hole_180" style="fill:none;stroke:#000000;stroke-width:0.0508" d="m 442.65 172.25 l 0 5.9 l -2.9 0 l 0 -5.9 l 2.9 0 z"/>
      <path id="hole_181" style="fill:none;stroke:#000000;stroke-width:0.0508" d="m 396.9 172.25 l 0 5.9 l -2.9 0 l 0 -5.9 l 2.9 0 z"/>
      <path id="hole_182" style="fill:none;stroke:#000000;stroke-width:0.0508" d="m 351.15 172.25 l 0 5.9 l -2.9 0 l 0 -5.9 l 2.9 0 z"/>
      <path id="hole_183" style="fill:none;stroke:#000000;stroke-width:0.0508" d="m 442.65 184.25 l 0 5.9 l -2.9 0 l 0 -5.9 l 2.9 0 z"/>
      <path id="hole_184" style="fill:none;stroke:#000000;stroke-width:0.0508" d="m 396.9 184.25 l 0 5.9 l -2.9 0 l 0 -5.9 l 2.9 0 z"/>
      <path id="hole_185" style="fill:none;stroke:#000000;stroke-width:0.0508" d="m 351.15 184.25 l 0 5.9 l -2.9 0 l 0 -5.9 l 2.9 0 z"/>
      <path id="hole_186" style="fill:none;stroke:#000000;stroke-width:0.0508" d="m 442.65 196.25 l 0 5.9 l -2.9 0 l 0 -5.9 l 2.9 0 z"/>
      <path id="hole_187" style="fill:none;stroke:#000000;stroke-width:0.0508" d="m 396.9 196.25 l 0 5.9 l -2.9 0 l 0 -5.9 l 2.9 0 z"/>
      <path id="hole_188" style="fill:none;stroke:#000000;stroke-width:0.0508" d="m 351.15 196.25 l 0 5.9 l -2.9 0 l 0 -5.9 l 2.9 0 z"/>
      <path id="hole_189" style="fill:none;stroke:#000000;stroke-width:0.0508" d="m 442.65 208.25 l 0 5.9 l -2.9 0 l 0 -5.9 l 2.9 0 z"/>
      <path id="hole_190" style="fill:none;stroke:#000000;stroke-width:0.0508" d="m 396.9 208.25 l 0 5.9 l -2.9 0 l 0 -5.9 l 2.9 0 z"/>
      <path id="hole_191" style="fill:none;stroke:#000000;stroke-width:0.0508" d="m 351.15 208.25 l 0 5.9 l -2.9 0 l 0 -5.9 l 2.9 0 z"/>
      <path id="hole_192" style="fill:none;stroke:#000000;stroke-width:0.0508" d="m 442.65 220.25 l 0 5.9 l -2.9 0 l 0 -5.9 l 2.9 0 z"/>
      <path id="hole_193" style="fill:none;stroke:#000000;stroke-width:0.0508" d="m 396.9 220.25 l 0 5.9 l -2.9 0 l 0 -5.9 l 2.9 0 z"/>
      <path id="hole_194" style="fill:none;stroke:#000000;stroke-width:0.0508" d="m 351.15 220.25 l 0 5.9 l -2.9 0 l 0 -5.9 l 2.9 0 z"/>
      <path id="hole_195" style="fill:none;stroke:#000000;stroke-width:0.0508" d="m 442.65 232.25 l 0 5.9 l -2.9 0 l 0 -5.9 l 2.9 0 z"/>
      <path id="hole_196" style="fill:none;stroke:#000000;stroke-width:0.0508" d="m 396.9 232.25 l 0 5.9 l -2.9 0 l 0 -5.9 l 2.9 0 z"/>
      <path id="hole_197" style="fill:none;stroke:#000000;stroke-width:0.0508" d="m 351.15 232.25 l 0 5.9 l -2.9 0 l 0 -5.9 l 2.9 0 z"/>
      <path id="hole_198" style="fill:none;stroke:#000000;stroke-width:0.0508" d="m 442.65 244.25 l 0 5.9 l -2.9 0 l 0 -5.9 l 2.9 0 z"/>
      <path id="hole_199" style="fill:none;stroke:#000000;stroke-width:0.0508" d="m 396.9 244.25 l 0 5.9 l -2.9 0 l 0 -5.9 l 2.9 0 z"/>
      <path id="hole_200" style="fill:none;stroke:#000000;stroke-width:0.0508" d="m 351.15 244.25 l 0 5.9 l -2.9 0 l 0 -5.9 l 2.9 0 z"/>
      <path id="hole_201" style="fill:none;stroke:#000000;stroke-width:0.0508" d="m 442.65 256.25 l 0 5.9 l -2.9 0 l 0 -5.9 l 2.9 0 z"/>
      <path id="hole_202" style="fill:none;stroke:#000000;stroke-width:0.0508" d="m 396.9 256.25 l 0 5.9 l -2.9 0 l 0 -5.9 l 2.9 0 z"/>
      <path id="hole_203" style="fill:none;stroke:#000000;stroke-width:0.0508" d="m 351.15 256.25 l 0 5.9 l -2.9 0 l 0 -5.9 l 2.9 0 z"/>
      <path id="hole_204" style="fill:none;stroke:#000000;stroke-width:0.0508" d="m 442.65 268.25 l 0 5.9 l -2.9 0 l 0 -5.9 l 2.9 0 z"/>
      <path id="hole_205" style="fill:none;stroke:#000000;stroke-width:0.0508" d="m 396.9 268.25 l 0 5.9 l -2.9 0 l 0 -5.9 l 2.9 0 z"/>
      <path id="hole_206" style="fill:none;stroke:#000000;stroke-width:0.0508" d="m 351.15 268.25 l 0 5.9 l -2.9 0 l 0 -5.9 l 2.9 0 z"/>
      <path id="hole_207" style="fill:none;stroke:#000000;stroke-width:0.0508" d="m 442.65 280.25 l 0 5.9 l -2.9 0 l 0 -5.9 l 2.9 0 z"/>
      <path id="hole_208" style="fill:none;stroke:#000000;stroke-width:0.0508" d="m 396.9 280.25 l 0 5.9 l -2.9 0 l 0 -5.9 l 2.9 0 z"/>
      <path id="hole_209" style="fill:none;stroke:#000000;stroke-width:0.0508" d="m 351.15 280.25 l 0 5.9 l -2.9 0 l 0 -5.9 l 2.9 0 z"/>
      <path id="hole_210" style="fill:none;stroke:#000000;stroke-width:0.0508" d="m 442.65 292.25 l 0 5.9 l -2.9 0 l 0 -5.9 l 2.9 0 z"/>
      <path id="hole_211" style="fill:none;stroke:#000000;stroke-width:0.0508" d="m 396.9 292.25 l 0 5.9 l -2.9 0 l 0 -5.9 l 2.9 0 z"/>
      <path id="hole_212" style="fill:none;stroke:#000000;stroke-width:0.0508" d="m 351.15 292.25 l 0 5.9 l -2.9 0 l 0 -5.9 l 2.9 0 z"/>
      <path id="side_039" style="fill:none;stroke:#000000;stroke-width:0.0508" d="m 488.4 304.2 l -6.1 0 l 0 -3 l -5.9 0 l 0 3 l -6.1 0 l 0 -3 l -5.9 0 l 0 3 l -6.1 0 l 0 -3 l -5.9 0 l 0 3 l -6.1 0 l 0 -3 l -5.9 0 l 0 3 l -6.1 0 l 0 -3 l -5.9 0 l 0 3 l -6.1 0 l 0 -3 l -5.9 0 l 0 3 l -6.1 0 l 0 -3 l -5.9 0 l 0 3 l -6.1 0 l 0 -3 l -5.9 0 l 0 3 l -6.1 0 l 0 -3 l -5.9 0 l 0 3 l -6.1 0 l 0 -3 l -5.9 0 l 0 3 l -6.1 0 l 0 -3 l -5.9 0 l 0 3 l -6.1 0 l 0 -3 l -5.9 0 l 0 3 l -6.1 0 l 0 -3 l -5.9 0 l 0 3 l -6.1 0 l 0 -3 l -5.9 0 l 0 3 l -6.1 0 l 0 -3 l -5.9 0 l 0 3 l -6.1 0"/>
      <path id="side_040" style="fill:none;stroke:#000000;stroke-width:0.0508" d="m 302.3 304.2 l 0 -6.1 l 3 0 l 0 -5.9 l -3 0 l 0 -6.1 l 3 0 l 0 -5.9 l -3 0 l 0 -6.1 l 3 0 l 0 -5.9 l -3 0 l 0 -6.1 l 3 0 l 0 -5.9 l -3 0 l 0 -6.1 l 3 0 l 0 -5.9 l -3 0 l 0 -6.1 l 3 0 l 0 -5.9 l -3 0 l 0 -6.1 l 3 0 l 0 -5.9 l -3 0 l 0 -6.1 l 3 0 l 0 -5.9 l -3 0 l 0 -6.1 l 3 0 l 0 -5.9 l -3 0 l 0 -6.1 l 3 0 l 0 -5.9 l -3 0 l 0 -6.1 l 3 0 l 0 -5.9 l -3 0 l 0 -6.1 l 3 0 l 0 -5.9 l -3 0 l 0 -6.1 l 3 0 l 0 -5.9 l -3 0 l 0 -6.1 l 3 0 l 0 -5.9 l -3 0 l 0 -6.1 l 3 0 l 0 -5.9 l -3 0 l 0 -6.1 l 3 0 l 0 -5.9 l -3 0 l 0 -6.1 l 3 0 l 0 -5.9 l -3 0 l 0 -6.1 l 3 0 l 0 -5.9 l -3 0 l 0 -6.1 l 3 0 l 0 -5.9 l -3 0 l 0 -6.1 l 3 0 l 0 -5.9 l -3 0 l 0 -6.1"/>
    </g>
    <g id="piece_006">
      <path id="side_041" style="fill:none;stroke:#000000;stroke-width:0.0508" d="m 58.1 4 l 6 0 l 0 -3 l 6.1 0 l 0 3 l 5.9 0 l 0 -3 l 6.1 0 l 0 3 l 5.9 0 l 0 -3 l 6.1 0 l 0 3 l 5.9 0 l 0 -3 l 6.1 0 l 0 3 l 5.9 0 l 0 -3 l 6.1 0 l 0 3 l 5.9 0 l 0 -3 l 6.1 0 l 0 3 l 5.9 0 l 0 -3 l 6.1 0 l 0 3 l 5.9 0 l 0 -3 l 6.1 0 l 0 3 l 5.9 0 l 0 -3 l 6.1 0 l 0 3 l 5.9 0 l 0 -3 l 6.1 0 l 0 3 l 5.9 0 l 0 -3 l 6.1 0 l 0 3 l 5.9 0 l 0 -3 l 6.1 0 l 0 3 l 5.9 0 l 0 -3 l 6.1 0 l 0 3 l 5.9 0 l 0 -3 l 6.1 0 l 0 3 l 5.9 0 l 0 -3 l 6.1 0 l 0 3 l 6 0"/>
      <path id="side_042" style="fill:none;stroke:#000000;stroke-width:0.0508" d="m 244.2 4 l 0 3.5 l -3 0 l 0 5.9 l 3 0 l 0 6.5 l -3 0 l 0 5.9 l 3 0 l 0 6.5 l -3 0 l 0 5.9 l 3 0 l 0 6.5 l -3 0 l 0 5.9 l 3 0 l 0 3.5"/>
      <path id="hole_213" style="fill:none;stroke:#000000;stroke-width:0.0508" d="m 198.45 7.55 l 0 5.9 l -2.9 0 l 0 -5.9 l 2.9 0 z"/>
      <path id="hole_214" style="fill:none;stroke:#000000;stroke-width:0.0508" d="m 152.7 7.55 l 0 5.9 l -2.9 0 l 0 -5.9 l 2.9 0 z"/>
      <path id="hole_215" style="fill:none;stroke:#000000;stroke-width:0.0508" d="m 106.95 7.55 l 0 5.9 l -2.9 0 l 0 -5.9 l 2.9 0 z"/>
      <path id="hole_216" style="fill:none;stroke:#000000;stroke-width:0.0508" d="m 198.45 19.95 l 0 5.9 l -2.9 0 l 0 -5.9 l 2.9 0 z"/>
      <path id="hole_217" style="fill:none;stroke:#000000;stroke-width:0.0508" d="m 152.7 19.95 l 0 5.9 l -2.9 0 l 0 -5.9 l 2.9 0 z"/>
      <path id="hole_218" style="fill:none;stroke:#000000;stroke-width:0.0508" d="m 106.95 19.95 l 0 5.9 l -2.9 0 l 0 -5.9 l 2.9 0 z"/>
      <path id="hole_219" style="fill:none;stroke:#000000;stroke-width:0.0508" d="m 198.45 32.35 l 0 5.9 l -2.9 0 l 0 -5.9 l 2.9 0 z"/>
      <path id="hole_220" style="fill:none;stroke:#000000;stroke-width:0.0508" d="m 152.7 32.35 l 0 5.9 l -2.9 0 l 0 -5.9 l 2.9 0 z"/>
      <path id="hole_221" style="fill:none;stroke:#000000;stroke-width:0.0508" d="m 106.95 32.35 l 0 5.9 l -2.9 0 l 0 -5.9 l 2.9 0 z"/>
      <path id="hole_222" style="fill:none;stroke:#000000;stroke-width:0.0508" d="m 198.45 44.75 l 0 5.9 l -2.9 0 l 0 -5.9 l 2.9 0 z"/>
      <path id="hole_223" style="fill:none;stroke:#000000;stroke-width:0.0508" d="m 152.7 44.75 l 0 5.9 l -2.9 0 l 0 -5.9 l 2.9 0 z"/>
      <path id="hole_224" style="fill:none;stroke:#000000;stroke-width:0.0508" d="m 106.95 44.75 l 0 5.9 l -2.9 0 l 0 -5.9 l 2.9 0 z"/>
      <path id="side_043" style="fill:none;stroke:#000000;stroke-width:0.0508" d="m 244.2 54.1 l -6 0 l 0 3 l -6.1 0 l 0 -3 l -5.9 0 l 0 3 l -6.1 0 l 0 -3 l -5.9 0 l 0 3 l -6.1 0 l 0 -3 l -5.9 0 l 0 3 l -6.1 0 l 0 -3 l -5.9 0 l 0 3 l -6.1 0 l 0 -3 l -5.9 0 l 0 3 l -6.1 0 l 0 -3 l -5.9 0 l 0 3 l -6.1 0 l 0 -3 l -5.9 0 l 0 3 l -6.1 0 l 0 -3 l -5.9 0 l 0 3 l -6.1 0 l 0 -3 l -5.9 0 l 0 3 l -6.1 0 l 0 -3 l -5.9 0 l 0 3 l -6.1 0 l 0 -3 l -5.9 0 l 0 3 l -6.1 0 l 0 -3 l -5.9 0 l 0 3 l -6.1 0 l 0 -3 l -5.9 0 l 0 3 l -6.1 0 l 0 -3 l -5.9 0 l 0 3 l -6.1 0 l 0 -3 l -6 0"/>
      <path id="side_044" style="fill:none;stroke:#000000;stroke-width:0.0508" d="m 58.1 54.1 l 0 -3.5 l 3 0 l 0 -5.9 l -3 0 l 0 -6.5 l 3 0 l 0 -5.9 l -3 0 l 0 -6.5 l 3 0 l 0 -5.9 l -3 0 l 0 -6.5 l 3 0 l 0 -5.9 l -3 0 l 0 -3.5"/>
    </g>
  </g>
</svg>