<!-- Created with Inkscape (http://www.inkscape.org/) -->
<svg xmlns:inkscape="http://www.inkscape.org/namespaces/inkscape" xmlns:sodipodi="http://sodipodi.sourceforge.net/DTD/sodipodi-0.dtd" xmlns="http://www.w3.org/2000/svg" xmlns:svg="http://www.w3.org/2000/svg" width="660.7mm" height="476.5mm" viewBox="0 0 660.7 476.5" version="1.1" id="svg5" inkscape:version="1.1.2 (0a00cf5339, 2022-02-04)" sodipodi:docname="blank.svg">
  <sodipodi:namedview id="namedview7" pagecolor="#ffffff" bordercolor="#666666" borderopacity="1.0" inkscape:pageshadow="2" inkscape:pageopacity="0.0" inkscape:pagecheckerboard="0" inkscape:document-units="mm" showgrid="false" inkscape:zoom="0.64052329" inkscape:cx="397.33138" inkscape:cy="561.25984" inkscape:window-width="2086" inkscape:window-height="1376" inkscape:window-x="0" inkscape:window-y="0" inkscape:window-maximized="1" inkscape:current-layer="layer1"/>
  <defs id="defs2"/>
  <g inkscape:label="Layer 1" inkscape:groupmode="layer" id="layer1">
    <metadata text="createArgs=['--unit=mm', '--inside=1', '--length=180', '--width=240', '--depth=50', '--equal=0', '--tab=6', '--tabtype=0', '--tabsymmetry=0', '--dimpleheight=0', '--dimplelength=0', '--hairline=1', '--thickness=3', '--kerf=0.1', '--style=1', '--boxtype=1', '--div_l=2', '--div_w=3', '--keydiv=0', '--spacing=1']"/>
    <path id="piece_001" style="fill:none;stroke:#000000;stroke-width:0.0508" d="M 58.1 311.7 L 61.1 311.7 L 61.1 317.6 L 58.1 317.6 L 58.1 324.1 L 61.1 324.1 L 61.1 330 L 58.1 330 L 58.1 336.5 L 61.1 336.5 L 61.1 342.4 L 58.1 342.4 L 58.1 348.9 L 61.1 348.9 L 61.1 354.8 L 58.1 354.8 L 58.1 358.3 L 64.1 358.3 L 64.1 361.3 L 70.2 361.3 L 70.2 358.3 L 76.1 358.3 L 76.1 361.3 L 82.2 361.3 L 82.2 358.3 L 88.1 358.3 L 88.1 361.3 L 94.2 361.3 L 94.2 358.3 L 100.1 358.3 L 100.1 361.3 L 106.2 361.3 L 106.2 358.3 L 112.1 358.3 L 112.1 361.3 L 118.2 361.3 L 118.2 358.3 L 124.1 358.3 L 124.1 361.3 L 130.2 361.3 L 130.2 358.3 L 136.1 358.3 L 136.1 361.3 L 142.2 361.3 L 142.2 358.3 L 148.1 358.3 L 148.1 361.3 L 154.2 361.3 L 154.2 358.3 L 160.1 358.3 L 160.1 361.3 L 166.2 361.3 L 166.2 358.3 L 172.1 358.3 L 172.1 361.3 L 178.2 361.3 L 178.2 358.3 L 184.1 358.3 L 184.1 361.3 L 190.2 361.3 L 190.2 358.3 L 196.1 358.3 L 196.1 361.3 L 202.2 361.3 L 202.2 358.3 L 208.1 358.3 L 208.1 361.3 L 214.2 361.3 L 214.2 358.3 L 220.1 358.3 L 220.1 361.3 L 226.2 361.3 L 226.2 358.3 L 232.1 358.3 L 232.1 361.3 L 238.2 361.3 L 238.2 358.3 L 244.2 358.3 L 244.2 354.8 L 241.2 354.8 L 241.2 348.9 L 244.2 348.9 L 244.2 342.4 L 241.2 342.4 L 241.2 336.5 L 244.2 336.5 L 244.2 330 L 241.2 330 L 241.2 324.1 L 244.2 324.1 L 244.2 317.6 L 241.2 317.6 L 241.2 311.7 L 244.2 311.7 L 244.2 308.2 L 238.2 308.2 L 238.2 305.2 L 232.1 305.2 L 232.1 308.2 L 226.2 308.2 L 226.2 305.2 L 220.1 305.2 L 220.1 308.2 L 214.2 308.2 L 214.2 305.2 L 208.1 305.2 L 208.1 308.2 L 202.2 308.2 L 202.2 305.2 L 196.1 305.2 L 196.1 308.2 L 190.2 308.2 L 190.2 305.2 L 184.1 305.2 L 184.1 308.2 L 178.2 308.2 L 178.2 305.2 L 172.1 305.2 L 172.1 308.2 L 166.2 308.2 L 166.2 305.2 L 160.1 305.2 L 160.1 308.2 L 154.2 308.2 L 154.2 305.2 L 148.1 305.2 L 148.1 308.2 L 142.2 308.2 L 142.2 305.2 L 136.1 305.2 L 136.1 308.2 L 130.2 308.2 L 130.2 305.2 L 124.1 305.2 L 124.1 308.2 L 118.2 308.2 L 118.2 305.2 L 112.1 305.2 L 112.1 308.2 L 106.2 308.2 L 106.2 305.2 L 100.1 305.2 L 100.1 308.2 L 94.2 308.2 L 94.2 305.2 L 88.1 305.2 L 88.1 308.2 L 82.2 308.2 L 82.2 305.2 L 76.1 305.2 L 76.1 308.2 L 70.2 308.2 L 70.2 305.2 L 64.1 305.2 L 64.1 308.2 L 58.1 308.2 L 58.1 311.7 Z M 104.05 311.75 L 106.95 311.75 L 106.95 317.65 L 104.05 317.65 L 104.05 311.75 Z M 104.05 324.15 L 106.95 324.15 L 106.95 330.05 L 104.05 330.05 L 104.05 324.15 Z M 104.05 336.55 L 106.95 336.55 L 106.95 342.45 L 104.05 342.45 L 104.05 336.55 Z M 104.05 348.95 L 106.95 348.95 L 106.95 354.85 L 104.05 354.85 L 104.05 348.95 Z M 149.8 311.75 L 152.7 311.75 L 152.7 317.65 L 149.8 317.65 L 149.8 311.75 Z M 149.8 324.15 L 152.7 324.15 L 152.7 330.05 L 149.8 330.05 L 149.8 324.15 Z M 149.8 336.55 L 152.7 336.55 L 152.7 342.45 L 149.8 342.45 L 149.8 336.55 Z M 149.8 348.95 L 152.7 348.95 L 152.7 354.85 L 149.8 354.85 L 149.8 348.95 Z M 195.55 311.75 L 198.45 311.75 L 198.45 317.65 L 195.55 317.65 L 195.55 311.75 Z M 195.55 324.15 L 198.45 324.15 L 198.45 330.05 L 195.55 330.05 L 195.55 324.15 Z M 195.55 336.55 L 198.45 336.55 L 198.45 342.45 L 195.55 342.45 L 195.55 336.55 Z M 195.55 348.95 L 198.45 348.95 L 198.45 354.85 L 195.55 354.85 L 195.55 348.95 Z"/>
    <path id="xdivider_001" style="fill:none;stroke:#000000;stroke-width:0.0508" d="M 58.1 368.8 L 61.1 368.8 L 61.1 374.7 L 58.1 374.7 L 58.1 381.2 L 61.1 381.2 L 61.1 387.1 L 58.1 387.1 L 58.1 393.6 L 61.1 393.6 L 61.1 399.5 L 58.1 399.5 L 58.1 406 L 61.1 406 L 61.1 411.9 L 58.1 411.9 L 58.1 415.4 L 64.1 415.4 L 64.1 418.4 L 70.2 418.4 L 70.2 415.4 L 76.1 415.4 L 76.1 418.4 L 82.2 418.4 L 82.2 415.4 L 88.1 415.4 L 88.1 418.4 L 94.2 418.4 L 94.2 415.4 L 100.1 415.4 L 100.1 418.4 L 106.2 418.4 L 106.2 415.4 L 112.1 415.4 L 112.1 418.4 L 118.2 418.4 L 118.2 415.4 L 124.1 415.4 L 124.1 418.4 L 130.2 418.4 L 130.2 415.4 L 136.1 415.4 L 136.1 418.4 L 142.2 418.4 L 142.2 415.4 L 148.1 415.4 L 148.1 418.4 L 154.2 418.4 L 154.2 415.4 L 160.1 415.4 L 160.1 418.4 L 166.2 418.4 L 166.2 415.4 L 172.1 415.4 L 172.1 418.4 L 178.2 418.4 L 178.2 415.4 L 184.1 415.4 L 184.1 418.4 L 190.2 418.4 L 190.2 415.4 L 196.1 415.4 L 196.1 418.4 L 202.2 418.4 L 202.2 415.4 L 208.1 415.4 L 208.1 418.4 L 214.2 418.4 L 214.2 415.4 L 220.1 415.4 L 220.1 418.4 L 226.2 418.4 L 226.2 415.4 L 232.1 415.4 L 232.1 418.4 L 238.2 418.4 L 238.2 415.4 L 244.2 415.4 L 244.2 411.9 L 241.2 411.9 L 241.2 406 L 244.2 406 L 244.2 399.5 L 241.2 399.5 L 241.2 393.6 L 244.2 393.6 L 244.2 387.1 L 241.2 387.1 L 241.2 381.2 L 244.2 381.2 L 244.2 374.7 L 241.2 374.7 L 241.2 368.8 L 244.2 368.8 L 244.2 365.3 L 238.2 365.3 L 238.2 362.3 L 232.1 362.3 L 232.1 365.3 L 226.2 365.3 L 226.2 362.3 L 220.1 362.3 L 220.1 365.3 L 214.2 365.3 L 214.2 362.3 L 208.1 362.3 L 208.1 365.3 L 202.2 365.3 L 202.2 362.3 L 198.35 362.3 L 198.35 390.3 L 195.45 390.3 L 195.45 365.3 L 190.2 365.3 L 190.2 362.3 L 184.1 362.3 L 184.1 365.3 L 178.2 365.3 L 178.2 362.3 L 172.1 362.3 L 172.1 365.3 L 166.2 365.3 L 166.2 362.3 L 160.1 362.3 L 160.1 365.3 L 154.2 365.3 L 154.2 362.3 L 152.6 362.3 L 152.6 390.3 L 149.7 390.3 L 149.7 362.3 L 148.1 362.3 L 148.1 365.3 L 142.2 365.3 L 142.2 362.3 L 136.1 362.3 L 136.1 365.3 L 130.2 365.3 L 130.2 362.3 L 124.1 362.3 L 124.1 365.3 L 118.2 365.3 L 118.2 362.3 L 112.1 362.3 L 112.1 365.3 L 106.85 365.3 L 106.85 390.3 L 103.95 390.3 L 103.95 362.3 L 100.1 362.3 L 100.1 365.3 L 94.2 365.3 L 94.2 362.3 L 88.1 362.3 L 88.1 365.3 L 82.2 365.3 L 82.2 362.3 L 76.1 362.3 L 76.1 365.3 L 70.2 365.3 L 70.2 362.3 L 64.1 362.3 L 64.1 365.3 L 58.1 365.3 L 58.1 368.8 Z"/>
    <path id="xdivider_002" style="fill:none;stroke:#000000;stroke-width:0.0508" d="M 58.1 425.9 L 61.1 425.9 L 61.1 431.8 L 58.1 431.8 L 58.1 438.3 L 61.1 438.3 L 61.1 444.2 L 58.1 444.2 L 58.1 450.7 L 61.1 450.7 L 61.1 456.6 L 58.1 456.6 L 58.1 463.1 L 61.1 463.1 L 61.1 469 L 58.1 469 L 58.1 472.5 L 64.1 472.5 L 64.1 475.5 L 70.2 475.5 L 70.2 472.5 L 76.1 472.5 L 76.1 475.5 L 82.2 475.5 L 82.2 472.5 L 88.1 472.5 L 88.1 475.5 L 94.2 475.5 L 94.2 472.5 L 100.1 472.5 L 100.1 475.5 L 106.2 475.5 L 106.2 472.5 L 112.1 472.5 L 112.1 475.5 L 118.2 475.5 L 118.2 472.5 L 124.1 472.5 L 124.1 475.5 L 130.2 475.5 L 130.2 472.5 L 136.1 472.5 L 136.1 475.5 L 142.2 475.5 L 142.2 472.5 L 148.1 472.5 L 148.1 475.5 L 154.2 475.5 L 154.2 472.5 L 160.1 472.5 L 160.1 475.5 L 166.2 475.5 L 166.2 472.5 L 172.1 472.5 L 172.1 475.5 L 178.2 475.5 L 178.2 472.5 L 184.1 472.5 L 184.1 475.5 L 190.2 475.5 L 190.2 472.5 L 196.1 472.5 L 196.1 475.5 L 202.2 475.5 L 202.2 472.5 L 208.1 472.5 L 208.1 475.5 L 214.2 475.5 L 214.2 472.5 L 220.1 472.5 L 220.1 475.5 L 226.2 475.5 L 226.2 472.5 L 232.1 472.5 L 232.1 475.5 L 238.2 475.5 L 238.2 472.5 L 244.2 472.5 L 244.2 469 L 241.2 469 L 241.2 463.1 L 244.2 463.1 L 244.2 456.6 L 241.2 456.6 L 241.2 450.7 L 244.2 450.7 L 244.2 444.2 L 241.2 444.2 L 241.2 438.3 L 244.2 438.3 L 244.2 431.8 L 241.2 431.8 L 241.2 425.9 L 244.2 425.9 L 244.2 422.4 L 238.2 422.4 L 238.2 419.4 L 232.1 419.4 L 232.1 422.4 L 226.2 422.4 L 226.2 419.4 L 220.1 419.4 L 220.1 422.4 L 214.2 422.4 L 214.2 419.4 L 208.1 419.4 L 208.1 422.4 L 202.2 422.4 L 202.2 419.4 L 198.35 419.4 L 198.35 447.4 L 195.45 447.4 L 195.45 422.4 L 190.2 422.4 L 190.2 419.4 L 184.1 419.4 L 184.1 422.4 L 178.2 422.4 L 178.2 419.4 L 172.1 419.4 L 172.1 422.4 L 166.2 422.4 L 166.2 419.4 L 160.1 419.4 L 160.1 422.4 L 154.2 422.4 L 154.2 419.4 L 152.6 419.4 L 152.6 447.4 L 149.7 447.4 L 149.7 419.4 L 148.1 419.4 L 148.1 422.4 L 142.2 422.4 L 142.2 419.4 L 136.1 419.4 L 136.1 422.4 L 130.2 422.4 L 130.2 419.4 L 124.1 419.4 L 124.1 422.4 L 118.2 422.4 L 118.2 419.4 L 112.1 419.4 L 112.1 422.4 L 106.85 422.4 L 106.85 447.4 L 103.95 447.4 L 103.95 419.4 L 100.1 419.4 L 100.1 422.4 L 94.2 422.4 L 94.2 419.4 L 88.1 419.4 L 88.1 422.4 L 82.2 422.4 L 82.2 419.4 L 76.1 419.4 L 76.1 422.4 L 70.2 422.4 L 70.2 419.4 L 64.1 419.4 L 64.1 422.4 L 58.1 422.4 L 58.1 425.9 Z"/>
    <path id="piece_002" style="fill:none;stroke:#000000;stroke-width:0.0508" d="M 4 64.1 L 1 64.1 L 1 70.2 L 4 70.2 L 4 76.1 L 1 76.1 L 1 82.2 L 4 82.2 L 4 88.1 L 1 88.1 L 1 94.2 L 4 94.2 L 4 100.1 L 1 100.1 L 1 106.2 L 4 106.2 L 4 112.1 L 1 112.1 L 1 118.2 L 4 118.2 L 4 124.1 L 1 124.1 L 1 130.2 L 4 130.2 L 4 136.1 L 1 136.1 L 1 142.2 L 4 142.2 L 4 148.1 L 1 148.1 L 1 154.2 L 4 154.2 L 4 160.1 L 1 160.1 L 1 166.2 L 4 166.2 L 4 172.1 L 1 172.1 L 1 178.2 L 4 178.2 L 4 184.1 L 1 184.1 L 1 190.2 L 4 190.2 L 4 196.1 L 1 196.1 L 1 202.2 L 4 202.2 L 4 208.1 L 1 208.1 L 1 214.2 L 4 214.2 L 4 220.1 L 1 220.1 L 1 226.2 L 4 226.2 L 4 232.1 L 1 232.1 L 1 238.2 L 4 238.2 L 4 244.1 L 1 244.1 L 1 250.2 L 4 250.2 L 4 256.1 L 1 256.1 L 1 262.2 L 4 262.2 L 4 268.1 L 1 268.1 L 1 274.2 L 4 274.2 L 4 280.1 L 1 280.1 L 1 286.2 L 4 286.2 L 4 292.1 L 1 292.1 L 1 298.2 L 4 298.2 L 4 301.2 L 7.4 301.2 L 7.4 304.2 L 13.5 304.2 L 13.5 301.2 L 19.8 301.2 L 19.8 304.2 L 25.9 304.2 L 25.9 301.2 L 32.2 301.2 L 32.2 304.2 L 38.3 304.2 L 38.3 301.2 L 44.6 301.2 L 44.6 304.2 L 50.7 304.2 L 50.7 301.2 L 54.1 301.2 L 54.1 298.2 L 57.1 298.2 L 57.1 292.1 L 54.1 292.1 L 54.1 286.2 L 57.1 286.2 L 57.1 280.1 L 54.1 280.1 L 54.1 274.2 L 57.1 274.2 L 57.1 268.1 L 54.1 268.1 L 54.1 262.2 L 57.1 262.2 L 57.1 256.1 L 54.1 256.1 L 54.1 250.2 L 57.1 250.2 L 57.1 244.1 L 54.1 244.1 L 54.1 238.2 L 57.1 238.2 L 57.1 232.1 L 54.1 232.1 L 54.1 226.2 L 57.1 226.2 L 57.1 220.1 L 54.1 220.1 L 54.1 214.2 L 57.1 214.2 L 57.1 208.1 L 54.1 208.1 L 54.1 202.2 L 57.1 202.2 L 57.1 196.1 L 54.1 196.1 L 54.1 190.2 L 57.1 190.2 L 57.1 184.1 L 54.1 184.1 L 54.1 178.2 L 57.1 178.2 L 57.1 172.1 L 54.1 172.1 L 54.1 166.2 L 57.1 166.2 L 57.1 160.1 L 54.1 160.1 L 54.1 154.2 L 57.1 154.2 L 57.1 148.1 L 54.1 148.1 L 54.1 142.2 L 57.1 142.2 L 57.1 136.1 L 54.1 136.1 L 54.1 130.2 L 57.1 130.2 L 57.1 124.1 L 54.1 124.1 L 54.1 118.2 L 57.1 118.2 L 57.1 112.1 L 54.1 112.1 L 54.1 106.2 L 57.1 106.2 L 57.1 100.1 L 54.1 100.1 L 54.1 94.2 L 57.1 94.2 L 57.1 88.1 L 54.1 88.1 L 54.1 82.2 L 57.1 82.2 L 57.1 76.1 L 54.1 76.1 L 54.1 70.2 L 57.1 70.2 L 57.1 64.1 L 54.1 64.1 L 54.1 61.1 L 50.7 61.1 L 50.7 58.1 L 44.6 58.1 L 44.6 61.1 L 38.3 61.1 L 38.3 58.1 L 32.2 58.1 L 32.2 61.1 L 25.9 61.1 L 25.9 58.1 L 19.8 58.1 L 19.8 61.1 L 13.5 61.1 L 13.5 58.1 L 7.4 58.1 L 7.4 61.1 L 4 61.1 L 4 64.1 Z M 13.45 139.1 L 19.75 139.1 L 19.75 142 L 13.45 142 L 13.45 139.1 Z M 13.45 220.1 L 19.75 220.1 L 19.75 223 L 13.45 223 L 13.45 220.1 Z M 25.85 139.1 L 32.15 139.1 L 32.15 142 L 25.85 142 L 25.85 139.1 Z M 25.85 220.1 L 32.15 220.1 L 32.15 223 L 25.85 223 L 25.85 220.1 Z M 38.25 139.1 L 44.55 139.1 L 44.55 142 L 38.25 142 L 38.25 139.1 Z M 38.25 220.1 L 44.55 220.1 L 44.55 223 L 38.25 223 L 38.25 220.1 Z M 4.05 139.1 L 7.35 139.1 L 7.35 142 L 4.05 142 L 4.05 139.1 Z M 4.05 220.1 L 7.35 220.1 L 7.35 223 L 4.05 223 L 4.05 220.1 Z M 50.65 139.1 L 53.95 139.1 L 53.95 142 L 50.65 142 L 50.65 139.1 Z M 50.65 220.1 L 53.95 220.1 L 53.95 223 L 50.65 223 L 50.65 220.1 Z"/>
    <path id="ydivider_001" style="fill:none;stroke:#000000;stroke-width:0.0508" d="M 492.4 64.1 L 489.4 64.1 L 489.4 70.2 L 492.4 70.2 L 492.4 76.1 L 489.4 76.1 L 489.4 82.2 L 492.4 82.2 L 492.4 88.1 L 489.4 88.1 L 489.4 94.2 L 492.4 94.2 L 492.4 100.1 L 489.4 100.1 L 489.4 106.2 L 492.4 106.2 L 492.4 112.1 L 489.4 112.1 L 489.4 118.2 L 492.4 118.2 L 492.4 124.1 L 489.4 124.1 L 489.4 130.2 L 492.4 130.2 L 492.4 136.1 L 489.4 136.1 L 489.4 139.2 L 517.4 139.2 L 517.4 142.1 L 489.4 142.1 L 489.4 142.2 L 492.4 142.2 L 492.4 148.1 L 489.4 148.1 L 489.4 154.2 L 492.4 154.2 L 492.4 160.1 L 489.4 160.1 L 489.4 166.2 L 492.4 166.2 L 492.4 172.1 L 489.4 172.1 L 489.4 178.2 L 492.4 178.2 L 492.4 184.1 L 489.4 184.1 L 489.4 190.2 L 492.4 190.2 L 492.4 196.1 L 489.4 196.1 L 489.4 202.2 L 492.4 202.2 L 492.4 208.1 L 489.4 208.1 L 489.4 214.2 L 492.4 214.2 L 492.4 220.1 L 489.4 220.1 L 489.4 220.2 L 517.4 220.2 L 517.4 223.1 L 489.4 223.1 L 489.4 226.2 L 492.4 226.2 L 492.4 232.1 L 489.4 232.1 L 489.4 238.2 L 492.4 238.2 L 492.4 244.1 L 489.4 244.1 L 489.4 250.2 L 492.4 250.2 L 492.4 256.1 L 489.4 256.1 L 489.4 262.2 L 492.4 262.2 L 492.4 268.1 L 489.4 268.1 L 489.4 274.2 L 492.4 274.2 L 492.4 280.1 L 489.4 280.1 L 489.4 286.2 L 492.4 286.2 L 492.4 292.1 L 489.4 292.1 L 489.4 298.2 L 492.4 298.2 L 492.4 301.2 L 495.8 301.2 L 495.8 304.2 L 501.9 304.2 L 501.9 301.2 L 508.2 301.2 L 508.2 304.2 L 514.3 304.2 L 514.3 301.2 L 520.6 301.2 L 520.6 304.2 L 526.7 304.2 L 526.7 301.2 L 533 301.2 L 533 304.2 L 539.1 304.2 L 539.1 301.2 L 542.5 301.2 L 542.5 298.2 L 545.5 298.2 L 545.5 292.1 L 542.5 292.1 L 542.5 286.2 L 545.5 286.2 L 545.5 280.1 L 542.5 280.1 L 542.5 274.2 L 545.5 274.2 L 545.5 268.1 L 542.5 268.1 L 542.5 262.2 L 545.5 262.2 L 545.5 256.1 L 542.5 256.1 L 542.5 250.2 L 545.5 250.2 L 545.5 244.1 L 542.5 244.1 L 542.5 238.2 L 545.5 238.2 L 545.5 232.1 L 542.5 232.1 L 542.5 226.2 L 545.5 226.2 L 545.5 220.1 L 542.5 220.1 L 542.5 214.2 L 545.5 214.2 L 545.5 208.1 L 542.5 208.1 L 542.5 202.2 L 545.5 202.2 L 545.5 196.1 L 542.5 196.1 L 542.5 190.2 L 545.5 190.2 L 545.5 184.1 L 542.5 184.1 L 542.5 178.2 L 545.5 178.2 L 545.5 172.1 L 542.5 172.1 L 542.5 166.2 L 545.5 166.2 L 545.5 160.1 L 542.5 160.1 L 542.5 154.2 L 545.5 154.2 L 545.5 148.1 L 542.5 148.1 L 542.5 142.2 L 545.5 142.2 L 545.5 136.1 L 542.5 136.1 L 542.5 130.2 L 545.5 130.2 L 545.5 124.1 L 542.5 124.1 L 542.5 118.2 L 545.5 118.2 L 545.5 112.1 L 542.5 112.1 L 542.5 106.2 L 545.5 106.2 L 545.5 100.1 L 542.5 100.1 L 542.5 94.2 L 545.5 94.2 L 545.5 88.1 L 542.5 88.1 L 542.5 82.2 L 545.5 82.2 L 545.5 76.1 L 542.5 76.1 L 542.5 70.2 L 545.5 70.2 L 545.5 64.1 L 542.5 64.1 L 542.5 61.1 L 539.1 61.1 L 539.1 58.1 L 533 58.1 L 533 61.1 L 526.7 61.1 L 526.7 58.1 L 520.6 58.1 L 520.6 61.1 L 514.3 61.1 L 514.3 58.1 L 508.2 58.1 L 508.2 61.1 L 501.9 61.1 L 501.9 58.1 L 495.8 58.1 L 495.8 61.1 L 492.4 61.1 L 492.4 64.1 Z"/>
    <path id="ydivider_002" style="fill:none;stroke:#000000;stroke-width:0.0508" d="M 549.5 64.1 L 546.5 64.1 L 546.5 70.2 L 549.5 70.2 L 549.5 76.1 L 546.5 76.1 L 546.5 82.2 L 549.5 82.2 L 549.5 88.1 L 546.5 88.1 L 546.5 94.2 L 549.5 94.2 L 549.5 100.1 L 546.5 100.1 L 546.5 106.2 L 549.5 106.2 L 549.5 112.1 L 546.5 112.1 L 546.5 118.2 L 549.5 118.2 L 549.5 124.1 L 546.5 124.1 L 546.5 130.2 L 549.5 130.2 L 549.5 136.1 L 546.5 136.1 L 546.5 139.2 L 574.5 139.2 L 574.5 142.1 L 546.5 142.1 L 546.5 142.2 L 549.5 142.2 L 549.5 148.1 L 546.5 148.1 L 546.5 154.2 L 549.5 154.2 L 549.5 160.1 L 546.5 160.1 L 546.5 166.2 L 549.5 166.2 L 549.5 172.1 L 546.5 172.1 L 546.5 178.2 L 549.5 178.2 L 549.5 184.1 L 546.5 184.1 L 546.5 190.2 L 549.5 190.2 L 549.5 196.1 L 546.5 196.1 L 546.5 202.2 L 549.5 202.2 L 549.5 208.1 L 546.5 208.1 L 546.5 214.2 L 549.5 214.2 L 549.5 220.1 L 546.5 220.1 L 546.5 220.2 L 574.5 220.2 L 574.5 223.1 L 546.5 223.1 L 546.5 226.2 L 549.5 226.2 L 549.5 232.1 L 546.5 232.1 L 546.5 238.2 L 549.5 238.2 L 549.5 244.1 L 546.5 244.1 L 546.5 250.2 L 549.5 250.2 L 549.5 256.1 L 546.5 256.1 L 546.5 262.2 L 549.5 262.2 L 549.5 268.1 L 546.5 268.1 L 546.5 274.2 L 549.5 274.2 L 549.5 280.1 L 546.5 280.1 L 546.5 286.2 L 549.5 286.2 L 549.5 292.1 L 546.5 292.1 L 546.5 298.2 L 549.5 298.2 L 549.5 301.2 L 552.9 301.2 L 552.9 304.2 L 559 304.2 L 559 301.2 L 565.3 301.2 L 565.3 304.2 L 571.4 304.2 L 571.4 301.2 L 577.7 301.2 L 577.7 304.2 L 583.8 304.2 L 583.8 301.2 L 590.1 301.2 L 590.1 304.2 L 596.2 304.2 L 596.2 301.2 L 599.6 301.2 L 599.6 298.2 L 602.6 298.2 L 602.6 292.1 L 599.6 292.1 L 599.6 286.2 L 602.6 286.2 L 602.6 280.1 L 599.6 280.1 L 599.6 274.2 L 602.6 274.2 L 602.6 268.1 L 599.6 268.1 L 599.6 262.2 L 602.6 262.2 L 602.6 256.1 L 599.6 256.1 L 599.6 250.2 L 602.6 250.2 L 602.6 244.1 L 599.6 244.1 L 599.6 238.2 L 602.6 238.2 L 602.6 232.1 L 599.6 232.1 L 599.6 226.2 L 602.6 226.2 L 602.6 220.1 L 599.6 220.1 L 599.6 214.2 L 602.6 214.2 L 602.6 208.1 L 599.6 208.1 L 599.6 202.2 L 602.6 202.2 L 602.6 196.1 L 599.6 196.1 L 599.6 190.2 L 602.6 190.2 L 602.6 184.1 L 599.6 184.1 L 599.6 178.2 L 602.6 178.2 L 602.6 172.1 L 599.6 172.1 L 599.6 166.2 L 602.6 166.2 L 602.6 160.1 L 599.6 160.1 L 599.6 154.2 L 602.6 154.2 L 602.6 148.1 L 599.6 148.1 L 599.6 142.2 L 602.6 142.2 L 602.6 136.1 L 599.6 136.1 L 599.6 130.2 L 602.6 130.2 L 602.6 124.1 L 599.6 124.1 L 599.6 118.2 L 602.6 118.2 L 602.6 112.1 L 599.6 112.1 L 599.6 106.2 L 602.6 106.2 L 602.6 100.1 L 599.6 100.1 L 599.6 94.2 L 602.6 94.2 L 602.6 88.1 L 599.6 88.1 L 599.6 82.2 L 602.6 82.2 L 602.6 76.1 L 599.6 76.1 L 599.6 70.2 L 602.6 70.2 L 602.6 64.1 L 599.6 64.1 L 599.6 61.1 L 596.2 61.1 L 596.2 58.1 L 590.1 58.1 L 590.1 61.1 L 583.8 61.1 L 583.8 58.1 L 577.7 58.1 L 577.7 61.1 L 571.4 61.1 L 571.4 58.1 L 565.3 58.1 L 565.3 61.1 L 559 61.1 L 559 58.1 L 552.9 58.1 L 552.9 61.1 L 549.5 61.1 L 549.5 64.1 Z"/>
    <path id="ydivider_003" style="fill:none;stroke:#000000;stroke-width:0.0508" d="M 606.6 64.1 L 603.6 64.1 L 603.6 70.2 L 606.6 70.2 L 606.6 76.1 L 603.6 76.1 L 603.6 82.2 L 606.6 82.2 L 606.6 88.1 L 603.6 88.1 L 603.6 94.2 L 606.6 94.2 L 606.6 100.1 L 603.6 100.1 L 603.6 106.2 L 606.6 106.2 L 606.6 112.1 L 603.6 112.1 L 603.6 118.2 L 606.6 118.2 L 606.6 124.1 L 603.6 124.1 L 603.6 130.2 L 606.6 130.2 L 606.6 136.1 L 603.6 136.1 L 603.6 139.2 L 631.6 139.2 L 631.6 142.1 L 603.6 142.1 L 603.6 142.2 L 606.6 142.2 L 606.6 148.1 L 603.6 148.1 L 603.6 154.2 L 606.6 154.2 L 606.6 160.1 L 603.6 160.1 L 603.6 166.2 L 606.6 166.2 L 606.6 172.1 L 603.6 172.1 L 603.6 178.2 L 606.6 178.2 L 606.6 184.1 L 603.6 184.1 L 603.6 190.2 L 606.6 190.2 L 606.6 196.1 L 603.6 196.1 L 603.6 202.2 L 606.6 202.2 L 606.6 208.1 L 603.6 208.1 L 603.6 214.2 L 606.6 214.2 L 606.6 220.1 L 603.6 220.1 L 603.6 220.2 L 631.6 220.2 L 631.6 223.1 L 603.6 223.1 L 603.6 226.2 L 606.6 226.2 L 606.6 232.1 L 603.6 232.1 L 603.6 238.2 L 606.6 238.2 L 606.6 244.1 L 603.6 244.1 L 603.6 250.2 L 606.6 250.2 L 606.6 256.1 L 603.6 256.1 L 603.6 262.2 L 606.6 262.2 L 606.6 268.1 L 603.6 268.1 L 603.6 274.2 L 606.6 274.2 L 606.6 280.1 L 603.6 280.1 L 603.6 286.2 L 606.6 286.2 L 606.6 292.1 L 603.6 292.1 L 603.6 298.2 L 606.6 298.2 L 606.6 301.2 L 610 301.2 L 610 304.2 L 616.1 304.2 L 616.1 301.2 L 622.4 301.2 L 622.4 304.2 L 628.5 304.2 L 628.5 301.2 L 634.8 301.2 L 634.8 304.2 L 640.9 304.2 L 640.9 301.2 L 647.2 301.2 L 647.2 304.2 L 653.3 304.2 L 653.3 301.2 L 656.7 301.2 L 656.7 298.2 L 659.7 298.2 L 659.7 292.1 L 656.7 292.1 L 656.7 286.2 L 659.7 286.2 L 659.7 280.1 L 656.7 280.1 L 656.7 274.2 L 659.7 274.2 L 659.7 268.1 L 656.7 268.1 L 656.7 262.2 L 659.7 262.2 L 659.7 256.1 L 656.7 256.1 L 656.7 250.2 L 659.7 250.2 L 659.7 244.1 L 656.7 244.1 L 656.7 238.2 L 659.7 238.2 L 659.7 232.1 L 656.7 232.1 L 656.7 226.2 L 659.7 226.2 L 659.7 220.1 L 656.7 220.1 L 656.7 214.2 L 659.7 214.2 L 659.7 208.1 L 656.7 208.1 L 656.7 202.2 L 659.7 202.2 L 659.7 196.1 L 656.7 196.1 L 656.7 190.2 L 659.7 190.2 L 659.7 184.1 L 656.7 184.1 L 656.7 178.2 L 659.7 178.2 L 659.7 172.1 L 656.7 172.1 L 656.7 166.2 L 659.7 166.2 L 659.7 160.1 L 656.7 160.1 L 656.7 154.2 L 659.7 154.2 L 659.7 148.1 L 656.7 148.1 L 656.7 142.2 L 659.7 142.2 L 659.7 136.1 L 656.7 136.1 L 656.7 130.2 L 659.7 130.2 L 659.7 124.1 L 656.7 124.1 L 656.7 118.2 L 659.7 118.2 L 659.7 112.1 L 656.7 112.1 L 656.7 106.2 L 659.7 106.2 L 659.7 100.1 L 656.7 100.1 L 656.7 94.2 L 659.7 94.2 L 659.7 88.1 L 656.7 88.1 L 656.7 82.2 L 659.7 82.2 L 659.7 76.1 L 656.7 76.1 L 656.7 70.2 L 659.7 70.2 L 659.7 64.1 L 656.7 64.1 L 656.7 61.1 L 653.3 61.1 L 653.3 58.1 L 647.2 58.1 L 647.2 61.1 L 640.9 61.1 L 640.9 58.1 L 634.8 58.1 L 634.8 61.1 L 628.5 61.1 L 628.5 58.1 L 622.4 58.1 L 622.4 61.1 L 616.1 61.1 L 616.1 58.1 L 610 58.1 L 610 61.1 L 606.6 61.1 L 606.6 64.1 Z"/>
    <path id="piece_003" style="fill:none;stroke:#000000;stroke-width:0.0508" d="M 58.1 64.2 L 61.1 64.2 L 61.1 70.1 L 58.1 70.1 L 58.1 76.2 L 61.1 76.2 L 61.1 82.1 L 58.1 82.1 L 58.1 88.2 L 61.1 88.2 L 61.1 94.1 L 58.1 94.1 L 58.1 100.2 L 61.1 100.2 L 61.1 106.1 L 58.1 106.1 L 58.1 112.2 L 61.1 112.2 L 61.1 118.1 L 58.1 118.1 L 58.1 124.2 L 61.1 124.2 L 61.1 130.1 L 58.1 130.1 L 58.1 136.2 L 61.1 136.2 L 61.1 142.1 L 58.1 142.1 L 58.1 148.2 L 61.1 148.2 L 61.1 154.1 L 58.1 154.1 L 58.1 160.2 L 61.1 160.2 L 61.1 166.1 L 58.1 166.1 L 58.1 172.2 L 61.1 172.2 L 61.1 178.1 L 58.1 178.1 L 58.1 184.2 L 61.1 184.2 L 61.1 190.1 L 58.1 190.1 L 58.1 196.2 L 61.1 196.2 L 61.1 202.1 L 58.1 202.1 L 58.1 208.2 L 61.1 208.2 L 61.1 214.1 L 58.1 214.1 L 58.1 220.2 L 61.1 220.2 L 61.1 226.1 L 58.1 226.1 L 58.1 232.2 L 61.1 232.2 L 61.1 238.1 L 58.1 238.1 L 58.1 244.2 L 61.1 244.2 L 61.1 250.1 L 58.1 250.1 L 58.1 256.2 L 61.1 256.2 L 61.1 262.1 L 58.1 262.1 L 58.1 268.2 L 61.1 268.2 L 61.1 274.1 L 58.1 274.1 L 58.1 280.2 L 61.1 280.2 L 61.1 286.1 L 58.1 286.1 L 58.1 292.2 L 61.1 292.2 L 61.1 298.1 L 58.1 298.1 L 58.1 304.2 L 64.2 304.2 L 64.2 301.2 L 70.1 301.2 L 70.1 304.2 L 76.2 304.2 L 76.2 301.2 L 82.1 301.2 L 82.1 304.2 L 88.2 304.2 L 88.2 301.2 L 94.1 301.2 L 94.1 304.2 L 100.2 304.2 L 100.2 301.2 L 106.1 301.2 L 106.1 304.2 L 112.2 304.2 L 112.2 301.2 L 118.1 301.2 L 118.1 304.2 L 124.2 304.2 L 124.2 301.2 L 130.1 301.2 L 130.1 304.2 L 136.2 304.2 L 136.2 301.2 L 142.1 301.2 L 142.1 304.2 L 148.2 304.2 L 148.2 301.2 L 154.1 301.2 L 154.1 304.2 L 160.2 304.2 L 160.2 301.2 L 166.1 301.2 L 166.1 304.2 L 172.2 304.2 L 172.2 301.2 L 178.1 301.2 L 178.1 304.2 L 184.2 304.2 L 184.2 301.2 L 190.1 301.2 L 190.1 304.2 L 196.2 304.2 L 196.2 301.2 L 202.1 301.2 L 202.1 304.2 L 208.2 304.2 L 208.2 301.2 L 214.1 301.2 L 214.1 304.2 L 220.2 304.2 L 220.2 301.2 L 226.1 301.2 L 226.1 304.2 L 232.2 304.2 L 232.2 301.2 L 238.1 301.2 L 238.1 304.2 L 244.2 304.2 L 244.2 298.1 L 241.2 298.1 L 241.2 292.2 L 244.2 292.2 L 244.2 286.1 L 241.2 286.1 L 241.2 280.2 L 244.2 280.2 L 244.2 274.1 L 241.2 274.1 L 241.2 268.2 L 244.2 268.2 L 244.2 262.1 L 241.2 262.1 L 241.2 256.2 L 244.2 256.2 L 244.2 250.1 L 241.2 250.1 L 241.2 244.2 L 244.2 244.2 L 244.2 238.1 L 241.2 238.1 L 241.2 232.2 L 244.2 232.2 L 244.2 226.1 L 241.2 226.1 L 241.2 220.2 L 244.2 220.2 L 244.2 214.1 L 241.2 214.1 L 241.2 208.2 L 244.2 208.2 L 244.2 202.1 L 241.2 202.1 L 241.2 196.2 L 244.2 196.2 L 244.2 190.1 L 241.2 190.1 L 241.2 184.2 L 244.2 184.2 L 244.2 178.1 L 241.2 178.1 L 241.2 172.2 L 244.2 172.2 L 244.2 166.1 L 241.2 166.1 L 241.2 160.2 L 244.2 160.2 L 244.2 154.1 L 241.2 154.1 L 241.2 148.2 L 244.2 148.2 L 244.2 142.1 L 241.2 142.1 L 241.2 136.2 L 244.2 136.2 L 244.2 130.1 L 241.2 130.1 L 241.2 124.2 L 244.2 124.2 L 244.2 118.1 L 241.2 118.1 L 241.2 112.2 L 244.2 112.2 L 244.2 106.1 L 241.2 106.1 L 241.2 100.2 L 244.2 100.2 L 244.2 94.1 L 241.2 94.1 L 241.2 88.2 L 244.2 88.2 L 244.2 82.1 L 241.2 82.1 L 241.2 76.2 L 244.2 76.2 L 244.2 70.1 L 241.2 70.1 L 241.2 64.2 L 244.2 64.2 L 244.2 58.1 L 238.1 58.1 L 238.1 61.1 L 232.2 61.1 L 232.2 58.1 L 226.1 58.1 L 226.1 61.1 L 220.2 61.1 L 220.2 58.1 L 214.1 58.1 L 214.1 61.1 L 208.2 61.1 L 208.2 58.1 L 202.1 58.1 L 202.1 61.1 L 196.2 61.1 L 196.2 58.1 L 190.1 58.1 L 190.1 61.1 L 184.2 61.1 L 184.2 58.1 L 178.1 58.1 L 178.1 61.1 L 172.2 61.1 L 172.2 58.1 L 166.1 58.1 L 166.1 61.1 L 160.2 61.1 L 160.2 58.1 L 154.1 58.1 L 154.1 61.1 L 148.2 61.1 L 148.2 58.1 L 142.1 58.1 L 142.1 61.1 L 136.2 61.1 L 136.2 58.1 L 130.1 58.1 L 130.1 61.1 L 124.2 61.1 L 124.2 58.1 L 118.1 58.1 L 118.1 61.1 L 112.2 61.1 L 112.2 58.1 L 106.1 58.1 L 106.1 61.1 L 100.2 61.1 L 100.2 58.1 L 94.1 58.1 L 94.1 61.1 L 88.2 61.1 L 88.2 58.1 L 82.1 58.1 L 82.1 61.1 L 76.2 61.1 L 76.2 58.1 L 70.1 58.1 L 70.1 61.1 L 64.2 61.1 L 64.2 58.1 L 58.1 58.1 L 58.1 64.2 Z M 100.25 139.1 L 104.05 139.1 L 104.05 136.25 L 106.95 136.25 L 106.95 142.15 L 104.05 142.15 L 104.05 142 L 100.25 142 L 100.25 139.1 Z M 100.25 220.1 L 106.15 220.1 L 106.15 220.25 L 106.95 220.25 L 106.95 226.15 L 104.05 226.15 L 104.05 223 L 100.25 223 L 100.25 220.1 Z M 104.05 100.25 L 106.95 100.25 L 106.95 106.15 L 104.05 106.15 L 104.05 100.25 Z M 104.05 112.25 L 106.95 112.25 L 106.95 118.15 L 104.05 118.15 L 104.05 112.25 Z M 104.05 124.25 L 106.95 124.25 L 106.95 130.15 L 104.05 130.15 L 104.05 124.25 Z M 104.05 148.25 L 106.95 148.25 L 106.95 154.15 L 104.05 154.15 L 104.05 148.25 Z M 104.05 160.25 L 106.95 160.25 L 106.95 166.15 L 104.05 166.15 L 104.05 160.25 Z M 104.05 172.25 L 106.95 172.25 L 106.95 178.15 L 104.05 178.15 L 104.05 172.25 Z M 104.05 184.25 L 106.95 184.25 L 106.95 190.15 L 104.05 190.15 L 104.05 184.25 Z M 104.05 196.25 L 106.95 196.25 L 106.95 202.15 L 104.05 202.15 L 104.05 196.25 Z M 104.05 208.25 L 106.95 208.25 L 106.95 214.15 L 104.05 214.15 L 104.05 208.25 Z M 104.05 232.25 L 106.95 232.25 L 106.95 238.15 L 104.05 238.15 L 104.05 232.25 Z M 104.05 244.25 L 106.95 244.25 L 106.95 250.15 L 104.05 250.15 L 104.05 244.25 Z M 104.05 256.25 L 106.95 256.25 L 106.95 262.15 L 104.05 262.15 L 104.05 256.25 Z M 104.05 268.25 L 106.95 268.25 L 106.95 274.15 L 104.05 274.15 L 104.05 268.25 Z M 104.05 280.25 L 106.95 280.25 L 106.95 286.15 L 104.05 286.15 L 104.05 280.25 Z M 104.05 292.25 L 106.95 292.25 L 106.95 298.15 L 104.05 298.15 L 104.05 292.25 Z M 104.05 64.25 L 106.95 64.25 L 106.95 70.15 L 104.05 70.15 L 104.05 64.25 Z M 104.05 76.25 L 106.95 76.25 L 106.95 82.15 L 104.05 82.15 L 104.05 76.25 Z M 104.05 88.25 L 106.95 88.25 L 106.95 94.15 L 104.05 94.15 L 104.05 88.25 Z M 112.25 139.1 L 118.15 139.1 L 118.15 142 L 112.25 142 L 112.25 139.1 Z M 112.25 220.1 L 118.15 220.1 L 118.15 223 L 112.25 223 L 112.25 220.1 Z M 124.25 139.1 L 130.15 139.1 L 130.15 142 L 124.25 142 L 124.25 139.1 Z M 124.25 220.1 L 130.15 220.1 L 130.15 223 L 124.25 223 L 124.25 220.1 Z M 136.25 139.1 L 142.15 139.1 L 142.15 142 L 136.25 142 L 136.25 139.1 Z M 136.25 220.1 L 142.15 220.1 L 142.15 223 L 136.25 223 L 136.25 220.1 Z M 148.25 139.1 L 149.8 139.1 L 149.8 136.25 L 152.7 136.25 L 152.7 139.1 L 154.15 139.1 L 154.15 142 L 152.7 142 L 152.7 142.15 L 149.8 142.15 L 149.8 142 L 148.25 142 L 148.25 139.1 Z M 148.25 220.1 L 154.15 220.1 L 154.15 223 L 152.7 223 L 152.7 226.15 L 149.8 226.15 L 149.8 223 L 148.25 223 L 148.25 220.1 Z M 149.8 100.25 L 152.7 100.25 L 152.7 106.15 L 149.8 106.15 L 149.8 100.25 Z M 149.8 112.25 L 152.7 112.25 L 152.7 118.15 L 149.8 118.15 L 149.8 112.25 Z M 149.8 124.25 L 152.7 124.25 L 152.7 130.15 L 149.8 130.15 L 149.8 124.25 Z M 149.8 148.25 L 152.7 148.25 L 152.7 154.15 L 149.8 154.15 L 149.8 148.25 Z M 149.8 160.25 L 152.7 160.25 L 152.7 166.15 L 149.8 166.15 L 149.8 160.25 Z M 149.8 172.25 L 152.7 172.25 L 152.7 178.15 L 149.8 178.15 L 149.8 172.25 Z M 149.8 184.25 L 152.7 184.25 L 152.7 190.15 L 149.8 190.15 L 149.8 184.25 Z M 149.8 196.25 L 152.7 196.25 L 152.7 202.15 L 149.8 202.15 L 149.8 196.25 Z M 149.8 208.25 L 152.7 208.25 L 152.7 214.15 L 149.8 214.15 L 149.8 208.25 Z M 149.8 232.25 L 152.7 232.25 L 152.7 238.15 L 149.8 238.15 L 149.8 232.25 Z M 149.8 244.25 L 152.7 244.25 L 152.7 250.15 L 149.8 250.15 L 149.8 244.25 Z M 149.8 256.25 L 152.7 256.25 L 152.7 262.15 L 149.8 262.15 L 149.8 256.25 Z M 149.8 268.25 L 152.7 268.25 L 152.7 274.15 L 149.8 274.15 L 149.8 268.25 Z M 149.8 280.25 L 152.7 280.25 L 152.7 286.15 L 149.8 286.15 L 149.8 280.25 Z M 149.8 292.25 L 152.7 292.25 L 152.7 298.15 L 149.8 298.15 L 149.8 292.25 Z M 149.8 64.25 L 152.7 64.25 L 152.7 70.15 L 149.8 70.15 L 149.8 64.25 Z M 149.8 76.25 L 152.7 76.25 L 152.7 82.15 L 149.8 82.15 L 149.8 76.25 Z M 149.8 88.25 L 152.7 88.25 L 152.7 94.15 L 149.8 94.15 L 149.8 88.25 Z M 160.25 139.1 L 166.15 139.1 L 166.15 142 L 160.25 142 L 160.25 139.1 Z M 160.25 220.1 L 166.15 220.1 L 166.15 223 L 160.25 223 L 160.25 220.1 Z M 172.25 139.1 L 178.15 139.1 L 178.15 142 L 172.25 142 L 172.25 139.1 Z M 172.25 220.1 L 178.15 220.1 L 178.15 223 L 172.25 223 L 172.25 220.1 Z M 184.25 139.1 L 190.15 139.1 L 190.15 142 L 184.25 142 L 184.25 139.1 Z M 184.25 220.1 L 190.15 220.1 L 190.15 223 L 184.25 223 L 184.25 220.1 Z M 195.55 100.25 L 198.45 100.25 L 198.45 106.15 L 195.55 106.15 L 195.55 100.25 Z M 195.55 112.25 L 198.45 112.25 L 198.45 118.15 L 195.55 118.15 L 195.55 112.25 Z M 195.55 124.25 L 198.45 124.25 L 198.45 130.15 L 195.55 130.15 L 195.55 124.25 Z M 195.55 136.25 L 198.45 136.25 L 198.45 139.1 L 202.15 139.1 L 202.15 142 L 198.45 142 L 198.45 142.15 L 195.55 142.15 L 195.55 136.25 Z M 195.55 148.25 L 198.45 148.25 L 198.45 154.15 L 195.55 154.15 L 195.55 148.25 Z M 195.55 160.25 L 198.45 160.25 L 198.45 166.15 L 195.55 166.15 L 195.55 160.25 Z M 195.55 172.25 L 198.45 172.25 L 198.45 178.15 L 195.55 178.15 L 195.55 172.25 Z M 195.55 184.25 L 198.45 184.25 L 198.45 190.15 L 195.55 190.15 L 195.55 184.25 Z M 195.55 196.25 L 198.45 196.25 L 198.45 202.15 L 195.55 202.15 L 195.55 196.25 Z M 195.55 208.25 L 198.45 208.25 L 198.45 214.15 L 195.55 214.15 L 195.55 208.25 Z M 195.55 220.25 L 196.25 220.25 L 196.25 220.1 L 202.15 220.1 L 202.15 223 L 198.45 223 L 198.45 226.15 L 195.55 226.15 L 195.55 220.25 Z M 195.55 232.25 L 198.45 232.25 L 198.45 238.15 L 195.55 238.15 L 195.55 232.25 Z M 195.55 244.25 L 198.45 244.25 L 198.45 250.15 L 195.55 250.15 L 195.55 244.25 Z M 195.55 256.25 L 198.45 256.25 L 198.45 262.15 L 195.55 262.15 L 195.55 256.25 Z M 195.55 268.25 L 198.45 268.25 L 198.45 274.15 L 195.55 274.15 L 195.55 268.25 Z M 195.55 280.25 L 198.45 280.25 L 198.45 286.15 L 195.55 286.15 L 195.55 280.25 Z M 195.55 292.25 L 198.45 292.25 L 198.45 298.15 L 195.55 298.15 L 195.55 292.25 Z M 195.55 64.25 L 198.45 64.25 L 198.45 70.15 L 195.55 70.15 L 195.55 64.25 Z M 195.55 76.25 L 198.45 76.25 L 198.45 82.15 L 195.55 82.15 L 195.55 76.25 Z M 195.55 88.25 L 198.45 88.25 L 198.45 94.15 L 195.55 94.15 L 195.55 88.25 Z M 208.25 139.1 L 214.15 139.1 L 214.15 142 L 208.25 142 L 208.25 139.1 Z M 208.25 220.1 L 214.15 220.1 L 214.15 223 L 208.25 223 L 208.25 220.1 Z M 220.25 139.1 L 226.15 139.1 L 226.15 142 L 220.25 142 L 220.25 139.1 Z M 220.25 220.1 L 226.15 220.1 L 226.15 223 L 220.25 223 L 220.25 220.1 Z M 232.25 139.1 L 238.15 139.1 L 238.15 142 L 232.25 142 L 232.25 139.1 Z M 232.25 220.1 L 238.15 220.1 L 238.15 223 L 232.25 223 L 232.25 220.1 Z M 64.25 139.1 L 70.15 139.1 L 70.15 142 L 64.25 142 L 64.25 139.1 Z M 64.25 220.1 L 70.15 220.1 L 70.15 223 L 64.25 223 L 64.25 220.1 Z M 76.25 139.1 L 82.15 139.1 L 82.15 142 L 76.25 142 L 76.25 139.1 Z M 76.25 220.1 L 82.15 220.1 L 82.15 223 L 76.25 223 L 76.25 220.1 Z M 88.25 139.1 L 94.15 139.1 L 94.15 142 L 88.25 142 L 88.25 139.1 Z M 88.25 220.1 L 94.15 220.1 L 94.15 223 L 88.25 223 L 88.25 220.1 Z"/>
    <path id="piece_004" style="fill:none;stroke:#000000;stroke-width:0.0508" d="M 248.2 64.1 L 245.2 64.1 L 245.2 70.2 L 248.2 70.2 L 248.2 76.1 L 245.2 76.1 L 245.2 82.2 L 248.2 82.2 L 248.2 88.1 L 245.2 88.1 L 245.2 94.2 L 248.2 94.2 L 248.2 100.1 L 245.2 100.1 L 245.2 106.2 L 248.2 106.2 L 248.2 112.1 L 245.2 112.1 L 245.2 118.2 L 248.2 118.2 L 248.2 124.1 L 245.2 124.1 L 245.2 130.2 L 248.2 130.2 L 248.2 136.1 L 245.2 136.1 L 245.2 142.2 L 248.2 142.2 L 248.2 148.1 L 245.2 148.1 L 245.2 154.2 L 248.2 154.2 L 248.2 160.1 L 245.2 160.1 L 245.2 166.2 L 248.2 166.2 L 248.2 172.1 L 245.2 172.1 L 245.2 178.2 L 248.2 178.2 L 248.2 184.1 L 245.2 184.1 L 245.2 190.2 L 248.2 190.2 L 248.2 196.1 L 245.2 196.1 L 245.2 202.2 L 248.2 202.2 L 248.2 208.1 L 245.2 208.1 L 245.2 214.2 L 248.2 214.2 L 248.2 220.1 L 245.2 220.1 L 245.2 226.2 L 248.2 226.2 L 248.2 232.1 L 245.2 232.1 L 245.2 238.2 L 248.2 238.2 L 248.2 244.1 L 245.2 244.1 L 245.2 250.2 L 248.2 250.2 L 248.2 256.1 L 245.2 256.1 L 245.2 262.2 L 248.2 262.2 L 248.2 268.1 L 245.2 268.1 L 245.2 274.2 L 248.2 274.2 L 248.2 280.1 L 245.2 280.1 L 245.2 286.2 L 248.2 286.2 L 248.2 292.1 L 245.2 292.1 L 245.2 298.2 L 248.2 298.2 L 248.2 301.2 L 251.6 301.2 L 251.6 304.2 L 257.7 304.2 L 257.7 301.2 L 264 301.2 L 264 304.2 L 270.1 304.2 L 270.1 301.2 L 276.4 301.2 L 276.4 304.2 L 282.5 304.2 L 282.5 301.2 L 288.8 301.2 L 288.8 304.2 L 294.9 304.2 L 294.9 301.2 L 298.3 301.2 L 298.3 298.2 L 301.3 298.2 L 301.3 292.1 L 298.3 292.1 L 298.3 286.2 L 301.3 286.2 L 301.3 280.1 L 298.3 280.1 L 298.3 274.2 L 301.3 274.2 L 301.3 268.1 L 298.3 268.1 L 298.3 262.2 L 301.3 262.2 L 301.3 256.1 L 298.3 256.1 L 298.3 250.2 L 301.3 250.2 L 301.3 244.1 L 298.3 244.1 L 298.3 238.2 L 301.3 238.2 L 301.3 232.1 L 298.3 232.1 L 298.3 226.2 L 301.3 226.2 L 301.3 220.1 L 298.3 220.1 L 298.3 214.2 L 301.3 214.2 L 301.3 208.1 L 298.3 208.1 L 298.3 202.2 L 301.3 202.2 L 301.3 196.1 L 298.3 196.1 L 298.3 190.2 L 301.3 190.2 L 301.3 184.1 L 298.3 184.1 L 298.3 178.2 L 301.3 178.2 L 301.3 172.1 L 298.3 172.1 L 298.3 166.2 L 301.3 166.2 L 301.3 160.1 L 298.3 160.1 L 298.3 154.2 L 301.3 154.2 L 301.3 148.1 L 298.3 148.1 L 298.3 142.2 L 301.3 142.2 L 301.3 136.1 L 298.3 136.1 L 298.3 130.2 L 301.3 130.2 L 301.3 124.1 L 298.3 124.1 L 298.3 118.2 L 301.3 118.2 L 301.3 112.1 L 298.3 112.1 L 298.3 106.2 L 301.3 106.2 L 301.3 100.1 L 298.3 100.1 L 298.3 94.2 L 301.3 94.2 L 301.3 88.1 L 298.3 88.1 L 298.3 82.2 L 301.3 82.2 L 301.3 76.1 L 298.3 76.1 L 298.3 70.2 L 301.3 70.2 L 301.3 64.1 L 298.3 64.1 L 298.3 61.1 L 294.9 61.1 L 294.9 58.1 L 288.8 58.1 L 288.8 61.1 L 282.5 61.1 L 282.5 58.1 L 276.4 58.1 L 276.4 61.1 L 270.1 61.1 L 270.1 58.1 L 264 58.1 L 264 61.1 L 257.7 61.1 L 257.7 58.1 L 251.6 58.1 L 251.6 61.1 L 248.2 61.1 L 248.2 64.1 Z M 248.25 139.1 L 251.55 139.1 L 251.55 142 L 248.25 142 L 248.25 139.1 Z M 248.25 220.1 L 251.55 220.1 L 251.55 223 L 248.25 223 L 248.25 220.1 Z M 257.65 139.1 L 263.95 139.1 L 263.95 142 L 257.65 142 L 257.65 139.1 Z M 257.65 220.1 L 263.95 220.1 L 263.95 223 L 257.65 223 L 257.65 220.1 Z M 270.05 139.1 L 276.35 139.1 L 276.35 142 L 270.05 142 L 270.05 139.1 Z M 270.05 220.1 L 276.35 220.1 L 276.35 223 L 270.05 223 L 270.05 220.1 Z M 282.45 139.1 L 288.75 139.1 L 288.75 142 L 282.45 142 L 282.45 139.1 Z M 282.45 220.1 L 288.75 220.1 L 288.75 223 L 282.45 223 L 282.45 220.1 Z M 294.85 139.1 L 298.15 139.1 L 298.15 142 L 294.85 142 L 294.85 139.1 Z M 294.85 220.1 L 298.15 220.1 L 298.15 223 L 294.85 223 L 294.85 220.1 Z"/>
    <path id="piece_005" style="fill:none;stroke:#000000;stroke-width:0.0508" d="M 302.3 64.2 L 305.3 64.2 L 305.3 70.1 L 302.3 70.1 L 302.3 76.2 L 305.3 76.2 L 305.3 82.1 L 302.3 82.1 L 302.3 88.2 L 305.3 88.2 L 305.3 94.1 L 302.3 94.1 L 302.3 100.2 L 305.3 100.2 L 305.3 106.1 L 302.3 106.1 L 302.3 112.2 L 305.3 112.2 L 305.3 118.1 L 302.3 118.1 L 302.3 124.2 L 305.3 124.2 L 305.3 130.1 L 302.3 130.1 L 302.3 136.2 L 305.3 136.2 L 305.3 142.1 L 302.3 142.1 L 302.3 148.2 L 305.3 148.2 L 305.3 154.1 L 302.3 154.1 L 302.3 160.2 L 305.3 160.2 L 305.3 166.1 L 302.3 166.1 L 302.3 172.2 L 305.3 172.2 L 305.3 178.1 L 302.3 178.1 L 302.3 184.2 L 305.3 184.2 L 305.3 190.1 L 302.3 190.1 L 302.3 196.2 L 305.3 196.2 L 305.3 202.1 L 302.3 202.1 L 302.3 208.2 L 305.3 208.2 L 305.3 214.1 L 302.3 214.1 L 302.3 220.2 L 305.3 220.2 L 305.3 226.1 L 302.3 226.1 L 302.3 232.2 L 305.3 232.2 L 305.3 238.1 L 302.3 238.1 L 302.3 244.2 L 305.3 244.2 L 305.3 250.1 L 302.3 250.1 L 302.3 256.2 L 305.3 256.2 L 305.3 262.1 L 302.3 262.1 L 302.3 268.2 L 305.3 268.2 L 305.3 274.1 L 302.3 274.1 L 302.3 280.2 L 305.3 280.2 L 305.3 286.1 L 302.3 286.1 L 302.3 292.2 L 305.3 292.2 L 305.3 298.1 L 302.3 298.1 L 302.3 304.2 L 308.4 304.2 L 308.4 301.2 L 314.3 301.2 L 314.3 304.2 L 320.4 304.2 L 320.4 301.2 L 326.3 301.2 L 326.3 304.2 L 332.4 304.2 L 332.4 301.2 L 338.3 301.2 L 338.3 304.2 L 344.4 304.2 L 344.4 301.2 L 350.3 301.2 L 350.3 304.2 L 356.4 304.2 L 356.4 301.2 L 362.3 301.2 L 362.3 304.2 L 368.4 304.2 L 368.4 301.2 L 374.3 301.2 L 374.3 304.2 L 380.4 304.2 L 380.4 301.2 L 386.3 301.2 L 386.3 304.2 L 392.4 304.2 L 392.4 301.2 L 398.3 301.2 L 398.3 304.2 L 404.4 304.2 L 404.4 301.2 L 410.3 301.2 L 410.3 304.2 L 416.4 304.2 L 416.4 301.2 L 422.3 301.2 L 422.3 304.2 L 428.4 304.2 L 428.4 301.2 L 434.3 301.2 L 434.3 304.2 L 440.4 304.2 L 440.4 301.2 L 446.3 301.2 L 446.3 304.2 L 452.4 304.2 L 452.4 301.2 L 458.3 301.2 L 458.3 304.2 L 464.4 304.2 L 464.4 301.2 L 470.3 301.2 L 470.3 304.2 L 476.4 304.2 L 476.4 301.2 L 482.3 301.2 L 482.3 304.2 L 488.4 304.2 L 488.4 298.1 L 485.4 298.1 L 485.4 292.2 L 488.4 292.2 L 488.4 286.1 L 485.4 286.1 L 485.4 280.2 L 488.4 280.2 L 488.4 274.1 L 485.4 274.1 L 485.4 268.2 L 488.4 268.2 L 488.4 262.1 L 485.4 262.1 L 485.4 256.2 L 488.4 256.2 L 488.4 250.1 L 485.4 250.1 L 485.4 244.2 L 488.4 244.2 L 488.4 238.1 L 485.4 238.1 L 485.4 232.2 L 488.4 232.2 L 488.4 226.1 L 485.4 226.1 L 485.4 220.2 L 488.4 220.2 L 488.4 214.1 L 485.4 214.1 L 485.4 208.2 L 488.4 208.2 L 488.4 202.1 L 485.4 202.1 L 485.4 196.2 L 488.4 196.2 L 488.4 190.1 L 485.4 190.1 L 485.4 184.2 L 488.4 184.2 L 488.4 178.1 L 485.4 178.1 L 485.4 172.2 L 488.4 172.2 L 488.4 166.1 L 485.4 166.1 L 485.4 160.2 L 488.4 160.2 L 488.4 154.1 L 485.4 154.1 L 485.4 148.2 L 488.4 148.2 L 488.4 142.1 L 485.4 142.1 L 485.4 136.2 L 488.4 136.2 L 488.4 130.1 L 485.4 130.1 L 485.4 124.2 L 488.4 124.2 L 488.4 118.1 L 485.4 118.1 L 485.4 112.2 L 488.4 112.2 L 488.4 106.1 L 485.4 106.1 L 485.4 100.2 L 488.4 100.2 L 488.4 94.1 L 485.4 94.1 L 485.4 88.2 L 488.4 88.2 L 488.4 82.1 L 485.4 82.1 L 485.4 76.2 L 488.4 76.2 L 488.4 70.1 L 485.4 70.1 L 485.4 64.2 L 488.4 64.2 L 488.4 58.1 L 482.3 58.1 L 482.3 61.1 L 476.4 61.1 L 476.4 58.1 L 470.3 58.1 L 470.3 61.1 L 464.4 61.1 L 464.4 58.1 L 458.3 58.1 L 458.3 61.1 L 452.4 61.1 L 452.4 58.1 L 446.3 58.1 L 446.3 61.1 L 440.4 61.1 L 440.4 58.1 L 434.3 58.1 L 434.3 61.1 L 428.4 61.1 L 428.4 58.1 L 422.3 58.1 L 422.3 61.1 L 416.4 61.1 L 416.4 58.1 L 410.3 58.1 L 410.3 61.1 L 404.4 61.1 L 404.4 58.1 L 398.3 58.1 L 398.3 61.1 L 392.4 61.1 L 392.4 58.1 L 386.3 58.1 L 386.3 61.1 L 380.4 61.1 L 380.4 58.1 L 374.3 58.1 L 374.3 61.1 L 368.4 61.1 L 368.4 58.1 L 362.3 58.1 L 362.3 61.1 L 356.4 61.1 L 356.4 58.1 L 350.3 58.1 L 350.3 61.1 L 344.4 61.1 L 344.4 58.1 L 338.3 58.1 L 338.3 61.1 L 332.4 61.1 L 332.4 58.1 L 326.3 58.1 L 326.3 61.1 L 320.4 61.1 L 320.4 58.1 L 314.3 58.1 L 314.3 61.1 L 308.4 61.1 L 308.4 58.1 L 302.3 58.1 L 302.3 64.2 Z M 308.45 139.1 L 314.35 139.1 L 314.35 142 L 308.45 142 L 308.45 139.1 Z M 308.45 220.1 L 314.35 220.1 L 314.35 223 L 308.45 223 L 308.45 220.1 Z M 320.45 139.1 L 326.35 139.1 L 326.35 142 L 320.45 142 L 320.45 139.1 Z M 320.45 220.1 L 326.35 220.1 L 326.35 223 L 320.45 223 L 320.45 220.1 Z M 332.45 139.1 L 338.35 139.1 L 338.35 142 L 332.45 142 L 332.45 139.1 Z M 332.45 220.1 L 338.35 220.1 L 338.35 223 L 332.45 223 L 332.45 220.1 Z M 344.45 139.1 L 348.25 139.1 L 348.25 136.25 L 351.15 136.25 L 351.15 142.15 L 348.25 142.15 L 348.25 142 L 344.45 142 L 344.45 139.1 Z M 344.45 220.1 L 350.35 220.1 L 350.35 220.25 L 351.15 220.25 L 351.15 226.15 L 348.25 226.15 L 348.25 223 L 344.45 223 L 344.45 220.1 Z M 348.25 100.25 L 351.15 100.25 L 351.15 106.15 L 348.25 106.15 L 348.25 100.25 Z M 348.25 112.25 L 351.15 112.25 L 351.15 118.15 L 348.25 118.15 L 348.25 112.25 Z M 348.25 124.25 L 351.15 124.25 L 351.15 130.15 L 348.25 130.15 L 348.25 124.25 Z M 348.25 148.25 L 351.15 148.25 L 351.15 154.15 L 348.25 154.15 L 348.25 148.25 Z M 348.25 160.25 L 351.15 160.25 L 351.15 166.15 L 348.25 166.15 L 348.25 160.25 Z M 348.25 172.25 L 351.15 172.25 L 351.15 178.15 L 348.25 178.15 L 348.25 172.25 Z M 348.25 184.25 L 351.15 184.25 L 351.15 190.15 L 348.25 190.15 L 348.25 184.25 Z M 348.25 196.25 L 351.15 196.25 L 351.15 202.15 L 348.25 202.15 L 348.25 196.25 Z M 348.25 208.25 L 351.15 208.25 L 351.15 214.15 L 348.25 214.15 L 348.25 208.25 Z M 348.25 232.25 L 351.15 232.25 L 351.15 238.15 L 348.25 238.15 L 348.25 232.25 Z M 348.25 244.25 L 351.15 244.25 L 351.15 250.15 L 348.25 250.15 L 348.25 244.25 Z M 348.25 256.25 L 351.15 256.25 L 351.15 262.15 L 348.25 262.15 L 348.25 256.25 Z M 348.25 268.25 L 351.15 268.25 L 351.15 274.15 L 348.25 274.15 L 348.25 268.25 Z M 348.25 280.25 L 351.15 280.25 L 351.15 286.15 L 348.25 286.15 L 348.25 280.25 Z M 348.25 292.25 L 351.15 292.25 L 351.15 298.15 L 348.25 298.15 L 348.25 292.25 Z M 348.25 64.25 L 351.15 64.25 L 351.15 70.15 L 348.25 70.15 L 348.25 64.25 Z M 348.25 76.25 L 351.15 76.25 L 351.15 82.15 L 348.25 82.15 L 348.25 76.25 Z M 348.25 88.25 L 351.15 88.25 L 351.15 94.15 L 348.25 94.15 L 348.25 88.25 Z M 356.45 139.1 L 362.35 139.1 L 362.35 142 L 356.45 142 L 356.45 139.1 Z M 356.45 220.1 L 362.35 220.1 L 362.35 223 L 356.45 223 L 356.45 220.1 Z M 368.45 139.1 L 374.35 139.1 L 374.35 142 L 368.45 142 L 368.45 139.1 Z M 368.45 220.1 L 374.35 220.1 L 374.35 223 L 368.45 223 L 368.45 220.1 Z M 380.45 139.1 L 386.35 139.1 L 386.35 142 L 380.45 142 L 380.45 139.1 Z M 380.45 220.1 L 386.35 220.1 L 386.35 223 L 380.45 223 L 380.45 220.1 Z M 392.45 139.1 L 394 139.1 L 394 136.25 L 396.9 136.25 L 396.9 139.1 L 398.35 139.1 L 398.35 142 L 396.9 142 L 396.9 142.15 L 394 142.15 L 394 142 L 392.45 142 L 392.45 139.1 Z M 392.45 220.1 L 398.35 220.1 L 398.35 223 L 396.9 223 L 396.9 226.15 L 394 226.15 L 394 223 L 392.45 223 L 392.45 220.1 Z M 394 100.25 L 396.9 100.25 L 396.9 106.15 L 394 106.15 L 394 100.25 Z M 394 112.25 L 396.9 112.25 L 396.9 118.15 L 394 118.15 L 394 112.25 Z M 394 124.25 L 396.9 124.25 L 396.9 130.15 L 394 130.15 L 394 124.25 Z M 394 148.25 L 396.9 148.25 L 396.9 154.15 L 394 154.15 L 394 148.25 Z M 394 160.25 L 396.9 160.25 L 396.9 166.15 L 394 166.15 L 394 160.25 Z M 394 172.25 L 396.9 172.25 L 396.9 178.15 L 394 178.15 L 394 172.25 Z M 394 184.25 L 396.9 184.25 L 396.9 190.15 L 394 190.15 L 394 184.25 Z M 394 196.25 L 396.9 196.25 L 396.9 202.15 L 394 202.15 L 394 196.25 Z M 394 208.25 L 396.9 208.25 L 396.9 214.15 L 394 214.15 L 394 208.25 Z M 394 232.25 L 396.9 232.25 L 396.9 238.15 L 394 238.15 L 394 232.25 Z M 394 244.25 L 396.9 244.25 L 396.9 250.15 L 394 250.15 L 394 244.25 Z M 394 256.25 L 396.9 256.25 L 396.9 262.15 L 394 262.15 L 394 256.25 Z M 394 268.25 L 396.9 268.25 L 396.9 274.15 L 394 274.15 L 394 268.25 Z M 394 280.25 L 396.9 280.25 L 396.9 286.15 L 394 286.15 L 394 280.25 Z M 394 292.25 L 396.9 292.25 L 396.9 298.15 L 394 298.15 L 394 292.25 Z M 394 64.25 L 396.9 64.25 L 396.9 70.15 L 394 70.15 L 394 64.25 Z M 394 76.25 L 396.9 76.25 L 396.9 82.15 L 394 82.15 L 394 76.25 Z M 394 88.25 L 396.9 88.25 L 396.9 94.15 L 394 94.15 L 394 88.25 Z M 404.45 139.1 L 410.35 139.1 L 410.35 142 L 404.45 142 L 404.45 139.1 Z M 404.45 220.1 L 410.35 220.1 L 410.35 223 L 404.45 223 L 404.45 220.1 Z M 416.45 139.1 L 422.35 139.1 L 422.35 142 L 416.45 142 L 416.45 139.1 Z M 416.45 220.1 L 422.35 220.1 L 422.35 223 L 416.45 223 L 416.45 220.1 Z M 428.45 139.1 L 434.35 139.1 L 434.35 142 L 428.45 142 L 428.45 139.1 Z M 428.45 220.1 L 434.35 220.1 L 434.35 223 L 428.45 223 L 428.45 220.1 Z M 439.75 100.25 L 442.65 100.25 L 442.65 106.15 L 439.75 106.15 L 439.75 100.25 Z M 439.75 112.25 L 442.65 112.25 L 442.65 118.15 L 439.75 118.15 L 439.75 112.25 Z M 439.75 124.25 L 442.65 124.25 L 442.65 130.15 L 439.75 130.15 L 439.75 124.25 Z M 439.75 136.25 L 442.65 136.25 L 442.65 139.1 L 446.35 139.1 L 446.35 142 L 442.65 142 L 442.65 142.15 L 439.75 142.15 L 439.75 136.25 Z M 439.75 148.25 L 442.65 148.25 L 442.65 154.15 L 439.75 154.15 L 439.75 148.25 Z M 439.75 160.25 L 442.65 160.25 L 442.65 166.15 L 439.75 166.15 L 439.75 160.25 Z M 439.75 172.25 L 442.65 172.25 L 442.65 178.15 L 439.75 178.15 L 439.75 172.25 Z M 439.75 184.25 L 442.65 184.25 L 442.65 190.15 L 439.75 190.15 L 439.75 184.25 Z M 439.75 196.25 L 442.65 196.25 L 442.65 202.15 L 439.75 202.15 L 439.75 196.25 Z M 439.75 208.25 L 442.65 208.25 L 442.65 214.15 L 439.75 214.15 L 439.75 208.25 Z M 439.75 220.25 L 440.45 220.25 L 440.45 220.1 L 446.35 220.1 L 446.35 223 L 442.65 223 L 442.65 226.15 L 439.75 226.15 L 439.75 220.25 Z M 439.75 232.25 L 442.65 232.25 L 442.65 238.15 L 439.75 238.15 L 439.75 232.25 Z M 439.75 244.25 L 442.65 244.25 L 442.65 250.15 L 439.75 250.15 L 439.75 244.25 Z M 439.75 256.25 L 442.65 256.25 L 442.65 262.15 L 439.75 262.15 L 439.75 256.25 Z M 439.75 268.25 L 442.65 268.25 L 442.65 274.15 L 439.75 274.15 L 439.75 268.25 Z M 439.75 280.25 L 442.65 280.25 L 442.65 286.15 L 439.75 286.15 L 439.75 280.25 Z M 439.75 292.25 L 442.65 292.25 L 442.65 298.15 L 439.75 298.15 L 439.75 292.25 Z M 439.75 64.25 L 442.65 64.25 L 442.65 70.15 L 439.75 70.15 L 439.75 64.25 Z M 439.75 76.25 L 442.65 76.25 L 442.65 82.15 L 439.75 82.15 L 439.75 76.25 Z M 439.75 88.25 L 442.65 88.25 L 442.65 94.15 L 439.75 94.15 L 439.75 88.25 Z M 452.45 139.1 L 458.35 139.1 L 458.35 142 L 452.45 142 L 452.45 139.1 Z M 452.45 220.1 L 458.35 220.1 L 458.35 223 L 452.45 223 L 452.45 220.1 Z M 464.45 139.1 L 470.35 139.1 L 470.35 142 L 464.45 142 L 464.45 139.1 Z M 464.45 220.1 L 470.35 220.1 L 470.35 223 L 464.45 223 L 464.45 220.1 Z M 476.45 139.1 L 482.35 139.1 L 482.35 142 L 476.45 142 L 476.45 139.1 Z M 476.45 220.1 L 482.35 220.1 L 482.35 223 L 476.45 223 L 476.45 220.1 Z"/>
    <path id="piece_006" style="fill:none;stroke:#000000;stroke-width:0.0508" d="M 58.1 7.5 L 61.1 7.5 L 61.1 13.4 L 58.1 13.4 L 58.1 19.9 L 61.1 19.9 L 61.1 25.8 L 58.1 25.8 L 58.1 32.3 L 61.1 32.3 L 61.1 38.2 L 58.1 38.2 L 58.1 44.7 L 61.1 44.7 L 61.1 50.6 L 58.1 50.6 L 58.1 54.1 L 64.1 54.1 L 64.1 57.1 L 70.2 57.1 L 70.2 54.1 L 76.1 54.1 L 76.1 57.1 L 82.2 57.1 L 82.2 54.1 L 88.1 54.1 L 88.1 57.1 L 94.2 57.1 L 94.2 54.1 L 100.1 54.1 L 100.1 57.1 L 106.2 57.1 L 106.2 54.1 L 112.1 54.1 L 112.1 57.1 L 118.2 57.1 L 118.2 54.1 L 124.1 54.1 L 124.1 57.1 L 130.2 57.1 L 130.2 54.1 L 136.1 54.1 L 136.1 57.1 L 142.2 57.1 L 142.2 54.1 L 148.1 54.1 L 148.1 57.1 L 154.2 57.1 L 154.2 54.1 L 160.1 54.1 L 160.1 57.1 L 166.2 57.1 L 166.2 54.1 L 172.1 54.1 L 172.1 57.1 L 178.2 57.1 L 178.2 54.1 L 184.1 54.1 L 184.1 57.1 L 190.2 57.1 L 190.2 54.1 L 196.1 54.1 L 196.1 57.1 L 202.2 57.1 L 202.2 54.1 L 208.1 54.1 L 208.1 57.1 L 214.2 57.1 L 214.2 54.1 L 220.1 54.1 L 220.1 57.1 L 226.2 57.1 L 226.2 54.1 L 232.1 54.1 L 232.1 57.1 L 238.2 57.1 L 238.2 54.1 L 244.2 54.1 L 244.2 50.6 L 241.2 50.6 L 241.2 44.7 L 244.2 44.7 L 244.2 38.2 L 241.2 38.2 L 241.2 32.3 L 244.2 32.3 L 244.2 25.8 L 241.2 25.8 L 241.2 19.9 L 244.2 19.9 L 244.2 13.4 L 241.2 13.4 L 241.2 7.5 L 244.2 7.5 L 244.2 4 L 238.2 4 L 238.2 1 L 232.1 1 L 232.1 4 L 226.2 4 L 226.2 1 L 220.1 1 L 220.1 4 L 214.2 4 L 214.2 1 L 208.1 1 L 208.1 4 L 202.2 4 L 202.2 1 L 196.1 1 L 196.1 4 L 190.2 4 L 190.2 1 L 184.1 1 L 184.1 4 L 178.2 4 L 178.2 1 L 172.1 1 L 172.1 4 L 166.2 4 L 166.2 1 L 160.1 1 L 160.1 4 L 154.2 4 L 154.2 1 L 148.1 1 L 148.1 4 L 142.2 4 L 142.2 1 L 136.1 1 L 136.1 4 L 130.2 4 L 130.2 1 L 124.1 1 L 124.1 4 L 118.2 4 L 118.2 1 L 112.1 1 L 112.1 4 L 106.2 4 L 106.2 1 L 100.1 1 L 100.1 4 L 94.2 4 L 94.2 1 L 88.1 1 L 88.1 4 L 82.2 4 L 82.2 1 L 76.1 1 L 76.1 4 L 70.2 4 L 70.2 1 L 64.1 1 L 64.1 4 L 58.1 4 L 58.1 7.5 Z M 104.05 19.95 L 106.95 19.95 L 106.95 25.85 L 104.05 25.85 L 104.05 19.95 Z M 104.05 32.35 L 106.95 32.35 L 106.95 38.25 L 104.05 38.25 L 104.05 32.35 Z M 104.05 44.75 L 106.95 44.75 L 106.95 50.65 L 104.05 50.65 L 104.05 44.75 Z M 104.05 7.55 L 106.95 7.55 L 106.95 13.45 L 104.05 13.45 L 104.05 7.55 Z M 149.8 19.95 L 152.7 19.95 L 152.7 25.85 L 149.8 25.85 L 149.8 19.95 Z M 149.8 32.35 L 152.7 32.35 L 152.7 38.25 L 149.8 38.25 L 149.8 32.35 Z M 149.8 44.75 L 152.7 44.75 L 152.7 50.65 L 149.8 50.65 L 149.8 44.75 Z M 149.8 7.55 L 152.7 7.55 L 152.7 13.45 L 149.8 13.45 L 149.8 7.55 Z M 195.55 19.95 L 198.45 19.95 L 198.45 25.85 L 195.55 25.85 L 195.55 19.95 Z M 195.55 32.35 L 198.45 32.35 L 198.45 38.25 L 195.55 38.25 L 195.55 32.35 Z M 195.55 44.75 L 198.45 44.75 L 198.45 50.65 L 195.55 50.65 L 195.55 44.75 Z M 195.55 7.55 L 198.45 7.55 L 198.45 13.45 L 195.55 13.45 L 195.55 7.55 Z"/>
  </g>
</svg>