<!-- Created with Inkscape (http://www.inkscape.org/) -->
<svg xmlns:inkscape="http://www.inkscape.org/namespaces/inkscape" xmlns:sodipodi="http://sodipodi.sourceforge.net/DTD/sodipodi-0.dtd" xmlns="http://www.w3.org/2000/svg" xmlns:svg="http://www.w3.org/2000/svg" width="210mm" height="297mm" viewBox="0 0 210 297" version="1.1" id="svg5" inkscape:version="1.1.2 (0a00cf5339, 2022-02-04)" sodipodi:docname="blank.svg">
  <sodipodi:namedview id="namedview7" pagecolor="#ffffff" bordercolor="#666666" borderopacity="1.0" inkscape:pageshadow="2" inkscape:pageopacity="0.0" inkscape:pagecheckerboard="0" inkscape:document-units="mm" showgrid="false" inkscape:zoom="0.64052329" inkscape:cx="397.33138" inkscape:cy="561.25984" inkscape:window-width="2086" inkscape:window-height="1376" inkscape:window-x="0" inkscape:window-y="0" inkscape:window-maximized="1" inkscape:current-layer="layer1"/>
  <defs id="defs2"/>
  <g inkscape:label="Layer 1" inkscape:groupmode="layer" id="layer1">
    <g id="piece_001">
      <path id="side_001" style="fill:none;stroke:#000000;stroke-width:0.050800000000000005" d="m 58.1 308.2 l 5.9563 0 l 0 -3 l 6.0999 0 l 0 3 l 5.9063 0 l 0 -3 l 6.1 0 l 0 3 l 5.9062 0 l 0 -3 l 6.1 0 l 0 3 l 5.9063 0 l 0 -3 l 6.1 0 l 0 3 l 5.906 0 l 0 -3 l 6.1 0 l 0 3 l 5.906 0 l 0 -3 l 6.1 0 l 0 3 l 5.907 0 l 0 -3 l 6.1 0 l 0 3 l 5.906 0 l 0 -3 l 6.1 0 l 0 3 l 5.906 0 l 0 -3 l 6.1 0 l 0 3 l 5.906 0 l 0 -3 l 6.1 0 l 0 3 l 5.907 0 l 0 -3 l 6.1 0 l 0 3 l 5.906 0 l 0 -3 l 6.1 0 l 0 3 l 5.906 0 l 0 -3 l 6.1 0 l 0 3 l 5.906 0 l 0 -3 l 6.1 0 l 0 3 l 5.907 0 l 0 -3 l 6.1 0 l 0 3 l 5.956 0"/>
      <path id="side_002" style="fill:none;stroke:#000000;stroke-width:0.050800000000000005" d="m 195.475 311.67 l 0 5.9 l 2.9 0 l 0 -5.9 l -2.9 0"/>
      <path id="side_003" style="fill:none;stroke:#000000;stroke-width:0.050800000000000005" d="m 149.7 311.67 l 0 5.9 l 2.9 0 l 0 -5.9 l -2.9 0"/>
      <path id="side_004" style="fill:none;stroke:#000000;stroke-width:0.050800000000000005" d="m 103.925 311.67 l 0 5.9 l 2.9 0 l 0 -5.9 l -2.9 0"/>
      <path id="side_005" style="fill:none;stroke:#000000;stroke-width:0.050800000000000005" d="m 195.475 324.09 l 0 5.9 l 2.9 0 l 0 -5.9 l -2.9 0"/>
      <path id="side_006" style="fill:none;stroke:#000000;stroke-width:0.050800000000000005" d="m 149.7 324.09 l 0 5.9 l 2.9 0 l 0 -5.9 l -2.9 0"/>
      <path id="side_007" style="fill:none;stroke:#000000;stroke-width:0.050800000000000005" d="m 103.925 324.09 l 0 5.9 l 2.9 0 l 0 -5.9 l -2.9 0"/>
      <path id="side_008" style="fill:none;stroke:#000000;stroke-width:0.050800000000000005" d="m 195.475 336.51 l 0 5.9 l 2.9 0 l 0 -5.9 l -2.9 0"/>
      <path id="side_009" style="fill:none;stroke:#000000;stroke-width:0.050800000000000005" d="m 149.7 336.51 l 0 5.9 l 2.9 0 l 0 -5.9 l -2.9 0"/>
      <path id="side_010" style="fill:none;stroke:#000000;stroke-width:0.050800000000000005" d="m 103.925 336.51 l 0 5.9 l 2.9 0 l 0 -5.9 l -2.9 0"/>
      <path id="side_011" style="fill:none;stroke:#000000;stroke-width:0.050800000000000005" d="m 195.475 348.93 l 0 5.9 l 2.9 0 l 0 -5.9 l -2.9 0"/>
      <path id="side_012" style="fill:none;stroke:#000000;stroke-width:0.050800000000000005" d="m 149.7 348.93 l 0 5.9 l 2.9 0 l 0 -5.9 l -2.9 0"/>
      <path id="side_013" style="fill:none;stroke:#000000;stroke-width:0.050800000000000005" d="m 103.925 348.93 l 0 5.9 l 2.9 0 l 0 -5.9 l -2.9 0"/>
      <path id="side_014" style="fill:none;stroke:#000000;stroke-width:0.050800000000000005" d="m 244.2 308.2 l 0 3.47 l -3 0 l 0 5.9 l 3 0 l 0 6.52 l -3 0 l 0 5.9 l 3 0 l 0 6.52 l -3 0 l 0 5.9 l 3 0 l 0 6.52 l -3 0 l 0 5.9 l 3 0 l 0 3.47"/>
      <path id="side_015" style="fill:none;stroke:#000000;stroke-width:0.050800000000000005" d="m 244.2 358.3 l -5.956 0 l 0 3 l -6.1 0 l 0 -3 l -5.907 0 l 0 3 l -6.1 0 l 0 -3 l -5.906 0 l 0 3 l -6.1 0 l 0 -3 l -5.906 0 l 0 3 l -6.1 0 l 0 -3 l -5.906 0 l 0 3 l -6.1 0 l 0 -3 l -5.906 0 l 0 3 l -6.1 0 l 0 -3 l -5.907 0 l 0 3 l -6.1 0 l 0 -3 l -5.906 0 l 0 3 l -6.1 0 l 0 -3 l -5.906 0 l 0 3 l -6.1 0 l 0 -3 l -5.906 0 l 0 3 l -6.1 0 l 0 -3 l -5.907 0 l 0 3 l -6.1 0 l 0 -3 l -5.906 0 l 0 3 l -6.1 0 l 0 -3 l -5.9062 0 l 0 3 l -6.1 0 l 0 -3 l -5.9063 0 l 0 3 l -6.1 0 l 0 -3 l -5.9062 0 l 0 3 l -6.1 0 l 0 -3 l -5.9563 0"/>
      <path id="side_016" style="fill:none;stroke:#000000;stroke-width:0.050800000000000005" d="m 58.1 358.3 l 0 -3.47 l 3 0 l 0 -5.9 l -3 0 l 0 -6.52 l 3 0 l 0 -5.9 l -3 0 l 0 -6.52 l 3 0 l 0 -5.9 l -3 0 l 0 -6.52 l 3 0 l 0 -5.9 l -3 0 l 0 -3.47"/>
    </g>
    <g id="piece_002">
      <path id="side_017" style="fill:none;stroke:#000000;stroke-width:0.050800000000000005" d="m 0 365.3 l 5.95625 0 l 0 -3 l 6.09995 0 l 0 3 l 5.9063 0 l 0 -3 l 6.1 0 l 0 3 l 5.9063 0 l 0 -3 l 6.1 0 l 0 3 l 5.9062 0 l 0 -3 l 6.1 0 l 0 3 l 5.9063 0 l 0 -3 l 6.1 0 l 0 3 l 5.9062 0 l 0 -3 l 6.1 0 l 0 3 l 5.9063 0 l 0 -3 l 6.1 0 l 0 3 l 5.9062 0 l 0 -3 l 6.1 0 l 0 3 l 5.906 0 l 0 -3 l 6.1 0 l 0 3 l 5.906 0 l 0 -3 l 6.1 0 l 0 3 l 5.907 0 l 0 -3 l 6.1 0 l 0 3 l 5.906 0 l 0 -3 l 6.1 0 l 0 3 l 5.906 0 l 0 -3 l 6.1 0 l 0 3 l 5.906 0 l 0 -3 l 6.1 0 l 0 3 l 5.907 0 l 0 -3 l 6.1 0 l 0 3 l 5.956 0"/>
      <path id="side_018" style="fill:none;stroke:#000000;stroke-width:0.050800000000000005" d="m 137.375 362.3 l 0 28 l 2.9 0 l 0 -28 l -2.9 0"/>
      <path id="side_019" style="fill:none;stroke:#000000;stroke-width:0.050800000000000005" d="m 91.6 362.3 l 0 28 l 2.9 0 l 0 -28 l -2.9 0"/>
      <path id="side_020" style="fill:none;stroke:#000000;stroke-width:0.050800000000000005" d="m 45.825 362.3 l 0 28 l 2.9 0 l 0 -28 l -2.9 0"/>
      <path id="side_021" style="fill:none;stroke:#000000;stroke-width:0.050800000000000005" d="m 186.1 365.3 l 0 3.47 l -3 0 l 0 5.9 l 3 0 l 0 6.52 l -3 0 l 0 5.9 l 3 0 l 0 6.52 l -3 0 l 0 5.9 l 3 0 l 0 6.52 l -3 0 l 0 5.9 l 3 0 l 0 3.47"/>
      <path id="side_022" style="fill:none;stroke:#000000;stroke-width:0.050800000000000005" d="m 186.1 415.4 l -5.956 0 l 0 3 l -6.1 0 l 0 -3 l -5.907 0 l 0 3 l -6.1 0 l 0 -3 l -5.906 0 l 0 3 l -6.1 0 l 0 -3 l -5.906 0 l 0 3 l -6.1 0 l 0 -3 l -5.906 0 l 0 3 l -6.1 0 l 0 -3 l -5.906 0 l 0 3 l -6.1 0 l 0 -3 l -5.907 0 l 0 3 l -6.1 0 l 0 -3 l -5.906 0 l 0 3 l -6.1 0 l 0 -3 l -5.9062 0 l 0 3 l -6.1 0 l 0 -3 l -5.9063 0 l 0 3 l -6.1 0 l 0 -3 l -5.9062 0 l 0 3 l -6.1 0 l 0 -3 l -5.9063 0 l 0 3 l -6.1 0 l 0 -3 l -5.9062 0 l 0 3 l -6.1 0 l 0 -3 l -5.9063 0 l 0 3 l -6.1 0 l 0 -3 l -5.9062 0 l 0 3 l -6.10005 0 l 0 -3 l -5.95625 0"/>
      <path id="side_023" style="fill:none;stroke:#000000;stroke-width:0.050800000000000005" d="m 0 415.4 l 0 -3.47 l 3 0 l 0 -5.9 l -3 0 l 0 -6.52 l 3 0 l 0 -5.9 l -3 0 l 0 -6.52 l 3 0 l 0 -5.9 l -3 0 l 0 -6.52 l 3 0 l 0 -5.9 l -3 0 l 0 -3.47"/>
    </g>
    <g id="piece_003">
      <path id="side_024" style="fill:none;stroke:#000000;stroke-width:0.050800000000000005" d="m 187.1 365.3 l 5.956 0 l 0 -3 l 6.1 0 l 0 3 l 5.906 0 l 0 -3 l 6.1 0 l 0 3 l 5.907 0 l 0 -3 l 6.1 0 l 0 3 l 5.906 0 l 0 -3 l 6.1 0 l 0 3 l 5.906 0 l 0 -3 l 6.1 0 l 0 3 l 5.906 0 l 0 -3 l 6.101 0 l 0 3 l 5.906 0 l 0 -3 l 6.1 0 l 0 3 l 5.906 0 l 0 -3 l 6.1 0 l 0 3 l 5.906 0 l 0 -3 l 6.1 0 l 0 3 l 5.907 0 l 0 -3 l 6.1 0 l 0 3 l 5.906 0 l 0 -3 l 6.1 0 l 0 3 l 5.906 0 l 0 -3 l 6.1 0 l 0 3 l 5.906 0 l 0 -3 l 6.1 0 l 0 3 l 5.907 0 l 0 -3 l 6.1 0 l 0 3 l 5.906 0 l 0 -3 l 6.1 0 l 0 3 l 5.956 0"/>
      <path id="side_025" style="fill:none;stroke:#000000;stroke-width:0.050800000000000005" d="m 324.475 362.3 l 0 28 l 2.9 0 l 0 -28 l -2.9 0"/>
      <path id="side_026" style="fill:none;stroke:#000000;stroke-width:0.050800000000000005" d="m 278.7 362.3 l 0 28 l 2.9 0 l 0 -28 l -2.9 0"/>
      <path id="side_027" style="fill:none;stroke:#000000;stroke-width:0.050800000000000005" d="m 232.925 362.3 l 0 28 l 2.9 0 l 0 -28 l -2.9 0"/>
      <path id="side_028" style="fill:none;stroke:#000000;stroke-width:0.050800000000000005" d="m 373.2 365.3 l 0 3.47 l -3 0 l 0 5.9 l 3 0 l 0 6.52 l -3 0 l 0 5.9 l 3 0 l 0 6.52 l -3 0 l 0 5.9 l 3 0 l 0 6.52 l -3 0 l 0 5.9 l 3 0 l 0 3.47"/>
      <path id="side_029" style="fill:none;stroke:#000000;stroke-width:0.050800000000000005" d="m 373.2 415.4 l -5.956 0 l 0 3 l -6.1 0 l 0 -3 l -5.907 0 l 0 3 l -6.1 0 l 0 -3 l -5.906 0 l 0 3 l -6.1 0 l 0 -3 l -5.906 0 l 0 3 l -6.1 0 l 0 -3 l -5.906 0 l 0 3 l -6.1 0 l 0 -3 l -5.907 0 l 0 3 l -6.1 0 l 0 -3 l -5.906 0 l 0 3 l -6.1 0 l 0 -3 l -5.906 0 l 0 3 l -6.1 0 l 0 -3 l -5.906 0 l 0 3 l -6.1 0 l 0 -3 l -5.907 0 l 0 3 l -6.1 0 l 0 -3 l -5.906 0 l 0 3 l -6.1 0 l 0 -3 l -5.906 0 l 0 3 l -6.1 0 l 0 -3 l -5.906 0 l 0 3 l -6.1 0 l 0 -3 l -5.907 0 l 0 3 l -6.1 0 l 0 -3 l -5.906 0 l 0 3 l -6.1 0 l 0 -3 l -5.956 0"/>
      <path id="side_030" style="fill:none;stroke:#000000;stroke-width:0.050800000000000005" d="m 187.1 415.4 l 0 -3.47 l 3 0 l 0 -5.9 l -3 0 l 0 -6.52 l 3 0 l 0 -5.9 l -3 0 l 0 -6.52 l 3 0 l 0 -5.9 l -3 0 l 0 -6.52 l 3 0 l 0 -5.9 l -3 0 l 0 -3.47"/>
    </g>
    <g id="piece_004">
      <path id="side_031" style="fill:none;stroke:#000000;stroke-width:0.050800000000000005" d="m 4 142.083 l 3.37 0 l 0 -2.9 l -3.37 0 l 0 2.9"/>
      <path id="side_032" style="fill:none;stroke:#000000;stroke-width:0.050800000000000005" d="m 4 223.117 l 3.37 0 l 0 -2.9 l -3.37 0 l 0 2.9"/>
      <path id="side_033" style="fill:none;stroke:#000000;stroke-width:0.050800000000000005" d="m 13.47 142.083 l 6.32 0 l 0 -2.9 l -6.32 0 l 0 2.9"/>
      <path id="side_034" style="fill:none;stroke:#000000;stroke-width:0.050800000000000005" d="m 13.47 223.117 l 6.32 0 l 0 -2.9 l -6.32 0 l 0 2.9"/>
      <path id="side_035" style="fill:none;stroke:#000000;stroke-width:0.050800000000000005" d="m 25.89 142.083 l 6.32 0 l 0 -2.9 l -6.32 0 l 0 2.9"/>
      <path id="side_036" style="fill:none;stroke:#000000;stroke-width:0.050800000000000005" d="m 25.89 223.117 l 6.32 0 l 0 -2.9 l -6.32 0 l 0 2.9"/>
      <path id="side_037" style="fill:none;stroke:#000000;stroke-width:0.050800000000000005" d="m 38.31 142.083 l 6.32 0 l 0 -2.9 l -6.32 0 l 0 2.9"/>
      <path id="side_038" style="fill:none;stroke:#000000;stroke-width:0.050800000000000005" d="m 38.31 223.117 l 6.32 0 l 0 -2.9 l -6.32 0 l 0 2.9"/>
      <path id="side_039" style="fill:none;stroke:#000000;stroke-width:0.050800000000000005" d="m 50.73 139.183 l 3.37 0 l 0 2.9 l -3.37 0 l 0 -2.9"/>
      <path id="side_040" style="fill:none;stroke:#000000;stroke-width:0.050800000000000005" d="m 50.73 220.217 l 3.37 0 l 0 2.9 l -3.37 0 l 0 -2.9"/>
      <path id="side_041" style="fill:none;stroke:#000000;stroke-width:0.050800000000000005" d="m 4 61.1 l 3.37 0 l 0 -3 l 6.1 0 l 0 3 l 6.32 0 l 0 -3 l 6.1 0 l 0 3 l 6.32 0 l 0 -3 l 6.1 0 l 0 3 l 6.32 0 l 0 -3 l 6.1 0 l 0 3 l 3.37 0"/>
      <path id="side_042" style="fill:none;stroke:#000000;stroke-width:0.050800000000000005" d="m 54.1 61.1 l 0 2.9548 l 3 0 l 0 6.1 l -3 0 l 0 5.9047 l 3 0 l 0 6.1 l -3 0 l 0 5.9048 l 3 0 l 0 6.1 l -3 0 l 0 5.9047 l 3 0 l 0 6.1 l -3 0 l 0 5.905 l 3 0 l 0 6.1 l -3 0 l 0 5.905 l 3 0 l 0 6.1 l -3 0 l 0 5.904 l 3 0 l 0 6.1 l -3 0 l 0 5.905 l 3 0 l 0 6.1 l -3 0 l 0 5.905 l 3 0 l 0 6.1 l -3 0 l 0 5.905 l 3 0 l 0 6.1 l -3 0 l 0 5.904 l 3 0 l 0 6.1 l -3 0 l 0 5.905 l 3 0 l 0 6.1 l -3 0 l 0 5.905 l 3 0 l 0 6.1 l -3 0 l 0 5.905 l 3 0 l 0 6.1 l -3 0 l 0 5.904 l 3 0 l 0 6.1 l -3 0 l 0 5.905 l 3 0 l 0 6.1 l -3 0 l 0 5.905 l 3 0 l 0 6.1 l -3 0 l 0 5.905 l 3 0 l 0 6.1 l -3 0 l 0 5.904 l 3 0 l 0 6.1 l -3 0 l 0 5.905 l 3 0 l 0 6.1 l -3 0 l 0 2.955"/>
      <path id="side_043" style="fill:none;stroke:#000000;stroke-width:0.050800000000000005" d="m 54.1 301.2 l -3.37 0 l 0 3 l -6.1 0 l 0 -3 l -6.32 0 l 0 3 l -6.1 0 l 0 -3 l -6.32 0 l 0 3 l -6.1 0 l 0 -3 l -6.32 0 l 0 3 l -6.1 0 l 0 -3 l -3.37 0"/>
      <path id="side_044" style="fill:none;stroke:#000000;stroke-width:0.050800000000000005" d="m 4 301.2 l 0 -2.955 l -3 0 l 0 -6.1 l 3 0 l 0 -5.905 l -3 0 l 0 -6.1 l 3 0 l 0 -5.904 l -3 0 l 0 -6.1 l 3 0 l 0 -5.905 l -3 0 l 0 -6.1 l 3 0 l 0 -5.905 l -3 0 l 0 -6.1 l 3 0 l 0 -5.905 l -3 0 l 0 -6.1 l 3 0 l 0 -5.904 l -3 0 l 0 -6.1 l 3 0 l 0 -5.905 l -3 0 l 0 -6.1 l 3 0 l 0 -5.905 l -3 0 l 0 -6.1 l 3 0 l 0 -5.905 l -3 0 l 0 -6.1 l 3 0 l 0 -5.904 l -3 0 l 0 -6.1 l 3 0 l 0 -5.905 l -3 0 l 0 -6.1 l 3 0 l 0 -5.905 l -3 0 l 0 -6.1 l 3 0 l 0 -5.905 l -3 0 l 0 -6.1 l 3 0 l 0 -5.904 l -3 0 l 0 -6.1 l 3 0 l 0 -5.905 l -3 0 l 0 -6.1 l 3 0 l 0 -5.905 l -3 0 l 0 -6.1 l 3 0 l 0 -5.9047 l -3 0 l 0 -6.1 l 3 0 l 0 -5.9048 l -3 0 l 0 -6.1 l 3 0 l 0 -5.9047 l -3 0 l 0 -6.1 l 3 0 l 0 -2.9548"/>
    </g>
    <g id="piece_005">
      <path id="side_045" style="fill:none;stroke:#000000;stroke-width:0.050800000000000005" d="m 0 500.483 l 28.1 0 l 0 2.9 l -28.1 0 l 0 -2.9"/>
      <path id="side_046" style="fill:none;stroke:#000000;stroke-width:0.050800000000000005" d="m 0 581.517 l 28.1 0 l 0 2.9 l -28.1 0 l 0 -2.9"/>
      <path id="side_047" style="fill:none;stroke:#000000;stroke-width:0.050800000000000005" d="m 3 422.4 l 3.37 0 l 0 -3 l 6.1 0 l 0 3 l 6.32 0 l 0 -3 l 6.1 0 l 0 3 l 6.32 0 l 0 -3 l 6.1 0 l 0 3 l 6.32 0 l 0 -3 l 6.1 0 l 0 3 l 3.37 0"/>
      <path id="side_048" style="fill:none;stroke:#000000;stroke-width:0.050800000000000005" d="m 53.1 422.4 l 0 2.955 l 3 0 l 0 6.1 l -3 0 l 0 5.905 l 3 0 l 0 6.1 l -3 0 l 0 5.904 l 3 0 l 0 6.1 l -3 0 l 0 5.905 l 3 0 l 0 6.1 l -3 0 l 0 5.905 l 3 0 l 0 6.1 l -3 0 l 0 5.905 l 3 0 l 0 6.1 l -3 0 l 0 5.904 l 3 0 l 0 6.1 l -3 0 l 0 5.905 l 3 0 l 0 6.1 l -3 0 l 0 5.905 l 3 0 l 0 6.1 l -3 0 l 0 5.905 l 3 0 l 0 6.1 l -3 0 l 0 5.904 l 3 0 l 0 6.1 l -3 0 l 0 5.905 l 3 0 l 0 6.1 l -3 0 l 0 5.905 l 3 0 l 0 6.1 l -3 0 l 0 5.905 l 3 0 l 0 6.1 l -3 0 l 0 5.904 l 3 0 l 0 6.1 l -3 0 l 0 5.905 l 3 0 l 0 6.1 l -3 0 l 0 5.905 l 3 0 l 0 6.1 l -3 0 l 0 5.905 l 3 0 l 0 6.1 l -3 0 l 0 5.904 l 3 0 l 0 6.1 l -3 0 l 0 5.905 l 3 0 l 0 6.1 l -3 0 l 0 2.955"/>
      <path id="side_049" style="fill:none;stroke:#000000;stroke-width:0.050800000000000005" d="m 53.1 662.5 l -3.37 0 l 0 3 l -6.1 0 l 0 -3 l -6.32 0 l 0 3 l -6.1 0 l 0 -3 l -6.32 0 l 0 3 l -6.1 0 l 0 -3 l -6.32 0 l 0 3 l -6.1 0 l 0 -3 l -3.37 0"/>
      <path id="side_050" style="fill:none;stroke:#000000;stroke-width:0.050800000000000005" d="m 3 662.5 l 0 -2.955 l -3 0 l 0 -6.1 l 3 0 l 0 -5.905 l -3 0 l 0 -6.1 l 3 0 l 0 -5.904 l -3 0 l 0 -6.1 l 3 0 l 0 -5.905 l -3 0 l 0 -6.1 l 3 0 l 0 -5.905 l -3 0 l 0 -6.1 l 3 0 l 0 -5.905 l -3 0 l 0 -6.1 l 3 0 l 0 -5.904 l -3 0 l 0 -6.1 l 3 0 l 0 -5.905 l -3 0 l 0 -6.1 l 3 0 l 0 -5.905 l -3 0 l 0 -6.1 l 3 0 l 0 -5.905 l -3 0 l 0 -6.1 l 3 0 l 0 -5.904 l -3 0 l 0 -6.1 l 3 0 l 0 -5.905 l -3 0 l 0 -6.1 l 3 0 l 0 -5.905 l -3 0 l 0 -6.1 l 3 0 l 0 -5.905 l -3 0 l 0 -6.1 l 3 0 l 0 -5.904 l -3 0 l 0 -6.1 l 3 0 l 0 -5.905 l -3 0 l 0 -6.1 l 3 0 l 0 -5.905 l -3 0 l 0 -6.1 l 3 0 l 0 -5.905 l -3 0 l 0 -6.1 l 3 0 l 0 -5.904 l -3 0 l 0 -6.1 l 3 0 l 0 -5.905 l -3 0 l 0 -6.1 l 3 0 l 0 -2.955"/>
    </g>
    <g id="piece_006">
      <path id="side_051" style="fill:none;stroke:#000000;stroke-width:0.050800000000000005" d="m 57.1 500.483 l 28.1 0 l 0 2.9 l -28.1 0 l 0 -2.9"/>
      <path id="side_052" style="fill:none;stroke:#000000;stroke-width:0.050800000000000005" d="m 57.1 581.517 l 28.1 0 l 0 2.9 l -28.1 0 l 0 -2.9"/>
      <path id="side_053" style="fill:none;stroke:#000000;stroke-width:0.050800000000000005" d="m 60.1 422.4 l 3.37 0 l 0 -3 l 6.1 0 l 0 3 l 6.32 0 l 0 -3 l 6.1 0 l 0 3 l 6.32 0 l 0 -3 l 6.1 0 l 0 3 l 6.32 0 l 0 -3 l 6.1 0 l 0 3 l 3.37 0"/>
      <path id="side_054" style="fill:none;stroke:#000000;stroke-width:0.050800000000000005" d="m 110.2 422.4 l 0 2.955 l 3 0 l 0 6.1 l -3 0 l 0 5.905 l 3 0 l 0 6.1 l -3 0 l 0 5.904 l 3 0 l 0 6.1 l -3 0 l 0 5.905 l 3 0 l 0 6.1 l -3 0 l 0 5.905 l 3 0 l 0 6.1 l -3 0 l 0 5.905 l 3 0 l 0 6.1 l -3 0 l 0 5.904 l 3 0 l 0 6.1 l -3 0 l 0 5.905 l 3 0 l 0 6.1 l -3 0 l 0 5.905 l 3 0 l 0 6.1 l -3 0 l 0 5.905 l 3 0 l 0 6.1 l -3 0 l 0 5.904 l 3 0 l 0 6.1 l -3 0 l 0 5.905 l 3 0 l 0 6.1 l -3 0 l 0 5.905 l 3 0 l 0 6.1 l -3 0 l 0 5.905 l 3 0 l 0 6.1 l -3 0 l 0 5.904 l 3 0 l 0 6.1 l -3 0 l 0 5.905 l 3 0 l 0 6.1 l -3 0 l 0 5.905 l 3 0 l 0 6.1 l -3 0 l 0 5.905 l 3 0 l 0 6.1 l -3 0 l 0 5.904 l 3 0 l 0 6.1 l -3 0 l 0 5.905 l 3 0 l 0 6.1 l -3 0 l 0 2.955"/>
      <path id="side_055" style="fill:none;stroke:#000000;stroke-width:0.050800000000000005" d="m 110.2 662.5 l -3.37 0 l 0 3 l -6.1 0 l 0 -3 l -6.32 0 l 0 3 l -6.1 0 l 0 -3 l -6.32 0 l 0 3 l -6.1 0 l 0 -3 l -6.32 0 l 0 3 l -6.1 0 l 0 -3 l -3.37 0"/>
      <path id="side_056" style="fill:none;stroke:#000000;stroke-width:0.050800000000000005" d="m 60.1 662.5 l 0 -2.955 l -3 0 l 0 -6.1 l 3 0 l 0 -5.905 l -3 0 l 0 -6.1 l 3 0 l 0 -5.904 l -3 0 l 0 -6.1 l 3 0 l 0 -5.905 l -3 0 l 0 -6.1 l 3 0 l 0 -5.905 l -3 0 l 0 -6.1 l 3 0 l 0 -5.905 l -3 0 l 0 -6.1 l 3 0 l 0 -5.904 l -3 0 l 0 -6.1 l 3 0 l 0 -5.905 l -3 0 l 0 -6.1 l 3 0 l 0 -5.905 l -3 0 l 0 -6.1 l 3 0 l 0 -5.905 l -3 0 l 0 -6.1 l 3 0 l 0 -5.904 l -3 0 l 0 -6.1 l 3 0 l 0 -5.905 l -3 0 l 0 -6.1 l 3 0 l 0 -5.905 l -3 0 l 0 -6.1 l 3 0 l 0 -5.905 l -3 0 l 0 -6.1 l 3 0 l 0 -5.904 l -3 0 l 0 -6.1 l 3 0 l 0 -5.905 l -3 0 l 0 -6.1 l 3 0 l 0 -5.905 l -3 0 l 0 -6.1 l 3 0 l 0 -5.905 l -3 0 l 0 -6.1 l 3 0 l 0 -5.904 l -3 0 l 0 -6.1 l 3 0 l 0 -5.905 l -3 0 l 0 -6.1 l 3 0 l 0 -2.955"/>
    </g>
    <g id="piece_007">
      <path id="side_057" style="fill:none;stroke:#000000;stroke-width:0.050800000000000005" d="m 114.2 500.483 l 28.1 0 l 0 2.9 l -28.1 0 l 0 -2.9"/>
      <path id="side_058" style="fill:none;stroke:#000000;stroke-width:0.050800000000000005" d="m 114.2 581.517 l 28.1 0 l 0 2.9 l -28.1 0 l 0 -2.9"/>
      <path id="side_059" style="fill:none;stroke:#000000;stroke-width:0.050800000000000005" d="m 117.2 422.4 l 3.37 0 l 0 -3 l 6.1 0 l 0 3 l 6.32 0 l 0 -3 l 6.1 0 l 0 3 l 6.32 0 l 0 -3 l 6.1 0 l 0 3 l 6.32 0 l 0 -3 l 6.1 0 l 0 3 l 3.37 0"/>
      <path id="side_060" style="fill:none;stroke:#000000;stroke-width:0.050800000000000005" d="m 167.3 422.4 l 0 2.955 l 3 0 l 0 6.1 l -3 0 l 0 5.905 l 3 0 l 0 6.1 l -3 0 l 0 5.904 l 3 0 l 0 6.1 l -3 0 l 0 5.905 l 3 0 l 0 6.1 l -3 0 l 0 5.905 l 3 0 l 0 6.1 l -3 0 l 0 5.905 l 3 0 l 0 6.1 l -3 0 l 0 5.904 l 3 0 l 0 6.1 l -3 0 l 0 5.905 l 3 0 l 0 6.1 l -3 0 l 0 5.905 l 3 0 l 0 6.1 l -3 0 l 0 5.905 l 3 0 l 0 6.1 l -3 0 l 0 5.904 l 3 0 l 0 6.1 l -3 0 l 0 5.905 l 3 0 l 0 6.1 l -3 0 l 0 5.905 l 3 0 l 0 6.1 l -3 0 l 0 5.905 l 3 0 l 0 6.1 l -3 0 l 0 5.904 l 3 0 l 0 6.1 l -3 0 l 0 5.905 l 3 0 l 0 6.1 l -3 0 l 0 5.905 l 3 0 l 0 6.1 l -3 0 l 0 5.905 l 3 0 l 0 6.1 l -3 0 l 0 5.904 l 3 0 l 0 6.1 l -3 0 l 0 5.905 l 3 0 l 0 6.1 l -3 0 l 0 2.955"/>
      <path id="side_061" style="fill:none;stroke:#000000;stroke-width:0.050800000000000005" d="m 167.3 662.5 l -3.37 0 l 0 3 l -6.1 0 l 0 -3 l -6.32 0 l 0 3 l -6.1 0 l 0 -3 l -6.32 0 l 0 3 l -6.1 0 l 0 -3 l -6.32 0 l 0 3 l -6.1 0 l 0 -3 l -3.37 0"/>
      <path id="side_062" style="fill:none;stroke:#000000;stroke-width:0.050800000000000005" d="m 117.2 662.5 l 0 -2.955 l -3 0 l 0 -6.1 l 3 0 l 0 -5.905 l -3 0 l 0 -6.1 l 3 0 l 0 -5.904 l -3 0 l 0 -6.1 l 3 0 l 0 -5.905 l -3 0 l 0 -6.1 l 3 0 l 0 -5.905 l -3 0 l 0 -6.1 l 3 0 l 0 -5.905 l -3 0 l 0 -6.1 l 3 0 l 0 -5.904 l -3 0 l 0 -6.1 l 3 0 l 0 -5.905 l -3 0 l 0 -6.1 l 3 0 l 0 -5.905 l -3 0 l 0 -6.1 l 3 0 l 0 -5.905 l -3 0 l 0 -6.1 l 3 0 l 0 -5.904 l -3 0 l 0 -6.1 l 3 0 l 0 -5.905 l -3 0 l 0 -6.1 l 3 0 l 0 -5.905 l -3 0 l 0 -6.1 l 3 0 l 0 -5.905 l -3 0 l 0 -6.1 l 3 0 l 0 -5.904 l -3 0 l 0 -6.1 l 3 0 l 0 -5.905 l -3 0 l 0 -6.1 l 3 0 l 0 -5.905 l -3 0 l 0 -6.1 l 3 0 l 0 -5.905 l -3 0 l 0 -6.1 l 3 0 l 0 -5.904 l -3 0 l 0 -6.1 l 3 0 l 0 -5.905 l -3 0 l 0 -6.1 l 3 0 l 0 -2.955"/>
    </g>
    <g id="piece_008">
      <path id="side_063" style="fill:none;stroke:#000000;stroke-width:0.050800000000000005" d="m 64.1562 142.083 l 5.9001 0 l 0 -2.9 l -5.9001 0 l 0 2.9"/>
      <path id="side_064" style="fill:none;stroke:#000000;stroke-width:0.050800000000000005" d="m 64.1562 223.117 l 5.9001 0 l 0 -2.9 l -5.9001 0 l 0 2.9"/>
      <path id="side_065" style="fill:none;stroke:#000000;stroke-width:0.050800000000000005" d="m 76.1625 142.083 l 5.9 0 l 0 -2.9 l -5.9 0 l 0 2.9"/>
      <path id="side_066" style="fill:none;stroke:#000000;stroke-width:0.050800000000000005" d="m 76.1625 223.117 l 5.9 0 l 0 -2.9 l -5.9 0 l 0 2.9"/>
      <path id="side_067" style="fill:none;stroke:#000000;stroke-width:0.050800000000000005" d="m 88.1688 142.083 l 5.9 0 l 0 -2.9 l -5.9 0 l 0 2.9"/>
      <path id="side_068" style="fill:none;stroke:#000000;stroke-width:0.050800000000000005" d="m 88.1688 223.117 l 5.9 0 l 0 -2.9 l -5.9 0 l 0 2.9"/>
      <path id="side_069" style="fill:none;stroke:#000000;stroke-width:0.050800000000000005" d="m 100.175 142.083 l 5.9 0 l 0 -2.9 l -5.9 0 l 0 2.9"/>
      <path id="side_070" style="fill:none;stroke:#000000;stroke-width:0.050800000000000005" d="m 100.175 223.117 l 5.9 0 l 0 -2.9 l -5.9 0 l 0 2.9"/>
      <path id="side_071" style="fill:none;stroke:#000000;stroke-width:0.050800000000000005" d="m 112.181 142.083 l 5.9 0 l 0 -2.9 l -5.9 0 l 0 2.9"/>
      <path id="side_072" style="fill:none;stroke:#000000;stroke-width:0.050800000000000005" d="m 112.181 223.117 l 5.9 0 l 0 -2.9 l -5.9 0 l 0 2.9"/>
      <path id="side_073" style="fill:none;stroke:#000000;stroke-width:0.050800000000000005" d="m 124.188 142.083 l 5.9 0 l 0 -2.9 l -5.9 0 l 0 2.9"/>
      <path id="side_074" style="fill:none;stroke:#000000;stroke-width:0.050800000000000005" d="m 124.188 223.117 l 5.9 0 l 0 -2.9 l -5.9 0 l 0 2.9"/>
      <path id="side_075" style="fill:none;stroke:#000000;stroke-width:0.050800000000000005" d="m 136.194 142.083 l 5.9 0 l 0 -2.9 l -5.9 0 l 0 2.9"/>
      <path id="side_076" style="fill:none;stroke:#000000;stroke-width:0.050800000000000005" d="m 136.194 223.117 l 5.9 0 l 0 -2.9 l -5.9 0 l 0 2.9"/>
      <path id="side_077" style="fill:none;stroke:#000000;stroke-width:0.050800000000000005" d="m 148.2 142.083 l 5.9 0 l 0 -2.9 l -5.9 0 l 0 2.9"/>
      <path id="side_078" style="fill:none;stroke:#000000;stroke-width:0.050800000000000005" d="m 148.2 223.117 l 5.9 0 l 0 -2.9 l -5.9 0 l 0 2.9"/>
      <path id="side_079" style="fill:none;stroke:#000000;stroke-width:0.050800000000000005" d="m 160.206 142.083 l 5.9 0 l 0 -2.9 l -5.9 0 l 0 2.9"/>
      <path id="side_080" style="fill:none;stroke:#000000;stroke-width:0.050800000000000005" d="m 160.206 223.117 l 5.9 0 l 0 -2.9 l -5.9 0 l 0 2.9"/>
      <path id="side_081" style="fill:none;stroke:#000000;stroke-width:0.050800000000000005" d="m 172.213 142.083 l 5.9 0 l 0 -2.9 l -5.9 0 l 0 2.9"/>
      <path id="side_082" style="fill:none;stroke:#000000;stroke-width:0.050800000000000005" d="m 172.213 223.117 l 5.9 0 l 0 -2.9 l -5.9 0 l 0 2.9"/>
      <path id="side_083" style="fill:none;stroke:#000000;stroke-width:0.050800000000000005" d="m 184.219 142.083 l 5.9 0 l 0 -2.9 l -5.9 0 l 0 2.9"/>
      <path id="side_084" style="fill:none;stroke:#000000;stroke-width:0.050800000000000005" d="m 184.219 223.117 l 5.9 0 l 0 -2.9 l -5.9 0 l 0 2.9"/>
      <path id="side_085" style="fill:none;stroke:#000000;stroke-width:0.050800000000000005" d="m 196.225 142.083 l 5.9 0 l 0 -2.9 l -5.9 0 l 0 2.9"/>
      <path id="side_086" style="fill:none;stroke:#000000;stroke-width:0.050800000000000005" d="m 196.225 223.117 l 5.9 0 l 0 -2.9 l -5.9 0 l 0 2.9"/>
      <path id="side_087" style="fill:none;stroke:#000000;stroke-width:0.050800000000000005" d="m 208.231 142.083 l 5.9 0 l 0 -2.9 l -5.9 0 l 0 2.9"/>
      <path id="side_088" style="fill:none;stroke:#000000;stroke-width:0.050800000000000005" d="m 208.231 223.117 l 5.9 0 l 0 -2.9 l -5.9 0 l 0 2.9"/>
      <path id="side_089" style="fill:none;stroke:#000000;stroke-width:0.050800000000000005" d="m 220.237 142.083 l 5.9 0 l 0 -2.9 l -5.9 0 l 0 2.9"/>
      <path id="side_090" style="fill:none;stroke:#000000;stroke-width:0.050800000000000005" d="m 220.237 223.117 l 5.9 0 l 0 -2.9 l -5.9 0 l 0 2.9"/>
      <path id="side_091" style="fill:none;stroke:#000000;stroke-width:0.050800000000000005" d="m 232.244 142.083 l 5.9 0 l 0 -2.9 l -5.9 0 l 0 2.9"/>
      <path id="side_092" style="fill:none;stroke:#000000;stroke-width:0.050800000000000005" d="m 232.244 223.117 l 5.9 0 l 0 -2.9 l -5.9 0 l 0 2.9"/>
      <path id="side_093" style="fill:none;stroke:#000000;stroke-width:0.050800000000000005" d="m 58.1 58.1 l 6.0562 0 l 0 3 l 5.9001 0 l 0 -3 l 6.1062 0 l 0 3 l 5.9 0 l 0 -3 l 6.1063 0 l 0 3 l 5.9 0 l 0 -3 l 6.1062 0 l 0 3 l 5.9 0 l 0 -3 l 6.106 0 l 0 3 l 5.9 0 l 0 -3 l 6.107 0 l 0 3 l 5.9 0 l 0 -3 l 6.106 0 l 0 3 l 5.9 0 l 0 -3 l 6.106 0 l 0 3 l 5.9 0 l 0 -3 l 6.106 0 l 0 3 l 5.9 0 l 0 -3 l 6.107 0 l 0 3 l 5.9 0 l 0 -3 l 6.106 0 l 0 3 l 5.9 0 l 0 -3 l 6.106 0 l 0 3 l 5.9 0 l 0 -3 l 6.106 0 l 0 3 l 5.9 0 l 0 -3 l 6.106 0 l 0 3 l 5.9 0 l 0 -3 l 6.107 0 l 0 3 l 5.9 0 l 0 -3 l 6.056 0"/>
      <path id="side_094" style="fill:none;stroke:#000000;stroke-width:0.050800000000000005" d="m 195.475 64.1548 l 0 5.9 l 2.9 0 l 0 -5.9 l -2.9 0"/>
      <path id="side_095" style="fill:none;stroke:#000000;stroke-width:0.050800000000000005" d="m 149.7 64.1548 l 0 5.9 l 2.9 0 l 0 -5.9 l -2.9 0"/>
      <path id="side_096" style="fill:none;stroke:#000000;stroke-width:0.050800000000000005" d="m 103.925 64.1548 l 0 5.9 l 2.9 0 l 0 -5.9 l -2.9 0"/>
      <path id="side_097" style="fill:none;stroke:#000000;stroke-width:0.050800000000000005" d="m 195.475 76.1595 l 0 5.9 l 2.9 0 l 0 -5.9 l -2.9 0"/>
      <path id="side_098" style="fill:none;stroke:#000000;stroke-width:0.050800000000000005" d="m 149.7 76.1595 l 0 5.9 l 2.9 0 l 0 -5.9 l -2.9 0"/>
      <path id="side_099" style="fill:none;stroke:#000000;stroke-width:0.050800000000000005" d="m 103.925 76.1595 l 0 5.9 l 2.9 0 l 0 -5.9 l -2.9 0"/>
      <path id="side_100" style="fill:none;stroke:#000000;stroke-width:0.050800000000000005" d="m 195.475 88.1643 l 0 5.9 l 2.9 0 l 0 -5.9 l -2.9 0"/>
      <path id="side_101" style="fill:none;stroke:#000000;stroke-width:0.050800000000000005" d="m 149.7 88.1643 l 0 5.9 l 2.9 0 l 0 -5.9 l -2.9 0"/>
      <path id="side_102" style="fill:none;stroke:#000000;stroke-width:0.050800000000000005" d="m 103.925 88.1643 l 0 5.9 l 2.9 0 l 0 -5.9 l -2.9 0"/>
      <path id="side_103" style="fill:none;stroke:#000000;stroke-width:0.050800000000000005" d="m 195.475 100.169 l 0 5.9 l 2.9 0 l 0 -5.9 l -2.9 0"/>
      <path id="side_104" style="fill:none;stroke:#000000;stroke-width:0.050800000000000005" d="m 149.7 100.169 l 0 5.9 l 2.9 0 l 0 -5.9 l -2.9 0"/>
      <path id="side_105" style="fill:none;stroke:#000000;stroke-width:0.050800000000000005" d="m 103.925 100.169 l 0 5.9 l 2.9 0 l 0 -5.9 l -2.9 0"/>
      <path id="side_106" style="fill:none;stroke:#000000;stroke-width:0.050800000000000005" d="m 195.475 112.174 l 0 5.9 l 2.9 0 l 0 -5.9 l -2.9 0"/>
      <path id="side_107" style="fill:none;stroke:#000000;stroke-width:0.050800000000000005" d="m 149.7 112.174 l 0 5.9 l 2.9 0 l 0 -5.9 l -2.9 0"/>
      <path id="side_108" style="fill:none;stroke:#000000;stroke-width:0.050800000000000005" d="m 103.925 112.174 l 0 5.9 l 2.9 0 l 0 -5.9 l -2.9 0"/>
      <path id="side_109" style="fill:none;stroke:#000000;stroke-width:0.050800000000000005" d="m 195.475 124.179 l 0 5.9 l 2.9 0 l 0 -5.9 l -2.9 0"/>
      <path id="side_110" style="fill:none;stroke:#000000;stroke-width:0.050800000000000005" d="m 149.7 124.179 l 0 5.9 l 2.9 0 l 0 -5.9 l -2.9 0"/>
      <path id="side_111" style="fill:none;stroke:#000000;stroke-width:0.050800000000000005" d="m 103.925 124.179 l 0 5.9 l 2.9 0 l 0 -5.9 l -2.9 0"/>
      <path id="side_112" style="fill:none;stroke:#000000;stroke-width:0.050800000000000005" d="m 195.475 136.183 l 0 5.9 l 2.9 0 l 0 -5.9 l -2.9 0"/>
      <path id="side_113" style="fill:none;stroke:#000000;stroke-width:0.050800000000000005" d="m 149.7 136.183 l 0 5.9 l 2.9 0 l 0 -5.9 l -2.9 0"/>
      <path id="side_114" style="fill:none;stroke:#000000;stroke-width:0.050800000000000005" d="m 103.925 136.183 l 0 5.9 l 2.9 0 l 0 -5.9 l -2.9 0"/>
      <path id="side_115" style="fill:none;stroke:#000000;stroke-width:0.050800000000000005" d="m 195.475 148.188 l 0 5.9 l 2.9 0 l 0 -5.9 l -2.9 0"/>
      <path id="side_116" style="fill:none;stroke:#000000;stroke-width:0.050800000000000005" d="m 149.7 148.188 l 0 5.9 l 2.9 0 l 0 -5.9 l -2.9 0"/>
      <path id="side_117" style="fill:none;stroke:#000000;stroke-width:0.050800000000000005" d="m 103.925 148.188 l 0 5.9 l 2.9 0 l 0 -5.9 l -2.9 0"/>
      <path id="side_118" style="fill:none;stroke:#000000;stroke-width:0.050800000000000005" d="m 195.475 160.193 l 0 5.9 l 2.9 0 l 0 -5.9 l -2.9 0"/>
      <path id="side_119" style="fill:none;stroke:#000000;stroke-width:0.050800000000000005" d="m 149.7 160.193 l 0 5.9 l 2.9 0 l 0 -5.9 l -2.9 0"/>
      <path id="side_120" style="fill:none;stroke:#000000;stroke-width:0.050800000000000005" d="m 103.925 160.193 l 0 5.9 l 2.9 0 l 0 -5.9 l -2.9 0"/>
      <path id="side_121" style="fill:none;stroke:#000000;stroke-width:0.050800000000000005" d="m 195.475 172.198 l 0 5.9 l 2.9 0 l 0 -5.9 l -2.9 0"/>
      <path id="side_122" style="fill:none;stroke:#000000;stroke-width:0.050800000000000005" d="m 149.7 172.198 l 0 5.9 l 2.9 0 l 0 -5.9 l -2.9 0"/>
      <path id="side_123" style="fill:none;stroke:#000000;stroke-width:0.050800000000000005" d="m 103.925 172.198 l 0 5.9 l 2.9 0 l 0 -5.9 l -2.9 0"/>
      <path id="side_124" style="fill:none;stroke:#000000;stroke-width:0.050800000000000005" d="m 195.475 184.202 l 0 5.9 l 2.9 0 l 0 -5.9 l -2.9 0"/>
      <path id="side_125" style="fill:none;stroke:#000000;stroke-width:0.050800000000000005" d="m 149.7 184.202 l 0 5.9 l 2.9 0 l 0 -5.9 l -2.9 0"/>
      <path id="side_126" style="fill:none;stroke:#000000;stroke-width:0.050800000000000005" d="m 103.925 184.202 l 0 5.9 l 2.9 0 l 0 -5.9 l -2.9 0"/>
      <path id="side_127" style="fill:none;stroke:#000000;stroke-width:0.050800000000000005" d="m 195.475 196.207 l 0 5.9 l 2.9 0 l 0 -5.9 l -2.9 0"/>
      <path id="side_128" style="fill:none;stroke:#000000;stroke-width:0.050800000000000005" d="m 149.7 196.207 l 0 5.9 l 2.9 0 l 0 -5.9 l -2.9 0"/>
      <path id="side_129" style="fill:none;stroke:#000000;stroke-width:0.050800000000000005" d="m 103.925 196.207 l 0 5.9 l 2.9 0 l 0 -5.9 l -2.9 0"/>
      <path id="side_130" style="fill:none;stroke:#000000;stroke-width:0.050800000000000005" d="m 195.475 208.212 l 0 5.9 l 2.9 0 l 0 -5.9 l -2.9 0"/>
      <path id="side_131" style="fill:none;stroke:#000000;stroke-width:0.050800000000000005" d="m 149.7 208.212 l 0 5.9 l 2.9 0 l 0 -5.9 l -2.9 0"/>
      <path id="side_132" style="fill:none;stroke:#000000;stroke-width:0.050800000000000005" d="m 103.925 208.212 l 0 5.9 l 2.9 0 l 0 -5.9 l -2.9 0"/>
      <path id="side_133" style="fill:none;stroke:#000000;stroke-width:0.050800000000000005" d="m 195.475 220.217 l 0 5.9 l 2.9 0 l 0 -5.9 l -2.9 0"/>
      <path id="side_134" style="fill:none;stroke:#000000;stroke-width:0.050800000000000005" d="m 149.7 220.217 l 0 5.9 l 2.9 0 l 0 -5.9 l -2.9 0"/>
      <path id="side_135" style="fill:none;stroke:#000000;stroke-width:0.050800000000000005" d="m 103.925 220.217 l 0 5.9 l 2.9 0 l 0 -5.9 l -2.9 0"/>
      <path id="side_136" style="fill:none;stroke:#000000;stroke-width:0.050800000000000005" d="m 195.475 232.221 l 0 5.9 l 2.9 0 l 0 -5.9 l -2.9 0"/>
      <path id="side_137" style="fill:none;stroke:#000000;stroke-width:0.050800000000000005" d="m 149.7 232.221 l 0 5.9 l 2.9 0 l 0 -5.9 l -2.9 0"/>
      <path id="side_138" style="fill:none;stroke:#000000;stroke-width:0.050800000000000005" d="m 103.925 232.221 l 0 5.9 l 2.9 0 l 0 -5.9 l -2.9 0"/>
      <path id="side_139" style="fill:none;stroke:#000000;stroke-width:0.050800000000000005" d="m 195.475 244.226 l 0 5.9 l 2.9 0 l 0 -5.9 l -2.9 0"/>
      <path id="side_140" style="fill:none;stroke:#000000;stroke-width:0.050800000000000005" d="m 149.7 244.226 l 0 5.9 l 2.9 0 l 0 -5.9 l -2.9 0"/>
      <path id="side_141" style="fill:none;stroke:#000000;stroke-width:0.050800000000000005" d="m 103.925 244.226 l 0 5.9 l 2.9 0 l 0 -5.9 l -2.9 0"/>
      <path id="side_142" style="fill:none;stroke:#000000;stroke-width:0.050800000000000005" d="m 195.475 256.231 l 0 5.9 l 2.9 0 l 0 -5.9 l -2.9 0"/>
      <path id="side_143" style="fill:none;stroke:#000000;stroke-width:0.050800000000000005" d="m 149.7 256.231 l 0 5.9 l 2.9 0 l 0 -5.9 l -2.9 0"/>
      <path id="side_144" style="fill:none;stroke:#000000;stroke-width:0.050800000000000005" d="m 103.925 256.231 l 0 5.9 l 2.9 0 l 0 -5.9 l -2.9 0"/>
      <path id="side_145" style="fill:none;stroke:#000000;stroke-width:0.050800000000000005" d="m 195.475 268.236 l 0 5.9 l 2.9 0 l 0 -5.9 l -2.9 0"/>
      <path id="side_146" style="fill:none;stroke:#000000;stroke-width:0.050800000000000005" d="m 149.7 268.236 l 0 5.9 l 2.9 0 l 0 -5.9 l -2.9 0"/>
      <path id="side_147" style="fill:none;stroke:#000000;stroke-width:0.050800000000000005" d="m 103.925 268.236 l 0 5.9 l 2.9 0 l 0 -5.9 l -2.9 0"/>
      <path id="side_148" style="fill:none;stroke:#000000;stroke-width:0.050800000000000005" d="m 195.475 280.24 l 0 5.9 l 2.9 0 l 0 -5.9 l -2.9 0"/>
      <path id="side_149" style="fill:none;stroke:#000000;stroke-width:0.050800000000000005" d="m 149.7 280.24 l 0 5.9 l 2.9 0 l 0 -5.9 l -2.9 0"/>
      <path id="side_150" style="fill:none;stroke:#000000;stroke-width:0.050800000000000005" d="m 103.925 280.24 l 0 5.9 l 2.9 0 l 0 -5.9 l -2.9 0"/>
      <path id="side_151" style="fill:none;stroke:#000000;stroke-width:0.050800000000000005" d="m 195.475 292.245 l 0 5.9 l 2.9 0 l 0 -5.9 l -2.9 0"/>
      <path id="side_152" style="fill:none;stroke:#000000;stroke-width:0.050800000000000005" d="m 149.7 292.245 l 0 5.9 l 2.9 0 l 0 -5.9 l -2.9 0"/>
      <path id="side_153" style="fill:none;stroke:#000000;stroke-width:0.050800000000000005" d="m 103.925 292.245 l 0 5.9 l 2.9 0 l 0 -5.9 l -2.9 0"/>
      <path id="side_154" style="fill:none;stroke:#000000;stroke-width:0.050800000000000005" d="m 244.2 58.1 l 0 6.0548 l -3 0 l 0 5.9 l 3 0 l 0 6.1047 l -3 0 l 0 5.9 l 3 0 l 0 6.1048 l -3 0 l 0 5.9 l 3 0 l 0 6.1047 l -3 0 l 0 5.9 l 3 0 l 0 6.105 l -3 0 l 0 5.9 l 3 0 l 0 6.105 l -3 0 l 0 5.9 l 3 0 l 0 6.104 l -3 0 l 0 5.9 l 3 0 l 0 6.105 l -3 0 l 0 5.9 l 3 0 l 0 6.105 l -3 0 l 0 5.9 l 3 0 l 0 6.105 l -3 0 l 0 5.9 l 3 0 l 0 6.104 l -3 0 l 0 5.9 l 3 0 l 0 6.105 l -3 0 l 0 5.9 l 3 0 l 0 6.105 l -3 0 l 0 5.9 l 3 0 l 0 6.105 l -3 0 l 0 5.9 l 3 0 l 0 6.104 l -3 0 l 0 5.9 l 3 0 l 0 6.105 l -3 0 l 0 5.9 l 3 0 l 0 6.105 l -3 0 l 0 5.9 l 3 0 l 0 6.105 l -3 0 l 0 5.9 l 3 0 l 0 6.104 l -3 0 l 0 5.9 l 3 0 l 0 6.105 l -3 0 l 0 5.9 l 3 0 l 0 6.055"/>
      <path id="side_155" style="fill:none;stroke:#000000;stroke-width:0.050800000000000005" d="m 244.2 304.2 l -6.056 0 l 0 -3 l -5.9 0 l 0 3 l -6.107 0 l 0 -3 l -5.9 0 l 0 3 l -6.106 0 l 0 -3 l -5.9 0 l 0 3 l -6.106 0 l 0 -3 l -5.9 0 l 0 3 l -6.106 0 l 0 -3 l -5.9 0 l 0 3 l -6.106 0 l 0 -3 l -5.9 0 l 0 3 l -6.107 0 l 0 -3 l -5.9 0 l 0 3 l -6.106 0 l 0 -3 l -5.9 0 l 0 3 l -6.106 0 l 0 -3 l -5.9 0 l 0 3 l -6.106 0 l 0 -3 l -5.9 0 l 0 3 l -6.107 0 l 0 -3 l -5.9 0 l 0 3 l -6.106 0 l 0 -3 l -5.9 0 l 0 3 l -6.1062 0 l 0 -3 l -5.9 0 l 0 3 l -6.1063 0 l 0 -3 l -5.9 0 l 0 3 l -6.1063 0 l 0 -3 l -5.9 0 l 0 3 l -6.0562 0"/>
      <path id="side_156" style="fill:none;stroke:#000000;stroke-width:0.050800000000000005" d="m 58.1 304.2 l 0 -6.055 l 3 0 l 0 -5.9 l -3 0 l 0 -6.105 l 3 0 l 0 -5.9 l -3 0 l 0 -6.104 l 3 0 l 0 -5.9 l -3 0 l 0 -6.105 l 3 0 l 0 -5.9 l -3 0 l 0 -6.105 l 3 0 l 0 -5.9 l -3 0 l 0 -6.105 l 3 0 l 0 -5.9 l -3 0 l 0 -6.104 l 3 0 l 0 -5.9 l -3 0 l 0 -6.105 l 3 0 l 0 -5.9 l -3 0 l 0 -6.105 l 3 0 l 0 -5.9 l -3 0 l 0 -6.105 l 3 0 l 0 -5.9 l -3 0 l 0 -6.104 l 3 0 l 0 -5.9 l -3 0 l 0 -6.105 l 3 0 l 0 -5.9 l -3 0 l 0 -6.105 l 3 0 l 0 -5.9 l -3 0 l 0 -6.105 l 3 0 l 0 -5.9 l -3 0 l 0 -6.104 l 3 0 l 0 -5.9 l -3 0 l 0 -6.105 l 3 0 l 0 -5.9 l -3 0 l 0 -6.105 l 3 0 l 0 -5.9 l -3 0 l 0 -6.1047 l 3 0 l 0 -5.9 l -3 0 l 0 -6.1048 l 3 0 l 0 -5.9 l -3 0 l 0 -6.1047 l 3 0 l 0 -5.9 l -3 0 l 0 -6.0548"/>
    </g>
    <g id="piece_009">
      <path id="side_157" style="fill:none;stroke:#000000;stroke-width:0.050800000000000005" d="m 248.2 142.083 l 3.37 0 l 0 -2.9 l -3.37 0 l 0 2.9"/>
      <path id="side_158" style="fill:none;stroke:#000000;stroke-width:0.050800000000000005" d="m 248.2 223.117 l 3.37 0 l 0 -2.9 l -3.37 0 l 0 2.9"/>
      <path id="side_159" style="fill:none;stroke:#000000;stroke-width:0.050800000000000005" d="m 257.67 142.083 l 6.32 0 l 0 -2.9 l -6.32 0 l 0 2.9"/>
      <path id="side_160" style="fill:none;stroke:#000000;stroke-width:0.050800000000000005" d="m 257.67 223.117 l 6.32 0 l 0 -2.9 l -6.32 0 l 0 2.9"/>
      <path id="side_161" style="fill:none;stroke:#000000;stroke-width:0.050800000000000005" d="m 270.09 142.083 l 6.32 0 l 0 -2.9 l -6.32 0 l 0 2.9"/>
      <path id="side_162" style="fill:none;stroke:#000000;stroke-width:0.050800000000000005" d="m 270.09 223.117 l 6.32 0 l 0 -2.9 l -6.32 0 l 0 2.9"/>
      <path id="side_163" style="fill:none;stroke:#000000;stroke-width:0.050800000000000005" d="m 282.51 142.083 l 6.32 0 l 0 -2.9 l -6.32 0 l 0 2.9"/>
      <path id="side_164" style="fill:none;stroke:#000000;stroke-width:0.050800000000000005" d="m 282.51 223.117 l 6.32 0 l 0 -2.9 l -6.32 0 l 0 2.9"/>
      <path id="side_165" style="fill:none;stroke:#000000;stroke-width:0.050800000000000005" d="m 294.93 139.183 l 3.37 0 l 0 2.9 l -3.37 0 l 0 -2.9"/>
      <path id="side_166" style="fill:none;stroke:#000000;stroke-width:0.050800000000000005" d="m 294.93 220.217 l 3.37 0 l 0 2.9 l -3.37 0 l 0 -2.9"/>
      <path id="side_167" style="fill:none;stroke:#000000;stroke-width:0.050800000000000005" d="m 248.2 61.1 l 3.37 0 l 0 -3 l 6.1 0 l 0 3 l 6.32 0 l 0 -3 l 6.1 0 l 0 3 l 6.32 0 l 0 -3 l 6.1 0 l 0 3 l 6.32 0 l 0 -3 l 6.1 0 l 0 3 l 3.37 0"/>
      <path id="side_168" style="fill:none;stroke:#000000;stroke-width:0.050800000000000005" d="m 298.3 61.1 l 0 2.9548 l 3 0 l 0 6.1 l -3 0 l 0 5.9047 l 3 0 l 0 6.1 l -3 0 l 0 5.9048 l 3 0 l 0 6.1 l -3 0 l 0 5.9047 l 3 0 l 0 6.1 l -3 0 l 0 5.905 l 3 0 l 0 6.1 l -3 0 l 0 5.905 l 3 0 l 0 6.1 l -3 0 l 0 5.904 l 3 0 l 0 6.1 l -3 0 l 0 5.905 l 3 0 l 0 6.1 l -3 0 l 0 5.905 l 3 0 l 0 6.1 l -3 0 l 0 5.905 l 3 0 l 0 6.1 l -3 0 l 0 5.904 l 3 0 l 0 6.1 l -3 0 l 0 5.905 l 3 0 l 0 6.1 l -3 0 l 0 5.905 l 3 0 l 0 6.1 l -3 0 l 0 5.905 l 3 0 l 0 6.1 l -3 0 l 0 5.904 l 3 0 l 0 6.1 l -3 0 l 0 5.905 l 3 0 l 0 6.1 l -3 0 l 0 5.905 l 3 0 l 0 6.1 l -3 0 l 0 5.905 l 3 0 l 0 6.1 l -3 0 l 0 5.904 l 3 0 l 0 6.1 l -3 0 l 0 5.905 l 3 0 l 0 6.1 l -3 0 l 0 2.955"/>
      <path id="side_169" style="fill:none;stroke:#000000;stroke-width:0.050800000000000005" d="m 298.3 301.2 l -3.37 0 l 0 3 l -6.1 0 l 0 -3 l -6.32 0 l 0 3 l -6.1 0 l 0 -3 l -6.32 0 l 0 3 l -6.1 0 l 0 -3 l -6.32 0 l 0 3 l -6.1 0 l 0 -3 l -3.37 0"/>
      <path id="side_170" style="fill:none;stroke:#000000;stroke-width:0.050800000000000005" d="m 248.2 301.2 l 0 -2.955 l -3 0 l 0 -6.1 l 3 0 l 0 -5.905 l -3 0 l 0 -6.1 l 3 0 l 0 -5.904 l -3 0 l 0 -6.1 l 3 0 l 0 -5.905 l -3 0 l 0 -6.1 l 3 0 l 0 -5.905 l -3 0 l 0 -6.1 l 3 0 l 0 -5.905 l -3 0 l 0 -6.1 l 3 0 l 0 -5.904 l -3 0 l 0 -6.1 l 3 0 l 0 -5.905 l -3 0 l 0 -6.1 l 3 0 l 0 -5.905 l -3 0 l 0 -6.1 l 3 0 l 0 -5.905 l -3 0 l 0 -6.1 l 3 0 l 0 -5.904 l -3 0 l 0 -6.1 l 3 0 l 0 -5.905 l -3 0 l 0 -6.1 l 3 0 l 0 -5.905 l -3 0 l 0 -6.1 l 3 0 l 0 -5.905 l -3 0 l 0 -6.1 l 3 0 l 0 -5.904 l -3 0 l 0 -6.1 l 3 0 l 0 -5.905 l -3 0 l 0 -6.1 l 3 0 l 0 -5.905 l -3 0 l 0 -6.1 l 3 0 l 0 -5.9047 l -3 0 l 0 -6.1 l 3 0 l 0 -5.9048 l -3 0 l 0 -6.1 l 3 0 l 0 -5.9047 l -3 0 l 0 -6.1 l 3 0 l 0 -2.9548"/>
    </g>
    <g id="piece_010">
      <path id="side_171" style="fill:none;stroke:#000000;stroke-width:0.050800000000000005" d="m 308.356 142.083 l 5.9 0 l 0 -2.9 l -5.9 0 l 0 2.9"/>
      <path id="side_172" style="fill:none;stroke:#000000;stroke-width:0.050800000000000005" d="m 308.356 223.117 l 5.9 0 l 0 -2.9 l -5.9 0 l 0 2.9"/>
      <path id="side_173" style="fill:none;stroke:#000000;stroke-width:0.050800000000000005" d="m 320.362 142.083 l 5.9 0 l 0 -2.9 l -5.9 0 l 0 2.9"/>
      <path id="side_174" style="fill:none;stroke:#000000;stroke-width:0.050800000000000005" d="m 320.362 223.117 l 5.9 0 l 0 -2.9 l -5.9 0 l 0 2.9"/>
      <path id="side_175" style="fill:none;stroke:#000000;stroke-width:0.050800000000000005" d="m 332.369 142.083 l 5.9 0 l 0 -2.9 l -5.9 0 l 0 2.9"/>
      <path id="side_176" style="fill:none;stroke:#000000;stroke-width:0.050800000000000005" d="m 332.369 223.117 l 5.9 0 l 0 -2.9 l -5.9 0 l 0 2.9"/>
      <path id="side_177" style="fill:none;stroke:#000000;stroke-width:0.050800000000000005" d="m 344.375 142.083 l 5.9 0 l 0 -2.9 l -5.9 0 l 0 2.9"/>
      <path id="side_178" style="fill:none;stroke:#000000;stroke-width:0.050800000000000005" d="m 344.375 223.117 l 5.9 0 l 0 -2.9 l -5.9 0 l 0 2.9"/>
      <path id="side_179" style="fill:none;stroke:#000000;stroke-width:0.050800000000000005" d="m 356.381 142.083 l 5.9 0 l 0 -2.9 l -5.9 0 l 0 2.9"/>
      <path id="side_180" style="fill:none;stroke:#000000;stroke-width:0.050800000000000005" d="m 356.381 223.117 l 5.9 0 l 0 -2.9 l -5.9 0 l 0 2.9"/>
      <path id="side_181" style="fill:none;stroke:#000000;stroke-width:0.050800000000000005" d="m 368.387 142.083 l 5.9 0 l 0 -2.9 l -5.9 0 l 0 2.9"/>
      <path id="side_182" style="fill:none;stroke:#000000;stroke-width:0.050800000000000005" d="m 368.387 223.117 l 5.9 0 l 0 -2.9 l -5.9 0 l 0 2.9"/>
      <path id="side_183" style="fill:none;stroke:#000000;stroke-width:0.050800000000000005" d="m 380.394 142.083 l 5.9 0 l 0 -2.9 l -5.9 0 l 0 2.9"/>
      <path id="side_184" style="fill:none;stroke:#000000;stroke-width:0.050800000000000005" d="m 380.394 223.117 l 5.9 0 l 0 -2.9 l -5.9 0 l 0 2.9"/>
      <path id="side_185" style="fill:none;stroke:#000000;stroke-width:0.050800000000000005" d="m 392.4 142.083 l 5.9 0 l 0 -2.9 l -5.9 0 l 0 2.9"/>
      <path id="side_186" style="fill:none;stroke:#000000;stroke-width:0.050800000000000005" d="m 392.4 223.117 l 5.9 0 l 0 -2.9 l -5.9 0 l 0 2.9"/>
      <path id="side_187" style="fill:none;stroke:#000000;stroke-width:0.050800000000000005" d="m 404.406 142.083 l 5.9 0 l 0 -2.9 l -5.9 0 l 0 2.9"/>
      <path id="side_188" style="fill:none;stroke:#000000;stroke-width:0.050800000000000005" d="m 404.406 223.117 l 5.9 0 l 0 -2.9 l -5.9 0 l 0 2.9"/>
      <path id="side_189" style="fill:none;stroke:#000000;stroke-width:0.050800000000000005" d="m 416.412 142.083 l 5.9 0 l 0 -2.9 l -5.9 0 l 0 2.9"/>
      <path id="side_190" style="fill:none;stroke:#000000;stroke-width:0.050800000000000005" d="m 416.412 223.117 l 5.9 0 l 0 -2.9 l -5.9 0 l 0 2.9"/>
      <path id="side_191" style="fill:none;stroke:#000000;stroke-width:0.050800000000000005" d="m 428.419 142.083 l 5.9 0 l 0 -2.9 l -5.9 0 l 0 2.9"/>
      <path id="side_192" style="fill:none;stroke:#000000;stroke-width:0.050800000000000005" d="m 428.419 223.117 l 5.9 0 l 0 -2.9 l -5.9 0 l 0 2.9"/>
      <path id="side_193" style="fill:none;stroke:#000000;stroke-width:0.050800000000000005" d="m 440.425 142.083 l 5.9 0 l 0 -2.9 l -5.9 0 l 0 2.9"/>
      <path id="side_194" style="fill:none;stroke:#000000;stroke-width:0.050800000000000005" d="m 440.425 223.117 l 5.9 0 l 0 -2.9 l -5.9 0 l 0 2.9"/>
      <path id="side_195" style="fill:none;stroke:#000000;stroke-width:0.050800000000000005" d="m 452.431 142.083 l 5.9 0 l 0 -2.9 l -5.9 0 l 0 2.9"/>
      <path id="side_196" style="fill:none;stroke:#000000;stroke-width:0.050800000000000005" d="m 452.431 223.117 l 5.9 0 l 0 -2.9 l -5.9 0 l 0 2.9"/>
      <path id="side_197" style="fill:none;stroke:#000000;stroke-width:0.050800000000000005" d="m 464.437 142.083 l 5.9 0 l 0 -2.9 l -5.9 0 l 0 2.9"/>
      <path id="side_198" style="fill:none;stroke:#000000;stroke-width:0.050800000000000005" d="m 464.437 223.117 l 5.9 0 l 0 -2.9 l -5.9 0 l 0 2.9"/>
      <path id="side_199" style="fill:none;stroke:#000000;stroke-width:0.050800000000000005" d="m 476.444 142.083 l 5.9 0 l 0 -2.9 l -5.9 0 l 0 2.9"/>
      <path id="side_200" style="fill:none;stroke:#000000;stroke-width:0.050800000000000005" d="m 476.444 223.117 l 5.9 0 l 0 -2.9 l -5.9 0 l 0 2.9"/>
      <path id="side_201" style="fill:none;stroke:#000000;stroke-width:0.050800000000000005" d="m 302.3 58.1 l 6.056 0 l 0 3 l 5.9 0 l 0 -3 l 6.106 0 l 0 3 l 5.9 0 l 0 -3 l 6.107 0 l 0 3 l 5.9 0 l 0 -3 l 6.106 0 l 0 3 l 5.9 0 l 0 -3 l 6.106 0 l 0 3 l 5.9 0 l 0 -3 l 6.106 0 l 0 3 l 5.9 0 l 0 -3 l 6.107 0 l 0 3 l 5.9 0 l 0 -3 l 6.106 0 l 0 3 l 5.9 0 l 0 -3 l 6.106 0 l 0 3 l 5.9 0 l 0 -3 l 6.106 0 l 0 3 l 5.9 0 l 0 -3 l 6.107 0 l 0 3 l 5.9 0 l 0 -3 l 6.106 0 l 0 3 l 5.9 0 l 0 -3 l 6.106 0 l 0 3 l 5.9 0 l 0 -3 l 6.106 0 l 0 3 l 5.9 0 l 0 -3 l 6.107 0 l 0 3 l 5.9 0 l 0 -3 l 6.056 0"/>
      <path id="side_202" style="fill:none;stroke:#000000;stroke-width:0.050800000000000005" d="m 439.675 64.1548 l 0 5.9 l 2.9 0 l 0 -5.9 l -2.9 0"/>
      <path id="side_203" style="fill:none;stroke:#000000;stroke-width:0.050800000000000005" d="m 393.9 64.1548 l 0 5.9 l 2.9 0 l 0 -5.9 l -2.9 0"/>
      <path id="side_204" style="fill:none;stroke:#000000;stroke-width:0.050800000000000005" d="m 348.125 64.1548 l 0 5.9 l 2.9 0 l 0 -5.9 l -2.9 0"/>
      <path id="side_205" style="fill:none;stroke:#000000;stroke-width:0.050800000000000005" d="m 439.675 76.1595 l 0 5.9 l 2.9 0 l 0 -5.9 l -2.9 0"/>
      <path id="side_206" style="fill:none;stroke:#000000;stroke-width:0.050800000000000005" d="m 393.9 76.1595 l 0 5.9 l 2.9 0 l 0 -5.9 l -2.9 0"/>
      <path id="side_207" style="fill:none;stroke:#000000;stroke-width:0.050800000000000005" d="m 348.125 76.1595 l 0 5.9 l 2.9 0 l 0 -5.9 l -2.9 0"/>
      <path id="side_208" style="fill:none;stroke:#000000;stroke-width:0.050800000000000005" d="m 439.675 88.1643 l 0 5.9 l 2.9 0 l 0 -5.9 l -2.9 0"/>
      <path id="side_209" style="fill:none;stroke:#000000;stroke-width:0.050800000000000005" d="m 393.9 88.1643 l 0 5.9 l 2.9 0 l 0 -5.9 l -2.9 0"/>
      <path id="side_210" style="fill:none;stroke:#000000;stroke-width:0.050800000000000005" d="m 348.125 88.1643 l 0 5.9 l 2.9 0 l 0 -5.9 l -2.9 0"/>
      <path id="side_211" style="fill:none;stroke:#000000;stroke-width:0.050800000000000005" d="m 439.675 100.169 l 0 5.9 l 2.9 0 l 0 -5.9 l -2.9 0"/>
      <path id="side_212" style="fill:none;stroke:#000000;stroke-width:0.050800000000000005" d="m 393.9 100.169 l 0 5.9 l 2.9 0 l 0 -5.9 l -2.9 0"/>
      <path id="side_213" style="fill:none;stroke:#000000;stroke-width:0.050800000000000005" d="m 348.125 100.169 l 0 5.9 l 2.9 0 l 0 -5.9 l -2.9 0"/>
      <path id="side_214" style="fill:none;stroke:#000000;stroke-width:0.050800000000000005" d="m 439.675 112.174 l 0 5.9 l 2.9 0 l 0 -5.9 l -2.9 0"/>
      <path id="side_215" style="fill:none;stroke:#000000;stroke-width:0.050800000000000005" d="m 393.9 112.174 l 0 5.9 l 2.9 0 l 0 -5.9 l -2.9 0"/>
      <path id="side_216" style="fill:none;stroke:#000000;stroke-width:0.050800000000000005" d="m 348.125 112.174 l 0 5.9 l 2.9 0 l 0 -5.9 l -2.9 0"/>
      <path id="side_217" style="fill:none;stroke:#000000;stroke-width:0.050800000000000005" d="m 439.675 124.179 l 0 5.9 l 2.9 0 l 0 -5.9 l -2.9 0"/>
      <path id="side_218" style="fill:none;stroke:#000000;stroke-width:0.050800000000000005" d="m 393.9 124.179 l 0 5.9 l 2.9 0 l 0 -5.9 l -2.9 0"/>
      <path id="side_219" style="fill:none;stroke:#000000;stroke-width:0.050800000000000005" d="m 348.125 124.179 l 0 5.9 l 2.9 0 l 0 -5.9 l -2.9 0"/>
      <path id="side_220" style="fill:none;stroke:#000000;stroke-width:0.050800000000000005" d="m 439.675 136.183 l 0 5.9 l 2.9 0 l 0 -5.9 l -2.9 0"/>
      <path id="side_221" style="fill:none;stroke:#000000;stroke-width:0.050800000000000005" d="m 393.9 136.183 l 0 5.9 l 2.9 0 l 0 -5.9 l -2.9 0"/>
      <path id="side_222" style="fill:none;stroke:#000000;stroke-width:0.050800000000000005" d="m 348.125 136.183 l 0 5.9 l 2.9 0 l 0 -5.9 l -2.9 0"/>
      <path id="side_223" style="fill:none;stroke:#000000;stroke-width:0.050800000000000005" d="m 439.675 148.188 l 0 5.9 l 2.9 0 l 0 -5.9 l -2.9 0"/>
      <path id="side_224" style="fill:none;stroke:#000000;stroke-width:0.050800000000000005" d="m 393.9 148.188 l 0 5.9 l 2.9 0 l 0 -5.9 l -2.9 0"/>
      <path id="side_225" style="fill:none;stroke:#000000;stroke-width:0.050800000000000005" d="m 348.125 148.188 l 0 5.9 l 2.9 0 l 0 -5.9 l -2.9 0"/>
      <path id="side_226" style="fill:none;stroke:#000000;stroke-width:0.050800000000000005" d="m 439.675 160.193 l 0 5.9 l 2.9 0 l 0 -5.9 l -2.9 0"/>
      <path id="side_227" style="fill:none;stroke:#000000;stroke-width:0.050800000000000005" d="m 393.9 160.193 l 0 5.9 l 2.9 0 l 0 -5.9 l -2.9 0"/>
      <path id="side_228" style="fill:none;stroke:#000000;stroke-width:0.050800000000000005" d="m 348.125 160.193 l 0 5.9 l 2.9 0 l 0 -5.9 l -2.9 0"/>
      <path id="side_229" style="fill:none;stroke:#000000;stroke-width:0.050800000000000005" d="m 439.675 172.198 l 0 5.9 l 2.9 0 l 0 -5.9 l -2.9 0"/>
      <path id="side_230" style="fill:none;stroke:#000000;stroke-width:0.050800000000000005" d="m 393.9 172.198 l 0 5.9 l 2.9 0 l 0 -5.9 l -2.9 0"/>
      <path id="side_231" style="fill:none;stroke:#000000;stroke-width:0.050800000000000005" d="m 348.125 172.198 l 0 5.9 l 2.9 0 l 0 -5.9 l -2.9 0"/>
      <path id="side_232" style="fill:none;stroke:#000000;stroke-width:0.050800000000000005" d="m 439.675 184.202 l 0 5.9 l 2.9 0 l 0 -5.9 l -2.9 0"/>
      <path id="side_233" style="fill:none;stroke:#000000;stroke-width:0.050800000000000005" d="m 393.9 184.202 l 0 5.9 l 2.9 0 l 0 -5.9 l -2.9 0"/>
      <path id="side_234" style="fill:none;stroke:#000000;stroke-width:0.050800000000000005" d="m 348.125 184.202 l 0 5.9 l 2.9 0 l 0 -5.9 l -2.9 0"/>
      <path id="side_235" style="fill:none;stroke:#000000;stroke-width:0.050800000000000005" d="m 439.675 196.207 l 0 5.9 l 2.9 0 l 0 -5.9 l -2.9 0"/>
      <path id="side_236" style="fill:none;stroke:#000000;stroke-width:0.050800000000000005" d="m 393.9 196.207 l 0 5.9 l 2.9 0 l 0 -5.9 l -2.9 0"/>
      <path id="side_237" style="fill:none;stroke:#000000;stroke-width:0.050800000000000005" d="m 348.125 196.207 l 0 5.9 l 2.9 0 l 0 -5.9 l -2.9 0"/>
      <path id="side_238" style="fill:none;stroke:#000000;stroke-width:0.050800000000000005" d="m 439.675 208.212 l 0 5.9 l 2.9 0 l 0 -5.9 l -2.9 0"/>
      <path id="side_239" style="fill:none;stroke:#000000;stroke-width:0.050800000000000005" d="m 393.9 208.212 l 0 5.9 l 2.9 0 l 0 -5.9 l -2.9 0"/>
      <path id="side_240" style="fill:none;stroke:#000000;stroke-width:0.050800000000000005" d="m 348.125 208.212 l 0 5.9 l 2.9 0 l 0 -5.9 l -2.9 0"/>
      <path id="side_241" style="fill:none;stroke:#000000;stroke-width:0.050800000000000005" d="m 439.675 220.217 l 0 5.9 l 2.9 0 l 0 -5.9 l -2.9 0"/>
      <path id="side_242" style="fill:none;stroke:#000000;stroke-width:0.050800000000000005" d="m 393.9 220.217 l 0 5.9 l 2.9 0 l 0 -5.9 l -2.9 0"/>
      <path id="side_243" style="fill:none;stroke:#000000;stroke-width:0.050800000000000005" d="m 348.125 220.217 l 0 5.9 l 2.9 0 l 0 -5.9 l -2.9 0"/>
      <path id="side_244" style="fill:none;stroke:#000000;stroke-width:0.050800000000000005" d="m 439.675 232.221 l 0 5.9 l 2.9 0 l 0 -5.9 l -2.9 0"/>
      <path id="side_245" style="fill:none;stroke:#000000;stroke-width:0.050800000000000005" d="m 393.9 232.221 l 0 5.9 l 2.9 0 l 0 -5.9 l -2.9 0"/>
      <path id="side_246" style="fill:none;stroke:#000000;stroke-width:0.050800000000000005" d="m 348.125 232.221 l 0 5.9 l 2.9 0 l 0 -5.9 l -2.9 0"/>
      <path id="side_247" style="fill:none;stroke:#000000;stroke-width:0.050800000000000005" d="m 439.675 244.226 l 0 5.9 l 2.9 0 l 0 -5.9 l -2.9 0"/>
      <path id="side_248" style="fill:none;stroke:#000000;stroke-width:0.050800000000000005" d="m 393.9 244.226 l 0 5.9 l 2.9 0 l 0 -5.9 l -2.9 0"/>
      <path id="side_249" style="fill:none;stroke:#000000;stroke-width:0.050800000000000005" d="m 348.125 244.226 l 0 5.9 l 2.9 0 l 0 -5.9 l -2.9 0"/>
      <path id="side_250" style="fill:none;stroke:#000000;stroke-width:0.050800000000000005" d="m 439.675 256.231 l 0 5.9 l 2.9 0 l 0 -5.9 l -2.9 0"/>
      <path id="side_251" style="fill:none;stroke:#000000;stroke-width:0.050800000000000005" d="m 393.9 256.231 l 0 5.9 l 2.9 0 l 0 -5.9 l -2.9 0"/>
      <path id="side_252" style="fill:none;stroke:#000000;stroke-width:0.050800000000000005" d="m 348.125 256.231 l 0 5.9 l 2.9 0 l 0 -5.9 l -2.9 0"/>
      <path id="side_253" style="fill:none;stroke:#000000;stroke-width:0.050800000000000005" d="m 439.675 268.236 l 0 5.9 l 2.9 0 l 0 -5.9 l -2.9 0"/>
      <path id="side_254" style="fill:none;stroke:#000000;stroke-width:0.050800000000000005" d="m 393.9 268.236 l 0 5.9 l 2.9 0 l 0 -5.9 l -2.9 0"/>
      <path id="side_255" style="fill:none;stroke:#000000;stroke-width:0.050800000000000005" d="m 348.125 268.236 l 0 5.9 l 2.9 0 l 0 -5.9 l -2.9 0"/>
      <path id="side_256" style="fill:none;stroke:#000000;stroke-width:0.050800000000000005" d="m 439.675 280.24 l 0 5.9 l 2.9 0 l 0 -5.9 l -2.9 0"/>
      <path id="side_257" style="fill:none;stroke:#000000;stroke-width:0.050800000000000005" d="m 393.9 280.24 l 0 5.9 l 2.9 0 l 0 -5.9 l -2.9 0"/>
      <path id="side_258" style="fill:none;stroke:#000000;stroke-width:0.050800000000000005" d="m 348.125 280.24 l 0 5.9 l 2.9 0 l 0 -5.9 l -2.9 0"/>
      <path id="side_259" style="fill:none;stroke:#000000;stroke-width:0.050800000000000005" d="m 439.675 292.245 l 0 5.9 l 2.9 0 l 0 -5.9 l -2.9 0"/>
      <path id="side_260" style="fill:none;stroke:#000000;stroke-width:0.050800000000000005" d="m 393.9 292.245 l 0 5.9 l 2.9 0 l 0 -5.9 l -2.9 0"/>
      <path id="side_261" style="fill:none;stroke:#000000;stroke-width:0.050800000000000005" d="m 348.125 292.245 l 0 5.9 l 2.9 0 l 0 -5.9 l -2.9 0"/>
      <path id="side_262" style="fill:none;stroke:#000000;stroke-width:0.050800000000000005" d="m 488.4 58.1 l 0 6.0548 l -3 0 l 0 5.9 l 3 0 l 0 6.1047 l -3 0 l 0 5.9 l 3 0 l 0 6.1048 l -3 0 l 0 5.9 l 3 0 l 0 6.1047 l -3 0 l 0 5.9 l 3 0 l 0 6.105 l -3 0 l 0 5.9 l 3 0 l 0 6.105 l -3 0 l 0 5.9 l 3 0 l 0 6.104 l -3 0 l 0 5.9 l 3 0 l 0 6.105 l -3 0 l 0 5.9 l 3 0 l 0 6.105 l -3 0 l 0 5.9 l 3 0 l 0 6.105 l -3 0 l 0 5.9 l 3 0 l 0 6.104 l -3 0 l 0 5.9 l 3 0 l 0 6.105 l -3 0 l 0 5.9 l 3 0 l 0 6.105 l -3 0 l 0 5.9 l 3 0 l 0 6.105 l -3 0 l 0 5.9 l 3 0 l 0 6.104 l -3 0 l 0 5.9 l 3 0 l 0 6.105 l -3 0 l 0 5.9 l 3 0 l 0 6.105 l -3 0 l 0 5.9 l 3 0 l 0 6.105 l -3 0 l 0 5.9 l 3 0 l 0 6.104 l -3 0 l 0 5.9 l 3 0 l 0 6.105 l -3 0 l 0 5.9 l 3 0 l 0 6.055"/>
      <path id="side_263" style="fill:none;stroke:#000000;stroke-width:0.050800000000000005" d="m 488.4 304.2 l -6.056 0 l 0 -3 l -5.9 0 l 0 3 l -6.106 0 l 0 -3 l -5.9 0 l 0 3 l -6.107 0 l 0 -3 l -5.9 0 l 0 3 l -6.106 0 l 0 -3 l -5.9 0 l 0 3 l -6.106 0 l 0 -3 l -5.9 0 l 0 3 l -6.106 0 l 0 -3 l -5.9 0 l 0 3 l -6.107 0 l 0 -3 l -5.9 0 l 0 3 l -6.106 0 l 0 -3 l -5.9 0 l 0 3 l -6.106 0 l 0 -3 l -5.9 0 l 0 3 l -6.106 0 l 0 -3 l -5.9 0 l 0 3 l -6.107 0 l 0 -3 l -5.9 0 l 0 3 l -6.106 0 l 0 -3 l -5.9 0 l 0 3 l -6.106 0 l 0 -3 l -5.9 0 l 0 3 l -6.106 0 l 0 -3 l -5.9 0 l 0 3 l -6.107 0 l 0 -3 l -5.9 0 l 0 3 l -6.056 0"/>
      <path id="side_264" style="fill:none;stroke:#000000;stroke-width:0.050800000000000005" d="m 302.3 304.2 l 0 -6.055 l 3 0 l 0 -5.9 l -3 0 l 0 -6.105 l 3 0 l 0 -5.9 l -3 0 l 0 -6.104 l 3 0 l 0 -5.9 l -3 0 l 0 -6.105 l 3 0 l 0 -5.9 l -3 0 l 0 -6.105 l 3 0 l 0 -5.9 l -3 0 l 0 -6.105 l 3 0 l 0 -5.9 l -3 0 l 0 -6.104 l 3 0 l 0 -5.9 l -3 0 l 0 -6.105 l 3 0 l 0 -5.9 l -3 0 l 0 -6.105 l 3 0 l 0 -5.9 l -3 0 l 0 -6.105 l 3 0 l 0 -5.9 l -3 0 l 0 -6.104 l 3 0 l 0 -5.9 l -3 0 l 0 -6.105 l 3 0 l 0 -5.9 l -3 0 l 0 -6.105 l 3 0 l 0 -5.9 l -3 0 l 0 -6.105 l 3 0 l 0 -5.9 l -3 0 l 0 -6.104 l 3 0 l 0 -5.9 l -3 0 l 0 -6.105 l 3 0 l 0 -5.9 l -3 0 l 0 -6.105 l 3 0 l 0 -5.9 l -3 0 l 0 -6.1047 l 3 0 l 0 -5.9 l -3 0 l 0 -6.1048 l 3 0 l 0 -5.9 l -3 0 l 0 -6.1047 l 3 0 l 0 -5.9 l -3 0 l 0 -6.0548"/>
    </g>
    <g id="piece_011">
      <path id="side_265" style="fill:none;stroke:#000000;stroke-width:0.050800000000000005" d="m 58.1 4 l 5.9563 0 l 0 -3 l 6.0999 0 l 0 3 l 5.9063 0 l 0 -3 l 6.1 0 l 0 3 l 5.9062 0 l 0 -3 l 6.1 0 l 0 3 l 5.9063 0 l 0 -3 l 6.1 0 l 0 3 l 5.906 0 l 0 -3 l 6.1 0 l 0 3 l 5.906 0 l 0 -3 l 6.1 0 l 0 3 l 5.907 0 l 0 -3 l 6.1 0 l 0 3 l 5.906 0 l 0 -3 l 6.1 0 l 0 3 l 5.906 0 l 0 -3 l 6.1 0 l 0 3 l 5.906 0 l 0 -3 l 6.1 0 l 0 3 l 5.907 0 l 0 -3 l 6.1 0 l 0 3 l 5.906 0 l 0 -3 l 6.1 0 l 0 3 l 5.906 0 l 0 -3 l 6.1 0 l 0 3 l 5.906 0 l 0 -3 l 6.1 0 l 0 3 l 5.907 0 l 0 -3 l 6.1 0 l 0 3 l 5.956 0"/>
      <path id="side_266" style="fill:none;stroke:#000000;stroke-width:0.050800000000000005" d="m 195.475 7.47 l 0 5.9 l 2.9 0 l 0 -5.9 l -2.9 0"/>
      <path id="side_267" style="fill:none;stroke:#000000;stroke-width:0.050800000000000005" d="m 149.7 7.47 l 0 5.9 l 2.9 0 l 0 -5.9 l -2.9 0"/>
      <path id="side_268" style="fill:none;stroke:#000000;stroke-width:0.050800000000000005" d="m 103.925 7.47 l 0 5.9 l 2.9 0 l 0 -5.9 l -2.9 0"/>
      <path id="side_269" style="fill:none;stroke:#000000;stroke-width:0.050800000000000005" d="m 195.475 19.89 l 0 5.9 l 2.9 0 l 0 -5.9 l -2.9 0"/>
      <path id="side_270" style="fill:none;stroke:#000000;stroke-width:0.050800000000000005" d="m 149.7 19.89 l 0 5.9 l 2.9 0 l 0 -5.9 l -2.9 0"/>
      <path id="side_271" style="fill:none;stroke:#000000;stroke-width:0.050800000000000005" d="m 103.925 19.89 l 0 5.9 l 2.9 0 l 0 -5.9 l -2.9 0"/>
      <path id="side_272" style="fill:none;stroke:#000000;stroke-width:0.050800000000000005" d="m 195.475 32.31 l 0 5.9 l 2.9 0 l 0 -5.9 l -2.9 0"/>
      <path id="side_273" style="fill:none;stroke:#000000;stroke-width:0.050800000000000005" d="m 149.7 32.31 l 0 5.9 l 2.9 0 l 0 -5.9 l -2.9 0"/>
      <path id="side_274" style="fill:none;stroke:#000000;stroke-width:0.050800000000000005" d="m 103.925 32.31 l 0 5.9 l 2.9 0 l 0 -5.9 l -2.9 0"/>
      <path id="side_275" style="fill:none;stroke:#000000;stroke-width:0.050800000000000005" d="m 195.475 44.73 l 0 5.9 l 2.9 0 l 0 -5.9 l -2.9 0"/>
      <path id="side_276" style="fill:none;stroke:#000000;stroke-width:0.050800000000000005" d="m 149.7 44.73 l 0 5.9 l 2.9 0 l 0 -5.9 l -2.9 0"/>
      <path id="side_277" style="fill:none;stroke:#000000;stroke-width:0.050800000000000005" d="m 103.925 44.73 l 0 5.9 l 2.9 0 l 0 -5.9 l -2.9 0"/>
      <path id="side_278" style="fill:none;stroke:#000000;stroke-width:0.050800000000000005" d="m 244.2 4 l 0 3.47 l -3 0 l 0 5.9 l 3 0 l 0 6.52 l -3 0 l 0 5.9 l 3 0 l 0 6.52 l -3 0 l 0 5.9 l 3 0 l 0 6.52 l -3 0 l 0 5.9 l 3 0 l 0 3.47"/>
      <path id="side_279" style="fill:none;stroke:#000000;stroke-width:0.050800000000000005" d="m 244.2 54.1 l -5.956 0 l 0 3 l -6.1 0 l 0 -3 l -5.907 0 l 0 3 l -6.1 0 l 0 -3 l -5.906 0 l 0 3 l -6.1 0 l 0 -3 l -5.906 0 l 0 3 l -6.1 0 l 0 -3 l -5.906 0 l 0 3 l -6.1 0 l 0 -3 l -5.906 0 l 0 3 l -6.1 0 l 0 -3 l -5.907 0 l 0 3 l -6.1 0 l 0 -3 l -5.906 0 l 0 3 l -6.1 0 l 0 -3 l -5.906 0 l 0 3 l -6.1 0 l 0 -3 l -5.906 0 l 0 3 l -6.1 0 l 0 -3 l -5.907 0 l 0 3 l -6.1 0 l 0 -3 l -5.906 0 l 0 3 l -6.1 0 l 0 -3 l -5.9062 0 l 0 3 l -6.1 0 l 0 -3 l -5.9063 0 l 0 3 l -6.1 0 l 0 -3 l -5.9062 0 l 0 3 l -6.1 0 l 0 -3 l -5.9563 0"/>
      <path id="side_280" style="fill:none;stroke:#000000;stroke-width:0.050800000000000005" d="m 58.1 54.1 l 0 -3.47 l 3 0 l 0 -5.9 l -3 0 l 0 -6.52 l 3 0 l 0 -5.9 l -3 0 l 0 -6.52 l 3 0 l 0 -5.9 l -3 0 l 0 -6.52 l 3 0 l 0 -5.9 l -3 0 l 0 -3.47"/>
    </g>
  </g>
</svg>