<!-- Created with Inkscape (http://www.inkscape.org/) -->
<svg xmlns:inkscape="http://www.inkscape.org/namespaces/inkscape" xmlns:sodipodi="http://sodipodi.sourceforge.net/DTD/sodipodi-0.dtd" xmlns="http://www.w3.org/2000/svg" xmlns:svg="http://www.w3.org/2000/svg" width="422.50000000000006mm" height="370mm" viewBox="0 0 422.50000000000006 370" version="1.1" sodipodi:docname="blank.svg">
  <sodipodi:namedview/>
  <defs id="defaults"/>
  <g inkscape:label="Cardboard Box" id="cardboardbox_001">
    <metadata text="$ cardboard.py --unit=mm --length=100.00 --width=100.00 --depth=100.00 --thickness=3 --hairline=True --box-top=3 --box-bottom=5"/>
    <path id="line_001" style="fill:none;stroke:#000000;stroke-width:0.1" d="M 2.5 56 A 2.5 2.5 0 1 0 2.5 51 L 2.5 0 L 103.5 0 L 103.5 51 A 2.5 2.5 0 1 0 103.5 56 A 2.5 2.5 0 1 0 108.5 56 A 2.5 2.5 0 1 0 108.5 51 L 108.5 0 L 209.5 0 L 209.5 51 A 2.5 2.5 0 1 0 209.5 56 A 2.5 2.5 0 1 0 214.5 56 A 2.5 2.5 0 1 0 214.5 51 L 214.5 0 L 315.5 0 L 315.5 51 A 2.5 2.5 0 1 0 315.5 56 A 2.5 2.5 0 1 0 320.5 56 A 2.5 2.5 0 1 0 320.5 51 L 320.5 0 L 421.5 0 L 421.5 51 A 2.5 2.5 0 1 0 421.5 56 L 421.5 157 A 2.5 2.5 0 1 0 421.5 162 L 415.5 263 L 386.333 263 L 383.333 269 L 358.667 269 L 355.667 263 L 326.5 263 L 320.5 162 A 2.5 2.5 0 1 0 320.5 157 A 2.5 2.5 0 1 0 315.5 157 A 2.5 2.5 0 1 0 315.5 162 L 287.167 162 L 287.167 112 L 282.167 112 L 282.167 162 A 2.5 2.5 0 1 0 282.167 167 L 264.167 191 L 265.833 191 L 247.833 167 A 2.5 2.5 0 1 0 247.833 162 L 247.833 112 L 242.833 112 L 242.833 162 L 214.5 162 A 2.5 2.5 0 1 0 214.5 157 A 2.5 2.5 0 1 0 209.5 157 A 2.5 2.5 0 1 0 209.5 162 L 203.5 263 L 174.333 263 L 171.333 269 L 146.667 269 L 143.667 263 L 114.5 263 L 108.5 162 A 2.5 2.5 0 1 0 108.5 157 A 2.5 2.5 0 1 0 103.5 157 A 2.5 2.5 0 1 0 103.5 162 L 103.5 263 L 88.5 263 A 2.5 2.5 0 1 0 88.5 268 L 73.5 369 L 32.5 369 L 17.5 268 A 2.5 2.5 0 1 0 17.5 263 L 2.5 263 L 2.5 162 A 2.5 2.5 0 1 0 2.5 157 Z"/>
  </g>
</svg>