<!-- Created with Inkscape (http://www.inkscape.org/) -->
<svg xmlns:inkscape="http://www.inkscape.org/namespaces/inkscape" xmlns:sodipodi="http://sodipodi.sourceforge.net/DTD/sodipodi-0.dtd" xmlns="http://www.w3.org/2000/svg" xmlns:svg="http://www.w3.org/2000/svg" width="420.00000000000006mm" height="314mm" viewBox="0 0 420.00000000000006 314" version="1.1" sodipodi:docname="blank.svg">
  <sodipodi:namedview/>
  <defs id="defaults"/>
  <g inkscape:label="Cardboard Box" id="cardboardbox_001">
    <metadata text="$ cardboard.py --unit=mm --length=100.00 --width=100.00 --depth=100.00 --thickness=3 --hairline=True --box-top=1 --box-bottom=5"/>
    <path id="line_001" style="fill:none;stroke:#000000;stroke-width:0.1" d="M 1.42109e-14 0 L 101 0 A 2.5 2.5 0 1 0 106 0 L 207 0 A 2.5 2.5 0 1 0 212 0 L 313 0 A 2.5 2.5 0 1 0 318 0 L 419 0 L 419 101 A 2.5 2.5 0 1 0 419 106 L 413 207 L 383.833 207 L 380.833 213 L 356.167 213 L 353.167 207 L 324 207 L 318 106 A 2.5 2.5 0 1 0 318 101 A 2.5 2.5 0 1 0 313 101 A 2.5 2.5 0 1 0 313 106 L 284.667 106 L 284.667 56 L 279.667 56 L 279.667 106 A 2.5 2.5 0 1 0 279.667 111 L 261.667 135 L 263.333 135 L 245.333 111 A 2.5 2.5 0 1 0 245.333 106 L 245.333 56 L 240.333 56 L 240.333 106 L 212 106 A 2.5 2.5 0 1 0 212 101 A 2.5 2.5 0 1 0 207 101 A 2.5 2.5 0 1 0 207 106 L 201 207 L 171.833 207 L 168.833 213 L 144.167 213 L 141.167 207 L 112 207 L 106 106 A 2.5 2.5 0 1 0 106 101 A 2.5 2.5 0 1 0 101 101 A 2.5 2.5 0 1 0 101 106 L 101 207 L 86 207 A 2.5 2.5 0 1 0 86 212 L 71 313 L 30 313 L 15 212 A 2.5 2.5 0 1 0 15 207 L 0 207 L 0 106 A 2.5 2.5 0 1 0 0 101 Z"/>
  </g>
</svg>