<!-- Created with Inkscape (http://www.inkscape.org/) -->
<svg xmlns:inkscape="http://www.inkscape.org/namespaces/inkscape" xmlns:sodipodi="http://sodipodi.sourceforge.net/DTD/sodipodi-0.dtd" xmlns="http://www.w3.org/2000/svg" xmlns:svg="http://www.w3.org/2000/svg" width="422.50000000000006mm" height="314mm" viewBox="0 0 422.50000000000006 314" version="1.1" sodipodi:docname="blank.svg">
  <sodipodi:namedview/>
  <defs id="defaults"/>
  <g inkscape:label="Cardboard Box" id="cardboardbox_001">
    <metadata text="$ cardboard.py --unit=mm --length=100.00 --width=100.00 --depth=100.00 --thickness=3 --hairline=True --box-top=5 --box-bottom=1"/>
    <path id="line_001" style="fill:none;stroke:#000000;stroke-width:0.1" d="M 2.5 212 A 2.5 2.5 0 1 0 2.5 207 L 2.5 106 L 17.5 106 A 2.5 2.5 0 1 0 17.5 101 L 32.5 0 L 73.5 0 L 88.5 101 A 2.5 2.5 0 1 0 88.5 106 L 103.5 106 L 103.5 207 A 2.5 2.5 0 1 0 103.5 212 A 2.5 2.5 0 1 0 108.5 212 A 2.5 2.5 0 1 0 108.5 207 L 114.5 106 L 143.667 106 L 146.667 100 L 171.333 100 L 174.333 106 L 203.5 106 L 209.5 207 A 2.5 2.5 0 1 0 209.5 212 A 2.5 2.5 0 1 0 214.5 212 A 2.5 2.5 0 1 0 214.5 207 L 214.5 206 L 242.833 206 L 242.833 256 L 247.833 256 L 247.833 206 A 2.5 2.5 0 1 0 247.833 201 L 247.833 200 L 265.833 176 L 264.167 176 L 282.167 200 L 282.167 201 A 2.5 2.5 0 1 0 282.167 206 L 282.167 256 L 287.167 256 L 287.167 206 L 315.5 206 L 315.5 207 A 2.5 2.5 0 1 0 315.5 212 A 2.5 2.5 0 1 0 320.5 212 A 2.5 2.5 0 1 0 320.5 207 L 326.5 106 L 355.667 106 L 358.667 100 L 383.333 100 L 386.333 106 L 415.5 106 L 421.5 207 A 2.5 2.5 0 1 0 421.5 212 L 421.5 313 L 320.5 313 A 2.5 2.5 0 1 0 315.5 313 L 214.5 313 A 2.5 2.5 0 1 0 209.5 313 L 108.5 313 A 2.5 2.5 0 1 0 103.5 313 L 2.5 313 Z"/>
    <path id="line_002" style="fill:none;stroke:#000000;stroke-width:0.1" d="M 36.5833 107 L 71.4167 107 A 2 2 0 0 1 71.4167 113.5 L 36.5833 113.5 A 2 2 0 0 1 36.5833 107 Z"/>
  </g>
</svg>