<!-- Created with Inkscape (http://www.inkscape.org/) -->
<svg xmlns:inkscape="http://www.inkscape.org/namespaces/inkscape" xmlns:sodipodi="http://sodipodi.sourceforge.net/DTD/sodipodi-0.dtd" xmlns="http://www.w3.org/2000/svg" xmlns:svg="http://www.w3.org/2000/svg" width="422.50000000000006mm" height="526mm" viewBox="0 0 422.50000000000006 526" version="1.1" sodipodi:docname="blank.svg">
  <sodipodi:namedview/>
  <defs id="defaults"/>
  <g inkscape:label="Cardboard Box" id="cardboardbox_001">
    <metadata text="$ cardboard.py --unit=mm --length=100.00 --width=100.00 --depth=100.00 --thickness=3 --hairline=True --box-top=2 --box-bottom=5"/>
    <path id="line_001" style="fill:none;stroke:#000000;stroke-width:0.1" d="M 2.5 212 A 2.5 2.5 0 1 0 2.5 207 L 2.5 106 L 17.5 106 A 2.5 2.5 0 1 0 17.5 101 L 32.5 0 L 73.5 0 L 88.5 101 A 2.5 2.5 0 1 0 88.5 106 L 103.5 106 L 103.5 207 A 2.5 2.5 0 1 0 103.5 212 A 2.5 2.5 0 1 0 108.5 212 A 5.5 5.5 0 1 0 108.5 201 L 114.5 100 L 143.667 100 L 146.667 94 L 171.333 94 L 174.333 100 L 203.5 100 L 209.5 201 A 5.5 5.5 0 1 0 209.5 212 A 2.5 2.5 0 1 0 214.5 212 A 5.5 5.5 0 1 0 214.5 201 L 220.5 100 L 249.667 100 L 252.667 94 L 277.333 94 L 280.333 100 L 309.5 100 L 315.5 201 A 5.5 5.5 0 1 0 315.5 212 A 2.5 2.5 0 1 0 320.5 212 A 5.5 5.5 0 1 0 320.5 201 L 326.5 100 L 355.667 100 L 358.667 94 L 383.333 94 L 386.333 100 L 415.5 100 L 421.5 201 A 5.5 5.5 0 1 0 421.5 212 L 421.5 313 A 2.5 2.5 0 1 0 421.5 318 L 415.5 419 L 386.333 419 L 383.333 425 L 358.667 425 L 355.667 419 L 326.5 419 L 320.5 318 A 2.5 2.5 0 1 0 320.5 313 A 2.5 2.5 0 1 0 315.5 313 A 2.5 2.5 0 1 0 315.5 318 L 287.167 318 L 287.167 268 L 282.167 268 L 282.167 318 A 2.5 2.5 0 1 0 282.167 323 L 264.167 347 L 265.833 347 L 247.833 323 A 2.5 2.5 0 1 0 247.833 318 L 247.833 268 L 242.833 268 L 242.833 318 L 214.5 318 A 2.5 2.5 0 1 0 214.5 313 A 2.5 2.5 0 1 0 209.5 313 A 2.5 2.5 0 1 0 209.5 318 L 203.5 419 L 174.333 419 L 171.333 425 L 146.667 425 L 143.667 419 L 114.5 419 L 108.5 318 A 2.5 2.5 0 1 0 108.5 313 A 2.5 2.5 0 1 0 103.5 313 A 2.5 2.5 0 1 0 103.5 318 L 103.5 419 L 88.5 419 A 2.5 2.5 0 1 0 88.5 424 L 73.5 525 L 32.5 525 L 17.5 424 A 2.5 2.5 0 1 0 17.5 419 L 2.5 419 L 2.5 318 A 2.5 2.5 0 1 0 2.5 313 Z"/>
    <path id="line_002" style="fill:none;stroke:#000000;stroke-width:0.1" d="M 141.833 313.75 L 176.167 313.75 L 176.167 317.25 L 141.833 317.25 L 141.833 313.75 Z"/>
    <path id="line_003" style="fill:none;stroke:#000000;stroke-width:0.1" d="M 247.833 313.75 L 282.167 313.75 L 282.167 317.25 L 247.833 317.25 L 247.833 313.75 Z"/>
    <path id="line_004" style="fill:none;stroke:#000000;stroke-width:0.1" d="M 353.833 313.75 L 388.167 313.75 L 388.167 317.25 L 353.833 317.25 L 353.833 313.75 Z"/>
  </g>
</svg>