<!-- Created with Inkscape (http://www.inkscape.org/) -->
<svg xmlns:inkscape="http://www.inkscape.org/namespaces/inkscape" xmlns:sodipodi="http://sodipodi.sourceforge.net/DTD/sodipodi-0.dtd" xmlns="http://www.w3.org/2000/svg" xmlns:svg="http://www.w3.org/2000/svg" width="437.5mm" height="214mm" viewBox="0 0 437.5 214" version="1.1" sodipodi:docname="blank.svg">
  <sodipodi:namedview/>
  <defs id="defaults"/>
  <g inkscape:label="Cardboard Box" id="cardboardbox_001">
    <metadata text="$ cardboard.py --unit=mm --length=100.00 --width=100.00 --depth=100.00 --thickness=3 --hairline=True --box-top=3 --box-bottom=3 --sidetab=True"/>
    <path id="line_001" style="fill:none;stroke:#000000;stroke-width:0.1" d="M 2.5 56 A 2.5 2.5 0 1 0 2.5 51 L 2.5 0 L 103.5 0 L 103.5 51 A 2.5 2.5 0 1 0 103.5 56 A 2.5 2.5 0 1 0 108.5 56 A 2.5 2.5 0 1 0 108.5 51 L 108.5 0 L 209.5 0 L 209.5 51 A 2.5 2.5 0 1 0 209.5 56 A 2.5 2.5 0 1 0 214.5 56 A 2.5 2.5 0 1 0 214.5 51 L 214.5 0 L 315.5 0 L 315.5 51 A 2.5 2.5 0 1 0 315.5 56 A 2.5 2.5 0 1 0 320.5 56 A 2.5 2.5 0 1 0 320.5 51 L 320.5 0 L 421.5 0 L 421.5 51 A 2.5 2.5 0 1 0 421.5 56 L 421.5 63 L 415.5 63 L 415.5 68 A 2.5 2.5 0 1 0 420.5 68 L 436.5 74 L 436.5 139 L 420.5 145 A 2.5 2.5 0 1 0 415.5 145 L 415.5 150 L 421.5 150 L 421.5 157 A 2.5 2.5 0 1 0 421.5 162 L 421.5 213 L 320.5 213 L 320.5 162 A 2.5 2.5 0 1 0 320.5 157 A 2.5 2.5 0 1 0 315.5 157 A 2.5 2.5 0 1 0 315.5 162 L 315.5 213 L 214.5 213 L 214.5 162 A 2.5 2.5 0 1 0 214.5 157 A 2.5 2.5 0 1 0 209.5 157 A 2.5 2.5 0 1 0 209.5 162 L 209.5 213 L 108.5 213 L 108.5 162 A 2.5 2.5 0 1 0 108.5 157 A 2.5 2.5 0 1 0 103.5 157 A 2.5 2.5 0 1 0 103.5 162 L 103.5 213 L 2.5 213 L 2.5 162 A 2.5 2.5 0 1 0 2.5 157 Z"/>
  </g>
</svg>