<!-- Created with Inkscape (http://www.inkscape.org/) -->
<svg xmlns:inkscape="http://www.inkscape.org/namespaces/inkscape" xmlns:sodipodi="http://sodipodi.sourceforge.net/DTD/sodipodi-0.dtd" xmlns="http://www.w3.org/2000/svg" xmlns:svg="http://www.w3.org/2000/svg" width="422.50000000000006mm" height="214mm" viewBox="0 0 422.50000000000006 214" version="1.1" sodipodi:docname="blank.svg">
  <sodipodi:namedview/>
  <defs id="defaults"/>
  <g inkscape:label="Cardboard Box" id="cardboardbox_001">
    <metadata text="$ cardboard.py --unit=mm --length=100.00 --width=100.00 --depth=100.00 --thickness=3 --hairline=True --box-top=3 --box-bottom=3 --foldlines=True"/>
    <path id="line_001" style="fill:none;stroke:#000000;stroke-width:0.1" d="M 2.5 56 A 2.5 2.5 0 1 0 2.5 51 L 2.5 0 L 103.5 0 L 103.5 51 A 2.5 2.5 0 1 0 103.5 56 A 2.5 2.5 0 1 0 108.5 56 A 2.5 2.5 0 1 0 108.5 51 L 108.5 0 L 209.5 0 L 209.5 51 A 2.5 2.5 0 1 0 209.5 56 A 2.5 2.5 0 1 0 214.5 56 A 2.5 2.5 0 1 0 214.5 51 L 214.5 0 L 315.5 0 L 315.5 51 A 2.5 2.5 0 1 0 315.5 56 A 2.5 2.5 0 1 0 320.5 56 A 2.5 2.5 0 1 0 320.5 51 L 320.5 0 L 421.5 0 L 421.5 51 A 2.5 2.5 0 1 0 421.5 56 L 421.5 157 A 2.5 2.5 0 1 0 421.5 162 L 421.5 213 L 320.5 213 L 320.5 162 A 2.5 2.5 0 1 0 320.5 157 A 2.5 2.5 0 1 0 315.5 157 A 2.5 2.5 0 1 0 315.5 162 L 315.5 213 L 214.5 213 L 214.5 162 A 2.5 2.5 0 1 0 214.5 157 A 2.5 2.5 0 1 0 209.5 157 A 2.5 2.5 0 1 0 209.5 162 L 209.5 213 L 108.5 213 L 108.5 162 A 2.5 2.5 0 1 0 108.5 157 A 2.5 2.5 0 1 0 103.5 157 A 2.5 2.5 0 1 0 103.5 162 L 103.5 213 L 2.5 213 L 2.5 162 A 2.5 2.5 0 1 0 2.5 157 Z"/>
    <path id="line_002" style="fill:none;stroke:#0000ff;stroke-width:0.1" d="M 18 53.5 L 88 53.5"/>
    <path id="line_003" style="fill:none;stroke:#0000ff;stroke-width:0.1" d="M 124 53.5 L 194 53.5"/>
    <path id="line_004" style="fill:none;stroke:#0000ff;stroke-width:0.1" d="M 230 53.5 L 300 53.5"/>
    <path id="line_005" style="fill:none;stroke:#0000ff;stroke-width:0.1" d="M 336 53.5 L 406 53.5"/>
    <path id="line_006" style="fill:none;stroke:#0000ff;stroke-width:0.1" d="M 18 159.5 L 88 159.5"/>
    <path id="line_007" style="fill:none;stroke:#0000ff;stroke-width:0.1" d="M 124 159.5 L 194 159.5"/>
    <path id="line_008" style="fill:none;stroke:#0000ff;stroke-width:0.1" d="M 230 159.5 L 300 159.5"/>
    <path id="line_009" style="fill:none;stroke:#0000ff;stroke-width:0.1" d="M 336 159.5 L 406 159.5"/>
    <path id="line_010" style="fill:none;stroke:#0000ff;stroke-width:0.1" d="M 106 71.5 L 106 141.5"/>
    <path id="line_011" style="fill:none;stroke:#0000ff;stroke-width:0.1" d="M 212 71.5 L 212 141.5"/>
    <path id="line_012" style="fill:none;stroke:#0000ff;stroke-width:0.1" d="M 318 71.5 L 318 141.5"/>
  </g>
</svg>