<!-- Created with Inkscape (http://www.inkscape.org/) -->
<svg xmlns:inkscape="http://www.inkscape.org/namespaces/inkscape" xmlns:sodipodi="http://sodipodi.sourceforge.net/DTD/sodipodi-0.dtd" xmlns="http://www.w3.org/2000/svg" xmlns:svg="http://www.w3.org/2000/svg" width="176mm" height="196mm" viewBox="0 0 176 196" version="1.1" id="svg5" inkscape:version="1.1.2 (0a00cf5339, 2022-02-04)" sodipodi:docname="blank.svg">
  <sodipodi:namedview id="namedview7" pagecolor="#ffffff" bordercolor="#666666" borderopacity="1.0" inkscape:pageshadow="2" inkscape:pageopacity="0.0" inkscape:pagecheckerboard="0" inkscape:document-units="mm" showgrid="false" inkscape:zoom="0.64052329" inkscape:cx="397.33138" inkscape:cy="561.25984" inkscape:window-width="2086" inkscape:window-height="1376" inkscape:window-x="0" inkscape:window-y="0" inkscape:window-maximized="1" inkscape:current-layer="layer1"/>
  <defs id="defs2"/>
  <g inkscape:label="Layer 1" inkscape:groupmode="layer" id="layer1">
    <metadata text="createArgs=['--unit=mm', '--inside=1', '--length=80', '--width=100', '--depth=40', '--equal=0', '--tab=6', '--tabtype=0', '--tabsymmetry=0', '--dimpleheight=0', '--dimplelength=0', '--hairline=1', '--thickness=3', '--kerf=0', '--style=1', '--div-l=1', '--div-w=1', '--keydiv=0', '--spacing=2', '--boxtype=4']"/>
    <g id="xdivider_001">
      <path id="side_001" style="fill:none;stroke:#000000;stroke-width:0.0508" d="M 47 152 L 54.1429 152 L 54.1429 152 L 60.1429 152 L 60.1429 152 L 67.2857 152 L 67.2857 152 L 73.2857 152 L 73.2857 152 L 80.4286 152 L 80.4286 152 L 86.4286 152 L 86.4286 152 L 93.5714 152 L 93.5714 152 L 99.5714 152 L 99.5714 152 L 106.714 152 L 106.714 152 L 112.714 152 L 112.714 152 L 119.857 152 L 119.857 152 L 125.857 152 L 125.857 152 L 130 152"/>
      <path id="side_002" style="fill:none;stroke:#000000;stroke-width:0.0508" d="M 130 152 L 130 158.25 L 130 158.25 L 130 164.25 L 130 164.25 L 130 170.5 L 130 170.5 L 130 176.5 L 130 176.5 L 130 182.75 L 130 182.75 L 130 188.75 L 130 188.75 L 130 192"/>
      <path id="side_003" style="fill:none;stroke:#000000;stroke-width:0.0508" d="M 130 192 L 125.857 192 L 125.857 195 L 119.857 195 L 119.857 192 L 112.714 192 L 112.714 195 L 106.714 195 L 106.714 192 L 99.5714 192 L 99.5714 195 L 93.5714 195 L 93.5714 192 L 86.4286 192 L 86.4286 195 L 80.4286 195 L 80.4286 192 L 73.2857 192 L 73.2857 195 L 67.2857 195 L 67.2857 192 L 60.1429 192 L 60.1429 195 L 54.1429 195 L 54.1429 192 L 47 192"/>
      <path id="side_004" style="fill:none;stroke:#000000;stroke-width:0.0508" d="M 47 192 L 47 188.75 L 50 188.75 L 50 182.75 L 47 182.75 L 47 176.5 L 50 176.5 L 50 170.5 L 47 170.5 L 47 164.25 L 50 164.25 L 50 158.25 L 47 158.25 L 47 152"/>
      <path id="slot_001" style="fill:none;stroke:#000000;stroke-width:0.0508" d="M 88.5 195 L 88.5 172 L 91.5 172 L 91.5 195 L 88.5 195 Z"/>
    </g>
    <g id="piece_001">
      <path id="side_005" style="fill:none;stroke:#000000;stroke-width:0.0508" d="M 2 50 L 8.25 50 L 8.25 47 L 14.25 47 L 14.25 50 L 20.5 50 L 20.5 47 L 26.5 47 L 26.5 50 L 32.75 50 L 32.75 47 L 38.75 47 L 38.75 50 L 42 50"/>
      <path id="hole_001" style="fill:none;stroke:#000000;stroke-width:0.0508" d="M 2 98.5 L 8.25 98.5 L 8.25 101.5 L 2 101.5 L 2 98.5 Z"/>
      <path id="hole_002" style="fill:none;stroke:#000000;stroke-width:0.0508" d="M 14.25 98.5 L 20.5 98.5 L 20.5 101.5 L 14.25 101.5 L 14.25 98.5 Z"/>
      <path id="hole_003" style="fill:none;stroke:#000000;stroke-width:0.0508" d="M 26.5 98.5 L 32.75 98.5 L 32.75 101.5 L 26.5 101.5 L 26.5 98.5 Z"/>
      <path id="hole_004" style="fill:none;stroke:#000000;stroke-width:0.0508" d="M 38.75 98.5 L 42 98.5 L 42 101.5 L 38.75 101.5 L 38.75 98.5 Z"/>
      <path id="side_006" style="fill:none;stroke:#000000;stroke-width:0.0508" d="M 42 50 L 42 53.1111 L 45 53.1111 L 45 59.1111 L 42 59.1111 L 42 65.2222 L 45 65.2222 L 45 71.2222 L 42 71.2222 L 42 77.3333 L 45 77.3333 L 45 83.3333 L 42 83.3333 L 42 89.4444 L 45 89.4444 L 45 95.4444 L 42 95.4444 L 42 101.556 L 45 101.556 L 45 107.556 L 42 107.556 L 42 113.667 L 45 113.667 L 45 119.667 L 42 119.667 L 42 125.778 L 45 125.778 L 45 131.778 L 42 131.778 L 42 137.889 L 45 137.889 L 45 143.889 L 42 143.889 L 42 150"/>
      <path id="side_007" style="fill:none;stroke:#000000;stroke-width:0.0508" d="M 42 150 L 38.75 150 L 38.75 150 L 32.75 150 L 32.75 150 L 26.5 150 L 26.5 150 L 20.5 150 L 20.5 150 L 14.25 150 L 14.25 150 L 8.25 150 L 8.25 150 L 2 150"/>
      <path id="side_008" style="fill:none;stroke:#000000;stroke-width:0.0508" d="M 2 150 L 2 143.889 L 2 143.889 L 2 137.889 L 2 137.889 L 2 131.778 L 2 131.778 L 2 125.778 L 2 125.778 L 2 119.667 L 2 119.667 L 2 113.667 L 2 113.667 L 2 107.556 L 2 107.556 L 2 101.556 L 2 101.556 L 2 95.4444 L 2 95.4444 L 2 89.4444 L 2 89.4444 L 2 83.3333 L 2 83.3333 L 2 77.3333 L 2 77.3333 L 2 71.2222 L 2 71.2222 L 2 65.2222 L 2 65.2222 L 2 59.1111 L 2 59.1111 L 2 53.1111 L 2 53.1111 L 2 50"/>
    </g>
    <g id="ydivider_001">
      <path id="side_009" style="fill:none;stroke:#000000;stroke-width:0.0508" d="M 132 50 L 138.25 50 L 138.25 47 L 144.25 47 L 144.25 50 L 150.5 50 L 150.5 47 L 156.5 47 L 156.5 50 L 162.75 50 L 162.75 47 L 168.75 47 L 168.75 50 L 172 50"/>
      <path id="slot_002" style="fill:none;stroke:#000000;stroke-width:0.0508" d="M 132 98.5 L 152 98.5 L 152 101.5 L 132 101.5 L 132 98.5 Z"/>
      <path id="side_010" style="fill:none;stroke:#000000;stroke-width:0.0508" d="M 172 50 L 172 53.4444 L 175 53.4444 L 175 59.4444 L 172 59.4444 L 172 65.8889 L 175 65.8889 L 175 71.8889 L 172 71.8889 L 172 78.3333 L 175 78.3333 L 175 84.3333 L 172 84.3333 L 172 90.7778 L 175 90.7778 L 175 96.7778 L 172 96.7778 L 172 103.222 L 175 103.222 L 175 109.222 L 172 109.222 L 172 115.667 L 175 115.667 L 175 121.667 L 172 121.667 L 172 128.111 L 175 128.111 L 175 134.111 L 172 134.111 L 172 140.556 L 175 140.556 L 175 146.556 L 172 146.556 L 172 150"/>
      <path id="side_011" style="fill:none;stroke:#000000;stroke-width:0.0508" d="M 172 150 L 168.75 150 L 168.75 150 L 162.75 150 L 162.75 150 L 156.5 150 L 156.5 150 L 150.5 150 L 150.5 150 L 144.25 150 L 144.25 150 L 138.25 150 L 138.25 150 L 132 150"/>
      <path id="side_012" style="fill:none;stroke:#000000;stroke-width:0.0508" d="M 132 150 L 132 146.556 L 132 146.556 L 132 140.556 L 132 140.556 L 132 134.111 L 132 134.111 L 132 128.111 L 132 128.111 L 132 121.667 L 132 121.667 L 132 115.667 L 132 115.667 L 132 109.222 L 132 109.222 L 132 103.222 L 132 103.222 L 132 96.7778 L 132 96.7778 L 132 90.7778 L 132 90.7778 L 132 84.3333 L 132 84.3333 L 132 78.3333 L 132 78.3333 L 132 71.8889 L 132 71.8889 L 132 65.8889 L 132 65.8889 L 132 59.4444 L 132 59.4444 L 132 53.4444 L 132 53.4444 L 132 50"/>
    </g>
    <g id="piece_002">
      <path id="side_013" style="fill:none;stroke:#000000;stroke-width:0.0508" d="M 47 47 L 53.7143 47 L 53.7143 50 L 59.7143 50 L 59.7143 47 L 66.4286 47 L 66.4286 50 L 72.4286 50 L 72.4286 47 L 79.1429 47 L 79.1429 50 L 85.1429 50 L 85.1429 47 L 91.8571 47 L 91.8571 50 L 97.8571 50 L 97.8571 47 L 104.571 47 L 104.571 50 L 110.571 50 L 110.571 47 L 117.286 47 L 117.286 50 L 123.286 50 L 123.286 47 L 130 47"/>
      <path id="hole_005" style="fill:none;stroke:#000000;stroke-width:0.0508" d="M 53.7143 98.5 L 59.7143 98.5 L 59.7143 101.5 L 53.7143 101.5 L 53.7143 98.5 Z"/>
      <path id="hole_006" style="fill:none;stroke:#000000;stroke-width:0.0508" d="M 66.4286 98.5 L 72.4286 98.5 L 72.4286 101.5 L 66.4286 101.5 L 66.4286 98.5 Z"/>
      <path id="hole_007" style="fill:none;stroke:#000000;stroke-width:0.0508" d="M 79.1429 98.5 L 85.1429 98.5 L 85.1429 101.5 L 79.1429 101.5 L 79.1429 98.5 Z"/>
      <path id="hole_008" style="fill:none;stroke:#000000;stroke-width:0.0508" d="M 91.8571 98.5 L 97.8571 98.5 L 97.8571 101.5 L 91.8571 101.5 L 91.8571 98.5 Z"/>
      <path id="hole_009" style="fill:none;stroke:#000000;stroke-width:0.0508" d="M 104.571 98.5 L 110.571 98.5 L 110.571 101.5 L 104.571 101.5 L 104.571 98.5 Z"/>
      <path id="hole_010" style="fill:none;stroke:#000000;stroke-width:0.0508" d="M 117.286 98.5 L 123.286 98.5 L 123.286 101.5 L 117.286 101.5 L 117.286 98.5 Z"/>
      <path id="side_014" style="fill:none;stroke:#000000;stroke-width:0.0508" d="M 130 47 L 130 53.1111 L 130 53.1111 L 130 59.1111 L 130 59.1111 L 130 65.2222 L 130 65.2222 L 130 71.2222 L 130 71.2222 L 130 77.3333 L 130 77.3333 L 130 83.3333 L 130 83.3333 L 130 89.4444 L 130 89.4444 L 130 95.4444 L 130 95.4444 L 130 101.556 L 130 101.556 L 130 107.556 L 130 107.556 L 130 113.667 L 130 113.667 L 130 119.667 L 130 119.667 L 130 125.778 L 130 125.778 L 130 131.778 L 130 131.778 L 130 137.889 L 130 137.889 L 130 143.889 L 130 143.889 L 130 150"/>
      <path id="side_015" style="fill:none;stroke:#000000;stroke-width:0.0508" d="M 130 150 L 123.286 150 L 123.286 150 L 117.286 150 L 117.286 150 L 110.571 150 L 110.571 150 L 104.571 150 L 104.571 150 L 97.8571 150 L 97.8571 150 L 91.8571 150 L 91.8571 150 L 85.1429 150 L 85.1429 150 L 79.1429 150 L 79.1429 150 L 72.4286 150 L 72.4286 150 L 66.4286 150 L 66.4286 150 L 59.7143 150 L 59.7143 150 L 53.7143 150 L 53.7143 150 L 47 150"/>
      <path id="side_016" style="fill:none;stroke:#000000;stroke-width:0.0508" d="M 47 150 L 47 143.889 L 50 143.889 L 50 137.889 L 47 137.889 L 47 131.778 L 50 131.778 L 50 125.778 L 47 125.778 L 47 119.667 L 50 119.667 L 50 113.667 L 47 113.667 L 47 107.556 L 50 107.556 L 50 101.556 L 47 101.556 L 47 95.4444 L 50 95.4444 L 50 89.4444 L 47 89.4444 L 47 83.3333 L 50 83.3333 L 50 77.3333 L 47 77.3333 L 47 71.2222 L 50 71.2222 L 50 65.2222 L 47 65.2222 L 47 59.1111 L 50 59.1111 L 50 53.1111 L 47 53.1111 L 47 47"/>
      <path id="hole_011" style="fill:none;stroke:#000000;stroke-width:0.0508" d="M 88.5 143.889 L 88.5 137.889 L 91.5 137.889 L 91.5 143.889 L 88.5 143.889 Z"/>
      <path id="hole_012" style="fill:none;stroke:#000000;stroke-width:0.0508" d="M 88.5 131.778 L 88.5 125.778 L 91.5 125.778 L 91.5 131.778 L 88.5 131.778 Z"/>
      <path id="hole_013" style="fill:none;stroke:#000000;stroke-width:0.0508" d="M 88.5 119.667 L 88.5 113.667 L 91.5 113.667 L 91.5 119.667 L 88.5 119.667 Z"/>
      <path id="hole_014" style="fill:none;stroke:#000000;stroke-width:0.0508" d="M 88.5 107.556 L 88.5 101.556 L 91.5 101.556 L 91.5 107.556 L 88.5 107.556 Z"/>
      <path id="hole_015" style="fill:none;stroke:#000000;stroke-width:0.0508" d="M 88.5 95.4444 L 88.5 89.4444 L 91.5 89.4444 L 91.5 95.4444 L 88.5 95.4444 Z"/>
      <path id="hole_016" style="fill:none;stroke:#000000;stroke-width:0.0508" d="M 88.5 83.3333 L 88.5 77.3333 L 91.5 77.3333 L 91.5 83.3333 L 88.5 83.3333 Z"/>
      <path id="hole_017" style="fill:none;stroke:#000000;stroke-width:0.0508" d="M 88.5 71.2222 L 88.5 65.2222 L 91.5 65.2222 L 91.5 71.2222 L 88.5 71.2222 Z"/>
      <path id="hole_018" style="fill:none;stroke:#000000;stroke-width:0.0508" d="M 88.5 59.1111 L 88.5 53.1111 L 91.5 53.1111 L 91.5 59.1111 L 88.5 59.1111 Z"/>
    </g>
    <g id="piece_003">
      <path id="side_017" style="fill:none;stroke:#000000;stroke-width:0.0508" d="M 47 2 L 53.7143 2 L 53.7143 2 L 59.7143 2 L 59.7143 2 L 66.4286 2 L 66.4286 2 L 72.4286 2 L 72.4286 2 L 79.1429 2 L 79.1429 2 L 85.1429 2 L 85.1429 2 L 91.8571 2 L 91.8571 2 L 97.8571 2 L 97.8571 2 L 104.571 2 L 104.571 2 L 110.571 2 L 110.571 2 L 117.286 2 L 117.286 2 L 123.286 2 L 123.286 2 L 130 2"/>
      <path id="side_018" style="fill:none;stroke:#000000;stroke-width:0.0508" d="M 130 2 L 130 8.25 L 130 8.25 L 130 14.25 L 130 14.25 L 130 20.5 L 130 20.5 L 130 26.5 L 130 26.5 L 130 32.75 L 130 32.75 L 130 38.75 L 130 38.75 L 130 42"/>
      <path id="side_019" style="fill:none;stroke:#000000;stroke-width:0.0508" d="M 130 42 L 123.286 42 L 123.286 45 L 117.286 45 L 117.286 42 L 110.571 42 L 110.571 45 L 104.571 45 L 104.571 42 L 97.8571 42 L 97.8571 45 L 91.8571 45 L 91.8571 42 L 85.1429 42 L 85.1429 45 L 79.1429 45 L 79.1429 42 L 72.4286 42 L 72.4286 45 L 66.4286 45 L 66.4286 42 L 59.7143 42 L 59.7143 45 L 53.7143 45 L 53.7143 42 L 47 42"/>
      <path id="side_020" style="fill:none;stroke:#000000;stroke-width:0.0508" d="M 47 42 L 47 38.75 L 50 38.75 L 50 32.75 L 47 32.75 L 47 26.5 L 50 26.5 L 50 20.5 L 47 20.5 L 47 14.25 L 50 14.25 L 50 8.25 L 47 8.25 L 47 2"/>
      <path id="hole_019" style="fill:none;stroke:#000000;stroke-width:0.0508" d="M 88.5 38.75 L 88.5 32.75 L 91.5 32.75 L 91.5 38.75 L 88.5 38.75 Z"/>
      <path id="hole_020" style="fill:none;stroke:#000000;stroke-width:0.0508" d="M 88.5 26.5 L 88.5 20.5 L 91.5 20.5 L 91.5 26.5 L 88.5 26.5 Z"/>
      <path id="hole_021" style="fill:none;stroke:#000000;stroke-width:0.0508" d="M 88.5 14.25 L 88.5 8.25 L 91.5 8.25 L 91.5 14.25 L 88.5 14.25 Z"/>
    </g>
  </g>
</svg>