<!-- Created with Inkscape (http://www.inkscape.org/) -->
<svg xmlns:inkscape="http://www.inkscape.org/namespaces/inkscape" xmlns:sodipodi="http://sodipodi.sourceforge.net/DTD/sodipodi-0.dtd" xmlns="http://www.w3.org/2000/svg" xmlns:svg="http://www.w3.org/2000/svg" width="176mm" height="196mm" viewBox="0 0 176 196" version="1.1" id="svg5" inkscape:version="1.1.2 (0a00cf5339, 2022-02-04)" sodipodi:docname="blank.svg">
  <sodipodi:namedview id="namedview7" pagecolor="#ffffff" bordercolor="#666666" borderopacity="1.0" inkscape:pageshadow="2" inkscape:pageopacity="0.0" inkscape:pagecheckerboard="0" inkscape:document-units="mm" showgrid="false" inkscape:zoom="0.64052329" inkscape:cx="397.33138" inkscape:cy="561.25984" inkscape:window-width="2086" inkscape:window-height="1376" inkscape:window-x="0" inkscape:window-y="0" inkscape:window-maximized="1" inkscape:current-layer="layer1"/>
  <defs id="defs2"/>
  <g inkscape:label="Layer 1" inkscape:groupmode="layer" id="layer1">
    <metadata text="createArgs=['--unit=mm', '--inside=1', '--length=80', '--width=100', '--depth=40', '--equal=0', '--tab=6', '--tabtype=0', '--tabsymmetry=0', '--dimpleheight=0', '--dimplelength=0', '--hairline=1', '--thickness=3', '--kerf=0', '--style=1', '--div-l=1', '--div-w=1', '--keydiv=0', '--spacing=2', '--boxtype=4']"/>
    <g id="xdivider_001">
      <path id="side_001" style="fill:none;stroke:#000000;stroke-width:0.0508" d="m 47 152 l 7.1429 0 l 0 0 l 6 0 l 0 0 l 7.1428 0 l 0 0 l 6 0 l 0 0 l 7.1429 0 l 0 0 l 6 0 l 0 0 l 7.1428 0 l 0 0 l 6 0 l 0 0 l 7.1426 0 l 0 0 l 6 0 l 0 0 l 7.143 0 l 0 0 l 6 0 l 0 0 l 4.143 0"/>
      <path id="side_002" style="fill:none;stroke:#000000;stroke-width:0.0508" d="m 130 152 l 0 6.25 l 0 0 l 0 6 l 0 0 l 0 6.25 l 0 0 l 0 6 l 0 0 l 0 6.25 l 0 0 l 0 6 l 0 0 l 0 3.25"/>
      <path id="side_003" style="fill:none;stroke:#000000;stroke-width:0.0508" d="m 130 192 l -4.143 0 l 0 3 l -6 0 l 0 -3 l -7.143 0 l 0 3 l -6 0 l 0 -3 l -7.1426 0 l 0 3 l -6 0 l 0 -3 l -7.1428 0 l 0 3 l -6 0 l 0 -3 l -7.1429 0 l 0 3 l -6 0 l 0 -3 l -7.1428 0 l 0 3 l -6 0 l 0 -3 l -7.1429 0"/>
      <path id="side_004" style="fill:none;stroke:#000000;stroke-width:0.0508" d="m 47 192 l 0 -3.25 l 3 0 l 0 -6 l -3 0 l 0 -6.25 l 3 0 l 0 -6 l -3 0 l 0 -6.25 l 3 0 l 0 -6 l -3 0 l 0 -6.25"/>
      <path id="slot_001" style="fill:none;stroke:#000000;stroke-width:0.0508" d="m 88.5 195 l 0 -23 l 3 0 l 0 23 l -3 0 z"/>
    </g>
    <g id="piece_001">
      <path id="side_005" style="fill:none;stroke:#000000;stroke-width:0.0508" d="m 2 50 l 6.25 0 l 0 -3 l 6 0 l 0 3 l 6.25 0 l 0 -3 l 6 0 l 0 3 l 6.25 0 l 0 -3 l 6 0 l 0 3 l 3.25 0"/>
      <path id="hole_001" style="fill:none;stroke:#000000;stroke-width:0.0508" d="m 2 98.5 l 6.25 0 l 0 3 l -6.25 0 l 0 -3 z"/>
      <path id="hole_002" style="fill:none;stroke:#000000;stroke-width:0.0508" d="m 14.25 98.5 l 6.25 0 l 0 3 l -6.25 0 l 0 -3 z"/>
      <path id="hole_003" style="fill:none;stroke:#000000;stroke-width:0.0508" d="m 26.5 98.5 l 6.25 0 l 0 3 l -6.25 0 l 0 -3 z"/>
      <path id="hole_004" style="fill:none;stroke:#000000;stroke-width:0.0508" d="m 38.75 98.5 l 3.25 0 l 0 3 l -3.25 0 l 0 -3 z"/>
      <path id="side_006" style="fill:none;stroke:#000000;stroke-width:0.0508" d="m 42 50 l 0 3.1111 l 3 0 l 0 6 l -3 0 l 0 6.1111 l 3 0 l 0 6 l -3 0 l 0 6.1111 l 3 0 l 0 6 l -3 0 l 0 6.1111 l 3 0 l 0 6 l -3 0 l 0 6.1116 l 3 0 l 0 6 l -3 0 l 0 6.111 l 3 0 l 0 6 l -3 0 l 0 6.111 l 3 0 l 0 6 l -3 0 l 0 6.111 l 3 0 l 0 6 l -3 0 l 0 6.111"/>
      <path id="side_007" style="fill:none;stroke:#000000;stroke-width:0.0508" d="m 42 150 l -3.25 0 l 0 0 l -6 0 l 0 0 l -6.25 0 l 0 0 l -6 0 l 0 0 l -6.25 0 l 0 0 l -6 0 l 0 0 l -6.25 0"/>
      <path id="side_008" style="fill:none;stroke:#000000;stroke-width:0.0508" d="m 2 150 l 0 -6.111 l 0 0 l 0 -6 l 0 0 l 0 -6.111 l 0 0 l 0 -6 l 0 0 l 0 -6.111 l 0 0 l 0 -6 l 0 0 l 0 -6.111 l 0 0 l 0 -6 l 0 0 l 0 -6.1116 l 0 0 l 0 -6 l 0 0 l 0 -6.1111 l 0 0 l 0 -6 l 0 0 l 0 -6.1111 l 0 0 l 0 -6 l 0 0 l 0 -6.1111 l 0 0 l 0 -6 l 0 0 l 0 -3.1111"/>
    </g>
    <g id="ydivider_001">
      <path id="side_009" style="fill:none;stroke:#000000;stroke-width:0.0508" d="m 132 50 l 6.25 0 l 0 -3 l 6 0 l 0 3 l 6.25 0 l 0 -3 l 6 0 l 0 3 l 6.25 0 l 0 -3 l 6 0 l 0 3 l 3.25 0"/>
      <path id="slot_002" style="fill:none;stroke:#000000;stroke-width:0.0508" d="m 132 98.5 l 20 0 l 0 3 l -20 0 l 0 -3 z"/>
      <path id="side_010" style="fill:none;stroke:#000000;stroke-width:0.0508" d="m 172 50 l 0 3.4444 l 3 0 l 0 6 l -3 0 l 0 6.4445 l 3 0 l 0 6 l -3 0 l 0 6.4444 l 3 0 l 0 6 l -3 0 l 0 6.4445 l 3 0 l 0 6 l -3 0 l 0 6.4442 l 3 0 l 0 6 l -3 0 l 0 6.445 l 3 0 l 0 6 l -3 0 l 0 6.444 l 3 0 l 0 6 l -3 0 l 0 6.445 l 3 0 l 0 6 l -3 0 l 0 3.444"/>
      <path id="side_011" style="fill:none;stroke:#000000;stroke-width:0.0508" d="m 172 150 l -3.25 0 l 0 0 l -6 0 l 0 0 l -6.25 0 l 0 0 l -6 0 l 0 0 l -6.25 0 l 0 0 l -6 0 l 0 0 l -6.25 0"/>
      <path id="side_012" style="fill:none;stroke:#000000;stroke-width:0.0508" d="m 132 150 l 0 -3.444 l 0 0 l 0 -6 l 0 0 l 0 -6.445 l 0 0 l 0 -6 l 0 0 l 0 -6.444 l 0 0 l 0 -6 l 0 0 l 0 -6.445 l 0 0 l 0 -6 l 0 0 l 0 -6.4442 l 0 0 l 0 -6 l 0 0 l 0 -6.4445 l 0 0 l 0 -6 l 0 0 l 0 -6.4444 l 0 0 l 0 -6 l 0 0 l 0 -6.4445 l 0 0 l 0 -6 l 0 0 l 0 -3.4444"/>
    </g>
    <g id="piece_002">
      <path id="side_013" style="fill:none;stroke:#000000;stroke-width:0.0508" d="m 47 47 l 6.7143 0 l 0 3 l 6 0 l 0 -3 l 6.7143 0 l 0 3 l 6 0 l 0 -3 l 6.7143 0 l 0 3 l 6 0 l 0 -3 l 6.7142 0 l 0 3 l 6 0 l 0 -3 l 6.7139 0 l 0 3 l 6 0 l 0 -3 l 6.715 0 l 0 3 l 6 0 l 0 -3 l 6.714 0"/>
      <path id="hole_005" style="fill:none;stroke:#000000;stroke-width:0.0508" d="m 53.7143 98.5 l 6 0 l 0 3 l -6 0 l 0 -3 z"/>
      <path id="hole_006" style="fill:none;stroke:#000000;stroke-width:0.0508" d="m 66.4286 98.5 l 6 0 l 0 3 l -6 0 l 0 -3 z"/>
      <path id="hole_007" style="fill:none;stroke:#000000;stroke-width:0.0508" d="m 79.1429 98.5 l 6 0 l 0 3 l -6 0 l 0 -3 z"/>
      <path id="hole_008" style="fill:none;stroke:#000000;stroke-width:0.0508" d="m 91.8571 98.5 l 6 0 l 0 3 l -6 0 l 0 -3 z"/>
      <path id="hole_009" style="fill:none;stroke:#000000;stroke-width:0.0508" d="m 104.571 98.5 l 6 0 l 0 3 l -6 0 l 0 -3 z"/>
      <path id="hole_010" style="fill:none;stroke:#000000;stroke-width:0.0508" d="m 117.286 98.5 l 6 0 l 0 3 l -6 0 l 0 -3 z"/>
      <path id="side_014" style="fill:none;stroke:#000000;stroke-width:0.0508" d="m 130 47 l 0 6.1111 l 0 0 l 0 6 l 0 0 l 0 6.1111 l 0 0 l 0 6 l 0 0 l 0 6.1111 l 0 0 l 0 6 l 0 0 l 0 6.1111 l 0 0 l 0 6 l 0 0 l 0 6.1116 l 0 0 l 0 6 l 0 0 l 0 6.111 l 0 0 l 0 6 l 0 0 l 0 6.111 l 0 0 l 0 6 l 0 0 l 0 6.111 l 0 0 l 0 6 l 0 0 l 0 6.111"/>
      <path id="side_015" style="fill:none;stroke:#000000;stroke-width:0.0508" d="m 130 150 l -6.714 0 l 0 0 l -6 0 l 0 0 l -6.715 0 l 0 0 l -6 0 l 0 0 l -6.7139 0 l 0 0 l -6 0 l 0 0 l -6.7142 0 l 0 0 l -6 0 l 0 0 l -6.7143 0 l 0 0 l -6 0 l 0 0 l -6.7143 0 l 0 0 l -6 0 l 0 0 l -6.7143 0"/>
      <path id="side_016" style="fill:none;stroke:#000000;stroke-width:0.0508" d="m 47 150 l 0 -6.111 l 3 0 l 0 -6 l -3 0 l 0 -6.111 l 3 0 l 0 -6 l -3 0 l 0 -6.111 l 3 0 l 0 -6 l -3 0 l 0 -6.111 l 3 0 l 0 -6 l -3 0 l 0 -6.1116 l 3 0 l 0 -6 l -3 0 l 0 -6.1111 l 3 0 l 0 -6 l -3 0 l 0 -6.1111 l 3 0 l 0 -6 l -3 0 l 0 -6.1111 l 3 0 l 0 -6 l -3 0 l 0 -6.1111"/>
      <path id="hole_011" style="fill:none;stroke:#000000;stroke-width:0.0508" d="m 88.5 143.889 l 0 -6 l 3 0 l 0 6 l -3 0 z"/>
      <path id="hole_012" style="fill:none;stroke:#000000;stroke-width:0.0508" d="m 88.5 131.778 l 0 -6 l 3 0 l 0 6 l -3 0 z"/>
      <path id="hole_013" style="fill:none;stroke:#000000;stroke-width:0.0508" d="m 88.5 119.667 l 0 -6 l 3 0 l 0 6 l -3 0 z"/>
      <path id="hole_014" style="fill:none;stroke:#000000;stroke-width:0.0508" d="m 88.5 107.556 l 0 -6 l 3 0 l 0 6 l -3 0 z"/>
      <path id="hole_015" style="fill:none;stroke:#000000;stroke-width:0.0508" d="m 88.5 95.4444 l 0 -6 l 3 0 l 0 6 l -3 0 z"/>
      <path id="hole_016" style="fill:none;stroke:#000000;stroke-width:0.0508" d="m 88.5 83.3333 l 0 -6 l 3 0 l 0 6 l -3 0 z"/>
      <path id="hole_017" style="fill:none;stroke:#000000;stroke-width:0.0508" d="m 88.5 71.2222 l 0 -6 l 3 0 l 0 6 l -3 0 z"/>
      <path id="hole_018" style="fill:none;stroke:#000000;stroke-width:0.0508" d="m 88.5 59.1111 l 0 -6 l 3 0 l 0 6 l -3 0 z"/>
    </g>
    <g id="piece_003">
      <path id="side_017" style="fill:none;stroke:#000000;stroke-width:0.0508" d="m 47 2 l 6.7143 0 l 0 0 l 6 0 l 0 0 l 6.7143 0 l 0 0 l 6 0 l 0 0 l 6.7143 0 l 0 0 l 6 0 l 0 0 l 6.7142 0 l 0 0 l 6 0 l 0 0 l 6.7139 0 l 0 0 l 6 0 l 0 0 l 6.715 0 l 0 0 l 6 0 l 0 0 l 6.714 0"/>
      <path id="side_018" style="fill:none;stroke:#000000;stroke-width:0.0508" d="m 130 2 l 0 6.25 l 0 0 l 0 6 l 0 0 l 0 6.25 l 0 0 l 0 6 l 0 0 l 0 6.25 l 0 0 l 0 6 l 0 0 l 0 3.25"/>
      <path id="side_019" style="fill:none;stroke:#000000;stroke-width:0.0508" d="m 130 42 l -6.714 0 l 0 3 l -6 0 l 0 -3 l -6.715 0 l 0 3 l -6 0 l 0 -3 l -6.7139 0 l 0 3 l -6 0 l 0 -3 l -6.7142 0 l 0 3 l -6 0 l 0 -3 l -6.7143 0 l 0 3 l -6 0 l 0 -3 l -6.7143 0 l 0 3 l -6 0 l 0 -3 l -6.7143 0"/>
      <path id="side_020" style="fill:none;stroke:#000000;stroke-width:0.0508" d="m 47 42 l 0 -3.25 l 3 0 l 0 -6 l -3 0 l 0 -6.25 l 3 0 l 0 -6 l -3 0 l 0 -6.25 l 3 0 l 0 -6 l -3 0 l 0 -6.25"/>
      <path id="hole_019" style="fill:none;stroke:#000000;stroke-width:0.0508" d="m 88.5 38.75 l 0 -6 l 3 0 l 0 6 l -3 0 z"/>
      <path id="hole_020" style="fill:none;stroke:#000000;stroke-width:0.0508" d="m 88.5 26.5 l 0 -6 l 3 0 l 0 6 l -3 0 z"/>
      <path id="hole_021" style="fill:none;stroke:#000000;stroke-width:0.0508" d="m 88.5 14.25 l 0 -6 l 3 0 l 0 6 l -3 0 z"/>
    </g>
  </g>
</svg>