<!-- Created with Inkscape (http://www.inkscape.org/) -->
<svg xmlns:inkscape="http://www.inkscape.org/namespaces/inkscape" xmlns:sodipodi="http://sodipodi.sourceforge.net/DTD/sodipodi-0.dtd" xmlns="http://www.w3.org/2000/svg" xmlns:svg="http://www.w3.org/2000/svg" width="224mm" height="244mm" viewBox="0 0 224 244" version="1.1" id="svg5" inkscape:version="1.1.2 (0a00cf5339, 2022-02-04)" sodipodi:docname="blank.svg">
  <sodipodi:namedview id="namedview7" pagecolor="#ffffff" bordercolor="#666666" borderopacity="1.0" inkscape:pageshadow="2" inkscape:pageopacity="0.0" inkscape:pagecheckerboard="0" inkscape:document-units="mm" showgrid="false" inkscape:zoom="0.64052329" inkscape:cx="397.33138" inkscape:cy="561.25984" inkscape:window-width="2086" inkscape:window-height="1376" inkscape:window-x="0" inkscape:window-y="0" inkscape:window-maximized="1" inkscape:current-layer="layer1"/>
  <defs id="defs2"/>
  <g inkscape:label="Layer 1" inkscape:groupmode="layer" id="layer1">
    <metadata text="createArgs=['--unit=mm', '--inside=1', '--length=80', '--width=100', '--depth=40', '--equal=0', '--tab=6', '--tabtype=0', '--tabsymmetry=0', '--dimpleheight=0', '--dimplelength=0', '--hairline=1', '--thickness=3', '--kerf=0', '--style=1', '--div-l=1', '--div-w=1', '--keydiv=0', '--spacing=2', '--boxtype=2']"/>
    <g id="piece_001">
      <path id="side_001" style="fill:none;stroke:#000000;stroke-width:0.0508" d="M 47 158 L 54.1429 158 L 54.1429 155 L 60.1429 155 L 60.1429 158 L 67.2857 158 L 67.2857 155 L 73.2857 155 L 73.2857 158 L 80.4286 158 L 80.4286 155 L 86.4286 155 L 86.4286 158 L 93.5714 158 L 93.5714 155 L 99.5714 155 L 99.5714 158 L 106.714 158 L 106.714 155 L 112.714 155 L 112.714 158 L 119.857 158 L 119.857 155 L 125.857 155 L 125.857 158 L 133 158"/>
      <path id="side_002" style="fill:none;stroke:#000000;stroke-width:0.0508" d="M 133 158 L 133 161.25 L 130 161.25 L 130 167.25 L 133 167.25 L 133 173.5 L 130 173.5 L 130 179.5 L 133 179.5 L 133 185.75 L 130 185.75 L 130 191.75 L 133 191.75 L 133 198"/>
      <path id="hole_001" style="fill:none;stroke:#000000;stroke-width:0.0508" d="M 91.5 161.25 L 91.5 167.25 L 88.5 167.25 L 88.5 161.25 L 91.5 161.25 Z"/>
      <path id="hole_002" style="fill:none;stroke:#000000;stroke-width:0.0508" d="M 91.5 173.5 L 91.5 179.5 L 88.5 179.5 L 88.5 173.5 L 91.5 173.5 Z"/>
      <path id="hole_003" style="fill:none;stroke:#000000;stroke-width:0.0508" d="M 91.5 185.75 L 91.5 191.75 L 88.5 191.75 L 88.5 185.75 L 91.5 185.75 Z"/>
      <path id="side_003" style="fill:none;stroke:#000000;stroke-width:0.0508" d="M 133 198 L 125.857 198 L 125.857 198 L 119.857 198 L 119.857 198 L 112.714 198 L 112.714 198 L 106.714 198 L 106.714 198 L 99.5714 198 L 99.5714 198 L 93.5714 198 L 93.5714 198 L 86.4286 198 L 86.4286 198 L 80.4286 198 L 80.4286 198 L 73.2857 198 L 73.2857 198 L 67.2857 198 L 67.2857 198 L 60.1429 198 L 60.1429 198 L 54.1429 198 L 54.1429 198 L 47 198"/>
      <path id="side_004" style="fill:none;stroke:#000000;stroke-width:0.0508" d="M 47 198 L 47 191.75 L 50 191.75 L 50 185.75 L 47 185.75 L 47 179.5 L 50 179.5 L 50 173.5 L 47 173.5 L 47 167.25 L 50 167.25 L 50 161.25 L 47 161.25 L 47 158"/>
    </g>
    <g id="xdivider_001">
      <path id="side_005" style="fill:none;stroke:#000000;stroke-width:0.0508" d="M 47 203 L 54.1429 203 L 54.1429 200 L 60.1429 200 L 60.1429 203 L 67.2857 203 L 67.2857 200 L 73.2857 200 L 73.2857 203 L 80.4286 203 L 80.4286 200 L 86.4286 200 L 86.4286 203 L 93.5714 203 L 93.5714 200 L 99.5714 200 L 99.5714 203 L 106.714 203 L 106.714 200 L 112.714 200 L 112.714 203 L 119.857 203 L 119.857 200 L 125.857 200 L 125.857 203 L 133 203"/>
      <path id="side_006" style="fill:none;stroke:#000000;stroke-width:0.0508" d="M 133 203 L 133 206.25 L 130 206.25 L 130 212.25 L 133 212.25 L 133 218.5 L 130 218.5 L 130 224.5 L 133 224.5 L 133 230.75 L 130 230.75 L 130 236.75 L 133 236.75 L 133 243"/>
      <path id="slot_001" style="fill:none;stroke:#000000;stroke-width:0.0508" d="M 91.5 200 L 91.5 223 L 88.5 223 L 88.5 200 L 91.5 200 Z"/>
      <path id="side_007" style="fill:none;stroke:#000000;stroke-width:0.0508" d="M 133 243 L 125.857 243 L 125.857 243 L 119.857 243 L 119.857 243 L 112.714 243 L 112.714 243 L 106.714 243 L 106.714 243 L 99.5714 243 L 99.5714 243 L 93.5714 243 L 93.5714 243 L 86.4286 243 L 86.4286 243 L 80.4286 243 L 80.4286 243 L 73.2857 243 L 73.2857 243 L 67.2857 243 L 67.2857 243 L 60.1429 243 L 60.1429 243 L 54.1429 243 L 54.1429 243 L 47 243"/>
      <path id="side_008" style="fill:none;stroke:#000000;stroke-width:0.0508" d="M 47 243 L 47 236.75 L 50 236.75 L 50 230.75 L 47 230.75 L 47 224.5 L 50 224.5 L 50 218.5 L 47 218.5 L 47 212.25 L 50 212.25 L 50 206.25 L 47 206.25 L 47 203"/>
    </g>
    <g id="piece_002">
      <path id="side_009" style="fill:none;stroke:#000000;stroke-width:0.0508" d="M 2 50 L 8.25 50 L 8.25 47 L 14.25 47 L 14.25 50 L 20.5 50 L 20.5 47 L 26.5 47 L 26.5 50 L 32.75 50 L 32.75 47 L 38.75 47 L 38.75 50 L 42 50"/>
      <path id="hole_004" style="fill:none;stroke:#000000;stroke-width:0.0508" d="M 2 98.5 L 8.25 98.5 L 8.25 101.5 L 2 101.5 L 2 98.5 Z"/>
      <path id="hole_005" style="fill:none;stroke:#000000;stroke-width:0.0508" d="M 14.25 98.5 L 20.5 98.5 L 20.5 101.5 L 14.25 101.5 L 14.25 98.5 Z"/>
      <path id="hole_006" style="fill:none;stroke:#000000;stroke-width:0.0508" d="M 26.5 98.5 L 32.75 98.5 L 32.75 101.5 L 26.5 101.5 L 26.5 98.5 Z"/>
      <path id="hole_007" style="fill:none;stroke:#000000;stroke-width:0.0508" d="M 38.75 98.5 L 42 98.5 L 42 101.5 L 38.75 101.5 L 38.75 98.5 Z"/>
      <path id="side_010" style="fill:none;stroke:#000000;stroke-width:0.0508" d="M 42 50 L 42 53.4444 L 45 53.4444 L 45 59.4444 L 42 59.4444 L 42 65.8889 L 45 65.8889 L 45 71.8889 L 42 71.8889 L 42 78.3333 L 45 78.3333 L 45 84.3333 L 42 84.3333 L 42 90.7778 L 45 90.7778 L 45 96.7778 L 42 96.7778 L 42 103.222 L 45 103.222 L 45 109.222 L 42 109.222 L 42 115.667 L 45 115.667 L 45 121.667 L 42 121.667 L 42 128.111 L 45 128.111 L 45 134.111 L 42 134.111 L 42 140.556 L 45 140.556 L 45 146.556 L 42 146.556 L 42 150"/>
      <path id="side_011" style="fill:none;stroke:#000000;stroke-width:0.0508" d="M 42 150 L 38.75 150 L 38.75 153 L 32.75 153 L 32.75 150 L 26.5 150 L 26.5 153 L 20.5 153 L 20.5 150 L 14.25 150 L 14.25 153 L 8.25 153 L 8.25 150 L 2 150"/>
      <path id="side_012" style="fill:none;stroke:#000000;stroke-width:0.0508" d="M 2 150 L 2 146.556 L 2 146.556 L 2 140.556 L 2 140.556 L 2 134.111 L 2 134.111 L 2 128.111 L 2 128.111 L 2 121.667 L 2 121.667 L 2 115.667 L 2 115.667 L 2 109.222 L 2 109.222 L 2 103.222 L 2 103.222 L 2 96.7778 L 2 96.7778 L 2 90.7778 L 2 90.7778 L 2 84.3333 L 2 84.3333 L 2 78.3333 L 2 78.3333 L 2 71.8889 L 2 71.8889 L 2 65.8889 L 2 65.8889 L 2 59.4444 L 2 59.4444 L 2 53.4444 L 2 53.4444 L 2 50"/>
    </g>
    <g id="ydivider_001">
      <path id="side_013" style="fill:none;stroke:#000000;stroke-width:0.0508" d="M 180 50 L 186.25 50 L 186.25 47 L 192.25 47 L 192.25 50 L 198.5 50 L 198.5 47 L 204.5 47 L 204.5 50 L 210.75 50 L 210.75 47 L 216.75 47 L 216.75 50 L 220 50"/>
      <path id="slot_002" style="fill:none;stroke:#000000;stroke-width:0.0508" d="M 180 98.5 L 200 98.5 L 200 101.5 L 180 101.5 L 180 98.5 Z"/>
      <path id="side_014" style="fill:none;stroke:#000000;stroke-width:0.0508" d="M 220 50 L 220 53.4444 L 223 53.4444 L 223 59.4444 L 220 59.4444 L 220 65.8889 L 223 65.8889 L 223 71.8889 L 220 71.8889 L 220 78.3333 L 223 78.3333 L 223 84.3333 L 220 84.3333 L 220 90.7778 L 223 90.7778 L 223 96.7778 L 220 96.7778 L 220 103.222 L 223 103.222 L 223 109.222 L 220 109.222 L 220 115.667 L 223 115.667 L 223 121.667 L 220 121.667 L 220 128.111 L 223 128.111 L 223 134.111 L 220 134.111 L 220 140.556 L 223 140.556 L 223 146.556 L 220 146.556 L 220 150"/>
      <path id="side_015" style="fill:none;stroke:#000000;stroke-width:0.0508" d="M 220 150 L 216.75 150 L 216.75 153 L 210.75 153 L 210.75 150 L 204.5 150 L 204.5 153 L 198.5 153 L 198.5 150 L 192.25 150 L 192.25 153 L 186.25 153 L 186.25 150 L 180 150"/>
      <path id="side_016" style="fill:none;stroke:#000000;stroke-width:0.0508" d="M 180 150 L 180 146.556 L 180 146.556 L 180 140.556 L 180 140.556 L 180 134.111 L 180 134.111 L 180 128.111 L 180 128.111 L 180 121.667 L 180 121.667 L 180 115.667 L 180 115.667 L 180 109.222 L 180 109.222 L 180 103.222 L 180 103.222 L 180 96.7778 L 180 96.7778 L 180 90.7778 L 180 90.7778 L 180 84.3333 L 180 84.3333 L 180 78.3333 L 180 78.3333 L 180 71.8889 L 180 71.8889 L 180 65.8889 L 180 65.8889 L 180 59.4444 L 180 59.4444 L 180 53.4444 L 180 53.4444 L 180 50"/>
    </g>
    <g id="piece_003">
      <path id="side_017" style="fill:none;stroke:#000000;stroke-width:0.0508" d="M 47 47 L 54.1429 47 L 54.1429 50 L 60.1429 50 L 60.1429 47 L 67.2857 47 L 67.2857 50 L 73.2857 50 L 73.2857 47 L 80.4286 47 L 80.4286 50 L 86.4286 50 L 86.4286 47 L 93.5714 47 L 93.5714 50 L 99.5714 50 L 99.5714 47 L 106.714 47 L 106.714 50 L 112.714 50 L 112.714 47 L 119.857 47 L 119.857 50 L 125.857 50 L 125.857 47 L 133 47"/>
      <path id="hole_008" style="fill:none;stroke:#000000;stroke-width:0.0508" d="M 54.1429 98.5 L 60.1429 98.5 L 60.1429 101.5 L 54.1429 101.5 L 54.1429 98.5 Z"/>
      <path id="hole_009" style="fill:none;stroke:#000000;stroke-width:0.0508" d="M 67.2857 98.5 L 73.2857 98.5 L 73.2857 101.5 L 67.2857 101.5 L 67.2857 98.5 Z"/>
      <path id="hole_010" style="fill:none;stroke:#000000;stroke-width:0.0508" d="M 80.4286 98.5 L 86.4286 98.5 L 86.4286 101.5 L 80.4286 101.5 L 80.4286 98.5 Z"/>
      <path id="hole_011" style="fill:none;stroke:#000000;stroke-width:0.0508" d="M 93.5714 98.5 L 99.5714 98.5 L 99.5714 101.5 L 93.5714 101.5 L 93.5714 98.5 Z"/>
      <path id="hole_012" style="fill:none;stroke:#000000;stroke-width:0.0508" d="M 106.714 98.5 L 112.714 98.5 L 112.714 101.5 L 106.714 101.5 L 106.714 98.5 Z"/>
      <path id="hole_013" style="fill:none;stroke:#000000;stroke-width:0.0508" d="M 119.857 98.5 L 125.857 98.5 L 125.857 101.5 L 119.857 101.5 L 119.857 98.5 Z"/>
      <path id="side_018" style="fill:none;stroke:#000000;stroke-width:0.0508" d="M 133 47 L 133 53.4444 L 130 53.4444 L 130 59.4444 L 133 59.4444 L 133 65.8889 L 130 65.8889 L 130 71.8889 L 133 71.8889 L 133 78.3333 L 130 78.3333 L 130 84.3333 L 133 84.3333 L 133 90.7778 L 130 90.7778 L 130 96.7778 L 133 96.7778 L 133 103.222 L 130 103.222 L 130 109.222 L 133 109.222 L 133 115.667 L 130 115.667 L 130 121.667 L 133 121.667 L 133 128.111 L 130 128.111 L 130 134.111 L 133 134.111 L 133 140.556 L 130 140.556 L 130 146.556 L 133 146.556 L 133 153"/>
      <path id="hole_014" style="fill:none;stroke:#000000;stroke-width:0.0508" d="M 91.5 53.4444 L 91.5 59.4444 L 88.5 59.4444 L 88.5 53.4444 L 91.5 53.4444 Z"/>
      <path id="hole_015" style="fill:none;stroke:#000000;stroke-width:0.0508" d="M 91.5 65.8889 L 91.5 71.8889 L 88.5 71.8889 L 88.5 65.8889 L 91.5 65.8889 Z"/>
      <path id="hole_016" style="fill:none;stroke:#000000;stroke-width:0.0508" d="M 91.5 78.3333 L 91.5 84.3333 L 88.5 84.3333 L 88.5 78.3333 L 91.5 78.3333 Z"/>
      <path id="hole_017" style="fill:none;stroke:#000000;stroke-width:0.0508" d="M 91.5 90.7778 L 91.5 96.7778 L 88.5 96.7778 L 88.5 90.7778 L 91.5 90.7778 Z"/>
      <path id="hole_018" style="fill:none;stroke:#000000;stroke-width:0.0508" d="M 91.5 103.222 L 91.5 109.222 L 88.5 109.222 L 88.5 103.222 L 91.5 103.222 Z"/>
      <path id="hole_019" style="fill:none;stroke:#000000;stroke-width:0.0508" d="M 91.5 115.667 L 91.5 121.667 L 88.5 121.667 L 88.5 115.667 L 91.5 115.667 Z"/>
      <path id="hole_020" style="fill:none;stroke:#000000;stroke-width:0.0508" d="M 91.5 128.111 L 91.5 134.111 L 88.5 134.111 L 88.5 128.111 L 91.5 128.111 Z"/>
      <path id="hole_021" style="fill:none;stroke:#000000;stroke-width:0.0508" d="M 91.5 140.556 L 91.5 146.556 L 88.5 146.556 L 88.5 140.556 L 91.5 140.556 Z"/>
      <path id="side_019" style="fill:none;stroke:#000000;stroke-width:0.0508" d="M 133 153 L 125.857 153 L 125.857 150 L 119.857 150 L 119.857 153 L 112.714 153 L 112.714 150 L 106.714 150 L 106.714 153 L 99.5714 153 L 99.5714 150 L 93.5714 150 L 93.5714 153 L 86.4286 153 L 86.4286 150 L 80.4286 150 L 80.4286 153 L 73.2857 153 L 73.2857 150 L 67.2857 150 L 67.2857 153 L 60.1429 153 L 60.1429 150 L 54.1429 150 L 54.1429 153 L 47 153"/>
      <path id="side_020" style="fill:none;stroke:#000000;stroke-width:0.0508" d="M 47 153 L 47 146.556 L 50 146.556 L 50 140.556 L 47 140.556 L 47 134.111 L 50 134.111 L 50 128.111 L 47 128.111 L 47 121.667 L 50 121.667 L 50 115.667 L 47 115.667 L 47 109.222 L 50 109.222 L 50 103.222 L 47 103.222 L 47 96.7778 L 50 96.7778 L 50 90.7778 L 47 90.7778 L 47 84.3333 L 50 84.3333 L 50 78.3333 L 47 78.3333 L 47 71.8889 L 50 71.8889 L 50 65.8889 L 47 65.8889 L 47 59.4444 L 50 59.4444 L 50 53.4444 L 47 53.4444 L 47 47"/>
    </g>
    <g id="piece_004">
      <path id="side_021" style="fill:none;stroke:#000000;stroke-width:0.0508" d="M 138 50 L 141.25 50 L 141.25 47 L 147.25 47 L 147.25 50 L 153.5 50 L 153.5 47 L 159.5 47 L 159.5 50 L 165.75 50 L 165.75 47 L 171.75 47 L 171.75 50 L 178 50"/>
      <path id="hole_022" style="fill:none;stroke:#000000;stroke-width:0.0508" d="M 138 98.5 L 141.25 98.5 L 141.25 101.5 L 138 101.5 L 138 98.5 Z"/>
      <path id="hole_023" style="fill:none;stroke:#000000;stroke-width:0.0508" d="M 147.25 98.5 L 153.5 98.5 L 153.5 101.5 L 147.25 101.5 L 147.25 98.5 Z"/>
      <path id="hole_024" style="fill:none;stroke:#000000;stroke-width:0.0508" d="M 159.5 98.5 L 165.75 98.5 L 165.75 101.5 L 159.5 101.5 L 159.5 98.5 Z"/>
      <path id="hole_025" style="fill:none;stroke:#000000;stroke-width:0.0508" d="M 171.75 98.5 L 178 98.5 L 178 101.5 L 171.75 101.5 L 171.75 98.5 Z"/>
      <path id="side_022" style="fill:none;stroke:#000000;stroke-width:0.0508" d="M 178 50 L 178 53.4444 L 178 53.4444 L 178 59.4444 L 178 59.4444 L 178 65.8889 L 178 65.8889 L 178 71.8889 L 178 71.8889 L 178 78.3333 L 178 78.3333 L 178 84.3333 L 178 84.3333 L 178 90.7778 L 178 90.7778 L 178 96.7778 L 178 96.7778 L 178 103.222 L 178 103.222 L 178 109.222 L 178 109.222 L 178 115.667 L 178 115.667 L 178 121.667 L 178 121.667 L 178 128.111 L 178 128.111 L 178 134.111 L 178 134.111 L 178 140.556 L 178 140.556 L 178 146.556 L 178 146.556 L 178 150"/>
      <path id="side_023" style="fill:none;stroke:#000000;stroke-width:0.0508" d="M 178 150 L 171.75 150 L 171.75 153 L 165.75 153 L 165.75 150 L 159.5 150 L 159.5 153 L 153.5 153 L 153.5 150 L 147.25 150 L 147.25 153 L 141.25 153 L 141.25 150 L 138 150"/>
      <path id="side_024" style="fill:none;stroke:#000000;stroke-width:0.0508" d="M 138 150 L 138 146.556 L 135 146.556 L 135 140.556 L 138 140.556 L 138 134.111 L 135 134.111 L 135 128.111 L 138 128.111 L 138 121.667 L 135 121.667 L 135 115.667 L 138 115.667 L 138 109.222 L 135 109.222 L 135 103.222 L 138 103.222 L 138 96.7778 L 135 96.7778 L 135 90.7778 L 138 90.7778 L 138 84.3333 L 135 84.3333 L 135 78.3333 L 138 78.3333 L 138 71.8889 L 135 71.8889 L 135 65.8889 L 138 65.8889 L 138 59.4444 L 135 59.4444 L 135 53.4444 L 138 53.4444 L 138 50"/>
    </g>
    <g id="piece_005">
      <path id="side_025" style="fill:none;stroke:#000000;stroke-width:0.0508" d="M 47 2 L 54.1429 2 L 54.1429 2 L 60.1429 2 L 60.1429 2 L 67.2857 2 L 67.2857 2 L 73.2857 2 L 73.2857 2 L 80.4286 2 L 80.4286 2 L 86.4286 2 L 86.4286 2 L 93.5714 2 L 93.5714 2 L 99.5714 2 L 99.5714 2 L 106.714 2 L 106.714 2 L 112.714 2 L 112.714 2 L 119.857 2 L 119.857 2 L 125.857 2 L 125.857 2 L 133 2"/>
      <path id="side_026" style="fill:none;stroke:#000000;stroke-width:0.0508" d="M 133 2 L 133 8.25 L 130 8.25 L 130 14.25 L 133 14.25 L 133 20.5 L 130 20.5 L 130 26.5 L 133 26.5 L 133 32.75 L 130 32.75 L 130 38.75 L 133 38.75 L 133 42"/>
      <path id="hole_026" style="fill:none;stroke:#000000;stroke-width:0.0508" d="M 91.5 8.25 L 91.5 14.25 L 88.5 14.25 L 88.5 8.25 L 91.5 8.25 Z"/>
      <path id="hole_027" style="fill:none;stroke:#000000;stroke-width:0.0508" d="M 91.5 20.5 L 91.5 26.5 L 88.5 26.5 L 88.5 20.5 L 91.5 20.5 Z"/>
      <path id="hole_028" style="fill:none;stroke:#000000;stroke-width:0.0508" d="M 91.5 32.75 L 91.5 38.75 L 88.5 38.75 L 88.5 32.75 L 91.5 32.75 Z"/>
      <path id="side_027" style="fill:none;stroke:#000000;stroke-width:0.0508" d="M 133 42 L 125.857 42 L 125.857 45 L 119.857 45 L 119.857 42 L 112.714 42 L 112.714 45 L 106.714 45 L 106.714 42 L 99.5714 42 L 99.5714 45 L 93.5714 45 L 93.5714 42 L 86.4286 42 L 86.4286 45 L 80.4286 45 L 80.4286 42 L 73.2857 42 L 73.2857 45 L 67.2857 45 L 67.2857 42 L 60.1429 42 L 60.1429 45 L 54.1429 45 L 54.1429 42 L 47 42"/>
      <path id="side_028" style="fill:none;stroke:#000000;stroke-width:0.0508" d="M 47 42 L 47 38.75 L 50 38.75 L 50 32.75 L 47 32.75 L 47 26.5 L 50 26.5 L 50 20.5 L 47 20.5 L 47 14.25 L 50 14.25 L 50 8.25 L 47 8.25 L 47 2"/>
    </g>
  </g>
</svg>