<!-- Created with Inkscape (http://www.inkscape.org/) -->
<svg xmlns:inkscape="http://www.inkscape.org/namespaces/inkscape" xmlns:sodipodi="http://sodipodi.sourceforge.net/DTD/sodipodi-0.dtd" xmlns="http://www.w3.org/2000/svg" xmlns:svg="http://www.w3.org/2000/svg" width="176mm" height="196mm" viewBox="0 0 176 196" version="1.1" sodipodi:docname="blank.svg">
  <sodipodi:namedview/>
  <defs id="defaults"/>
  <g inkscape:groupmode="layer" inkscape:label="Tabbed Box" id="tabbedbox">
    <metadata text="$ boxmaker.py --unit=mm --inside=1 --length=80 --width=100 --depth=40 --equal=0 --tab=6 --tabtype=0 --tabsymmetry=0 --dimpleheight=0 --dimplelength=0 --hairline=1 --thickness=3 --kerf=0 --style=1 --div-l=1 --div-w=1 --keydiv=0 --spacing=2 --boxtype=4"/>
    <g id="xdivider">
      <path id="side_001" style="fill:none;stroke:#000000;stroke-width:0.0508" d="M 47 152 L 130 152"/>
      <path id="side_002" style="fill:none;stroke:#000000;stroke-width:0.0508" d="M 130 152 L 130 192"/>
      <path id="side_003" style="fill:none;stroke:#000000;stroke-width:0.0508" d="M 130 192 L 123.286 192 L 123.286 195 L 117.286 195 L 117.286 192 L 110.571 192 L 110.571 195 L 104.571 195 L 104.571 192 L 97.8571 192 L 97.8571 195 L 91.8571 195 L 91.8571 192 L 85.1429 192 L 85.1429 195 L 79.1429 195 L 79.1429 192 L 72.4286 192 L 72.4286 195 L 66.4286 195 L 66.4286 192 L 59.7143 192 L 59.7143 195 L 53.7143 195 L 53.7143 192 L 47 192"/>
      <path id="side_004" style="fill:none;stroke:#000000;stroke-width:0.0508" d="M 47 192 L 47 188.75 L 50 188.75 L 50 182.75 L 47 182.75 L 47 176.5 L 50 176.5 L 50 170.5 L 47 170.5 L 47 164.25 L 50 164.25 L 50 158.25 L 47 158.25 L 47 152"/>
      <path id="slot_001" style="fill:none;stroke:#000000;stroke-width:0.0508" d="M 88.5 195 L 88.5 172 L 91.5 172 L 91.5 195 L 88.5 195 Z"/>
    </g>
    <g id="left">
      <path id="side_005" style="fill:none;stroke:#000000;stroke-width:0.0508" d="M 2 50 L 8.25 50 L 8.25 47 L 14.25 47 L 14.25 50 L 20.5 50 L 20.5 47 L 26.5 47 L 26.5 50 L 32.75 50 L 32.75 47 L 38.75 47 L 38.75 50 L 42 50"/>
      <path id="hole_001" style="fill:none;stroke:#000000;stroke-width:0.0508" d="M 2 98.5 L 8.25 98.5 L 8.25 101.5 L 2 101.5 L 2 98.5 Z"/>
      <path id="hole_002" style="fill:none;stroke:#000000;stroke-width:0.0508" d="M 14.25 98.5 L 20.5 98.5 L 20.5 101.5 L 14.25 101.5 L 14.25 98.5 Z"/>
      <path id="hole_003" style="fill:none;stroke:#000000;stroke-width:0.0508" d="M 26.5 98.5 L 32.75 98.5 L 32.75 101.5 L 26.5 101.5 L 26.5 98.5 Z"/>
      <path id="hole_004" style="fill:none;stroke:#000000;stroke-width:0.0508" d="M 38.75 98.5 L 42 98.5 L 42 101.5 L 38.75 101.5 L 38.75 98.5 Z"/>
      <path id="side_006" style="fill:none;stroke:#000000;stroke-width:0.0508" d="M 42 50 L 42 53.1111 L 45 53.1111 L 45 59.1111 L 42 59.1111 L 42 65.2222 L 45 65.2222 L 45 71.2222 L 42 71.2222 L 42 77.3333 L 45 77.3333 L 45 83.3333 L 42 83.3333 L 42 89.4444 L 45 89.4444 L 45 95.4444 L 42 95.4444 L 42 101.556 L 45 101.556 L 45 107.556 L 42 107.556 L 42 113.667 L 45 113.667 L 45 119.667 L 42 119.667 L 42 125.778 L 45 125.778 L 45 131.778 L 42 131.778 L 42 137.889 L 45 137.889 L 45 143.889 L 42 143.889 L 42 150"/>
      <path id="side_007" style="fill:none;stroke:#000000;stroke-width:0.0508" d="M 42 150 L 2 150"/>
      <path id="side_008" style="fill:none;stroke:#000000;stroke-width:0.0508" d="M 2 150 L 2 50"/>
    </g>
    <g id="ydivider">
      <path id="side_009" style="fill:none;stroke:#000000;stroke-width:0.0508" d="M 132 50 L 138.25 50 L 138.25 47 L 144.25 47 L 144.25 50 L 150.5 50 L 150.5 47 L 156.5 47 L 156.5 50 L 162.75 50 L 162.75 47 L 168.75 47 L 168.75 50 L 172 50"/>
      <path id="slot_002" style="fill:none;stroke:#000000;stroke-width:0.0508" d="M 132 98.5 L 152 98.5 L 152 101.5 L 132 101.5 L 132 98.5 Z"/>
      <path id="side_010" style="fill:none;stroke:#000000;stroke-width:0.0508" d="M 172 50 L 172 53.1111 L 175 53.1111 L 175 59.1111 L 172 59.1111 L 172 65.2222 L 175 65.2222 L 175 71.2222 L 172 71.2222 L 172 77.3333 L 175 77.3333 L 175 83.3333 L 172 83.3333 L 172 89.4444 L 175 89.4444 L 175 95.4444 L 172 95.4444 L 172 101.556 L 175 101.556 L 175 107.556 L 172 107.556 L 172 113.667 L 175 113.667 L 175 119.667 L 172 119.667 L 172 125.778 L 175 125.778 L 175 131.778 L 172 131.778 L 172 137.889 L 175 137.889 L 175 143.889 L 172 143.889 L 172 150"/>
      <path id="side_011" style="fill:none;stroke:#000000;stroke-width:0.0508" d="M 172 150 L 132 150"/>
      <path id="side_012" style="fill:none;stroke:#000000;stroke-width:0.0508" d="M 132 150 L 132 50"/>
    </g>
    <g id="bottom">
      <path id="side_013" style="fill:none;stroke:#000000;stroke-width:0.0508" d="M 47 47 L 53.7143 47 L 53.7143 50 L 59.7143 50 L 59.7143 47 L 66.4286 47 L 66.4286 50 L 72.4286 50 L 72.4286 47 L 79.1429 47 L 79.1429 50 L 85.1429 50 L 85.1429 47 L 91.8571 47 L 91.8571 50 L 97.8571 50 L 97.8571 47 L 104.571 47 L 104.571 50 L 110.571 50 L 110.571 47 L 117.286 47 L 117.286 50 L 123.286 50 L 123.286 47 L 130 47"/>
      <path id="hole_005" style="fill:none;stroke:#000000;stroke-width:0.0508" d="M 53.7143 98.5 L 59.7143 98.5 L 59.7143 101.5 L 53.7143 101.5 L 53.7143 98.5 Z"/>
      <path id="hole_006" style="fill:none;stroke:#000000;stroke-width:0.0508" d="M 66.4286 98.5 L 72.4286 98.5 L 72.4286 101.5 L 66.4286 101.5 L 66.4286 98.5 Z"/>
      <path id="hole_007" style="fill:none;stroke:#000000;stroke-width:0.0508" d="M 79.1429 98.5 L 85.1429 98.5 L 85.1429 101.5 L 79.1429 101.5 L 79.1429 98.5 Z"/>
      <path id="hole_008" style="fill:none;stroke:#000000;stroke-width:0.0508" d="M 91.8571 98.5 L 97.8571 98.5 L 97.8571 101.5 L 91.8571 101.5 L 91.8571 98.5 Z"/>
      <path id="hole_009" style="fill:none;stroke:#000000;stroke-width:0.0508" d="M 104.571 98.5 L 110.571 98.5 L 110.571 101.5 L 104.571 101.5 L 104.571 98.5 Z"/>
      <path id="hole_010" style="fill:none;stroke:#000000;stroke-width:0.0508" d="M 117.286 98.5 L 123.286 98.5 L 123.286 101.5 L 117.286 101.5 L 117.286 98.5 Z"/>
      <path id="side_014" style="fill:none;stroke:#000000;stroke-width:0.0508" d="M 130 47 L 130 150"/>
      <path id="hole_011" style="fill:none;stroke:#000000;stroke-width:0.0508" d="M 91.5 53.1111 L 91.5 59.1111 L 88.5 59.1111 L 88.5 53.1111 L 91.5 53.1111 Z"/>
      <path id="hole_012" style="fill:none;stroke:#000000;stroke-width:0.0508" d="M 91.5 65.2222 L 91.5 71.2222 L 88.5 71.2222 L 88.5 65.2222 L 91.5 65.2222 Z"/>
      <path id="hole_013" style="fill:none;stroke:#000000;stroke-width:0.0508" d="M 91.5 77.3333 L 91.5 83.3333 L 88.5 83.3333 L 88.5 77.3333 L 91.5 77.3333 Z"/>
      <path id="hole_014" style="fill:none;stroke:#000000;stroke-width:0.0508" d="M 91.5 89.4444 L 91.5 95.4444 L 88.5 95.4444 L 88.5 89.4444 L 91.5 89.4444 Z"/>
      <path id="hole_015" style="fill:none;stroke:#000000;stroke-width:0.0508" d="M 91.5 101.556 L 91.5 107.556 L 88.5 107.556 L 88.5 101.556 L 91.5 101.556 Z"/>
      <path id="hole_016" style="fill:none;stroke:#000000;stroke-width:0.0508" d="M 91.5 113.667 L 91.5 119.667 L 88.5 119.667 L 88.5 113.667 L 91.5 113.667 Z"/>
      <path id="hole_017" style="fill:none;stroke:#000000;stroke-width:0.0508" d="M 91.5 125.778 L 91.5 131.778 L 88.5 131.778 L 88.5 125.778 L 91.5 125.778 Z"/>
      <path id="hole_018" style="fill:none;stroke:#000000;stroke-width:0.0508" d="M 91.5 137.889 L 91.5 143.889 L 88.5 143.889 L 88.5 137.889 L 91.5 137.889 Z"/>
      <path id="side_015" style="fill:none;stroke:#000000;stroke-width:0.0508" d="M 130 150 L 47 150"/>
      <path id="side_016" style="fill:none;stroke:#000000;stroke-width:0.0508" d="M 47 150 L 47 143.889 L 50 143.889 L 50 137.889 L 47 137.889 L 47 131.778 L 50 131.778 L 50 125.778 L 47 125.778 L 47 119.667 L 50 119.667 L 50 113.667 L 47 113.667 L 47 107.556 L 50 107.556 L 50 101.556 L 47 101.556 L 47 95.4444 L 50 95.4444 L 50 89.4444 L 47 89.4444 L 47 83.3333 L 50 83.3333 L 50 77.3333 L 47 77.3333 L 47 71.2222 L 50 71.2222 L 50 65.2222 L 47 65.2222 L 47 59.1111 L 50 59.1111 L 50 53.1111 L 47 53.1111 L 47 47"/>
    </g>
    <g id="front">
      <path id="side_017" style="fill:none;stroke:#000000;stroke-width:0.0508" d="M 47 2 L 130 2"/>
      <path id="side_018" style="fill:none;stroke:#000000;stroke-width:0.0508" d="M 130 2 L 130 42"/>
      <path id="hole_019" style="fill:none;stroke:#000000;stroke-width:0.0508" d="M 91.5 8.25 L 91.5 14.25 L 88.5 14.25 L 88.5 8.25 L 91.5 8.25 Z"/>
      <path id="hole_020" style="fill:none;stroke:#000000;stroke-width:0.0508" d="M 91.5 20.5 L 91.5 26.5 L 88.5 26.5 L 88.5 20.5 L 91.5 20.5 Z"/>
      <path id="hole_021" style="fill:none;stroke:#000000;stroke-width:0.0508" d="M 91.5 32.75 L 91.5 38.75 L 88.5 38.75 L 88.5 32.75 L 91.5 32.75 Z"/>
      <path id="side_019" style="fill:none;stroke:#000000;stroke-width:0.0508" d="M 130 42 L 123.286 42 L 123.286 45 L 117.286 45 L 117.286 42 L 110.571 42 L 110.571 45 L 104.571 45 L 104.571 42 L 97.8571 42 L 97.8571 45 L 91.8571 45 L 91.8571 42 L 85.1429 42 L 85.1429 45 L 79.1429 45 L 79.1429 42 L 72.4286 42 L 72.4286 45 L 66.4286 45 L 66.4286 42 L 59.7143 42 L 59.7143 45 L 53.7143 45 L 53.7143 42 L 47 42"/>
      <path id="side_020" style="fill:none;stroke:#000000;stroke-width:0.0508" d="M 47 42 L 47 38.75 L 50 38.75 L 50 32.75 L 47 32.75 L 47 26.5 L 50 26.5 L 50 20.5 L 47 20.5 L 47 14.25 L 50 14.25 L 50 8.25 L 47 8.25 L 47 2"/>
    </g>
  </g>
</svg>