<!-- Created with Inkscape (http://www.inkscape.org/) -->
<svg xmlns:inkscape="http://www.inkscape.org/namespaces/inkscape" xmlns:sodipodi="http://sodipodi.sourceforge.net/DTD/sodipodi-0.dtd" xmlns="http://www.w3.org/2000/svg" xmlns:svg="http://www.w3.org/2000/svg" width="179mm" height="346mm" viewBox="0 0 179 346" version="1.1" id="svg5" inkscape:version="1.1.2 (0a00cf5339, 2022-02-04)" sodipodi:docname="blank.svg">
  <sodipodi:namedview id="namedview7" pagecolor="#ffffff" bordercolor="#666666" borderopacity="1.0" inkscape:pageshadow="2" inkscape:pageopacity="0.0" inkscape:pagecheckerboard="0" inkscape:document-units="mm" showgrid="false" inkscape:zoom="0.64052329" inkscape:cx="397.33138" inkscape:cy="561.25984" inkscape:window-width="2086" inkscape:window-height="1376" inkscape:window-x="0" inkscape:window-y="0" inkscape:window-maximized="1" inkscape:current-layer="layer1"/>
  <defs id="defs2"/>
  <g inkscape:label="Layer 1" inkscape:groupmode="layer" id="layer1">
    <metadata text="createArgs=['--unit=mm', '--inside=1', '--length=80', '--width=100', '--depth=40', '--equal=0', '--tab=6', '--tabtype=0', '--tabsymmetry=0', '--dimpleheight=0', '--dimplelength=0', '--hairline=1', '--thickness=3', '--kerf=0', '--style=1', '--div_l=1', '--div_w=1', '--keydiv=0', '--spacing=2', '--boxtype=3']"/>
    <path id="piece_001" style="fill:none;stroke:#000000;stroke-width:0.0508" d="M 47 113.25 L 50 113.25 L 50 119.25 L 47 119.25 L 47 125.5 L 50 125.5 L 50 131.5 L 47 131.5 L 47 137.75 L 50 137.75 L 50 143.75 L 47 143.75 L 47 150 L 133 150 L 133 143.75 L 130 143.75 L 130 137.75 L 133 137.75 L 133 131.5 L 130 131.5 L 130 125.5 L 133 125.5 L 133 119.25 L 130 119.25 L 130 113.25 L 133 113.25 L 133 110 L 125.857 110 L 125.857 107 L 119.857 107 L 119.857 110 L 112.714 110 L 112.714 107 L 106.714 107 L 106.714 110 L 99.5714 110 L 99.5714 107 L 93.5714 107 L 93.5714 110 L 86.4286 110 L 86.4286 107 L 80.4286 107 L 80.4286 110 L 73.2857 110 L 73.2857 107 L 67.2857 107 L 67.2857 110 L 60.1429 110 L 60.1429 107 L 54.1429 107 L 54.1429 110 L 47 110 L 47 113.25 Z M 88.5 113.25 L 91.5 113.25 L 91.5 119.25 L 88.5 119.25 L 88.5 113.25 Z M 88.5 125.5 L 91.5 125.5 L 91.5 131.5 L 88.5 131.5 L 88.5 125.5 Z M 88.5 137.75 L 91.5 137.75 L 91.5 143.75 L 88.5 143.75 L 88.5 137.75 Z"/>
    <path id="xdivider_001" style="fill:none;stroke:#000000;stroke-width:0.0508" d="M 0 203.25 L 3 203.25 L 3 209.25 L 0 209.25 L 0 215.5 L 3 215.5 L 3 221.5 L 0 221.5 L 0 227.75 L 3 227.75 L 3 233.75 L 0 233.75 L 0 240 L 86 240 L 86 233.75 L 83 233.75 L 83 227.75 L 86 227.75 L 86 221.5 L 83 221.5 L 83 215.5 L 86 215.5 L 86 209.25 L 83 209.25 L 83 203.25 L 86 203.25 L 86 200 L 78.8571 200 L 78.8571 197 L 72.8571 197 L 72.8571 200 L 65.7143 200 L 65.7143 197 L 59.7143 197 L 59.7143 200 L 52.5714 200 L 52.5714 197 L 46.5714 197 L 46.5714 200 L 44.5 200 L 44.5 218.5 L 41.5 218.5 L 41.5 200 L 39.4286 200 L 39.4286 197 L 33.4286 197 L 33.4286 200 L 26.2857 200 L 26.2857 197 L 20.2857 197 L 20.2857 200 L 13.1429 200 L 13.1429 197 L 7.14286 197 L 7.14286 200 L 0 200 L 0 203.25 Z"/>
    <path id="piece_002" style="fill:none;stroke:#000000;stroke-width:0.0508" d="M 2 52 L 8.25 52 L 8.25 55 L 2 55 L 2 102 L 8.25 102 L 8.25 105 L 14.25 105 L 14.25 102 L 20.5 102 L 20.5 105 L 26.5 105 L 26.5 102 L 32.75 102 L 32.75 105 L 38.75 105 L 38.75 102 L 42 102 L 42 98.8889 L 45 98.8889 L 45 92.8889 L 42 92.8889 L 42 86.7778 L 45 86.7778 L 45 80.7778 L 42 80.7778 L 42 74.6667 L 45 74.6667 L 45 68.6667 L 42 68.6667 L 42 62.5556 L 45 62.5556 L 45 56.5556 L 42 56.5556 L 42 55 L 32.75 55 L 26.5 55 L 26.5 52 L 32.75 52 L 42 52 L 42 50.4444 L 45 50.4444 L 45 44.4444 L 42 44.4444 L 42 38.3333 L 45 38.3333 L 45 32.3333 L 42 32.3333 L 42 26.2222 L 45 26.2222 L 45 20.2222 L 42 20.2222 L 42 14.1111 L 45 14.1111 L 45 8.11111 L 42 8.11111 L 42 2 L 2 2 L 2 52 Z M 14.25 52 L 20.5 52 L 20.5 55 L 14.25 55 L 14.25 52 Z"/>
    <path id="ydivider_001" style="fill:none;stroke:#000000;stroke-width:0.0508" d="M 0 289 L 21.5 289 L 21.5 292 L 0 292 L 0 342 L 6.25 342 L 6.25 345 L 12.25 345 L 12.25 342 L 18.5 342 L 18.5 345 L 24.5 345 L 24.5 342 L 30.75 342 L 30.75 345 L 36.75 345 L 36.75 342 L 40 342 L 40 338.889 L 43 338.889 L 43 332.889 L 40 332.889 L 40 326.778 L 43 326.778 L 43 320.778 L 40 320.778 L 40 314.667 L 43 314.667 L 43 308.667 L 40 308.667 L 40 302.556 L 43 302.556 L 43 296.556 L 40 296.556 L 40 290.444 L 43 290.444 L 43 284.444 L 40 284.444 L 40 278.333 L 43 278.333 L 43 272.333 L 40 272.333 L 40 266.222 L 43 266.222 L 43 260.222 L 40 260.222 L 40 254.111 L 43 254.111 L 43 248.111 L 40 248.111 L 40 242 L 0 242 L 0 289 Z"/>
    <path id="piece_003" style="fill:none;stroke:#000000;stroke-width:0.0508" d="M 47 8.1111 L 50 8.1111 L 50 14.1111 L 47 14.1111 L 47 20.2222 L 50 20.2222 L 50 26.2222 L 47 26.2222 L 47 32.3333 L 50 32.3333 L 50 38.3333 L 47 38.3333 L 47 44.4444 L 50 44.4444 L 50 50.4444 L 47 50.4444 L 47 56.5556 L 50 56.5556 L 50 62.5556 L 47 62.5556 L 47 68.6667 L 50 68.6667 L 50 74.6667 L 47 74.6667 L 47 80.7778 L 50 80.7778 L 50 86.7778 L 47 86.7778 L 47 92.8889 L 50 92.8889 L 50 98.8889 L 47 98.8889 L 47 105 L 54.1429 105 L 54.1429 102 L 60.1429 102 L 60.1429 105 L 67.2857 105 L 67.2857 102 L 73.2857 102 L 73.2857 105 L 80.4286 105 L 80.4286 102 L 86.4286 102 L 86.4286 105 L 93.5714 105 L 93.5714 102 L 99.5714 102 L 99.5714 105 L 106.714 105 L 106.714 102 L 112.714 102 L 112.714 105 L 119.857 105 L 119.857 102 L 125.857 102 L 125.857 105 L 133 105 L 133 98.8889 L 130 98.8889 L 130 92.8889 L 133 92.8889 L 133 86.7778 L 130 86.7778 L 130 80.7778 L 133 80.7778 L 133 74.6667 L 130 74.6667 L 130 68.6667 L 133 68.6667 L 133 62.5556 L 130 62.5556 L 130 56.5556 L 133 56.5556 L 133 50.4444 L 130 50.4444 L 130 44.4444 L 133 44.4444 L 133 38.3333 L 130 38.3333 L 130 32.3333 L 133 32.3333 L 133 26.2222 L 130 26.2222 L 130 20.2222 L 133 20.2222 L 133 14.1111 L 130 14.1111 L 130 8.11111 L 133 8.11111 L 133 2 L 47 2 L 47 8.1111 Z M 106.714 52 L 112.714 52 L 112.714 55 L 106.714 55 L 106.714 52 Z M 119.857 52 L 125.857 52 L 125.857 55 L 119.857 55 L 119.857 52 Z M 54.1429 52 L 60.1429 52 L 60.1429 55 L 54.1429 55 L 54.1429 52 Z M 67.2857 52 L 73.2857 52 L 73.2857 55 L 67.2857 55 L 67.2857 52 Z M 80.4286 52 L 86.4286 52 L 86.4286 55 L 80.4286 55 L 80.4286 52 Z M 88.5 20.2222 L 91.5 20.2222 L 91.5 26.2222 L 88.5 26.2222 L 88.5 20.2222 Z M 88.5 32.3333 L 91.5 32.3333 L 91.5 38.3333 L 88.5 38.3333 L 88.5 32.3333 Z M 88.5 44.4444 L 91.5 44.4444 L 91.5 50.4444 L 88.5 50.4444 L 88.5 44.4444 Z M 88.5 56.5556 L 91.5 56.5556 L 91.5 62.5556 L 88.5 62.5556 L 88.5 56.5556 Z M 88.5 68.6667 L 91.5 68.6667 L 91.5 74.6667 L 88.5 74.6667 L 88.5 68.6667 Z M 88.5 8.11111 L 91.5 8.11111 L 91.5 14.1111 L 88.5 14.1111 L 88.5 8.11111 Z M 88.5 80.7778 L 91.5 80.7778 L 91.5 86.7778 L 88.5 86.7778 L 88.5 80.7778 Z M 88.5 92.8889 L 91.5 92.8889 L 91.5 98.8889 L 88.5 98.8889 L 88.5 92.8889 Z M 93.5714 52 L 99.5714 52 L 99.5714 55 L 93.5714 55 L 93.5714 52 Z"/>
    <path id="piece_004" style="fill:none;stroke:#000000;stroke-width:0.0508" d="M 138 8.1111 L 135 8.1111 L 135 14.1111 L 138 14.1111 L 138 20.2222 L 135 20.2222 L 135 26.2222 L 138 26.2222 L 138 32.3333 L 135 32.3333 L 135 38.3333 L 138 38.3333 L 138 44.4444 L 135 44.4444 L 135 50.4444 L 138 50.4444 L 138 52 L 141.25 52 L 141.25 55 L 138 55 L 138 56.5556 L 135 56.5556 L 135 62.5556 L 138 62.5556 L 138 68.6667 L 135 68.6667 L 135 74.6667 L 138 74.6667 L 138 80.7778 L 135 80.7778 L 135 86.7778 L 138 86.7778 L 138 92.8889 L 135 92.8889 L 135 98.8889 L 138 98.8889 L 138 102 L 141.25 102 L 141.25 105 L 147.25 105 L 147.25 102 L 153.5 102 L 153.5 105 L 159.5 105 L 159.5 102 L 165.75 102 L 165.75 105 L 171.75 105 L 171.75 102 L 178 102 L 178 55 L 171.75 55 L 171.75 52 L 178 52 L 178 2 L 138 2 L 138 8.1111 Z M 147.25 52 L 153.5 52 L 153.5 55 L 147.25 55 L 147.25 52 Z M 159.5 52 L 165.75 52 L 165.75 55 L 159.5 55 L 159.5 52 Z"/>
  </g>
</svg>