<!-- Created with Inkscape (http://www.inkscape.org/) -->
<svg xmlns:inkscape="http://www.inkscape.org/namespaces/inkscape" xmlns:sodipodi="http://sodipodi.sourceforge.net/DTD/sodipodi-0.dtd" xmlns="http://www.w3.org/2000/svg" xmlns:svg="http://www.w3.org/2000/svg" width="131mm" height="346mm" viewBox="0 0 131 346" version="1.1" id="svg5" inkscape:version="1.1.2 (0a00cf5339, 2022-02-04)" sodipodi:docname="blank.svg">
  <sodipodi:namedview id="namedview7" pagecolor="#ffffff" bordercolor="#666666" borderopacity="1.0" inkscape:pageshadow="2" inkscape:pageopacity="0.0" inkscape:pagecheckerboard="0" inkscape:document-units="mm" showgrid="false" inkscape:zoom="0.64052329" inkscape:cx="397.33138" inkscape:cy="561.25984" inkscape:window-width="2086" inkscape:window-height="1376" inkscape:window-x="0" inkscape:window-y="0" inkscape:window-maximized="1" inkscape:current-layer="layer1"/>
  <defs id="defs2"/>
  <g inkscape:label="Layer 1" inkscape:groupmode="layer" id="layer1">
    <metadata text="createArgs=['--unit=mm', '--inside=1', '--length=80', '--width=100', '--depth=40', '--equal=0', '--tab=6', '--tabtype=0', '--tabsymmetry=0', '--dimpleheight=0', '--dimplelength=0', '--hairline=1', '--thickness=3', '--kerf=0', '--style=1', '--div_l=1', '--div_w=1', '--keydiv=0', '--spacing=2', '--boxtype=4']"/>
    <path id="piece_001" style="fill:none;stroke:#000000;stroke-width:0.0508" d="M 47 113.25 L 50 113.25 L 50 119.25 L 47 119.25 L 47 125.5 L 50 125.5 L 50 131.5 L 47 131.5 L 47 137.75 L 50 137.75 L 50 143.75 L 47 143.75 L 47 150 L 130 150 L 130 110 L 123.286 110 L 123.286 107 L 117.286 107 L 117.286 110 L 110.571 110 L 110.571 107 L 104.571 107 L 104.571 110 L 97.8571 110 L 97.8571 107 L 91.8571 107 L 91.8571 110 L 85.1429 110 L 85.1429 107 L 79.1429 107 L 79.1429 110 L 72.4286 110 L 72.4286 107 L 66.4286 107 L 66.4286 110 L 59.7143 110 L 59.7143 107 L 53.7143 107 L 53.7143 110 L 47 110 L 47 113.25 Z M 87 113.25 L 90 113.25 L 90 119.25 L 87 119.25 L 87 113.25 Z M 87 125.5 L 90 125.5 L 90 131.5 L 87 131.5 L 87 125.5 Z M 87 137.75 L 90 137.75 L 90 143.75 L 87 143.75 L 87 137.75 Z"/>
    <path id="xdivider_001" style="fill:none;stroke:#000000;stroke-width:0.0508" d="M 0 203.25 L 3 203.25 L 3 209.25 L 0 209.25 L 0 215.5 L 3 215.5 L 3 221.5 L 0 221.5 L 0 227.75 L 3 227.75 L 3 233.75 L 0 233.75 L 0 240 L 83 240 L 83 200 L 76.2857 200 L 76.2857 197 L 70.2857 197 L 70.2857 200 L 63.5714 200 L 63.5714 197 L 57.5714 197 L 57.5714 200 L 50.8571 200 L 50.8571 197 L 44.8571 197 L 44.8571 200 L 43 200 L 43 218.5 L 40 218.5 L 40 200 L 38.1429 200 L 38.1429 197 L 32.1429 197 L 32.1429 200 L 25.4286 200 L 25.4286 197 L 19.4286 197 L 19.4286 200 L 12.7143 200 L 12.7143 197 L 6.71429 197 L 6.71429 200 L 0 200 L 0 203.25 Z"/>
    <path id="piece_002" style="fill:none;stroke:#000000;stroke-width:0.0508" d="M 2 52 L 8.25 52 L 8.25 55 L 2 55 L 2 102 L 8.25 102 L 8.25 105 L 14.25 105 L 14.25 102 L 20.5 102 L 20.5 105 L 26.5 105 L 26.5 102 L 32.75 102 L 32.75 105 L 38.75 105 L 38.75 102 L 42 102 L 42 98.8889 L 45 98.8889 L 45 92.8889 L 42 92.8889 L 42 86.7778 L 45 86.7778 L 45 80.7778 L 42 80.7778 L 42 74.6667 L 45 74.6667 L 45 68.6667 L 42 68.6667 L 42 62.5556 L 45 62.5556 L 45 56.5556 L 42 56.5556 L 42 55 L 32.75 55 L 26.5 55 L 26.5 52 L 32.75 52 L 42 52 L 42 50.4444 L 45 50.4444 L 45 44.4444 L 42 44.4444 L 42 38.3333 L 45 38.3333 L 45 32.3333 L 42 32.3333 L 42 26.2222 L 45 26.2222 L 45 20.2222 L 42 20.2222 L 42 14.1111 L 45 14.1111 L 45 8.11111 L 42 8.11111 L 42 2 L 2 2 L 2 52 Z M 14.25 52 L 20.5 52 L 20.5 55 L 14.25 55 L 14.25 52 Z"/>
    <path id="ydivider_001" style="fill:none;stroke:#000000;stroke-width:0.0508" d="M 0 289 L 21.5 289 L 21.5 292 L 0 292 L 0 342 L 6.25 342 L 6.25 345 L 12.25 345 L 12.25 342 L 18.5 342 L 18.5 345 L 24.5 345 L 24.5 342 L 30.75 342 L 30.75 345 L 36.75 345 L 36.75 342 L 40 342 L 40 338.889 L 43 338.889 L 43 332.889 L 40 332.889 L 40 326.778 L 43 326.778 L 43 320.778 L 40 320.778 L 40 314.667 L 43 314.667 L 43 308.667 L 40 308.667 L 40 302.556 L 43 302.556 L 43 296.556 L 40 296.556 L 40 290.444 L 43 290.444 L 43 284.444 L 40 284.444 L 40 278.333 L 43 278.333 L 43 272.333 L 40 272.333 L 40 266.222 L 43 266.222 L 43 260.222 L 40 260.222 L 40 254.111 L 43 254.111 L 43 248.111 L 40 248.111 L 40 242 L 0 242 L 0 289 Z"/>
    <path id="piece_003" style="fill:none;stroke:#000000;stroke-width:0.0508" d="M 47 8.1111 L 50 8.1111 L 50 14.1111 L 47 14.1111 L 47 20.2222 L 50 20.2222 L 50 26.2222 L 47 26.2222 L 47 32.3333 L 50 32.3333 L 50 38.3333 L 47 38.3333 L 47 44.4444 L 50 44.4444 L 50 50.4444 L 47 50.4444 L 47 56.5556 L 50 56.5556 L 50 62.5556 L 47 62.5556 L 47 68.6667 L 50 68.6667 L 50 74.6667 L 47 74.6667 L 47 80.7778 L 50 80.7778 L 50 86.7778 L 47 86.7778 L 47 92.8889 L 50 92.8889 L 50 98.8889 L 47 98.8889 L 47 105 L 53.7143 105 L 53.7143 102 L 59.7143 102 L 59.7143 105 L 66.4286 105 L 66.4286 102 L 72.4286 102 L 72.4286 105 L 79.1429 105 L 79.1429 102 L 85.1429 102 L 85.1429 105 L 91.8571 105 L 91.8571 102 L 97.8571 102 L 97.8571 105 L 104.571 105 L 104.571 102 L 110.571 102 L 110.571 105 L 117.286 105 L 117.286 102 L 123.286 102 L 123.286 105 L 130 105 L 130 2 L 47 2 L 47 8.1111 Z M 104.571 52 L 110.571 52 L 110.571 55 L 104.571 55 L 104.571 52 Z M 117.286 52 L 123.286 52 L 123.286 55 L 117.286 55 L 117.286 52 Z M 53.7143 52 L 59.7143 52 L 59.7143 55 L 53.7143 55 L 53.7143 52 Z M 66.4286 52 L 72.4286 52 L 72.4286 55 L 66.4286 55 L 66.4286 52 Z M 79.1429 52 L 85.1429 52 L 85.1429 55 L 79.1429 55 L 79.1429 52 Z M 87 20.2222 L 90 20.2222 L 90 26.2222 L 87 26.2222 L 87 20.2222 Z M 87 32.3333 L 90 32.3333 L 90 38.3333 L 87 38.3333 L 87 32.3333 Z M 87 44.4444 L 90 44.4444 L 90 50.4444 L 87 50.4444 L 87 44.4444 Z M 87 56.5556 L 90 56.5556 L 90 62.5556 L 87 62.5556 L 87 56.5556 Z M 87 68.6667 L 90 68.6667 L 90 74.6667 L 87 74.6667 L 87 68.6667 Z M 87 8.1111 L 90 8.1111 L 90 14.1111 L 87 14.1111 L 87 8.1111 Z M 87 80.7778 L 90 80.7778 L 90 86.7778 L 87 86.7778 L 87 80.7778 Z M 87 92.8889 L 90 92.8889 L 90 98.8889 L 87 98.8889 L 87 92.8889 Z M 91.8571 52 L 97.8571 52 L 97.8571 55 L 91.8571 55 L 91.8571 52 Z"/>
  </g>
</svg>