<!-- Created with Inkscape (http://www.inkscape.org/) -->
<svg xmlns:inkscape="http://www.inkscape.org/namespaces/inkscape" xmlns:sodipodi="http://sodipodi.sourceforge.net/DTD/sodipodi-0.dtd" xmlns="http://www.w3.org/2000/svg" xmlns:svg="http://www.w3.org/2000/svg" width="176mm" height="145mm" viewBox="0 0 176 145" version="1.1" sodipodi:docname="blank.svg">
  <sodipodi:namedview/>
  <defs id="defaults"/>
  <g inkscape:label="Tabbed Box" id="tabbedbox">
    <metadata text="$ boxmaker.py --unit=mm --inside=1 --length=80 --width=100 --depth=40 --equal=0 --tab=6 --tabtype=0 --tabsymmetry=0 --dimpleheight=0 --dimplelength=0 --hairline=1 --thickness=3 --kerf=0 --style=1 --div-l=1 --div-w=1 --keydiv=0 --spacing=2 --boxtype=6"/>
    <g id="xdivider">
      <path id="side_001" style="fill:none;stroke:#000000;stroke-width:0.0508" d="m 47 104 l 6.2857 0 l 0 0 l 6 0 l 0 0 l 6.2857 0 l 0 0 l 6 0 l 0 0 l 6.2857 0 l 0 0 l 6 0 l 0 0 l 6.2858 0 l 0 0 l 6 0 l 0 0 l 6.2861 0 l 0 0 l 6 0 l 0 0 l 6.285 0 l 0 0 l 6 0 l 0 0 l 6.286 0"/>
      <path id="side_002" style="fill:none;stroke:#000000;stroke-width:0.0508" d="m 127 104 l 0 9.333 l 0 0 l 0 6 l 0 0 l 0 9.334 l 0 0 l 0 6 l 0 0 l 0 9.333"/>
      <path id="side_003" style="fill:none;stroke:#000000;stroke-width:0.0508" d="m 127 144 l -6.286 0 l 0 0 l -6 0 l 0 0 l -6.285 0 l 0 0 l -6 0 l 0 0 l -6.2861 0 l 0 0 l -6 0 l 0 0 l -6.2858 0 l 0 0 l -6 0 l 0 0 l -6.2857 0 l 0 0 l -6 0 l 0 0 l -6.2857 0 l 0 0 l -6 0 l 0 0 l -6.2857 0"/>
      <path id="side_004" style="fill:none;stroke:#000000;stroke-width:0.0508" d="m 47 144 l 0 -9.333 l 0 0 l 0 -6 l 0 0 l 0 -9.334 l 0 0 l 0 -6 l 0 0 l 0 -9.333"/>
      <path id="slot" style="fill:none;stroke:#000000;stroke-width:0.0508" d="m 85.5 144 l 0 -20 l 3 0 l 0 20 l -3 0 z"/>
    </g>
    <g id="left">
      <path id="side_005" style="fill:none;stroke:#000000;stroke-width:0.0508" d="m 2 2 l 6.25 0 l 0 0 l 6 0 l 0 0 l 6.25 0 l 0 0 l 6 0 l 0 0 l 6.25 0 l 0 0 l 6 0 l 0 0 l 3.25 0"/>
      <path id="side_006" style="fill:none;stroke:#000000;stroke-width:0.0508" d="m 42 2 l 0 7.25 l 3 0 l 0 6 l -3 0 l 0 7.25 l 3 0 l 0 6 l -3 0 l 0 7.25 l 3 0 l 0 6 l -3 0 l 0 7.25 l 3 0 l 0 6 l -3 0 l 0 7.25 l 3 0 l 0 6 l -3 0 l 0 7.25 l 3 0 l 0 6 l -3 0 l 0 7.25 l 3 0 l 0 6 l -3 0 l 0 7.25"/>
      <path id="side_007" style="fill:none;stroke:#000000;stroke-width:0.0508" d="m 42 102 l -3.25 0 l 0 0 l -6 0 l 0 0 l -6.25 0 l 0 0 l -6 0 l 0 0 l -6.25 0 l 0 0 l -6 0 l 0 0 l -6.25 0"/>
      <path id="side_008" style="fill:none;stroke:#000000;stroke-width:0.0508" d="m 2 102 l 0 -7.25 l 0 0 l 0 -6 l 0 0 l 0 -7.25 l 0 0 l 0 -6 l 0 0 l 0 -7.25 l 0 0 l 0 -6 l 0 0 l 0 -7.25 l 0 0 l 0 -6 l 0 0 l 0 -7.25 l 0 0 l 0 -6 l 0 0 l 0 -7.25 l 0 0 l 0 -6 l 0 0 l 0 -7.25 l 0 0 l 0 -6 l 0 0 l 0 -7.25"/>
    </g>
    <g id="ydivider">
      <path id="side_009" style="fill:none;stroke:#000000;stroke-width:0.0508" d="m 132 2 l 6.25 0 l 0 0 l 6 0 l 0 0 l 6.25 0 l 0 0 l 6 0 l 0 0 l 6.25 0 l 0 0 l 6 0 l 0 0 l 3.25 0"/>
      <path id="slot_001" style="fill:none;stroke:#000000;stroke-width:0.0508" d="m 132 50.5 l 20 0 l 0 3 l -20 0 l 0 -3 z"/>
      <path id="side_010" style="fill:none;stroke:#000000;stroke-width:0.0508" d="m 172 2 l 0 7.25 l 3 0 l 0 6 l -3 0 l 0 7.25 l 3 0 l 0 6 l -3 0 l 0 7.25 l 3 0 l 0 6 l -3 0 l 0 7.25 l 3 0 l 0 6 l -3 0 l 0 7.25 l 3 0 l 0 6 l -3 0 l 0 7.25 l 3 0 l 0 6 l -3 0 l 0 7.25 l 3 0 l 0 6 l -3 0 l 0 7.25"/>
      <path id="side_011" style="fill:none;stroke:#000000;stroke-width:0.0508" d="m 172 102 l -3.25 0 l 0 0 l -6 0 l 0 0 l -6.25 0 l 0 0 l -6 0 l 0 0 l -6.25 0 l 0 0 l -6 0 l 0 0 l -6.25 0"/>
      <path id="side_012" style="fill:none;stroke:#000000;stroke-width:0.0508" d="m 132 102 l 0 -7.25 l 0 0 l 0 -6 l 0 0 l 0 -7.25 l 0 0 l 0 -6 l 0 0 l 0 -7.25 l 0 0 l 0 -6 l 0 0 l 0 -7.25 l 0 0 l 0 -6 l 0 0 l 0 -7.25 l 0 0 l 0 -6 l 0 0 l 0 -7.25 l 0 0 l 0 -6 l 0 0 l 0 -7.25 l 0 0 l 0 -6 l 0 0 l 0 -7.25"/>
    </g>
    <g id="bottom">
      <path id="side_013" style="fill:none;stroke:#000000;stroke-width:0.0508" d="m 47 2 l 6.7143 0 l 0 0 l 6 0 l 0 0 l 6.7143 0 l 0 0 l 6 0 l 0 0 l 6.7143 0 l 0 0 l 6 0 l 0 0 l 6.7142 0 l 0 0 l 6 0 l 0 0 l 6.7139 0 l 0 0 l 6 0 l 0 0 l 6.715 0 l 0 0 l 6 0 l 0 0 l 6.714 0"/>
      <path id="side_014" style="fill:none;stroke:#000000;stroke-width:0.0508" d="m 130 2 l 0 7.25 l 0 0 l 0 6 l 0 0 l 0 7.25 l 0 0 l 0 6 l 0 0 l 0 7.25 l 0 0 l 0 6 l 0 0 l 0 7.25 l 0 0 l 0 6 l 0 0 l 0 7.25 l 0 0 l 0 6 l 0 0 l 0 7.25 l 0 0 l 0 6 l 0 0 l 0 7.25 l 0 0 l 0 6 l 0 0 l 0 7.25"/>
      <path id="side_015" style="fill:none;stroke:#000000;stroke-width:0.0508" d="m 130 102 l -6.714 0 l 0 0 l -6 0 l 0 0 l -6.715 0 l 0 0 l -6 0 l 0 0 l -6.7139 0 l 0 0 l -6 0 l 0 0 l -6.7142 0 l 0 0 l -6 0 l 0 0 l -6.7143 0 l 0 0 l -6 0 l 0 0 l -6.7143 0 l 0 0 l -6 0 l 0 0 l -6.7143 0"/>
      <path id="side_016" style="fill:none;stroke:#000000;stroke-width:0.0508" d="m 47 102 l 0 -7.25 l 3 0 l 0 -6 l -3 0 l 0 -7.25 l 3 0 l 0 -6 l -3 0 l 0 -7.25 l 3 0 l 0 -6 l -3 0 l 0 -7.25 l 3 0 l 0 -6 l -3 0 l 0 -7.25 l 3 0 l 0 -6 l -3 0 l 0 -7.25 l 3 0 l 0 -6 l -3 0 l 0 -7.25 l 3 0 l 0 -6 l -3 0 l 0 -7.25"/>
      <path id="hole" style="fill:none;stroke:#000000;stroke-width:0.0508" d="m 88.5 94.75 l 0 -6 l 3 0 l 0 6 l -3 0 z"/>
      <path id="hole_001" style="fill:none;stroke:#000000;stroke-width:0.0508" d="m 88.5 81.5 l 0 -6 l 3 0 l 0 6 l -3 0 z"/>
      <path id="hole_002" style="fill:none;stroke:#000000;stroke-width:0.0508" d="m 88.5 68.25 l 0 -6 l 3 0 l 0 6 l -3 0 z"/>
      <path id="hole_003" style="fill:none;stroke:#000000;stroke-width:0.0508" d="m 88.5 55 l 0 -6 l 3 0 l 0 6 l -3 0 z"/>
      <path id="hole_004" style="fill:none;stroke:#000000;stroke-width:0.0508" d="m 88.5 41.75 l 0 -6 l 3 0 l 0 6 l -3 0 z"/>
      <path id="hole_005" style="fill:none;stroke:#000000;stroke-width:0.0508" d="m 88.5 28.5 l 0 -6 l 3 0 l 0 6 l -3 0 z"/>
      <path id="hole_006" style="fill:none;stroke:#000000;stroke-width:0.0508" d="m 88.5 15.25 l 0 -6 l 3 0 l 0 6 l -3 0 z"/>
    </g>
  </g>
</svg>