<!-- Created with Inkscape (http://www.inkscape.org/) -->
<svg xmlns:inkscape="http://www.inkscape.org/namespaces/inkscape" xmlns:sodipodi="http://sodipodi.sourceforge.net/DTD/sodipodi-0.dtd" xmlns="http://www.w3.org/2000/svg" xmlns:svg="http://www.w3.org/2000/svg" width="173mm" height="343mm" viewBox="0 0 173 343" version="1.1" id="svg5" inkscape:version="1.1.2 (0a00cf5339, 2022-02-04)" sodipodi:docname="blank.svg">
  <sodipodi:namedview id="namedview7" pagecolor="#ffffff" bordercolor="#666666" borderopacity="1.0" inkscape:pageshadow="2" inkscape:pageopacity="0.0" inkscape:pagecheckerboard="0" inkscape:document-units="mm" showgrid="false" inkscape:zoom="0.64052329" inkscape:cx="397.33138" inkscape:cy="561.25984" inkscape:window-width="2086" inkscape:window-height="1376" inkscape:window-x="0" inkscape:window-y="0" inkscape:window-maximized="1" inkscape:current-layer="layer1"/>
  <defs id="defs2"/>
  <g inkscape:label="Layer 1" inkscape:groupmode="layer" id="layer1">
    <metadata text="createArgs=['--unit=mm', '--inside=1', '--length=80', '--width=100', '--depth=40', '--equal=0', '--tab=6', '--tabtype=0', '--tabsymmetry=0', '--dimpleheight=0', '--dimplelength=0', '--hairline=1', '--thickness=3', '--kerf=0', '--style=1', '--div_l=1', '--div_w=1', '--keydiv=0', '--spacing=2', '--boxtype=5']"/>
    <g id="piece_001">
      <path id="side_001" style="fill:none;stroke:#000000;stroke-width:0.0508" d="M 44 152 L 51.1429 152 L 51.1429 152 L 57.1429 152 L 57.1429 152 L 64.2857 152 L 64.2857 152 L 70.2857 152 L 70.2857 152 L 77.4286 152 L 77.4286 152 L 83.4286 152 L 83.4286 152 L 90.5714 152 L 90.5714 152 L 96.5714 152 L 96.5714 152 L 103.714 152 L 103.714 152 L 109.714 152 L 109.714 152 L 116.857 152 L 116.857 152 L 122.857 152 L 122.857 152 L 130 152"/>
      <path id="side_002" style="fill:none;stroke:#000000;stroke-width:0.0508" d="M 130 152 L 130 161.333 L 127 161.333 L 127 167.333 L 130 167.333 L 130 176.667 L 127 176.667 L 127 182.667 L 130 182.667 L 130 192"/>
      <path id="hole_001" style="fill:none;stroke:#000000;stroke-width:0.0508" d="M 85.5 161.333 L 85.5 167.333 L 88.5 167.333 L 88.5 161.333 L 85.5 161.333 Z"/>
      <path id="hole_002" style="fill:none;stroke:#000000;stroke-width:0.0508" d="M 85.5 176.667 L 85.5 182.667 L 88.5 182.667 L 88.5 176.667 L 85.5 176.667 Z"/>
      <path id="side_003" style="fill:none;stroke:#000000;stroke-width:0.0508" d="M 130 192 L 122.857 192 L 122.857 192 L 116.857 192 L 116.857 192 L 109.714 192 L 109.714 192 L 103.714 192 L 103.714 192 L 96.5714 192 L 96.5714 192 L 90.5714 192 L 90.5714 192 L 83.4286 192 L 83.4286 192 L 77.4286 192 L 77.4286 192 L 70.2857 192 L 70.2857 192 L 64.2857 192 L 64.2857 192 L 57.1429 192 L 57.1429 192 L 51.1429 192 L 51.1429 192 L 44 192"/>
      <path id="side_004" style="fill:none;stroke:#000000;stroke-width:0.0508" d="M 44 192 L 44 182.667 L 47 182.667 L 47 176.667 L 44 176.667 L 44 167.333 L 47 167.333 L 47 161.333 L 44 161.333 L 44 152"/>
    </g>
    <g id="xdivider_001">
      <path id="side_005" style="fill:none;stroke:#000000;stroke-width:0.0508" d="M 2 194 L 9.14286 194 L 9.14286 194 L 15.1429 194 L 15.1429 194 L 22.2857 194 L 22.2857 194 L 28.2857 194 L 28.2857 194 L 35.4286 194 L 35.4286 194 L 41.4286 194 L 41.4286 194 L 48.5714 194 L 48.5714 194 L 54.5714 194 L 54.5714 194 L 61.7143 194 L 61.7143 194 L 67.7143 194 L 67.7143 194 L 74.8571 194 L 74.8571 194 L 80.8571 194 L 80.8571 194 L 88 194"/>
      <path id="side_006" style="fill:none;stroke:#000000;stroke-width:0.0508" d="M 88 194 L 88 203.333 L 85 203.333 L 85 209.333 L 88 209.333 L 88 218.667 L 85 218.667 L 85 224.667 L 88 224.667 L 88 234"/>
      <path id="slot_001" style="fill:none;stroke:#000000;stroke-width:0.0508" d="M 43.5 194 L 43.5 214 L 46.5 214 L 46.5 194 L 43.5 194 Z"/>
      <path id="side_007" style="fill:none;stroke:#000000;stroke-width:0.0508" d="M 88 234 L 80.8571 234 L 80.8571 234 L 74.8571 234 L 74.8571 234 L 67.7143 234 L 67.7143 234 L 61.7143 234 L 61.7143 234 L 54.5714 234 L 54.5714 234 L 48.5714 234 L 48.5714 234 L 41.4286 234 L 41.4286 234 L 35.4286 234 L 35.4286 234 L 28.2857 234 L 28.2857 234 L 22.2857 234 L 22.2857 234 L 15.1429 234 L 15.1429 234 L 9.1429 234 L 9.1429 234 L 2 234"/>
      <path id="side_008" style="fill:none;stroke:#000000;stroke-width:0.0508" d="M 2 234 L 2 224.667 L 5 224.667 L 5 218.667 L 2 218.667 L 2 209.333 L 5 209.333 L 5 203.333 L 2 203.333 L 2 194"/>
    </g>
    <g id="piece_002">
      <path id="side_009" style="fill:none;stroke:#000000;stroke-width:0.0508" d="M 2 47 L 11.3333 47 L 11.3333 44 L 17.3333 44 L 17.3333 47 L 26.6667 47 L 26.6667 44 L 32.6667 44 L 32.6667 47 L 42 47"/>
      <path id="hole_003" style="fill:none;stroke:#000000;stroke-width:0.0508" d="M 2 98.5 L 11.3333 98.5 L 11.3333 95.5 L 2 95.5 L 2 98.5 Z"/>
      <path id="hole_004" style="fill:none;stroke:#000000;stroke-width:0.0508" d="M 17.3333 98.5 L 26.6667 98.5 L 26.6667 95.5 L 17.3333 95.5 L 17.3333 98.5 Z"/>
      <path id="hole_005" style="fill:none;stroke:#000000;stroke-width:0.0508" d="M 32.6667 98.5 L 42 98.5 L 42 95.5 L 32.6667 95.5 L 32.6667 98.5 Z"/>
      <path id="side_010" style="fill:none;stroke:#000000;stroke-width:0.0508" d="M 42 47 L 42 50.4444 L 42 50.4444 L 42 56.4444 L 42 56.4444 L 42 62.8889 L 42 62.8889 L 42 68.8889 L 42 68.8889 L 42 75.3333 L 42 75.3333 L 42 81.3333 L 42 81.3333 L 42 87.7778 L 42 87.7778 L 42 93.7778 L 42 93.7778 L 42 100.222 L 42 100.222 L 42 106.222 L 42 106.222 L 42 112.667 L 42 112.667 L 42 118.667 L 42 118.667 L 42 125.111 L 42 125.111 L 42 131.111 L 42 131.111 L 42 137.556 L 42 137.556 L 42 143.556 L 42 143.556 L 42 147"/>
      <path id="side_011" style="fill:none;stroke:#000000;stroke-width:0.0508" d="M 42 147 L 32.6667 147 L 32.6667 150 L 26.6667 150 L 26.6667 147 L 17.3333 147 L 17.3333 150 L 11.3333 150 L 11.3333 147 L 2 147"/>
      <path id="side_012" style="fill:none;stroke:#000000;stroke-width:0.0508" d="M 2 147 L 2 143.556 L 2 143.556 L 2 137.556 L 2 137.556 L 2 131.111 L 2 131.111 L 2 125.111 L 2 125.111 L 2 118.667 L 2 118.667 L 2 112.667 L 2 112.667 L 2 106.222 L 2 106.222 L 2 100.222 L 2 100.222 L 2 93.7778 L 2 93.7778 L 2 87.7778 L 2 87.7778 L 2 81.3333 L 2 81.3333 L 2 75.3333 L 2 75.3333 L 2 68.8889 L 2 68.8889 L 2 62.8889 L 2 62.8889 L 2 56.4444 L 2 56.4444 L 2 50.4444 L 2 50.4444 L 2 47"/>
    </g>
    <g id="ydivider_001">
      <path id="side_013" style="fill:none;stroke:#000000;stroke-width:0.0508" d="M 2 239 L 11.3333 239 L 11.3333 236 L 17.3333 236 L 17.3333 239 L 26.6667 239 L 26.6667 236 L 32.6667 236 L 32.6667 239 L 42 239"/>
      <path id="slot_002" style="fill:none;stroke:#000000;stroke-width:0.0508" d="M 2 287.5 L 22 287.5 L 22 290.5 L 2 290.5 L 2 287.5 Z"/>
      <path id="side_014" style="fill:none;stroke:#000000;stroke-width:0.0508" d="M 42 239 L 42 242.444 L 42 242.444 L 42 248.444 L 42 248.444 L 42 254.889 L 42 254.889 L 42 260.889 L 42 260.889 L 42 267.333 L 42 267.333 L 42 273.333 L 42 273.333 L 42 279.778 L 42 279.778 L 42 285.778 L 42 285.778 L 42 292.222 L 42 292.222 L 42 298.222 L 42 298.222 L 42 304.667 L 42 304.667 L 42 310.667 L 42 310.667 L 42 317.111 L 42 317.111 L 42 323.111 L 42 323.111 L 42 329.556 L 42 329.556 L 42 335.556 L 42 335.556 L 42 339"/>
      <path id="side_015" style="fill:none;stroke:#000000;stroke-width:0.0508" d="M 42 339 L 32.6667 339 L 32.6667 342 L 26.6667 342 L 26.6667 339 L 17.3333 339 L 17.3333 342 L 11.3333 342 L 11.3333 339 L 2 339"/>
      <path id="side_016" style="fill:none;stroke:#000000;stroke-width:0.0508" d="M 2 339 L 2 335.556 L 2 335.556 L 2 329.556 L 2 329.556 L 2 323.111 L 2 323.111 L 2 317.111 L 2 317.111 L 2 310.667 L 2 310.667 L 2 304.667 L 2 304.667 L 2 298.222 L 2 298.222 L 2 292.222 L 2 292.222 L 2 285.778 L 2 285.778 L 2 279.778 L 2 279.778 L 2 273.333 L 2 273.333 L 2 267.333 L 2 267.333 L 2 260.889 L 2 260.889 L 2 254.889 L 2 254.889 L 2 248.444 L 2 248.444 L 2 242.444 L 2 242.444 L 2 239"/>
    </g>
    <g id="piece_003">
      <path id="side_017" style="fill:none;stroke:#000000;stroke-width:0.0508" d="M 132 47 L 141.333 47 L 141.333 44 L 147.333 44 L 147.333 47 L 156.667 47 L 156.667 44 L 162.667 44 L 162.667 47 L 172 47"/>
      <path id="hole_006" style="fill:none;stroke:#000000;stroke-width:0.0508" d="M 132 98.5 L 141.333 98.5 L 141.333 95.5 L 132 95.5 L 132 98.5 Z"/>
      <path id="hole_007" style="fill:none;stroke:#000000;stroke-width:0.0508" d="M 147.333 98.5 L 156.667 98.5 L 156.667 95.5 L 147.333 95.5 L 147.333 98.5 Z"/>
      <path id="hole_008" style="fill:none;stroke:#000000;stroke-width:0.0508" d="M 162.667 98.5 L 172 98.5 L 172 95.5 L 162.667 95.5 L 162.667 98.5 Z"/>
      <path id="side_018" style="fill:none;stroke:#000000;stroke-width:0.0508" d="M 172 47 L 172 50.4444 L 172 50.4444 L 172 56.4444 L 172 56.4444 L 172 62.8889 L 172 62.8889 L 172 68.8889 L 172 68.8889 L 172 75.3333 L 172 75.3333 L 172 81.3333 L 172 81.3333 L 172 87.7778 L 172 87.7778 L 172 93.7778 L 172 93.7778 L 172 100.222 L 172 100.222 L 172 106.222 L 172 106.222 L 172 112.667 L 172 112.667 L 172 118.667 L 172 118.667 L 172 125.111 L 172 125.111 L 172 131.111 L 172 131.111 L 172 137.556 L 172 137.556 L 172 143.556 L 172 143.556 L 172 147"/>
      <path id="side_019" style="fill:none;stroke:#000000;stroke-width:0.0508" d="M 172 147 L 162.667 147 L 162.667 150 L 156.667 150 L 156.667 147 L 147.333 147 L 147.333 150 L 141.333 150 L 141.333 147 L 132 147"/>
      <path id="side_020" style="fill:none;stroke:#000000;stroke-width:0.0508" d="M 132 147 L 132 143.556 L 132 143.556 L 132 137.556 L 132 137.556 L 132 131.111 L 132 131.111 L 132 125.111 L 132 125.111 L 132 118.667 L 132 118.667 L 132 112.667 L 132 112.667 L 132 106.222 L 132 106.222 L 132 100.222 L 132 100.222 L 132 93.7778 L 132 93.7778 L 132 87.7778 L 132 87.7778 L 132 81.3333 L 132 81.3333 L 132 75.3333 L 132 75.3333 L 132 68.8889 L 132 68.8889 L 132 62.8889 L 132 62.8889 L 132 56.4444 L 132 56.4444 L 132 50.4444 L 132 50.4444 L 132 47"/>
    </g>
    <g id="piece_004">
      <path id="side_021" style="fill:none;stroke:#000000;stroke-width:0.0508" d="M 44 2 L 51.1429 2 L 51.1429 2 L 57.1429 2 L 57.1429 2 L 64.2857 2 L 64.2857 2 L 70.2857 2 L 70.2857 2 L 77.4286 2 L 77.4286 2 L 83.4286 2 L 83.4286 2 L 90.5714 2 L 90.5714 2 L 96.5714 2 L 96.5714 2 L 103.714 2 L 103.714 2 L 109.714 2 L 109.714 2 L 116.857 2 L 116.857 2 L 122.857 2 L 122.857 2 L 130 2"/>
      <path id="side_022" style="fill:none;stroke:#000000;stroke-width:0.0508" d="M 130 2 L 130 11.3333 L 127 11.3333 L 127 17.3333 L 130 17.3333 L 130 26.6667 L 127 26.6667 L 127 32.6667 L 130 32.6667 L 130 42"/>
      <path id="hole_009" style="fill:none;stroke:#000000;stroke-width:0.0508" d="M 85.5 11.3333 L 85.5 17.3333 L 88.5 17.3333 L 88.5 11.3333 L 85.5 11.3333 Z"/>
      <path id="hole_010" style="fill:none;stroke:#000000;stroke-width:0.0508" d="M 85.5 26.6667 L 85.5 32.6667 L 88.5 32.6667 L 88.5 26.6667 L 85.5 26.6667 Z"/>
      <path id="side_023" style="fill:none;stroke:#000000;stroke-width:0.0508" d="M 130 42 L 122.857 42 L 122.857 42 L 116.857 42 L 116.857 42 L 109.714 42 L 109.714 42 L 103.714 42 L 103.714 42 L 96.5714 42 L 96.5714 42 L 90.5714 42 L 90.5714 42 L 83.4286 42 L 83.4286 42 L 77.4286 42 L 77.4286 42 L 70.2857 42 L 70.2857 42 L 64.2857 42 L 64.2857 42 L 57.1429 42 L 57.1429 42 L 51.1429 42 L 51.1429 42 L 44 42"/>
      <path id="side_024" style="fill:none;stroke:#000000;stroke-width:0.0508" d="M 44 42 L 44 32.6667 L 47 32.6667 L 47 26.6667 L 44 26.6667 L 44 17.3333 L 47 17.3333 L 47 11.3333 L 44 11.3333 L 44 2"/>
    </g>
  </g>
</svg>