<!-- Created with Inkscape (http://www.inkscape.org/) -->
<svg xmlns:inkscape="http://www.inkscape.org/namespaces/inkscape" xmlns:sodipodi="http://sodipodi.sourceforge.net/DTD/sodipodi-0.dtd" xmlns="http://www.w3.org/2000/svg" xmlns:svg="http://www.w3.org/2000/svg" width="179mm" height="346mm" viewBox="0 0 179 346" version="1.1" id="svg5" inkscape:version="1.1.2 (0a00cf5339, 2022-02-04)" sodipodi:docname="blank.svg">
  <sodipodi:namedview id="namedview7" pagecolor="#ffffff" bordercolor="#666666" borderopacity="1.0" inkscape:pageshadow="2" inkscape:pageopacity="0.0" inkscape:pagecheckerboard="0" inkscape:document-units="mm" showgrid="false" inkscape:zoom="0.64052329" inkscape:cx="397.33138" inkscape:cy="561.25984" inkscape:window-width="2086" inkscape:window-height="1376" inkscape:window-x="0" inkscape:window-y="0" inkscape:window-maximized="1" inkscape:current-layer="layer1"/>
  <defs id="defs2"/>
  <g inkscape:label="Layer 1" inkscape:groupmode="layer" id="layer1">
    <metadata text="createArgs=['--unit=mm', '--inside=1', '--length=80', '--width=100', '--depth=40', '--equal=0', '--tab=6', '--tabtype=0', '--tabsymmetry=0', '--dimpleheight=0', '--dimplelength=0', '--hairline=1', '--thickness=3', '--kerf=0', '--style=1', '--div_l=1', '--div_w=1', '--keydiv=0', '--spacing=2', '--boxtype=3']"/>
    <g id="piece_001">
      <path id="side_001" style="fill:none;stroke:#000000;stroke-width:0.0508" d="M 47 110 L 54.1429 110 L 54.1429 107 L 60.1429 107 L 60.1429 110 L 67.2857 110 L 67.2857 107 L 73.2857 107 L 73.2857 110 L 80.4286 110 L 80.4286 107 L 86.4286 107 L 86.4286 110 L 93.5714 110 L 93.5714 107 L 99.5714 107 L 99.5714 110 L 106.714 110 L 106.714 107 L 112.714 107 L 112.714 110 L 119.857 110 L 119.857 107 L 125.857 107 L 125.857 110 L 133 110"/>
      <path id="side_002" style="fill:none;stroke:#000000;stroke-width:0.0508" d="M 133 110 L 133 113.25 L 130 113.25 L 130 119.25 L 133 119.25 L 133 125.5 L 130 125.5 L 130 131.5 L 133 131.5 L 133 137.75 L 130 137.75 L 130 143.75 L 133 143.75 L 133 150"/>
      <path id="hole_001" style="fill:none;stroke:#000000;stroke-width:0.0508" d="M 88.5 113.25 L 88.5 119.25 L 91.5 119.25 L 91.5 113.25 L 88.5 113.25 Z"/>
      <path id="hole_002" style="fill:none;stroke:#000000;stroke-width:0.0508" d="M 88.5 125.5 L 88.5 131.5 L 91.5 131.5 L 91.5 125.5 L 88.5 125.5 Z"/>
      <path id="hole_003" style="fill:none;stroke:#000000;stroke-width:0.0508" d="M 88.5 137.75 L 88.5 143.75 L 91.5 143.75 L 91.5 137.75 L 88.5 137.75 Z"/>
      <path id="side_003" style="fill:none;stroke:#000000;stroke-width:0.0508" d="M 133 150 L 125.857 150 L 125.857 150 L 119.857 150 L 119.857 150 L 112.714 150 L 112.714 150 L 106.714 150 L 106.714 150 L 99.5714 150 L 99.5714 150 L 93.5714 150 L 93.5714 150 L 86.4286 150 L 86.4286 150 L 80.4286 150 L 80.4286 150 L 73.2857 150 L 73.2857 150 L 67.2857 150 L 67.2857 150 L 60.1429 150 L 60.1429 150 L 54.1429 150 L 54.1429 150 L 47 150"/>
      <path id="side_004" style="fill:none;stroke:#000000;stroke-width:0.0508" d="M 47 150 L 47 143.75 L 50 143.75 L 50 137.75 L 47 137.75 L 47 131.5 L 50 131.5 L 50 125.5 L 47 125.5 L 47 119.25 L 50 119.25 L 50 113.25 L 47 113.25 L 47 110"/>
    </g>
    <g id="xdivider_001">
      <path id="side_005" style="fill:none;stroke:#000000;stroke-width:0.0508" d="M 2 200 L 9.14286 200 L 9.14286 197 L 15.1429 197 L 15.1429 200 L 22.2857 200 L 22.2857 197 L 28.2857 197 L 28.2857 200 L 35.4286 200 L 35.4286 197 L 41.4286 197 L 41.4286 200 L 48.5714 200 L 48.5714 197 L 54.5714 197 L 54.5714 200 L 61.7143 200 L 61.7143 197 L 67.7143 197 L 67.7143 200 L 74.8571 200 L 74.8571 197 L 80.8571 197 L 80.8571 200 L 88 200"/>
      <path id="side_006" style="fill:none;stroke:#000000;stroke-width:0.0508" d="M 88 200 L 88 203.25 L 85 203.25 L 85 209.25 L 88 209.25 L 88 215.5 L 85 215.5 L 85 221.5 L 88 221.5 L 88 227.75 L 85 227.75 L 85 233.75 L 88 233.75 L 88 240"/>
      <path id="slot_001" style="fill:none;stroke:#000000;stroke-width:0.0508" d="M 43.5 197 L 43.5 217 L 46.5 217 L 46.5 197 L 43.5 197 Z"/>
      <path id="side_007" style="fill:none;stroke:#000000;stroke-width:0.0508" d="M 88 240 L 80.8571 240 L 80.8571 240 L 74.8571 240 L 74.8571 240 L 67.7143 240 L 67.7143 240 L 61.7143 240 L 61.7143 240 L 54.5714 240 L 54.5714 240 L 48.5714 240 L 48.5714 240 L 41.4286 240 L 41.4286 240 L 35.4286 240 L 35.4286 240 L 28.2857 240 L 28.2857 240 L 22.2857 240 L 22.2857 240 L 15.1429 240 L 15.1429 240 L 9.1429 240 L 9.1429 240 L 2 240"/>
      <path id="side_008" style="fill:none;stroke:#000000;stroke-width:0.0508" d="M 2 240 L 2 233.75 L 5 233.75 L 5 227.75 L 2 227.75 L 2 221.5 L 5 221.5 L 5 215.5 L 2 215.5 L 2 209.25 L 5 209.25 L 5 203.25 L 2 203.25 L 2 200"/>
    </g>
    <g id="piece_002">
      <path id="side_009" style="fill:none;stroke:#000000;stroke-width:0.0508" d="M 2 2 L 8.25 2 L 8.25 2 L 14.25 2 L 14.25 2 L 20.5 2 L 20.5 2 L 26.5 2 L 26.5 2 L 32.75 2 L 32.75 2 L 38.75 2 L 38.75 2 L 42 2"/>
      <path id="side_010" style="fill:none;stroke:#000000;stroke-width:0.0508" d="M 42 2 L 42 8.11111 L 45 8.11111 L 45 14.1111 L 42 14.1111 L 42 20.2222 L 45 20.2222 L 45 26.2222 L 42 26.2222 L 42 32.3333 L 45 32.3333 L 45 38.3333 L 42 38.3333 L 42 44.4444 L 45 44.4444 L 45 50.4444 L 42 50.4444 L 42 56.5556 L 45 56.5556 L 45 62.5556 L 42 62.5556 L 42 68.6667 L 45 68.6667 L 45 74.6667 L 42 74.6667 L 42 80.7778 L 45 80.7778 L 45 86.7778 L 42 86.7778 L 42 92.8889 L 45 92.8889 L 45 98.8889 L 42 98.8889 L 42 102"/>
      <path id="side_011" style="fill:none;stroke:#000000;stroke-width:0.0508" d="M 42 102 L 38.75 102 L 38.75 105 L 32.75 105 L 32.75 102 L 26.5 102 L 26.5 105 L 20.5 105 L 20.5 102 L 14.25 102 L 14.25 105 L 8.25 105 L 8.25 102 L 2 102"/>
      <path id="hole_004" style="fill:none;stroke:#000000;stroke-width:0.0508" d="M 42 52 L 38.75 52 L 38.75 55 L 42 55 L 42 52 Z"/>
      <path id="hole_005" style="fill:none;stroke:#000000;stroke-width:0.0508" d="M 32.75 52 L 26.5 52 L 26.5 55 L 32.75 55 L 32.75 52 Z"/>
      <path id="hole_006" style="fill:none;stroke:#000000;stroke-width:0.0508" d="M 20.5 52 L 14.25 52 L 14.25 55 L 20.5 55 L 20.5 52 Z"/>
      <path id="hole_007" style="fill:none;stroke:#000000;stroke-width:0.0508" d="M 8.25 52 L 2 52 L 2 55 L 8.25 55 L 8.25 52 Z"/>
      <path id="side_012" style="fill:none;stroke:#000000;stroke-width:0.0508" d="M 2 102 L 2 98.8889 L 2 98.8889 L 2 92.8889 L 2 92.8889 L 2 86.7778 L 2 86.7778 L 2 80.7778 L 2 80.7778 L 2 74.6667 L 2 74.6667 L 2 68.6667 L 2 68.6667 L 2 62.5556 L 2 62.5556 L 2 56.5556 L 2 56.5556 L 2 50.4444 L 2 50.4444 L 2 44.4444 L 2 44.4444 L 2 38.3333 L 2 38.3333 L 2 32.3333 L 2 32.3333 L 2 26.2222 L 2 26.2222 L 2 20.2222 L 2 20.2222 L 2 14.1111 L 2 14.1111 L 2 8.1111 L 2 8.1111 L 2 2"/>
    </g>
    <g id="ydivider_001">
      <path id="side_013" style="fill:none;stroke:#000000;stroke-width:0.0508" d="M 2 242 L 8.25 242 L 8.25 242 L 14.25 242 L 14.25 242 L 20.5 242 L 20.5 242 L 26.5 242 L 26.5 242 L 32.75 242 L 32.75 242 L 38.75 242 L 38.75 242 L 42 242"/>
      <path id="slot_002" style="fill:none;stroke:#000000;stroke-width:0.0508" d="M 2 289 L 22 289 L 22 292 L 2 292 L 2 289 Z"/>
      <path id="side_014" style="fill:none;stroke:#000000;stroke-width:0.0508" d="M 42 242 L 42 248.111 L 45 248.111 L 45 254.111 L 42 254.111 L 42 260.222 L 45 260.222 L 45 266.222 L 42 266.222 L 42 272.333 L 45 272.333 L 45 278.333 L 42 278.333 L 42 284.444 L 45 284.444 L 45 290.444 L 42 290.444 L 42 296.556 L 45 296.556 L 45 302.556 L 42 302.556 L 42 308.667 L 45 308.667 L 45 314.667 L 42 314.667 L 42 320.778 L 45 320.778 L 45 326.778 L 42 326.778 L 42 332.889 L 45 332.889 L 45 338.889 L 42 338.889 L 42 342"/>
      <path id="side_015" style="fill:none;stroke:#000000;stroke-width:0.0508" d="M 42 342 L 38.75 342 L 38.75 345 L 32.75 345 L 32.75 342 L 26.5 342 L 26.5 345 L 20.5 345 L 20.5 342 L 14.25 342 L 14.25 345 L 8.25 345 L 8.25 342 L 2 342"/>
      <path id="side_016" style="fill:none;stroke:#000000;stroke-width:0.0508" d="M 2 342 L 2 338.889 L 2 338.889 L 2 332.889 L 2 332.889 L 2 326.778 L 2 326.778 L 2 320.778 L 2 320.778 L 2 314.667 L 2 314.667 L 2 308.667 L 2 308.667 L 2 302.556 L 2 302.556 L 2 296.556 L 2 296.556 L 2 290.444 L 2 290.444 L 2 284.444 L 2 284.444 L 2 278.333 L 2 278.333 L 2 272.333 L 2 272.333 L 2 266.222 L 2 266.222 L 2 260.222 L 2 260.222 L 2 254.111 L 2 254.111 L 2 248.111 L 2 248.111 L 2 242"/>
    </g>
    <g id="piece_003">
      <path id="side_017" style="fill:none;stroke:#000000;stroke-width:0.0508" d="M 47 2 L 54.1429 2 L 54.1429 2 L 60.1429 2 L 60.1429 2 L 67.2857 2 L 67.2857 2 L 73.2857 2 L 73.2857 2 L 80.4286 2 L 80.4286 2 L 86.4286 2 L 86.4286 2 L 93.5714 2 L 93.5714 2 L 99.5714 2 L 99.5714 2 L 106.714 2 L 106.714 2 L 112.714 2 L 112.714 2 L 119.857 2 L 119.857 2 L 125.857 2 L 125.857 2 L 133 2"/>
      <path id="side_018" style="fill:none;stroke:#000000;stroke-width:0.0508" d="M 133 2 L 133 8.11111 L 130 8.11111 L 130 14.1111 L 133 14.1111 L 133 20.2222 L 130 20.2222 L 130 26.2222 L 133 26.2222 L 133 32.3333 L 130 32.3333 L 130 38.3333 L 133 38.3333 L 133 44.4444 L 130 44.4444 L 130 50.4444 L 133 50.4444 L 133 56.5556 L 130 56.5556 L 130 62.5556 L 133 62.5556 L 133 68.6667 L 130 68.6667 L 130 74.6667 L 133 74.6667 L 133 80.7778 L 130 80.7778 L 130 86.7778 L 133 86.7778 L 133 92.8889 L 130 92.8889 L 130 98.8889 L 133 98.8889 L 133 105"/>
      <path id="hole_008" style="fill:none;stroke:#000000;stroke-width:0.0508" d="M 88.5 8.11111 L 88.5 14.1111 L 91.5 14.1111 L 91.5 8.11111 L 88.5 8.11111 Z"/>
      <path id="hole_009" style="fill:none;stroke:#000000;stroke-width:0.0508" d="M 88.5 20.2222 L 88.5 26.2222 L 91.5 26.2222 L 91.5 20.2222 L 88.5 20.2222 Z"/>
      <path id="hole_010" style="fill:none;stroke:#000000;stroke-width:0.0508" d="M 88.5 32.3333 L 88.5 38.3333 L 91.5 38.3333 L 91.5 32.3333 L 88.5 32.3333 Z"/>
      <path id="hole_011" style="fill:none;stroke:#000000;stroke-width:0.0508" d="M 88.5 44.4444 L 88.5 50.4444 L 91.5 50.4444 L 91.5 44.4444 L 88.5 44.4444 Z"/>
      <path id="hole_012" style="fill:none;stroke:#000000;stroke-width:0.0508" d="M 88.5 56.5556 L 88.5 62.5556 L 91.5 62.5556 L 91.5 56.5556 L 88.5 56.5556 Z"/>
      <path id="hole_013" style="fill:none;stroke:#000000;stroke-width:0.0508" d="M 88.5 68.6667 L 88.5 74.6667 L 91.5 74.6667 L 91.5 68.6667 L 88.5 68.6667 Z"/>
      <path id="hole_014" style="fill:none;stroke:#000000;stroke-width:0.0508" d="M 88.5 80.7778 L 88.5 86.7778 L 91.5 86.7778 L 91.5 80.7778 L 88.5 80.7778 Z"/>
      <path id="hole_015" style="fill:none;stroke:#000000;stroke-width:0.0508" d="M 88.5 92.8889 L 88.5 98.8889 L 91.5 98.8889 L 91.5 92.8889 L 88.5 92.8889 Z"/>
      <path id="side_019" style="fill:none;stroke:#000000;stroke-width:0.0508" d="M 133 105 L 125.857 105 L 125.857 102 L 119.857 102 L 119.857 105 L 112.714 105 L 112.714 102 L 106.714 102 L 106.714 105 L 99.5714 105 L 99.5714 102 L 93.5714 102 L 93.5714 105 L 86.4286 105 L 86.4286 102 L 80.4286 102 L 80.4286 105 L 73.2857 105 L 73.2857 102 L 67.2857 102 L 67.2857 105 L 60.1429 105 L 60.1429 102 L 54.1429 102 L 54.1429 105 L 47 105"/>
      <path id="hole_016" style="fill:none;stroke:#000000;stroke-width:0.0508" d="M 125.857 52 L 119.857 52 L 119.857 55 L 125.857 55 L 125.857 52 Z"/>
      <path id="hole_017" style="fill:none;stroke:#000000;stroke-width:0.0508" d="M 112.714 52 L 106.714 52 L 106.714 55 L 112.714 55 L 112.714 52 Z"/>
      <path id="hole_018" style="fill:none;stroke:#000000;stroke-width:0.0508" d="M 99.5714 52 L 93.5714 52 L 93.5714 55 L 99.5714 55 L 99.5714 52 Z"/>
      <path id="hole_019" style="fill:none;stroke:#000000;stroke-width:0.0508" d="M 86.4286 52 L 80.4286 52 L 80.4286 55 L 86.4286 55 L 86.4286 52 Z"/>
      <path id="hole_020" style="fill:none;stroke:#000000;stroke-width:0.0508" d="M 73.2857 52 L 67.2857 52 L 67.2857 55 L 73.2857 55 L 73.2857 52 Z"/>
      <path id="hole_021" style="fill:none;stroke:#000000;stroke-width:0.0508" d="M 60.1429 52 L 54.1429 52 L 54.1429 55 L 60.1429 55 L 60.1429 52 Z"/>
      <path id="side_020" style="fill:none;stroke:#000000;stroke-width:0.0508" d="M 47 105 L 47 98.8889 L 50 98.8889 L 50 92.8889 L 47 92.8889 L 47 86.7778 L 50 86.7778 L 50 80.7778 L 47 80.7778 L 47 74.6667 L 50 74.6667 L 50 68.6667 L 47 68.6667 L 47 62.5556 L 50 62.5556 L 50 56.5556 L 47 56.5556 L 47 50.4444 L 50 50.4444 L 50 44.4444 L 47 44.4444 L 47 38.3333 L 50 38.3333 L 50 32.3333 L 47 32.3333 L 47 26.2222 L 50 26.2222 L 50 20.2222 L 47 20.2222 L 47 14.1111 L 50 14.1111 L 50 8.1111 L 47 8.1111 L 47 2"/>
    </g>
    <g id="piece_004">
      <path id="side_021" style="fill:none;stroke:#000000;stroke-width:0.0508" d="M 138 2 L 141.25 2 L 141.25 2 L 147.25 2 L 147.25 2 L 153.5 2 L 153.5 2 L 159.5 2 L 159.5 2 L 165.75 2 L 165.75 2 L 171.75 2 L 171.75 2 L 178 2"/>
      <path id="side_022" style="fill:none;stroke:#000000;stroke-width:0.0508" d="M 178 2 L 178 8.11111 L 178 8.11111 L 178 14.1111 L 178 14.1111 L 178 20.2222 L 178 20.2222 L 178 26.2222 L 178 26.2222 L 178 32.3333 L 178 32.3333 L 178 38.3333 L 178 38.3333 L 178 44.4444 L 178 44.4444 L 178 50.4444 L 178 50.4444 L 178 56.5556 L 178 56.5556 L 178 62.5556 L 178 62.5556 L 178 68.6667 L 178 68.6667 L 178 74.6667 L 178 74.6667 L 178 80.7778 L 178 80.7778 L 178 86.7778 L 178 86.7778 L 178 92.8889 L 178 92.8889 L 178 98.8889 L 178 98.8889 L 178 102"/>
      <path id="side_023" style="fill:none;stroke:#000000;stroke-width:0.0508" d="M 178 102 L 171.75 102 L 171.75 105 L 165.75 105 L 165.75 102 L 159.5 102 L 159.5 105 L 153.5 105 L 153.5 102 L 147.25 102 L 147.25 105 L 141.25 105 L 141.25 102 L 138 102"/>
      <path id="hole_022" style="fill:none;stroke:#000000;stroke-width:0.0508" d="M 178 52 L 171.75 52 L 171.75 55 L 178 55 L 178 52 Z"/>
      <path id="hole_023" style="fill:none;stroke:#000000;stroke-width:0.0508" d="M 165.75 52 L 159.5 52 L 159.5 55 L 165.75 55 L 165.75 52 Z"/>
      <path id="hole_024" style="fill:none;stroke:#000000;stroke-width:0.0508" d="M 153.5 52 L 147.25 52 L 147.25 55 L 153.5 55 L 153.5 52 Z"/>
      <path id="hole_025" style="fill:none;stroke:#000000;stroke-width:0.0508" d="M 141.25 52 L 138 52 L 138 55 L 141.25 55 L 141.25 52 Z"/>
      <path id="side_024" style="fill:none;stroke:#000000;stroke-width:0.0508" d="M 138 102 L 138 98.8889 L 135 98.8889 L 135 92.8889 L 138 92.8889 L 138 86.7778 L 135 86.7778 L 135 80.7778 L 138 80.7778 L 138 74.6667 L 135 74.6667 L 135 68.6667 L 138 68.6667 L 138 62.5556 L 135 62.5556 L 135 56.5556 L 138 56.5556 L 138 50.4444 L 135 50.4444 L 135 44.4444 L 138 44.4444 L 138 38.3333 L 135 38.3333 L 135 32.3333 L 138 32.3333 L 138 26.2222 L 135 26.2222 L 135 20.2222 L 138 20.2222 L 138 14.1111 L 135 14.1111 L 135 8.1111 L 138 8.1111 L 138 2"/>
    </g>
  </g>
</svg>