<!-- Created with Inkscape (http://www.inkscape.org/) -->
<svg xmlns:inkscape="http://www.inkscape.org/namespaces/inkscape" xmlns:sodipodi="http://sodipodi.sourceforge.net/DTD/sodipodi-0.dtd" xmlns="http://www.w3.org/2000/svg" xmlns:svg="http://www.w3.org/2000/svg" width="170mm" height="343mm" viewBox="0 0 170 343" version="1.1" id="svg5" inkscape:version="1.1.2 (0a00cf5339, 2022-02-04)" sodipodi:docname="blank.svg">
  <sodipodi:namedview id="namedview7" pagecolor="#ffffff" bordercolor="#666666" borderopacity="1.0" inkscape:pageshadow="2" inkscape:pageopacity="0.0" inkscape:pagecheckerboard="0" inkscape:document-units="mm" showgrid="false" inkscape:zoom="0.64052329" inkscape:cx="397.33138" inkscape:cy="561.25984" inkscape:window-width="2086" inkscape:window-height="1376" inkscape:window-x="0" inkscape:window-y="0" inkscape:window-maximized="1" inkscape:current-layer="layer1"/>
  <defs id="defs2"/>
  <g inkscape:label="Layer 1" inkscape:groupmode="layer" id="layer1">
    <metadata text="createArgs=['--unit=mm', '--inside=1', '--length=80', '--width=100', '--depth=40', '--equal=0', '--tab=6', '--tabtype=0', '--tabsymmetry=0', '--dimpleheight=0', '--dimplelength=0', '--hairline=0', '--thickness=3', '--kerf=0', '--style=1', '--div_l=1', '--div_w=1', '--keydiv=0', '--spacing=2', '--boxtype=5']"/>
    <path id="piece_001" style="fill:none;stroke:#000000;stroke-width:1" d="M 44 161.333 L 47 161.333 L 47 167.333 L 44 167.333 L 44 176.667 L 47 176.667 L 47 182.667 L 44 182.667 L 44 189 L 130 189 L 130 182.667 L 127 182.667 L 127 176.667 L 130 176.667 L 130 167.333 L 127 167.333 L 127 161.333 L 130 161.333 L 130 155 L 51.1429 155 L 44 155 L 44 161.333 Z M 85.5 161.333 L 88.5 161.333 L 88.5 167.333 L 85.5 167.333 L 85.5 161.333 Z M 85.5 176.667 L 88.5 176.667 L 88.5 182.667 L 85.5 182.667 L 85.5 176.667 Z"/>
    <path id="xdivider_001" style="fill:none;stroke:#000000;stroke-width:1" d="M 7.14286 197 L 0 197 L 0 203.333 L 3 203.333 L 3 209.333 L 0 209.333 L 0 218.667 L 3 218.667 L 3 224.667 L 0 224.667 L 0 231 L 86 231 L 86 224.667 L 83 224.667 L 83 218.667 L 86 218.667 L 86 209.333 L 83 209.333 L 83 203.333 L 86 203.333 L 86 197 L 44.5 197 L 44.5 214 L 41.5 214 L 41.5 197 L 7.14286 197 Z"/>
    <path id="piece_002" style="fill:none;stroke:#000000;stroke-width:1" d="M 39 47 L 32.6667 47 L 32.6667 44 L 26.6667 44 L 26.6667 47 L 17.3333 47 L 17.3333 44 L 11.3333 44 L 11.3333 47 L 5 47 L 5 95.5 L 11.3333 95.5 L 11.3333 98.5 L 5 98.5 L 5 147 L 11.3333 147 L 11.3333 150 L 17.3333 150 L 17.3333 147 L 26.6667 147 L 26.6667 150 L 32.6667 150 L 32.6667 147 L 39 147 L 39 98.5 L 32.6667 98.5 L 32.6667 95.5 L 39 95.5 L 39 47 Z M 17.3333 95.5 L 26.6667 95.5 L 26.6667 98.5 L 17.3333 98.5 L 17.3333 95.5 Z"/>
    <path id="ydivider_001" style="fill:none;stroke:#000000;stroke-width:1" d="M 3 339 L 9.3333 339 L 9.3333 342 L 15.3333 342 L 15.3333 339 L 24.6667 339 L 24.6667 342 L 30.6667 342 L 30.6667 339 L 37 339 L 37 239 L 30.6667 239 L 30.6667 236 L 24.6667 236 L 24.6667 239 L 15.3333 239 L 15.3333 236 L 9.33333 236 L 9.33333 239 L 3 239 L 3 287.5 L 20 287.5 L 20 290.5 L 3 290.5 L 3 339 Z"/>
    <path id="piece_003" style="fill:none;stroke:#000000;stroke-width:1" d="M 169 47 L 162.667 47 L 162.667 44 L 156.667 44 L 156.667 47 L 147.333 47 L 147.333 44 L 141.333 44 L 141.333 47 L 135 47 L 135 95.5 L 141.333 95.5 L 141.333 98.5 L 135 98.5 L 135 147 L 141.333 147 L 141.333 150 L 147.333 150 L 147.333 147 L 156.667 147 L 156.667 150 L 162.667 150 L 162.667 147 L 169 147 L 169 98.5 L 162.667 98.5 L 162.667 95.5 L 169 95.5 L 169 47 Z M 147.333 95.5 L 156.667 95.5 L 156.667 98.5 L 147.333 98.5 L 147.333 95.5 Z"/>
    <path id="piece_004" style="fill:none;stroke:#000000;stroke-width:1" d="M 44 11.3333 L 47 11.3333 L 47 17.3333 L 44 17.3333 L 44 26.6667 L 47 26.6667 L 47 32.6667 L 44 32.6667 L 44 39 L 130 39 L 130 32.6667 L 127 32.6667 L 127 26.6667 L 130 26.6667 L 130 17.3333 L 127 17.3333 L 127 11.3333 L 130 11.3333 L 130 5 L 51.1429 5 L 44 5 L 44 11.3333 Z M 85.5 11.3333 L 88.5 11.3333 L 88.5 17.3333 L 85.5 17.3333 L 85.5 11.3333 Z M 85.5 26.6667 L 88.5 26.6667 L 88.5 32.6667 L 85.5 32.6667 L 85.5 26.6667 Z"/>
  </g>
</svg>