<!-- Created with Inkscape (http://www.inkscape.org/) -->
<svg xmlns:inkscape="http://www.inkscape.org/namespaces/inkscape" xmlns:sodipodi="http://sodipodi.sourceforge.net/DTD/sodipodi-0.dtd" xmlns="http://www.w3.org/2000/svg" xmlns:svg="http://www.w3.org/2000/svg" width="131mm" height="340mm" viewBox="0 0 131 340" version="1.1" id="svg5" inkscape:version="1.1.2 (0a00cf5339, 2022-02-04)" sodipodi:docname="blank.svg">
  <sodipodi:namedview id="namedview7" pagecolor="#ffffff" bordercolor="#666666" borderopacity="1.0" inkscape:pageshadow="2" inkscape:pageopacity="0.0" inkscape:pagecheckerboard="0" inkscape:document-units="mm" showgrid="false" inkscape:zoom="0.64052329" inkscape:cx="397.33138" inkscape:cy="561.25984" inkscape:window-width="2086" inkscape:window-height="1376" inkscape:window-x="0" inkscape:window-y="0" inkscape:window-maximized="1" inkscape:current-layer="layer1"/>
  <defs id="defs2"/>
  <g inkscape:label="Layer 1" inkscape:groupmode="layer" id="layer1">
    <metadata text="createArgs=['--unit=mm', '--inside=1', '--length=80', '--width=100', '--depth=40', '--equal=0', '--tab=6', '--tabtype=0', '--tabsymmetry=0', '--dimpleheight=0', '--dimplelength=0', '--hairline=1', '--thickness=3', '--kerf=0', '--style=1', '--div_l=1', '--div_w=1', '--keydiv=0', '--spacing=2', '--boxtype=6']"/>
    <g id="piece_001">
      <path id="side_001" style="fill:none;stroke:#000000;stroke-width:0.0508" d="M 2 2 L 8.25 2 L 8.25 2 L 14.25 2 L 14.25 2 L 20.5 2 L 20.5 2 L 26.5 2 L 26.5 2 L 32.75 2 L 32.75 2 L 38.75 2 L 38.75 2 L 42 2"/>
      <path id="side_002" style="fill:none;stroke:#000000;stroke-width:0.0508" d="M 42 2 L 42 9.25 L 45 9.25 L 45 15.25 L 42 15.25 L 42 22.5 L 45 22.5 L 45 28.5 L 42 28.5 L 42 35.75 L 45 35.75 L 45 41.75 L 42 41.75 L 42 49 L 45 49 L 45 55 L 42 55 L 42 62.25 L 45 62.25 L 45 68.25 L 42 68.25 L 42 75.5 L 45 75.5 L 45 81.5 L 42 81.5 L 42 88.75 L 45 88.75 L 45 94.75 L 42 94.75 L 42 102"/>
      <path id="side_003" style="fill:none;stroke:#000000;stroke-width:0.0508" d="M 42 102 L 38.75 102 L 38.75 102 L 32.75 102 L 32.75 102 L 26.5 102 L 26.5 102 L 20.5 102 L 20.5 102 L 14.25 102 L 14.25 102 L 8.25 102 L 8.25 102 L 2 102"/>
      <path id="side_004" style="fill:none;stroke:#000000;stroke-width:0.0508" d="M 2 102 L 2 94.75 L 2 94.75 L 2 88.75 L 2 88.75 L 2 81.5 L 2 81.5 L 2 75.5 L 2 75.5 L 2 68.25 L 2 68.25 L 2 62.25 L 2 62.25 L 2 55 L 2 55 L 2 49 L 2 49 L 2 41.75 L 2 41.75 L 2 35.75 L 2 35.75 L 2 28.5 L 2 28.5 L 2 22.5 L 2 22.5 L 2 15.25 L 2 15.25 L 2 9.25 L 2 9.25 L 2 2"/>
    </g>
    <g id="xdivider_001">
      <path id="side_005" style="fill:none;stroke:#000000;stroke-width:0.0508" d="M 2 194 L 8.71429 194 L 8.71429 194 L 14.7143 194 L 14.7143 194 L 21.4286 194 L 21.4286 194 L 27.4286 194 L 27.4286 194 L 34.1429 194 L 34.1429 194 L 40.1429 194 L 40.1429 194 L 46.8571 194 L 46.8571 194 L 52.8571 194 L 52.8571 194 L 59.5714 194 L 59.5714 194 L 65.5714 194 L 65.5714 194 L 72.2857 194 L 72.2857 194 L 78.2857 194 L 78.2857 194 L 85 194"/>
      <path id="side_006" style="fill:none;stroke:#000000;stroke-width:0.0508" d="M 85 194 L 85 200.25 L 85 200.25 L 85 206.25 L 85 206.25 L 85 212.5 L 85 212.5 L 85 218.5 L 85 218.5 L 85 224.75 L 85 224.75 L 85 230.75 L 85 230.75 L 85 237"/>
      <path id="slot_001" style="fill:none;stroke:#000000;stroke-width:0.0508" d="M 42 194 L 42 214 L 45 214 L 45 194 L 42 194 Z"/>
      <path id="side_007" style="fill:none;stroke:#000000;stroke-width:0.0508" d="M 85 237 L 78.2857 237 L 78.2857 237 L 72.2857 237 L 72.2857 237 L 65.5714 237 L 65.5714 237 L 59.5714 237 L 59.5714 237 L 52.8571 237 L 52.8571 237 L 46.8571 237 L 46.8571 237 L 40.1429 237 L 40.1429 237 L 34.1429 237 L 34.1429 237 L 27.4286 237 L 27.4286 237 L 21.4286 237 L 21.4286 237 L 14.7143 237 L 14.7143 237 L 8.7143 237 L 8.7143 237 L 2 237"/>
      <path id="side_008" style="fill:none;stroke:#000000;stroke-width:0.0508" d="M 2 237 L 2 230.75 L 2 230.75 L 2 224.75 L 2 224.75 L 2 218.5 L 2 218.5 L 2 212.5 L 2 212.5 L 2 206.25 L 2 206.25 L 2 200.25 L 2 200.25 L 2 194"/>
    </g>
    <g id="ydivider_001">
      <path id="side_009" style="fill:none;stroke:#000000;stroke-width:0.0508" d="M 2 239 L 8.25 239 L 8.25 239 L 14.25 239 L 14.25 239 L 20.5 239 L 20.5 239 L 26.5 239 L 26.5 239 L 32.75 239 L 32.75 239 L 38.75 239 L 38.75 239 L 42 239"/>
      <path id="slot_002" style="fill:none;stroke:#000000;stroke-width:0.0508" d="M 2 284.5 L 22 284.5 L 22 287.5 L 2 287.5 L 2 284.5 Z"/>
      <path id="side_010" style="fill:none;stroke:#000000;stroke-width:0.0508" d="M 42 239 L 42 246.25 L 45 246.25 L 45 252.25 L 42 252.25 L 42 259.5 L 45 259.5 L 45 265.5 L 42 265.5 L 42 272.75 L 45 272.75 L 45 278.75 L 42 278.75 L 42 286 L 45 286 L 45 292 L 42 292 L 42 299.25 L 45 299.25 L 45 305.25 L 42 305.25 L 42 312.5 L 45 312.5 L 45 318.5 L 42 318.5 L 42 325.75 L 45 325.75 L 45 331.75 L 42 331.75 L 42 339"/>
      <path id="side_011" style="fill:none;stroke:#000000;stroke-width:0.0508" d="M 42 339 L 38.75 339 L 38.75 339 L 32.75 339 L 32.75 339 L 26.5 339 L 26.5 339 L 20.5 339 L 20.5 339 L 14.25 339 L 14.25 339 L 8.25 339 L 8.25 339 L 2 339"/>
      <path id="side_012" style="fill:none;stroke:#000000;stroke-width:0.0508" d="M 2 339 L 2 331.75 L 2 331.75 L 2 325.75 L 2 325.75 L 2 318.5 L 2 318.5 L 2 312.5 L 2 312.5 L 2 305.25 L 2 305.25 L 2 299.25 L 2 299.25 L 2 292 L 2 292 L 2 286 L 2 286 L 2 278.75 L 2 278.75 L 2 272.75 L 2 272.75 L 2 265.5 L 2 265.5 L 2 259.5 L 2 259.5 L 2 252.25 L 2 252.25 L 2 246.25 L 2 246.25 L 2 239"/>
    </g>
    <g id="piece_002">
      <path id="side_013" style="fill:none;stroke:#000000;stroke-width:0.0508" d="M 47 2 L 53.7143 2 L 53.7143 2 L 59.7143 2 L 59.7143 2 L 66.4286 2 L 66.4286 2 L 72.4286 2 L 72.4286 2 L 79.1429 2 L 79.1429 2 L 85.1429 2 L 85.1429 2 L 91.8571 2 L 91.8571 2 L 97.8571 2 L 97.8571 2 L 104.571 2 L 104.571 2 L 110.571 2 L 110.571 2 L 117.286 2 L 117.286 2 L 123.286 2 L 123.286 2 L 130 2"/>
      <path id="side_014" style="fill:none;stroke:#000000;stroke-width:0.0508" d="M 130 2 L 130 9.25 L 130 9.25 L 130 15.25 L 130 15.25 L 130 22.5 L 130 22.5 L 130 28.5 L 130 28.5 L 130 35.75 L 130 35.75 L 130 41.75 L 130 41.75 L 130 49 L 130 49 L 130 55 L 130 55 L 130 62.25 L 130 62.25 L 130 68.25 L 130 68.25 L 130 75.5 L 130 75.5 L 130 81.5 L 130 81.5 L 130 88.75 L 130 88.75 L 130 94.75 L 130 94.75 L 130 102"/>
      <path id="side_015" style="fill:none;stroke:#000000;stroke-width:0.0508" d="M 130 102 L 123.286 102 L 123.286 102 L 117.286 102 L 117.286 102 L 110.571 102 L 110.571 102 L 104.571 102 L 104.571 102 L 97.8571 102 L 97.8571 102 L 91.8571 102 L 91.8571 102 L 85.1429 102 L 85.1429 102 L 79.1429 102 L 79.1429 102 L 72.4286 102 L 72.4286 102 L 66.4286 102 L 66.4286 102 L 59.7143 102 L 59.7143 102 L 53.7143 102 L 53.7143 102 L 47 102"/>
      <path id="side_016" style="fill:none;stroke:#000000;stroke-width:0.0508" d="M 47 102 L 47 94.75 L 50 94.75 L 50 88.75 L 47 88.75 L 47 81.5 L 50 81.5 L 50 75.5 L 47 75.5 L 47 68.25 L 50 68.25 L 50 62.25 L 47 62.25 L 47 55 L 50 55 L 50 49 L 47 49 L 47 41.75 L 50 41.75 L 50 35.75 L 47 35.75 L 47 28.5 L 50 28.5 L 50 22.5 L 47 22.5 L 47 15.25 L 50 15.25 L 50 9.25 L 47 9.25 L 47 2"/>
      <path id="hole_001" style="fill:none;stroke:#000000;stroke-width:0.0508" d="M 90 94.75 L 90 88.75 L 87 88.75 L 87 94.75 L 90 94.75 Z"/>
      <path id="hole_002" style="fill:none;stroke:#000000;stroke-width:0.0508" d="M 90 81.5 L 90 75.5 L 87 75.5 L 87 81.5 L 90 81.5 Z"/>
      <path id="hole_003" style="fill:none;stroke:#000000;stroke-width:0.0508" d="M 90 68.25 L 90 62.25 L 87 62.25 L 87 68.25 L 90 68.25 Z"/>
      <path id="hole_004" style="fill:none;stroke:#000000;stroke-width:0.0508" d="M 90 55 L 90 49 L 87 49 L 87 55 L 90 55 Z"/>
      <path id="hole_005" style="fill:none;stroke:#000000;stroke-width:0.0508" d="M 90 41.75 L 90 35.75 L 87 35.75 L 87 41.75 L 90 41.75 Z"/>
      <path id="hole_006" style="fill:none;stroke:#000000;stroke-width:0.0508" d="M 90 28.5 L 90 22.5 L 87 22.5 L 87 28.5 L 90 28.5 Z"/>
      <path id="hole_007" style="fill:none;stroke:#000000;stroke-width:0.0508" d="M 90 15.25 L 90 9.25 L 87 9.25 L 87 15.25 L 90 15.25 Z"/>
    </g>
  </g>
</svg>