<!-- Created with Inkscape (http://www.inkscape.org/) -->
<svg xmlns:inkscape="http://www.inkscape.org/namespaces/inkscape" xmlns:sodipodi="http://sodipodi.sourceforge.net/DTD/sodipodi-0.dtd" xmlns="http://www.w3.org/2000/svg" xmlns:svg="http://www.w3.org/2000/svg" width="215mm" height="235mm" viewBox="0 0 215 235" version="1.1" sodipodi:docname="blank.svg">
  <sodipodi:namedview/>
  <defs id="defaults"/>
  <g inkscape:groupmode="layer" inkscape:label="Tabbed Box" id="tabbedbox">
    <metadata text="$ boxmaker.py --unit=mm --inside=1 --length=80 --width=100 --depth=40 --equal=0 --tab=6 --tabtype=0 --tabsymmetry=0 --dimpleheight=0 --dimplelength=0 --hairline=1 --thickness=3 --kerf=0 --style=1 --div-l=1 --div-w=1 --keydiv=0 --spacing=2 --boxtype=5"/>
    <g id="back">
      <path id="side_001" style="fill:none;stroke:#000000;stroke-width:0.0508" d="M 44 152 L 130 152"/>
      <path id="side_002" style="fill:none;stroke:#000000;stroke-width:0.0508" d="M 130 152 L 130 161.333 L 127 161.333 L 127 167.333 L 130 167.333 L 130 176.667 L 127 176.667 L 127 182.667 L 130 182.667 L 130 192"/>
      <path id="hole_001" style="fill:none;stroke:#000000;stroke-width:0.0508" d="M 88.5 161.333 L 88.5 167.333 L 85.5 167.333 L 85.5 161.333 L 88.5 161.333 Z"/>
      <path id="hole_002" style="fill:none;stroke:#000000;stroke-width:0.0508" d="M 88.5 176.667 L 88.5 182.667 L 85.5 182.667 L 85.5 176.667 L 88.5 176.667 Z"/>
      <path id="side_003" style="fill:none;stroke:#000000;stroke-width:0.0508" d="M 130 192 L 44 192"/>
      <path id="side_004" style="fill:none;stroke:#000000;stroke-width:0.0508" d="M 44 192 L 44 182.667 L 47 182.667 L 47 176.667 L 44 176.667 L 44 167.333 L 47 167.333 L 47 161.333 L 44 161.333 L 44 152"/>
    </g>
    <g id="xdivider">
      <path id="side_005" style="fill:none;stroke:#000000;stroke-width:0.0508" d="M 44 194 L 130 194"/>
      <path id="side_006" style="fill:none;stroke:#000000;stroke-width:0.0508" d="M 130 194 L 130 203.333 L 127 203.333 L 127 209.333 L 130 209.333 L 130 218.667 L 127 218.667 L 127 224.667 L 130 224.667 L 130 234"/>
      <path id="side_007" style="fill:none;stroke:#000000;stroke-width:0.0508" d="M 130 234 L 44 234"/>
      <path id="side_008" style="fill:none;stroke:#000000;stroke-width:0.0508" d="M 44 234 L 44 224.667 L 47 224.667 L 47 218.667 L 44 218.667 L 44 209.333 L 47 209.333 L 47 203.333 L 44 203.333 L 44 194"/>
      <path id="slot_001" style="fill:none;stroke:#000000;stroke-width:0.0508" d="M 85.5 234 L 85.5 214 L 88.5 214 L 88.5 234 L 85.5 234 Z"/>
    </g>
    <g id="left">
      <path id="side_009" style="fill:none;stroke:#000000;stroke-width:0.0508" d="M 2 47 L 11.3333 47 L 11.3333 44 L 17.3333 44 L 17.3333 47 L 26.6667 47 L 26.6667 44 L 32.6667 44 L 32.6667 47 L 42 47"/>
      <path id="hole_003" style="fill:none;stroke:#000000;stroke-width:0.0508" d="M 2 95.5 L 11.3333 95.5 L 11.3333 98.5 L 2 98.5 L 2 95.5 Z"/>
      <path id="hole_004" style="fill:none;stroke:#000000;stroke-width:0.0508" d="M 17.3333 95.5 L 26.6667 95.5 L 26.6667 98.5 L 17.3333 98.5 L 17.3333 95.5 Z"/>
      <path id="hole_005" style="fill:none;stroke:#000000;stroke-width:0.0508" d="M 32.6667 95.5 L 42 95.5 L 42 98.5 L 32.6667 98.5 L 32.6667 95.5 Z"/>
      <path id="side_010" style="fill:none;stroke:#000000;stroke-width:0.0508" d="M 42 47 L 42 147"/>
      <path id="side_011" style="fill:none;stroke:#000000;stroke-width:0.0508" d="M 42 147 L 32.6667 147 L 32.6667 150 L 26.6667 150 L 26.6667 147 L 17.3333 147 L 17.3333 150 L 11.3333 150 L 11.3333 147 L 2 147"/>
      <path id="side_012" style="fill:none;stroke:#000000;stroke-width:0.0508" d="M 2 147 L 2 47"/>
    </g>
    <g id="ydivider">
      <path id="side_013" style="fill:none;stroke:#000000;stroke-width:0.0508" d="M 174 47 L 183.333 47 L 183.333 44 L 189.333 44 L 189.333 47 L 198.667 47 L 198.667 44 L 204.667 44 L 204.667 47 L 214 47"/>
      <path id="slot_002" style="fill:none;stroke:#000000;stroke-width:0.0508" d="M 174 95.5 L 194 95.5 L 194 98.5 L 174 98.5 L 174 95.5 Z"/>
      <path id="side_014" style="fill:none;stroke:#000000;stroke-width:0.0508" d="M 214 47 L 214 147"/>
      <path id="side_015" style="fill:none;stroke:#000000;stroke-width:0.0508" d="M 214 147 L 204.667 147 L 204.667 150 L 198.667 150 L 198.667 147 L 189.333 147 L 189.333 150 L 183.333 150 L 183.333 147 L 174 147"/>
      <path id="side_016" style="fill:none;stroke:#000000;stroke-width:0.0508" d="M 174 147 L 174 47"/>
    </g>
    <g id="right">
      <path id="side_017" style="fill:none;stroke:#000000;stroke-width:0.0508" d="M 132 47 L 141.333 47 L 141.333 44 L 147.333 44 L 147.333 47 L 156.667 47 L 156.667 44 L 162.667 44 L 162.667 47 L 172 47"/>
      <path id="hole_006" style="fill:none;stroke:#000000;stroke-width:0.0508" d="M 132 95.5 L 141.333 95.5 L 141.333 98.5 L 132 98.5 L 132 95.5 Z"/>
      <path id="hole_007" style="fill:none;stroke:#000000;stroke-width:0.0508" d="M 147.333 95.5 L 156.667 95.5 L 156.667 98.5 L 147.333 98.5 L 147.333 95.5 Z"/>
      <path id="hole_008" style="fill:none;stroke:#000000;stroke-width:0.0508" d="M 162.667 95.5 L 172 95.5 L 172 98.5 L 162.667 98.5 L 162.667 95.5 Z"/>
      <path id="side_018" style="fill:none;stroke:#000000;stroke-width:0.0508" d="M 172 47 L 172 147"/>
      <path id="side_019" style="fill:none;stroke:#000000;stroke-width:0.0508" d="M 172 147 L 162.667 147 L 162.667 150 L 156.667 150 L 156.667 147 L 147.333 147 L 147.333 150 L 141.333 150 L 141.333 147 L 132 147"/>
      <path id="side_020" style="fill:none;stroke:#000000;stroke-width:0.0508" d="M 132 147 L 132 47"/>
    </g>
    <g id="front">
      <path id="side_021" style="fill:none;stroke:#000000;stroke-width:0.0508" d="M 44 2 L 130 2"/>
      <path id="side_022" style="fill:none;stroke:#000000;stroke-width:0.0508" d="M 130 2 L 130 11.3333 L 127 11.3333 L 127 17.3333 L 130 17.3333 L 130 26.6667 L 127 26.6667 L 127 32.6667 L 130 32.6667 L 130 42"/>
      <path id="hole_009" style="fill:none;stroke:#000000;stroke-width:0.0508" d="M 88.5 11.3333 L 88.5 17.3333 L 85.5 17.3333 L 85.5 11.3333 L 88.5 11.3333 Z"/>
      <path id="hole_010" style="fill:none;stroke:#000000;stroke-width:0.0508" d="M 88.5 26.6667 L 88.5 32.6667 L 85.5 32.6667 L 85.5 26.6667 L 88.5 26.6667 Z"/>
      <path id="side_023" style="fill:none;stroke:#000000;stroke-width:0.0508" d="M 130 42 L 44 42"/>
      <path id="side_024" style="fill:none;stroke:#000000;stroke-width:0.0508" d="M 44 42 L 44 32.6667 L 47 32.6667 L 47 26.6667 L 44 26.6667 L 44 17.3333 L 47 17.3333 L 47 11.3333 L 44 11.3333 L 44 2"/>
    </g>
  </g>
</svg>