<!-- Created with Inkscape (http://www.inkscape.org/) -->
<svg xmlns:inkscape="http://www.inkscape.org/namespaces/inkscape" xmlns:sodipodi="http://sodipodi.sourceforge.net/DTD/sodipodi-0.dtd" xmlns="http://www.w3.org/2000/svg" xmlns:svg="http://www.w3.org/2000/svg" width="170mm" height="343mm" viewBox="0 0 170 343" version="1.1" id="svg5" inkscape:version="1.1.2 (0a00cf5339, 2022-02-04)" sodipodi:docname="blank.svg">
  <sodipodi:namedview id="namedview7" pagecolor="#ffffff" bordercolor="#666666" borderopacity="1.0" inkscape:pageshadow="2" inkscape:pageopacity="0.0" inkscape:pagecheckerboard="0" inkscape:document-units="mm" showgrid="false" inkscape:zoom="0.64052329" inkscape:cx="397.33138" inkscape:cy="561.25984" inkscape:window-width="2086" inkscape:window-height="1376" inkscape:window-x="0" inkscape:window-y="0" inkscape:window-maximized="1" inkscape:current-layer="layer1"/>
  <defs id="defs2"/>
  <g inkscape:label="Layer 1" inkscape:groupmode="layer" id="layer1">
    <metadata text="createArgs=['--unit=mm', '--inside=1', '--length=80', '--width=100', '--depth=40', '--equal=0', '--tab=6', '--tabtype=0', '--tabsymmetry=0', '--dimpleheight=0', '--dimplelength=0', '--hairline=0', '--thickness=3', '--kerf=0', '--style=1', '--div_l=1', '--div_w=1', '--keydiv=0', '--spacing=2', '--boxtype=5']"/>
    <g id="piece_001">
      <path id="side_001" style="fill:none;stroke:#000000;stroke-width:1" d="M 44 155 L 51.1429 155 L 51.1429 155 L 57.1429 155 L 57.1429 155 L 64.2857 155 L 64.2857 155 L 70.2857 155 L 70.2857 155 L 77.4286 155 L 77.4286 155 L 83.4286 155 L 83.4286 155 L 90.5714 155 L 90.5714 155 L 96.5714 155 L 96.5714 155 L 103.714 155 L 103.714 155 L 109.714 155 L 109.714 155 L 116.857 155 L 116.857 155 L 122.857 155 L 122.857 155 L 130 155"/>
      <path id="side_002" style="fill:none;stroke:#000000;stroke-width:1" d="M 130 155 L 130 161.333 L 127 161.333 L 127 167.333 L 130 167.333 L 130 176.667 L 127 176.667 L 127 182.667 L 130 182.667 L 130 189"/>
      <path id="hole_001" style="fill:none;stroke:#000000;stroke-width:1" d="M 85.5 161.333 L 85.5 167.333 L 88.5 167.333 L 88.5 161.333 L 85.5 161.333 Z"/>
      <path id="hole_002" style="fill:none;stroke:#000000;stroke-width:1" d="M 85.5 176.667 L 85.5 182.667 L 88.5 182.667 L 88.5 176.667 L 85.5 176.667 Z"/>
      <path id="side_003" style="fill:none;stroke:#000000;stroke-width:1" d="M 130 189 L 122.857 189 L 122.857 189 L 116.857 189 L 116.857 189 L 109.714 189 L 109.714 189 L 103.714 189 L 103.714 189 L 96.5714 189 L 96.5714 189 L 90.5714 189 L 90.5714 189 L 83.4286 189 L 83.4286 189 L 77.4286 189 L 77.4286 189 L 70.2857 189 L 70.2857 189 L 64.2857 189 L 64.2857 189 L 57.1429 189 L 57.1429 189 L 51.1429 189 L 51.1429 189 L 44 189"/>
      <path id="side_004" style="fill:none;stroke:#000000;stroke-width:1" d="M 44 189 L 44 182.667 L 47 182.667 L 47 176.667 L 44 176.667 L 44 167.333 L 47 167.333 L 47 161.333 L 44 161.333 L 44 155"/>
    </g>
    <g id="xdivider_001">
      <path id="side_005" style="fill:none;stroke:#000000;stroke-width:1" d="M 0 197 L 7.14286 197 L 7.14286 197 L 13.1429 197 L 13.1429 197 L 20.2857 197 L 20.2857 197 L 26.2857 197 L 26.2857 197 L 33.4286 197 L 33.4286 197 L 39.4286 197 L 39.4286 197 L 46.5714 197 L 46.5714 197 L 52.5714 197 L 52.5714 197 L 59.7143 197 L 59.7143 197 L 65.7143 197 L 65.7143 197 L 72.8571 197 L 72.8571 197 L 78.8571 197 L 78.8571 197 L 86 197"/>
      <path id="side_006" style="fill:none;stroke:#000000;stroke-width:1" d="M 86 197 L 86 203.333 L 83 203.333 L 83 209.333 L 86 209.333 L 86 218.667 L 83 218.667 L 83 224.667 L 86 224.667 L 86 231"/>
      <path id="slot_001" style="fill:none;stroke:#000000;stroke-width:1" d="M 41.5 194 L 41.5 214 L 44.5 214 L 44.5 194 L 41.5 194 Z"/>
      <path id="side_007" style="fill:none;stroke:#000000;stroke-width:1" d="M 86 231 L 78.8571 231 L 78.8571 231 L 72.8571 231 L 72.8571 231 L 65.7143 231 L 65.7143 231 L 59.7143 231 L 59.7143 231 L 52.5714 231 L 52.5714 231 L 46.5714 231 L 46.5714 231 L 39.4286 231 L 39.4286 231 L 33.4286 231 L 33.4286 231 L 26.2857 231 L 26.2857 231 L 20.2857 231 L 20.2857 231 L 13.1429 231 L 13.1429 231 L 7.1429 231 L 7.1429 231 L 0 231"/>
      <path id="side_008" style="fill:none;stroke:#000000;stroke-width:1" d="M 0 231 L 0 224.667 L 3 224.667 L 3 218.667 L 0 218.667 L 0 209.333 L 3 209.333 L 3 203.333 L 0 203.333 L 0 197"/>
    </g>
    <g id="piece_002">
      <path id="side_009" style="fill:none;stroke:#000000;stroke-width:1" d="M 5 47 L 11.3333 47 L 11.3333 44 L 17.3333 44 L 17.3333 47 L 26.6667 47 L 26.6667 44 L 32.6667 44 L 32.6667 47 L 39 47"/>
      <path id="hole_003" style="fill:none;stroke:#000000;stroke-width:1" d="M 5 98.5 L 11.3333 98.5 L 11.3333 95.5 L 5 95.5 L 5 98.5 Z"/>
      <path id="hole_004" style="fill:none;stroke:#000000;stroke-width:1" d="M 17.3333 98.5 L 26.6667 98.5 L 26.6667 95.5 L 17.3333 95.5 L 17.3333 98.5 Z"/>
      <path id="hole_005" style="fill:none;stroke:#000000;stroke-width:1" d="M 32.6667 98.5 L 39 98.5 L 39 95.5 L 32.6667 95.5 L 32.6667 98.5 Z"/>
      <path id="side_010" style="fill:none;stroke:#000000;stroke-width:1" d="M 39 47 L 39 50.4444 L 39 50.4444 L 39 56.4444 L 39 56.4444 L 39 62.8889 L 39 62.8889 L 39 68.8889 L 39 68.8889 L 39 75.3333 L 39 75.3333 L 39 81.3333 L 39 81.3333 L 39 87.7778 L 39 87.7778 L 39 93.7778 L 39 93.7778 L 39 100.222 L 39 100.222 L 39 106.222 L 39 106.222 L 39 112.667 L 39 112.667 L 39 118.667 L 39 118.667 L 39 125.111 L 39 125.111 L 39 131.111 L 39 131.111 L 39 137.556 L 39 137.556 L 39 143.556 L 39 143.556 L 39 147"/>
      <path id="side_011" style="fill:none;stroke:#000000;stroke-width:1" d="M 39 147 L 32.6667 147 L 32.6667 150 L 26.6667 150 L 26.6667 147 L 17.3333 147 L 17.3333 150 L 11.3333 150 L 11.3333 147 L 5 147"/>
      <path id="side_012" style="fill:none;stroke:#000000;stroke-width:1" d="M 5 147 L 5 143.556 L 5 143.556 L 5 137.556 L 5 137.556 L 5 131.111 L 5 131.111 L 5 125.111 L 5 125.111 L 5 118.667 L 5 118.667 L 5 112.667 L 5 112.667 L 5 106.222 L 5 106.222 L 5 100.222 L 5 100.222 L 5 93.7778 L 5 93.7778 L 5 87.7778 L 5 87.7778 L 5 81.3333 L 5 81.3333 L 5 75.3333 L 5 75.3333 L 5 68.8889 L 5 68.8889 L 5 62.8889 L 5 62.8889 L 5 56.4444 L 5 56.4444 L 5 50.4444 L 5 50.4444 L 5 47"/>
    </g>
    <g id="ydivider_001">
      <path id="side_013" style="fill:none;stroke:#000000;stroke-width:1" d="M 3 239 L 9.33333 239 L 9.33333 236 L 15.3333 236 L 15.3333 239 L 24.6667 239 L 24.6667 236 L 30.6667 236 L 30.6667 239 L 37 239"/>
      <path id="slot_002" style="fill:none;stroke:#000000;stroke-width:1" d="M 0 287.5 L 20 287.5 L 20 290.5 L 0 290.5 L 0 287.5 Z"/>
      <path id="side_014" style="fill:none;stroke:#000000;stroke-width:1" d="M 37 239 L 37 242.444 L 37 242.444 L 37 248.444 L 37 248.444 L 37 254.889 L 37 254.889 L 37 260.889 L 37 260.889 L 37 267.333 L 37 267.333 L 37 273.333 L 37 273.333 L 37 279.778 L 37 279.778 L 37 285.778 L 37 285.778 L 37 292.222 L 37 292.222 L 37 298.222 L 37 298.222 L 37 304.667 L 37 304.667 L 37 310.667 L 37 310.667 L 37 317.111 L 37 317.111 L 37 323.111 L 37 323.111 L 37 329.556 L 37 329.556 L 37 335.556 L 37 335.556 L 37 339"/>
      <path id="side_015" style="fill:none;stroke:#000000;stroke-width:1" d="M 37 339 L 30.6667 339 L 30.6667 342 L 24.6667 342 L 24.6667 339 L 15.3333 339 L 15.3333 342 L 9.3333 342 L 9.3333 339 L 3 339"/>
      <path id="side_016" style="fill:none;stroke:#000000;stroke-width:1" d="M 3 339 L 3 335.556 L 3 335.556 L 3 329.556 L 3 329.556 L 3 323.111 L 3 323.111 L 3 317.111 L 3 317.111 L 3 310.667 L 3 310.667 L 3 304.667 L 3 304.667 L 3 298.222 L 3 298.222 L 3 292.222 L 3 292.222 L 3 285.778 L 3 285.778 L 3 279.778 L 3 279.778 L 3 273.333 L 3 273.333 L 3 267.333 L 3 267.333 L 3 260.889 L 3 260.889 L 3 254.889 L 3 254.889 L 3 248.444 L 3 248.444 L 3 242.444 L 3 242.444 L 3 239"/>
    </g>
    <g id="piece_003">
      <path id="side_017" style="fill:none;stroke:#000000;stroke-width:1" d="M 135 47 L 141.333 47 L 141.333 44 L 147.333 44 L 147.333 47 L 156.667 47 L 156.667 44 L 162.667 44 L 162.667 47 L 169 47"/>
      <path id="hole_006" style="fill:none;stroke:#000000;stroke-width:1" d="M 135 98.5 L 141.333 98.5 L 141.333 95.5 L 135 95.5 L 135 98.5 Z"/>
      <path id="hole_007" style="fill:none;stroke:#000000;stroke-width:1" d="M 147.333 98.5 L 156.667 98.5 L 156.667 95.5 L 147.333 95.5 L 147.333 98.5 Z"/>
      <path id="hole_008" style="fill:none;stroke:#000000;stroke-width:1" d="M 162.667 98.5 L 169 98.5 L 169 95.5 L 162.667 95.5 L 162.667 98.5 Z"/>
      <path id="side_018" style="fill:none;stroke:#000000;stroke-width:1" d="M 169 47 L 169 50.4444 L 169 50.4444 L 169 56.4444 L 169 56.4444 L 169 62.8889 L 169 62.8889 L 169 68.8889 L 169 68.8889 L 169 75.3333 L 169 75.3333 L 169 81.3333 L 169 81.3333 L 169 87.7778 L 169 87.7778 L 169 93.7778 L 169 93.7778 L 169 100.222 L 169 100.222 L 169 106.222 L 169 106.222 L 169 112.667 L 169 112.667 L 169 118.667 L 169 118.667 L 169 125.111 L 169 125.111 L 169 131.111 L 169 131.111 L 169 137.556 L 169 137.556 L 169 143.556 L 169 143.556 L 169 147"/>
      <path id="side_019" style="fill:none;stroke:#000000;stroke-width:1" d="M 169 147 L 162.667 147 L 162.667 150 L 156.667 150 L 156.667 147 L 147.333 147 L 147.333 150 L 141.333 150 L 141.333 147 L 135 147"/>
      <path id="side_020" style="fill:none;stroke:#000000;stroke-width:1" d="M 135 147 L 135 143.556 L 135 143.556 L 135 137.556 L 135 137.556 L 135 131.111 L 135 131.111 L 135 125.111 L 135 125.111 L 135 118.667 L 135 118.667 L 135 112.667 L 135 112.667 L 135 106.222 L 135 106.222 L 135 100.222 L 135 100.222 L 135 93.7778 L 135 93.7778 L 135 87.7778 L 135 87.7778 L 135 81.3333 L 135 81.3333 L 135 75.3333 L 135 75.3333 L 135 68.8889 L 135 68.8889 L 135 62.8889 L 135 62.8889 L 135 56.4444 L 135 56.4444 L 135 50.4444 L 135 50.4444 L 135 47"/>
    </g>
    <g id="piece_004">
      <path id="side_021" style="fill:none;stroke:#000000;stroke-width:1" d="M 44 5 L 51.1429 5 L 51.1429 5 L 57.1429 5 L 57.1429 5 L 64.2857 5 L 64.2857 5 L 70.2857 5 L 70.2857 5 L 77.4286 5 L 77.4286 5 L 83.4286 5 L 83.4286 5 L 90.5714 5 L 90.5714 5 L 96.5714 5 L 96.5714 5 L 103.714 5 L 103.714 5 L 109.714 5 L 109.714 5 L 116.857 5 L 116.857 5 L 122.857 5 L 122.857 5 L 130 5"/>
      <path id="side_022" style="fill:none;stroke:#000000;stroke-width:1" d="M 130 5 L 130 11.3333 L 127 11.3333 L 127 17.3333 L 130 17.3333 L 130 26.6667 L 127 26.6667 L 127 32.6667 L 130 32.6667 L 130 39"/>
      <path id="hole_009" style="fill:none;stroke:#000000;stroke-width:1" d="M 85.5 11.3333 L 85.5 17.3333 L 88.5 17.3333 L 88.5 11.3333 L 85.5 11.3333 Z"/>
      <path id="hole_010" style="fill:none;stroke:#000000;stroke-width:1" d="M 85.5 26.6667 L 85.5 32.6667 L 88.5 32.6667 L 88.5 26.6667 L 85.5 26.6667 Z"/>
      <path id="side_023" style="fill:none;stroke:#000000;stroke-width:1" d="M 130 39 L 122.857 39 L 122.857 39 L 116.857 39 L 116.857 39 L 109.714 39 L 109.714 39 L 103.714 39 L 103.714 39 L 96.5714 39 L 96.5714 39 L 90.5714 39 L 90.5714 39 L 83.4286 39 L 83.4286 39 L 77.4286 39 L 77.4286 39 L 70.2857 39 L 70.2857 39 L 64.2857 39 L 64.2857 39 L 57.1429 39 L 57.1429 39 L 51.1429 39 L 51.1429 39 L 44 39"/>
      <path id="side_024" style="fill:none;stroke:#000000;stroke-width:1" d="M 44 39 L 44 32.6667 L 47 32.6667 L 47 26.6667 L 44 26.6667 L 44 17.3333 L 47 17.3333 L 47 11.3333 L 44 11.3333 L 44 5"/>
    </g>
  </g>
</svg>