<!-- Created with Inkscape (http://www.inkscape.org/) -->
<svg xmlns:inkscape="http://www.inkscape.org/namespaces/inkscape" xmlns:sodipodi="http://sodipodi.sourceforge.net/DTD/sodipodi-0.dtd" xmlns="http://www.w3.org/2000/svg" xmlns:svg="http://www.w3.org/2000/svg" width="176mm" height="196mm" viewBox="0 0 176 196" version="1.1" id="svg5" inkscape:version="1.1.2 (0a00cf5339, 2022-02-04)" sodipodi:docname="blank.svg">
  <sodipodi:namedview id="namedview7" pagecolor="#ffffff" bordercolor="#666666" borderopacity="1.0" inkscape:pageshadow="2" inkscape:pageopacity="0.0" inkscape:pagecheckerboard="0" inkscape:document-units="mm" showgrid="false" inkscape:zoom="0.64052329" inkscape:cx="397.33138" inkscape:cy="561.25984" inkscape:window-width="2086" inkscape:window-height="1376" inkscape:window-x="0" inkscape:window-y="0" inkscape:window-maximized="1" inkscape:current-layer="layer1"/>
  <defs id="defs2"/>
  <g inkscape:label="Layer 1" inkscape:groupmode="layer" id="layer1">
    <metadata text="createArgs=['--unit=mm', '--inside=1', '--length=80', '--width=100', '--depth=40', '--equal=0', '--tab=6', '--tabtype=0', '--tabsymmetry=0', '--dimpleheight=0', '--dimplelength=0', '--hairline=1', '--thickness=3', '--kerf=0', '--style=1', '--div_l=1', '--div_w=1', '--keydiv=0', '--spacing=2', '--boxtype=4']"/>
    <g id="piece_001">
      <path id="side_001" style="fill:none;stroke:#000000;stroke-width:0.0508" d="m 47 110 l 6.7143 0 l 0 -3 l 6 0 l 0 3 l 6.7143 0 l 0 -3 l 6 0 l 0 3 l 6.7143 0 l 0 -3 l 6 0 l 0 3 l 6.7142 0 l 0 -3 l 6 0 l 0 3 l 6.7139 0 l 0 -3 l 6 0 l 0 3 l 6.715 0 l 0 -3 l 6 0 l 0 3 l 6.714 0"/>
      <path id="side_002" style="fill:none;stroke:#000000;stroke-width:0.0508" d="m 130 110 l 0 3.25 l 0 0 l 0 6 l 0 0 l 0 6.25 l 0 0 l 0 6 l 0 0 l 0 6.25 l 0 0 l 0 6 l 0 0 l 0 6.25"/>
      <path id="side_003" style="fill:none;stroke:#000000;stroke-width:0.0508" d="m 130 150 l -6.714 0 l 0 0 l -6 0 l 0 0 l -6.715 0 l 0 0 l -6 0 l 0 0 l -6.7139 0 l 0 0 l -6 0 l 0 0 l -6.7142 0 l 0 0 l -6 0 l 0 0 l -6.7143 0 l 0 0 l -6 0 l 0 0 l -6.7143 0 l 0 0 l -6 0 l 0 0 l -6.7143 0"/>
      <path id="side_004" style="fill:none;stroke:#000000;stroke-width:0.0508" d="m 47 150 l 0 -6.25 l 3 0 l 0 -6 l -3 0 l 0 -6.25 l 3 0 l 0 -6 l -3 0 l 0 -6.25 l 3 0 l 0 -6 l -3 0 l 0 -3.25"/>
      <path id="hole_001" style="fill:none;stroke:#000000;stroke-width:0.0508" d="m 90 143.75 l 0 -6 l -3 0 l 0 6 l 3 0 z"/>
      <path id="hole_002" style="fill:none;stroke:#000000;stroke-width:0.0508" d="m 90 131.5 l 0 -6 l -3 0 l 0 6 l 3 0 z"/>
      <path id="hole_003" style="fill:none;stroke:#000000;stroke-width:0.0508" d="m 90 119.25 l 0 -6 l -3 0 l 0 6 l 3 0 z"/>
    </g>
    <g id="xdivider_001">
      <path id="side_005" style="fill:none;stroke:#000000;stroke-width:0.0508" d="m 47 155 l 7.1429 0 l 0 -3 l 6 0 l 0 3 l 7.1428 0 l 0 -3 l 6 0 l 0 3 l 7.1429 0 l 0 -3 l 6 0 l 0 3 l 7.1428 0 l 0 -3 l 6 0 l 0 3 l 7.1426 0 l 0 -3 l 6 0 l 0 3 l 7.143 0 l 0 -3 l 6 0 l 0 3 l 4.143 0"/>
      <path id="side_006" style="fill:none;stroke:#000000;stroke-width:0.0508" d="m 130 155 l 0 3.25 l 0 0 l 0 6 l 0 0 l 0 6.25 l 0 0 l 0 6 l 0 0 l 0 6.25 l 0 0 l 0 6 l 0 0 l 0 6.25"/>
      <path id="slot_001" style="fill:none;stroke:#000000;stroke-width:0.0508" d="m 87 152 l 0 23 l 3 0 l 0 -23 l -3 0 z"/>
      <path id="side_007" style="fill:none;stroke:#000000;stroke-width:0.0508" d="m 130 195 l -4.143 0 l 0 0 l -6 0 l 0 0 l -7.143 0 l 0 0 l -6 0 l 0 0 l -7.1426 0 l 0 0 l -6 0 l 0 0 l -7.1428 0 l 0 0 l -6 0 l 0 0 l -7.1429 0 l 0 0 l -6 0 l 0 0 l -7.1428 0 l 0 0 l -6 0 l 0 0 l -7.1429 0"/>
      <path id="side_008" style="fill:none;stroke:#000000;stroke-width:0.0508" d="m 47 195 l 0 -6.25 l 3 0 l 0 -6 l -3 0 l 0 -6.25 l 3 0 l 0 -6 l -3 0 l 0 -6.25 l 3 0 l 0 -6 l -3 0 l 0 -3.25"/>
    </g>
    <g id="piece_002">
      <path id="side_009" style="fill:none;stroke:#000000;stroke-width:0.0508" d="m 2 2 l 6.25 0 l 0 0 l 6 0 l 0 0 l 6.25 0 l 0 0 l 6 0 l 0 0 l 6.25 0 l 0 0 l 6 0 l 0 0 l 3.25 0"/>
      <path id="side_010" style="fill:none;stroke:#000000;stroke-width:0.0508" d="m 42 2 l 0 6.11111 l 3 0 l 0 5.99999 l -3 0 l 0 6.1111 l 3 0 l 0 6 l -3 0 l 0 6.1111 l 3 0 l 0 6 l -3 0 l 0 6.1111 l 3 0 l 0 6 l -3 0 l 0 6.1112 l 3 0 l 0 6 l -3 0 l 0 6.1111 l 3 0 l 0 6 l -3 0 l 0 6.1111 l 3 0 l 0 6 l -3 0 l 0 6.1111 l 3 0 l 0 6 l -3 0 l 0 3.1111"/>
      <path id="side_011" style="fill:none;stroke:#000000;stroke-width:0.0508" d="m 42 102 l -3.25 0 l 0 3 l -6 0 l 0 -3 l -6.25 0 l 0 3 l -6 0 l 0 -3 l -6.25 0 l 0 3 l -6 0 l 0 -3 l -6.25 0"/>
      <path id="hole_004" style="fill:none;stroke:#000000;stroke-width:0.0508" d="m 42 52 l -3.25 0 l 0 3 l 3.25 0 l 0 -3 z"/>
      <path id="hole_005" style="fill:none;stroke:#000000;stroke-width:0.0508" d="m 32.75 52 l -6.25 0 l 0 3 l 6.25 0 l 0 -3 z"/>
      <path id="hole_006" style="fill:none;stroke:#000000;stroke-width:0.0508" d="m 20.5 52 l -6.25 0 l 0 3 l 6.25 0 l 0 -3 z"/>
      <path id="hole_007" style="fill:none;stroke:#000000;stroke-width:0.0508" d="m 8.25 52 l -6.25 0 l 0 3 l 6.25 0 l 0 -3 z"/>
      <path id="side_012" style="fill:none;stroke:#000000;stroke-width:0.0508" d="m 2 102 l 0 -3.1111 l 0 0 l 0 -6 l 0 0 l 0 -6.1111 l 0 0 l 0 -6 l 0 0 l 0 -6.1111 l 0 0 l 0 -6 l 0 0 l 0 -6.1111 l 0 0 l 0 -6 l 0 0 l 0 -6.1112 l 0 0 l 0 -6 l 0 0 l 0 -6.1111 l 0 0 l 0 -6 l 0 0 l 0 -6.1111 l 0 0 l 0 -6 l 0 0 l 0 -6.1111 l 0 0 l 0 -6 l 0 0 l 0 -6.1111"/>
    </g>
    <g id="ydivider_001">
      <path id="side_013" style="fill:none;stroke:#000000;stroke-width:0.0508" d="m 132 2 l 6.25 0 l 0 0 l 6 0 l 0 0 l 6.25 0 l 0 0 l 6 0 l 0 0 l 6.25 0 l 0 0 l 6 0 l 0 0 l 3.25 0"/>
      <path id="slot_002" style="fill:none;stroke:#000000;stroke-width:0.0508" d="m 132 49 l 20 0 l 0 3 l -20 0 l 0 -3 z"/>
      <path id="side_014" style="fill:none;stroke:#000000;stroke-width:0.0508" d="m 172 2 l 0 3.44444 l 3 0 l 0 5.99996 l -3 0 l 0 6.4445 l 3 0 l 0 6 l -3 0 l 0 6.4444 l 3 0 l 0 6 l -3 0 l 0 6.4445 l 3 0 l 0 6 l -3 0 l 0 6.4444 l 3 0 l 0 6 l -3 0 l 0 6.4445 l 3 0 l 0 6 l -3 0 l 0 6.4444 l 3 0 l 0 6 l -3 0 l 0 6.4445 l 3 0 l 0 6 l -3 0 l 0 3.4444"/>
      <path id="side_015" style="fill:none;stroke:#000000;stroke-width:0.0508" d="m 172 102 l -3.25 0 l 0 3 l -6 0 l 0 -3 l -6.25 0 l 0 3 l -6 0 l 0 -3 l -6.25 0 l 0 3 l -6 0 l 0 -3 l -6.25 0"/>
      <path id="side_016" style="fill:none;stroke:#000000;stroke-width:0.0508" d="m 132 102 l 0 -3.4444 l 0 0 l 0 -6 l 0 0 l 0 -6.4445 l 0 0 l 0 -6 l 0 0 l 0 -6.4444 l 0 0 l 0 -6 l 0 0 l 0 -6.4445 l 0 0 l 0 -6 l 0 0 l 0 -6.4444 l 0 0 l 0 -6 l 0 0 l 0 -6.4445 l 0 0 l 0 -6 l 0 0 l 0 -6.4444 l 0 0 l 0 -6 l 0 0 l 0 -6.4445 l 0 0 l 0 -6 l 0 0 l 0 -3.4444"/>
    </g>
    <g id="piece_003">
      <path id="side_017" style="fill:none;stroke:#000000;stroke-width:0.0508" d="m 47 2 l 6.7143 0 l 0 0 l 6 0 l 0 0 l 6.7143 0 l 0 0 l 6 0 l 0 0 l 6.7143 0 l 0 0 l 6 0 l 0 0 l 6.7142 0 l 0 0 l 6 0 l 0 0 l 6.7139 0 l 0 0 l 6 0 l 0 0 l 6.715 0 l 0 0 l 6 0 l 0 0 l 6.714 0"/>
      <path id="side_018" style="fill:none;stroke:#000000;stroke-width:0.0508" d="m 130 2 l 0 6.11111 l 0 0 l 0 5.99999 l 0 0 l 0 6.1111 l 0 0 l 0 6 l 0 0 l 0 6.1111 l 0 0 l 0 6 l 0 0 l 0 6.1111 l 0 0 l 0 6 l 0 0 l 0 6.1112 l 0 0 l 0 6 l 0 0 l 0 6.1111 l 0 0 l 0 6 l 0 0 l 0 6.1111 l 0 0 l 0 6 l 0 0 l 0 6.1111 l 0 0 l 0 6 l 0 0 l 0 6.1111"/>
      <path id="side_019" style="fill:none;stroke:#000000;stroke-width:0.0508" d="m 130 105 l -6.714 0 l 0 -3 l -6 0 l 0 3 l -6.715 0 l 0 -3 l -6 0 l 0 3 l -6.7139 0 l 0 -3 l -6 0 l 0 3 l -6.7142 0 l 0 -3 l -6 0 l 0 3 l -6.7143 0 l 0 -3 l -6 0 l 0 3 l -6.7143 0 l 0 -3 l -6 0 l 0 3 l -6.7143 0"/>
      <path id="hole_008" style="fill:none;stroke:#000000;stroke-width:0.0508" d="m 123.286 52 l -6 0 l 0 3 l 6 0 l 0 -3 z"/>
      <path id="hole_009" style="fill:none;stroke:#000000;stroke-width:0.0508" d="m 110.571 52 l -6 0 l 0 3 l 6 0 l 0 -3 z"/>
      <path id="hole_010" style="fill:none;stroke:#000000;stroke-width:0.0508" d="m 97.8571 52 l -6 0 l 0 3 l 6 0 l 0 -3 z"/>
      <path id="hole_011" style="fill:none;stroke:#000000;stroke-width:0.0508" d="m 85.1429 52 l -6 0 l 0 3 l 6 0 l 0 -3 z"/>
      <path id="hole_012" style="fill:none;stroke:#000000;stroke-width:0.0508" d="m 72.4286 52 l -6 0 l 0 3 l 6 0 l 0 -3 z"/>
      <path id="hole_013" style="fill:none;stroke:#000000;stroke-width:0.0508" d="m 59.7143 52 l -6 0 l 0 3 l 6 0 l 0 -3 z"/>
      <path id="side_020" style="fill:none;stroke:#000000;stroke-width:0.0508" d="m 47 105 l 0 -6.1111 l 3 0 l 0 -6 l -3 0 l 0 -6.1111 l 3 0 l 0 -6 l -3 0 l 0 -6.1111 l 3 0 l 0 -6 l -3 0 l 0 -6.1111 l 3 0 l 0 -6 l -3 0 l 0 -6.1112 l 3 0 l 0 -6 l -3 0 l 0 -6.1111 l 3 0 l 0 -6 l -3 0 l 0 -6.1111 l 3 0 l 0 -6 l -3 0 l 0 -6.1111 l 3 0 l 0 -6 l -3 0 l 0 -6.1111"/>
      <path id="hole_014" style="fill:none;stroke:#000000;stroke-width:0.0508" d="m 90 98.8889 l 0 -6 l -3 0 l 0 6 l 3 0 z"/>
      <path id="hole_015" style="fill:none;stroke:#000000;stroke-width:0.0508" d="m 90 86.7778 l 0 -6 l -3 0 l 0 6 l 3 0 z"/>
      <path id="hole_016" style="fill:none;stroke:#000000;stroke-width:0.0508" d="m 90 74.6667 l 0 -6 l -3 0 l 0 6 l 3 0 z"/>
      <path id="hole_017" style="fill:none;stroke:#000000;stroke-width:0.0508" d="m 90 62.5556 l 0 -6 l -3 0 l 0 6 l 3 0 z"/>
      <path id="hole_018" style="fill:none;stroke:#000000;stroke-width:0.0508" d="m 90 50.4444 l 0 -6 l -3 0 l 0 6 l 3 0 z"/>
      <path id="hole_019" style="fill:none;stroke:#000000;stroke-width:0.0508" d="m 90 38.3333 l 0 -6 l -3 0 l 0 6 l 3 0 z"/>
      <path id="hole_020" style="fill:none;stroke:#000000;stroke-width:0.0508" d="m 90 26.2222 l 0 -6 l -3 0 l 0 6 l 3 0 z"/>
      <path id="hole_021" style="fill:none;stroke:#000000;stroke-width:0.0508" d="m 90 14.1111 l 0 -6 l -3 0 l 0 6 l 3 0 z"/>
    </g>
  </g>
</svg>