<!-- Created with Inkscape (http://www.inkscape.org/) -->
<svg xmlns:inkscape="http://www.inkscape.org/namespaces/inkscape" xmlns:sodipodi="http://sodipodi.sourceforge.net/DTD/sodipodi-0.dtd" xmlns="http://www.w3.org/2000/svg" xmlns:svg="http://www.w3.org/2000/svg" width="176mm" height="196mm" viewBox="0 0 176 196" version="1.1" id="svg5" inkscape:version="1.1.2 (0a00cf5339, 2022-02-04)" sodipodi:docname="blank.svg">
  <sodipodi:namedview id="namedview7" pagecolor="#ffffff" bordercolor="#666666" borderopacity="1.0" inkscape:pageshadow="2" inkscape:pageopacity="0.0" inkscape:pagecheckerboard="0" inkscape:document-units="mm" showgrid="false" inkscape:zoom="0.64052329" inkscape:cx="397.33138" inkscape:cy="561.25984" inkscape:window-width="2086" inkscape:window-height="1376" inkscape:window-x="0" inkscape:window-y="0" inkscape:window-maximized="1" inkscape:current-layer="layer1"/>
  <defs id="defs2"/>
  <g inkscape:label="Layer 1" inkscape:groupmode="layer" id="layer1">
    <metadata text="createArgs=['--unit=mm', '--inside=1', '--length=80', '--width=100', '--depth=40', '--equal=0', '--tab=6', '--tabtype=0', '--tabsymmetry=0', '--dimpleheight=0', '--dimplelength=0', '--hairline=1', '--thickness=3', '--kerf=0', '--style=1', '--div_l=1', '--div_w=1', '--keydiv=0', '--spacing=2', '--boxtype=4']"/>
    <g id="piece_001">
      <path id="side_001" style="fill:none;stroke:#000000;stroke-width:0.0508" d="M 47 110 L 53.7143 110 L 53.7143 107 L 59.7143 107 L 59.7143 110 L 66.4286 110 L 66.4286 107 L 72.4286 107 L 72.4286 110 L 79.1429 110 L 79.1429 107 L 85.1429 107 L 85.1429 110 L 91.8571 110 L 91.8571 107 L 97.8571 107 L 97.8571 110 L 104.571 110 L 104.571 107 L 110.571 107 L 110.571 110 L 117.286 110 L 117.286 107 L 123.286 107 L 123.286 110 L 130 110"/>
      <path id="side_002" style="fill:none;stroke:#000000;stroke-width:0.0508" d="M 130 110 L 130 113.25 L 130 113.25 L 130 119.25 L 130 119.25 L 130 125.5 L 130 125.5 L 130 131.5 L 130 131.5 L 130 137.75 L 130 137.75 L 130 143.75 L 130 143.75 L 130 150"/>
      <path id="side_003" style="fill:none;stroke:#000000;stroke-width:0.0508" d="M 130 150 L 123.286 150 L 123.286 150 L 117.286 150 L 117.286 150 L 110.571 150 L 110.571 150 L 104.571 150 L 104.571 150 L 97.8571 150 L 97.8571 150 L 91.8571 150 L 91.8571 150 L 85.1429 150 L 85.1429 150 L 79.1429 150 L 79.1429 150 L 72.4286 150 L 72.4286 150 L 66.4286 150 L 66.4286 150 L 59.7143 150 L 59.7143 150 L 53.7143 150 L 53.7143 150 L 47 150"/>
      <path id="side_004" style="fill:none;stroke:#000000;stroke-width:0.0508" d="M 47 150 L 47 143.75 L 50 143.75 L 50 137.75 L 47 137.75 L 47 131.5 L 50 131.5 L 50 125.5 L 47 125.5 L 47 119.25 L 50 119.25 L 50 113.25 L 47 113.25 L 47 110"/>
      <path id="hole_001" style="fill:none;stroke:#000000;stroke-width:0.0508" d="M 91.5 143.75 L 91.5 137.75 L 88.5 137.75 L 88.5 143.75 L 91.5 143.75 Z"/>
      <path id="hole_002" style="fill:none;stroke:#000000;stroke-width:0.0508" d="M 91.5 131.5 L 91.5 125.5 L 88.5 125.5 L 88.5 131.5 L 91.5 131.5 Z"/>
      <path id="hole_003" style="fill:none;stroke:#000000;stroke-width:0.0508" d="M 91.5 119.25 L 91.5 113.25 L 88.5 113.25 L 88.5 119.25 L 91.5 119.25 Z"/>
    </g>
    <g id="xdivider_001">
      <path id="side_005" style="fill:none;stroke:#000000;stroke-width:0.0508" d="M 47 155 L 54.1429 155 L 54.1429 152 L 60.1429 152 L 60.1429 155 L 67.2857 155 L 67.2857 152 L 73.2857 152 L 73.2857 155 L 80.4286 155 L 80.4286 152 L 86.4286 152 L 86.4286 155 L 93.5714 155 L 93.5714 152 L 99.5714 152 L 99.5714 155 L 106.714 155 L 106.714 152 L 112.714 152 L 112.714 155 L 119.857 155 L 119.857 152 L 125.857 152 L 125.857 155 L 130 155"/>
      <path id="side_006" style="fill:none;stroke:#000000;stroke-width:0.0508" d="M 130 155 L 130 158.25 L 130 158.25 L 130 164.25 L 130 164.25 L 130 170.5 L 130 170.5 L 130 176.5 L 130 176.5 L 130 182.75 L 130 182.75 L 130 188.75 L 130 188.75 L 130 195"/>
      <path id="slot_001" style="fill:none;stroke:#000000;stroke-width:0.0508" d="M 91.5 152 L 91.5 175 L 88.5 175 L 88.5 152 L 91.5 152 Z"/>
      <path id="side_007" style="fill:none;stroke:#000000;stroke-width:0.0508" d="M 130 195 L 125.857 195 L 125.857 195 L 119.857 195 L 119.857 195 L 112.714 195 L 112.714 195 L 106.714 195 L 106.714 195 L 99.5714 195 L 99.5714 195 L 93.5714 195 L 93.5714 195 L 86.4286 195 L 86.4286 195 L 80.4286 195 L 80.4286 195 L 73.2857 195 L 73.2857 195 L 67.2857 195 L 67.2857 195 L 60.1429 195 L 60.1429 195 L 54.1429 195 L 54.1429 195 L 47 195"/>
      <path id="side_008" style="fill:none;stroke:#000000;stroke-width:0.0508" d="M 47 195 L 47 188.75 L 50 188.75 L 50 182.75 L 47 182.75 L 47 176.5 L 50 176.5 L 50 170.5 L 47 170.5 L 47 164.25 L 50 164.25 L 50 158.25 L 47 158.25 L 47 155"/>
    </g>
    <g id="piece_002">
      <path id="side_009" style="fill:none;stroke:#000000;stroke-width:0.0508" d="M 2 2 L 8.25 2 L 8.25 2 L 14.25 2 L 14.25 2 L 20.5 2 L 20.5 2 L 26.5 2 L 26.5 2 L 32.75 2 L 32.75 2 L 38.75 2 L 38.75 2 L 42 2"/>
      <path id="side_010" style="fill:none;stroke:#000000;stroke-width:0.0508" d="M 42 2 L 42 8.11111 L 45 8.11111 L 45 14.1111 L 42 14.1111 L 42 20.2222 L 45 20.2222 L 45 26.2222 L 42 26.2222 L 42 32.3333 L 45 32.3333 L 45 38.3333 L 42 38.3333 L 42 44.4444 L 45 44.4444 L 45 50.4444 L 42 50.4444 L 42 56.5556 L 45 56.5556 L 45 62.5556 L 42 62.5556 L 42 68.6667 L 45 68.6667 L 45 74.6667 L 42 74.6667 L 42 80.7778 L 45 80.7778 L 45 86.7778 L 42 86.7778 L 42 92.8889 L 45 92.8889 L 45 98.8889 L 42 98.8889 L 42 102"/>
      <path id="side_011" style="fill:none;stroke:#000000;stroke-width:0.0508" d="M 42 102 L 38.75 102 L 38.75 105 L 32.75 105 L 32.75 102 L 26.5 102 L 26.5 105 L 20.5 105 L 20.5 102 L 14.25 102 L 14.25 105 L 8.25 105 L 8.25 102 L 2 102"/>
      <path id="hole_004" style="fill:none;stroke:#000000;stroke-width:0.0508" d="M 42 53.5 L 38.75 53.5 L 38.75 50.5 L 42 50.5 L 42 53.5 Z"/>
      <path id="hole_005" style="fill:none;stroke:#000000;stroke-width:0.0508" d="M 32.75 53.5 L 26.5 53.5 L 26.5 50.5 L 32.75 50.5 L 32.75 53.5 Z"/>
      <path id="hole_006" style="fill:none;stroke:#000000;stroke-width:0.0508" d="M 20.5 53.5 L 14.25 53.5 L 14.25 50.5 L 20.5 50.5 L 20.5 53.5 Z"/>
      <path id="hole_007" style="fill:none;stroke:#000000;stroke-width:0.0508" d="M 8.25 53.5 L 2 53.5 L 2 50.5 L 8.25 50.5 L 8.25 53.5 Z"/>
      <path id="side_012" style="fill:none;stroke:#000000;stroke-width:0.0508" d="M 2 102 L 2 98.8889 L 2 98.8889 L 2 92.8889 L 2 92.8889 L 2 86.7778 L 2 86.7778 L 2 80.7778 L 2 80.7778 L 2 74.6667 L 2 74.6667 L 2 68.6667 L 2 68.6667 L 2 62.5556 L 2 62.5556 L 2 56.5556 L 2 56.5556 L 2 50.4444 L 2 50.4444 L 2 44.4444 L 2 44.4444 L 2 38.3333 L 2 38.3333 L 2 32.3333 L 2 32.3333 L 2 26.2222 L 2 26.2222 L 2 20.2222 L 2 20.2222 L 2 14.1111 L 2 14.1111 L 2 8.1111 L 2 8.1111 L 2 2"/>
    </g>
    <g id="ydivider_001">
      <path id="side_013" style="fill:none;stroke:#000000;stroke-width:0.0508" d="M 132 2 L 138.25 2 L 138.25 2 L 144.25 2 L 144.25 2 L 150.5 2 L 150.5 2 L 156.5 2 L 156.5 2 L 162.75 2 L 162.75 2 L 168.75 2 L 168.75 2 L 172 2"/>
      <path id="slot_002" style="fill:none;stroke:#000000;stroke-width:0.0508" d="M 132 50.5 L 152 50.5 L 152 53.5 L 132 53.5 L 132 50.5 Z"/>
      <path id="side_014" style="fill:none;stroke:#000000;stroke-width:0.0508" d="M 172 2 L 172 5.44444 L 175 5.44444 L 175 11.4444 L 172 11.4444 L 172 17.8889 L 175 17.8889 L 175 23.8889 L 172 23.8889 L 172 30.3333 L 175 30.3333 L 175 36.3333 L 172 36.3333 L 172 42.7778 L 175 42.7778 L 175 48.7778 L 172 48.7778 L 172 55.2222 L 175 55.2222 L 175 61.2222 L 172 61.2222 L 172 67.6667 L 175 67.6667 L 175 73.6667 L 172 73.6667 L 172 80.1111 L 175 80.1111 L 175 86.1111 L 172 86.1111 L 172 92.5556 L 175 92.5556 L 175 98.5556 L 172 98.5556 L 172 102"/>
      <path id="side_015" style="fill:none;stroke:#000000;stroke-width:0.0508" d="M 172 102 L 168.75 102 L 168.75 105 L 162.75 105 L 162.75 102 L 156.5 102 L 156.5 105 L 150.5 105 L 150.5 102 L 144.25 102 L 144.25 105 L 138.25 105 L 138.25 102 L 132 102"/>
      <path id="side_016" style="fill:none;stroke:#000000;stroke-width:0.0508" d="M 132 102 L 132 98.5556 L 132 98.5556 L 132 92.5556 L 132 92.5556 L 132 86.1111 L 132 86.1111 L 132 80.1111 L 132 80.1111 L 132 73.6667 L 132 73.6667 L 132 67.6667 L 132 67.6667 L 132 61.2222 L 132 61.2222 L 132 55.2222 L 132 55.2222 L 132 48.7778 L 132 48.7778 L 132 42.7778 L 132 42.7778 L 132 36.3333 L 132 36.3333 L 132 30.3333 L 132 30.3333 L 132 23.8889 L 132 23.8889 L 132 17.8889 L 132 17.8889 L 132 11.4444 L 132 11.4444 L 132 5.4444 L 132 5.4444 L 132 2"/>
    </g>
    <g id="piece_003">
      <path id="side_017" style="fill:none;stroke:#000000;stroke-width:0.0508" d="M 47 2 L 53.7143 2 L 53.7143 2 L 59.7143 2 L 59.7143 2 L 66.4286 2 L 66.4286 2 L 72.4286 2 L 72.4286 2 L 79.1429 2 L 79.1429 2 L 85.1429 2 L 85.1429 2 L 91.8571 2 L 91.8571 2 L 97.8571 2 L 97.8571 2 L 104.571 2 L 104.571 2 L 110.571 2 L 110.571 2 L 117.286 2 L 117.286 2 L 123.286 2 L 123.286 2 L 130 2"/>
      <path id="side_018" style="fill:none;stroke:#000000;stroke-width:0.0508" d="M 130 2 L 130 8.11111 L 130 8.11111 L 130 14.1111 L 130 14.1111 L 130 20.2222 L 130 20.2222 L 130 26.2222 L 130 26.2222 L 130 32.3333 L 130 32.3333 L 130 38.3333 L 130 38.3333 L 130 44.4444 L 130 44.4444 L 130 50.4444 L 130 50.4444 L 130 56.5556 L 130 56.5556 L 130 62.5556 L 130 62.5556 L 130 68.6667 L 130 68.6667 L 130 74.6667 L 130 74.6667 L 130 80.7778 L 130 80.7778 L 130 86.7778 L 130 86.7778 L 130 92.8889 L 130 92.8889 L 130 98.8889 L 130 98.8889 L 130 105"/>
      <path id="side_019" style="fill:none;stroke:#000000;stroke-width:0.0508" d="M 130 105 L 123.286 105 L 123.286 102 L 117.286 102 L 117.286 105 L 110.571 105 L 110.571 102 L 104.571 102 L 104.571 105 L 97.8571 105 L 97.8571 102 L 91.8571 102 L 91.8571 105 L 85.1429 105 L 85.1429 102 L 79.1429 102 L 79.1429 105 L 72.4286 105 L 72.4286 102 L 66.4286 102 L 66.4286 105 L 59.7143 105 L 59.7143 102 L 53.7143 102 L 53.7143 105 L 47 105"/>
      <path id="hole_008" style="fill:none;stroke:#000000;stroke-width:0.0508" d="M 123.286 50.5 L 117.286 50.5 L 117.286 53.5 L 123.286 53.5 L 123.286 50.5 Z"/>
      <path id="hole_009" style="fill:none;stroke:#000000;stroke-width:0.0508" d="M 110.571 50.5 L 104.571 50.5 L 104.571 53.5 L 110.571 53.5 L 110.571 50.5 Z"/>
      <path id="hole_010" style="fill:none;stroke:#000000;stroke-width:0.0508" d="M 97.8571 50.5 L 91.8571 50.5 L 91.8571 53.5 L 97.8571 53.5 L 97.8571 50.5 Z"/>
      <path id="hole_011" style="fill:none;stroke:#000000;stroke-width:0.0508" d="M 85.1429 50.5 L 79.1429 50.5 L 79.1429 53.5 L 85.1429 53.5 L 85.1429 50.5 Z"/>
      <path id="hole_012" style="fill:none;stroke:#000000;stroke-width:0.0508" d="M 72.4286 50.5 L 66.4286 50.5 L 66.4286 53.5 L 72.4286 53.5 L 72.4286 50.5 Z"/>
      <path id="hole_013" style="fill:none;stroke:#000000;stroke-width:0.0508" d="M 59.7143 50.5 L 53.7143 50.5 L 53.7143 53.5 L 59.7143 53.5 L 59.7143 50.5 Z"/>
      <path id="side_020" style="fill:none;stroke:#000000;stroke-width:0.0508" d="M 47 105 L 47 98.8889 L 50 98.8889 L 50 92.8889 L 47 92.8889 L 47 86.7778 L 50 86.7778 L 50 80.7778 L 47 80.7778 L 47 74.6667 L 50 74.6667 L 50 68.6667 L 47 68.6667 L 47 62.5556 L 50 62.5556 L 50 56.5556 L 47 56.5556 L 47 50.4444 L 50 50.4444 L 50 44.4444 L 47 44.4444 L 47 38.3333 L 50 38.3333 L 50 32.3333 L 47 32.3333 L 47 26.2222 L 50 26.2222 L 50 20.2222 L 47 20.2222 L 47 14.1111 L 50 14.1111 L 50 8.1111 L 47 8.1111 L 47 2"/>
      <path id="hole_014" style="fill:none;stroke:#000000;stroke-width:0.0508" d="M 91.5 98.8889 L 91.5 92.8889 L 88.5 92.8889 L 88.5 98.8889 L 91.5 98.8889 Z"/>
      <path id="hole_015" style="fill:none;stroke:#000000;stroke-width:0.0508" d="M 91.5 86.7778 L 91.5 80.7778 L 88.5 80.7778 L 88.5 86.7778 L 91.5 86.7778 Z"/>
      <path id="hole_016" style="fill:none;stroke:#000000;stroke-width:0.0508" d="M 91.5 74.6667 L 91.5 68.6667 L 88.5 68.6667 L 88.5 74.6667 L 91.5 74.6667 Z"/>
      <path id="hole_017" style="fill:none;stroke:#000000;stroke-width:0.0508" d="M 91.5 62.5556 L 91.5 56.5556 L 88.5 56.5556 L 88.5 62.5556 L 91.5 62.5556 Z"/>
      <path id="hole_018" style="fill:none;stroke:#000000;stroke-width:0.0508" d="M 91.5 50.4444 L 91.5 44.4444 L 88.5 44.4444 L 88.5 50.4444 L 91.5 50.4444 Z"/>
      <path id="hole_019" style="fill:none;stroke:#000000;stroke-width:0.0508" d="M 91.5 38.3333 L 91.5 32.3333 L 88.5 32.3333 L 88.5 38.3333 L 91.5 38.3333 Z"/>
      <path id="hole_020" style="fill:none;stroke:#000000;stroke-width:0.0508" d="M 91.5 26.2222 L 91.5 20.2222 L 88.5 20.2222 L 88.5 26.2222 L 91.5 26.2222 Z"/>
      <path id="hole_021" style="fill:none;stroke:#000000;stroke-width:0.0508" d="M 91.5 14.1111 L 91.5 8.1111 L 88.5 8.1111 L 88.5 14.1111 L 91.5 14.1111 Z"/>
    </g>
  </g>
</svg>