<!-- Created with Inkscape (http://www.inkscape.org/) -->
<svg xmlns:inkscape="http://www.inkscape.org/namespaces/inkscape" xmlns:sodipodi="http://sodipodi.sourceforge.net/DTD/sodipodi-0.dtd" xmlns="http://www.w3.org/2000/svg" xmlns:svg="http://www.w3.org/2000/svg" width="131mm" height="346mm" viewBox="0 0 131 346" version="1.1" id="svg5" inkscape:version="1.1.2 (0a00cf5339, 2022-02-04)" sodipodi:docname="blank.svg">
  <sodipodi:namedview id="namedview7" pagecolor="#ffffff" bordercolor="#666666" borderopacity="1.0" inkscape:pageshadow="2" inkscape:pageopacity="0.0" inkscape:pagecheckerboard="0" inkscape:document-units="mm" showgrid="false" inkscape:zoom="0.64052329" inkscape:cx="397.33138" inkscape:cy="561.25984" inkscape:window-width="2086" inkscape:window-height="1376" inkscape:window-x="0" inkscape:window-y="0" inkscape:window-maximized="1" inkscape:current-layer="layer1"/>
  <defs id="defs2"/>
  <g inkscape:label="Layer 1" inkscape:groupmode="layer" id="layer1">
    <metadata text="createArgs=['--unit=mm', '--inside=1', '--length=80', '--width=100', '--depth=40', '--equal=0', '--tab=6', '--tabtype=0', '--tabsymmetry=0', '--dimpleheight=0', '--dimplelength=0', '--hairline=1', '--thickness=3', '--kerf=0', '--style=1', '--div_l=1', '--div_w=1', '--keydiv=0', '--spacing=2', '--boxtype=4']"/>
    <g id="piece_001">
      <path id="side_001" style="fill:none;stroke:#000000;stroke-width:0.0508" d="M 47 110 L 53.7143 110 L 53.7143 107 L 59.7143 107 L 59.7143 110 L 66.4286 110 L 66.4286 107 L 72.4286 107 L 72.4286 110 L 79.1429 110 L 79.1429 107 L 85.1429 107 L 85.1429 110 L 91.8571 110 L 91.8571 107 L 97.8571 107 L 97.8571 110 L 104.571 110 L 104.571 107 L 110.571 107 L 110.571 110 L 117.286 110 L 117.286 107 L 123.286 107 L 123.286 110 L 130 110"/>
      <path id="side_002" style="fill:none;stroke:#000000;stroke-width:0.0508" d="M 130 110 L 130 113.25 L 130 113.25 L 130 119.25 L 130 119.25 L 130 125.5 L 130 125.5 L 130 131.5 L 130 131.5 L 130 137.75 L 130 137.75 L 130 143.75 L 130 143.75 L 130 150"/>
      <path id="side_003" style="fill:none;stroke:#000000;stroke-width:0.0508" d="M 130 150 L 123.286 150 L 123.286 150 L 117.286 150 L 117.286 150 L 110.571 150 L 110.571 150 L 104.571 150 L 104.571 150 L 97.8571 150 L 97.8571 150 L 91.8571 150 L 91.8571 150 L 85.1429 150 L 85.1429 150 L 79.1429 150 L 79.1429 150 L 72.4286 150 L 72.4286 150 L 66.4286 150 L 66.4286 150 L 59.7143 150 L 59.7143 150 L 53.7143 150 L 53.7143 150 L 47 150"/>
      <path id="side_004" style="fill:none;stroke:#000000;stroke-width:0.0508" d="M 47 150 L 47 143.75 L 50 143.75 L 50 137.75 L 47 137.75 L 47 131.5 L 50 131.5 L 50 125.5 L 47 125.5 L 47 119.25 L 50 119.25 L 50 113.25 L 47 113.25 L 47 110"/>
      <path id="hole_001" style="fill:none;stroke:#000000;stroke-width:0.0508" d="M 90 143.75 L 90 137.75 L 87 137.75 L 87 143.75 L 90 143.75 Z"/>
      <path id="hole_002" style="fill:none;stroke:#000000;stroke-width:0.0508" d="M 90 131.5 L 90 125.5 L 87 125.5 L 87 131.5 L 90 131.5 Z"/>
      <path id="hole_003" style="fill:none;stroke:#000000;stroke-width:0.0508" d="M 90 119.25 L 90 113.25 L 87 113.25 L 87 119.25 L 90 119.25 Z"/>
    </g>
    <g id="xdivider_001">
      <path id="side_005" style="fill:none;stroke:#000000;stroke-width:0.0508" d="M 2 200 L 8.71429 200 L 8.71429 197 L 14.7143 197 L 14.7143 200 L 21.4286 200 L 21.4286 197 L 27.4286 197 L 27.4286 200 L 34.1429 200 L 34.1429 197 L 40.1429 197 L 40.1429 200 L 46.8571 200 L 46.8571 197 L 52.8571 197 L 52.8571 200 L 59.5714 200 L 59.5714 197 L 65.5714 197 L 65.5714 200 L 72.2857 200 L 72.2857 197 L 78.2857 197 L 78.2857 200 L 85 200"/>
      <path id="side_006" style="fill:none;stroke:#000000;stroke-width:0.0508" d="M 85 200 L 85 203.25 L 85 203.25 L 85 209.25 L 85 209.25 L 85 215.5 L 85 215.5 L 85 221.5 L 85 221.5 L 85 227.75 L 85 227.75 L 85 233.75 L 85 233.75 L 85 240"/>
      <path id="slot_001" style="fill:none;stroke:#000000;stroke-width:0.0508" d="M 42 197 L 42 217 L 45 217 L 45 197 L 42 197 Z"/>
      <path id="side_007" style="fill:none;stroke:#000000;stroke-width:0.0508" d="M 85 240 L 78.2857 240 L 78.2857 240 L 72.2857 240 L 72.2857 240 L 65.5714 240 L 65.5714 240 L 59.5714 240 L 59.5714 240 L 52.8571 240 L 52.8571 240 L 46.8571 240 L 46.8571 240 L 40.1429 240 L 40.1429 240 L 34.1429 240 L 34.1429 240 L 27.4286 240 L 27.4286 240 L 21.4286 240 L 21.4286 240 L 14.7143 240 L 14.7143 240 L 8.7143 240 L 8.7143 240 L 2 240"/>
      <path id="side_008" style="fill:none;stroke:#000000;stroke-width:0.0508" d="M 2 240 L 2 233.75 L 5 233.75 L 5 227.75 L 2 227.75 L 2 221.5 L 5 221.5 L 5 215.5 L 2 215.5 L 2 209.25 L 5 209.25 L 5 203.25 L 2 203.25 L 2 200"/>
    </g>
    <g id="piece_002">
      <path id="side_009" style="fill:none;stroke:#000000;stroke-width:0.0508" d="M 2 2 L 8.25 2 L 8.25 2 L 14.25 2 L 14.25 2 L 20.5 2 L 20.5 2 L 26.5 2 L 26.5 2 L 32.75 2 L 32.75 2 L 38.75 2 L 38.75 2 L 42 2"/>
      <path id="side_010" style="fill:none;stroke:#000000;stroke-width:0.0508" d="M 42 2 L 42 8.11111 L 45 8.11111 L 45 14.1111 L 42 14.1111 L 42 20.2222 L 45 20.2222 L 45 26.2222 L 42 26.2222 L 42 32.3333 L 45 32.3333 L 45 38.3333 L 42 38.3333 L 42 44.4444 L 45 44.4444 L 45 50.4444 L 42 50.4444 L 42 56.5556 L 45 56.5556 L 45 62.5556 L 42 62.5556 L 42 68.6667 L 45 68.6667 L 45 74.6667 L 42 74.6667 L 42 80.7778 L 45 80.7778 L 45 86.7778 L 42 86.7778 L 42 92.8889 L 45 92.8889 L 45 98.8889 L 42 98.8889 L 42 102"/>
      <path id="side_011" style="fill:none;stroke:#000000;stroke-width:0.0508" d="M 42 102 L 38.75 102 L 38.75 105 L 32.75 105 L 32.75 102 L 26.5 102 L 26.5 105 L 20.5 105 L 20.5 102 L 14.25 102 L 14.25 105 L 8.25 105 L 8.25 102 L 2 102"/>
      <path id="hole_004" style="fill:none;stroke:#000000;stroke-width:0.0508" d="M 42 52 L 38.75 52 L 38.75 55 L 42 55 L 42 52 Z"/>
      <path id="hole_005" style="fill:none;stroke:#000000;stroke-width:0.0508" d="M 32.75 52 L 26.5 52 L 26.5 55 L 32.75 55 L 32.75 52 Z"/>
      <path id="hole_006" style="fill:none;stroke:#000000;stroke-width:0.0508" d="M 20.5 52 L 14.25 52 L 14.25 55 L 20.5 55 L 20.5 52 Z"/>
      <path id="hole_007" style="fill:none;stroke:#000000;stroke-width:0.0508" d="M 8.25 52 L 2 52 L 2 55 L 8.25 55 L 8.25 52 Z"/>
      <path id="side_012" style="fill:none;stroke:#000000;stroke-width:0.0508" d="M 2 102 L 2 98.8889 L 2 98.8889 L 2 92.8889 L 2 92.8889 L 2 86.7778 L 2 86.7778 L 2 80.7778 L 2 80.7778 L 2 74.6667 L 2 74.6667 L 2 68.6667 L 2 68.6667 L 2 62.5556 L 2 62.5556 L 2 56.5556 L 2 56.5556 L 2 50.4444 L 2 50.4444 L 2 44.4444 L 2 44.4444 L 2 38.3333 L 2 38.3333 L 2 32.3333 L 2 32.3333 L 2 26.2222 L 2 26.2222 L 2 20.2222 L 2 20.2222 L 2 14.1111 L 2 14.1111 L 2 8.1111 L 2 8.1111 L 2 2"/>
    </g>
    <g id="ydivider_001">
      <path id="side_013" style="fill:none;stroke:#000000;stroke-width:0.0508" d="M 2 242 L 8.25 242 L 8.25 242 L 14.25 242 L 14.25 242 L 20.5 242 L 20.5 242 L 26.5 242 L 26.5 242 L 32.75 242 L 32.75 242 L 38.75 242 L 38.75 242 L 42 242"/>
      <path id="slot_002" style="fill:none;stroke:#000000;stroke-width:0.0508" d="M 2 289 L 22 289 L 22 292 L 2 292 L 2 289 Z"/>
      <path id="side_014" style="fill:none;stroke:#000000;stroke-width:0.0508" d="M 42 242 L 42 248.111 L 45 248.111 L 45 254.111 L 42 254.111 L 42 260.222 L 45 260.222 L 45 266.222 L 42 266.222 L 42 272.333 L 45 272.333 L 45 278.333 L 42 278.333 L 42 284.444 L 45 284.444 L 45 290.444 L 42 290.444 L 42 296.556 L 45 296.556 L 45 302.556 L 42 302.556 L 42 308.667 L 45 308.667 L 45 314.667 L 42 314.667 L 42 320.778 L 45 320.778 L 45 326.778 L 42 326.778 L 42 332.889 L 45 332.889 L 45 338.889 L 42 338.889 L 42 342"/>
      <path id="side_015" style="fill:none;stroke:#000000;stroke-width:0.0508" d="M 42 342 L 38.75 342 L 38.75 345 L 32.75 345 L 32.75 342 L 26.5 342 L 26.5 345 L 20.5 345 L 20.5 342 L 14.25 342 L 14.25 345 L 8.25 345 L 8.25 342 L 2 342"/>
      <path id="side_016" style="fill:none;stroke:#000000;stroke-width:0.0508" d="M 2 342 L 2 338.889 L 2 338.889 L 2 332.889 L 2 332.889 L 2 326.778 L 2 326.778 L 2 320.778 L 2 320.778 L 2 314.667 L 2 314.667 L 2 308.667 L 2 308.667 L 2 302.556 L 2 302.556 L 2 296.556 L 2 296.556 L 2 290.444 L 2 290.444 L 2 284.444 L 2 284.444 L 2 278.333 L 2 278.333 L 2 272.333 L 2 272.333 L 2 266.222 L 2 266.222 L 2 260.222 L 2 260.222 L 2 254.111 L 2 254.111 L 2 248.111 L 2 248.111 L 2 242"/>
    </g>
    <g id="piece_003">
      <path id="side_017" style="fill:none;stroke:#000000;stroke-width:0.0508" d="M 47 2 L 53.7143 2 L 53.7143 2 L 59.7143 2 L 59.7143 2 L 66.4286 2 L 66.4286 2 L 72.4286 2 L 72.4286 2 L 79.1429 2 L 79.1429 2 L 85.1429 2 L 85.1429 2 L 91.8571 2 L 91.8571 2 L 97.8571 2 L 97.8571 2 L 104.571 2 L 104.571 2 L 110.571 2 L 110.571 2 L 117.286 2 L 117.286 2 L 123.286 2 L 123.286 2 L 130 2"/>
      <path id="side_018" style="fill:none;stroke:#000000;stroke-width:0.0508" d="M 130 2 L 130 8.11111 L 130 8.11111 L 130 14.1111 L 130 14.1111 L 130 20.2222 L 130 20.2222 L 130 26.2222 L 130 26.2222 L 130 32.3333 L 130 32.3333 L 130 38.3333 L 130 38.3333 L 130 44.4444 L 130 44.4444 L 130 50.4444 L 130 50.4444 L 130 56.5556 L 130 56.5556 L 130 62.5556 L 130 62.5556 L 130 68.6667 L 130 68.6667 L 130 74.6667 L 130 74.6667 L 130 80.7778 L 130 80.7778 L 130 86.7778 L 130 86.7778 L 130 92.8889 L 130 92.8889 L 130 98.8889 L 130 98.8889 L 130 105"/>
      <path id="side_019" style="fill:none;stroke:#000000;stroke-width:0.0508" d="M 130 105 L 123.286 105 L 123.286 102 L 117.286 102 L 117.286 105 L 110.571 105 L 110.571 102 L 104.571 102 L 104.571 105 L 97.8571 105 L 97.8571 102 L 91.8571 102 L 91.8571 105 L 85.1429 105 L 85.1429 102 L 79.1429 102 L 79.1429 105 L 72.4286 105 L 72.4286 102 L 66.4286 102 L 66.4286 105 L 59.7143 105 L 59.7143 102 L 53.7143 102 L 53.7143 105 L 47 105"/>
      <path id="hole_008" style="fill:none;stroke:#000000;stroke-width:0.0508" d="M 123.286 52 L 117.286 52 L 117.286 55 L 123.286 55 L 123.286 52 Z"/>
      <path id="hole_009" style="fill:none;stroke:#000000;stroke-width:0.0508" d="M 110.571 52 L 104.571 52 L 104.571 55 L 110.571 55 L 110.571 52 Z"/>
      <path id="hole_010" style="fill:none;stroke:#000000;stroke-width:0.0508" d="M 97.8571 52 L 91.8571 52 L 91.8571 55 L 97.8571 55 L 97.8571 52 Z"/>
      <path id="hole_011" style="fill:none;stroke:#000000;stroke-width:0.0508" d="M 85.1429 52 L 79.1429 52 L 79.1429 55 L 85.1429 55 L 85.1429 52 Z"/>
      <path id="hole_012" style="fill:none;stroke:#000000;stroke-width:0.0508" d="M 72.4286 52 L 66.4286 52 L 66.4286 55 L 72.4286 55 L 72.4286 52 Z"/>
      <path id="hole_013" style="fill:none;stroke:#000000;stroke-width:0.0508" d="M 59.7143 52 L 53.7143 52 L 53.7143 55 L 59.7143 55 L 59.7143 52 Z"/>
      <path id="side_020" style="fill:none;stroke:#000000;stroke-width:0.0508" d="M 47 105 L 47 98.8889 L 50 98.8889 L 50 92.8889 L 47 92.8889 L 47 86.7778 L 50 86.7778 L 50 80.7778 L 47 80.7778 L 47 74.6667 L 50 74.6667 L 50 68.6667 L 47 68.6667 L 47 62.5556 L 50 62.5556 L 50 56.5556 L 47 56.5556 L 47 50.4444 L 50 50.4444 L 50 44.4444 L 47 44.4444 L 47 38.3333 L 50 38.3333 L 50 32.3333 L 47 32.3333 L 47 26.2222 L 50 26.2222 L 50 20.2222 L 47 20.2222 L 47 14.1111 L 50 14.1111 L 50 8.1111 L 47 8.1111 L 47 2"/>
      <path id="hole_014" style="fill:none;stroke:#000000;stroke-width:0.0508" d="M 90 98.8889 L 90 92.8889 L 87 92.8889 L 87 98.8889 L 90 98.8889 Z"/>
      <path id="hole_015" style="fill:none;stroke:#000000;stroke-width:0.0508" d="M 90 86.7778 L 90 80.7778 L 87 80.7778 L 87 86.7778 L 90 86.7778 Z"/>
      <path id="hole_016" style="fill:none;stroke:#000000;stroke-width:0.0508" d="M 90 74.6667 L 90 68.6667 L 87 68.6667 L 87 74.6667 L 90 74.6667 Z"/>
      <path id="hole_017" style="fill:none;stroke:#000000;stroke-width:0.0508" d="M 90 62.5556 L 90 56.5556 L 87 56.5556 L 87 62.5556 L 90 62.5556 Z"/>
      <path id="hole_018" style="fill:none;stroke:#000000;stroke-width:0.0508" d="M 90 50.4444 L 90 44.4444 L 87 44.4444 L 87 50.4444 L 90 50.4444 Z"/>
      <path id="hole_019" style="fill:none;stroke:#000000;stroke-width:0.0508" d="M 90 38.3333 L 90 32.3333 L 87 32.3333 L 87 38.3333 L 90 38.3333 Z"/>
      <path id="hole_020" style="fill:none;stroke:#000000;stroke-width:0.0508" d="M 90 26.2222 L 90 20.2222 L 87 20.2222 L 87 26.2222 L 90 26.2222 Z"/>
      <path id="hole_021" style="fill:none;stroke:#000000;stroke-width:0.0508" d="M 90 14.1111 L 90 8.1111 L 87 8.1111 L 87 14.1111 L 90 14.1111 Z"/>
    </g>
  </g>
</svg>