<!-- Created with Inkscape (http://www.inkscape.org/) -->
<svg xmlns:inkscape="http://www.inkscape.org/namespaces/inkscape" xmlns:sodipodi="http://sodipodi.sourceforge.net/DTD/sodipodi-0.dtd" xmlns="http://www.w3.org/2000/svg" xmlns:svg="http://www.w3.org/2000/svg" width="179mm" height="352mm" viewBox="0 0 179 352" version="1.1" id="svg5" inkscape:version="1.1.2 (0a00cf5339, 2022-02-04)" sodipodi:docname="blank.svg">
  <sodipodi:namedview id="namedview7" pagecolor="#ffffff" bordercolor="#666666" borderopacity="1.0" inkscape:pageshadow="2" inkscape:pageopacity="0.0" inkscape:pagecheckerboard="0" inkscape:document-units="mm" showgrid="false" inkscape:zoom="0.64052329" inkscape:cx="397.33138" inkscape:cy="561.25984" inkscape:window-width="2086" inkscape:window-height="1376" inkscape:window-x="0" inkscape:window-y="0" inkscape:window-maximized="1" inkscape:current-layer="layer1"/>
  <defs id="defs2"/>
  <g inkscape:label="Layer 1" inkscape:groupmode="layer" id="layer1">
    <metadata text="createArgs=['--unit=mm', '--inside=1', '--length=80', '--width=100', '--depth=40', '--equal=0', '--tab=6', '--tabtype=0', '--tabsymmetry=0', '--dimpleheight=0', '--dimplelength=0', '--hairline=1', '--thickness=3', '--kerf=0', '--style=1', '--div_l=1', '--div_w=1', '--keydiv=0', '--spacing=2', '--boxtype=2']"/>
    <path id="piece_001" style="fill:none;stroke:#000000;stroke-width:0.0508" d="M 47 161.25 L 50 161.25 L 50 167.25 L 47 167.25 L 47 173.5 L 50 173.5 L 50 179.5 L 47 179.5 L 47 185.75 L 50 185.75 L 50 191.75 L 47 191.75 L 47 198 L 133 198 L 133 191.75 L 130 191.75 L 130 185.75 L 133 185.75 L 133 179.5 L 130 179.5 L 130 173.5 L 133 173.5 L 133 167.25 L 130 167.25 L 130 161.25 L 133 161.25 L 133 158 L 125.857 158 L 125.857 155 L 119.857 155 L 119.857 158 L 112.714 158 L 112.714 155 L 106.714 155 L 106.714 158 L 99.5714 158 L 99.5714 155 L 93.5714 155 L 93.5714 158 L 86.4286 158 L 86.4286 155 L 80.4286 155 L 80.4286 158 L 73.2857 158 L 73.2857 155 L 67.2857 155 L 67.2857 158 L 60.1429 158 L 60.1429 155 L 54.1429 155 L 54.1429 158 L 47 158 L 47 161.25 Z M 88.5 161.25 L 91.5 161.25 L 91.5 167.25 L 88.5 167.25 L 88.5 161.25 Z M 88.5 173.5 L 91.5 173.5 L 91.5 179.5 L 88.5 179.5 L 88.5 173.5 Z M 88.5 185.75 L 91.5 185.75 L 91.5 191.75 L 88.5 191.75 L 88.5 185.75 Z"/>
    <path id="xdivider_001" style="fill:none;stroke:#000000;stroke-width:0.0508" d="M 2 206.25 L 5 206.25 L 5 212.25 L 2 212.25 L 2 218.5 L 5 218.5 L 5 224.5 L 2 224.5 L 2 230.75 L 5 230.75 L 5 236.75 L 2 236.75 L 2 243 L 88 243 L 88 236.75 L 85 236.75 L 85 230.75 L 88 230.75 L 88 224.5 L 85 224.5 L 85 218.5 L 88 218.5 L 88 212.25 L 85 212.25 L 85 206.25 L 88 206.25 L 88 203 L 80.8571 203 L 80.8571 200 L 74.8571 200 L 74.8571 203 L 67.7143 203 L 67.7143 200 L 61.7143 200 L 61.7143 203 L 54.5714 203 L 54.5714 200 L 48.5714 200 L 48.5714 203 L 46.5 203 L 46.5 220 L 43.5 220 L 43.5 203 L 41.4286 203 L 41.4286 200 L 35.4286 200 L 35.4286 203 L 28.2857 203 L 28.2857 200 L 22.2857 200 L 22.2857 203 L 15.1429 203 L 15.1429 200 L 9.14286 200 L 9.14286 203 L 2 203 L 2 206.25 Z"/>
    <path id="piece_002" style="fill:none;stroke:#000000;stroke-width:0.0508" d="M 2 98.5 L 8.25 98.5 L 8.25 101.5 L 2 101.5 L 2 150 L 8.25 150 L 8.25 153 L 14.25 153 L 14.25 150 L 20.5 150 L 20.5 153 L 26.5 153 L 26.5 150 L 32.75 150 L 32.75 153 L 38.75 153 L 38.75 150 L 42 150 L 42 146.556 L 45 146.556 L 45 140.556 L 42 140.556 L 42 134.111 L 45 134.111 L 45 128.111 L 42 128.111 L 42 121.667 L 45 121.667 L 45 115.667 L 42 115.667 L 42 109.222 L 45 109.222 L 45 103.222 L 42 103.222 L 42 101.5 L 38.75 101.5 L 38.75 98.5 L 42 98.5 L 42 96.7778 L 45 96.7778 L 45 90.7778 L 42 90.7778 L 42 84.3333 L 45 84.3333 L 45 78.3333 L 42 78.3333 L 42 71.8889 L 45 71.8889 L 45 65.8889 L 42 65.8889 L 42 59.4444 L 45 59.4444 L 45 53.4444 L 42 53.4444 L 42 50 L 38.75 50 L 38.75 47 L 32.75 47 L 32.75 50 L 26.5 50 L 26.5 47 L 20.5 47 L 20.5 50 L 14.25 50 L 14.25 47 L 8.25 47 L 8.25 50 L 2 50 L 2 98.5 Z M 14.25 98.5 L 20.5 98.5 L 20.5 101.5 L 14.25 101.5 L 14.25 98.5 Z M 26.5 98.5 L 32.75 98.5 L 32.75 101.5 L 26.5 101.5 L 26.5 98.5 Z"/>
    <path id="ydivider_001" style="fill:none;stroke:#000000;stroke-width:0.0508" d="M 2 296.5 L 22 296.5 L 22 299.5 L 2 299.5 L 2 348 L 8.25 348 L 8.25 351 L 14.25 351 L 14.25 348 L 20.5 348 L 20.5 351 L 26.5 351 L 26.5 348 L 32.75 348 L 32.75 351 L 38.75 351 L 38.75 348 L 42 348 L 42 344.556 L 45 344.556 L 45 338.556 L 42 338.556 L 42 332.111 L 45 332.111 L 45 326.111 L 42 326.111 L 42 319.667 L 45 319.667 L 45 313.667 L 42 313.667 L 42 307.222 L 45 307.222 L 45 301.222 L 42 301.222 L 42 294.778 L 45 294.778 L 45 288.778 L 42 288.778 L 42 282.333 L 45 282.333 L 45 276.333 L 42 276.333 L 42 269.889 L 45 269.889 L 45 263.889 L 42 263.889 L 42 257.444 L 45 257.444 L 45 251.444 L 42 251.444 L 42 248 L 38.75 248 L 38.75 245 L 32.75 245 L 32.75 248 L 26.5 248 L 26.5 245 L 20.5 245 L 20.5 248 L 14.25 248 L 14.25 245 L 8.25 245 L 8.25 248 L 2 248 L 2 296.5 Z"/>
    <path id="piece_003" style="fill:none;stroke:#000000;stroke-width:0.0508" d="M 47 53.4444 L 50 53.4444 L 50 59.4444 L 47 59.4444 L 47 65.8889 L 50 65.8889 L 50 71.8889 L 47 71.8889 L 47 78.3333 L 50 78.3333 L 50 84.3333 L 47 84.3333 L 47 90.7778 L 50 90.7778 L 50 96.7778 L 47 96.7778 L 47 103.222 L 50 103.222 L 50 109.222 L 47 109.222 L 47 115.667 L 50 115.667 L 50 121.667 L 47 121.667 L 47 128.111 L 50 128.111 L 50 134.111 L 47 134.111 L 47 140.556 L 50 140.556 L 50 146.556 L 47 146.556 L 47 153 L 54.1429 153 L 54.1429 150 L 60.1429 150 L 60.1429 153 L 67.2857 153 L 67.2857 150 L 73.2857 150 L 73.2857 153 L 80.4286 153 L 80.4286 150 L 86.4286 150 L 86.4286 153 L 93.5714 153 L 93.5714 150 L 99.5714 150 L 99.5714 153 L 106.714 153 L 106.714 150 L 112.714 150 L 112.714 153 L 119.857 153 L 119.857 150 L 125.857 150 L 125.857 153 L 133 153 L 133 146.556 L 130 146.556 L 130 140.556 L 133 140.556 L 133 134.111 L 130 134.111 L 130 128.111 L 133 128.111 L 133 121.667 L 130 121.667 L 130 115.667 L 133 115.667 L 133 109.222 L 130 109.222 L 130 103.222 L 133 103.222 L 133 96.7778 L 130 96.7778 L 130 90.7778 L 133 90.7778 L 133 84.3333 L 130 84.3333 L 130 78.3333 L 133 78.3333 L 133 71.8889 L 130 71.8889 L 130 65.8889 L 133 65.8889 L 133 59.4444 L 130 59.4444 L 130 53.4444 L 133 53.4444 L 133 47 L 125.857 47 L 125.857 50 L 119.857 50 L 119.857 47 L 112.714 47 L 112.714 50 L 106.714 50 L 106.714 47 L 99.5714 47 L 99.5714 50 L 93.5714 50 L 93.5714 47 L 86.4286 47 L 86.4286 50 L 80.4286 50 L 80.4286 47 L 73.2857 47 L 73.2857 50 L 67.2857 50 L 67.2857 47 L 60.1429 47 L 60.1429 50 L 54.1429 50 L 54.1429 47 L 47 47 L 47 53.4444 Z M 106.714 98.5 L 112.714 98.5 L 112.714 101.5 L 106.714 101.5 L 106.714 98.5 Z M 119.857 98.5 L 125.857 98.5 L 125.857 101.5 L 119.857 101.5 L 119.857 98.5 Z M 54.1429 98.5 L 60.1429 98.5 L 60.1429 101.5 L 54.1429 101.5 L 54.1429 98.5 Z M 67.2857 98.5 L 73.2857 98.5 L 73.2857 101.5 L 67.2857 101.5 L 67.2857 98.5 Z M 80.4286 98.5 L 86.4286 98.5 L 86.4286 101.5 L 80.4286 101.5 L 80.4286 98.5 Z M 88.5 103.222 L 91.5 103.222 L 91.5 109.222 L 88.5 109.222 L 88.5 103.222 Z M 88.5 115.667 L 91.5 115.667 L 91.5 121.667 L 88.5 121.667 L 88.5 115.667 Z M 88.5 128.111 L 91.5 128.111 L 91.5 134.111 L 88.5 134.111 L 88.5 128.111 Z M 88.5 140.556 L 91.5 140.556 L 91.5 146.556 L 88.5 146.556 L 88.5 140.556 Z M 88.5 53.4444 L 91.5 53.4444 L 91.5 59.4444 L 88.5 59.4444 L 88.5 53.4444 Z M 88.5 65.8889 L 91.5 65.8889 L 91.5 71.8889 L 88.5 71.8889 L 88.5 65.8889 Z M 88.5 78.3333 L 91.5 78.3333 L 91.5 84.3333 L 88.5 84.3333 L 88.5 78.3333 Z M 88.5 90.7778 L 91.5 90.7778 L 91.5 96.7778 L 88.5 96.7778 L 88.5 90.7778 Z M 93.5714 98.5 L 99.5714 98.5 L 99.5714 101.5 L 93.5714 101.5 L 93.5714 98.5 Z"/>
    <path id="piece_004" style="fill:none;stroke:#000000;stroke-width:0.0508" d="M 138 53.4444 L 135 53.4444 L 135 59.4444 L 138 59.4444 L 138 65.8889 L 135 65.8889 L 135 71.8889 L 138 71.8889 L 138 78.3333 L 135 78.3333 L 135 84.3333 L 138 84.3333 L 138 90.7778 L 135 90.7778 L 135 96.7778 L 138 96.7778 L 138 98.5 L 141.25 98.5 L 141.25 101.5 L 138 101.5 L 138 103.222 L 135 103.222 L 135 109.222 L 138 109.222 L 138 115.667 L 135 115.667 L 135 121.667 L 138 121.667 L 138 128.111 L 135 128.111 L 135 134.111 L 138 134.111 L 138 140.556 L 135 140.556 L 135 146.556 L 138 146.556 L 138 150 L 141.25 150 L 141.25 153 L 147.25 153 L 147.25 150 L 153.5 150 L 153.5 153 L 159.5 153 L 159.5 150 L 165.75 150 L 165.75 153 L 171.75 153 L 171.75 150 L 178 150 L 178 101.5 L 171.75 101.5 L 171.75 98.5 L 178 98.5 L 178 50 L 171.75 50 L 171.75 47 L 165.75 47 L 165.75 50 L 159.5 50 L 159.5 47 L 153.5 47 L 153.5 50 L 147.25 50 L 147.25 47 L 141.25 47 L 141.25 50 L 138 50 L 138 53.4444 Z M 147.25 98.5 L 153.5 98.5 L 153.5 101.5 L 147.25 101.5 L 147.25 98.5 Z M 159.5 98.5 L 165.75 98.5 L 165.75 101.5 L 159.5 101.5 L 159.5 98.5 Z"/>
    <path id="piece_005" style="fill:none;stroke:#000000;stroke-width:0.0508" d="M 47 8.25 L 50 8.25 L 50 14.25 L 47 14.25 L 47 20.5 L 50 20.5 L 50 26.5 L 47 26.5 L 47 32.75 L 50 32.75 L 50 38.75 L 47 38.75 L 47 42 L 54.1429 42 L 54.1429 45 L 60.1429 45 L 60.1429 42 L 67.2857 42 L 67.2857 45 L 73.2857 45 L 73.2857 42 L 80.4286 42 L 80.4286 45 L 86.4286 45 L 86.4286 42 L 93.5714 42 L 93.5714 45 L 99.5714 45 L 99.5714 42 L 106.714 42 L 106.714 45 L 112.714 45 L 112.714 42 L 119.857 42 L 119.857 45 L 125.857 45 L 125.857 42 L 133 42 L 133 38.75 L 130 38.75 L 130 32.75 L 133 32.75 L 133 26.5 L 130 26.5 L 130 20.5 L 133 20.5 L 133 14.25 L 130 14.25 L 130 8.25 L 133 8.25 L 133 2 L 47 2 L 47 8.25 Z M 88.5 20.5 L 91.5 20.5 L 91.5 26.5 L 88.5 26.5 L 88.5 20.5 Z M 88.5 32.75 L 91.5 32.75 L 91.5 38.75 L 88.5 38.75 L 88.5 32.75 Z M 88.5 8.25 L 91.5 8.25 L 91.5 14.25 L 88.5 14.25 L 88.5 8.25 Z"/>
  </g>
</svg>