<!-- Created with Inkscape (http://www.inkscape.org/) -->
<svg xmlns:inkscape="http://www.inkscape.org/namespaces/inkscape" xmlns:sodipodi="http://sodipodi.sourceforge.net/DTD/sodipodi-0.dtd" xmlns="http://www.w3.org/2000/svg" xmlns:svg="http://www.w3.org/2000/svg" width="176mm" height="145mm" viewBox="0 0 176 145" version="1.1" sodipodi:docname="blank.svg">
  <sodipodi:namedview/>
  <defs id="defaults"/>
  <g inkscape:label="Tabbed Box" id="tabbedbox">
    <metadata text="$ boxmaker.py --unit=mm --inside=1 --length=80 --width=100 --depth=40 --equal=0 --tab=6 --tabtype=0 --tabsymmetry=0 --dimpleheight=0 --dimplelength=0 --hairline=1 --thickness=3 --kerf=0 --style=1 --div-l=1 --div-w=1 --keydiv=0 --spacing=2 --boxtype=6"/>
    <path id="xdivider" style="fill:none;stroke:#000000;stroke-width:0.0508" d="M 47 144 L 85.5 144 L 85.5 124 L 88.5 124 L 88.5 144 L 127 144 L 127 104 L 47 104 L 47 144 Z"/>
    <path id="left" style="fill:none;stroke:#000000;stroke-width:0.0508" d="M 2 2 L 2 102 L 42 102 L 42 94.75 L 45 94.75 L 45 88.75 L 42 88.75 L 42 81.5 L 45 81.5 L 45 75.5 L 42 75.5 L 42 68.25 L 45 68.25 L 45 62.25 L 42 62.25 L 42 55 L 45 55 L 45 49 L 42 49 L 42 41.75 L 45 41.75 L 45 35.75 L 42 35.75 L 42 28.5 L 45 28.5 L 45 22.5 L 42 22.5 L 42 15.25 L 45 15.25 L 45 9.25 L 42 9.25 L 42 2 L 2 2 Z"/>
    <path id="ydivider" style="fill:none;stroke:#000000;stroke-width:0.0508" d="M 132 50.5 L 152 50.5 L 152 53.5 L 132 53.5 L 132 102 L 172 102 L 172 94.75 L 175 94.75 L 175 88.75 L 172 88.75 L 172 81.5 L 175 81.5 L 175 75.5 L 172 75.5 L 172 68.25 L 175 68.25 L 175 62.25 L 172 62.25 L 172 55 L 175 55 L 175 49 L 172 49 L 172 41.75 L 175 41.75 L 175 35.75 L 172 35.75 L 172 28.5 L 175 28.5 L 175 22.5 L 172 22.5 L 172 15.25 L 175 15.25 L 175 9.25 L 172 9.25 L 172 2 L 132 2 L 132 50.5 Z"/>
    <path id="bottom" style="fill:none;stroke:#000000;stroke-width:0.0508" d="M 47 9.25 L 50 9.25 L 50 15.25 L 47 15.25 L 47 22.5 L 50 22.5 L 50 28.5 L 47 28.5 L 47 35.75 L 50 35.75 L 50 41.75 L 47 41.75 L 47 49 L 50 49 L 50 55 L 47 55 L 47 62.25 L 50 62.25 L 50 68.25 L 47 68.25 L 47 75.5 L 50 75.5 L 50 81.5 L 47 81.5 L 47 88.75 L 50 88.75 L 50 94.75 L 47 94.75 L 47 102 L 130 102 L 130 2 L 47 2 L 47 9.25 Z M 88.5 22.5 L 91.5 22.5 L 91.5 28.5 L 88.5 28.5 L 88.5 22.5 Z M 88.5 35.75 L 91.5 35.75 L 91.5 41.75 L 88.5 41.75 L 88.5 35.75 Z M 88.5 49 L 91.5 49 L 91.5 55 L 88.5 55 L 88.5 49 Z M 88.5 62.25 L 91.5 62.25 L 91.5 68.25 L 88.5 68.25 L 88.5 62.25 Z M 88.5 75.5 L 91.5 75.5 L 91.5 81.5 L 88.5 81.5 L 88.5 75.5 Z M 88.5 88.75 L 91.5 88.75 L 91.5 94.75 L 88.5 94.75 L 88.5 88.75 Z M 88.5 9.25 L 91.5 9.25 L 91.5 15.25 L 88.5 15.25 L 88.5 9.25 Z"/>
  </g>
</svg>