<!-- Created with Inkscape (http://www.inkscape.org/) -->
<svg xmlns:inkscape="http://www.inkscape.org/namespaces/inkscape" xmlns:sodipodi="http://sodipodi.sourceforge.net/DTD/sodipodi-0.dtd" xmlns="http://www.w3.org/2000/svg" xmlns:svg="http://www.w3.org/2000/svg" width="131mm" height="340mm" viewBox="0 0 131 340" version="1.1" id="svg5" inkscape:version="1.1.2 (0a00cf5339, 2022-02-04)" sodipodi:docname="blank.svg">
  <sodipodi:namedview id="namedview7" pagecolor="#ffffff" bordercolor="#666666" borderopacity="1.0" inkscape:pageshadow="2" inkscape:pageopacity="0.0" inkscape:pagecheckerboard="0" inkscape:document-units="mm" showgrid="false" inkscape:zoom="0.64052329" inkscape:cx="397.33138" inkscape:cy="561.25984" inkscape:window-width="2086" inkscape:window-height="1376" inkscape:window-x="0" inkscape:window-y="0" inkscape:window-maximized="1" inkscape:current-layer="layer1"/>
  <defs id="defs2"/>
  <g inkscape:label="Layer 1" inkscape:groupmode="layer" id="layer1">
    <metadata text="createArgs=['--unit=mm', '--inside=1', '--length=80', '--width=100', '--depth=40', '--equal=0', '--tab=6', '--tabtype=0', '--tabsymmetry=0', '--dimpleheight=0', '--dimplelength=0', '--hairline=1', '--thickness=3', '--kerf=0', '--style=1', '--div_l=1', '--div_w=1', '--keydiv=0', '--spacing=2', '--boxtype=6']"/>
    <path id="piece_001" style="fill:none;stroke:#000000;stroke-width:0.0508" d="M 2 2 L 2 102 L 42 102 L 42 94.75 L 45 94.75 L 45 88.75 L 42 88.75 L 42 81.5 L 45 81.5 L 45 75.5 L 42 75.5 L 42 68.25 L 45 68.25 L 45 62.25 L 42 62.25 L 42 55 L 45 55 L 45 49 L 42 49 L 42 41.75 L 45 41.75 L 45 35.75 L 42 35.75 L 42 28.5 L 45 28.5 L 45 22.5 L 42 22.5 L 42 15.25 L 45 15.25 L 45 9.25 L 42 9.25 L 42 2 L 2 2 Z"/>
    <path id="xdivider_001" style="fill:none;stroke:#000000;stroke-width:0.0508" d="M 2 237 L 85 237 L 85 194 L 45 194 L 45 214 L 42 214 L 42 194 L 2 194 L 2 237 Z"/>
    <path id="ydivider_001" style="fill:none;stroke:#000000;stroke-width:0.0508" d="M 2 284.5 L 22 284.5 L 22 287.5 L 2 287.5 L 2 339 L 42 339 L 42 331.75 L 45 331.75 L 45 325.75 L 42 325.75 L 42 318.5 L 45 318.5 L 45 312.5 L 42 312.5 L 42 305.25 L 45 305.25 L 45 299.25 L 42 299.25 L 42 292 L 45 292 L 45 286 L 42 286 L 42 278.75 L 45 278.75 L 45 272.75 L 42 272.75 L 42 265.5 L 45 265.5 L 45 259.5 L 42 259.5 L 42 252.25 L 45 252.25 L 45 246.25 L 42 246.25 L 42 239 L 2 239 L 2 284.5 Z"/>
    <path id="piece_002" style="fill:none;stroke:#000000;stroke-width:0.0508" d="M 47 9.25 L 50 9.25 L 50 15.25 L 47 15.25 L 47 22.5 L 50 22.5 L 50 28.5 L 47 28.5 L 47 35.75 L 50 35.75 L 50 41.75 L 47 41.75 L 47 49 L 50 49 L 50 55 L 47 55 L 47 62.25 L 50 62.25 L 50 68.25 L 47 68.25 L 47 75.5 L 50 75.5 L 50 81.5 L 47 81.5 L 47 88.75 L 50 88.75 L 50 94.75 L 47 94.75 L 47 102 L 130 102 L 130 2 L 47 2 L 47 9.25 Z M 87 22.5 L 90 22.5 L 90 28.5 L 87 28.5 L 87 22.5 Z M 87 35.75 L 90 35.75 L 90 41.75 L 87 41.75 L 87 35.75 Z M 87 49 L 90 49 L 90 55 L 87 55 L 87 49 Z M 87 62.25 L 90 62.25 L 90 68.25 L 87 68.25 L 87 62.25 Z M 87 75.5 L 90 75.5 L 90 81.5 L 87 81.5 L 87 75.5 Z M 87 88.75 L 90 88.75 L 90 94.75 L 87 94.75 L 87 88.75 Z M 87 9.25 L 90 9.25 L 90 15.25 L 87 15.25 L 87 9.25 Z"/>
  </g>
</svg>