<!-- Created with Inkscape (http://www.inkscape.org/) -->
<svg xmlns:inkscape="http://www.inkscape.org/namespaces/inkscape" xmlns:sodipodi="http://sodipodi.sourceforge.net/DTD/sodipodi-0.dtd" xmlns="http://www.w3.org/2000/svg" xmlns:svg="http://www.w3.org/2000/svg" width="224mm" height="196mm" viewBox="0 0 224 196" version="1.1" id="svg5" inkscape:version="1.1.2 (0a00cf5339, 2022-02-04)" sodipodi:docname="blank.svg">
  <sodipodi:namedview id="namedview7" pagecolor="#ffffff" bordercolor="#666666" borderopacity="1.0" inkscape:pageshadow="2" inkscape:pageopacity="0.0" inkscape:pagecheckerboard="0" inkscape:document-units="mm" showgrid="false" inkscape:zoom="0.64052329" inkscape:cx="397.33138" inkscape:cy="561.25984" inkscape:window-width="2086" inkscape:window-height="1376" inkscape:window-x="0" inkscape:window-y="0" inkscape:window-maximized="1" inkscape:current-layer="layer1"/>
  <defs id="defs2"/>
  <g inkscape:label="Layer 1" inkscape:groupmode="layer" id="layer1">
    <metadata text="createArgs=['--unit=mm', '--inside=1', '--length=80', '--width=100', '--depth=40', '--equal=0', '--tab=6', '--tabtype=0', '--tabsymmetry=0', '--dimpleheight=0', '--dimplelength=0', '--hairline=1', '--thickness=3', '--kerf=0', '--style=1', '--div-l=1', '--div-w=1', '--keydiv=0', '--spacing=2', '--boxtype=3']"/>
    <path id="xdivider_001" style="fill:none;stroke:#000000;stroke-width:0.0508" d="M 47 158.25 L 50 158.25 L 50 164.25 L 47 164.25 L 47 170.5 L 50 170.5 L 50 176.5 L 47 176.5 L 47 182.75 L 50 182.75 L 50 188.75 L 47 188.75 L 47 192 L 54.1429 192 L 54.1429 195 L 60.1429 195 L 60.1429 192 L 67.2857 192 L 67.2857 195 L 73.2857 195 L 73.2857 192 L 80.4286 192 L 80.4286 195 L 86.4286 195 L 86.4286 192 L 88.5 192 L 88.5 172 L 91.5 172 L 91.5 192 L 93.5714 192 L 93.5714 195 L 99.5714 195 L 99.5714 192 L 106.714 192 L 106.714 195 L 112.714 195 L 112.714 192 L 119.857 192 L 119.857 195 L 125.857 195 L 125.857 192 L 133 192 L 133 188.75 L 130 188.75 L 130 182.75 L 133 182.75 L 133 176.5 L 130 176.5 L 130 170.5 L 133 170.5 L 133 164.25 L 130 164.25 L 130 158.25 L 133 158.25 L 133 152 L 47 152 L 47 158.25 Z"/>
    <path id="piece_001" style="fill:none;stroke:#000000;stroke-width:0.0508" d="M 2 98.5 L 8.25 98.5 L 8.25 101.5 L 2 101.5 L 2 150 L 42 150 L 42 143.889 L 45 143.889 L 45 137.889 L 42 137.889 L 42 131.778 L 45 131.778 L 45 125.778 L 42 125.778 L 42 119.667 L 45 119.667 L 45 113.667 L 42 113.667 L 42 107.556 L 45 107.556 L 45 101.556 L 42 101.556 L 42 101.5 L 38.75 101.5 L 38.75 98.5 L 42 98.5 L 42 95.4444 L 45 95.4444 L 45 89.4444 L 42 89.4444 L 42 83.3333 L 45 83.3333 L 45 77.3333 L 42 77.3333 L 42 71.2222 L 45 71.2222 L 45 65.2222 L 42 65.2222 L 42 59.1111 L 45 59.1111 L 45 53.1111 L 42 53.1111 L 42 50 L 38.75 50 L 38.75 47 L 32.75 47 L 32.75 50 L 26.5 50 L 26.5 47 L 20.5 47 L 20.5 50 L 14.25 50 L 14.25 47 L 8.25 47 L 8.25 50 L 2 50 L 2 98.5 Z M 14.25 98.5 L 20.5 98.5 L 20.5 101.5 L 14.25 101.5 L 14.25 98.5 Z M 26.5 98.5 L 32.75 98.5 L 32.75 101.5 L 26.5 101.5 L 26.5 98.5 Z"/>
    <path id="ydivider_001" style="fill:none;stroke:#000000;stroke-width:0.0508" d="M 180 98.5 L 200 98.5 L 200 101.5 L 180 101.5 L 180 150 L 220 150 L 220 146.556 L 223 146.556 L 223 140.556 L 220 140.556 L 220 134.111 L 223 134.111 L 223 128.111 L 220 128.111 L 220 121.667 L 223 121.667 L 223 115.667 L 220 115.667 L 220 109.222 L 223 109.222 L 223 103.222 L 220 103.222 L 220 96.7778 L 223 96.7778 L 223 90.7778 L 220 90.7778 L 220 84.3333 L 223 84.3333 L 223 78.3333 L 220 78.3333 L 220 71.8889 L 223 71.8889 L 223 65.8889 L 220 65.8889 L 220 59.4444 L 223 59.4444 L 223 53.4444 L 220 53.4444 L 220 50 L 216.75 50 L 216.75 47 L 210.75 47 L 210.75 50 L 204.5 50 L 204.5 47 L 198.5 47 L 198.5 50 L 192.25 50 L 192.25 47 L 186.25 47 L 186.25 50 L 180 50 L 180 98.5 Z"/>
    <path id="piece_002" style="fill:none;stroke:#000000;stroke-width:0.0508" d="M 47 53.1111 L 50 53.1111 L 50 59.1111 L 47 59.1111 L 47 65.2222 L 50 65.2222 L 50 71.2222 L 47 71.2222 L 47 77.3333 L 50 77.3333 L 50 83.3333 L 47 83.3333 L 47 89.4444 L 50 89.4444 L 50 95.4444 L 47 95.4444 L 47 101.556 L 50 101.556 L 50 107.556 L 47 107.556 L 47 113.667 L 50 113.667 L 50 119.667 L 47 119.667 L 47 125.778 L 50 125.778 L 50 131.778 L 47 131.778 L 47 137.889 L 50 137.889 L 50 143.889 L 47 143.889 L 47 150 L 133 150 L 133 143.889 L 130 143.889 L 130 137.889 L 133 137.889 L 133 131.778 L 130 131.778 L 130 125.778 L 133 125.778 L 133 119.667 L 130 119.667 L 130 113.667 L 133 113.667 L 133 107.556 L 130 107.556 L 130 101.556 L 133 101.556 L 133 95.4444 L 130 95.4444 L 130 89.4444 L 133 89.4444 L 133 83.3333 L 130 83.3333 L 130 77.3333 L 133 77.3333 L 133 71.2222 L 130 71.2222 L 130 65.2222 L 133 65.2222 L 133 59.1111 L 130 59.1111 L 130 53.1111 L 133 53.1111 L 133 47 L 125.857 47 L 125.857 50 L 119.857 50 L 119.857 47 L 112.714 47 L 112.714 50 L 106.714 50 L 106.714 47 L 99.5714 47 L 99.5714 50 L 93.5714 50 L 93.5714 47 L 86.4286 47 L 86.4286 50 L 80.4286 50 L 80.4286 47 L 73.2857 47 L 73.2857 50 L 67.2857 50 L 67.2857 47 L 60.1429 47 L 60.1429 50 L 54.1429 50 L 54.1429 47 L 47 47 L 47 53.1111 Z M 106.714 98.5 L 112.714 98.5 L 112.714 101.5 L 106.714 101.5 L 106.714 98.5 Z M 119.857 98.5 L 125.857 98.5 L 125.857 101.5 L 119.857 101.5 L 119.857 98.5 Z M 54.1429 98.5 L 60.1429 98.5 L 60.1429 101.5 L 54.1429 101.5 L 54.1429 98.5 Z M 67.2857 98.5 L 73.2857 98.5 L 73.2857 101.5 L 67.2857 101.5 L 67.2857 98.5 Z M 80.4286 98.5 L 86.4286 98.5 L 86.4286 101.5 L 80.4286 101.5 L 80.4286 98.5 Z M 88.5 101.556 L 91.5 101.556 L 91.5 107.556 L 88.5 107.556 L 88.5 101.556 Z M 88.5 113.667 L 91.5 113.667 L 91.5 119.667 L 88.5 119.667 L 88.5 113.667 Z M 88.5 125.778 L 91.5 125.778 L 91.5 131.778 L 88.5 131.778 L 88.5 125.778 Z M 88.5 137.889 L 91.5 137.889 L 91.5 143.889 L 88.5 143.889 L 88.5 137.889 Z M 88.5 53.1111 L 91.5 53.1111 L 91.5 59.1111 L 88.5 59.1111 L 88.5 53.1111 Z M 88.5 65.2222 L 91.5 65.2222 L 91.5 71.2222 L 88.5 71.2222 L 88.5 65.2222 Z M 88.5 77.3333 L 91.5 77.3333 L 91.5 83.3333 L 88.5 83.3333 L 88.5 77.3333 Z M 88.5 89.4444 L 91.5 89.4444 L 91.5 95.4444 L 88.5 95.4444 L 88.5 89.4444 Z M 93.5714 98.5 L 99.5714 98.5 L 99.5714 101.5 L 93.5714 101.5 L 93.5714 98.5 Z"/>
    <path id="piece_003" style="fill:none;stroke:#000000;stroke-width:0.0508" d="M 138 53.1111 L 135 53.1111 L 135 59.1111 L 138 59.1111 L 138 65.2222 L 135 65.2222 L 135 71.2222 L 138 71.2222 L 138 77.3333 L 135 77.3333 L 135 83.3333 L 138 83.3333 L 138 89.4444 L 135 89.4444 L 135 95.4444 L 138 95.4444 L 138 98.5 L 141.25 98.5 L 141.25 101.5 L 138 101.5 L 138 101.556 L 135 101.556 L 135 107.556 L 138 107.556 L 138 113.667 L 135 113.667 L 135 119.667 L 138 119.667 L 138 125.778 L 135 125.778 L 135 131.778 L 138 131.778 L 138 137.889 L 135 137.889 L 135 143.889 L 138 143.889 L 138 150 L 178 150 L 178 101.5 L 171.75 101.5 L 171.75 98.5 L 178 98.5 L 178 50 L 171.75 50 L 171.75 47 L 165.75 47 L 165.75 50 L 159.5 50 L 159.5 47 L 153.5 47 L 153.5 50 L 147.25 50 L 147.25 47 L 141.25 47 L 141.25 50 L 138 50 L 138 53.1111 Z M 147.25 98.5 L 153.5 98.5 L 153.5 101.5 L 147.25 101.5 L 147.25 98.5 Z M 159.5 98.5 L 165.75 98.5 L 165.75 101.5 L 159.5 101.5 L 159.5 98.5 Z"/>
    <path id="piece_004" style="fill:none;stroke:#000000;stroke-width:0.0508" d="M 47 8.25 L 50 8.25 L 50 14.25 L 47 14.25 L 47 20.5 L 50 20.5 L 50 26.5 L 47 26.5 L 47 32.75 L 50 32.75 L 50 38.75 L 47 38.75 L 47 42 L 54.1429 42 L 54.1429 45 L 60.1429 45 L 60.1429 42 L 67.2857 42 L 67.2857 45 L 73.2857 45 L 73.2857 42 L 80.4286 42 L 80.4286 45 L 86.4286 45 L 86.4286 42 L 93.5714 42 L 93.5714 45 L 99.5714 45 L 99.5714 42 L 106.714 42 L 106.714 45 L 112.714 45 L 112.714 42 L 119.857 42 L 119.857 45 L 125.857 45 L 125.857 42 L 133 42 L 133 38.75 L 130 38.75 L 130 32.75 L 133 32.75 L 133 26.5 L 130 26.5 L 130 20.5 L 133 20.5 L 133 14.25 L 130 14.25 L 130 8.25 L 133 8.25 L 133 2 L 47 2 L 47 8.25 Z M 88.5 20.5 L 91.5 20.5 L 91.5 26.5 L 88.5 26.5 L 88.5 20.5 Z M 88.5 32.75 L 91.5 32.75 L 91.5 38.75 L 88.5 38.75 L 88.5 32.75 Z M 88.5 8.25 L 91.5 8.25 L 91.5 14.25 L 88.5 14.25 L 88.5 8.25 Z"/>
  </g>
</svg>