<!-- Created with Inkscape (http://www.inkscape.org/) -->
<svg xmlns:inkscape="http://www.inkscape.org/namespaces/inkscape" xmlns:sodipodi="http://sodipodi.sourceforge.net/DTD/sodipodi-0.dtd" xmlns="http://www.w3.org/2000/svg" xmlns:svg="http://www.w3.org/2000/svg" width="131mm" height="340mm" viewBox="0 0 131 340" version="1.1" id="svg5" inkscape:version="1.1.2 (0a00cf5339, 2022-02-04)" sodipodi:docname="blank.svg">
  <sodipodi:namedview id="namedview7" pagecolor="#ffffff" bordercolor="#666666" borderopacity="1.0" inkscape:pageshadow="2" inkscape:pageopacity="0.0" inkscape:pagecheckerboard="0" inkscape:document-units="mm" showgrid="false" inkscape:zoom="0.64052329" inkscape:cx="397.33138" inkscape:cy="561.25984" inkscape:window-width="2086" inkscape:window-height="1376" inkscape:window-x="0" inkscape:window-y="0" inkscape:window-maximized="1" inkscape:current-layer="layer1"/>
  <defs id="defs2"/>
  <g inkscape:label="Layer 1" inkscape:groupmode="layer" id="layer1">
    <metadata text="createArgs=['--unit=mm', '--inside=1', '--length=80', '--width=100', '--depth=40', '--equal=0', '--tab=6', '--tabtype=0', '--tabsymmetry=0', '--dimpleheight=0', '--dimplelength=0', '--hairline=1', '--thickness=3', '--kerf=0', '--style=1', '--div_l=1', '--div_w=1', '--keydiv=0', '--spacing=2', '--boxtype=6']"/>
    <g id="xdivider_001">
      <path id="side_001" style="fill:none;stroke:#000000;stroke-width:0.0508" d="m 0 197 l 6.71429 0 l 0 0 l 6.00001 0 l 0 0 l 6.7143 0 l 0 0 l 6 0 l 0 0 l 6.7143 0 l 0 0 l 6 0 l 0 0 l 6.7142 0 l 0 0 l 6 0 l 0 0 l 6.7143 0 l 0 0 l 6 0 l 0 0 l 6.7143 0 l 0 0 l 6 0 l 0 0 l 6.7143 0"/>
      <path id="side_002" style="fill:none;stroke:#000000;stroke-width:0.0508" d="m 83 197 l 0 3.25 l 0 0 l 0 6 l 0 0 l 0 6.25 l 0 0 l 0 6 l 0 0 l 0 6.25 l 0 0 l 0 6 l 0 0 l 0 6.25"/>
      <path id="slot_001" style="fill:none;stroke:#000000;stroke-width:0.0508" d="m 40 194 l 0 21.5 l 3 0 l 0 -21.5 l -3 0 z"/>
      <path id="side_003" style="fill:none;stroke:#000000;stroke-width:0.0508" d="m 83 237 l -6.7143 0 l 0 0 l -6 0 l 0 0 l -6.7143 0 l 0 0 l -6 0 l 0 0 l -6.7143 0 l 0 0 l -6 0 l 0 0 l -6.7142 0 l 0 0 l -6 0 l 0 0 l -6.7143 0 l 0 0 l -6 0 l 0 0 l -6.7143 0 l 0 0 l -6 0 l 0 0 l -6.7143 0"/>
      <path id="side_004" style="fill:none;stroke:#000000;stroke-width:0.0508" d="m 0 237 l 0 -6.25 l 0 0 l 0 -6 l 0 0 l 0 -6.25 l 0 0 l 0 -6 l 0 0 l 0 -6.25 l 0 0 l 0 -6 l 0 0 l 0 -3.25"/>
    </g>
    <g id="piece_001">
      <path id="side_005" style="fill:none;stroke:#000000;stroke-width:0.0508" d="m 2 2 l 6.25 0 l 0 0 l 6 0 l 0 0 l 6.25 0 l 0 0 l 6 0 l 0 0 l 6.25 0 l 0 0 l 6 0 l 0 0 l 3.25 0"/>
      <path id="side_006" style="fill:none;stroke:#000000;stroke-width:0.0508" d="m 42 2 l 0 7.25 l 3 0 l 0 6 l -3 0 l 0 7.25 l 3 0 l 0 6 l -3 0 l 0 7.25 l 3 0 l 0 6 l -3 0 l 0 7.25 l 3 0 l 0 6 l -3 0 l 0 7.25 l 3 0 l 0 6 l -3 0 l 0 7.25 l 3 0 l 0 6 l -3 0 l 0 7.25 l 3 0 l 0 6 l -3 0 l 0 7.25"/>
      <path id="side_007" style="fill:none;stroke:#000000;stroke-width:0.0508" d="m 42 102 l -3.25 0 l 0 0 l -6 0 l 0 0 l -6.25 0 l 0 0 l -6 0 l 0 0 l -6.25 0 l 0 0 l -6 0 l 0 0 l -6.25 0"/>
      <path id="side_008" style="fill:none;stroke:#000000;stroke-width:0.0508" d="m 2 102 l 0 -7.25 l 0 0 l 0 -6 l 0 0 l 0 -7.25 l 0 0 l 0 -6 l 0 0 l 0 -7.25 l 0 0 l 0 -6 l 0 0 l 0 -7.25 l 0 0 l 0 -6 l 0 0 l 0 -7.25 l 0 0 l 0 -6 l 0 0 l 0 -7.25 l 0 0 l 0 -6 l 0 0 l 0 -7.25 l 0 0 l 0 -6 l 0 0 l 0 -7.25"/>
    </g>
    <g id="ydivider_001">
      <path id="side_009" style="fill:none;stroke:#000000;stroke-width:0.0508" d="m 0 239 l 6.25 0 l 0 0 l 6 0 l 0 0 l 6.25 0 l 0 0 l 6 0 l 0 0 l 6.25 0 l 0 0 l 6 0 l 0 0 l 3.25 0"/>
      <path id="slot_002" style="fill:none;stroke:#000000;stroke-width:0.0508" d="m 0 284.5 l 21.5 0 l 0 3 l -21.5 0 l 0 -3 z"/>
      <path id="side_010" style="fill:none;stroke:#000000;stroke-width:0.0508" d="m 40 239 l 0 7.25 l 3 0 l 0 6 l -3 0 l 0 7.25 l 3 0 l 0 6 l -3 0 l 0 7.25 l 3 0 l 0 6 l -3 0 l 0 7.25 l 3 0 l 0 6 l -3 0 l 0 7.25 l 3 0 l 0 6 l -3 0 l 0 7.25 l 3 0 l 0 6 l -3 0 l 0 7.25 l 3 0 l 0 6 l -3 0 l 0 7.25"/>
      <path id="side_011" style="fill:none;stroke:#000000;stroke-width:0.0508" d="m 40 339 l -3.25 0 l 0 0 l -6 0 l 0 0 l -6.25 0 l 0 0 l -6 0 l 0 0 l -6.25 0 l 0 0 l -6 0 l 0 0 l -6.25 0"/>
      <path id="side_012" style="fill:none;stroke:#000000;stroke-width:0.0508" d="m 0 339 l 0 -7.25 l 0 0 l 0 -6 l 0 0 l 0 -7.25 l 0 0 l 0 -6 l 0 0 l 0 -7.25 l 0 0 l 0 -6 l 0 0 l 0 -7.25 l 0 0 l 0 -6 l 0 0 l 0 -7.25 l 0 0 l 0 -6 l 0 0 l 0 -7.25 l 0 0 l 0 -6 l 0 0 l 0 -7.25 l 0 0 l 0 -6 l 0 0 l 0 -7.25"/>
    </g>
    <g id="piece_002">
      <path id="side_013" style="fill:none;stroke:#000000;stroke-width:0.0508" d="m 47 2 l 6.7143 0 l 0 0 l 6 0 l 0 0 l 6.7143 0 l 0 0 l 6 0 l 0 0 l 6.7143 0 l 0 0 l 6 0 l 0 0 l 6.7142 0 l 0 0 l 6 0 l 0 0 l 6.7139 0 l 0 0 l 6 0 l 0 0 l 6.715 0 l 0 0 l 6 0 l 0 0 l 6.714 0"/>
      <path id="side_014" style="fill:none;stroke:#000000;stroke-width:0.0508" d="m 130 2 l 0 7.25 l 0 0 l 0 6 l 0 0 l 0 7.25 l 0 0 l 0 6 l 0 0 l 0 7.25 l 0 0 l 0 6 l 0 0 l 0 7.25 l 0 0 l 0 6 l 0 0 l 0 7.25 l 0 0 l 0 6 l 0 0 l 0 7.25 l 0 0 l 0 6 l 0 0 l 0 7.25 l 0 0 l 0 6 l 0 0 l 0 7.25"/>
      <path id="side_015" style="fill:none;stroke:#000000;stroke-width:0.0508" d="m 130 102 l -6.714 0 l 0 0 l -6 0 l 0 0 l -6.715 0 l 0 0 l -6 0 l 0 0 l -6.7139 0 l 0 0 l -6 0 l 0 0 l -6.7142 0 l 0 0 l -6 0 l 0 0 l -6.7143 0 l 0 0 l -6 0 l 0 0 l -6.7143 0 l 0 0 l -6 0 l 0 0 l -6.7143 0"/>
      <path id="side_016" style="fill:none;stroke:#000000;stroke-width:0.0508" d="m 47 102 l 0 -7.25 l 3 0 l 0 -6 l -3 0 l 0 -7.25 l 3 0 l 0 -6 l -3 0 l 0 -7.25 l 3 0 l 0 -6 l -3 0 l 0 -7.25 l 3 0 l 0 -6 l -3 0 l 0 -7.25 l 3 0 l 0 -6 l -3 0 l 0 -7.25 l 3 0 l 0 -6 l -3 0 l 0 -7.25 l 3 0 l 0 -6 l -3 0 l 0 -7.25"/>
      <path id="hole_001" style="fill:none;stroke:#000000;stroke-width:0.0508" d="m 90 94.75 l 0 -6 l -3 0 l 0 6 l 3 0 z"/>
      <path id="hole_002" style="fill:none;stroke:#000000;stroke-width:0.0508" d="m 90 81.5 l 0 -6 l -3 0 l 0 6 l 3 0 z"/>
      <path id="hole_003" style="fill:none;stroke:#000000;stroke-width:0.0508" d="m 90 68.25 l 0 -6 l -3 0 l 0 6 l 3 0 z"/>
      <path id="hole_004" style="fill:none;stroke:#000000;stroke-width:0.0508" d="m 90 55 l 0 -6 l -3 0 l 0 6 l 3 0 z"/>
      <path id="hole_005" style="fill:none;stroke:#000000;stroke-width:0.0508" d="m 90 41.75 l 0 -6 l -3 0 l 0 6 l 3 0 z"/>
      <path id="hole_006" style="fill:none;stroke:#000000;stroke-width:0.0508" d="m 90 28.5 l 0 -6 l -3 0 l 0 6 l 3 0 z"/>
      <path id="hole_007" style="fill:none;stroke:#000000;stroke-width:0.0508" d="m 90 15.25 l 0 -6 l -3 0 l 0 6 l 3 0 z"/>
    </g>
  </g>
</svg>