<!-- Created with Inkscape (http://www.inkscape.org/) -->
<svg xmlns:inkscape="http://www.inkscape.org/namespaces/inkscape" xmlns:sodipodi="http://sodipodi.sourceforge.net/DTD/sodipodi-0.dtd" xmlns="http://www.w3.org/2000/svg" xmlns:svg="http://www.w3.org/2000/svg" width="215mm" height="235mm" viewBox="0 0 215 235" version="1.1" id="svg5" inkscape:version="1.1.2 (0a00cf5339, 2022-02-04)" sodipodi:docname="blank.svg">
  <sodipodi:namedview id="namedview7" pagecolor="#ffffff" bordercolor="#666666" borderopacity="1.0" inkscape:pageshadow="2" inkscape:pageopacity="0.0" inkscape:pagecheckerboard="0" inkscape:document-units="mm" showgrid="false" inkscape:zoom="0.64052329" inkscape:cx="397.33138" inkscape:cy="561.25984" inkscape:window-width="2086" inkscape:window-height="1376" inkscape:window-x="0" inkscape:window-y="0" inkscape:window-maximized="1" inkscape:current-layer="layer1"/>
  <defs id="defs2"/>
  <g inkscape:label="Layer 1" inkscape:groupmode="layer" id="layer1">
    <metadata text="createArgs=['--unit=mm', '--inside=1', '--length=80', '--width=100', '--depth=40', '--equal=0', '--tab=6', '--tabtype=0', '--tabsymmetry=0', '--dimpleheight=0', '--dimplelength=0', '--hairline=1', '--thickness=3', '--kerf=0', '--style=1', '--div_l=1', '--div_w=1', '--keydiv=0', '--spacing=2', '--boxtype=5']"/>
    <g id="piece_001">
      <path id="side_001" style="fill:none;stroke:#000000;stroke-width:0.0508" d="M 44 152 L 51.1429 152 L 51.1429 152 L 57.1429 152 L 57.1429 152 L 64.2857 152 L 64.2857 152 L 70.2857 152 L 70.2857 152 L 77.4286 152 L 77.4286 152 L 83.4286 152 L 83.4286 152 L 90.5714 152 L 90.5714 152 L 96.5714 152 L 96.5714 152 L 103.714 152 L 103.714 152 L 109.714 152 L 109.714 152 L 116.857 152 L 116.857 152 L 122.857 152 L 122.857 152 L 130 152"/>
      <path id="side_002" style="fill:none;stroke:#000000;stroke-width:0.0508" d="M 130 152 L 130 161.333 L 127 161.333 L 127 167.333 L 130 167.333 L 130 176.667 L 127 176.667 L 127 182.667 L 130 182.667 L 130 192"/>
      <path id="hole_001" style="fill:none;stroke:#000000;stroke-width:0.0508" d="M 85.5 161.333 L 85.5 167.333 L 88.5 167.333 L 88.5 161.333 L 85.5 161.333 Z"/>
      <path id="hole_002" style="fill:none;stroke:#000000;stroke-width:0.0508" d="M 85.5 176.667 L 85.5 182.667 L 88.5 182.667 L 88.5 176.667 L 85.5 176.667 Z"/>
      <path id="side_003" style="fill:none;stroke:#000000;stroke-width:0.0508" d="M 130 192 L 122.857 192 L 122.857 192 L 116.857 192 L 116.857 192 L 109.714 192 L 109.714 192 L 103.714 192 L 103.714 192 L 96.5714 192 L 96.5714 192 L 90.5714 192 L 90.5714 192 L 83.4286 192 L 83.4286 192 L 77.4286 192 L 77.4286 192 L 70.2857 192 L 70.2857 192 L 64.2857 192 L 64.2857 192 L 57.1429 192 L 57.1429 192 L 51.1429 192 L 51.1429 192 L 44 192"/>
      <path id="side_004" style="fill:none;stroke:#000000;stroke-width:0.0508" d="M 44 192 L 44 182.667 L 47 182.667 L 47 176.667 L 44 176.667 L 44 167.333 L 47 167.333 L 47 161.333 L 44 161.333 L 44 152"/>
    </g>
    <g id="xdivider_001">
      <path id="side_005" style="fill:none;stroke:#000000;stroke-width:0.0508" d="M 44 194 L 51.1429 194 L 51.1429 194 L 57.1429 194 L 57.1429 194 L 64.2857 194 L 64.2857 194 L 70.2857 194 L 70.2857 194 L 77.4286 194 L 77.4286 194 L 83.4286 194 L 83.4286 194 L 90.5714 194 L 90.5714 194 L 96.5714 194 L 96.5714 194 L 103.714 194 L 103.714 194 L 109.714 194 L 109.714 194 L 116.857 194 L 116.857 194 L 122.857 194 L 122.857 194 L 130 194"/>
      <path id="side_006" style="fill:none;stroke:#000000;stroke-width:0.0508" d="M 130 194 L 130 203.333 L 127 203.333 L 127 209.333 L 130 209.333 L 130 218.667 L 127 218.667 L 127 224.667 L 130 224.667 L 130 234"/>
      <path id="slot_001" style="fill:none;stroke:#000000;stroke-width:0.0508" d="M 85.5 194 L 85.5 214 L 88.5 214 L 88.5 194 L 85.5 194 Z"/>
      <path id="side_007" style="fill:none;stroke:#000000;stroke-width:0.0508" d="M 130 234 L 122.857 234 L 122.857 234 L 116.857 234 L 116.857 234 L 109.714 234 L 109.714 234 L 103.714 234 L 103.714 234 L 96.5714 234 L 96.5714 234 L 90.5714 234 L 90.5714 234 L 83.4286 234 L 83.4286 234 L 77.4286 234 L 77.4286 234 L 70.2857 234 L 70.2857 234 L 64.2857 234 L 64.2857 234 L 57.1429 234 L 57.1429 234 L 51.1429 234 L 51.1429 234 L 44 234"/>
      <path id="side_008" style="fill:none;stroke:#000000;stroke-width:0.0508" d="M 44 234 L 44 224.667 L 47 224.667 L 47 218.667 L 44 218.667 L 44 209.333 L 47 209.333 L 47 203.333 L 44 203.333 L 44 194"/>
    </g>
    <g id="piece_002">
      <path id="side_009" style="fill:none;stroke:#000000;stroke-width:0.0508" d="M 2 47 L 11.3333 47 L 11.3333 44 L 17.3333 44 L 17.3333 47 L 26.6667 47 L 26.6667 44 L 32.6667 44 L 32.6667 47 L 42 47"/>
      <path id="hole_003" style="fill:none;stroke:#000000;stroke-width:0.0508" d="M 2 98.5 L 11.3333 98.5 L 11.3333 95.5 L 2 95.5 L 2 98.5 Z"/>
      <path id="hole_004" style="fill:none;stroke:#000000;stroke-width:0.0508" d="M 17.3333 98.5 L 26.6667 98.5 L 26.6667 95.5 L 17.3333 95.5 L 17.3333 98.5 Z"/>
      <path id="hole_005" style="fill:none;stroke:#000000;stroke-width:0.0508" d="M 32.6667 98.5 L 42 98.5 L 42 95.5 L 32.6667 95.5 L 32.6667 98.5 Z"/>
      <path id="side_010" style="fill:none;stroke:#000000;stroke-width:0.0508" d="M 42 47 L 42 50.4444 L 42 50.4444 L 42 56.4444 L 42 56.4444 L 42 62.8889 L 42 62.8889 L 42 68.8889 L 42 68.8889 L 42 75.3333 L 42 75.3333 L 42 81.3333 L 42 81.3333 L 42 87.7778 L 42 87.7778 L 42 93.7778 L 42 93.7778 L 42 100.222 L 42 100.222 L 42 106.222 L 42 106.222 L 42 112.667 L 42 112.667 L 42 118.667 L 42 118.667 L 42 125.111 L 42 125.111 L 42 131.111 L 42 131.111 L 42 137.556 L 42 137.556 L 42 143.556 L 42 143.556 L 42 147"/>
      <path id="side_011" style="fill:none;stroke:#000000;stroke-width:0.0508" d="M 42 147 L 32.6667 147 L 32.6667 150 L 26.6667 150 L 26.6667 147 L 17.3333 147 L 17.3333 150 L 11.3333 150 L 11.3333 147 L 2 147"/>
      <path id="side_012" style="fill:none;stroke:#000000;stroke-width:0.0508" d="M 2 147 L 2 143.556 L 2 143.556 L 2 137.556 L 2 137.556 L 2 131.111 L 2 131.111 L 2 125.111 L 2 125.111 L 2 118.667 L 2 118.667 L 2 112.667 L 2 112.667 L 2 106.222 L 2 106.222 L 2 100.222 L 2 100.222 L 2 93.7778 L 2 93.7778 L 2 87.7778 L 2 87.7778 L 2 81.3333 L 2 81.3333 L 2 75.3333 L 2 75.3333 L 2 68.8889 L 2 68.8889 L 2 62.8889 L 2 62.8889 L 2 56.4444 L 2 56.4444 L 2 50.4444 L 2 50.4444 L 2 47"/>
    </g>
    <g id="ydivider_001">
      <path id="side_013" style="fill:none;stroke:#000000;stroke-width:0.0508" d="M 174 47 L 183.333 47 L 183.333 44 L 189.333 44 L 189.333 47 L 198.667 47 L 198.667 44 L 204.667 44 L 204.667 47 L 214 47"/>
      <path id="slot_002" style="fill:none;stroke:#000000;stroke-width:0.0508" d="M 174 95.5 L 194 95.5 L 194 98.5 L 174 98.5 L 174 95.5 Z"/>
      <path id="side_014" style="fill:none;stroke:#000000;stroke-width:0.0508" d="M 214 47 L 214 50.4444 L 214 50.4444 L 214 56.4444 L 214 56.4444 L 214 62.8889 L 214 62.8889 L 214 68.8889 L 214 68.8889 L 214 75.3333 L 214 75.3333 L 214 81.3333 L 214 81.3333 L 214 87.7778 L 214 87.7778 L 214 93.7778 L 214 93.7778 L 214 100.222 L 214 100.222 L 214 106.222 L 214 106.222 L 214 112.667 L 214 112.667 L 214 118.667 L 214 118.667 L 214 125.111 L 214 125.111 L 214 131.111 L 214 131.111 L 214 137.556 L 214 137.556 L 214 143.556 L 214 143.556 L 214 147"/>
      <path id="side_015" style="fill:none;stroke:#000000;stroke-width:0.0508" d="M 214 147 L 204.667 147 L 204.667 150 L 198.667 150 L 198.667 147 L 189.333 147 L 189.333 150 L 183.333 150 L 183.333 147 L 174 147"/>
      <path id="side_016" style="fill:none;stroke:#000000;stroke-width:0.0508" d="M 174 147 L 174 143.556 L 174 143.556 L 174 137.556 L 174 137.556 L 174 131.111 L 174 131.111 L 174 125.111 L 174 125.111 L 174 118.667 L 174 118.667 L 174 112.667 L 174 112.667 L 174 106.222 L 174 106.222 L 174 100.222 L 174 100.222 L 174 93.7778 L 174 93.7778 L 174 87.7778 L 174 87.7778 L 174 81.3333 L 174 81.3333 L 174 75.3333 L 174 75.3333 L 174 68.8889 L 174 68.8889 L 174 62.8889 L 174 62.8889 L 174 56.4444 L 174 56.4444 L 174 50.4444 L 174 50.4444 L 174 47"/>
    </g>
    <g id="piece_003">
      <path id="side_017" style="fill:none;stroke:#000000;stroke-width:0.0508" d="M 132 47 L 141.333 47 L 141.333 44 L 147.333 44 L 147.333 47 L 156.667 47 L 156.667 44 L 162.667 44 L 162.667 47 L 172 47"/>
      <path id="hole_006" style="fill:none;stroke:#000000;stroke-width:0.0508" d="M 132 98.5 L 141.333 98.5 L 141.333 95.5 L 132 95.5 L 132 98.5 Z"/>
      <path id="hole_007" style="fill:none;stroke:#000000;stroke-width:0.0508" d="M 147.333 98.5 L 156.667 98.5 L 156.667 95.5 L 147.333 95.5 L 147.333 98.5 Z"/>
      <path id="hole_008" style="fill:none;stroke:#000000;stroke-width:0.0508" d="M 162.667 98.5 L 172 98.5 L 172 95.5 L 162.667 95.5 L 162.667 98.5 Z"/>
      <path id="side_018" style="fill:none;stroke:#000000;stroke-width:0.0508" d="M 172 47 L 172 50.4444 L 172 50.4444 L 172 56.4444 L 172 56.4444 L 172 62.8889 L 172 62.8889 L 172 68.8889 L 172 68.8889 L 172 75.3333 L 172 75.3333 L 172 81.3333 L 172 81.3333 L 172 87.7778 L 172 87.7778 L 172 93.7778 L 172 93.7778 L 172 100.222 L 172 100.222 L 172 106.222 L 172 106.222 L 172 112.667 L 172 112.667 L 172 118.667 L 172 118.667 L 172 125.111 L 172 125.111 L 172 131.111 L 172 131.111 L 172 137.556 L 172 137.556 L 172 143.556 L 172 143.556 L 172 147"/>
      <path id="side_019" style="fill:none;stroke:#000000;stroke-width:0.0508" d="M 172 147 L 162.667 147 L 162.667 150 L 156.667 150 L 156.667 147 L 147.333 147 L 147.333 150 L 141.333 150 L 141.333 147 L 132 147"/>
      <path id="side_020" style="fill:none;stroke:#000000;stroke-width:0.0508" d="M 132 147 L 132 143.556 L 132 143.556 L 132 137.556 L 132 137.556 L 132 131.111 L 132 131.111 L 132 125.111 L 132 125.111 L 132 118.667 L 132 118.667 L 132 112.667 L 132 112.667 L 132 106.222 L 132 106.222 L 132 100.222 L 132 100.222 L 132 93.7778 L 132 93.7778 L 132 87.7778 L 132 87.7778 L 132 81.3333 L 132 81.3333 L 132 75.3333 L 132 75.3333 L 132 68.8889 L 132 68.8889 L 132 62.8889 L 132 62.8889 L 132 56.4444 L 132 56.4444 L 132 50.4444 L 132 50.4444 L 132 47"/>
    </g>
    <g id="piece_004">
      <path id="side_021" style="fill:none;stroke:#000000;stroke-width:0.0508" d="M 44 2 L 51.1429 2 L 51.1429 2 L 57.1429 2 L 57.1429 2 L 64.2857 2 L 64.2857 2 L 70.2857 2 L 70.2857 2 L 77.4286 2 L 77.4286 2 L 83.4286 2 L 83.4286 2 L 90.5714 2 L 90.5714 2 L 96.5714 2 L 96.5714 2 L 103.714 2 L 103.714 2 L 109.714 2 L 109.714 2 L 116.857 2 L 116.857 2 L 122.857 2 L 122.857 2 L 130 2"/>
      <path id="side_022" style="fill:none;stroke:#000000;stroke-width:0.0508" d="M 130 2 L 130 11.3333 L 127 11.3333 L 127 17.3333 L 130 17.3333 L 130 26.6667 L 127 26.6667 L 127 32.6667 L 130 32.6667 L 130 42"/>
      <path id="hole_009" style="fill:none;stroke:#000000;stroke-width:0.0508" d="M 85.5 11.3333 L 85.5 17.3333 L 88.5 17.3333 L 88.5 11.3333 L 85.5 11.3333 Z"/>
      <path id="hole_010" style="fill:none;stroke:#000000;stroke-width:0.0508" d="M 85.5 26.6667 L 85.5 32.6667 L 88.5 32.6667 L 88.5 26.6667 L 85.5 26.6667 Z"/>
      <path id="side_023" style="fill:none;stroke:#000000;stroke-width:0.0508" d="M 130 42 L 122.857 42 L 122.857 42 L 116.857 42 L 116.857 42 L 109.714 42 L 109.714 42 L 103.714 42 L 103.714 42 L 96.5714 42 L 96.5714 42 L 90.5714 42 L 90.5714 42 L 83.4286 42 L 83.4286 42 L 77.4286 42 L 77.4286 42 L 70.2857 42 L 70.2857 42 L 64.2857 42 L 64.2857 42 L 57.1429 42 L 57.1429 42 L 51.1429 42 L 51.1429 42 L 44 42"/>
      <path id="side_024" style="fill:none;stroke:#000000;stroke-width:0.0508" d="M 44 42 L 44 32.6667 L 47 32.6667 L 47 26.6667 L 44 26.6667 L 44 17.3333 L 47 17.3333 L 47 11.3333 L 44 11.3333 L 44 2"/>
    </g>
  </g>
</svg>