<!-- Created with Inkscape (http://www.inkscape.org/) -->
<svg xmlns:inkscape="http://www.inkscape.org/namespaces/inkscape" xmlns:sodipodi="http://sodipodi.sourceforge.net/DTD/sodipodi-0.dtd" xmlns="http://www.w3.org/2000/svg" xmlns:svg="http://www.w3.org/2000/svg" width="128mm" height="337mm" viewBox="0 0 128 337" version="1.1" id="svg5" inkscape:version="1.1.2 (0a00cf5339, 2022-02-04)" sodipodi:docname="blank.svg">
  <sodipodi:namedview id="namedview7" pagecolor="#ffffff" bordercolor="#666666" borderopacity="1.0" inkscape:pageshadow="2" inkscape:pageopacity="0.0" inkscape:pagecheckerboard="0" inkscape:document-units="mm" showgrid="false" inkscape:zoom="0.64052329" inkscape:cx="397.33138" inkscape:cy="561.25984" inkscape:window-width="2086" inkscape:window-height="1376" inkscape:window-x="0" inkscape:window-y="0" inkscape:window-maximized="1" inkscape:current-layer="layer1"/>
  <defs id="defs2"/>
  <g inkscape:label="Layer 1" inkscape:groupmode="layer" id="layer1">
    <metadata text="createArgs=['--unit=mm', '--inside=1', '--length=80', '--width=100', '--depth=40', '--equal=0', '--tab=6', '--tabtype=0', '--tabsymmetry=0', '--dimpleheight=0', '--dimplelength=0', '--hairline=0', '--thickness=3', '--kerf=0', '--style=1', '--div_l=1', '--div_w=1', '--keydiv=0', '--spacing=2', '--boxtype=6']"/>
    <g id="piece_001">
      <path id="side_001" style="fill:none;stroke:#000000;stroke-width:1" d="M 5 5 L 8.25 5 L 8.25 5 L 14.25 5 L 14.25 5 L 20.5 5 L 20.5 5 L 26.5 5 L 26.5 5 L 32.75 5 L 32.75 5 L 38.75 5 L 38.75 5 L 42 5"/>
      <path id="side_002" style="fill:none;stroke:#000000;stroke-width:1" d="M 42 5 L 42 9.25 L 45 9.25 L 45 15.25 L 42 15.25 L 42 22.5 L 45 22.5 L 45 28.5 L 42 28.5 L 42 35.75 L 45 35.75 L 45 41.75 L 42 41.75 L 42 49 L 45 49 L 45 55 L 42 55 L 42 62.25 L 45 62.25 L 45 68.25 L 42 68.25 L 42 75.5 L 45 75.5 L 45 81.5 L 42 81.5 L 42 88.75 L 45 88.75 L 45 94.75 L 42 94.75 L 42 99"/>
      <path id="side_003" style="fill:none;stroke:#000000;stroke-width:1" d="M 42 99 L 38.75 99 L 38.75 99 L 32.75 99 L 32.75 99 L 26.5 99 L 26.5 99 L 20.5 99 L 20.5 99 L 14.25 99 L 14.25 99 L 8.25 99 L 8.25 99 L 5 99"/>
      <path id="side_004" style="fill:none;stroke:#000000;stroke-width:1" d="M 5 99 L 5 94.75 L 5 94.75 L 5 88.75 L 5 88.75 L 5 81.5 L 5 81.5 L 5 75.5 L 5 75.5 L 5 68.25 L 5 68.25 L 5 62.25 L 5 62.25 L 5 55 L 5 55 L 5 49 L 5 49 L 5 41.75 L 5 41.75 L 5 35.75 L 5 35.75 L 5 28.5 L 5 28.5 L 5 22.5 L 5 22.5 L 5 15.25 L 5 15.25 L 5 9.25 L 5 9.25 L 5 5"/>
    </g>
    <g id="xdivider_001">
      <path id="side_005" style="fill:none;stroke:#000000;stroke-width:1" d="M 0 197 L 6.71429 197 L 6.71429 197 L 12.7143 197 L 12.7143 197 L 19.4286 197 L 19.4286 197 L 25.4286 197 L 25.4286 197 L 32.1429 197 L 32.1429 197 L 38.1429 197 L 38.1429 197 L 44.8571 197 L 44.8571 197 L 50.8571 197 L 50.8571 197 L 57.5714 197 L 57.5714 197 L 63.5714 197 L 63.5714 197 L 70.2857 197 L 70.2857 197 L 76.2857 197 L 76.2857 197 L 80 197"/>
      <path id="side_006" style="fill:none;stroke:#000000;stroke-width:1" d="M 80 197 L 80 200.25 L 80 200.25 L 80 206.25 L 80 206.25 L 80 212.5 L 80 212.5 L 80 218.5 L 80 218.5 L 80 224.75 L 80 224.75 L 80 230.75 L 80 230.75 L 80 234"/>
      <path id="slot_001" style="fill:none;stroke:#000000;stroke-width:1" d="M 37 194 L 37 215.5 L 40 215.5 L 40 194 L 37 194 Z"/>
      <path id="side_007" style="fill:none;stroke:#000000;stroke-width:1" d="M 80 234 L 76.2857 234 L 76.2857 234 L 70.2857 234 L 70.2857 234 L 63.5714 234 L 63.5714 234 L 57.5714 234 L 57.5714 234 L 50.8571 234 L 50.8571 234 L 44.8571 234 L 44.8571 234 L 38.1429 234 L 38.1429 234 L 32.1429 234 L 32.1429 234 L 25.4286 234 L 25.4286 234 L 19.4286 234 L 19.4286 234 L 12.7143 234 L 12.7143 234 L 6.7143 234 L 6.7143 234 L 0 234"/>
      <path id="side_008" style="fill:none;stroke:#000000;stroke-width:1" d="M 0 234 L 0 230.75 L 0 230.75 L 0 224.75 L 0 224.75 L 0 218.5 L 0 218.5 L 0 212.5 L 0 212.5 L 0 206.25 L 0 206.25 L 0 200.25 L 0 200.25 L 0 197"/>
    </g>
    <g id="ydivider_001">
      <path id="side_009" style="fill:none;stroke:#000000;stroke-width:1" d="M 3 242 L 6.25 242 L 6.25 242 L 12.25 242 L 12.25 242 L 18.5 242 L 18.5 242 L 24.5 242 L 24.5 242 L 30.75 242 L 30.75 242 L 36.75 242 L 36.75 242 L 40 242"/>
      <path id="slot_002" style="fill:none;stroke:#000000;stroke-width:1" d="M 0 287.5 L 21.5 287.5 L 21.5 290.5 L 0 290.5 L 0 287.5 Z"/>
      <path id="side_010" style="fill:none;stroke:#000000;stroke-width:1" d="M 40 242 L 40 246.25 L 43 246.25 L 43 252.25 L 40 252.25 L 40 259.5 L 43 259.5 L 43 265.5 L 40 265.5 L 40 272.75 L 43 272.75 L 43 278.75 L 40 278.75 L 40 286 L 43 286 L 43 292 L 40 292 L 40 299.25 L 43 299.25 L 43 305.25 L 40 305.25 L 40 312.5 L 43 312.5 L 43 318.5 L 40 318.5 L 40 325.75 L 43 325.75 L 43 331.75 L 40 331.75 L 40 336"/>
      <path id="side_011" style="fill:none;stroke:#000000;stroke-width:1" d="M 40 336 L 36.75 336 L 36.75 336 L 30.75 336 L 30.75 336 L 24.5 336 L 24.5 336 L 18.5 336 L 18.5 336 L 12.25 336 L 12.25 336 L 6.25 336 L 6.25 336 L 3 336"/>
      <path id="side_012" style="fill:none;stroke:#000000;stroke-width:1" d="M 3 336 L 3 331.75 L 3 331.75 L 3 325.75 L 3 325.75 L 3 318.5 L 3 318.5 L 3 312.5 L 3 312.5 L 3 305.25 L 3 305.25 L 3 299.25 L 3 299.25 L 3 292 L 3 292 L 3 286 L 3 286 L 3 278.75 L 3 278.75 L 3 272.75 L 3 272.75 L 3 265.5 L 3 265.5 L 3 259.5 L 3 259.5 L 3 252.25 L 3 252.25 L 3 246.25 L 3 246.25 L 3 242"/>
    </g>
    <g id="piece_002">
      <path id="side_013" style="fill:none;stroke:#000000;stroke-width:1" d="M 47 5 L 53.7143 5 L 53.7143 5 L 59.7143 5 L 59.7143 5 L 66.4286 5 L 66.4286 5 L 72.4286 5 L 72.4286 5 L 79.1429 5 L 79.1429 5 L 85.1429 5 L 85.1429 5 L 91.8571 5 L 91.8571 5 L 97.8571 5 L 97.8571 5 L 104.571 5 L 104.571 5 L 110.571 5 L 110.571 5 L 117.286 5 L 117.286 5 L 123.286 5 L 123.286 5 L 127 5"/>
      <path id="side_014" style="fill:none;stroke:#000000;stroke-width:1" d="M 127 5 L 127 9.25 L 127 9.25 L 127 15.25 L 127 15.25 L 127 22.5 L 127 22.5 L 127 28.5 L 127 28.5 L 127 35.75 L 127 35.75 L 127 41.75 L 127 41.75 L 127 49 L 127 49 L 127 55 L 127 55 L 127 62.25 L 127 62.25 L 127 68.25 L 127 68.25 L 127 75.5 L 127 75.5 L 127 81.5 L 127 81.5 L 127 88.75 L 127 88.75 L 127 94.75 L 127 94.75 L 127 99"/>
      <path id="side_015" style="fill:none;stroke:#000000;stroke-width:1" d="M 127 99 L 123.286 99 L 123.286 99 L 117.286 99 L 117.286 99 L 110.571 99 L 110.571 99 L 104.571 99 L 104.571 99 L 97.8571 99 L 97.8571 99 L 91.8571 99 L 91.8571 99 L 85.1429 99 L 85.1429 99 L 79.1429 99 L 79.1429 99 L 72.4286 99 L 72.4286 99 L 66.4286 99 L 66.4286 99 L 59.7143 99 L 59.7143 99 L 53.7143 99 L 53.7143 99 L 47 99"/>
      <path id="side_016" style="fill:none;stroke:#000000;stroke-width:1" d="M 47 99 L 47 94.75 L 50 94.75 L 50 88.75 L 47 88.75 L 47 81.5 L 50 81.5 L 50 75.5 L 47 75.5 L 47 68.25 L 50 68.25 L 50 62.25 L 47 62.25 L 47 55 L 50 55 L 50 49 L 47 49 L 47 41.75 L 50 41.75 L 50 35.75 L 47 35.75 L 47 28.5 L 50 28.5 L 50 22.5 L 47 22.5 L 47 15.25 L 50 15.25 L 50 9.25 L 47 9.25 L 47 5"/>
      <path id="hole_001" style="fill:none;stroke:#000000;stroke-width:1" d="M 90 94.75 L 90 88.75 L 87 88.75 L 87 94.75 L 90 94.75 Z"/>
      <path id="hole_002" style="fill:none;stroke:#000000;stroke-width:1" d="M 90 81.5 L 90 75.5 L 87 75.5 L 87 81.5 L 90 81.5 Z"/>
      <path id="hole_003" style="fill:none;stroke:#000000;stroke-width:1" d="M 90 68.25 L 90 62.25 L 87 62.25 L 87 68.25 L 90 68.25 Z"/>
      <path id="hole_004" style="fill:none;stroke:#000000;stroke-width:1" d="M 90 55 L 90 49 L 87 49 L 87 55 L 90 55 Z"/>
      <path id="hole_005" style="fill:none;stroke:#000000;stroke-width:1" d="M 90 41.75 L 90 35.75 L 87 35.75 L 87 41.75 L 90 41.75 Z"/>
      <path id="hole_006" style="fill:none;stroke:#000000;stroke-width:1" d="M 90 28.5 L 90 22.5 L 87 22.5 L 87 28.5 L 90 28.5 Z"/>
      <path id="hole_007" style="fill:none;stroke:#000000;stroke-width:1" d="M 90 15.25 L 90 9.25 L 87 9.25 L 87 15.25 L 90 15.25 Z"/>
    </g>
  </g>
</svg>