<!-- Created with Inkscape (http://www.inkscape.org/) -->
<svg xmlns:inkscape="http://www.inkscape.org/namespaces/inkscape" xmlns:sodipodi="http://sodipodi.sourceforge.net/DTD/sodipodi-0.dtd" xmlns="http://www.w3.org/2000/svg" xmlns:svg="http://www.w3.org/2000/svg" width="215mm" height="235mm" viewBox="0 0 215 235" version="1.1" id="svg5" inkscape:version="1.1.2 (0a00cf5339, 2022-02-04)" sodipodi:docname="blank.svg">
  <sodipodi:namedview id="namedview7" pagecolor="#ffffff" bordercolor="#666666" borderopacity="1.0" inkscape:pageshadow="2" inkscape:pageopacity="0.0" inkscape:pagecheckerboard="0" inkscape:document-units="mm" showgrid="false" inkscape:zoom="0.64052329" inkscape:cx="397.33138" inkscape:cy="561.25984" inkscape:window-width="2086" inkscape:window-height="1376" inkscape:window-x="0" inkscape:window-y="0" inkscape:window-maximized="1" inkscape:current-layer="layer1"/>
  <defs id="defs2"/>
  <g inkscape:label="Layer 1" inkscape:groupmode="layer" id="layer1">
    <metadata text="createArgs=['--unit=mm', '--inside=1', '--length=80', '--width=100', '--depth=40', '--equal=0', '--tab=6', '--tabtype=0', '--tabsymmetry=0', '--dimpleheight=0', '--dimplelength=0', '--hairline=1', '--thickness=3', '--kerf=0', '--style=1', '--div-l=1', '--div-w=1', '--keydiv=0', '--spacing=2', '--boxtype=5']"/>
    <path id="piece_001" style="fill:none;stroke:#000000;stroke-width:0.0508" d="M 44 161.333 L 47 161.333 L 47 167.333 L 44 167.333 L 44 176.667 L 47 176.667 L 47 182.667 L 44 182.667 L 44 192 L 130 192 L 130 182.667 L 127 182.667 L 127 176.667 L 130 176.667 L 130 167.333 L 127 167.333 L 127 161.333 L 130 161.333 L 130 152 L 44 152 L 44 161.333 Z M 85.5 161.333 L 88.5 161.333 L 88.5 167.333 L 85.5 167.333 L 85.5 161.333 Z M 85.5 176.667 L 88.5 176.667 L 88.5 182.667 L 85.5 182.667 L 85.5 176.667 Z"/>
    <path id="xdivider_001" style="fill:none;stroke:#000000;stroke-width:0.0508" d="M 44 203.333 L 47 203.333 L 47 209.333 L 44 209.333 L 44 218.667 L 47 218.667 L 47 224.667 L 44 224.667 L 44 234 L 130 234 L 130 224.667 L 127 224.667 L 127 218.667 L 130 218.667 L 130 209.333 L 127 209.333 L 127 203.333 L 130 203.333 L 130 194 L 88.5 194 L 88.5 214 L 85.5 214 L 85.5 194 L 44 194 L 44 203.333 Z"/>
    <path id="piece_002" style="fill:none;stroke:#000000;stroke-width:0.0508" d="M 2 95.5 L 11.3333 95.5 L 11.3333 98.5 L 2 98.5 L 2 147 L 11.3333 147 L 11.3333 150 L 17.3333 150 L 17.3333 147 L 26.6667 147 L 26.6667 150 L 32.6667 150 L 32.6667 147 L 42 147 L 42 98.5 L 32.6667 98.5 L 32.6667 95.5 L 42 95.5 L 42 47 L 32.6667 47 L 32.6667 44 L 26.6667 44 L 26.6667 47 L 17.3333 47 L 17.3333 44 L 11.3333 44 L 11.3333 47 L 2 47 L 2 95.5 Z M 17.3333 95.5 L 26.6667 95.5 L 26.6667 98.5 L 17.3333 98.5 L 17.3333 95.5 Z"/>
    <path id="ydivider_001" style="fill:none;stroke:#000000;stroke-width:0.0508" d="M 174 95.5 L 194 95.5 L 194 98.5 L 174 98.5 L 174 147 L 183.333 147 L 183.333 150 L 189.333 150 L 189.333 147 L 198.667 147 L 198.667 150 L 204.667 150 L 204.667 147 L 214 147 L 214 47 L 204.667 47 L 204.667 44 L 198.667 44 L 198.667 47 L 189.333 47 L 189.333 44 L 183.333 44 L 183.333 47 L 174 47 L 174 95.5 Z"/>
    <path id="piece_003" style="fill:none;stroke:#000000;stroke-width:0.0508" d="M 132 95.5 L 141.333 95.5 L 141.333 98.5 L 132 98.5 L 132 147 L 141.333 147 L 141.333 150 L 147.333 150 L 147.333 147 L 156.667 147 L 156.667 150 L 162.667 150 L 162.667 147 L 172 147 L 172 98.5 L 162.667 98.5 L 162.667 95.5 L 172 95.5 L 172 47 L 162.667 47 L 162.667 44 L 156.667 44 L 156.667 47 L 147.333 47 L 147.333 44 L 141.333 44 L 141.333 47 L 132 47 L 132 95.5 Z M 147.333 95.5 L 156.667 95.5 L 156.667 98.5 L 147.333 98.5 L 147.333 95.5 Z"/>
    <path id="piece_004" style="fill:none;stroke:#000000;stroke-width:0.0508" d="M 44 11.3333 L 47 11.3333 L 47 17.3333 L 44 17.3333 L 44 26.6667 L 47 26.6667 L 47 32.6667 L 44 32.6667 L 44 42 L 130 42 L 130 32.6667 L 127 32.6667 L 127 26.6667 L 130 26.6667 L 130 17.3333 L 127 17.3333 L 127 11.3333 L 130 11.3333 L 130 2 L 44 2 L 44 11.3333 Z M 85.5 11.3333 L 88.5 11.3333 L 88.5 17.3333 L 85.5 17.3333 L 85.5 11.3333 Z M 85.5 26.6667 L 88.5 26.6667 L 88.5 32.6667 L 85.5 32.6667 L 85.5 26.6667 Z"/>
  </g>
</svg>