<!-- Created with Inkscape (http://www.inkscape.org/) -->
<svg xmlns:inkscape="http://www.inkscape.org/namespaces/inkscape" xmlns:sodipodi="http://sodipodi.sourceforge.net/DTD/sodipodi-0.dtd" xmlns="http://www.w3.org/2000/svg" xmlns:svg="http://www.w3.org/2000/svg" width="224mm" height="196mm" viewBox="0 0 224 196" version="1.1" id="svg5" inkscape:version="1.1.2 (0a00cf5339, 2022-02-04)" sodipodi:docname="blank.svg">
  <sodipodi:namedview id="namedview7" pagecolor="#ffffff" bordercolor="#666666" borderopacity="1.0" inkscape:pageshadow="2" inkscape:pageopacity="0.0" inkscape:pagecheckerboard="0" inkscape:document-units="mm" showgrid="false" inkscape:zoom="0.64052329" inkscape:cx="397.33138" inkscape:cy="561.25984" inkscape:window-width="2086" inkscape:window-height="1376" inkscape:window-x="0" inkscape:window-y="0" inkscape:window-maximized="1" inkscape:current-layer="layer1"/>
  <defs id="defs2"/>
  <g inkscape:label="Layer 1" inkscape:groupmode="layer" id="layer1">
    <metadata text="createArgs=['--unit=mm', '--inside=1', '--length=80', '--width=100', '--depth=40', '--equal=0', '--tab=6', '--tabtype=0', '--tabsymmetry=0', '--dimpleheight=0', '--dimplelength=0', '--hairline=1', '--thickness=3', '--kerf=0', '--style=1', '--div_l=1', '--div_w=1', '--keydiv=0', '--spacing=2', '--boxtype=3']"/>
    <g id="piece_001">
      <path id="side_001" style="fill:none;stroke:#000000;stroke-width:0.0508" d="M 47 110 L 54.1429 110 L 54.1429 107 L 60.1429 107 L 60.1429 110 L 67.2857 110 L 67.2857 107 L 73.2857 107 L 73.2857 110 L 80.4286 110 L 80.4286 107 L 86.4286 107 L 86.4286 110 L 93.5714 110 L 93.5714 107 L 99.5714 107 L 99.5714 110 L 106.714 110 L 106.714 107 L 112.714 107 L 112.714 110 L 119.857 110 L 119.857 107 L 125.857 107 L 125.857 110 L 133 110"/>
      <path id="side_002" style="fill:none;stroke:#000000;stroke-width:0.0508" d="M 133 110 L 133 113.25 L 130 113.25 L 130 119.25 L 133 119.25 L 133 125.5 L 130 125.5 L 130 131.5 L 133 131.5 L 133 137.75 L 130 137.75 L 130 143.75 L 133 143.75 L 133 150"/>
      <path id="hole_001" style="fill:none;stroke:#000000;stroke-width:0.0508" d="M 91.5 113.25 L 91.5 119.25 L 88.5 119.25 L 88.5 113.25 L 91.5 113.25 Z"/>
      <path id="hole_002" style="fill:none;stroke:#000000;stroke-width:0.0508" d="M 91.5 125.5 L 91.5 131.5 L 88.5 131.5 L 88.5 125.5 L 91.5 125.5 Z"/>
      <path id="hole_003" style="fill:none;stroke:#000000;stroke-width:0.0508" d="M 91.5 137.75 L 91.5 143.75 L 88.5 143.75 L 88.5 137.75 L 91.5 137.75 Z"/>
      <path id="side_003" style="fill:none;stroke:#000000;stroke-width:0.0508" d="M 133 150 L 125.857 150 L 125.857 150 L 119.857 150 L 119.857 150 L 112.714 150 L 112.714 150 L 106.714 150 L 106.714 150 L 99.5714 150 L 99.5714 150 L 93.5714 150 L 93.5714 150 L 86.4286 150 L 86.4286 150 L 80.4286 150 L 80.4286 150 L 73.2857 150 L 73.2857 150 L 67.2857 150 L 67.2857 150 L 60.1429 150 L 60.1429 150 L 54.1429 150 L 54.1429 150 L 47 150"/>
      <path id="side_004" style="fill:none;stroke:#000000;stroke-width:0.0508" d="M 47 150 L 47 143.75 L 50 143.75 L 50 137.75 L 47 137.75 L 47 131.5 L 50 131.5 L 50 125.5 L 47 125.5 L 47 119.25 L 50 119.25 L 50 113.25 L 47 113.25 L 47 110"/>
    </g>
    <g id="xdivider_001">
      <path id="side_005" style="fill:none;stroke:#000000;stroke-width:0.0508" d="M 47 155 L 54.1429 155 L 54.1429 152 L 60.1429 152 L 60.1429 155 L 67.2857 155 L 67.2857 152 L 73.2857 152 L 73.2857 155 L 80.4286 155 L 80.4286 152 L 86.4286 152 L 86.4286 155 L 93.5714 155 L 93.5714 152 L 99.5714 152 L 99.5714 155 L 106.714 155 L 106.714 152 L 112.714 152 L 112.714 155 L 119.857 155 L 119.857 152 L 125.857 152 L 125.857 155 L 133 155"/>
      <path id="side_006" style="fill:none;stroke:#000000;stroke-width:0.0508" d="M 133 155 L 133 158.25 L 130 158.25 L 130 164.25 L 133 164.25 L 133 170.5 L 130 170.5 L 130 176.5 L 133 176.5 L 133 182.75 L 130 182.75 L 130 188.75 L 133 188.75 L 133 195"/>
      <path id="slot_001" style="fill:none;stroke:#000000;stroke-width:0.0508" d="M 91.5 152 L 91.5 175 L 88.5 175 L 88.5 152 L 91.5 152 Z"/>
      <path id="side_007" style="fill:none;stroke:#000000;stroke-width:0.0508" d="M 133 195 L 125.857 195 L 125.857 195 L 119.857 195 L 119.857 195 L 112.714 195 L 112.714 195 L 106.714 195 L 106.714 195 L 99.5714 195 L 99.5714 195 L 93.5714 195 L 93.5714 195 L 86.4286 195 L 86.4286 195 L 80.4286 195 L 80.4286 195 L 73.2857 195 L 73.2857 195 L 67.2857 195 L 67.2857 195 L 60.1429 195 L 60.1429 195 L 54.1429 195 L 54.1429 195 L 47 195"/>
      <path id="side_008" style="fill:none;stroke:#000000;stroke-width:0.0508" d="M 47 195 L 47 188.75 L 50 188.75 L 50 182.75 L 47 182.75 L 47 176.5 L 50 176.5 L 50 170.5 L 47 170.5 L 47 164.25 L 50 164.25 L 50 158.25 L 47 158.25 L 47 155"/>
    </g>
    <g id="piece_002">
      <path id="side_009" style="fill:none;stroke:#000000;stroke-width:0.0508" d="M 2 2 L 8.25 2 L 8.25 2 L 14.25 2 L 14.25 2 L 20.5 2 L 20.5 2 L 26.5 2 L 26.5 2 L 32.75 2 L 32.75 2 L 38.75 2 L 38.75 2 L 42 2"/>
      <path id="side_010" style="fill:none;stroke:#000000;stroke-width:0.0508" d="M 42 2 L 42 8.11111 L 45 8.11111 L 45 14.1111 L 42 14.1111 L 42 20.2222 L 45 20.2222 L 45 26.2222 L 42 26.2222 L 42 32.3333 L 45 32.3333 L 45 38.3333 L 42 38.3333 L 42 44.4444 L 45 44.4444 L 45 50.4444 L 42 50.4444 L 42 56.5556 L 45 56.5556 L 45 62.5556 L 42 62.5556 L 42 68.6667 L 45 68.6667 L 45 74.6667 L 42 74.6667 L 42 80.7778 L 45 80.7778 L 45 86.7778 L 42 86.7778 L 42 92.8889 L 45 92.8889 L 45 98.8889 L 42 98.8889 L 42 102"/>
      <path id="side_011" style="fill:none;stroke:#000000;stroke-width:0.0508" d="M 42 102 L 38.75 102 L 38.75 105 L 32.75 105 L 32.75 102 L 26.5 102 L 26.5 105 L 20.5 105 L 20.5 102 L 14.25 102 L 14.25 105 L 8.25 105 L 8.25 102 L 2 102"/>
      <path id="hole_004" style="fill:none;stroke:#000000;stroke-width:0.0508" d="M 42 53.5 L 38.75 53.5 L 38.75 50.5 L 42 50.5 L 42 53.5 Z"/>
      <path id="hole_005" style="fill:none;stroke:#000000;stroke-width:0.0508" d="M 32.75 53.5 L 26.5 53.5 L 26.5 50.5 L 32.75 50.5 L 32.75 53.5 Z"/>
      <path id="hole_006" style="fill:none;stroke:#000000;stroke-width:0.0508" d="M 20.5 53.5 L 14.25 53.5 L 14.25 50.5 L 20.5 50.5 L 20.5 53.5 Z"/>
      <path id="hole_007" style="fill:none;stroke:#000000;stroke-width:0.0508" d="M 8.25 53.5 L 2 53.5 L 2 50.5 L 8.25 50.5 L 8.25 53.5 Z"/>
      <path id="side_012" style="fill:none;stroke:#000000;stroke-width:0.0508" d="M 2 102 L 2 98.8889 L 2 98.8889 L 2 92.8889 L 2 92.8889 L 2 86.7778 L 2 86.7778 L 2 80.7778 L 2 80.7778 L 2 74.6667 L 2 74.6667 L 2 68.6667 L 2 68.6667 L 2 62.5556 L 2 62.5556 L 2 56.5556 L 2 56.5556 L 2 50.4444 L 2 50.4444 L 2 44.4444 L 2 44.4444 L 2 38.3333 L 2 38.3333 L 2 32.3333 L 2 32.3333 L 2 26.2222 L 2 26.2222 L 2 20.2222 L 2 20.2222 L 2 14.1111 L 2 14.1111 L 2 8.1111 L 2 8.1111 L 2 2"/>
    </g>
    <g id="ydivider_001">
      <path id="side_013" style="fill:none;stroke:#000000;stroke-width:0.0508" d="M 180 2 L 186.25 2 L 186.25 2 L 192.25 2 L 192.25 2 L 198.5 2 L 198.5 2 L 204.5 2 L 204.5 2 L 210.75 2 L 210.75 2 L 216.75 2 L 216.75 2 L 220 2"/>
      <path id="slot_002" style="fill:none;stroke:#000000;stroke-width:0.0508" d="M 180 50.5 L 200 50.5 L 200 53.5 L 180 53.5 L 180 50.5 Z"/>
      <path id="side_014" style="fill:none;stroke:#000000;stroke-width:0.0508" d="M 220 2 L 220 5.44444 L 223 5.44444 L 223 11.4444 L 220 11.4444 L 220 17.8889 L 223 17.8889 L 223 23.8889 L 220 23.8889 L 220 30.3333 L 223 30.3333 L 223 36.3333 L 220 36.3333 L 220 42.7778 L 223 42.7778 L 223 48.7778 L 220 48.7778 L 220 55.2222 L 223 55.2222 L 223 61.2222 L 220 61.2222 L 220 67.6667 L 223 67.6667 L 223 73.6667 L 220 73.6667 L 220 80.1111 L 223 80.1111 L 223 86.1111 L 220 86.1111 L 220 92.5556 L 223 92.5556 L 223 98.5556 L 220 98.5556 L 220 102"/>
      <path id="side_015" style="fill:none;stroke:#000000;stroke-width:0.0508" d="M 220 102 L 216.75 102 L 216.75 105 L 210.75 105 L 210.75 102 L 204.5 102 L 204.5 105 L 198.5 105 L 198.5 102 L 192.25 102 L 192.25 105 L 186.25 105 L 186.25 102 L 180 102"/>
      <path id="side_016" style="fill:none;stroke:#000000;stroke-width:0.0508" d="M 180 102 L 180 98.5556 L 180 98.5556 L 180 92.5556 L 180 92.5556 L 180 86.1111 L 180 86.1111 L 180 80.1111 L 180 80.1111 L 180 73.6667 L 180 73.6667 L 180 67.6667 L 180 67.6667 L 180 61.2222 L 180 61.2222 L 180 55.2222 L 180 55.2222 L 180 48.7778 L 180 48.7778 L 180 42.7778 L 180 42.7778 L 180 36.3333 L 180 36.3333 L 180 30.3333 L 180 30.3333 L 180 23.8889 L 180 23.8889 L 180 17.8889 L 180 17.8889 L 180 11.4444 L 180 11.4444 L 180 5.4444 L 180 5.4444 L 180 2"/>
    </g>
    <g id="piece_003">
      <path id="side_017" style="fill:none;stroke:#000000;stroke-width:0.0508" d="M 47 2 L 54.1429 2 L 54.1429 2 L 60.1429 2 L 60.1429 2 L 67.2857 2 L 67.2857 2 L 73.2857 2 L 73.2857 2 L 80.4286 2 L 80.4286 2 L 86.4286 2 L 86.4286 2 L 93.5714 2 L 93.5714 2 L 99.5714 2 L 99.5714 2 L 106.714 2 L 106.714 2 L 112.714 2 L 112.714 2 L 119.857 2 L 119.857 2 L 125.857 2 L 125.857 2 L 133 2"/>
      <path id="side_018" style="fill:none;stroke:#000000;stroke-width:0.0508" d="M 133 2 L 133 8.11111 L 130 8.11111 L 130 14.1111 L 133 14.1111 L 133 20.2222 L 130 20.2222 L 130 26.2222 L 133 26.2222 L 133 32.3333 L 130 32.3333 L 130 38.3333 L 133 38.3333 L 133 44.4444 L 130 44.4444 L 130 50.4444 L 133 50.4444 L 133 56.5556 L 130 56.5556 L 130 62.5556 L 133 62.5556 L 133 68.6667 L 130 68.6667 L 130 74.6667 L 133 74.6667 L 133 80.7778 L 130 80.7778 L 130 86.7778 L 133 86.7778 L 133 92.8889 L 130 92.8889 L 130 98.8889 L 133 98.8889 L 133 105"/>
      <path id="hole_008" style="fill:none;stroke:#000000;stroke-width:0.0508" d="M 91.5 8.11111 L 91.5 14.1111 L 88.5 14.1111 L 88.5 8.11111 L 91.5 8.11111 Z"/>
      <path id="hole_009" style="fill:none;stroke:#000000;stroke-width:0.0508" d="M 91.5 20.2222 L 91.5 26.2222 L 88.5 26.2222 L 88.5 20.2222 L 91.5 20.2222 Z"/>
      <path id="hole_010" style="fill:none;stroke:#000000;stroke-width:0.0508" d="M 91.5 32.3333 L 91.5 38.3333 L 88.5 38.3333 L 88.5 32.3333 L 91.5 32.3333 Z"/>
      <path id="hole_011" style="fill:none;stroke:#000000;stroke-width:0.0508" d="M 91.5 44.4444 L 91.5 50.4444 L 88.5 50.4444 L 88.5 44.4444 L 91.5 44.4444 Z"/>
      <path id="hole_012" style="fill:none;stroke:#000000;stroke-width:0.0508" d="M 91.5 56.5556 L 91.5 62.5556 L 88.5 62.5556 L 88.5 56.5556 L 91.5 56.5556 Z"/>
      <path id="hole_013" style="fill:none;stroke:#000000;stroke-width:0.0508" d="M 91.5 68.6667 L 91.5 74.6667 L 88.5 74.6667 L 88.5 68.6667 L 91.5 68.6667 Z"/>
      <path id="hole_014" style="fill:none;stroke:#000000;stroke-width:0.0508" d="M 91.5 80.7778 L 91.5 86.7778 L 88.5 86.7778 L 88.5 80.7778 L 91.5 80.7778 Z"/>
      <path id="hole_015" style="fill:none;stroke:#000000;stroke-width:0.0508" d="M 91.5 92.8889 L 91.5 98.8889 L 88.5 98.8889 L 88.5 92.8889 L 91.5 92.8889 Z"/>
      <path id="side_019" style="fill:none;stroke:#000000;stroke-width:0.0508" d="M 133 105 L 125.857 105 L 125.857 102 L 119.857 102 L 119.857 105 L 112.714 105 L 112.714 102 L 106.714 102 L 106.714 105 L 99.5714 105 L 99.5714 102 L 93.5714 102 L 93.5714 105 L 86.4286 105 L 86.4286 102 L 80.4286 102 L 80.4286 105 L 73.2857 105 L 73.2857 102 L 67.2857 102 L 67.2857 105 L 60.1429 105 L 60.1429 102 L 54.1429 102 L 54.1429 105 L 47 105"/>
      <path id="hole_016" style="fill:none;stroke:#000000;stroke-width:0.0508" d="M 125.857 53.5 L 119.857 53.5 L 119.857 50.5 L 125.857 50.5 L 125.857 53.5 Z"/>
      <path id="hole_017" style="fill:none;stroke:#000000;stroke-width:0.0508" d="M 112.714 53.5 L 106.714 53.5 L 106.714 50.5 L 112.714 50.5 L 112.714 53.5 Z"/>
      <path id="hole_018" style="fill:none;stroke:#000000;stroke-width:0.0508" d="M 99.5714 53.5 L 93.5714 53.5 L 93.5714 50.5 L 99.5714 50.5 L 99.5714 53.5 Z"/>
      <path id="hole_019" style="fill:none;stroke:#000000;stroke-width:0.0508" d="M 86.4286 53.5 L 80.4286 53.5 L 80.4286 50.5 L 86.4286 50.5 L 86.4286 53.5 Z"/>
      <path id="hole_020" style="fill:none;stroke:#000000;stroke-width:0.0508" d="M 73.2857 53.5 L 67.2857 53.5 L 67.2857 50.5 L 73.2857 50.5 L 73.2857 53.5 Z"/>
      <path id="hole_021" style="fill:none;stroke:#000000;stroke-width:0.0508" d="M 60.1429 53.5 L 54.1429 53.5 L 54.1429 50.5 L 60.1429 50.5 L 60.1429 53.5 Z"/>
      <path id="side_020" style="fill:none;stroke:#000000;stroke-width:0.0508" d="M 47 105 L 47 98.8889 L 50 98.8889 L 50 92.8889 L 47 92.8889 L 47 86.7778 L 50 86.7778 L 50 80.7778 L 47 80.7778 L 47 74.6667 L 50 74.6667 L 50 68.6667 L 47 68.6667 L 47 62.5556 L 50 62.5556 L 50 56.5556 L 47 56.5556 L 47 50.4444 L 50 50.4444 L 50 44.4444 L 47 44.4444 L 47 38.3333 L 50 38.3333 L 50 32.3333 L 47 32.3333 L 47 26.2222 L 50 26.2222 L 50 20.2222 L 47 20.2222 L 47 14.1111 L 50 14.1111 L 50 8.1111 L 47 8.1111 L 47 2"/>
    </g>
    <g id="piece_004">
      <path id="side_021" style="fill:none;stroke:#000000;stroke-width:0.0508" d="M 138 2 L 141.25 2 L 141.25 2 L 147.25 2 L 147.25 2 L 153.5 2 L 153.5 2 L 159.5 2 L 159.5 2 L 165.75 2 L 165.75 2 L 171.75 2 L 171.75 2 L 178 2"/>
      <path id="side_022" style="fill:none;stroke:#000000;stroke-width:0.0508" d="M 178 2 L 178 8.11111 L 178 8.11111 L 178 14.1111 L 178 14.1111 L 178 20.2222 L 178 20.2222 L 178 26.2222 L 178 26.2222 L 178 32.3333 L 178 32.3333 L 178 38.3333 L 178 38.3333 L 178 44.4444 L 178 44.4444 L 178 50.4444 L 178 50.4444 L 178 56.5556 L 178 56.5556 L 178 62.5556 L 178 62.5556 L 178 68.6667 L 178 68.6667 L 178 74.6667 L 178 74.6667 L 178 80.7778 L 178 80.7778 L 178 86.7778 L 178 86.7778 L 178 92.8889 L 178 92.8889 L 178 98.8889 L 178 98.8889 L 178 102"/>
      <path id="side_023" style="fill:none;stroke:#000000;stroke-width:0.0508" d="M 178 102 L 171.75 102 L 171.75 105 L 165.75 105 L 165.75 102 L 159.5 102 L 159.5 105 L 153.5 105 L 153.5 102 L 147.25 102 L 147.25 105 L 141.25 105 L 141.25 102 L 138 102"/>
      <path id="hole_022" style="fill:none;stroke:#000000;stroke-width:0.0508" d="M 178 53.5 L 171.75 53.5 L 171.75 50.5 L 178 50.5 L 178 53.5 Z"/>
      <path id="hole_023" style="fill:none;stroke:#000000;stroke-width:0.0508" d="M 165.75 53.5 L 159.5 53.5 L 159.5 50.5 L 165.75 50.5 L 165.75 53.5 Z"/>
      <path id="hole_024" style="fill:none;stroke:#000000;stroke-width:0.0508" d="M 153.5 53.5 L 147.25 53.5 L 147.25 50.5 L 153.5 50.5 L 153.5 53.5 Z"/>
      <path id="hole_025" style="fill:none;stroke:#000000;stroke-width:0.0508" d="M 141.25 53.5 L 138 53.5 L 138 50.5 L 141.25 50.5 L 141.25 53.5 Z"/>
      <path id="side_024" style="fill:none;stroke:#000000;stroke-width:0.0508" d="M 138 102 L 138 98.8889 L 135 98.8889 L 135 92.8889 L 138 92.8889 L 138 86.7778 L 135 86.7778 L 135 80.7778 L 138 80.7778 L 138 74.6667 L 135 74.6667 L 135 68.6667 L 138 68.6667 L 138 62.5556 L 135 62.5556 L 135 56.5556 L 138 56.5556 L 138 50.4444 L 135 50.4444 L 135 44.4444 L 138 44.4444 L 138 38.3333 L 135 38.3333 L 135 32.3333 L 138 32.3333 L 138 26.2222 L 135 26.2222 L 135 20.2222 L 138 20.2222 L 138 14.1111 L 135 14.1111 L 135 8.1111 L 138 8.1111 L 138 2"/>
    </g>
  </g>
</svg>