<!-- Created with Inkscape (http://www.inkscape.org/) -->
<svg xmlns:inkscape="http://www.inkscape.org/namespaces/inkscape" xmlns:sodipodi="http://sodipodi.sourceforge.net/DTD/sodipodi-0.dtd" xmlns="http://www.w3.org/2000/svg" xmlns:svg="http://www.w3.org/2000/svg" width="176mm" height="148mm" viewBox="0 0 176 148" version="1.1" id="svg5" inkscape:version="1.1.2 (0a00cf5339, 2022-02-04)" sodipodi:docname="blank.svg">
  <sodipodi:namedview id="namedview7" pagecolor="#ffffff" bordercolor="#666666" borderopacity="1.0" inkscape:pageshadow="2" inkscape:pageopacity="0.0" inkscape:pagecheckerboard="0" inkscape:document-units="mm" showgrid="false" inkscape:zoom="0.64052329" inkscape:cx="397.33138" inkscape:cy="561.25984" inkscape:window-width="2086" inkscape:window-height="1376" inkscape:window-x="0" inkscape:window-y="0" inkscape:window-maximized="1" inkscape:current-layer="layer1"/>
  <defs id="defs2"/>
  <g inkscape:label="Layer 1" inkscape:groupmode="layer" id="layer1">
    <metadata text="createArgs=['--unit=mm', '--inside=1', '--length=80', '--width=100', '--depth=40', '--equal=0', '--tab=6', '--tabtype=0', '--tabsymmetry=0', '--dimpleheight=0', '--dimplelength=0', '--hairline=1', '--thickness=3', '--kerf=0', '--style=1', '--div_l=1', '--div_w=1', '--keydiv=0', '--spacing=2', '--boxtype=6']"/>
    <g id="xdivider_001">
      <path id="side_001" style="fill:none;stroke:#000000;stroke-width:0.0508" d="M 47 104 L 51.1429 104 L 51.1429 104 L 57.1429 104 L 57.1429 104 L 64.2857 104 L 64.2857 104 L 70.2857 104 L 70.2857 104 L 77.4286 104 L 77.4286 104 L 83.4286 104 L 83.4286 104 L 90.5714 104 L 90.5714 104 L 96.5714 104 L 96.5714 104 L 103.714 104 L 103.714 104 L 109.714 104 L 109.714 104 L 116.857 104 L 116.857 104 L 122.857 104 L 122.857 104 L 130 104"/>
      <path id="side_002" style="fill:none;stroke:#000000;stroke-width:0.0508" d="M 130 104 L 130 110.25 L 130 110.25 L 130 116.25 L 130 116.25 L 130 122.5 L 130 122.5 L 130 128.5 L 130 128.5 L 130 134.75 L 130 134.75 L 130 140.75 L 130 140.75 L 130 147"/>
      <path id="slot_001" style="fill:none;stroke:#000000;stroke-width:0.0508" d="M 91.5 104 L 91.5 124 L 88.5 124 L 88.5 104 L 91.5 104 Z"/>
      <path id="side_003" style="fill:none;stroke:#000000;stroke-width:0.0508" d="M 130 147 L 125.857 147 L 125.857 147 L 119.857 147 L 119.857 147 L 112.714 147 L 112.714 147 L 106.714 147 L 106.714 147 L 99.5714 147 L 99.5714 147 L 93.5714 147 L 93.5714 147 L 86.4286 147 L 86.4286 147 L 80.4286 147 L 80.4286 147 L 73.2857 147 L 73.2857 147 L 67.2857 147 L 67.2857 147 L 60.1429 147 L 60.1429 147 L 54.1429 147 L 54.1429 147 L 47 147"/>
      <path id="side_004" style="fill:none;stroke:#000000;stroke-width:0.0508" d="M 47 147 L 47 140.75 L 47 140.75 L 47 134.75 L 47 134.75 L 47 128.5 L 47 128.5 L 47 122.5 L 47 122.5 L 47 116.25 L 47 116.25 L 47 110.25 L 47 110.25 L 47 104"/>
    </g>
    <g id="piece_001">
      <path id="side_005" style="fill:none;stroke:#000000;stroke-width:0.0508" d="M 2 2 L 8.25 2 L 8.25 2 L 14.25 2 L 14.25 2 L 20.5 2 L 20.5 2 L 26.5 2 L 26.5 2 L 32.75 2 L 32.75 2 L 38.75 2 L 38.75 2 L 42 2"/>
      <path id="side_006" style="fill:none;stroke:#000000;stroke-width:0.0508" d="M 42 2 L 42 9.25 L 45 9.25 L 45 15.25 L 42 15.25 L 42 22.5 L 45 22.5 L 45 28.5 L 42 28.5 L 42 35.75 L 45 35.75 L 45 41.75 L 42 41.75 L 42 49 L 45 49 L 45 55 L 42 55 L 42 62.25 L 45 62.25 L 45 68.25 L 42 68.25 L 42 75.5 L 45 75.5 L 45 81.5 L 42 81.5 L 42 88.75 L 45 88.75 L 45 94.75 L 42 94.75 L 42 102"/>
      <path id="side_007" style="fill:none;stroke:#000000;stroke-width:0.0508" d="M 42 102 L 38.75 102 L 38.75 102 L 32.75 102 L 32.75 102 L 26.5 102 L 26.5 102 L 20.5 102 L 20.5 102 L 14.25 102 L 14.25 102 L 8.25 102 L 8.25 102 L 2 102"/>
      <path id="side_008" style="fill:none;stroke:#000000;stroke-width:0.0508" d="M 2 102 L 2 94.75 L 2 94.75 L 2 88.75 L 2 88.75 L 2 81.5 L 2 81.5 L 2 75.5 L 2 75.5 L 2 68.25 L 2 68.25 L 2 62.25 L 2 62.25 L 2 55 L 2 55 L 2 49 L 2 49 L 2 41.75 L 2 41.75 L 2 35.75 L 2 35.75 L 2 28.5 L 2 28.5 L 2 22.5 L 2 22.5 L 2 15.25 L 2 15.25 L 2 9.25 L 2 9.25 L 2 2"/>
    </g>
    <g id="ydivider_001">
      <path id="side_009" style="fill:none;stroke:#000000;stroke-width:0.0508" d="M 132 2 L 138.25 2 L 138.25 2 L 144.25 2 L 144.25 2 L 150.5 2 L 150.5 2 L 156.5 2 L 156.5 2 L 162.75 2 L 162.75 2 L 168.75 2 L 168.75 2 L 172 2"/>
      <path id="slot_002" style="fill:none;stroke:#000000;stroke-width:0.0508" d="M 132 50.5 L 152 50.5 L 152 53.5 L 132 53.5 L 132 50.5 Z"/>
      <path id="side_010" style="fill:none;stroke:#000000;stroke-width:0.0508" d="M 172 2 L 172 5.44444 L 175 5.44444 L 175 11.4444 L 172 11.4444 L 172 17.8889 L 175 17.8889 L 175 23.8889 L 172 23.8889 L 172 30.3333 L 175 30.3333 L 175 36.3333 L 172 36.3333 L 172 42.7778 L 175 42.7778 L 175 48.7778 L 172 48.7778 L 172 55.2222 L 175 55.2222 L 175 61.2222 L 172 61.2222 L 172 67.6667 L 175 67.6667 L 175 73.6667 L 172 73.6667 L 172 80.1111 L 175 80.1111 L 175 86.1111 L 172 86.1111 L 172 92.5556 L 175 92.5556 L 175 98.5556 L 172 98.5556 L 172 102"/>
      <path id="side_011" style="fill:none;stroke:#000000;stroke-width:0.0508" d="M 172 102 L 168.75 102 L 168.75 102 L 162.75 102 L 162.75 102 L 156.5 102 L 156.5 102 L 150.5 102 L 150.5 102 L 144.25 102 L 144.25 102 L 138.25 102 L 138.25 102 L 132 102"/>
      <path id="side_012" style="fill:none;stroke:#000000;stroke-width:0.0508" d="M 132 102 L 132 98.5556 L 132 98.5556 L 132 92.5556 L 132 92.5556 L 132 86.1111 L 132 86.1111 L 132 80.1111 L 132 80.1111 L 132 73.6667 L 132 73.6667 L 132 67.6667 L 132 67.6667 L 132 61.2222 L 132 61.2222 L 132 55.2222 L 132 55.2222 L 132 48.7778 L 132 48.7778 L 132 42.7778 L 132 42.7778 L 132 36.3333 L 132 36.3333 L 132 30.3333 L 132 30.3333 L 132 23.8889 L 132 23.8889 L 132 17.8889 L 132 17.8889 L 132 11.4444 L 132 11.4444 L 132 5.4444 L 132 5.4444 L 132 2"/>
    </g>
    <g id="piece_002">
      <path id="side_013" style="fill:none;stroke:#000000;stroke-width:0.0508" d="M 47 2 L 53.7143 2 L 53.7143 2 L 59.7143 2 L 59.7143 2 L 66.4286 2 L 66.4286 2 L 72.4286 2 L 72.4286 2 L 79.1429 2 L 79.1429 2 L 85.1429 2 L 85.1429 2 L 91.8571 2 L 91.8571 2 L 97.8571 2 L 97.8571 2 L 104.571 2 L 104.571 2 L 110.571 2 L 110.571 2 L 117.286 2 L 117.286 2 L 123.286 2 L 123.286 2 L 130 2"/>
      <path id="side_014" style="fill:none;stroke:#000000;stroke-width:0.0508" d="M 130 2 L 130 9.25 L 130 9.25 L 130 15.25 L 130 15.25 L 130 22.5 L 130 22.5 L 130 28.5 L 130 28.5 L 130 35.75 L 130 35.75 L 130 41.75 L 130 41.75 L 130 49 L 130 49 L 130 55 L 130 55 L 130 62.25 L 130 62.25 L 130 68.25 L 130 68.25 L 130 75.5 L 130 75.5 L 130 81.5 L 130 81.5 L 130 88.75 L 130 88.75 L 130 94.75 L 130 94.75 L 130 102"/>
      <path id="side_015" style="fill:none;stroke:#000000;stroke-width:0.0508" d="M 130 102 L 123.286 102 L 123.286 102 L 117.286 102 L 117.286 102 L 110.571 102 L 110.571 102 L 104.571 102 L 104.571 102 L 97.8571 102 L 97.8571 102 L 91.8571 102 L 91.8571 102 L 85.1429 102 L 85.1429 102 L 79.1429 102 L 79.1429 102 L 72.4286 102 L 72.4286 102 L 66.4286 102 L 66.4286 102 L 59.7143 102 L 59.7143 102 L 53.7143 102 L 53.7143 102 L 47 102"/>
      <path id="side_016" style="fill:none;stroke:#000000;stroke-width:0.0508" d="M 47 102 L 47 94.75 L 50 94.75 L 50 88.75 L 47 88.75 L 47 81.5 L 50 81.5 L 50 75.5 L 47 75.5 L 47 68.25 L 50 68.25 L 50 62.25 L 47 62.25 L 47 55 L 50 55 L 50 49 L 47 49 L 47 41.75 L 50 41.75 L 50 35.75 L 47 35.75 L 47 28.5 L 50 28.5 L 50 22.5 L 47 22.5 L 47 15.25 L 50 15.25 L 50 9.25 L 47 9.25 L 47 2"/>
      <path id="hole_001" style="fill:none;stroke:#000000;stroke-width:0.0508" d="M 91.5 94.75 L 91.5 88.75 L 88.5 88.75 L 88.5 94.75 L 91.5 94.75 Z"/>
      <path id="hole_002" style="fill:none;stroke:#000000;stroke-width:0.0508" d="M 91.5 81.5 L 91.5 75.5 L 88.5 75.5 L 88.5 81.5 L 91.5 81.5 Z"/>
      <path id="hole_003" style="fill:none;stroke:#000000;stroke-width:0.0508" d="M 91.5 68.25 L 91.5 62.25 L 88.5 62.25 L 88.5 68.25 L 91.5 68.25 Z"/>
      <path id="hole_004" style="fill:none;stroke:#000000;stroke-width:0.0508" d="M 91.5 55 L 91.5 49 L 88.5 49 L 88.5 55 L 91.5 55 Z"/>
      <path id="hole_005" style="fill:none;stroke:#000000;stroke-width:0.0508" d="M 91.5 41.75 L 91.5 35.75 L 88.5 35.75 L 88.5 41.75 L 91.5 41.75 Z"/>
      <path id="hole_006" style="fill:none;stroke:#000000;stroke-width:0.0508" d="M 91.5 28.5 L 91.5 22.5 L 88.5 22.5 L 88.5 28.5 L 91.5 28.5 Z"/>
      <path id="hole_007" style="fill:none;stroke:#000000;stroke-width:0.0508" d="M 91.5 15.25 L 91.5 9.25 L 88.5 9.25 L 88.5 15.25 L 91.5 15.25 Z"/>
    </g>
  </g>
</svg>