<!-- Created with Inkscape (http://www.inkscape.org/) -->
<svg xmlns:inkscape="http://www.inkscape.org/namespaces/inkscape" xmlns:sodipodi="http://sodipodi.sourceforge.net/DTD/sodipodi-0.dtd" xmlns="http://www.w3.org/2000/svg" xmlns:svg="http://www.w3.org/2000/svg" width="381mm" height="313mm" viewBox="0 0 381 313" version="1.1" id="svg5" inkscape:version="1.1.2 (0a00cf5339, 2022-02-04)" sodipodi:docname="blank.svg">
  <sodipodi:namedview id="namedview7" pagecolor="#ffffff" bordercolor="#666666" borderopacity="1.0" inkscape:pageshadow="2" inkscape:pageopacity="0.0" inkscape:pagecheckerboard="0" inkscape:document-units="mm" showgrid="false" inkscape:zoom="0.64052329" inkscape:cx="397.33138" inkscape:cy="561.25984" inkscape:window-width="2086" inkscape:window-height="1376" inkscape:window-x="0" inkscape:window-y="0" inkscape:window-maximized="1" inkscape:current-layer="layer1"/>
  <defs id="defs2"/>
  <g inkscape:label="Layer 1" inkscape:groupmode="layer" id="layer1">
    <metadata text="createArgs=['--unit=mm', '--inside=1', '--length=80', '--width=100', '--equal=0', '--tab=6', '--tabtype=0', '--tabsymmetry=0', '--dimpleheight=0', '--dimplelength=0', '--hairline=1', '--thickness=3', '--kerf=0', '--style=1', '--boxtype=1', '--div_l=1', '--div_w=1', '--keydiv=0', '--spacing=2', '--depth=60']"/>
    <g id="piece_001">
      <path id="side_001" style="fill:none;stroke:#000000;stroke-width:0.0508" d="m 70 181 l 7.1429 0 l 0 -3 l 6 0 l 0 3 l 7.1428 0 l 0 -3 l 6 0 l 0 3 l 7.1433 0 l 0 -3 l 6 0 l 0 3 l 7.142 0 l 0 -3 l 6 0 l 0 3 l 7.143 0 l 0 -3 l 6 0 l 0 3 l 7.143 0 l 0 -3 l 6 0 l 0 3 l 7.143 0"/>
      <path id="side_002" style="fill:none;stroke:#000000;stroke-width:0.0508" d="m 156 181 l 0 3 l -3 0 l 0 6 l 3 0 l 0 6 l -3 0 l 0 6 l 3 0 l 0 6 l -3 0 l 0 6 l 3 0 l 0 6 l -3 0 l 0 6 l 3 0 l 0 6 l -3 0 l 0 6 l 3 0 l 0 3"/>
      <path id="hole_001" style="fill:none;stroke:#000000;stroke-width:0.0508" d="m 111.5 184 l 0 6 l 3 0 l 0 -6 l -3 0 z"/>
      <path id="hole_002" style="fill:none;stroke:#000000;stroke-width:0.0508" d="m 111.5 196 l 0 6 l 3 0 l 0 -6 l -3 0 z"/>
      <path id="hole_003" style="fill:none;stroke:#000000;stroke-width:0.0508" d="m 111.5 208 l 0 6 l 3 0 l 0 -6 l -3 0 z"/>
      <path id="hole_004" style="fill:none;stroke:#000000;stroke-width:0.0508" d="m 111.5 220 l 0 6 l 3 0 l 0 -6 l -3 0 z"/>
      <path id="hole_005" style="fill:none;stroke:#000000;stroke-width:0.0508" d="m 111.5 232 l 0 6 l 3 0 l 0 -6 l -3 0 z"/>
      <path id="side_003" style="fill:none;stroke:#000000;stroke-width:0.0508" d="m 156 241 l -7.143 0 l 0 3 l -6 0 l 0 -3 l -7.143 0 l 0 3 l -6 0 l 0 -3 l -7.143 0 l 0 3 l -6 0 l 0 -3 l -7.142 0 l 0 3 l -6 0 l 0 -3 l -7.1433 0 l 0 3 l -6 0 l 0 -3 l -7.1428 0 l 0 3 l -6 0 l 0 -3 l -7.1429 0"/>
      <path id="side_004" style="fill:none;stroke:#000000;stroke-width:0.0508" d="m 70 241 l 0 -3 l 3 0 l 0 -6 l -3 0 l 0 -6 l 3 0 l 0 -6 l -3 0 l 0 -6 l 3 0 l 0 -6 l -3 0 l 0 -6 l 3 0 l 0 -6 l -3 0 l 0 -6 l 3 0 l 0 -6 l -3 0 l 0 -3"/>
    </g>
    <g id="xdivider_001">
      <path id="side_005" style="fill:none;stroke:#000000;stroke-width:0.0508" d="m 70 249 l 7.1429 0 l 0 -3 l 6 0 l 0 3 l 7.1428 0 l 0 -3 l 6 0 l 0 3 l 7.1433 0 l 0 -3 l 6 0 l 0 3 l 7.142 0 l 0 -3 l 6 0 l 0 3 l 7.143 0 l 0 -3 l 6 0 l 0 3 l 7.143 0 l 0 -3 l 6 0 l 0 3 l 7.143 0"/>
      <path id="side_006" style="fill:none;stroke:#000000;stroke-width:0.0508" d="m 156 249 l 0 3 l -3 0 l 0 6 l 3 0 l 0 6 l -3 0 l 0 6 l 3 0 l 0 6 l -3 0 l 0 6 l 3 0 l 0 6 l -3 0 l 0 6 l 3 0 l 0 6 l -3 0 l 0 6 l 3 0 l 0 3"/>
      <path id="slot_001" style="fill:none;stroke:#000000;stroke-width:0.0508" d="m 114.5 246 l 0 33 l -3 0 l 0 -33 l 3 0 z"/>
      <path id="side_007" style="fill:none;stroke:#000000;stroke-width:0.0508" d="m 156 309 l -7.143 0 l 0 3 l -6 0 l 0 -3 l -7.143 0 l 0 3 l -6 0 l 0 -3 l -7.143 0 l 0 3 l -6 0 l 0 -3 l -7.142 0 l 0 3 l -6 0 l 0 -3 l -7.1433 0 l 0 3 l -6 0 l 0 -3 l -7.1428 0 l 0 3 l -6 0 l 0 -3 l -7.1429 0"/>
      <path id="side_008" style="fill:none;stroke:#000000;stroke-width:0.0508" d="m 70 309 l 0 -3 l 3 0 l 0 -6 l -3 0 l 0 -6 l 3 0 l 0 -6 l -3 0 l 0 -6 l 3 0 l 0 -6 l -3 0 l 0 -6 l 3 0 l 0 -6 l -3 0 l 0 -6 l 3 0 l 0 -6 l -3 0 l 0 -3"/>
    </g>
    <g id="piece_002">
      <path id="side_009" style="fill:none;stroke:#000000;stroke-width:0.0508" d="m 5 73 l 3 0 l 0 -3 l 6 0 l 0 3 l 6 0 l 0 -3 l 6 0 l 0 3 l 6 0 l 0 -3 l 6 0 l 0 3 l 6 0 l 0 -3 l 6 0 l 0 3 l 6 0 l 0 -3 l 6 0 l 0 3 l 3 0"/>
      <path id="hole_006" style="fill:none;stroke:#000000;stroke-width:0.0508" d="m 5 121.5 l 3 0 l 0 3 l -3 0 l 0 -3 z"/>
      <path id="hole_007" style="fill:none;stroke:#000000;stroke-width:0.0508" d="m 14 121.5 l 6 0 l 0 3 l -6 0 l 0 -3 z"/>
      <path id="hole_008" style="fill:none;stroke:#000000;stroke-width:0.0508" d="m 26 121.5 l 6 0 l 0 3 l -6 0 l 0 -3 z"/>
      <path id="hole_009" style="fill:none;stroke:#000000;stroke-width:0.0508" d="m 38 121.5 l 6 0 l 0 3 l -6 0 l 0 -3 z"/>
      <path id="hole_010" style="fill:none;stroke:#000000;stroke-width:0.0508" d="m 50 121.5 l 6 0 l 0 3 l -6 0 l 0 -3 z"/>
      <path id="hole_011" style="fill:none;stroke:#000000;stroke-width:0.0508" d="m 62 121.5 l 3 0 l 0 3 l -3 0 l 0 -3 z"/>
      <path id="side_010" style="fill:none;stroke:#000000;stroke-width:0.0508" d="m 65 73 l 0 3.4444 l 3 0 l 0 6 l -3 0 l 0 6.4445 l 3 0 l 0 6 l -3 0 l 0 6.4441 l 3 0 l 0 6 l -3 0 l 0 6.445 l 3 0 l 0 6 l -3 0 l 0 6.444 l 3 0 l 0 6 l -3 0 l 0 6.445 l 3 0 l 0 6 l -3 0 l 0 6.444 l 3 0 l 0 6 l -3 0 l 0 6.445 l 3 0 l 0 6 l -3 0 l 0 3.444"/>
      <path id="side_011" style="fill:none;stroke:#000000;stroke-width:0.0508" d="m 65 173 l -3 0 l 0 3 l -6 0 l 0 -3 l -6 0 l 0 3 l -6 0 l 0 -3 l -6 0 l 0 3 l -6 0 l 0 -3 l -6 0 l 0 3 l -6 0 l 0 -3 l -6 0 l 0 3 l -6 0 l 0 -3 l -3 0"/>
      <path id="side_012" style="fill:none;stroke:#000000;stroke-width:0.0508" d="m 5 173 l 0 -3.444 l -3 0 l 0 -6 l 3 0 l 0 -6.445 l -3 0 l 0 -6 l 3 0 l 0 -6.444 l -3 0 l 0 -6 l 3 0 l 0 -6.445 l -3 0 l 0 -6 l 3 0 l 0 -6.444 l -3 0 l 0 -6 l 3 0 l 0 -6.445 l -3 0 l 0 -6 l 3 0 l 0 -6.4441 l -3 0 l 0 -6 l 3 0 l 0 -6.4445 l -3 0 l 0 -6 l 3 0 l 0 -3.4444"/>
    </g>
    <g id="ydivider_001">
      <path id="side_013" style="fill:none;stroke:#000000;stroke-width:0.0508" d="m 317 73 l 3 0 l 0 -3 l 6 0 l 0 3 l 6 0 l 0 -3 l 6 0 l 0 3 l 6 0 l 0 -3 l 6 0 l 0 3 l 6 0 l 0 -3 l 6 0 l 0 3 l 6 0 l 0 -3 l 6 0 l 0 3 l 3 0"/>
      <path id="slot_002" style="fill:none;stroke:#000000;stroke-width:0.0508" d="m 314 121.5 l 33 0 l 0 3 l -33 0 l 0 -3 z"/>
      <path id="side_014" style="fill:none;stroke:#000000;stroke-width:0.0508" d="m 377 73 l 0 3.4444 l 3 0 l 0 6 l -3 0 l 0 6.4445 l 3 0 l 0 6 l -3 0 l 0 6.4441 l 3 0 l 0 6 l -3 0 l 0 6.445 l 3 0 l 0 6 l -3 0 l 0 6.444 l 3 0 l 0 6 l -3 0 l 0 6.445 l 3 0 l 0 6 l -3 0 l 0 6.444 l 3 0 l 0 6 l -3 0 l 0 6.445 l 3 0 l 0 6 l -3 0 l 0 3.444"/>
      <path id="side_015" style="fill:none;stroke:#000000;stroke-width:0.0508" d="m 377 173 l -3 0 l 0 3 l -6 0 l 0 -3 l -6 0 l 0 3 l -6 0 l 0 -3 l -6 0 l 0 3 l -6 0 l 0 -3 l -6 0 l 0 3 l -6 0 l 0 -3 l -6 0 l 0 3 l -6 0 l 0 -3 l -3 0"/>
      <path id="side_016" style="fill:none;stroke:#000000;stroke-width:0.0508" d="m 317 173 l 0 -3.444 l -3 0 l 0 -6 l 3 0 l 0 -6.445 l -3 0 l 0 -6 l 3 0 l 0 -6.444 l -3 0 l 0 -6 l 3 0 l 0 -6.445 l -3 0 l 0 -6 l 3 0 l 0 -6.444 l -3 0 l 0 -6 l 3 0 l 0 -6.445 l -3 0 l 0 -6 l 3 0 l 0 -6.4441 l -3 0 l 0 -6 l 3 0 l 0 -6.4445 l -3 0 l 0 -6 l 3 0 l 0 -3.4444"/>
    </g>
    <g id="piece_003">
      <path id="side_017" style="fill:none;stroke:#000000;stroke-width:0.0508" d="m 70 70 l 7.1429 0 l 0 3 l 6 0 l 0 -3 l 7.1428 0 l 0 3 l 6 0 l 0 -3 l 7.1433 0 l 0 3 l 6 0 l 0 -3 l 7.142 0 l 0 3 l 6 0 l 0 -3 l 7.143 0 l 0 3 l 6 0 l 0 -3 l 7.143 0 l 0 3 l 6 0 l 0 -3 l 7.143 0"/>
      <path id="hole_012" style="fill:none;stroke:#000000;stroke-width:0.0508" d="m 77.1429 124.5 l 6 0 l 0 -3 l -6 0 l 0 3 z"/>
      <path id="hole_013" style="fill:none;stroke:#000000;stroke-width:0.0508" d="m 90.2857 124.5 l 6 0 l 0 -3 l -6 0 l 0 3 z"/>
      <path id="hole_014" style="fill:none;stroke:#000000;stroke-width:0.0508" d="m 103.429 124.5 l 6 0 l 0 -3 l -6 0 l 0 3 z"/>
      <path id="hole_015" style="fill:none;stroke:#000000;stroke-width:0.0508" d="m 116.571 124.5 l 6 0 l 0 -3 l -6 0 l 0 3 z"/>
      <path id="hole_016" style="fill:none;stroke:#000000;stroke-width:0.0508" d="m 129.714 124.5 l 6 0 l 0 -3 l -6 0 l 0 3 z"/>
      <path id="hole_017" style="fill:none;stroke:#000000;stroke-width:0.0508" d="m 142.857 124.5 l 6 0 l 0 -3 l -6 0 l 0 3 z"/>
      <path id="side_018" style="fill:none;stroke:#000000;stroke-width:0.0508" d="m 156 70 l 0 6.4444 l -3 0 l 0 6 l 3 0 l 0 6.4445 l -3 0 l 0 6 l 3 0 l 0 6.4441 l -3 0 l 0 6 l 3 0 l 0 6.445 l -3 0 l 0 6 l 3 0 l 0 6.444 l -3 0 l 0 6 l 3 0 l 0 6.445 l -3 0 l 0 6 l 3 0 l 0 6.444 l -3 0 l 0 6 l 3 0 l 0 6.445 l -3 0 l 0 6 l 3 0 l 0 6.444"/>
      <path id="hole_018" style="fill:none;stroke:#000000;stroke-width:0.0508" d="m 111.5 76.4444 l 0 6 l 3 0 l 0 -6 l -3 0 z"/>
      <path id="hole_019" style="fill:none;stroke:#000000;stroke-width:0.0508" d="m 111.5 88.8889 l 0 6 l 3 0 l 0 -6 l -3 0 z"/>
      <path id="hole_020" style="fill:none;stroke:#000000;stroke-width:0.0508" d="m 111.5 101.333 l 0 6 l 3 0 l 0 -6 l -3 0 z"/>
      <path id="hole_021" style="fill:none;stroke:#000000;stroke-width:0.0508" d="m 111.5 113.778 l 0 6 l 3 0 l 0 -6 l -3 0 z"/>
      <path id="hole_022" style="fill:none;stroke:#000000;stroke-width:0.0508" d="m 111.5 126.222 l 0 6 l 3 0 l 0 -6 l -3 0 z"/>
      <path id="hole_023" style="fill:none;stroke:#000000;stroke-width:0.0508" d="m 111.5 138.667 l 0 6 l 3 0 l 0 -6 l -3 0 z"/>
      <path id="hole_024" style="fill:none;stroke:#000000;stroke-width:0.0508" d="m 111.5 151.111 l 0 6 l 3 0 l 0 -6 l -3 0 z"/>
      <path id="hole_025" style="fill:none;stroke:#000000;stroke-width:0.0508" d="m 111.5 163.556 l 0 6 l 3 0 l 0 -6 l -3 0 z"/>
      <path id="side_019" style="fill:none;stroke:#000000;stroke-width:0.0508" d="m 156 176 l -7.143 0 l 0 -3 l -6 0 l 0 3 l -7.143 0 l 0 -3 l -6 0 l 0 3 l -7.143 0 l 0 -3 l -6 0 l 0 3 l -7.142 0 l 0 -3 l -6 0 l 0 3 l -7.1433 0 l 0 -3 l -6 0 l 0 3 l -7.1428 0 l 0 -3 l -6 0 l 0 3 l -7.1429 0"/>
      <path id="side_020" style="fill:none;stroke:#000000;stroke-width:0.0508" d="m 70 176 l 0 -6.444 l 3 0 l 0 -6 l -3 0 l 0 -6.445 l 3 0 l 0 -6 l -3 0 l 0 -6.444 l 3 0 l 0 -6 l -3 0 l 0 -6.445 l 3 0 l 0 -6 l -3 0 l 0 -6.444 l 3 0 l 0 -6 l -3 0 l 0 -6.445 l 3 0 l 0 -6 l -3 0 l 0 -6.4441 l 3 0 l 0 -6 l -3 0 l 0 -6.4445 l 3 0 l 0 -6 l -3 0 l 0 -6.4444"/>
    </g>
    <g id="piece_004">
      <path id="side_021" style="fill:none;stroke:#000000;stroke-width:0.0508" d="m 161 73 l 3 0 l 0 -3 l 6 0 l 0 3 l 6 0 l 0 -3 l 6 0 l 0 3 l 6 0 l 0 -3 l 6 0 l 0 3 l 6 0 l 0 -3 l 6 0 l 0 3 l 6 0 l 0 -3 l 6 0 l 0 3 l 3 0"/>
      <path id="hole_026" style="fill:none;stroke:#000000;stroke-width:0.0508" d="m 161 121.5 l 3 0 l 0 3 l -3 0 l 0 -3 z"/>
      <path id="hole_027" style="fill:none;stroke:#000000;stroke-width:0.0508" d="m 170 121.5 l 6 0 l 0 3 l -6 0 l 0 -3 z"/>
      <path id="hole_028" style="fill:none;stroke:#000000;stroke-width:0.0508" d="m 182 121.5 l 6 0 l 0 3 l -6 0 l 0 -3 z"/>
      <path id="hole_029" style="fill:none;stroke:#000000;stroke-width:0.0508" d="m 194 121.5 l 6 0 l 0 3 l -6 0 l 0 -3 z"/>
      <path id="hole_030" style="fill:none;stroke:#000000;stroke-width:0.0508" d="m 206 121.5 l 6 0 l 0 3 l -6 0 l 0 -3 z"/>
      <path id="hole_031" style="fill:none;stroke:#000000;stroke-width:0.0508" d="m 218 121.5 l 3 0 l 0 3 l -3 0 l 0 -3 z"/>
      <path id="side_022" style="fill:none;stroke:#000000;stroke-width:0.0508" d="m 221 73 l 0 3.4444 l 3 0 l 0 6 l -3 0 l 0 6.4445 l 3 0 l 0 6 l -3 0 l 0 6.4441 l 3 0 l 0 6 l -3 0 l 0 6.445 l 3 0 l 0 6 l -3 0 l 0 6.444 l 3 0 l 0 6 l -3 0 l 0 6.445 l 3 0 l 0 6 l -3 0 l 0 6.444 l 3 0 l 0 6 l -3 0 l 0 6.445 l 3 0 l 0 6 l -3 0 l 0 3.444"/>
      <path id="side_023" style="fill:none;stroke:#000000;stroke-width:0.0508" d="m 221 173 l -3 0 l 0 3 l -6 0 l 0 -3 l -6 0 l 0 3 l -6 0 l 0 -3 l -6 0 l 0 3 l -6 0 l 0 -3 l -6 0 l 0 3 l -6 0 l 0 -3 l -6 0 l 0 3 l -6 0 l 0 -3 l -3 0"/>
      <path id="side_024" style="fill:none;stroke:#000000;stroke-width:0.0508" d="m 161 173 l 0 -3.444 l -3 0 l 0 -6 l 3 0 l 0 -6.445 l -3 0 l 0 -6 l 3 0 l 0 -6.444 l -3 0 l 0 -6 l 3 0 l 0 -6.445 l -3 0 l 0 -6 l 3 0 l 0 -6.444 l -3 0 l 0 -6 l 3 0 l 0 -6.445 l -3 0 l 0 -6 l 3 0 l 0 -6.4441 l -3 0 l 0 -6 l 3 0 l 0 -6.4445 l -3 0 l 0 -6 l 3 0 l 0 -3.4444"/>
    </g>
    <g id="piece_005">
      <path id="side_025" style="fill:none;stroke:#000000;stroke-width:0.0508" d="m 226 70 l 7.143 0 l 0 3 l 6 0 l 0 -3 l 7.143 0 l 0 3 l 6 0 l 0 -3 l 7.143 0 l 0 3 l 6 0 l 0 -3 l 7.142 0 l 0 3 l 6 0 l 0 -3 l 7.143 0 l 0 3 l 6 0 l 0 -3 l 7.143 0 l 0 3 l 6 0 l 0 -3 l 7.143 0"/>
      <path id="hole_032" style="fill:none;stroke:#000000;stroke-width:0.0508" d="m 233.143 124.5 l 6 0 l 0 -3 l -6 0 l 0 3 z"/>
      <path id="hole_033" style="fill:none;stroke:#000000;stroke-width:0.0508" d="m 246.286 124.5 l 6 0 l 0 -3 l -6 0 l 0 3 z"/>
      <path id="hole_034" style="fill:none;stroke:#000000;stroke-width:0.0508" d="m 259.429 124.5 l 6 0 l 0 -3 l -6 0 l 0 3 z"/>
      <path id="hole_035" style="fill:none;stroke:#000000;stroke-width:0.0508" d="m 272.571 124.5 l 6 0 l 0 -3 l -6 0 l 0 3 z"/>
      <path id="hole_036" style="fill:none;stroke:#000000;stroke-width:0.0508" d="m 285.714 124.5 l 6 0 l 0 -3 l -6 0 l 0 3 z"/>
      <path id="hole_037" style="fill:none;stroke:#000000;stroke-width:0.0508" d="m 298.857 124.5 l 6 0 l 0 -3 l -6 0 l 0 3 z"/>
      <path id="side_026" style="fill:none;stroke:#000000;stroke-width:0.0508" d="m 312 70 l 0 6.4444 l -3 0 l 0 6 l 3 0 l 0 6.4445 l -3 0 l 0 6 l 3 0 l 0 6.4441 l -3 0 l 0 6 l 3 0 l 0 6.445 l -3 0 l 0 6 l 3 0 l 0 6.444 l -3 0 l 0 6 l 3 0 l 0 6.445 l -3 0 l 0 6 l 3 0 l 0 6.444 l -3 0 l 0 6 l 3 0 l 0 6.445 l -3 0 l 0 6 l 3 0 l 0 6.444"/>
      <path id="hole_038" style="fill:none;stroke:#000000;stroke-width:0.0508" d="m 267.5 76.4444 l 0 6 l 3 0 l 0 -6 l -3 0 z"/>
      <path id="hole_039" style="fill:none;stroke:#000000;stroke-width:0.0508" d="m 267.5 88.8889 l 0 6 l 3 0 l 0 -6 l -3 0 z"/>
      <path id="hole_040" style="fill:none;stroke:#000000;stroke-width:0.0508" d="m 267.5 101.333 l 0 6 l 3 0 l 0 -6 l -3 0 z"/>
      <path id="hole_041" style="fill:none;stroke:#000000;stroke-width:0.0508" d="m 267.5 113.778 l 0 6 l 3 0 l 0 -6 l -3 0 z"/>
      <path id="hole_042" style="fill:none;stroke:#000000;stroke-width:0.0508" d="m 267.5 126.222 l 0 6 l 3 0 l 0 -6 l -3 0 z"/>
      <path id="hole_043" style="fill:none;stroke:#000000;stroke-width:0.0508" d="m 267.5 138.667 l 0 6 l 3 0 l 0 -6 l -3 0 z"/>
      <path id="hole_044" style="fill:none;stroke:#000000;stroke-width:0.0508" d="m 267.5 151.111 l 0 6 l 3 0 l 0 -6 l -3 0 z"/>
      <path id="hole_045" style="fill:none;stroke:#000000;stroke-width:0.0508" d="m 267.5 163.556 l 0 6 l 3 0 l 0 -6 l -3 0 z"/>
      <path id="side_027" style="fill:none;stroke:#000000;stroke-width:0.0508" d="m 312 176 l -7.143 0 l 0 -3 l -6 0 l 0 3 l -7.143 0 l 0 -3 l -6 0 l 0 3 l -7.143 0 l 0 -3 l -6 0 l 0 3 l -7.142 0 l 0 -3 l -6 0 l 0 3 l -7.143 0 l 0 -3 l -6 0 l 0 3 l -7.143 0 l 0 -3 l -6 0 l 0 3 l -7.143 0"/>
      <path id="side_028" style="fill:none;stroke:#000000;stroke-width:0.0508" d="m 226 176 l 0 -6.444 l 3 0 l 0 -6 l -3 0 l 0 -6.445 l 3 0 l 0 -6 l -3 0 l 0 -6.444 l 3 0 l 0 -6 l -3 0 l 0 -6.445 l 3 0 l 0 -6 l -3 0 l 0 -6.444 l 3 0 l 0 -6 l -3 0 l 0 -6.445 l 3 0 l 0 -6 l -3 0 l 0 -6.4441 l 3 0 l 0 -6 l -3 0 l 0 -6.4445 l 3 0 l 0 -6 l -3 0 l 0 -6.4444"/>
    </g>
    <g id="piece_006">
      <path id="side_029" style="fill:none;stroke:#000000;stroke-width:0.0508" d="m 70 5 l 7.1429 0 l 0 -3 l 6 0 l 0 3 l 7.1428 0 l 0 -3 l 6 0 l 0 3 l 7.1433 0 l 0 -3 l 6 0 l 0 3 l 7.142 0 l 0 -3 l 6 0 l 0 3 l 7.143 0 l 0 -3 l 6 0 l 0 3 l 7.143 0 l 0 -3 l 6 0 l 0 3 l 7.143 0"/>
      <path id="side_030" style="fill:none;stroke:#000000;stroke-width:0.0508" d="m 156 5 l 0 3 l -3 0 l 0 6 l 3 0 l 0 6 l -3 0 l 0 6 l 3 0 l 0 6 l -3 0 l 0 6 l 3 0 l 0 6 l -3 0 l 0 6 l 3 0 l 0 6 l -3 0 l 0 6 l 3 0 l 0 3"/>
      <path id="hole_046" style="fill:none;stroke:#000000;stroke-width:0.0508" d="m 111.5 8 l 0 6 l 3 0 l 0 -6 l -3 0 z"/>
      <path id="hole_047" style="fill:none;stroke:#000000;stroke-width:0.0508" d="m 111.5 20 l 0 6 l 3 0 l 0 -6 l -3 0 z"/>
      <path id="hole_048" style="fill:none;stroke:#000000;stroke-width:0.0508" d="m 111.5 32 l 0 6 l 3 0 l 0 -6 l -3 0 z"/>
      <path id="hole_049" style="fill:none;stroke:#000000;stroke-width:0.0508" d="m 111.5 44 l 0 6 l 3 0 l 0 -6 l -3 0 z"/>
      <path id="hole_050" style="fill:none;stroke:#000000;stroke-width:0.0508" d="m 111.5 56 l 0 6 l 3 0 l 0 -6 l -3 0 z"/>
      <path id="side_031" style="fill:none;stroke:#000000;stroke-width:0.0508" d="m 156 65 l -7.143 0 l 0 3 l -6 0 l 0 -3 l -7.143 0 l 0 3 l -6 0 l 0 -3 l -7.143 0 l 0 3 l -6 0 l 0 -3 l -7.142 0 l 0 3 l -6 0 l 0 -3 l -7.1433 0 l 0 3 l -6 0 l 0 -3 l -7.1428 0 l 0 3 l -6 0 l 0 -3 l -7.1429 0"/>
      <path id="side_032" style="fill:none;stroke:#000000;stroke-width:0.0508" d="m 70 65 l 0 -3 l 3 0 l 0 -6 l -3 0 l 0 -6 l 3 0 l 0 -6 l -3 0 l 0 -6 l 3 0 l 0 -6 l -3 0 l 0 -6 l 3 0 l 0 -6 l -3 0 l 0 -6 l 3 0 l 0 -6 l -3 0 l 0 -3"/>
    </g>
  </g>
</svg>