<!-- Created with Inkscape (http://www.inkscape.org/) -->
<svg xmlns:inkscape="http://www.inkscape.org/namespaces/inkscape" xmlns:sodipodi="http://sodipodi.sourceforge.net/DTD/sodipodi-0.dtd" xmlns="http://www.w3.org/2000/svg" xmlns:svg="http://www.w3.org/2000/svg" width="313mm" height="421mm" viewBox="0 0 313 421" version="1.1" id="svg5" inkscape:version="1.1.2 (0a00cf5339, 2022-02-04)" sodipodi:docname="blank.svg">
  <sodipodi:namedview id="namedview7" pagecolor="#ffffff" bordercolor="#666666" borderopacity="1.0" inkscape:pageshadow="2" inkscape:pageopacity="0.0" inkscape:pagecheckerboard="0" inkscape:document-units="mm" showgrid="false" inkscape:zoom="0.64052329" inkscape:cx="397.33138" inkscape:cy="561.25984" inkscape:window-width="2086" inkscape:window-height="1376" inkscape:window-x="0" inkscape:window-y="0" inkscape:window-maximized="1" inkscape:current-layer="layer1"/>
  <defs id="defs2"/>
  <g inkscape:label="Layer 1" inkscape:groupmode="layer" id="layer1">
    <metadata text="createArgs=['--unit=mm', '--inside=1', '--length=80', '--width=100', '--equal=0', '--tab=6', '--tabtype=0', '--tabsymmetry=0', '--dimpleheight=0', '--dimplelength=0', '--hairline=0', '--thickness=3', '--kerf=0', '--style=1', '--boxtype=1', '--div_l=1', '--div_w=1', '--keydiv=0', '--spacing=2', '--depth=60']"/>
    <g id="piece_001">
      <path id="hole_001" style="fill:none;stroke:#000000;stroke-width:1" d="M 111.5 184 L 111.5 190 L 114.5 190 L 114.5 184 L 111.5 184 Z"/>
      <path id="hole_002" style="fill:none;stroke:#000000;stroke-width:1" d="M 111.5 196 L 111.5 202 L 114.5 202 L 114.5 196 L 111.5 196 Z"/>
      <path id="hole_003" style="fill:none;stroke:#000000;stroke-width:1" d="M 111.5 208 L 111.5 214 L 114.5 214 L 114.5 208 L 111.5 208 Z"/>
      <path id="hole_004" style="fill:none;stroke:#000000;stroke-width:1" d="M 111.5 220 L 111.5 226 L 114.5 226 L 114.5 220 L 111.5 220 Z"/>
      <path id="hole_005" style="fill:none;stroke:#000000;stroke-width:1" d="M 111.5 232 L 111.5 238 L 114.5 238 L 114.5 232 L 111.5 232 Z"/>
      <path id="side_004" style="fill:none;stroke:#000000;stroke-width:1" d="M 70 181 L 77.1429 181 L 77.1429 178 L 83.1429 178 L 83.1429 181 L 90.2857 181 L 90.2857 178 L 96.2857 178 L 96.2857 181 L 103.429 181 L 103.429 178 L 109.429 178 L 109.429 181 L 116.571 181 L 116.571 178 L 122.571 178 L 122.571 181 L 129.714 181 L 129.714 178 L 135.714 178 L 135.714 181 L 142.857 181 L 142.857 178 L 148.857 178 L 148.857 181 L 156 181 L 156 184 L 153 184 L 153 190 L 156 190 L 156 196 L 153 196 L 153 202 L 156 202 L 156 208 L 153 208 L 153 214 L 156 214 L 156 220 L 153 220 L 153 226 L 156 226 L 156 232 L 153 232 L 153 238 L 156 238 L 156 241 L 148.857 241 L 148.857 244 L 142.857 244 L 142.857 241 L 135.714 241 L 135.714 244 L 129.714 244 L 129.714 241 L 122.571 241 L 122.571 244 L 116.571 244 L 116.571 241 L 109.429 241 L 109.429 244 L 103.429 244 L 103.429 241 L 96.2857 241 L 96.2857 244 L 90.2857 244 L 90.2857 241 L 83.1429 241 L 83.1429 244 L 77.1429 244 L 77.1429 241 L 70 241 L 70 238 L 73 238 L 73 232 L 70 232 L 70 226 L 73 226 L 73 220 L 70 220 L 70 214 L 73 214 L 73 208 L 70 208 L 70 202 L 73 202 L 73 196 L 70 196 L 70 190 L 73 190 L 73 184 L 70 184 L 70 181"/>
    </g>
    <g id="xdivider_001">
      <path id="slot_001" style="fill:none;stroke:#000000;stroke-width:1" d="M 41.5 246 L 41.5 279 L 44.5 279 L 44.5 246 L 41.5 246 Z"/>
      <path id="side_008" style="fill:none;stroke:#000000;stroke-width:1" d="M 0 249 L 7.14286 249 L 7.14286 246 L 13.1429 246 L 13.1429 249 L 20.2857 249 L 20.2857 246 L 26.2857 246 L 26.2857 249 L 33.4286 249 L 33.4286 246 L 39.4286 246 L 39.4286 249 L 46.5714 249 L 46.5714 246 L 52.5714 246 L 52.5714 249 L 59.7143 249 L 59.7143 246 L 65.7143 246 L 65.7143 249 L 72.8571 249 L 72.8571 246 L 78.8571 246 L 78.8571 249 L 86 249 L 86 252 L 83 252 L 83 258 L 86 258 L 86 264 L 83 264 L 83 270 L 86 270 L 86 276 L 83 276 L 83 282 L 86 282 L 86 288 L 83 288 L 83 294 L 86 294 L 86 300 L 83 300 L 83 306 L 86 306 L 86 309 L 78.8571 309 L 78.8571 312 L 72.8571 312 L 72.8571 309 L 65.7143 309 L 65.7143 312 L 59.7143 312 L 59.7143 309 L 52.5714 309 L 52.5714 312 L 46.5714 312 L 46.5714 309 L 39.4286 309 L 39.4286 312 L 33.4286 312 L 33.4286 309 L 26.2857 309 L 26.2857 312 L 20.2857 312 L 20.2857 309 L 13.1429 309 L 13.1429 312 L 7.14286 312 L 7.14286 309 L 0 309 L 0 306 L 3 306 L 3 300 L 0 300 L 0 294 L 3 294 L 3 288 L 0 288 L 0 282 L 3 282 L 3 276 L 0 276 L 0 270 L 3 270 L 3 264 L 0 264 L 0 258 L 3 258 L 3 252 L 0 252 L 0 249"/>
    </g>
    <g id="piece_002">
      <path id="hole_006" style="fill:none;stroke:#000000;stroke-width:1" d="M 5 124.5 L 8 124.5 L 8 121.5 L 5 121.5 L 5 124.5 Z"/>
      <path id="hole_007" style="fill:none;stroke:#000000;stroke-width:1" d="M 14 124.5 L 20 124.5 L 20 121.5 L 14 121.5 L 14 124.5 Z"/>
      <path id="hole_008" style="fill:none;stroke:#000000;stroke-width:1" d="M 26 124.5 L 32 124.5 L 32 121.5 L 26 121.5 L 26 124.5 Z"/>
      <path id="hole_009" style="fill:none;stroke:#000000;stroke-width:1" d="M 38 124.5 L 44 124.5 L 44 121.5 L 38 121.5 L 38 124.5 Z"/>
      <path id="hole_010" style="fill:none;stroke:#000000;stroke-width:1" d="M 50 124.5 L 56 124.5 L 56 121.5 L 50 121.5 L 50 124.5 Z"/>
      <path id="hole_011" style="fill:none;stroke:#000000;stroke-width:1" d="M 62 124.5 L 65 124.5 L 65 121.5 L 62 121.5 L 62 124.5 Z"/>
      <path id="side_012" style="fill:none;stroke:#000000;stroke-width:1" d="M 5 73 L 8 73 L 8 70 L 14 70 L 14 73 L 20 73 L 20 70 L 26 70 L 26 73 L 32 73 L 32 70 L 38 70 L 38 73 L 44 73 L 44 70 L 50 70 L 50 73 L 56 73 L 56 70 L 62 70 L 62 73 L 65 73 L 65 76.4444 L 68 76.4444 L 68 82.4444 L 65 82.4444 L 65 88.8889 L 68 88.8889 L 68 94.8889 L 65 94.8889 L 65 101.333 L 68 101.333 L 68 107.333 L 65 107.333 L 65 113.778 L 68 113.778 L 68 119.778 L 65 119.778 L 65 126.222 L 68 126.222 L 68 132.222 L 65 132.222 L 65 138.667 L 68 138.667 L 68 144.667 L 65 144.667 L 65 151.111 L 68 151.111 L 68 157.111 L 65 157.111 L 65 163.556 L 68 163.556 L 68 169.556 L 65 169.556 L 65 173 L 62 173 L 62 176 L 56 176 L 56 173 L 50 173 L 50 176 L 44 176 L 44 173 L 38 173 L 38 176 L 32 176 L 32 173 L 26 173 L 26 176 L 20 176 L 20 173 L 14 173 L 14 176 L 8 176 L 8 173 L 5 173 L 5 169.556 L 2 169.556 L 2 163.556 L 5 163.556 L 5 157.111 L 2 157.111 L 2 151.111 L 5 151.111 L 5 144.667 L 2 144.667 L 2 138.667 L 5 138.667 L 5 132.222 L 2 132.222 L 2 126.222 L 5 126.222 L 5 119.778 L 2 119.778 L 2 113.778 L 5 113.778 L 5 107.333 L 2 107.333 L 2 101.333 L 5 101.333 L 5 94.8889 L 2 94.8889 L 2 88.8889 L 5 88.8889 L 5 82.4444 L 2 82.4444 L 2 76.4444 L 5 76.4444 L 5 73"/>
    </g>
    <g id="ydivider_001">
      <path id="slot_002" style="fill:none;stroke:#000000;stroke-width:1" d="M 0 365.5 L 33 365.5 L 33 368.5 L 0 368.5 L 0 365.5 Z"/>
      <path id="side_016" style="fill:none;stroke:#000000;stroke-width:1" d="M 3 317 L 6 317 L 6 314 L 12 314 L 12 317 L 18 317 L 18 314 L 24 314 L 24 317 L 30 317 L 30 314 L 36 314 L 36 317 L 42 317 L 42 314 L 48 314 L 48 317 L 54 317 L 54 314 L 60 314 L 60 317 L 63 317 L 63 320.444 L 66 320.444 L 66 326.444 L 63 326.444 L 63 332.889 L 66 332.889 L 66 338.889 L 63 338.889 L 63 345.333 L 66 345.333 L 66 351.333 L 63 351.333 L 63 357.778 L 66 357.778 L 66 363.778 L 63 363.778 L 63 370.222 L 66 370.222 L 66 376.222 L 63 376.222 L 63 382.667 L 66 382.667 L 66 388.667 L 63 388.667 L 63 395.111 L 66 395.111 L 66 401.111 L 63 401.111 L 63 407.556 L 66 407.556 L 66 413.556 L 63 413.556 L 63 417 L 60 417 L 60 420 L 54 420 L 54 417 L 48 417 L 48 420 L 42 420 L 42 417 L 36 417 L 36 420 L 30 420 L 30 417 L 24 417 L 24 420 L 18 420 L 18 417 L 12 417 L 12 420 L 6 420 L 6 417 L 3 417 L 3 413.556 L 0 413.556 L 0 407.556 L 3 407.556 L 3 401.111 L 0 401.111 L 0 395.111 L 3 395.111 L 3 388.667 L 0 388.667 L 0 382.667 L 3 382.667 L 3 376.222 L 0 376.222 L 0 370.222 L 3 370.222 L 3 363.778 L 0 363.778 L 0 357.778 L 3 357.778 L 3 351.333 L 0 351.333 L 0 345.333 L 3 345.333 L 3 338.889 L 0 338.889 L 0 332.889 L 3 332.889 L 3 326.444 L 0 326.444 L 0 320.444 L 3 320.444 L 3 317"/>
    </g>
    <g id="piece_003">
      <path id="hole_012" style="fill:none;stroke:#000000;stroke-width:1" d="M 77.1429 124.5 L 83.1429 124.5 L 83.1429 121.5 L 77.1429 121.5 L 77.1429 124.5 Z"/>
      <path id="hole_013" style="fill:none;stroke:#000000;stroke-width:1" d="M 90.2857 124.5 L 96.2857 124.5 L 96.2857 121.5 L 90.2857 121.5 L 90.2857 124.5 Z"/>
      <path id="hole_014" style="fill:none;stroke:#000000;stroke-width:1" d="M 103.429 124.5 L 109.429 124.5 L 109.429 121.5 L 103.429 121.5 L 103.429 124.5 Z"/>
      <path id="hole_015" style="fill:none;stroke:#000000;stroke-width:1" d="M 116.571 124.5 L 122.571 124.5 L 122.571 121.5 L 116.571 121.5 L 116.571 124.5 Z"/>
      <path id="hole_016" style="fill:none;stroke:#000000;stroke-width:1" d="M 129.714 124.5 L 135.714 124.5 L 135.714 121.5 L 129.714 121.5 L 129.714 124.5 Z"/>
      <path id="hole_017" style="fill:none;stroke:#000000;stroke-width:1" d="M 142.857 124.5 L 148.857 124.5 L 148.857 121.5 L 142.857 121.5 L 142.857 124.5 Z"/>
      <path id="hole_018" style="fill:none;stroke:#000000;stroke-width:1" d="M 111.5 76.4444 L 111.5 82.4444 L 114.5 82.4444 L 114.5 76.4444 L 111.5 76.4444 Z"/>
      <path id="hole_019" style="fill:none;stroke:#000000;stroke-width:1" d="M 111.5 88.8889 L 111.5 94.8889 L 114.5 94.8889 L 114.5 88.8889 L 111.5 88.8889 Z"/>
      <path id="hole_020" style="fill:none;stroke:#000000;stroke-width:1" d="M 111.5 101.333 L 111.5 107.333 L 114.5 107.333 L 114.5 101.333 L 111.5 101.333 Z"/>
      <path id="hole_021" style="fill:none;stroke:#000000;stroke-width:1" d="M 111.5 113.778 L 111.5 119.778 L 114.5 119.778 L 114.5 113.778 L 111.5 113.778 Z"/>
      <path id="hole_022" style="fill:none;stroke:#000000;stroke-width:1" d="M 111.5 126.222 L 111.5 132.222 L 114.5 132.222 L 114.5 126.222 L 111.5 126.222 Z"/>
      <path id="hole_023" style="fill:none;stroke:#000000;stroke-width:1" d="M 111.5 138.667 L 111.5 144.667 L 114.5 144.667 L 114.5 138.667 L 111.5 138.667 Z"/>
      <path id="hole_024" style="fill:none;stroke:#000000;stroke-width:1" d="M 111.5 151.111 L 111.5 157.111 L 114.5 157.111 L 114.5 151.111 L 111.5 151.111 Z"/>
      <path id="hole_025" style="fill:none;stroke:#000000;stroke-width:1" d="M 111.5 163.556 L 111.5 169.556 L 114.5 169.556 L 114.5 163.556 L 111.5 163.556 Z"/>
      <path id="side_020" style="fill:none;stroke:#000000;stroke-width:1" d="M 70 70 L 77.1429 70 L 77.1429 73 L 83.1429 73 L 83.1429 70 L 90.2857 70 L 90.2857 73 L 96.2857 73 L 96.2857 70 L 103.429 70 L 103.429 73 L 109.429 73 L 109.429 70 L 116.571 70 L 116.571 73 L 122.571 73 L 122.571 70 L 129.714 70 L 129.714 73 L 135.714 73 L 135.714 70 L 142.857 70 L 142.857 73 L 148.857 73 L 148.857 70 L 156 70 L 156 76.4444 L 153 76.4444 L 153 82.4444 L 156 82.4444 L 156 88.8889 L 153 88.8889 L 153 94.8889 L 156 94.8889 L 156 101.333 L 153 101.333 L 153 107.333 L 156 107.333 L 156 113.778 L 153 113.778 L 153 119.778 L 156 119.778 L 156 126.222 L 153 126.222 L 153 132.222 L 156 132.222 L 156 138.667 L 153 138.667 L 153 144.667 L 156 144.667 L 156 151.111 L 153 151.111 L 153 157.111 L 156 157.111 L 156 163.556 L 153 163.556 L 153 169.556 L 156 169.556 L 156 176 L 148.857 176 L 148.857 173 L 142.857 173 L 142.857 176 L 135.714 176 L 135.714 173 L 129.714 173 L 129.714 176 L 122.571 176 L 122.571 173 L 116.571 173 L 116.571 176 L 109.429 176 L 109.429 173 L 103.429 173 L 103.429 176 L 96.2857 176 L 96.2857 173 L 90.2857 173 L 90.2857 176 L 83.1429 176 L 83.1429 173 L 77.1429 173 L 77.1429 176 L 70 176 L 70 169.556 L 73 169.556 L 73 163.556 L 70 163.556 L 70 157.111 L 73 157.111 L 73 151.111 L 70 151.111 L 70 144.667 L 73 144.667 L 73 138.667 L 70 138.667 L 70 132.222 L 73 132.222 L 73 126.222 L 70 126.222 L 70 119.778 L 73 119.778 L 73 113.778 L 70 113.778 L 70 107.333 L 73 107.333 L 73 101.333 L 70 101.333 L 70 94.8889 L 73 94.8889 L 73 88.8889 L 70 88.8889 L 70 82.4444 L 73 82.4444 L 73 76.4444 L 70 76.4444 L 70 70"/>
    </g>
    <g id="piece_004">
      <path id="hole_026" style="fill:none;stroke:#000000;stroke-width:1" d="M 161 124.5 L 164 124.5 L 164 121.5 L 161 121.5 L 161 124.5 Z"/>
      <path id="hole_027" style="fill:none;stroke:#000000;stroke-width:1" d="M 170 124.5 L 176 124.5 L 176 121.5 L 170 121.5 L 170 124.5 Z"/>
      <path id="hole_028" style="fill:none;stroke:#000000;stroke-width:1" d="M 182 124.5 L 188 124.5 L 188 121.5 L 182 121.5 L 182 124.5 Z"/>
      <path id="hole_029" style="fill:none;stroke:#000000;stroke-width:1" d="M 194 124.5 L 200 124.5 L 200 121.5 L 194 121.5 L 194 124.5 Z"/>
      <path id="hole_030" style="fill:none;stroke:#000000;stroke-width:1" d="M 206 124.5 L 212 124.5 L 212 121.5 L 206 121.5 L 206 124.5 Z"/>
      <path id="hole_031" style="fill:none;stroke:#000000;stroke-width:1" d="M 218 124.5 L 221 124.5 L 221 121.5 L 218 121.5 L 218 124.5 Z"/>
      <path id="side_024" style="fill:none;stroke:#000000;stroke-width:1" d="M 161 73 L 164 73 L 164 70 L 170 70 L 170 73 L 176 73 L 176 70 L 182 70 L 182 73 L 188 73 L 188 70 L 194 70 L 194 73 L 200 73 L 200 70 L 206 70 L 206 73 L 212 73 L 212 70 L 218 70 L 218 73 L 221 73 L 221 76.4444 L 224 76.4444 L 224 82.4444 L 221 82.4444 L 221 88.8889 L 224 88.8889 L 224 94.8889 L 221 94.8889 L 221 101.333 L 224 101.333 L 224 107.333 L 221 107.333 L 221 113.778 L 224 113.778 L 224 119.778 L 221 119.778 L 221 126.222 L 224 126.222 L 224 132.222 L 221 132.222 L 221 138.667 L 224 138.667 L 224 144.667 L 221 144.667 L 221 151.111 L 224 151.111 L 224 157.111 L 221 157.111 L 221 163.556 L 224 163.556 L 224 169.556 L 221 169.556 L 221 173 L 218 173 L 218 176 L 212 176 L 212 173 L 206 173 L 206 176 L 200 176 L 200 173 L 194 173 L 194 176 L 188 176 L 188 173 L 182 173 L 182 176 L 176 176 L 176 173 L 170 173 L 170 176 L 164 176 L 164 173 L 161 173 L 161 169.556 L 158 169.556 L 158 163.556 L 161 163.556 L 161 157.111 L 158 157.111 L 158 151.111 L 161 151.111 L 161 144.667 L 158 144.667 L 158 138.667 L 161 138.667 L 161 132.222 L 158 132.222 L 158 126.222 L 161 126.222 L 161 119.778 L 158 119.778 L 158 113.778 L 161 113.778 L 161 107.333 L 158 107.333 L 158 101.333 L 161 101.333 L 161 94.8889 L 158 94.8889 L 158 88.8889 L 161 88.8889 L 161 82.4444 L 158 82.4444 L 158 76.4444 L 161 76.4444 L 161 73"/>
    </g>
    <g id="piece_005">
      <path id="hole_032" style="fill:none;stroke:#000000;stroke-width:1" d="M 233.143 124.5 L 239.143 124.5 L 239.143 121.5 L 233.143 121.5 L 233.143 124.5 Z"/>
      <path id="hole_033" style="fill:none;stroke:#000000;stroke-width:1" d="M 246.286 124.5 L 252.286 124.5 L 252.286 121.5 L 246.286 121.5 L 246.286 124.5 Z"/>
      <path id="hole_034" style="fill:none;stroke:#000000;stroke-width:1" d="M 259.429 124.5 L 265.429 124.5 L 265.429 121.5 L 259.429 121.5 L 259.429 124.5 Z"/>
      <path id="hole_035" style="fill:none;stroke:#000000;stroke-width:1" d="M 272.571 124.5 L 278.571 124.5 L 278.571 121.5 L 272.571 121.5 L 272.571 124.5 Z"/>
      <path id="hole_036" style="fill:none;stroke:#000000;stroke-width:1" d="M 285.714 124.5 L 291.714 124.5 L 291.714 121.5 L 285.714 121.5 L 285.714 124.5 Z"/>
      <path id="hole_037" style="fill:none;stroke:#000000;stroke-width:1" d="M 298.857 124.5 L 304.857 124.5 L 304.857 121.5 L 298.857 121.5 L 298.857 124.5 Z"/>
      <path id="hole_038" style="fill:none;stroke:#000000;stroke-width:1" d="M 267.5 76.4444 L 267.5 82.4444 L 270.5 82.4444 L 270.5 76.4444 L 267.5 76.4444 Z"/>
      <path id="hole_039" style="fill:none;stroke:#000000;stroke-width:1" d="M 267.5 88.8889 L 267.5 94.8889 L 270.5 94.8889 L 270.5 88.8889 L 267.5 88.8889 Z"/>
      <path id="hole_040" style="fill:none;stroke:#000000;stroke-width:1" d="M 267.5 101.333 L 267.5 107.333 L 270.5 107.333 L 270.5 101.333 L 267.5 101.333 Z"/>
      <path id="hole_041" style="fill:none;stroke:#000000;stroke-width:1" d="M 267.5 113.778 L 267.5 119.778 L 270.5 119.778 L 270.5 113.778 L 267.5 113.778 Z"/>
      <path id="hole_042" style="fill:none;stroke:#000000;stroke-width:1" d="M 267.5 126.222 L 267.5 132.222 L 270.5 132.222 L 270.5 126.222 L 267.5 126.222 Z"/>
      <path id="hole_043" style="fill:none;stroke:#000000;stroke-width:1" d="M 267.5 138.667 L 267.5 144.667 L 270.5 144.667 L 270.5 138.667 L 267.5 138.667 Z"/>
      <path id="hole_044" style="fill:none;stroke:#000000;stroke-width:1" d="M 267.5 151.111 L 267.5 157.111 L 270.5 157.111 L 270.5 151.111 L 267.5 151.111 Z"/>
      <path id="hole_045" style="fill:none;stroke:#000000;stroke-width:1" d="M 267.5 163.556 L 267.5 169.556 L 270.5 169.556 L 270.5 163.556 L 267.5 163.556 Z"/>
      <path id="side_028" style="fill:none;stroke:#000000;stroke-width:1" d="M 226 70 L 233.143 70 L 233.143 73 L 239.143 73 L 239.143 70 L 246.286 70 L 246.286 73 L 252.286 73 L 252.286 70 L 259.429 70 L 259.429 73 L 265.429 73 L 265.429 70 L 272.571 70 L 272.571 73 L 278.571 73 L 278.571 70 L 285.714 70 L 285.714 73 L 291.714 73 L 291.714 70 L 298.857 70 L 298.857 73 L 304.857 73 L 304.857 70 L 312 70 L 312 76.4444 L 309 76.4444 L 309 82.4444 L 312 82.4444 L 312 88.8889 L 309 88.8889 L 309 94.8889 L 312 94.8889 L 312 101.333 L 309 101.333 L 309 107.333 L 312 107.333 L 312 113.778 L 309 113.778 L 309 119.778 L 312 119.778 L 312 126.222 L 309 126.222 L 309 132.222 L 312 132.222 L 312 138.667 L 309 138.667 L 309 144.667 L 312 144.667 L 312 151.111 L 309 151.111 L 309 157.111 L 312 157.111 L 312 163.556 L 309 163.556 L 309 169.556 L 312 169.556 L 312 176 L 304.857 176 L 304.857 173 L 298.857 173 L 298.857 176 L 291.714 176 L 291.714 173 L 285.714 173 L 285.714 176 L 278.571 176 L 278.571 173 L 272.571 173 L 272.571 176 L 265.429 176 L 265.429 173 L 259.429 173 L 259.429 176 L 252.286 176 L 252.286 173 L 246.286 173 L 246.286 176 L 239.143 176 L 239.143 173 L 233.143 173 L 233.143 176 L 226 176 L 226 169.556 L 229 169.556 L 229 163.556 L 226 163.556 L 226 157.111 L 229 157.111 L 229 151.111 L 226 151.111 L 226 144.667 L 229 144.667 L 229 138.667 L 226 138.667 L 226 132.222 L 229 132.222 L 229 126.222 L 226 126.222 L 226 119.778 L 229 119.778 L 229 113.778 L 226 113.778 L 226 107.333 L 229 107.333 L 229 101.333 L 226 101.333 L 226 94.8889 L 229 94.8889 L 229 88.8889 L 226 88.8889 L 226 82.4444 L 229 82.4444 L 229 76.4444 L 226 76.4444 L 226 70"/>
    </g>
    <g id="piece_006">
      <path id="hole_046" style="fill:none;stroke:#000000;stroke-width:1" d="M 111.5 8 L 111.5 14 L 114.5 14 L 114.5 8 L 111.5 8 Z"/>
      <path id="hole_047" style="fill:none;stroke:#000000;stroke-width:1" d="M 111.5 20 L 111.5 26 L 114.5 26 L 114.5 20 L 111.5 20 Z"/>
      <path id="hole_048" style="fill:none;stroke:#000000;stroke-width:1" d="M 111.5 32 L 111.5 38 L 114.5 38 L 114.5 32 L 111.5 32 Z"/>
      <path id="hole_049" style="fill:none;stroke:#000000;stroke-width:1" d="M 111.5 44 L 111.5 50 L 114.5 50 L 114.5 44 L 111.5 44 Z"/>
      <path id="hole_050" style="fill:none;stroke:#000000;stroke-width:1" d="M 111.5 56 L 111.5 62 L 114.5 62 L 114.5 56 L 111.5 56 Z"/>
      <path id="side_032" style="fill:none;stroke:#000000;stroke-width:1" d="M 70 5 L 77.1429 5 L 77.1429 2 L 83.1429 2 L 83.1429 5 L 90.2857 5 L 90.2857 2 L 96.2857 2 L 96.2857 5 L 103.429 5 L 103.429 2 L 109.429 2 L 109.429 5 L 116.571 5 L 116.571 2 L 122.571 2 L 122.571 5 L 129.714 5 L 129.714 2 L 135.714 2 L 135.714 5 L 142.857 5 L 142.857 2 L 148.857 2 L 148.857 5 L 156 5 L 156 8 L 153 8 L 153 14 L 156 14 L 156 20 L 153 20 L 153 26 L 156 26 L 156 32 L 153 32 L 153 38 L 156 38 L 156 44 L 153 44 L 153 50 L 156 50 L 156 56 L 153 56 L 153 62 L 156 62 L 156 65 L 148.857 65 L 148.857 68 L 142.857 68 L 142.857 65 L 135.714 65 L 135.714 68 L 129.714 68 L 129.714 65 L 122.571 65 L 122.571 68 L 116.571 68 L 116.571 65 L 109.429 65 L 109.429 68 L 103.429 68 L 103.429 65 L 96.2857 65 L 96.2857 68 L 90.2857 68 L 90.2857 65 L 83.1429 65 L 83.1429 68 L 77.1429 68 L 77.1429 65 L 70 65 L 70 62 L 73 62 L 73 56 L 70 56 L 70 50 L 73 50 L 73 44 L 70 44 L 70 38 L 73 38 L 73 32 L 70 32 L 70 26 L 73 26 L 73 20 L 70 20 L 70 14 L 73 14 L 73 8 L 70 8 L 70 5"/>
    </g>
  </g>
</svg>