<!-- Created with Inkscape (http://www.inkscape.org/) -->
<svg xmlns:inkscape="http://www.inkscape.org/namespaces/inkscape" xmlns:sodipodi="http://sodipodi.sourceforge.net/DTD/sodipodi-0.dtd" xmlns="http://www.w3.org/2000/svg" xmlns:svg="http://www.w3.org/2000/svg" width="381mm" height="313mm" viewBox="0 0 381 313" version="1.1" id="svg5" inkscape:version="1.1.2 (0a00cf5339, 2022-02-04)" sodipodi:docname="blank.svg">
  <sodipodi:namedview id="namedview7" pagecolor="#ffffff" bordercolor="#666666" borderopacity="1.0" inkscape:pageshadow="2" inkscape:pageopacity="0.0" inkscape:pagecheckerboard="0" inkscape:document-units="mm" showgrid="false" inkscape:zoom="0.64052329" inkscape:cx="397.33138" inkscape:cy="561.25984" inkscape:window-width="2086" inkscape:window-height="1376" inkscape:window-x="0" inkscape:window-y="0" inkscape:window-maximized="1" inkscape:current-layer="layer1"/>
  <defs id="defs2"/>
  <g inkscape:label="Layer 1" inkscape:groupmode="layer" id="layer1">
    <metadata text="createArgs=['--unit=mm', '--inside=1', '--length=80', '--width=100', '--equal=0', '--tab=6', '--tabtype=0', '--tabsymmetry=0', '--dimpleheight=0', '--dimplelength=0', '--hairline=1', '--thickness=3', '--kerf=0', '--style=1', '--boxtype=1', '--div-l=1', '--div-w=1', '--keydiv=0', '--spacing=2', '--depth=60']"/>
    <path id="piece_001" style="fill:none;stroke:#000000;stroke-width:0.0508" d="M 70 184 L 73 184 L 73 190 L 70 190 L 70 196 L 73 196 L 73 202 L 70 202 L 70 208 L 73 208 L 73 214 L 70 214 L 70 220 L 73 220 L 73 226 L 70 226 L 70 232 L 73 232 L 73 238 L 70 238 L 70 241 L 77.1429 241 L 77.1429 244 L 83.1429 244 L 83.1429 241 L 90.2857 241 L 90.2857 244 L 96.2857 244 L 96.2857 241 L 103.429 241 L 103.429 244 L 109.429 244 L 109.429 241 L 116.571 241 L 116.571 244 L 122.571 244 L 122.571 241 L 129.714 241 L 129.714 244 L 135.714 244 L 135.714 241 L 142.857 241 L 142.857 244 L 148.857 244 L 148.857 241 L 156 241 L 156 238 L 153 238 L 153 232 L 156 232 L 156 226 L 153 226 L 153 220 L 156 220 L 156 214 L 153 214 L 153 208 L 156 208 L 156 202 L 153 202 L 153 196 L 156 196 L 156 190 L 153 190 L 153 184 L 156 184 L 156 181 L 148.857 181 L 148.857 178 L 142.857 178 L 142.857 181 L 135.714 181 L 135.714 178 L 129.714 178 L 129.714 181 L 122.571 181 L 122.571 178 L 116.571 178 L 116.571 181 L 109.429 181 L 109.429 178 L 103.429 178 L 103.429 181 L 96.2857 181 L 96.2857 178 L 90.2857 178 L 90.2857 181 L 83.1429 181 L 83.1429 178 L 77.1429 178 L 77.1429 181 L 70 181 L 70 184 Z M 111.5 184 L 114.5 184 L 114.5 190 L 111.5 190 L 111.5 184 Z M 111.5 196 L 114.5 196 L 114.5 202 L 111.5 202 L 111.5 196 Z M 111.5 208 L 114.5 208 L 114.5 214 L 111.5 214 L 111.5 208 Z M 111.5 220 L 114.5 220 L 114.5 226 L 111.5 226 L 111.5 220 Z M 111.5 232 L 114.5 232 L 114.5 238 L 111.5 238 L 111.5 232 Z"/>
    <path id="xdivider_001" style="fill:none;stroke:#000000;stroke-width:0.0508" d="M 70 252 L 73 252 L 73 258 L 70 258 L 70 264 L 73 264 L 73 270 L 70 270 L 70 276 L 73 276 L 73 282 L 70 282 L 70 288 L 73 288 L 73 294 L 70 294 L 70 300 L 73 300 L 73 306 L 70 306 L 70 309 L 77.1429 309 L 77.1429 312 L 83.1429 312 L 83.1429 309 L 90.2857 309 L 90.2857 312 L 96.2857 312 L 96.2857 309 L 103.429 309 L 103.429 312 L 109.429 312 L 109.429 309 L 111.5 309 L 111.5 279 L 114.5 279 L 114.5 309 L 116.571 309 L 116.571 312 L 122.571 312 L 122.571 309 L 129.714 309 L 129.714 312 L 135.714 312 L 135.714 309 L 142.857 309 L 142.857 312 L 148.857 312 L 148.857 309 L 156 309 L 156 306 L 153 306 L 153 300 L 156 300 L 156 294 L 153 294 L 153 288 L 156 288 L 156 282 L 153 282 L 153 276 L 156 276 L 156 270 L 153 270 L 153 264 L 156 264 L 156 258 L 153 258 L 153 252 L 156 252 L 156 249 L 148.857 249 L 148.857 246 L 142.857 246 L 142.857 249 L 135.714 249 L 135.714 246 L 129.714 246 L 129.714 249 L 122.571 249 L 122.571 246 L 116.571 246 L 116.571 249 L 109.429 249 L 109.429 246 L 103.429 246 L 103.429 249 L 96.2857 249 L 96.2857 246 L 90.2857 246 L 90.2857 249 L 83.1429 249 L 83.1429 246 L 77.1429 246 L 77.1429 249 L 70 249 L 70 252 Z"/>
    <path id="piece_002" style="fill:none;stroke:#000000;stroke-width:0.0508" d="M 5 76.4444 L 2 76.4444 L 2 82.4444 L 5 82.4444 L 5 88.8889 L 2 88.8889 L 2 94.8889 L 5 94.8889 L 5 101.333 L 2 101.333 L 2 107.333 L 5 107.333 L 5 113.778 L 2 113.778 L 2 119.778 L 5 119.778 L 5 121.5 L 8 121.5 L 8 124.5 L 5 124.5 L 5 126.222 L 2 126.222 L 2 132.222 L 5 132.222 L 5 138.667 L 2 138.667 L 2 144.667 L 5 144.667 L 5 151.111 L 2 151.111 L 2 157.111 L 5 157.111 L 5 163.556 L 2 163.556 L 2 169.556 L 5 169.556 L 5 173 L 8 173 L 8 176 L 14 176 L 14 173 L 20 173 L 20 176 L 26 176 L 26 173 L 32 173 L 32 176 L 38 176 L 38 173 L 44 173 L 44 176 L 50 176 L 50 173 L 56 173 L 56 176 L 62 176 L 62 173 L 65 173 L 65 169.556 L 68 169.556 L 68 163.556 L 65 163.556 L 65 157.111 L 68 157.111 L 68 151.111 L 65 151.111 L 65 144.667 L 68 144.667 L 68 138.667 L 65 138.667 L 65 132.222 L 68 132.222 L 68 126.222 L 65 126.222 L 65 124.5 L 62 124.5 L 62 121.5 L 65 121.5 L 65 119.778 L 68 119.778 L 68 113.778 L 65 113.778 L 65 107.333 L 68 107.333 L 68 101.333 L 65 101.333 L 65 94.8889 L 68 94.8889 L 68 88.8889 L 65 88.8889 L 65 82.4444 L 68 82.4444 L 68 76.4444 L 65 76.4444 L 65 73 L 62 73 L 62 70 L 56 70 L 56 73 L 50 73 L 50 70 L 44 70 L 44 73 L 38 73 L 38 70 L 32 70 L 32 73 L 26 73 L 26 70 L 20 70 L 20 73 L 14 73 L 14 70 L 8 70 L 8 73 L 5 73 L 5 76.4444 Z M 14 121.5 L 20 121.5 L 20 124.5 L 14 124.5 L 14 121.5 Z M 26 121.5 L 32 121.5 L 32 124.5 L 26 124.5 L 26 121.5 Z M 38 121.5 L 44 121.5 L 44 124.5 L 38 124.5 L 38 121.5 Z M 50 121.5 L 56 121.5 L 56 124.5 L 50 124.5 L 50 121.5 Z"/>
    <path id="ydivider_001" style="fill:none;stroke:#000000;stroke-width:0.0508" d="M 317 76.4444 L 314 76.4444 L 314 82.4444 L 317 82.4444 L 317 88.8889 L 314 88.8889 L 314 94.8889 L 317 94.8889 L 317 101.333 L 314 101.333 L 314 107.333 L 317 107.333 L 317 113.778 L 314 113.778 L 314 119.778 L 317 119.778 L 317 121.5 L 347 121.5 L 347 124.5 L 317 124.5 L 317 126.222 L 314 126.222 L 314 132.222 L 317 132.222 L 317 138.667 L 314 138.667 L 314 144.667 L 317 144.667 L 317 151.111 L 314 151.111 L 314 157.111 L 317 157.111 L 317 163.556 L 314 163.556 L 314 169.556 L 317 169.556 L 317 173 L 320 173 L 320 176 L 326 176 L 326 173 L 332 173 L 332 176 L 338 176 L 338 173 L 344 173 L 344 176 L 350 176 L 350 173 L 356 173 L 356 176 L 362 176 L 362 173 L 368 173 L 368 176 L 374 176 L 374 173 L 377 173 L 377 169.556 L 380 169.556 L 380 163.556 L 377 163.556 L 377 157.111 L 380 157.111 L 380 151.111 L 377 151.111 L 377 144.667 L 380 144.667 L 380 138.667 L 377 138.667 L 377 132.222 L 380 132.222 L 380 126.222 L 377 126.222 L 377 119.778 L 380 119.778 L 380 113.778 L 377 113.778 L 377 107.333 L 380 107.333 L 380 101.333 L 377 101.333 L 377 94.8889 L 380 94.8889 L 380 88.8889 L 377 88.8889 L 377 82.4444 L 380 82.4444 L 380 76.4444 L 377 76.4444 L 377 73 L 374 73 L 374 70 L 368 70 L 368 73 L 362 73 L 362 70 L 356 70 L 356 73 L 350 73 L 350 70 L 344 70 L 344 73 L 338 73 L 338 70 L 332 70 L 332 73 L 326 73 L 326 70 L 320 70 L 320 73 L 317 73 L 317 76.4444 Z"/>
    <path id="piece_003" style="fill:none;stroke:#000000;stroke-width:0.0508" d="M 70 76.4444 L 73 76.4444 L 73 82.4444 L 70 82.4444 L 70 88.8889 L 73 88.8889 L 73 94.8889 L 70 94.8889 L 70 101.333 L 73 101.333 L 73 107.333 L 70 107.333 L 70 113.778 L 73 113.778 L 73 119.778 L 70 119.778 L 70 126.222 L 73 126.222 L 73 132.222 L 70 132.222 L 70 138.667 L 73 138.667 L 73 144.667 L 70 144.667 L 70 151.111 L 73 151.111 L 73 157.111 L 70 157.111 L 70 163.556 L 73 163.556 L 73 169.556 L 70 169.556 L 70 176 L 77.1429 176 L 77.1429 173 L 83.1429 173 L 83.1429 176 L 90.2857 176 L 90.2857 173 L 96.2857 173 L 96.2857 176 L 103.429 176 L 103.429 173 L 109.429 173 L 109.429 176 L 116.571 176 L 116.571 173 L 122.571 173 L 122.571 176 L 129.714 176 L 129.714 173 L 135.714 173 L 135.714 176 L 142.857 176 L 142.857 173 L 148.857 173 L 148.857 176 L 156 176 L 156 169.556 L 153 169.556 L 153 163.556 L 156 163.556 L 156 157.111 L 153 157.111 L 153 151.111 L 156 151.111 L 156 144.667 L 153 144.667 L 153 138.667 L 156 138.667 L 156 132.222 L 153 132.222 L 153 126.222 L 156 126.222 L 156 119.778 L 153 119.778 L 153 113.778 L 156 113.778 L 156 107.333 L 153 107.333 L 153 101.333 L 156 101.333 L 156 94.8889 L 153 94.8889 L 153 88.8889 L 156 88.8889 L 156 82.4444 L 153 82.4444 L 153 76.4444 L 156 76.4444 L 156 70 L 148.857 70 L 148.857 73 L 142.857 73 L 142.857 70 L 135.714 70 L 135.714 73 L 129.714 73 L 129.714 70 L 122.571 70 L 122.571 73 L 116.571 73 L 116.571 70 L 109.429 70 L 109.429 73 L 103.429 73 L 103.429 70 L 96.2857 70 L 96.2857 73 L 90.2857 73 L 90.2857 70 L 83.1429 70 L 83.1429 73 L 77.1429 73 L 77.1429 70 L 70 70 L 70 76.4444 Z M 103.429 121.5 L 109.429 121.5 L 109.429 124.5 L 103.429 124.5 L 103.429 121.5 Z M 111.5 101.333 L 114.5 101.333 L 114.5 107.333 L 111.5 107.333 L 111.5 101.333 Z M 111.5 113.778 L 114.5 113.778 L 114.5 119.778 L 111.5 119.778 L 111.5 113.778 Z M 111.5 126.222 L 114.5 126.222 L 114.5 132.222 L 111.5 132.222 L 111.5 126.222 Z M 111.5 138.667 L 114.5 138.667 L 114.5 144.667 L 111.5 144.667 L 111.5 138.667 Z M 111.5 151.111 L 114.5 151.111 L 114.5 157.111 L 111.5 157.111 L 111.5 151.111 Z M 111.5 163.556 L 114.5 163.556 L 114.5 169.556 L 111.5 169.556 L 111.5 163.556 Z M 111.5 76.4444 L 114.5 76.4444 L 114.5 82.4444 L 111.5 82.4444 L 111.5 76.4444 Z M 111.5 88.8889 L 114.5 88.8889 L 114.5 94.8889 L 111.5 94.8889 L 111.5 88.8889 Z M 116.571 121.5 L 122.571 121.5 L 122.571 124.5 L 116.571 124.5 L 116.571 121.5 Z M 129.714 121.5 L 135.714 121.5 L 135.714 124.5 L 129.714 124.5 L 129.714 121.5 Z M 142.857 121.5 L 148.857 121.5 L 148.857 124.5 L 142.857 124.5 L 142.857 121.5 Z M 77.1429 121.5 L 83.1429 121.5 L 83.1429 124.5 L 77.1429 124.5 L 77.1429 121.5 Z M 90.2857 121.5 L 96.2857 121.5 L 96.2857 124.5 L 90.2857 124.5 L 90.2857 121.5 Z"/>
    <path id="piece_004" style="fill:none;stroke:#000000;stroke-width:0.0508" d="M 161 76.4444 L 158 76.4444 L 158 82.4444 L 161 82.4444 L 161 88.8889 L 158 88.8889 L 158 94.8889 L 161 94.8889 L 161 101.333 L 158 101.333 L 158 107.333 L 161 107.333 L 161 113.778 L 158 113.778 L 158 119.778 L 161 119.778 L 161 121.5 L 164 121.5 L 164 124.5 L 161 124.5 L 161 126.222 L 158 126.222 L 158 132.222 L 161 132.222 L 161 138.667 L 158 138.667 L 158 144.667 L 161 144.667 L 161 151.111 L 158 151.111 L 158 157.111 L 161 157.111 L 161 163.556 L 158 163.556 L 158 169.556 L 161 169.556 L 161 173 L 164 173 L 164 176 L 170 176 L 170 173 L 176 173 L 176 176 L 182 176 L 182 173 L 188 173 L 188 176 L 194 176 L 194 173 L 200 173 L 200 176 L 206 176 L 206 173 L 212 173 L 212 176 L 218 176 L 218 173 L 221 173 L 221 169.556 L 224 169.556 L 224 163.556 L 221 163.556 L 221 157.111 L 224 157.111 L 224 151.111 L 221 151.111 L 221 144.667 L 224 144.667 L 224 138.667 L 221 138.667 L 221 132.222 L 224 132.222 L 224 126.222 L 221 126.222 L 221 124.5 L 218 124.5 L 218 121.5 L 221 121.5 L 221 119.778 L 224 119.778 L 224 113.778 L 221 113.778 L 221 107.333 L 224 107.333 L 224 101.333 L 221 101.333 L 221 94.8889 L 224 94.8889 L 224 88.8889 L 221 88.8889 L 221 82.4444 L 224 82.4444 L 224 76.4444 L 221 76.4444 L 221 73 L 218 73 L 218 70 L 212 70 L 212 73 L 206 73 L 206 70 L 200 70 L 200 73 L 194 73 L 194 70 L 188 70 L 188 73 L 182 73 L 182 70 L 176 70 L 176 73 L 170 73 L 170 70 L 164 70 L 164 73 L 161 73 L 161 76.4444 Z M 170 121.5 L 176 121.5 L 176 124.5 L 170 124.5 L 170 121.5 Z M 182 121.5 L 188 121.5 L 188 124.5 L 182 124.5 L 182 121.5 Z M 194 121.5 L 200 121.5 L 200 124.5 L 194 124.5 L 194 121.5 Z M 206 121.5 L 212 121.5 L 212 124.5 L 206 124.5 L 206 121.5 Z"/>
    <path id="piece_005" style="fill:none;stroke:#000000;stroke-width:0.0508" d="M 226 76.4444 L 229 76.4444 L 229 82.4444 L 226 82.4444 L 226 88.8889 L 229 88.8889 L 229 94.8889 L 226 94.8889 L 226 101.333 L 229 101.333 L 229 107.333 L 226 107.333 L 226 113.778 L 229 113.778 L 229 119.778 L 226 119.778 L 226 126.222 L 229 126.222 L 229 132.222 L 226 132.222 L 226 138.667 L 229 138.667 L 229 144.667 L 226 144.667 L 226 151.111 L 229 151.111 L 229 157.111 L 226 157.111 L 226 163.556 L 229 163.556 L 229 169.556 L 226 169.556 L 226 176 L 233.143 176 L 233.143 173 L 239.143 173 L 239.143 176 L 246.286 176 L 246.286 173 L 252.286 173 L 252.286 176 L 259.429 176 L 259.429 173 L 265.429 173 L 265.429 176 L 272.571 176 L 272.571 173 L 278.571 173 L 278.571 176 L 285.714 176 L 285.714 173 L 291.714 173 L 291.714 176 L 298.857 176 L 298.857 173 L 304.857 173 L 304.857 176 L 312 176 L 312 169.556 L 309 169.556 L 309 163.556 L 312 163.556 L 312 157.111 L 309 157.111 L 309 151.111 L 312 151.111 L 312 144.667 L 309 144.667 L 309 138.667 L 312 138.667 L 312 132.222 L 309 132.222 L 309 126.222 L 312 126.222 L 312 119.778 L 309 119.778 L 309 113.778 L 312 113.778 L 312 107.333 L 309 107.333 L 309 101.333 L 312 101.333 L 312 94.8889 L 309 94.8889 L 309 88.8889 L 312 88.8889 L 312 82.4444 L 309 82.4444 L 309 76.4444 L 312 76.4444 L 312 70 L 304.857 70 L 304.857 73 L 298.857 73 L 298.857 70 L 291.714 70 L 291.714 73 L 285.714 73 L 285.714 70 L 278.571 70 L 278.571 73 L 272.571 73 L 272.571 70 L 265.429 70 L 265.429 73 L 259.429 73 L 259.429 70 L 252.286 70 L 252.286 73 L 246.286 73 L 246.286 70 L 239.143 70 L 239.143 73 L 233.143 73 L 233.143 70 L 226 70 L 226 76.4444 Z M 233.143 121.5 L 239.143 121.5 L 239.143 124.5 L 233.143 124.5 L 233.143 121.5 Z M 246.286 121.5 L 252.286 121.5 L 252.286 124.5 L 246.286 124.5 L 246.286 121.5 Z M 259.429 121.5 L 265.429 121.5 L 265.429 124.5 L 259.429 124.5 L 259.429 121.5 Z M 267.5 101.333 L 270.5 101.333 L 270.5 107.333 L 267.5 107.333 L 267.5 101.333 Z M 267.5 113.778 L 270.5 113.778 L 270.5 119.778 L 267.5 119.778 L 267.5 113.778 Z M 267.5 126.222 L 270.5 126.222 L 270.5 132.222 L 267.5 132.222 L 267.5 126.222 Z M 267.5 138.667 L 270.5 138.667 L 270.5 144.667 L 267.5 144.667 L 267.5 138.667 Z M 267.5 151.111 L 270.5 151.111 L 270.5 157.111 L 267.5 157.111 L 267.5 151.111 Z M 267.5 163.556 L 270.5 163.556 L 270.5 169.556 L 267.5 169.556 L 267.5 163.556 Z M 267.5 76.4444 L 270.5 76.4444 L 270.5 82.4444 L 267.5 82.4444 L 267.5 76.4444 Z M 267.5 88.8889 L 270.5 88.8889 L 270.5 94.8889 L 267.5 94.8889 L 267.5 88.8889 Z M 272.571 121.5 L 278.571 121.5 L 278.571 124.5 L 272.571 124.5 L 272.571 121.5 Z M 285.714 121.5 L 291.714 121.5 L 291.714 124.5 L 285.714 124.5 L 285.714 121.5 Z M 298.857 121.5 L 304.857 121.5 L 304.857 124.5 L 298.857 124.5 L 298.857 121.5 Z"/>
    <path id="piece_006" style="fill:none;stroke:#000000;stroke-width:0.0508" d="M 70 8 L 73 8 L 73 14 L 70 14 L 70 20 L 73 20 L 73 26 L 70 26 L 70 32 L 73 32 L 73 38 L 70 38 L 70 44 L 73 44 L 73 50 L 70 50 L 70 56 L 73 56 L 73 62 L 70 62 L 70 65 L 77.1429 65 L 77.1429 68 L 83.1429 68 L 83.1429 65 L 90.2857 65 L 90.2857 68 L 96.2857 68 L 96.2857 65 L 103.429 65 L 103.429 68 L 109.429 68 L 109.429 65 L 116.571 65 L 116.571 68 L 122.571 68 L 122.571 65 L 129.714 65 L 129.714 68 L 135.714 68 L 135.714 65 L 142.857 65 L 142.857 68 L 148.857 68 L 148.857 65 L 156 65 L 156 62 L 153 62 L 153 56 L 156 56 L 156 50 L 153 50 L 153 44 L 156 44 L 156 38 L 153 38 L 153 32 L 156 32 L 156 26 L 153 26 L 153 20 L 156 20 L 156 14 L 153 14 L 153 8 L 156 8 L 156 5 L 148.857 5 L 148.857 2 L 142.857 2 L 142.857 5 L 135.714 5 L 135.714 2 L 129.714 2 L 129.714 5 L 122.571 5 L 122.571 2 L 116.571 2 L 116.571 5 L 109.429 5 L 109.429 2 L 103.429 2 L 103.429 5 L 96.2857 5 L 96.2857 2 L 90.2857 2 L 90.2857 5 L 83.1429 5 L 83.1429 2 L 77.1429 2 L 77.1429 5 L 70 5 L 70 8 Z M 111.5 20 L 114.5 20 L 114.5 26 L 111.5 26 L 111.5 20 Z M 111.5 32 L 114.5 32 L 114.5 38 L 111.5 38 L 111.5 32 Z M 111.5 44 L 114.5 44 L 114.5 50 L 111.5 50 L 111.5 44 Z M 111.5 56 L 114.5 56 L 114.5 62 L 111.5 62 L 111.5 56 Z M 111.5 8 L 114.5 8 L 114.5 14 L 111.5 14 L 111.5 8 Z"/>
  </g>
</svg>