<!-- Created with Inkscape (http://www.inkscape.org/) -->
<svg xmlns:inkscape="http://www.inkscape.org/namespaces/inkscape" xmlns:sodipodi="http://sodipodi.sourceforge.net/DTD/sodipodi-0.dtd" xmlns="http://www.w3.org/2000/svg" xmlns:svg="http://www.w3.org/2000/svg" width="210mm" height="297mm" viewBox="0 0 210 297" version="1.1" id="svg5" inkscape:version="1.1.2 (0a00cf5339, 2022-02-04)" sodipodi:docname="blank.svg">
  <sodipodi:namedview id="namedview7" pagecolor="#ffffff" bordercolor="#666666" borderopacity="1.0" inkscape:pageshadow="2" inkscape:pageopacity="0.0" inkscape:pagecheckerboard="0" inkscape:document-units="mm" showgrid="false" inkscape:zoom="0.64052329" inkscape:cx="397.33138" inkscape:cy="561.25984" inkscape:window-width="2086" inkscape:window-height="1376" inkscape:window-x="0" inkscape:window-y="0" inkscape:window-maximized="1" inkscape:current-layer="layer1"/>
  <defs id="defs2"/>
  <g inkscape:label="Layer 1" inkscape:groupmode="layer" id="layer1">
    <g id="piece_001">
      <path id="side_001" style="fill:none;stroke:#000000;stroke-width:1" d="m 70 181 l 7.1429 0 l 0 -3 l 6 0 l 0 3 l 7.1428 0 l 0 -3 l 6 0 l 0 3 l 7.1433 0 l 0 -3 l 6 0 l 0 3 l 7.142 0 l 0 -3 l 6 0 l 0 3 l 7.143 0 l 0 -3 l 6 0 l 0 3 l 7.143 0 l 0 -3 l 6 0 l 0 3 l 7.143 0"/>
      <path id="side_002" style="fill:none;stroke:#000000;stroke-width:1" d="m 111.5 184 l 0 6 l 3 0 l 0 -6 l -3 0"/>
      <path id="side_003" style="fill:none;stroke:#000000;stroke-width:1" d="m 111.5 196 l 0 6 l 3 0 l 0 -6 l -3 0"/>
      <path id="side_004" style="fill:none;stroke:#000000;stroke-width:1" d="m 111.5 208 l 0 6 l 3 0 l 0 -6 l -3 0"/>
      <path id="side_005" style="fill:none;stroke:#000000;stroke-width:1" d="m 111.5 220 l 0 6 l 3 0 l 0 -6 l -3 0"/>
      <path id="side_006" style="fill:none;stroke:#000000;stroke-width:1" d="m 111.5 232 l 0 6 l 3 0 l 0 -6 l -3 0"/>
      <path id="side_007" style="fill:none;stroke:#000000;stroke-width:1" d="m 156 181 l 0 3 l -3 0 l 0 6 l 3 0 l 0 6 l -3 0 l 0 6 l 3 0 l 0 6 l -3 0 l 0 6 l 3 0 l 0 6 l -3 0 l 0 6 l 3 0 l 0 6 l -3 0 l 0 6 l 3 0 l 0 3"/>
      <path id="side_008" style="fill:none;stroke:#000000;stroke-width:1" d="m 156 241 l -7.143 0 l 0 3 l -6 0 l 0 -3 l -7.143 0 l 0 3 l -6 0 l 0 -3 l -7.143 0 l 0 3 l -6 0 l 0 -3 l -7.142 0 l 0 3 l -6 0 l 0 -3 l -7.1433 0 l 0 3 l -6 0 l 0 -3 l -7.1428 0 l 0 3 l -6 0 l 0 -3 l -7.1429 0"/>
      <path id="side_009" style="fill:none;stroke:#000000;stroke-width:1" d="m 70 241 l 0 -3 l 3 0 l 0 -6 l -3 0 l 0 -6 l 3 0 l 0 -6 l -3 0 l 0 -6 l 3 0 l 0 -6 l -3 0 l 0 -6 l 3 0 l 0 -6 l -3 0 l 0 -6 l 3 0 l 0 -6 l -3 0 l 0 -3"/>
    </g>
    <g id="piece_002">
      <path id="side_010" style="fill:none;stroke:#000000;stroke-width:1" d="m 0 249 l 7.14286 0 l 0 -3 l 6.00004 0 l 0 3 l 7.1428 0 l 0 -3 l 6 0 l 0 3 l 7.1429 0 l 0 -3 l 6 0 l 0 3 l 7.1428 0 l 0 -3 l 6 0 l 0 3 l 7.1429 0 l 0 -3 l 6 0 l 0 3 l 7.1428 0 l 0 -3 l 6 0 l 0 3 l 7.1429 0"/>
      <path id="side_011" style="fill:none;stroke:#000000;stroke-width:1" d="m 41.5 246 l 0 33 l 3 0 l 0 -33 l -3 0"/>
      <path id="side_012" style="fill:none;stroke:#000000;stroke-width:1" d="m 86 249 l 0 3 l -3 0 l 0 6 l 3 0 l 0 6 l -3 0 l 0 6 l 3 0 l 0 6 l -3 0 l 0 6 l 3 0 l 0 6 l -3 0 l 0 6 l 3 0 l 0 6 l -3 0 l 0 6 l 3 0 l 0 3"/>
      <path id="side_013" style="fill:none;stroke:#000000;stroke-width:1" d="m 86 309 l -7.1429 0 l 0 3 l -6 0 l 0 -3 l -7.1428 0 l 0 3 l -6 0 l 0 -3 l -7.1429 0 l 0 3 l -6 0 l 0 -3 l -7.1428 0 l 0 3 l -6 0 l 0 -3 l -7.1429 0 l 0 3 l -6 0 l 0 -3 l -7.1428 0 l 0 3 l -6.00004 0 l 0 -3 l -7.14286 0"/>
      <path id="side_014" style="fill:none;stroke:#000000;stroke-width:1" d="m 0 309 l 0 -3 l 3 0 l 0 -6 l -3 0 l 0 -6 l 3 0 l 0 -6 l -3 0 l 0 -6 l 3 0 l 0 -6 l -3 0 l 0 -6 l 3 0 l 0 -6 l -3 0 l 0 -6 l 3 0 l 0 -6 l -3 0 l 0 -3"/>
    </g>
    <g id="piece_003">
      <path id="side_015" style="fill:none;stroke:#000000;stroke-width:1" d="m 5 124.5 l 3 0 l 0 -3 l -3 0 l 0 3"/>
      <path id="side_016" style="fill:none;stroke:#000000;stroke-width:1" d="m 14 124.5 l 6 0 l 0 -3 l -6 0 l 0 3"/>
      <path id="side_017" style="fill:none;stroke:#000000;stroke-width:1" d="m 26 124.5 l 6 0 l 0 -3 l -6 0 l 0 3"/>
      <path id="side_018" style="fill:none;stroke:#000000;stroke-width:1" d="m 38 124.5 l 6 0 l 0 -3 l -6 0 l 0 3"/>
      <path id="side_019" style="fill:none;stroke:#000000;stroke-width:1" d="m 50 124.5 l 6 0 l 0 -3 l -6 0 l 0 3"/>
      <path id="side_020" style="fill:none;stroke:#000000;stroke-width:1" d="m 62 121.5 l 0 0 l 0 3 l 0 0 l 0 -3"/>
      <path id="side_021" style="fill:none;stroke:#000000;stroke-width:1" d="m 5 73 l 3 0 l 0 -3 l 6 0 l 0 3 l 6 0 l 0 -3 l 6 0 l 0 3 l 6 0 l 0 -3 l 6 0 l 0 3 l 6 0 l 0 -3 l 6 0 l 0 3 l 6 0 l 0 -3 l 6 0 l 0 3 l 3 0"/>
      <path id="side_022" style="fill:none;stroke:#000000;stroke-width:1" d="m 65 73 l 0 3.4444 l 3 0 l 0 6 l -3 0 l 0 6.4445 l 3 0 l 0 6 l -3 0 l 0 6.4441 l 3 0 l 0 6 l -3 0 l 0 6.445 l 3 0 l 0 6 l -3 0 l 0 6.444 l 3 0 l 0 6 l -3 0 l 0 6.445 l 3 0 l 0 6 l -3 0 l 0 6.444 l 3 0 l 0 6 l -3 0 l 0 6.445 l 3 0 l 0 6 l -3 0 l 0 3.444"/>
      <path id="side_023" style="fill:none;stroke:#000000;stroke-width:1" d="m 65 173 l -3 0 l 0 3 l -6 0 l 0 -3 l -6 0 l 0 3 l -6 0 l 0 -3 l -6 0 l 0 3 l -6 0 l 0 -3 l -6 0 l 0 3 l -6 0 l 0 -3 l -6 0 l 0 3 l -6 0 l 0 -3 l -3 0"/>
      <path id="side_024" style="fill:none;stroke:#000000;stroke-width:1" d="m 5 173 l 0 -3.444 l -3 0 l 0 -6 l 3 0 l 0 -6.445 l -3 0 l 0 -6 l 3 0 l 0 -6.444 l -3 0 l 0 -6 l 3 0 l 0 -6.445 l -3 0 l 0 -6 l 3 0 l 0 -6.444 l -3 0 l 0 -6 l 3 0 l 0 -6.445 l -3 0 l 0 -6 l 3 0 l 0 -6.4441 l -3 0 l 0 -6 l 3 0 l 0 -6.4445 l -3 0 l 0 -6 l 3 0 l 0 -3.4444"/>
    </g>
    <g id="piece_004">
      <path id="side_025" style="fill:none;stroke:#000000;stroke-width:1" d="m 0 365.5 l 33 0 l 0 3 l -33 0 l 0 -3"/>
      <path id="side_026" style="fill:none;stroke:#000000;stroke-width:1" d="m 3 317 l 3 0 l 0 -3 l 6 0 l 0 3 l 6 0 l 0 -3 l 6 0 l 0 3 l 6 0 l 0 -3 l 6 0 l 0 3 l 6 0 l 0 -3 l 6 0 l 0 3 l 6 0 l 0 -3 l 6 0 l 0 3 l 3 0"/>
      <path id="side_027" style="fill:none;stroke:#000000;stroke-width:1" d="m 63 317 l 0 3.444 l 3 0 l 0 6 l -3 0 l 0 6.445 l 3 0 l 0 6 l -3 0 l 0 6.444 l 3 0 l 0 6 l -3 0 l 0 6.445 l 3 0 l 0 6 l -3 0 l 0 6.444 l 3 0 l 0 6 l -3 0 l 0 6.445 l 3 0 l 0 6 l -3 0 l 0 6.444 l 3 0 l 0 6 l -3 0 l 0 6.445 l 3 0 l 0 6 l -3 0 l 0 3.444"/>
      <path id="side_028" style="fill:none;stroke:#000000;stroke-width:1" d="m 63 417 l -3 0 l 0 3 l -6 0 l 0 -3 l -6 0 l 0 3 l -6 0 l 0 -3 l -6 0 l 0 3 l -6 0 l 0 -3 l -6 0 l 0 3 l -6 0 l 0 -3 l -6 0 l 0 3 l -6 0 l 0 -3 l -3 0"/>
      <path id="side_029" style="fill:none;stroke:#000000;stroke-width:1" d="m 3 417 l 0 -3.444 l -3 0 l 0 -6 l 3 0 l 0 -6.445 l -3 0 l 0 -6 l 3 0 l 0 -6.444 l -3 0 l 0 -6 l 3 0 l 0 -6.445 l -3 0 l 0 -6 l 3 0 l 0 -6.444 l -3 0 l 0 -6 l 3 0 l 0 -6.445 l -3 0 l 0 -6 l 3 0 l 0 -6.444 l -3 0 l 0 -6 l 3 0 l 0 -6.445 l -3 0 l 0 -6 l 3 0 l 0 -3.444"/>
    </g>
    <g id="piece_005">
      <path id="side_030" style="fill:none;stroke:#000000;stroke-width:1" d="m 77.1429 124.5 l 6 0 l 0 -3 l -6 0 l 0 3"/>
      <path id="side_031" style="fill:none;stroke:#000000;stroke-width:1" d="m 90.2857 124.5 l 6 0 l 0 -3 l -6 0 l 0 3"/>
      <path id="side_032" style="fill:none;stroke:#000000;stroke-width:1" d="m 103.429 124.5 l 6 0 l 0 -3 l -6 0 l 0 3"/>
      <path id="side_033" style="fill:none;stroke:#000000;stroke-width:1" d="m 116.571 124.5 l 6 0 l 0 -3 l -6 0 l 0 3"/>
      <path id="side_034" style="fill:none;stroke:#000000;stroke-width:1" d="m 129.714 124.5 l 6 0 l 0 -3 l -6 0 l 0 3"/>
      <path id="side_035" style="fill:none;stroke:#000000;stroke-width:1" d="m 142.857 124.5 l 6 0 l 0 -3 l -6 0 l 0 3"/>
      <path id="side_036" style="fill:none;stroke:#000000;stroke-width:1" d="m 70 70 l 7.1429 0 l 0 3 l 6 0 l 0 -3 l 7.1428 0 l 0 3 l 6 0 l 0 -3 l 7.1433 0 l 0 3 l 6 0 l 0 -3 l 7.142 0 l 0 3 l 6 0 l 0 -3 l 7.143 0 l 0 3 l 6 0 l 0 -3 l 7.143 0 l 0 3 l 6 0 l 0 -3 l 7.143 0"/>
      <path id="side_037" style="fill:none;stroke:#000000;stroke-width:1" d="m 111.5 76.4444 l 0 6 l 3 0 l 0 -6 l -3 0"/>
      <path id="side_038" style="fill:none;stroke:#000000;stroke-width:1" d="m 111.5 88.8889 l 0 6 l 3 0 l 0 -6 l -3 0"/>
      <path id="side_039" style="fill:none;stroke:#000000;stroke-width:1" d="m 111.5 101.333 l 0 6 l 3 0 l 0 -6 l -3 0"/>
      <path id="side_040" style="fill:none;stroke:#000000;stroke-width:1" d="m 111.5 113.778 l 0 6 l 3 0 l 0 -6 l -3 0"/>
      <path id="side_041" style="fill:none;stroke:#000000;stroke-width:1" d="m 111.5 126.222 l 0 6 l 3 0 l 0 -6 l -3 0"/>
      <path id="side_042" style="fill:none;stroke:#000000;stroke-width:1" d="m 111.5 138.667 l 0 6 l 3 0 l 0 -6 l -3 0"/>
      <path id="side_043" style="fill:none;stroke:#000000;stroke-width:1" d="m 111.5 151.111 l 0 6 l 3 0 l 0 -6 l -3 0"/>
      <path id="side_044" style="fill:none;stroke:#000000;stroke-width:1" d="m 111.5 163.556 l 0 6 l 3 0 l 0 -6 l -3 0"/>
      <path id="side_045" style="fill:none;stroke:#000000;stroke-width:1" d="m 156 70 l 0 6.4444 l -3 0 l 0 6 l 3 0 l 0 6.4445 l -3 0 l 0 6 l 3 0 l 0 6.4441 l -3 0 l 0 6 l 3 0 l 0 6.445 l -3 0 l 0 6 l 3 0 l 0 6.444 l -3 0 l 0 6 l 3 0 l 0 6.445 l -3 0 l 0 6 l 3 0 l 0 6.444 l -3 0 l 0 6 l 3 0 l 0 6.445 l -3 0 l 0 6 l 3 0 l 0 6.444"/>
      <path id="side_046" style="fill:none;stroke:#000000;stroke-width:1" d="m 156 176 l -7.143 0 l 0 -3 l -6 0 l 0 3 l -7.143 0 l 0 -3 l -6 0 l 0 3 l -7.143 0 l 0 -3 l -6 0 l 0 3 l -7.142 0 l 0 -3 l -6 0 l 0 3 l -7.1433 0 l 0 -3 l -6 0 l 0 3 l -7.1428 0 l 0 -3 l -6 0 l 0 3 l -7.1429 0"/>
      <path id="side_047" style="fill:none;stroke:#000000;stroke-width:1" d="m 70 176 l 0 -6.444 l 3 0 l 0 -6 l -3 0 l 0 -6.445 l 3 0 l 0 -6 l -3 0 l 0 -6.444 l 3 0 l 0 -6 l -3 0 l 0 -6.445 l 3 0 l 0 -6 l -3 0 l 0 -6.444 l 3 0 l 0 -6 l -3 0 l 0 -6.445 l 3 0 l 0 -6 l -3 0 l 0 -6.4441 l 3 0 l 0 -6 l -3 0 l 0 -6.4445 l 3 0 l 0 -6 l -3 0 l 0 -6.4444"/>
    </g>
    <g id="piece_006">
      <path id="side_048" style="fill:none;stroke:#000000;stroke-width:1" d="m 161 124.5 l 3 0 l 0 -3 l -3 0 l 0 3"/>
      <path id="side_049" style="fill:none;stroke:#000000;stroke-width:1" d="m 170 124.5 l 6 0 l 0 -3 l -6 0 l 0 3"/>
      <path id="side_050" style="fill:none;stroke:#000000;stroke-width:1" d="m 182 124.5 l 6 0 l 0 -3 l -6 0 l 0 3"/>
      <path id="side_051" style="fill:none;stroke:#000000;stroke-width:1" d="m 194 124.5 l 6 0 l 0 -3 l -6 0 l 0 3"/>
      <path id="side_052" style="fill:none;stroke:#000000;stroke-width:1" d="m 206 124.5 l 6 0 l 0 -3 l -6 0 l 0 3"/>
      <path id="side_053" style="fill:none;stroke:#000000;stroke-width:1" d="m 218 121.5 l 0 0 l 0 3 l 0 0 l 0 -3"/>
      <path id="side_054" style="fill:none;stroke:#000000;stroke-width:1" d="m 161 73 l 3 0 l 0 -3 l 6 0 l 0 3 l 6 0 l 0 -3 l 6 0 l 0 3 l 6 0 l 0 -3 l 6 0 l 0 3 l 6 0 l 0 -3 l 6 0 l 0 3 l 6 0 l 0 -3 l 6 0 l 0 3 l 3 0"/>
      <path id="side_055" style="fill:none;stroke:#000000;stroke-width:1" d="m 221 73 l 0 3.4444 l 3 0 l 0 6 l -3 0 l 0 6.4445 l 3 0 l 0 6 l -3 0 l 0 6.4441 l 3 0 l 0 6 l -3 0 l 0 6.445 l 3 0 l 0 6 l -3 0 l 0 6.444 l 3 0 l 0 6 l -3 0 l 0 6.445 l 3 0 l 0 6 l -3 0 l 0 6.444 l 3 0 l 0 6 l -3 0 l 0 6.445 l 3 0 l 0 6 l -3 0 l 0 3.444"/>
      <path id="side_056" style="fill:none;stroke:#000000;stroke-width:1" d="m 221 173 l -3 0 l 0 3 l -6 0 l 0 -3 l -6 0 l 0 3 l -6 0 l 0 -3 l -6 0 l 0 3 l -6 0 l 0 -3 l -6 0 l 0 3 l -6 0 l 0 -3 l -6 0 l 0 3 l -6 0 l 0 -3 l -3 0"/>
      <path id="side_057" style="fill:none;stroke:#000000;stroke-width:1" d="m 161 173 l 0 -3.444 l -3 0 l 0 -6 l 3 0 l 0 -6.445 l -3 0 l 0 -6 l 3 0 l 0 -6.444 l -3 0 l 0 -6 l 3 0 l 0 -6.445 l -3 0 l 0 -6 l 3 0 l 0 -6.444 l -3 0 l 0 -6 l 3 0 l 0 -6.445 l -3 0 l 0 -6 l 3 0 l 0 -6.4441 l -3 0 l 0 -6 l 3 0 l 0 -6.4445 l -3 0 l 0 -6 l 3 0 l 0 -3.4444"/>
    </g>
    <g id="piece_007">
      <path id="side_058" style="fill:none;stroke:#000000;stroke-width:1" d="m 233.143 124.5 l 6 0 l 0 -3 l -6 0 l 0 3"/>
      <path id="side_059" style="fill:none;stroke:#000000;stroke-width:1" d="m 246.286 124.5 l 6 0 l 0 -3 l -6 0 l 0 3"/>
      <path id="side_060" style="fill:none;stroke:#000000;stroke-width:1" d="m 259.429 124.5 l 6 0 l 0 -3 l -6 0 l 0 3"/>
      <path id="side_061" style="fill:none;stroke:#000000;stroke-width:1" d="m 272.571 124.5 l 6 0 l 0 -3 l -6 0 l 0 3"/>
      <path id="side_062" style="fill:none;stroke:#000000;stroke-width:1" d="m 285.714 124.5 l 6 0 l 0 -3 l -6 0 l 0 3"/>
      <path id="side_063" style="fill:none;stroke:#000000;stroke-width:1" d="m 298.857 124.5 l 6 0 l 0 -3 l -6 0 l 0 3"/>
      <path id="side_064" style="fill:none;stroke:#000000;stroke-width:1" d="m 226 70 l 7.143 0 l 0 3 l 6 0 l 0 -3 l 7.143 0 l 0 3 l 6 0 l 0 -3 l 7.143 0 l 0 3 l 6 0 l 0 -3 l 7.142 0 l 0 3 l 6 0 l 0 -3 l 7.143 0 l 0 3 l 6 0 l 0 -3 l 7.143 0 l 0 3 l 6 0 l 0 -3 l 7.143 0"/>
      <path id="side_065" style="fill:none;stroke:#000000;stroke-width:1" d="m 267.5 76.4444 l 0 6 l 3 0 l 0 -6 l -3 0"/>
      <path id="side_066" style="fill:none;stroke:#000000;stroke-width:1" d="m 267.5 88.8889 l 0 6 l 3 0 l 0 -6 l -3 0"/>
      <path id="side_067" style="fill:none;stroke:#000000;stroke-width:1" d="m 267.5 101.333 l 0 6 l 3 0 l 0 -6 l -3 0"/>
      <path id="side_068" style="fill:none;stroke:#000000;stroke-width:1" d="m 267.5 113.778 l 0 6 l 3 0 l 0 -6 l -3 0"/>
      <path id="side_069" style="fill:none;stroke:#000000;stroke-width:1" d="m 267.5 126.222 l 0 6 l 3 0 l 0 -6 l -3 0"/>
      <path id="side_070" style="fill:none;stroke:#000000;stroke-width:1" d="m 267.5 138.667 l 0 6 l 3 0 l 0 -6 l -3 0"/>
      <path id="side_071" style="fill:none;stroke:#000000;stroke-width:1" d="m 267.5 151.111 l 0 6 l 3 0 l 0 -6 l -3 0"/>
      <path id="side_072" style="fill:none;stroke:#000000;stroke-width:1" d="m 267.5 163.556 l 0 6 l 3 0 l 0 -6 l -3 0"/>
      <path id="side_073" style="fill:none;stroke:#000000;stroke-width:1" d="m 312 70 l 0 6.4444 l -3 0 l 0 6 l 3 0 l 0 6.4445 l -3 0 l 0 6 l 3 0 l 0 6.4441 l -3 0 l 0 6 l 3 0 l 0 6.445 l -3 0 l 0 6 l 3 0 l 0 6.444 l -3 0 l 0 6 l 3 0 l 0 6.445 l -3 0 l 0 6 l 3 0 l 0 6.444 l -3 0 l 0 6 l 3 0 l 0 6.445 l -3 0 l 0 6 l 3 0 l 0 6.444"/>
      <path id="side_074" style="fill:none;stroke:#000000;stroke-width:1" d="m 312 176 l -7.143 0 l 0 -3 l -6 0 l 0 3 l -7.143 0 l 0 -3 l -6 0 l 0 3 l -7.143 0 l 0 -3 l -6 0 l 0 3 l -7.142 0 l 0 -3 l -6 0 l 0 3 l -7.143 0 l 0 -3 l -6 0 l 0 3 l -7.143 0 l 0 -3 l -6 0 l 0 3 l -7.143 0"/>
      <path id="side_075" style="fill:none;stroke:#000000;stroke-width:1" d="m 226 176 l 0 -6.444 l 3 0 l 0 -6 l -3 0 l 0 -6.445 l 3 0 l 0 -6 l -3 0 l 0 -6.444 l 3 0 l 0 -6 l -3 0 l 0 -6.445 l 3 0 l 0 -6 l -3 0 l 0 -6.444 l 3 0 l 0 -6 l -3 0 l 0 -6.445 l 3 0 l 0 -6 l -3 0 l 0 -6.4441 l 3 0 l 0 -6 l -3 0 l 0 -6.4445 l 3 0 l 0 -6 l -3 0 l 0 -6.4444"/>
    </g>
    <g id="piece_008">
      <path id="side_076" style="fill:none;stroke:#000000;stroke-width:1" d="m 70 5 l 7.1429 0 l 0 -3 l 6 0 l 0 3 l 7.1428 0 l 0 -3 l 6 0 l 0 3 l 7.1433 0 l 0 -3 l 6 0 l 0 3 l 7.142 0 l 0 -3 l 6 0 l 0 3 l 7.143 0 l 0 -3 l 6 0 l 0 3 l 7.143 0 l 0 -3 l 6 0 l 0 3 l 7.143 0"/>
      <path id="side_077" style="fill:none;stroke:#000000;stroke-width:1" d="m 111.5 8 l 0 6 l 3 0 l 0 -6 l -3 0"/>
      <path id="side_078" style="fill:none;stroke:#000000;stroke-width:1" d="m 111.5 20 l 0 6 l 3 0 l 0 -6 l -3 0"/>
      <path id="side_079" style="fill:none;stroke:#000000;stroke-width:1" d="m 111.5 32 l 0 6 l 3 0 l 0 -6 l -3 0"/>
      <path id="side_080" style="fill:none;stroke:#000000;stroke-width:1" d="m 111.5 44 l 0 6 l 3 0 l 0 -6 l -3 0"/>
      <path id="side_081" style="fill:none;stroke:#000000;stroke-width:1" d="m 111.5 56 l 0 6 l 3 0 l 0 -6 l -3 0"/>
      <path id="side_082" style="fill:none;stroke:#000000;stroke-width:1" d="m 156 5 l 0 3 l -3 0 l 0 6 l 3 0 l 0 6 l -3 0 l 0 6 l 3 0 l 0 6 l -3 0 l 0 6 l 3 0 l 0 6 l -3 0 l 0 6 l 3 0 l 0 6 l -3 0 l 0 6 l 3 0 l 0 3"/>
      <path id="side_083" style="fill:none;stroke:#000000;stroke-width:1" d="m 156 65 l -7.143 0 l 0 3 l -6 0 l 0 -3 l -7.143 0 l 0 3 l -6 0 l 0 -3 l -7.143 0 l 0 3 l -6 0 l 0 -3 l -7.142 0 l 0 3 l -6 0 l 0 -3 l -7.1433 0 l 0 3 l -6 0 l 0 -3 l -7.1428 0 l 0 3 l -6 0 l 0 -3 l -7.1429 0"/>
      <path id="side_084" style="fill:none;stroke:#000000;stroke-width:1" d="m 70 65 l 0 -3 l 3 0 l 0 -6 l -3 0 l 0 -6 l 3 0 l 0 -6 l -3 0 l 0 -6 l 3 0 l 0 -6 l -3 0 l 0 -6 l 3 0 l 0 -6 l -3 0 l 0 -6 l 3 0 l 0 -6 l -3 0 l 0 -3"/>
    </g>
  </g>
</svg>