<!-- Created with Inkscape (http://www.inkscape.org/) -->
<svg xmlns:inkscape="http://www.inkscape.org/namespaces/inkscape" xmlns:sodipodi="http://sodipodi.sourceforge.net/DTD/sodipodi-0.dtd" xmlns="http://www.w3.org/2000/svg" xmlns:svg="http://www.w3.org/2000/svg" width="321mm" height="253mm" viewBox="0 0 321 253" version="1.1" id="svg5" inkscape:version="1.1.2 (0a00cf5339, 2022-02-04)" sodipodi:docname="blank.svg">
  <sodipodi:namedview id="namedview7" pagecolor="#ffffff" bordercolor="#666666" borderopacity="1.0" inkscape:pageshadow="2" inkscape:pageopacity="0.0" inkscape:pagecheckerboard="0" inkscape:document-units="mm" showgrid="false" inkscape:zoom="0.64052329" inkscape:cx="397.33138" inkscape:cy="561.25984" inkscape:window-width="2086" inkscape:window-height="1376" inkscape:window-x="0" inkscape:window-y="0" inkscape:window-maximized="1" inkscape:current-layer="layer1"/>
  <defs id="defs2"/>
  <g inkscape:label="Layer 1" inkscape:groupmode="layer" id="layer1">
    <metadata text="createArgs=['--unit=mm', '--inside=1', '--length=80', '--width=100', '--depth=40', '--equal=0', '--tab=6', '--tabtype=0', '--tabsymmetry=0', '--hairline=1', '--thickness=3', '--kerf=0', '--style=1', '--boxtype=1', '--div-l=1', '--div-w=1', '--keydiv=0', '--spacing=2', '--dimpleheight=0.1', '--dimplelength=0.2']"/>
    <g id="piece_001">
      <path id="side_001" style="fill:none;stroke:#000000;stroke-width:0.0508" d="M 50 161 L 57.1429 161 L 57.1429 159.7 L 57.0429 159.6 L 57.0429 159.4 L 57.1429 159.3 L 57.1429 158 L 63.1429 158 L 63.1429 159.3 L 63.2429 159.4 L 63.2429 159.6 L 63.1429 159.7 L 63.1429 161 L 70.2857 161 L 70.2857 159.7 L 70.1857 159.6 L 70.1857 159.4 L 70.2857 159.3 L 70.2857 158 L 76.2857 158 L 76.2857 159.3 L 76.3857 159.4 L 76.3857 159.6 L 76.2857 159.7 L 76.2857 161 L 83.4286 161 L 83.4286 159.7 L 83.3286 159.6 L 83.3286 159.4 L 83.4286 159.3 L 83.4286 158 L 89.4286 158 L 89.4286 159.3 L 89.5286 159.4 L 89.5286 159.6 L 89.4286 159.7 L 89.4286 161 L 96.5714 161 L 96.5714 159.7 L 96.4714 159.6 L 96.4714 159.4 L 96.5714 159.3 L 96.5714 158 L 102.571 158 L 102.571 159.3 L 102.671 159.4 L 102.671 159.6 L 102.571 159.7 L 102.571 161 L 109.714 161 L 109.714 159.7 L 109.614 159.6 L 109.614 159.4 L 109.714 159.3 L 109.714 158 L 115.714 158 L 115.714 159.3 L 115.814 159.4 L 115.814 159.6 L 115.714 159.7 L 115.714 161 L 122.857 161 L 122.857 159.7 L 122.757 159.6 L 122.757 159.4 L 122.857 159.3 L 122.857 158 L 128.857 158 L 128.857 159.3 L 128.957 159.4 L 128.957 159.6 L 128.857 159.7 L 128.857 161 L 136 161"/>
      <path id="side_002" style="fill:none;stroke:#000000;stroke-width:0.0508" d="M 136 161 L 136 165 L 134.7 165 L 134.6 165.1 L 134.4 165.1 L 134.3 165 L 133 165 L 133 171 L 134.3 171 L 134.4 170.9 L 134.6 170.9 L 134.7 171 L 136 171 L 136 178 L 134.7 178 L 134.6 178.1 L 134.4 178.1 L 134.3 178 L 133 178 L 133 184 L 134.3 184 L 134.4 183.9 L 134.6 183.9 L 134.7 184 L 136 184 L 136 191 L 134.7 191 L 134.6 191.1 L 134.4 191.1 L 134.3 191 L 133 191 L 133 197 L 134.3 197 L 134.4 196.9 L 134.6 196.9 L 134.7 197 L 136 197 L 136 201"/>
      <path id="hole_001" style="fill:none;stroke:#000000;stroke-width:0.0508" d="M 94.5 165 L 94.5 171 L 91.5 171 L 91.5 165 L 94.5 165 Z"/>
      <path id="hole_002" style="fill:none;stroke:#000000;stroke-width:0.0508" d="M 94.5 178 L 94.5 184 L 91.5 184 L 91.5 178 L 94.5 178 Z"/>
      <path id="hole_003" style="fill:none;stroke:#000000;stroke-width:0.0508" d="M 94.5 191 L 94.5 197 L 91.5 197 L 91.5 191 L 94.5 191 Z"/>
      <path id="side_003" style="fill:none;stroke:#000000;stroke-width:0.0508" d="M 136 201 L 128.857 201 L 128.857 202.3 L 128.957 202.4 L 128.957 202.6 L 128.857 202.7 L 128.857 204 L 122.857 204 L 122.857 202.7 L 122.757 202.6 L 122.757 202.4 L 122.857 202.3 L 122.857 201 L 115.714 201 L 115.714 202.3 L 115.814 202.4 L 115.814 202.6 L 115.714 202.7 L 115.714 204 L 109.714 204 L 109.714 202.7 L 109.614 202.6 L 109.614 202.4 L 109.714 202.3 L 109.714 201 L 102.571 201 L 102.571 202.3 L 102.671 202.4 L 102.671 202.6 L 102.571 202.7 L 102.571 204 L 96.5714 204 L 96.5714 202.7 L 96.4714 202.6 L 96.4714 202.4 L 96.5714 202.3 L 96.5714 201 L 89.4286 201 L 89.4286 202.3 L 89.5286 202.4 L 89.5286 202.6 L 89.4286 202.7 L 89.4286 204 L 83.4286 204 L 83.4286 202.7 L 83.3286 202.6 L 83.3286 202.4 L 83.4286 202.3 L 83.4286 201 L 76.2857 201 L 76.2857 202.3 L 76.3857 202.4 L 76.3857 202.6 L 76.2857 202.7 L 76.2857 204 L 70.2857 204 L 70.2857 202.7 L 70.1857 202.6 L 70.1857 202.4 L 70.2857 202.3 L 70.2857 201 L 63.1429 201 L 63.1429 202.3 L 63.2429 202.4 L 63.2429 202.6 L 63.1429 202.7 L 63.1429 204 L 57.1429 204 L 57.1429 202.7 L 57.0429 202.6 L 57.0429 202.4 L 57.1429 202.3 L 57.1429 201 L 50 201"/>
      <path id="side_004" style="fill:none;stroke:#000000;stroke-width:0.0508" d="M 50 201 L 50 197 L 51.3 197 L 51.4 196.9 L 51.6 196.9 L 51.7 197 L 53 197 L 53 191 L 51.7 191 L 51.6 191.1 L 51.4 191.1 L 51.3 191 L 50 191 L 50 184 L 51.3 184 L 51.4 183.9 L 51.6 183.9 L 51.7 184 L 53 184 L 53 178 L 51.7 178 L 51.6 178.1 L 51.4 178.1 L 51.3 178 L 50 178 L 50 171 L 51.3 171 L 51.4 170.9 L 51.6 170.9 L 51.7 171 L 53 171 L 53 165 L 51.7 165 L 51.6 165.1 L 51.4 165.1 L 51.3 165 L 50 165 L 50 161"/>
    </g>
    <g id="xdivider_001">
      <path id="side_005" style="fill:none;stroke:#000000;stroke-width:0.0508" d="M 50 209 L 57.1429 209 L 57.1429 207.7 L 57.0429 207.6 L 57.0429 207.4 L 57.1429 207.3 L 57.1429 206 L 63.1429 206 L 63.1429 207.3 L 63.2429 207.4 L 63.2429 207.6 L 63.1429 207.7 L 63.1429 209 L 70.2857 209 L 70.2857 207.7 L 70.1857 207.6 L 70.1857 207.4 L 70.2857 207.3 L 70.2857 206 L 76.2857 206 L 76.2857 207.3 L 76.3857 207.4 L 76.3857 207.6 L 76.2857 207.7 L 76.2857 209 L 83.4286 209 L 83.4286 207.7 L 83.3286 207.6 L 83.3286 207.4 L 83.4286 207.3 L 83.4286 206 L 89.4286 206 L 89.4286 207.3 L 89.5286 207.4 L 89.5286 207.6 L 89.4286 207.7 L 89.4286 209 L 96.5714 209 L 96.5714 207.7 L 96.4714 207.6 L 96.4714 207.4 L 96.5714 207.3 L 96.5714 206 L 102.571 206 L 102.571 207.3 L 102.671 207.4 L 102.671 207.6 L 102.571 207.7 L 102.571 209 L 109.714 209 L 109.714 207.7 L 109.614 207.6 L 109.614 207.4 L 109.714 207.3 L 109.714 206 L 115.714 206 L 115.714 207.3 L 115.814 207.4 L 115.814 207.6 L 115.714 207.7 L 115.714 209 L 122.857 209 L 122.857 207.7 L 122.757 207.6 L 122.757 207.4 L 122.857 207.3 L 122.857 206 L 128.857 206 L 128.857 207.3 L 128.957 207.4 L 128.957 207.6 L 128.857 207.7 L 128.857 209 L 136 209"/>
      <path id="side_006" style="fill:none;stroke:#000000;stroke-width:0.0508" d="M 136 209 L 136 213 L 134.7 213 L 134.6 213.1 L 134.4 213.1 L 134.3 213 L 133 213 L 133 219 L 134.3 219 L 134.4 218.9 L 134.6 218.9 L 134.7 219 L 136 219 L 136 226 L 134.7 226 L 134.6 226.1 L 134.4 226.1 L 134.3 226 L 133 226 L 133 232 L 134.3 232 L 134.4 231.9 L 134.6 231.9 L 134.7 232 L 136 232 L 136 239 L 134.7 239 L 134.6 239.1 L 134.4 239.1 L 134.3 239 L 133 239 L 133 245 L 134.3 245 L 134.4 244.9 L 134.6 244.9 L 134.7 245 L 136 245 L 136 249"/>
      <path id="side_007" style="fill:none;stroke:#000000;stroke-width:0.0508" d="M 136 249 L 128.857 249 L 128.857 250.3 L 128.957 250.4 L 128.957 250.6 L 128.857 250.7 L 128.857 252 L 122.857 252 L 122.857 250.7 L 122.757 250.6 L 122.757 250.4 L 122.857 250.3 L 122.857 249 L 115.714 249 L 115.714 250.3 L 115.814 250.4 L 115.814 250.6 L 115.714 250.7 L 115.714 252 L 109.714 252 L 109.714 250.7 L 109.614 250.6 L 109.614 250.4 L 109.714 250.3 L 109.714 249 L 102.571 249 L 102.571 250.3 L 102.671 250.4 L 102.671 250.6 L 102.571 250.7 L 102.571 252 L 96.5714 252 L 96.5714 250.7 L 96.4714 250.6 L 96.4714 250.4 L 96.5714 250.3 L 96.5714 249 L 89.4286 249 L 89.4286 250.3 L 89.5286 250.4 L 89.5286 250.6 L 89.4286 250.7 L 89.4286 252 L 83.4286 252 L 83.4286 250.7 L 83.3286 250.6 L 83.3286 250.4 L 83.4286 250.3 L 83.4286 249 L 76.2857 249 L 76.2857 250.3 L 76.3857 250.4 L 76.3857 250.6 L 76.2857 250.7 L 76.2857 252 L 70.2857 252 L 70.2857 250.7 L 70.1857 250.6 L 70.1857 250.4 L 70.2857 250.3 L 70.2857 249 L 63.1429 249 L 63.1429 250.3 L 63.2429 250.4 L 63.2429 250.6 L 63.1429 250.7 L 63.1429 252 L 57.1429 252 L 57.1429 250.7 L 57.0429 250.6 L 57.0429 250.4 L 57.1429 250.3 L 57.1429 249 L 50 249"/>
      <path id="side_008" style="fill:none;stroke:#000000;stroke-width:0.0508" d="M 50 249 L 50 245 L 51.3 245 L 51.4 244.9 L 51.6 244.9 L 51.7 245 L 53 245 L 53 239 L 51.7 239 L 51.6 239.1 L 51.4 239.1 L 51.3 239 L 50 239 L 50 232 L 51.3 232 L 51.4 231.9 L 51.6 231.9 L 51.7 232 L 53 232 L 53 226 L 51.7 226 L 51.6 226.1 L 51.4 226.1 L 51.3 226 L 50 226 L 50 219 L 51.3 219 L 51.4 218.9 L 51.6 218.9 L 51.7 219 L 53 219 L 53 213 L 51.7 213 L 51.6 213.1 L 51.4 213.1 L 51.3 213 L 50 213 L 50 209"/>
      <path id="slot_001" style="fill:none;stroke:#000000;stroke-width:0.0508" d="M 91.5 252 L 91.5 229 L 94.5 229 L 94.5 252 L 91.5 252 Z"/>
    </g>
    <g id="piece_002">
      <path id="side_009" style="fill:none;stroke:#000000;stroke-width:0.0508" d="M 5 53 L 9 53 L 9 51.7 L 8.9 51.6 L 8.9 51.4 L 9 51.3 L 9 50 L 15 50 L 15 51.3 L 15.1 51.4 L 15.1 51.6 L 15 51.7 L 15 53 L 22 53 L 22 51.7 L 21.9 51.6 L 21.9 51.4 L 22 51.3 L 22 50 L 28 50 L 28 51.3 L 28.1 51.4 L 28.1 51.6 L 28 51.7 L 28 53 L 35 53 L 35 51.7 L 34.9 51.6 L 34.9 51.4 L 35 51.3 L 35 50 L 41 50 L 41 51.3 L 41.1 51.4 L 41.1 51.6 L 41 51.7 L 41 53 L 45 53"/>
      <path id="hole_004" style="fill:none;stroke:#000000;stroke-width:0.0508" d="M 5 101.5 L 9 101.5 L 9 104.5 L 5 104.5 L 5 101.5 Z"/>
      <path id="hole_005" style="fill:none;stroke:#000000;stroke-width:0.0508" d="M 15 101.5 L 22 101.5 L 22 104.5 L 15 104.5 L 15 101.5 Z"/>
      <path id="hole_006" style="fill:none;stroke:#000000;stroke-width:0.0508" d="M 28 101.5 L 35 101.5 L 35 104.5 L 28 104.5 L 28 101.5 Z"/>
      <path id="hole_007" style="fill:none;stroke:#000000;stroke-width:0.0508" d="M 41 101.5 L 45 101.5 L 45 104.5 L 41 104.5 L 41 101.5 Z"/>
      <path id="side_010" style="fill:none;stroke:#000000;stroke-width:0.0508" d="M 45 53 L 45 56.4444 L 46.3 56.4444 L 46.4 56.3444 L 46.6 56.3444 L 46.7 56.4444 L 48 56.4444 L 48 62.4444 L 46.7 62.4444 L 46.6 62.5444 L 46.4 62.5444 L 46.3 62.4444 L 45 62.4444 L 45 68.8889 L 46.3 68.8889 L 46.4 68.7889 L 46.6 68.7889 L 46.7 68.8889 L 48 68.8889 L 48 74.8889 L 46.7 74.8889 L 46.6 74.9889 L 46.4 74.9889 L 46.3 74.8889 L 45 74.8889 L 45 81.3333 L 46.3 81.3333 L 46.4 81.2333 L 46.6 81.2333 L 46.7 81.3333 L 48 81.3333 L 48 87.3333 L 46.7 87.3333 L 46.6 87.4333 L 46.4 87.4333 L 46.3 87.3333 L 45 87.3333 L 45 93.7778 L 46.3 93.7778 L 46.4 93.6778 L 46.6 93.6778 L 46.7 93.7778 L 48 93.7778 L 48 99.7778 L 46.7 99.7778 L 46.6 99.8778 L 46.4 99.8778 L 46.3 99.7778 L 45 99.7778 L 45 106.222 L 46.3 106.222 L 46.4 106.122 L 46.6 106.122 L 46.7 106.222 L 48 106.222 L 48 112.222 L 46.7 112.222 L 46.6 112.322 L 46.4 112.322 L 46.3 112.222 L 45 112.222 L 45 118.667 L 46.3 118.667 L 46.4 118.567 L 46.6 118.567 L 46.7 118.667 L 48 118.667 L 48 124.667 L 46.7 124.667 L 46.6 124.767 L 46.4 124.767 L 46.3 124.667 L 45 124.667 L 45 131.111 L 46.3 131.111 L 46.4 131.011 L 46.6 131.011 L 46.7 131.111 L 48 131.111 L 48 137.111 L 46.7 137.111 L 46.6 137.211 L 46.4 137.211 L 46.3 137.111 L 45 137.111 L 45 143.556 L 46.3 143.556 L 46.4 143.456 L 46.6 143.456 L 46.7 143.556 L 48 143.556 L 48 149.556 L 46.7 149.556 L 46.6 149.656 L 46.4 149.656 L 46.3 149.556 L 45 149.556 L 45 153"/>
      <path id="side_011" style="fill:none;stroke:#000000;stroke-width:0.0508" d="M 45 153 L 41 153 L 41 154.3 L 41.1 154.4 L 41.1 154.6 L 41 154.7 L 41 156 L 35 156 L 35 154.7 L 34.9 154.6 L 34.9 154.4 L 35 154.3 L 35 153 L 28 153 L 28 154.3 L 28.1 154.4 L 28.1 154.6 L 28 154.7 L 28 156 L 22 156 L 22 154.7 L 21.9 154.6 L 21.9 154.4 L 22 154.3 L 22 153 L 15 153 L 15 154.3 L 15.1 154.4 L 15.1 154.6 L 15 154.7 L 15 156 L 9 156 L 9 154.7 L 8.9 154.6 L 8.9 154.4 L 9 154.3 L 9 153 L 5 153"/>
      <path id="side_012" style="fill:none;stroke:#000000;stroke-width:0.0508" d="M 5 153 L 5 149.556 L 3.7 149.556 L 3.6 149.656 L 3.4 149.656 L 3.3 149.556 L 2 149.556 L 2 143.556 L 3.3 143.556 L 3.4 143.456 L 3.6 143.456 L 3.7 143.556 L 5 143.556 L 5 137.111 L 3.7 137.111 L 3.6 137.211 L 3.4 137.211 L 3.3 137.111 L 2 137.111 L 2 131.111 L 3.3 131.111 L 3.4 131.011 L 3.6 131.011 L 3.7 131.111 L 5 131.111 L 5 124.667 L 3.7 124.667 L 3.6 124.767 L 3.4 124.767 L 3.3 124.667 L 2 124.667 L 2 118.667 L 3.3 118.667 L 3.4 118.567 L 3.6 118.567 L 3.7 118.667 L 5 118.667 L 5 112.222 L 3.7 112.222 L 3.6 112.322 L 3.4 112.322 L 3.3 112.222 L 2 112.222 L 2 106.222 L 3.3 106.222 L 3.4 106.122 L 3.6 106.122 L 3.7 106.222 L 5 106.222 L 5 99.7778 L 3.7 99.7778 L 3.6 99.8778 L 3.4 99.8778 L 3.3 99.7778 L 2 99.7778 L 2 93.7778 L 3.3 93.7778 L 3.4 93.6778 L 3.6 93.6778 L 3.7 93.7778 L 5 93.7778 L 5 87.3333 L 3.7 87.3333 L 3.6 87.4333 L 3.4 87.4333 L 3.3 87.3333 L 2 87.3333 L 2 81.3333 L 3.3 81.3333 L 3.4 81.2333 L 3.6 81.2333 L 3.7 81.3333 L 5 81.3333 L 5 74.8889 L 3.7 74.8889 L 3.6 74.9889 L 3.4 74.9889 L 3.3 74.8889 L 2 74.8889 L 2 68.8889 L 3.3 68.8889 L 3.4 68.7889 L 3.6 68.7889 L 3.7 68.8889 L 5 68.8889 L 5 62.4444 L 3.7 62.4444 L 3.6 62.5444 L 3.4 62.5444 L 3.3 62.4444 L 2 62.4444 L 2 56.4444 L 3.3 56.4444 L 3.4 56.3444 L 3.6 56.3444 L 3.7 56.4444 L 5 56.4444 L 5 53"/>
    </g>
    <g id="ydivider_001">
      <path id="side_013" style="fill:none;stroke:#000000;stroke-width:0.0508" d="M 277 53 L 281 53 L 281 51.7 L 280.9 51.6 L 280.9 51.4 L 281 51.3 L 281 50 L 287 50 L 287 51.3 L 287.1 51.4 L 287.1 51.6 L 287 51.7 L 287 53 L 294 53 L 294 51.7 L 293.9 51.6 L 293.9 51.4 L 294 51.3 L 294 50 L 300 50 L 300 51.3 L 300.1 51.4 L 300.1 51.6 L 300 51.7 L 300 53 L 307 53 L 307 51.7 L 306.9 51.6 L 306.9 51.4 L 307 51.3 L 307 50 L 313 50 L 313 51.3 L 313.1 51.4 L 313.1 51.6 L 313 51.7 L 313 53 L 317 53"/>
      <path id="slot_002" style="fill:none;stroke:#000000;stroke-width:0.0508" d="M 274 101.5 L 297 101.5 L 297 104.5 L 274 104.5 L 274 101.5 Z"/>
      <path id="side_014" style="fill:none;stroke:#000000;stroke-width:0.0508" d="M 317 53 L 317 56.4444 L 318.3 56.4444 L 318.4 56.3444 L 318.6 56.3444 L 318.7 56.4444 L 320 56.4444 L 320 62.4444 L 318.7 62.4444 L 318.6 62.5444 L 318.4 62.5444 L 318.3 62.4444 L 317 62.4444 L 317 68.8889 L 318.3 68.8889 L 318.4 68.7889 L 318.6 68.7889 L 318.7 68.8889 L 320 68.8889 L 320 74.8889 L 318.7 74.8889 L 318.6 74.9889 L 318.4 74.9889 L 318.3 74.8889 L 317 74.8889 L 317 81.3333 L 318.3 81.3333 L 318.4 81.2333 L 318.6 81.2333 L 318.7 81.3333 L 320 81.3333 L 320 87.3333 L 318.7 87.3333 L 318.6 87.4333 L 318.4 87.4333 L 318.3 87.3333 L 317 87.3333 L 317 93.7778 L 318.3 93.7778 L 318.4 93.6778 L 318.6 93.6778 L 318.7 93.7778 L 320 93.7778 L 320 99.7778 L 318.7 99.7778 L 318.6 99.8778 L 318.4 99.8778 L 318.3 99.7778 L 317 99.7778 L 317 106.222 L 318.3 106.222 L 318.4 106.122 L 318.6 106.122 L 318.7 106.222 L 320 106.222 L 320 112.222 L 318.7 112.222 L 318.6 112.322 L 318.4 112.322 L 318.3 112.222 L 317 112.222 L 317 118.667 L 318.3 118.667 L 318.4 118.567 L 318.6 118.567 L 318.7 118.667 L 320 118.667 L 320 124.667 L 318.7 124.667 L 318.6 124.767 L 318.4 124.767 L 318.3 124.667 L 317 124.667 L 317 131.111 L 318.3 131.111 L 318.4 131.011 L 318.6 131.011 L 318.7 131.111 L 320 131.111 L 320 137.111 L 318.7 137.111 L 318.6 137.211 L 318.4 137.211 L 318.3 137.111 L 317 137.111 L 317 143.556 L 318.3 143.556 L 318.4 143.456 L 318.6 143.456 L 318.7 143.556 L 320 143.556 L 320 149.556 L 318.7 149.556 L 318.6 149.656 L 318.4 149.656 L 318.3 149.556 L 317 149.556 L 317 153"/>
      <path id="side_015" style="fill:none;stroke:#000000;stroke-width:0.0508" d="M 317 153 L 313 153 L 313 154.3 L 313.1 154.4 L 313.1 154.6 L 313 154.7 L 313 156 L 307 156 L 307 154.7 L 306.9 154.6 L 306.9 154.4 L 307 154.3 L 307 153 L 300 153 L 300 154.3 L 300.1 154.4 L 300.1 154.6 L 300 154.7 L 300 156 L 294 156 L 294 154.7 L 293.9 154.6 L 293.9 154.4 L 294 154.3 L 294 153 L 287 153 L 287 154.3 L 287.1 154.4 L 287.1 154.6 L 287 154.7 L 287 156 L 281 156 L 281 154.7 L 280.9 154.6 L 280.9 154.4 L 281 154.3 L 281 153 L 277 153"/>
      <path id="side_016" style="fill:none;stroke:#000000;stroke-width:0.0508" d="M 277 153 L 277 149.556 L 275.7 149.556 L 275.6 149.656 L 275.4 149.656 L 275.3 149.556 L 274 149.556 L 274 143.556 L 275.3 143.556 L 275.4 143.456 L 275.6 143.456 L 275.7 143.556 L 277 143.556 L 277 137.111 L 275.7 137.111 L 275.6 137.211 L 275.4 137.211 L 275.3 137.111 L 274 137.111 L 274 131.111 L 275.3 131.111 L 275.4 131.011 L 275.6 131.011 L 275.7 131.111 L 277 131.111 L 277 124.667 L 275.7 124.667 L 275.6 124.767 L 275.4 124.767 L 275.3 124.667 L 274 124.667 L 274 118.667 L 275.3 118.667 L 275.4 118.567 L 275.6 118.567 L 275.7 118.667 L 277 118.667 L 277 112.222 L 275.7 112.222 L 275.6 112.322 L 275.4 112.322 L 275.3 112.222 L 274 112.222 L 274 106.222 L 275.3 106.222 L 275.4 106.122 L 275.6 106.122 L 275.7 106.222 L 277 106.222 L 277 99.7778 L 275.7 99.7778 L 275.6 99.8778 L 275.4 99.8778 L 275.3 99.7778 L 274 99.7778 L 274 93.7778 L 275.3 93.7778 L 275.4 93.6778 L 275.6 93.6778 L 275.7 93.7778 L 277 93.7778 L 277 87.3333 L 275.7 87.3333 L 275.6 87.4333 L 275.4 87.4333 L 275.3 87.3333 L 274 87.3333 L 274 81.3333 L 275.3 81.3333 L 275.4 81.2333 L 275.6 81.2333 L 275.7 81.3333 L 277 81.3333 L 277 74.8889 L 275.7 74.8889 L 275.6 74.9889 L 275.4 74.9889 L 275.3 74.8889 L 274 74.8889 L 274 68.8889 L 275.3 68.8889 L 275.4 68.7889 L 275.6 68.7889 L 275.7 68.8889 L 277 68.8889 L 277 62.4444 L 275.7 62.4444 L 275.6 62.5444 L 275.4 62.5444 L 275.3 62.4444 L 274 62.4444 L 274 56.4444 L 275.3 56.4444 L 275.4 56.3444 L 275.6 56.3444 L 275.7 56.4444 L 277 56.4444 L 277 53"/>
    </g>
    <g id="piece_003">
      <path id="side_017" style="fill:none;stroke:#000000;stroke-width:0.0508" d="M 50 50 L 57.1429 50 L 57.1429 51.3 L 57.2429 51.4 L 57.2429 51.6 L 57.1429 51.7 L 57.1429 53 L 63.1429 53 L 63.1429 51.7 L 63.0429 51.6 L 63.0429 51.4 L 63.1429 51.3 L 63.1429 50 L 70.2857 50 L 70.2857 51.3 L 70.3857 51.4 L 70.3857 51.6 L 70.2857 51.7 L 70.2857 53 L 76.2857 53 L 76.2857 51.7 L 76.1857 51.6 L 76.1857 51.4 L 76.2857 51.3 L 76.2857 50 L 83.4286 50 L 83.4286 51.3 L 83.5286 51.4 L 83.5286 51.6 L 83.4286 51.7 L 83.4286 53 L 89.4286 53 L 89.4286 51.7 L 89.3286 51.6 L 89.3286 51.4 L 89.4286 51.3 L 89.4286 50 L 96.5714 50 L 96.5714 51.3 L 96.6714 51.4 L 96.6714 51.6 L 96.5714 51.7 L 96.5714 53 L 102.571 53 L 102.571 51.7 L 102.471 51.6 L 102.471 51.4 L 102.571 51.3 L 102.571 50 L 109.714 50 L 109.714 51.3 L 109.814 51.4 L 109.814 51.6 L 109.714 51.7 L 109.714 53 L 115.714 53 L 115.714 51.7 L 115.614 51.6 L 115.614 51.4 L 115.714 51.3 L 115.714 50 L 122.857 50 L 122.857 51.3 L 122.957 51.4 L 122.957 51.6 L 122.857 51.7 L 122.857 53 L 128.857 53 L 128.857 51.7 L 128.757 51.6 L 128.757 51.4 L 128.857 51.3 L 128.857 50 L 136 50"/>
      <path id="hole_008" style="fill:none;stroke:#000000;stroke-width:0.0508" d="M 57.1429 101.5 L 63.1429 101.5 L 63.1429 104.5 L 57.1429 104.5 L 57.1429 101.5 Z"/>
      <path id="hole_009" style="fill:none;stroke:#000000;stroke-width:0.0508" d="M 70.2857 101.5 L 76.2857 101.5 L 76.2857 104.5 L 70.2857 104.5 L 70.2857 101.5 Z"/>
      <path id="hole_010" style="fill:none;stroke:#000000;stroke-width:0.0508" d="M 83.4286 101.5 L 89.4286 101.5 L 89.4286 104.5 L 83.4286 104.5 L 83.4286 101.5 Z"/>
      <path id="hole_011" style="fill:none;stroke:#000000;stroke-width:0.0508" d="M 96.5714 101.5 L 102.571 101.5 L 102.571 104.5 L 96.5714 104.5 L 96.5714 101.5 Z"/>
      <path id="hole_012" style="fill:none;stroke:#000000;stroke-width:0.0508" d="M 109.714 101.5 L 115.714 101.5 L 115.714 104.5 L 109.714 104.5 L 109.714 101.5 Z"/>
      <path id="hole_013" style="fill:none;stroke:#000000;stroke-width:0.0508" d="M 122.857 101.5 L 128.857 101.5 L 128.857 104.5 L 122.857 104.5 L 122.857 101.5 Z"/>
      <path id="side_018" style="fill:none;stroke:#000000;stroke-width:0.0508" d="M 136 50 L 136 56.4444 L 134.7 56.4444 L 134.6 56.5444 L 134.4 56.5444 L 134.3 56.4444 L 133 56.4444 L 133 62.4444 L 134.3 62.4444 L 134.4 62.3444 L 134.6 62.3444 L 134.7 62.4444 L 136 62.4444 L 136 68.8889 L 134.7 68.8889 L 134.6 68.9889 L 134.4 68.9889 L 134.3 68.8889 L 133 68.8889 L 133 74.8889 L 134.3 74.8889 L 134.4 74.7889 L 134.6 74.7889 L 134.7 74.8889 L 136 74.8889 L 136 81.3333 L 134.7 81.3333 L 134.6 81.4333 L 134.4 81.4333 L 134.3 81.3333 L 133 81.3333 L 133 87.3333 L 134.3 87.3333 L 134.4 87.2333 L 134.6 87.2333 L 134.7 87.3333 L 136 87.3333 L 136 93.7778 L 134.7 93.7778 L 134.6 93.8778 L 134.4 93.8778 L 134.3 93.7778 L 133 93.7778 L 133 99.7778 L 134.3 99.7778 L 134.4 99.6778 L 134.6 99.6778 L 134.7 99.7778 L 136 99.7778 L 136 106.222 L 134.7 106.222 L 134.6 106.322 L 134.4 106.322 L 134.3 106.222 L 133 106.222 L 133 112.222 L 134.3 112.222 L 134.4 112.122 L 134.6 112.122 L 134.7 112.222 L 136 112.222 L 136 118.667 L 134.7 118.667 L 134.6 118.767 L 134.4 118.767 L 134.3 118.667 L 133 118.667 L 133 124.667 L 134.3 124.667 L 134.4 124.567 L 134.6 124.567 L 134.7 124.667 L 136 124.667 L 136 131.111 L 134.7 131.111 L 134.6 131.211 L 134.4 131.211 L 134.3 131.111 L 133 131.111 L 133 137.111 L 134.3 137.111 L 134.4 137.011 L 134.6 137.011 L 134.7 137.111 L 136 137.111 L 136 143.556 L 134.7 143.556 L 134.6 143.656 L 134.4 143.656 L 134.3 143.556 L 133 143.556 L 133 149.556 L 134.3 149.556 L 134.4 149.456 L 134.6 149.456 L 134.7 149.556 L 136 149.556 L 136 156"/>
      <path id="hole_014" style="fill:none;stroke:#000000;stroke-width:0.0508" d="M 94.5 56.4444 L 94.5 62.4444 L 91.5 62.4444 L 91.5 56.4444 L 94.5 56.4444 Z"/>
      <path id="hole_015" style="fill:none;stroke:#000000;stroke-width:0.0508" d="M 94.5 68.8889 L 94.5 74.8889 L 91.5 74.8889 L 91.5 68.8889 L 94.5 68.8889 Z"/>
      <path id="hole_016" style="fill:none;stroke:#000000;stroke-width:0.0508" d="M 94.5 81.3333 L 94.5 87.3333 L 91.5 87.3333 L 91.5 81.3333 L 94.5 81.3333 Z"/>
      <path id="hole_017" style="fill:none;stroke:#000000;stroke-width:0.0508" d="M 94.5 93.7778 L 94.5 99.7778 L 91.5 99.7778 L 91.5 93.7778 L 94.5 93.7778 Z"/>
      <path id="hole_018" style="fill:none;stroke:#000000;stroke-width:0.0508" d="M 94.5 106.222 L 94.5 112.222 L 91.5 112.222 L 91.5 106.222 L 94.5 106.222 Z"/>
      <path id="hole_019" style="fill:none;stroke:#000000;stroke-width:0.0508" d="M 94.5 118.667 L 94.5 124.667 L 91.5 124.667 L 91.5 118.667 L 94.5 118.667 Z"/>
      <path id="hole_020" style="fill:none;stroke:#000000;stroke-width:0.0508" d="M 94.5 131.111 L 94.5 137.111 L 91.5 137.111 L 91.5 131.111 L 94.5 131.111 Z"/>
      <path id="hole_021" style="fill:none;stroke:#000000;stroke-width:0.0508" d="M 94.5 143.556 L 94.5 149.556 L 91.5 149.556 L 91.5 143.556 L 94.5 143.556 Z"/>
      <path id="side_019" style="fill:none;stroke:#000000;stroke-width:0.0508" d="M 136 156 L 128.857 156 L 128.857 154.7 L 128.757 154.6 L 128.757 154.4 L 128.857 154.3 L 128.857 153 L 122.857 153 L 122.857 154.3 L 122.957 154.4 L 122.957 154.6 L 122.857 154.7 L 122.857 156 L 115.714 156 L 115.714 154.7 L 115.614 154.6 L 115.614 154.4 L 115.714 154.3 L 115.714 153 L 109.714 153 L 109.714 154.3 L 109.814 154.4 L 109.814 154.6 L 109.714 154.7 L 109.714 156 L 102.571 156 L 102.571 154.7 L 102.471 154.6 L 102.471 154.4 L 102.571 154.3 L 102.571 153 L 96.5714 153 L 96.5714 154.3 L 96.6714 154.4 L 96.6714 154.6 L 96.5714 154.7 L 96.5714 156 L 89.4286 156 L 89.4286 154.7 L 89.3286 154.6 L 89.3286 154.4 L 89.4286 154.3 L 89.4286 153 L 83.4286 153 L 83.4286 154.3 L 83.5286 154.4 L 83.5286 154.6 L 83.4286 154.7 L 83.4286 156 L 76.2857 156 L 76.2857 154.7 L 76.1857 154.6 L 76.1857 154.4 L 76.2857 154.3 L 76.2857 153 L 70.2857 153 L 70.2857 154.3 L 70.3857 154.4 L 70.3857 154.6 L 70.2857 154.7 L 70.2857 156 L 63.1429 156 L 63.1429 154.7 L 63.0429 154.6 L 63.0429 154.4 L 63.1429 154.3 L 63.1429 153 L 57.1429 153 L 57.1429 154.3 L 57.2429 154.4 L 57.2429 154.6 L 57.1429 154.7 L 57.1429 156 L 50 156"/>
      <path id="side_020" style="fill:none;stroke:#000000;stroke-width:0.0508" d="M 50 156 L 50 149.556 L 51.3 149.556 L 51.4 149.456 L 51.6 149.456 L 51.7 149.556 L 53 149.556 L 53 143.556 L 51.7 143.556 L 51.6 143.656 L 51.4 143.656 L 51.3 143.556 L 50 143.556 L 50 137.111 L 51.3 137.111 L 51.4 137.011 L 51.6 137.011 L 51.7 137.111 L 53 137.111 L 53 131.111 L 51.7 131.111 L 51.6 131.211 L 51.4 131.211 L 51.3 131.111 L 50 131.111 L 50 124.667 L 51.3 124.667 L 51.4 124.567 L 51.6 124.567 L 51.7 124.667 L 53 124.667 L 53 118.667 L 51.7 118.667 L 51.6 118.767 L 51.4 118.767 L 51.3 118.667 L 50 118.667 L 50 112.222 L 51.3 112.222 L 51.4 112.122 L 51.6 112.122 L 51.7 112.222 L 53 112.222 L 53 106.222 L 51.7 106.222 L 51.6 106.322 L 51.4 106.322 L 51.3 106.222 L 50 106.222 L 50 99.7778 L 51.3 99.7778 L 51.4 99.6778 L 51.6 99.6778 L 51.7 99.7778 L 53 99.7778 L 53 93.7778 L 51.7 93.7778 L 51.6 93.8778 L 51.4 93.8778 L 51.3 93.7778 L 50 93.7778 L 50 87.3333 L 51.3 87.3333 L 51.4 87.2333 L 51.6 87.2333 L 51.7 87.3333 L 53 87.3333 L 53 81.3333 L 51.7 81.3333 L 51.6 81.4333 L 51.4 81.4333 L 51.3 81.3333 L 50 81.3333 L 50 74.8889 L 51.3 74.8889 L 51.4 74.7889 L 51.6 74.7889 L 51.7 74.8889 L 53 74.8889 L 53 68.8889 L 51.7 68.8889 L 51.6 68.9889 L 51.4 68.9889 L 51.3 68.8889 L 50 68.8889 L 50 62.4444 L 51.3 62.4444 L 51.4 62.3444 L 51.6 62.3444 L 51.7 62.4444 L 53 62.4444 L 53 56.4444 L 51.7 56.4444 L 51.6 56.5444 L 51.4 56.5444 L 51.3 56.4444 L 50 56.4444 L 50 50"/>
    </g>
    <g id="piece_004">
      <path id="side_021" style="fill:none;stroke:#000000;stroke-width:0.0508" d="M 141 53 L 145 53 L 145 51.7 L 144.9 51.6 L 144.9 51.4 L 145 51.3 L 145 50 L 151 50 L 151 51.3 L 151.1 51.4 L 151.1 51.6 L 151 51.7 L 151 53 L 158 53 L 158 51.7 L 157.9 51.6 L 157.9 51.4 L 158 51.3 L 158 50 L 164 50 L 164 51.3 L 164.1 51.4 L 164.1 51.6 L 164 51.7 L 164 53 L 171 53 L 171 51.7 L 170.9 51.6 L 170.9 51.4 L 171 51.3 L 171 50 L 177 50 L 177 51.3 L 177.1 51.4 L 177.1 51.6 L 177 51.7 L 177 53 L 181 53"/>
      <path id="hole_022" style="fill:none;stroke:#000000;stroke-width:0.0508" d="M 141 101.5 L 145 101.5 L 145 104.5 L 141 104.5 L 141 101.5 Z"/>
      <path id="hole_023" style="fill:none;stroke:#000000;stroke-width:0.0508" d="M 151 101.5 L 158 101.5 L 158 104.5 L 151 104.5 L 151 101.5 Z"/>
      <path id="hole_024" style="fill:none;stroke:#000000;stroke-width:0.0508" d="M 164 101.5 L 171 101.5 L 171 104.5 L 164 104.5 L 164 101.5 Z"/>
      <path id="hole_025" style="fill:none;stroke:#000000;stroke-width:0.0508" d="M 177 101.5 L 181 101.5 L 181 104.5 L 177 104.5 L 177 101.5 Z"/>
      <path id="side_022" style="fill:none;stroke:#000000;stroke-width:0.0508" d="M 181 53 L 181 56.4444 L 182.3 56.4444 L 182.4 56.3444 L 182.6 56.3444 L 182.7 56.4444 L 184 56.4444 L 184 62.4444 L 182.7 62.4444 L 182.6 62.5444 L 182.4 62.5444 L 182.3 62.4444 L 181 62.4444 L 181 68.8889 L 182.3 68.8889 L 182.4 68.7889 L 182.6 68.7889 L 182.7 68.8889 L 184 68.8889 L 184 74.8889 L 182.7 74.8889 L 182.6 74.9889 L 182.4 74.9889 L 182.3 74.8889 L 181 74.8889 L 181 81.3333 L 182.3 81.3333 L 182.4 81.2333 L 182.6 81.2333 L 182.7 81.3333 L 184 81.3333 L 184 87.3333 L 182.7 87.3333 L 182.6 87.4333 L 182.4 87.4333 L 182.3 87.3333 L 181 87.3333 L 181 93.7778 L 182.3 93.7778 L 182.4 93.6778 L 182.6 93.6778 L 182.7 93.7778 L 184 93.7778 L 184 99.7778 L 182.7 99.7778 L 182.6 99.8778 L 182.4 99.8778 L 182.3 99.7778 L 181 99.7778 L 181 106.222 L 182.3 106.222 L 182.4 106.122 L 182.6 106.122 L 182.7 106.222 L 184 106.222 L 184 112.222 L 182.7 112.222 L 182.6 112.322 L 182.4 112.322 L 182.3 112.222 L 181 112.222 L 181 118.667 L 182.3 118.667 L 182.4 118.567 L 182.6 118.567 L 182.7 118.667 L 184 118.667 L 184 124.667 L 182.7 124.667 L 182.6 124.767 L 182.4 124.767 L 182.3 124.667 L 181 124.667 L 181 131.111 L 182.3 131.111 L 182.4 131.011 L 182.6 131.011 L 182.7 131.111 L 184 131.111 L 184 137.111 L 182.7 137.111 L 182.6 137.211 L 182.4 137.211 L 182.3 137.111 L 181 137.111 L 181 143.556 L 182.3 143.556 L 182.4 143.456 L 182.6 143.456 L 182.7 143.556 L 184 143.556 L 184 149.556 L 182.7 149.556 L 182.6 149.656 L 182.4 149.656 L 182.3 149.556 L 181 149.556 L 181 153"/>
      <path id="side_023" style="fill:none;stroke:#000000;stroke-width:0.0508" d="M 181 153 L 177 153 L 177 154.3 L 177.1 154.4 L 177.1 154.6 L 177 154.7 L 177 156 L 171 156 L 171 154.7 L 170.9 154.6 L 170.9 154.4 L 171 154.3 L 171 153 L 164 153 L 164 154.3 L 164.1 154.4 L 164.1 154.6 L 164 154.7 L 164 156 L 158 156 L 158 154.7 L 157.9 154.6 L 157.9 154.4 L 158 154.3 L 158 153 L 151 153 L 151 154.3 L 151.1 154.4 L 151.1 154.6 L 151 154.7 L 151 156 L 145 156 L 145 154.7 L 144.9 154.6 L 144.9 154.4 L 145 154.3 L 145 153 L 141 153"/>
      <path id="side_024" style="fill:none;stroke:#000000;stroke-width:0.0508" d="M 141 153 L 141 149.556 L 139.7 149.556 L 139.6 149.656 L 139.4 149.656 L 139.3 149.556 L 138 149.556 L 138 143.556 L 139.3 143.556 L 139.4 143.456 L 139.6 143.456 L 139.7 143.556 L 141 143.556 L 141 137.111 L 139.7 137.111 L 139.6 137.211 L 139.4 137.211 L 139.3 137.111 L 138 137.111 L 138 131.111 L 139.3 131.111 L 139.4 131.011 L 139.6 131.011 L 139.7 131.111 L 141 131.111 L 141 124.667 L 139.7 124.667 L 139.6 124.767 L 139.4 124.767 L 139.3 124.667 L 138 124.667 L 138 118.667 L 139.3 118.667 L 139.4 118.567 L 139.6 118.567 L 139.7 118.667 L 141 118.667 L 141 112.222 L 139.7 112.222 L 139.6 112.322 L 139.4 112.322 L 139.3 112.222 L 138 112.222 L 138 106.222 L 139.3 106.222 L 139.4 106.122 L 139.6 106.122 L 139.7 106.222 L 141 106.222 L 141 99.7778 L 139.7 99.7778 L 139.6 99.8778 L 139.4 99.8778 L 139.3 99.7778 L 138 99.7778 L 138 93.7778 L 139.3 93.7778 L 139.4 93.6778 L 139.6 93.6778 L 139.7 93.7778 L 141 93.7778 L 141 87.3333 L 139.7 87.3333 L 139.6 87.4333 L 139.4 87.4333 L 139.3 87.3333 L 138 87.3333 L 138 81.3333 L 139.3 81.3333 L 139.4 81.2333 L 139.6 81.2333 L 139.7 81.3333 L 141 81.3333 L 141 74.8889 L 139.7 74.8889 L 139.6 74.9889 L 139.4 74.9889 L 139.3 74.8889 L 138 74.8889 L 138 68.8889 L 139.3 68.8889 L 139.4 68.7889 L 139.6 68.7889 L 139.7 68.8889 L 141 68.8889 L 141 62.4444 L 139.7 62.4444 L 139.6 62.5444 L 139.4 62.5444 L 139.3 62.4444 L 138 62.4444 L 138 56.4444 L 139.3 56.4444 L 139.4 56.3444 L 139.6 56.3444 L 139.7 56.4444 L 141 56.4444 L 141 53"/>
    </g>
    <g id="piece_005">
      <path id="side_025" style="fill:none;stroke:#000000;stroke-width:0.0508" d="M 186 50 L 193.143 50 L 193.143 51.3 L 193.243 51.4 L 193.243 51.6 L 193.143 51.7 L 193.143 53 L 199.143 53 L 199.143 51.7 L 199.043 51.6 L 199.043 51.4 L 199.143 51.3 L 199.143 50 L 206.286 50 L 206.286 51.3 L 206.386 51.4 L 206.386 51.6 L 206.286 51.7 L 206.286 53 L 212.286 53 L 212.286 51.7 L 212.186 51.6 L 212.186 51.4 L 212.286 51.3 L 212.286 50 L 219.429 50 L 219.429 51.3 L 219.529 51.4 L 219.529 51.6 L 219.429 51.7 L 219.429 53 L 225.429 53 L 225.429 51.7 L 225.329 51.6 L 225.329 51.4 L 225.429 51.3 L 225.429 50 L 232.571 50 L 232.571 51.3 L 232.671 51.4 L 232.671 51.6 L 232.571 51.7 L 232.571 53 L 238.571 53 L 238.571 51.7 L 238.471 51.6 L 238.471 51.4 L 238.571 51.3 L 238.571 50 L 245.714 50 L 245.714 51.3 L 245.814 51.4 L 245.814 51.6 L 245.714 51.7 L 245.714 53 L 251.714 53 L 251.714 51.7 L 251.614 51.6 L 251.614 51.4 L 251.714 51.3 L 251.714 50 L 258.857 50 L 258.857 51.3 L 258.957 51.4 L 258.957 51.6 L 258.857 51.7 L 258.857 53 L 264.857 53 L 264.857 51.7 L 264.757 51.6 L 264.757 51.4 L 264.857 51.3 L 264.857 50 L 272 50"/>
      <path id="hole_026" style="fill:none;stroke:#000000;stroke-width:0.0508" d="M 193.143 101.5 L 199.143 101.5 L 199.143 104.5 L 193.143 104.5 L 193.143 101.5 Z"/>
      <path id="hole_027" style="fill:none;stroke:#000000;stroke-width:0.0508" d="M 206.286 101.5 L 212.286 101.5 L 212.286 104.5 L 206.286 104.5 L 206.286 101.5 Z"/>
      <path id="hole_028" style="fill:none;stroke:#000000;stroke-width:0.0508" d="M 219.429 101.5 L 225.429 101.5 L 225.429 104.5 L 219.429 104.5 L 219.429 101.5 Z"/>
      <path id="hole_029" style="fill:none;stroke:#000000;stroke-width:0.0508" d="M 232.571 101.5 L 238.571 101.5 L 238.571 104.5 L 232.571 104.5 L 232.571 101.5 Z"/>
      <path id="hole_030" style="fill:none;stroke:#000000;stroke-width:0.0508" d="M 245.714 101.5 L 251.714 101.5 L 251.714 104.5 L 245.714 104.5 L 245.714 101.5 Z"/>
      <path id="hole_031" style="fill:none;stroke:#000000;stroke-width:0.0508" d="M 258.857 101.5 L 264.857 101.5 L 264.857 104.5 L 258.857 104.5 L 258.857 101.5 Z"/>
      <path id="side_026" style="fill:none;stroke:#000000;stroke-width:0.0508" d="M 272 50 L 272 56.4444 L 270.7 56.4444 L 270.6 56.5444 L 270.4 56.5444 L 270.3 56.4444 L 269 56.4444 L 269 62.4444 L 270.3 62.4444 L 270.4 62.3444 L 270.6 62.3444 L 270.7 62.4444 L 272 62.4444 L 272 68.8889 L 270.7 68.8889 L 270.6 68.9889 L 270.4 68.9889 L 270.3 68.8889 L 269 68.8889 L 269 74.8889 L 270.3 74.8889 L 270.4 74.7889 L 270.6 74.7889 L 270.7 74.8889 L 272 74.8889 L 272 81.3333 L 270.7 81.3333 L 270.6 81.4333 L 270.4 81.4333 L 270.3 81.3333 L 269 81.3333 L 269 87.3333 L 270.3 87.3333 L 270.4 87.2333 L 270.6 87.2333 L 270.7 87.3333 L 272 87.3333 L 272 93.7778 L 270.7 93.7778 L 270.6 93.8778 L 270.4 93.8778 L 270.3 93.7778 L 269 93.7778 L 269 99.7778 L 270.3 99.7778 L 270.4 99.6778 L 270.6 99.6778 L 270.7 99.7778 L 272 99.7778 L 272 106.222 L 270.7 106.222 L 270.6 106.322 L 270.4 106.322 L 270.3 106.222 L 269 106.222 L 269 112.222 L 270.3 112.222 L 270.4 112.122 L 270.6 112.122 L 270.7 112.222 L 272 112.222 L 272 118.667 L 270.7 118.667 L 270.6 118.767 L 270.4 118.767 L 270.3 118.667 L 269 118.667 L 269 124.667 L 270.3 124.667 L 270.4 124.567 L 270.6 124.567 L 270.7 124.667 L 272 124.667 L 272 131.111 L 270.7 131.111 L 270.6 131.211 L 270.4 131.211 L 270.3 131.111 L 269 131.111 L 269 137.111 L 270.3 137.111 L 270.4 137.011 L 270.6 137.011 L 270.7 137.111 L 272 137.111 L 272 143.556 L 270.7 143.556 L 270.6 143.656 L 270.4 143.656 L 270.3 143.556 L 269 143.556 L 269 149.556 L 270.3 149.556 L 270.4 149.456 L 270.6 149.456 L 270.7 149.556 L 272 149.556 L 272 156"/>
      <path id="hole_032" style="fill:none;stroke:#000000;stroke-width:0.0508" d="M 230.5 56.4444 L 230.5 62.4444 L 227.5 62.4444 L 227.5 56.4444 L 230.5 56.4444 Z"/>
      <path id="hole_033" style="fill:none;stroke:#000000;stroke-width:0.0508" d="M 230.5 68.8889 L 230.5 74.8889 L 227.5 74.8889 L 227.5 68.8889 L 230.5 68.8889 Z"/>
      <path id="hole_034" style="fill:none;stroke:#000000;stroke-width:0.0508" d="M 230.5 81.3333 L 230.5 87.3333 L 227.5 87.3333 L 227.5 81.3333 L 230.5 81.3333 Z"/>
      <path id="hole_035" style="fill:none;stroke:#000000;stroke-width:0.0508" d="M 230.5 93.7778 L 230.5 99.7778 L 227.5 99.7778 L 227.5 93.7778 L 230.5 93.7778 Z"/>
      <path id="hole_036" style="fill:none;stroke:#000000;stroke-width:0.0508" d="M 230.5 106.222 L 230.5 112.222 L 227.5 112.222 L 227.5 106.222 L 230.5 106.222 Z"/>
      <path id="hole_037" style="fill:none;stroke:#000000;stroke-width:0.0508" d="M 230.5 118.667 L 230.5 124.667 L 227.5 124.667 L 227.5 118.667 L 230.5 118.667 Z"/>
      <path id="hole_038" style="fill:none;stroke:#000000;stroke-width:0.0508" d="M 230.5 131.111 L 230.5 137.111 L 227.5 137.111 L 227.5 131.111 L 230.5 131.111 Z"/>
      <path id="hole_039" style="fill:none;stroke:#000000;stroke-width:0.0508" d="M 230.5 143.556 L 230.5 149.556 L 227.5 149.556 L 227.5 143.556 L 230.5 143.556 Z"/>
      <path id="side_027" style="fill:none;stroke:#000000;stroke-width:0.0508" d="M 272 156 L 264.857 156 L 264.857 154.7 L 264.757 154.6 L 264.757 154.4 L 264.857 154.3 L 264.857 153 L 258.857 153 L 258.857 154.3 L 258.957 154.4 L 258.957 154.6 L 258.857 154.7 L 258.857 156 L 251.714 156 L 251.714 154.7 L 251.614 154.6 L 251.614 154.4 L 251.714 154.3 L 251.714 153 L 245.714 153 L 245.714 154.3 L 245.814 154.4 L 245.814 154.6 L 245.714 154.7 L 245.714 156 L 238.571 156 L 238.571 154.7 L 238.471 154.6 L 238.471 154.4 L 238.571 154.3 L 238.571 153 L 232.571 153 L 232.571 154.3 L 232.671 154.4 L 232.671 154.6 L 232.571 154.7 L 232.571 156 L 225.429 156 L 225.429 154.7 L 225.329 154.6 L 225.329 154.4 L 225.429 154.3 L 225.429 153 L 219.429 153 L 219.429 154.3 L 219.529 154.4 L 219.529 154.6 L 219.429 154.7 L 219.429 156 L 212.286 156 L 212.286 154.7 L 212.186 154.6 L 212.186 154.4 L 212.286 154.3 L 212.286 153 L 206.286 153 L 206.286 154.3 L 206.386 154.4 L 206.386 154.6 L 206.286 154.7 L 206.286 156 L 199.143 156 L 199.143 154.7 L 199.043 154.6 L 199.043 154.4 L 199.143 154.3 L 199.143 153 L 193.143 153 L 193.143 154.3 L 193.243 154.4 L 193.243 154.6 L 193.143 154.7 L 193.143 156 L 186 156"/>
      <path id="side_028" style="fill:none;stroke:#000000;stroke-width:0.0508" d="M 186 156 L 186 149.556 L 187.3 149.556 L 187.4 149.456 L 187.6 149.456 L 187.7 149.556 L 189 149.556 L 189 143.556 L 187.7 143.556 L 187.6 143.656 L 187.4 143.656 L 187.3 143.556 L 186 143.556 L 186 137.111 L 187.3 137.111 L 187.4 137.011 L 187.6 137.011 L 187.7 137.111 L 189 137.111 L 189 131.111 L 187.7 131.111 L 187.6 131.211 L 187.4 131.211 L 187.3 131.111 L 186 131.111 L 186 124.667 L 187.3 124.667 L 187.4 124.567 L 187.6 124.567 L 187.7 124.667 L 189 124.667 L 189 118.667 L 187.7 118.667 L 187.6 118.767 L 187.4 118.767 L 187.3 118.667 L 186 118.667 L 186 112.222 L 187.3 112.222 L 187.4 112.122 L 187.6 112.122 L 187.7 112.222 L 189 112.222 L 189 106.222 L 187.7 106.222 L 187.6 106.322 L 187.4 106.322 L 187.3 106.222 L 186 106.222 L 186 99.7778 L 187.3 99.7778 L 187.4 99.6778 L 187.6 99.6778 L 187.7 99.7778 L 189 99.7778 L 189 93.7778 L 187.7 93.7778 L 187.6 93.8778 L 187.4 93.8778 L 187.3 93.7778 L 186 93.7778 L 186 87.3333 L 187.3 87.3333 L 187.4 87.2333 L 187.6 87.2333 L 187.7 87.3333 L 189 87.3333 L 189 81.3333 L 187.7 81.3333 L 187.6 81.4333 L 187.4 81.4333 L 187.3 81.3333 L 186 81.3333 L 186 74.8889 L 187.3 74.8889 L 187.4 74.7889 L 187.6 74.7889 L 187.7 74.8889 L 189 74.8889 L 189 68.8889 L 187.7 68.8889 L 187.6 68.9889 L 187.4 68.9889 L 187.3 68.8889 L 186 68.8889 L 186 62.4444 L 187.3 62.4444 L 187.4 62.3444 L 187.6 62.3444 L 187.7 62.4444 L 189 62.4444 L 189 56.4444 L 187.7 56.4444 L 187.6 56.5444 L 187.4 56.5444 L 187.3 56.4444 L 186 56.4444 L 186 50"/>
    </g>
    <g id="piece_006">
      <path id="side_029" style="fill:none;stroke:#000000;stroke-width:0.0508" d="M 50 5 L 57.1429 5 L 57.1429 3.7 L 57.0429 3.6 L 57.0429 3.4 L 57.1429 3.3 L 57.1429 2 L 63.1429 2 L 63.1429 3.3 L 63.2429 3.4 L 63.2429 3.6 L 63.1429 3.7 L 63.1429 5 L 70.2857 5 L 70.2857 3.7 L 70.1857 3.6 L 70.1857 3.4 L 70.2857 3.3 L 70.2857 2 L 76.2857 2 L 76.2857 3.3 L 76.3857 3.4 L 76.3857 3.6 L 76.2857 3.7 L 76.2857 5 L 83.4286 5 L 83.4286 3.7 L 83.3286 3.6 L 83.3286 3.4 L 83.4286 3.3 L 83.4286 2 L 89.4286 2 L 89.4286 3.3 L 89.5286 3.4 L 89.5286 3.6 L 89.4286 3.7 L 89.4286 5 L 96.5714 5 L 96.5714 3.7 L 96.4714 3.6 L 96.4714 3.4 L 96.5714 3.3 L 96.5714 2 L 102.571 2 L 102.571 3.3 L 102.671 3.4 L 102.671 3.6 L 102.571 3.7 L 102.571 5 L 109.714 5 L 109.714 3.7 L 109.614 3.6 L 109.614 3.4 L 109.714 3.3 L 109.714 2 L 115.714 2 L 115.714 3.3 L 115.814 3.4 L 115.814 3.6 L 115.714 3.7 L 115.714 5 L 122.857 5 L 122.857 3.7 L 122.757 3.6 L 122.757 3.4 L 122.857 3.3 L 122.857 2 L 128.857 2 L 128.857 3.3 L 128.957 3.4 L 128.957 3.6 L 128.857 3.7 L 128.857 5 L 136 5"/>
      <path id="side_030" style="fill:none;stroke:#000000;stroke-width:0.0508" d="M 136 5 L 136 9 L 134.7 9 L 134.6 9.1 L 134.4 9.1 L 134.3 9 L 133 9 L 133 15 L 134.3 15 L 134.4 14.9 L 134.6 14.9 L 134.7 15 L 136 15 L 136 22 L 134.7 22 L 134.6 22.1 L 134.4 22.1 L 134.3 22 L 133 22 L 133 28 L 134.3 28 L 134.4 27.9 L 134.6 27.9 L 134.7 28 L 136 28 L 136 35 L 134.7 35 L 134.6 35.1 L 134.4 35.1 L 134.3 35 L 133 35 L 133 41 L 134.3 41 L 134.4 40.9 L 134.6 40.9 L 134.7 41 L 136 41 L 136 45"/>
      <path id="hole_040" style="fill:none;stroke:#000000;stroke-width:0.0508" d="M 94.5 9 L 94.5 15 L 91.5 15 L 91.5 9 L 94.5 9 Z"/>
      <path id="hole_041" style="fill:none;stroke:#000000;stroke-width:0.0508" d="M 94.5 22 L 94.5 28 L 91.5 28 L 91.5 22 L 94.5 22 Z"/>
      <path id="hole_042" style="fill:none;stroke:#000000;stroke-width:0.0508" d="M 94.5 35 L 94.5 41 L 91.5 41 L 91.5 35 L 94.5 35 Z"/>
      <path id="side_031" style="fill:none;stroke:#000000;stroke-width:0.0508" d="M 136 45 L 128.857 45 L 128.857 46.3 L 128.957 46.4 L 128.957 46.6 L 128.857 46.7 L 128.857 48 L 122.857 48 L 122.857 46.7 L 122.757 46.6 L 122.757 46.4 L 122.857 46.3 L 122.857 45 L 115.714 45 L 115.714 46.3 L 115.814 46.4 L 115.814 46.6 L 115.714 46.7 L 115.714 48 L 109.714 48 L 109.714 46.7 L 109.614 46.6 L 109.614 46.4 L 109.714 46.3 L 109.714 45 L 102.571 45 L 102.571 46.3 L 102.671 46.4 L 102.671 46.6 L 102.571 46.7 L 102.571 48 L 96.5714 48 L 96.5714 46.7 L 96.4714 46.6 L 96.4714 46.4 L 96.5714 46.3 L 96.5714 45 L 89.4286 45 L 89.4286 46.3 L 89.5286 46.4 L 89.5286 46.6 L 89.4286 46.7 L 89.4286 48 L 83.4286 48 L 83.4286 46.7 L 83.3286 46.6 L 83.3286 46.4 L 83.4286 46.3 L 83.4286 45 L 76.2857 45 L 76.2857 46.3 L 76.3857 46.4 L 76.3857 46.6 L 76.2857 46.7 L 76.2857 48 L 70.2857 48 L 70.2857 46.7 L 70.1857 46.6 L 70.1857 46.4 L 70.2857 46.3 L 70.2857 45 L 63.1429 45 L 63.1429 46.3 L 63.2429 46.4 L 63.2429 46.6 L 63.1429 46.7 L 63.1429 48 L 57.1429 48 L 57.1429 46.7 L 57.0429 46.6 L 57.0429 46.4 L 57.1429 46.3 L 57.1429 45 L 50 45"/>
      <path id="side_032" style="fill:none;stroke:#000000;stroke-width:0.0508" d="M 50 45 L 50 41 L 51.3 41 L 51.4 40.9 L 51.6 40.9 L 51.7 41 L 53 41 L 53 35 L 51.7 35 L 51.6 35.1 L 51.4 35.1 L 51.3 35 L 50 35 L 50 28 L 51.3 28 L 51.4 27.9 L 51.6 27.9 L 51.7 28 L 53 28 L 53 22 L 51.7 22 L 51.6 22.1 L 51.4 22.1 L 51.3 22 L 50 22 L 50 15 L 51.3 15 L 51.4 14.9 L 51.6 14.9 L 51.7 15 L 53 15 L 53 9 L 51.7 9 L 51.6 9.1 L 51.4 9.1 L 51.3 9 L 50 9 L 50 5"/>
    </g>
  </g>
</svg>