<!-- Created with Inkscape (http://www.inkscape.org/) -->
<svg xmlns:inkscape="http://www.inkscape.org/namespaces/inkscape" xmlns:sodipodi="http://sodipodi.sourceforge.net/DTD/sodipodi-0.dtd" xmlns="http://www.w3.org/2000/svg" xmlns:svg="http://www.w3.org/2000/svg" width="417mm" height="301mm" viewBox="0 0 417 301" version="1.1" id="svg5" inkscape:version="1.1.2 (0a00cf5339, 2022-02-04)" sodipodi:docname="blank.svg">
  <sodipodi:namedview id="namedview7" pagecolor="#ffffff" bordercolor="#666666" borderopacity="1.0" inkscape:pageshadow="2" inkscape:pageopacity="0.0" inkscape:pagecheckerboard="0" inkscape:document-units="mm" showgrid="false" inkscape:zoom="0.64052329" inkscape:cx="397.33138" inkscape:cy="561.25984" inkscape:window-width="2086" inkscape:window-height="1376" inkscape:window-x="0" inkscape:window-y="0" inkscape:window-maximized="1" inkscape:current-layer="layer1"/>
  <defs id="defs2"/>
  <g inkscape:label="Layer 1" inkscape:groupmode="layer" id="layer1">
    <metadata text="createArgs=['--unit=mm', '--inside=1', '--length=80', '--width=100', '--depth=40', '--equal=0', '--tab=6', '--tabtype=0', '--tabsymmetry=0', '--dimpleheight=0', '--dimplelength=0', '--hairline=1', '--thickness=3', '--kerf=0', '--style=1', '--boxtype=1', '--keydiv=0', '--spacing=2', '--div_l=2', '--div_w=3']"/>
    <g id="piece_001">
      <path id="side_001" style="fill:none;stroke:#000000;stroke-width:0.0508" d="M 50 161 L 57.1429 161 L 57.1429 158 L 63.1429 158 L 63.1429 161 L 70.2857 161 L 70.2857 158 L 76.2857 158 L 76.2857 161 L 83.4286 161 L 83.4286 158 L 89.4286 158 L 89.4286 161 L 96.5714 161 L 96.5714 158 L 102.571 158 L 102.571 161 L 109.714 161 L 109.714 158 L 115.714 158 L 115.714 161 L 122.857 161 L 122.857 158 L 128.857 158 L 128.857 161 L 136 161"/>
      <path id="side_002" style="fill:none;stroke:#000000;stroke-width:0.0508" d="M 136 161 L 136 165 L 133 165 L 133 171 L 136 171 L 136 178 L 133 178 L 133 184 L 136 184 L 136 191 L 133 191 L 133 197 L 136 197 L 136 201"/>
      <path id="hole_001" style="fill:none;stroke:#000000;stroke-width:0.0508" d="M 112.25 165 L 112.25 171 L 115.25 171 L 115.25 165 L 112.25 165 Z"/>
      <path id="hole_002" style="fill:none;stroke:#000000;stroke-width:0.0508" d="M 91.5 165 L 91.5 171 L 94.5 171 L 94.5 165 L 91.5 165 Z"/>
      <path id="hole_003" style="fill:none;stroke:#000000;stroke-width:0.0508" d="M 70.75 165 L 70.75 171 L 73.75 171 L 73.75 165 L 70.75 165 Z"/>
      <path id="hole_004" style="fill:none;stroke:#000000;stroke-width:0.0508" d="M 112.25 178 L 112.25 184 L 115.25 184 L 115.25 178 L 112.25 178 Z"/>
      <path id="hole_005" style="fill:none;stroke:#000000;stroke-width:0.0508" d="M 91.5 178 L 91.5 184 L 94.5 184 L 94.5 178 L 91.5 178 Z"/>
      <path id="hole_006" style="fill:none;stroke:#000000;stroke-width:0.0508" d="M 70.75 178 L 70.75 184 L 73.75 184 L 73.75 178 L 70.75 178 Z"/>
      <path id="hole_007" style="fill:none;stroke:#000000;stroke-width:0.0508" d="M 112.25 191 L 112.25 197 L 115.25 197 L 115.25 191 L 112.25 191 Z"/>
      <path id="hole_008" style="fill:none;stroke:#000000;stroke-width:0.0508" d="M 91.5 191 L 91.5 197 L 94.5 197 L 94.5 191 L 91.5 191 Z"/>
      <path id="hole_009" style="fill:none;stroke:#000000;stroke-width:0.0508" d="M 70.75 191 L 70.75 197 L 73.75 197 L 73.75 191 L 70.75 191 Z"/>
      <path id="side_003" style="fill:none;stroke:#000000;stroke-width:0.0508" d="M 136 201 L 128.857 201 L 128.857 204 L 122.857 204 L 122.857 201 L 115.714 201 L 115.714 204 L 109.714 204 L 109.714 201 L 102.571 201 L 102.571 204 L 96.5714 204 L 96.5714 201 L 89.4286 201 L 89.4286 204 L 83.4286 204 L 83.4286 201 L 76.2857 201 L 76.2857 204 L 70.2857 204 L 70.2857 201 L 63.1429 201 L 63.1429 204 L 57.1429 204 L 57.1429 201 L 50 201"/>
      <path id="side_004" style="fill:none;stroke:#000000;stroke-width:0.0508" d="M 50 201 L 50 197 L 53 197 L 53 191 L 50 191 L 50 184 L 53 184 L 53 178 L 50 178 L 50 171 L 53 171 L 53 165 L 50 165 L 50 161"/>
    </g>
    <g id="xdivider_001">
      <path id="side_005" style="fill:none;stroke:#000000;stroke-width:0.0508" d="M 50 209 L 57.1429 209 L 57.1429 206 L 63.1429 206 L 63.1429 209 L 70.2857 209 L 70.2857 206 L 76.2857 206 L 76.2857 209 L 83.4286 209 L 83.4286 206 L 89.4286 206 L 89.4286 209 L 96.5714 209 L 96.5714 206 L 102.571 206 L 102.571 209 L 109.714 209 L 109.714 206 L 115.714 206 L 115.714 209 L 122.857 209 L 122.857 206 L 128.857 206 L 128.857 209 L 136 209"/>
      <path id="side_006" style="fill:none;stroke:#000000;stroke-width:0.0508" d="M 136 209 L 136 213 L 133 213 L 133 219 L 136 219 L 136 226 L 133 226 L 133 232 L 136 232 L 136 239 L 133 239 L 133 245 L 136 245 L 136 249"/>
      <path id="slot_001" style="fill:none;stroke:#000000;stroke-width:0.0508" d="M 115.25 206 L 115.25 229 L 112.25 229 L 112.25 206 L 115.25 206 Z"/>
      <path id="slot_002" style="fill:none;stroke:#000000;stroke-width:0.0508" d="M 94.5 206 L 94.5 229 L 91.5 229 L 91.5 206 L 94.5 206 Z"/>
      <path id="slot_003" style="fill:none;stroke:#000000;stroke-width:0.0508" d="M 73.75 206 L 73.75 229 L 70.75 229 L 70.75 206 L 73.75 206 Z"/>
      <path id="side_007" style="fill:none;stroke:#000000;stroke-width:0.0508" d="M 136 249 L 128.857 249 L 128.857 252 L 122.857 252 L 122.857 249 L 115.714 249 L 115.714 252 L 109.714 252 L 109.714 249 L 102.571 249 L 102.571 252 L 96.5714 252 L 96.5714 249 L 89.4286 249 L 89.4286 252 L 83.4286 252 L 83.4286 249 L 76.2857 249 L 76.2857 252 L 70.2857 252 L 70.2857 249 L 63.1429 249 L 63.1429 252 L 57.1429 252 L 57.1429 249 L 50 249"/>
      <path id="side_008" style="fill:none;stroke:#000000;stroke-width:0.0508" d="M 50 249 L 50 245 L 53 245 L 53 239 L 50 239 L 50 232 L 53 232 L 53 226 L 50 226 L 50 219 L 53 219 L 53 213 L 50 213 L 50 209"/>
    </g>
    <g id="xdivider_002">
      <path id="side_009" style="fill:none;stroke:#000000;stroke-width:0.0508" d="M 50 257 L 57.1429 257 L 57.1429 254 L 63.1429 254 L 63.1429 257 L 70.2857 257 L 70.2857 254 L 76.2857 254 L 76.2857 257 L 83.4286 257 L 83.4286 254 L 89.4286 254 L 89.4286 257 L 96.5714 257 L 96.5714 254 L 102.571 254 L 102.571 257 L 109.714 257 L 109.714 254 L 115.714 254 L 115.714 257 L 122.857 257 L 122.857 254 L 128.857 254 L 128.857 257 L 136 257"/>
      <path id="side_010" style="fill:none;stroke:#000000;stroke-width:0.0508" d="M 136 257 L 136 261 L 133 261 L 133 267 L 136 267 L 136 274 L 133 274 L 133 280 L 136 280 L 136 287 L 133 287 L 133 293 L 136 293 L 136 297"/>
      <path id="slot_004" style="fill:none;stroke:#000000;stroke-width:0.0508" d="M 115.25 254 L 115.25 277 L 112.25 277 L 112.25 254 L 115.25 254 Z"/>
      <path id="slot_005" style="fill:none;stroke:#000000;stroke-width:0.0508" d="M 94.5 254 L 94.5 277 L 91.5 277 L 91.5 254 L 94.5 254 Z"/>
      <path id="slot_006" style="fill:none;stroke:#000000;stroke-width:0.0508" d="M 73.75 254 L 73.75 277 L 70.75 277 L 70.75 254 L 73.75 254 Z"/>
      <path id="side_011" style="fill:none;stroke:#000000;stroke-width:0.0508" d="M 136 297 L 128.857 297 L 128.857 300 L 122.857 300 L 122.857 297 L 115.714 297 L 115.714 300 L 109.714 300 L 109.714 297 L 102.571 297 L 102.571 300 L 96.5714 300 L 96.5714 297 L 89.4286 297 L 89.4286 300 L 83.4286 300 L 83.4286 297 L 76.2857 297 L 76.2857 300 L 70.2857 300 L 70.2857 297 L 63.1429 297 L 63.1429 300 L 57.1429 300 L 57.1429 297 L 50 297"/>
      <path id="side_012" style="fill:none;stroke:#000000;stroke-width:0.0508" d="M 50 297 L 50 293 L 53 293 L 53 287 L 50 287 L 50 280 L 53 280 L 53 274 L 50 274 L 50 267 L 53 267 L 53 261 L 50 261 L 50 257"/>
    </g>
    <g id="piece_002">
      <path id="side_013" style="fill:none;stroke:#000000;stroke-width:0.0508" d="M 5 53 L 9 53 L 9 50 L 15 50 L 15 53 L 22 53 L 22 50 L 28 50 L 28 53 L 35 53 L 35 50 L 41 50 L 41 53 L 45 53"/>
      <path id="hole_010" style="fill:none;stroke:#000000;stroke-width:0.0508" d="M 5 84.3333 L 9 84.3333 L 9 87.3333 L 5 87.3333 L 5 84.3333 Z"/>
      <path id="hole_011" style="fill:none;stroke:#000000;stroke-width:0.0508" d="M 5 118.667 L 9 118.667 L 9 121.667 L 5 121.667 L 5 118.667 Z"/>
      <path id="hole_012" style="fill:none;stroke:#000000;stroke-width:0.0508" d="M 15 84.3333 L 22 84.3333 L 22 87.3333 L 15 87.3333 L 15 84.3333 Z"/>
      <path id="hole_013" style="fill:none;stroke:#000000;stroke-width:0.0508" d="M 15 118.667 L 22 118.667 L 22 121.667 L 15 121.667 L 15 118.667 Z"/>
      <path id="hole_014" style="fill:none;stroke:#000000;stroke-width:0.0508" d="M 28 84.3333 L 35 84.3333 L 35 87.3333 L 28 87.3333 L 28 84.3333 Z"/>
      <path id="hole_015" style="fill:none;stroke:#000000;stroke-width:0.0508" d="M 28 118.667 L 35 118.667 L 35 121.667 L 28 121.667 L 28 118.667 Z"/>
      <path id="hole_016" style="fill:none;stroke:#000000;stroke-width:0.0508" d="M 41 84.3333 L 45 84.3333 L 45 87.3333 L 41 87.3333 L 41 84.3333 Z"/>
      <path id="hole_017" style="fill:none;stroke:#000000;stroke-width:0.0508" d="M 41 118.667 L 45 118.667 L 45 121.667 L 41 121.667 L 41 118.667 Z"/>
      <path id="side_014" style="fill:none;stroke:#000000;stroke-width:0.0508" d="M 45 53 L 45 56.4444 L 48 56.4444 L 48 62.4444 L 45 62.4444 L 45 68.8889 L 48 68.8889 L 48 74.8889 L 45 74.8889 L 45 81.3333 L 48 81.3333 L 48 87.3333 L 45 87.3333 L 45 93.7778 L 48 93.7778 L 48 99.7778 L 45 99.7778 L 45 106.222 L 48 106.222 L 48 112.222 L 45 112.222 L 45 118.667 L 48 118.667 L 48 124.667 L 45 124.667 L 45 131.111 L 48 131.111 L 48 137.111 L 45 137.111 L 45 143.556 L 48 143.556 L 48 149.556 L 45 149.556 L 45 153"/>
      <path id="side_015" style="fill:none;stroke:#000000;stroke-width:0.0508" d="M 45 153 L 41 153 L 41 156 L 35 156 L 35 153 L 28 153 L 28 156 L 22 156 L 22 153 L 15 153 L 15 156 L 9 156 L 9 153 L 5 153"/>
      <path id="side_016" style="fill:none;stroke:#000000;stroke-width:0.0508" d="M 5 153 L 5 149.556 L 2 149.556 L 2 143.556 L 5 143.556 L 5 137.111 L 2 137.111 L 2 131.111 L 5 131.111 L 5 124.667 L 2 124.667 L 2 118.667 L 5 118.667 L 5 112.222 L 2 112.222 L 2 106.222 L 5 106.222 L 5 99.7778 L 2 99.7778 L 2 93.7778 L 5 93.7778 L 5 87.3333 L 2 87.3333 L 2 81.3333 L 5 81.3333 L 5 74.8889 L 2 74.8889 L 2 68.8889 L 5 68.8889 L 5 62.4444 L 2 62.4444 L 2 56.4444 L 5 56.4444 L 5 53"/>
    </g>
    <g id="ydivider_001">
      <path id="side_017" style="fill:none;stroke:#000000;stroke-width:0.0508" d="M 277 53 L 281 53 L 281 50 L 287 50 L 287 53 L 294 53 L 294 50 L 300 50 L 300 53 L 307 53 L 307 50 L 313 50 L 313 53 L 317 53"/>
      <path id="slot_007" style="fill:none;stroke:#000000;stroke-width:0.0508" d="M 274 84.3333 L 297 84.3333 L 297 87.3333 L 274 87.3333 L 274 84.3333 Z"/>
      <path id="slot_008" style="fill:none;stroke:#000000;stroke-width:0.0508" d="M 274 118.667 L 297 118.667 L 297 121.667 L 274 121.667 L 274 118.667 Z"/>
      <path id="side_018" style="fill:none;stroke:#000000;stroke-width:0.0508" d="M 317 53 L 317 56.4444 L 320 56.4444 L 320 62.4444 L 317 62.4444 L 317 68.8889 L 320 68.8889 L 320 74.8889 L 317 74.8889 L 317 81.3333 L 320 81.3333 L 320 87.3333 L 317 87.3333 L 317 93.7778 L 320 93.7778 L 320 99.7778 L 317 99.7778 L 317 106.222 L 320 106.222 L 320 112.222 L 317 112.222 L 317 118.667 L 320 118.667 L 320 124.667 L 317 124.667 L 317 131.111 L 320 131.111 L 320 137.111 L 317 137.111 L 317 143.556 L 320 143.556 L 320 149.556 L 317 149.556 L 317 153"/>
      <path id="side_019" style="fill:none;stroke:#000000;stroke-width:0.0508" d="M 317 153 L 313 153 L 313 156 L 307 156 L 307 153 L 300 153 L 300 156 L 294 156 L 294 153 L 287 153 L 287 156 L 281 156 L 281 153 L 277 153"/>
      <path id="side_020" style="fill:none;stroke:#000000;stroke-width:0.0508" d="M 277 153 L 277 149.556 L 274 149.556 L 274 143.556 L 277 143.556 L 277 137.111 L 274 137.111 L 274 131.111 L 277 131.111 L 277 124.667 L 274 124.667 L 274 118.667 L 277 118.667 L 277 112.222 L 274 112.222 L 274 106.222 L 277 106.222 L 277 99.7778 L 274 99.7778 L 274 93.7778 L 277 93.7778 L 277 87.3333 L 274 87.3333 L 274 81.3333 L 277 81.3333 L 277 74.8889 L 274 74.8889 L 274 68.8889 L 277 68.8889 L 277 62.4444 L 274 62.4444 L 274 56.4444 L 277 56.4444 L 277 53"/>
    </g>
    <g id="ydivider_002">
      <path id="side_021" style="fill:none;stroke:#000000;stroke-width:0.0508" d="M 325 53 L 329 53 L 329 50 L 335 50 L 335 53 L 342 53 L 342 50 L 348 50 L 348 53 L 355 53 L 355 50 L 361 50 L 361 53 L 365 53"/>
      <path id="slot_009" style="fill:none;stroke:#000000;stroke-width:0.0508" d="M 322 84.3333 L 345 84.3333 L 345 87.3333 L 322 87.3333 L 322 84.3333 Z"/>
      <path id="slot_010" style="fill:none;stroke:#000000;stroke-width:0.0508" d="M 322 118.667 L 345 118.667 L 345 121.667 L 322 121.667 L 322 118.667 Z"/>
      <path id="side_022" style="fill:none;stroke:#000000;stroke-width:0.0508" d="M 365 53 L 365 56.4444 L 368 56.4444 L 368 62.4444 L 365 62.4444 L 365 68.8889 L 368 68.8889 L 368 74.8889 L 365 74.8889 L 365 81.3333 L 368 81.3333 L 368 87.3333 L 365 87.3333 L 365 93.7778 L 368 93.7778 L 368 99.7778 L 365 99.7778 L 365 106.222 L 368 106.222 L 368 112.222 L 365 112.222 L 365 118.667 L 368 118.667 L 368 124.667 L 365 124.667 L 365 131.111 L 368 131.111 L 368 137.111 L 365 137.111 L 365 143.556 L 368 143.556 L 368 149.556 L 365 149.556 L 365 153"/>
      <path id="side_023" style="fill:none;stroke:#000000;stroke-width:0.0508" d="M 365 153 L 361 153 L 361 156 L 355 156 L 355 153 L 348 153 L 348 156 L 342 156 L 342 153 L 335 153 L 335 156 L 329 156 L 329 153 L 325 153"/>
      <path id="side_024" style="fill:none;stroke:#000000;stroke-width:0.0508" d="M 325 153 L 325 149.556 L 322 149.556 L 322 143.556 L 325 143.556 L 325 137.111 L 322 137.111 L 322 131.111 L 325 131.111 L 325 124.667 L 322 124.667 L 322 118.667 L 325 118.667 L 325 112.222 L 322 112.222 L 322 106.222 L 325 106.222 L 325 99.7778 L 322 99.7778 L 322 93.7778 L 325 93.7778 L 325 87.3333 L 322 87.3333 L 322 81.3333 L 325 81.3333 L 325 74.8889 L 322 74.8889 L 322 68.8889 L 325 68.8889 L 325 62.4444 L 322 62.4444 L 322 56.4444 L 325 56.4444 L 325 53"/>
    </g>
    <g id="ydivider_003">
      <path id="side_025" style="fill:none;stroke:#000000;stroke-width:0.0508" d="M 373 53 L 377 53 L 377 50 L 383 50 L 383 53 L 390 53 L 390 50 L 396 50 L 396 53 L 403 53 L 403 50 L 409 50 L 409 53 L 413 53"/>
      <path id="slot_011" style="fill:none;stroke:#000000;stroke-width:0.0508" d="M 370 84.3333 L 393 84.3333 L 393 87.3333 L 370 87.3333 L 370 84.3333 Z"/>
      <path id="slot_012" style="fill:none;stroke:#000000;stroke-width:0.0508" d="M 370 118.667 L 393 118.667 L 393 121.667 L 370 121.667 L 370 118.667 Z"/>
      <path id="side_026" style="fill:none;stroke:#000000;stroke-width:0.0508" d="M 413 53 L 413 56.4444 L 416 56.4444 L 416 62.4444 L 413 62.4444 L 413 68.8889 L 416 68.8889 L 416 74.8889 L 413 74.8889 L 413 81.3333 L 416 81.3333 L 416 87.3333 L 413 87.3333 L 413 93.7778 L 416 93.7778 L 416 99.7778 L 413 99.7778 L 413 106.222 L 416 106.222 L 416 112.222 L 413 112.222 L 413 118.667 L 416 118.667 L 416 124.667 L 413 124.667 L 413 131.111 L 416 131.111 L 416 137.111 L 413 137.111 L 413 143.556 L 416 143.556 L 416 149.556 L 413 149.556 L 413 153"/>
      <path id="side_027" style="fill:none;stroke:#000000;stroke-width:0.0508" d="M 413 153 L 409 153 L 409 156 L 403 156 L 403 153 L 396 153 L 396 156 L 390 156 L 390 153 L 383 153 L 383 156 L 377 156 L 377 153 L 373 153"/>
      <path id="side_028" style="fill:none;stroke:#000000;stroke-width:0.0508" d="M 373 153 L 373 149.556 L 370 149.556 L 370 143.556 L 373 143.556 L 373 137.111 L 370 137.111 L 370 131.111 L 373 131.111 L 373 124.667 L 370 124.667 L 370 118.667 L 373 118.667 L 373 112.222 L 370 112.222 L 370 106.222 L 373 106.222 L 373 99.7778 L 370 99.7778 L 370 93.7778 L 373 93.7778 L 373 87.3333 L 370 87.3333 L 370 81.3333 L 373 81.3333 L 373 74.8889 L 370 74.8889 L 370 68.8889 L 373 68.8889 L 373 62.4444 L 370 62.4444 L 370 56.4444 L 373 56.4444 L 373 53"/>
    </g>
    <g id="piece_003">
      <path id="side_029" style="fill:none;stroke:#000000;stroke-width:0.0508" d="M 50 50 L 57.1429 50 L 57.1429 53 L 63.1429 53 L 63.1429 50 L 70.2857 50 L 70.2857 53 L 76.2857 53 L 76.2857 50 L 83.4286 50 L 83.4286 53 L 89.4286 53 L 89.4286 50 L 96.5714 50 L 96.5714 53 L 102.571 53 L 102.571 50 L 109.714 50 L 109.714 53 L 115.714 53 L 115.714 50 L 122.857 50 L 122.857 53 L 128.857 53 L 128.857 50 L 136 50"/>
      <path id="hole_018" style="fill:none;stroke:#000000;stroke-width:0.0508" d="M 57.1429 87.3333 L 63.1429 87.3333 L 63.1429 84.3333 L 57.1429 84.3333 L 57.1429 87.3333 Z"/>
      <path id="hole_019" style="fill:none;stroke:#000000;stroke-width:0.0508" d="M 57.1429 121.667 L 63.1429 121.667 L 63.1429 118.667 L 57.1429 118.667 L 57.1429 121.667 Z"/>
      <path id="hole_020" style="fill:none;stroke:#000000;stroke-width:0.0508" d="M 70.2857 87.3333 L 76.2857 87.3333 L 76.2857 84.3333 L 70.2857 84.3333 L 70.2857 87.3333 Z"/>
      <path id="hole_021" style="fill:none;stroke:#000000;stroke-width:0.0508" d="M 70.2857 121.667 L 76.2857 121.667 L 76.2857 118.667 L 70.2857 118.667 L 70.2857 121.667 Z"/>
      <path id="hole_022" style="fill:none;stroke:#000000;stroke-width:0.0508" d="M 83.4286 87.3333 L 89.4286 87.3333 L 89.4286 84.3333 L 83.4286 84.3333 L 83.4286 87.3333 Z"/>
      <path id="hole_023" style="fill:none;stroke:#000000;stroke-width:0.0508" d="M 83.4286 121.667 L 89.4286 121.667 L 89.4286 118.667 L 83.4286 118.667 L 83.4286 121.667 Z"/>
      <path id="hole_024" style="fill:none;stroke:#000000;stroke-width:0.0508" d="M 96.5714 87.3333 L 102.571 87.3333 L 102.571 84.3333 L 96.5714 84.3333 L 96.5714 87.3333 Z"/>
      <path id="hole_025" style="fill:none;stroke:#000000;stroke-width:0.0508" d="M 96.5714 121.667 L 102.571 121.667 L 102.571 118.667 L 96.5714 118.667 L 96.5714 121.667 Z"/>
      <path id="hole_026" style="fill:none;stroke:#000000;stroke-width:0.0508" d="M 109.714 87.3333 L 115.714 87.3333 L 115.714 84.3333 L 109.714 84.3333 L 109.714 87.3333 Z"/>
      <path id="hole_027" style="fill:none;stroke:#000000;stroke-width:0.0508" d="M 109.714 121.667 L 115.714 121.667 L 115.714 118.667 L 109.714 118.667 L 109.714 121.667 Z"/>
      <path id="hole_028" style="fill:none;stroke:#000000;stroke-width:0.0508" d="M 122.857 87.3333 L 128.857 87.3333 L 128.857 84.3333 L 122.857 84.3333 L 122.857 87.3333 Z"/>
      <path id="hole_029" style="fill:none;stroke:#000000;stroke-width:0.0508" d="M 122.857 121.667 L 128.857 121.667 L 128.857 118.667 L 122.857 118.667 L 122.857 121.667 Z"/>
      <path id="side_030" style="fill:none;stroke:#000000;stroke-width:0.0508" d="M 136 50 L 136 56.4444 L 133 56.4444 L 133 62.4444 L 136 62.4444 L 136 68.8889 L 133 68.8889 L 133 74.8889 L 136 74.8889 L 136 81.3333 L 133 81.3333 L 133 87.3333 L 136 87.3333 L 136 93.7778 L 133 93.7778 L 133 99.7778 L 136 99.7778 L 136 106.222 L 133 106.222 L 133 112.222 L 136 112.222 L 136 118.667 L 133 118.667 L 133 124.667 L 136 124.667 L 136 131.111 L 133 131.111 L 133 137.111 L 136 137.111 L 136 143.556 L 133 143.556 L 133 149.556 L 136 149.556 L 136 156"/>
      <path id="hole_030" style="fill:none;stroke:#000000;stroke-width:0.0508" d="M 112.25 56.4444 L 112.25 62.4444 L 115.25 62.4444 L 115.25 56.4444 L 112.25 56.4444 Z"/>
      <path id="hole_031" style="fill:none;stroke:#000000;stroke-width:0.0508" d="M 91.5 56.4444 L 91.5 62.4444 L 94.5 62.4444 L 94.5 56.4444 L 91.5 56.4444 Z"/>
      <path id="hole_032" style="fill:none;stroke:#000000;stroke-width:0.0508" d="M 70.75 56.4444 L 70.75 62.4444 L 73.75 62.4444 L 73.75 56.4444 L 70.75 56.4444 Z"/>
      <path id="hole_033" style="fill:none;stroke:#000000;stroke-width:0.0508" d="M 112.25 68.8889 L 112.25 74.8889 L 115.25 74.8889 L 115.25 68.8889 L 112.25 68.8889 Z"/>
      <path id="hole_034" style="fill:none;stroke:#000000;stroke-width:0.0508" d="M 91.5 68.8889 L 91.5 74.8889 L 94.5 74.8889 L 94.5 68.8889 L 91.5 68.8889 Z"/>
      <path id="hole_035" style="fill:none;stroke:#000000;stroke-width:0.0508" d="M 70.75 68.8889 L 70.75 74.8889 L 73.75 74.8889 L 73.75 68.8889 L 70.75 68.8889 Z"/>
      <path id="hole_036" style="fill:none;stroke:#000000;stroke-width:0.0508" d="M 112.25 81.3333 L 112.25 87.3333 L 115.25 87.3333 L 115.25 81.3333 L 112.25 81.3333 Z"/>
      <path id="hole_037" style="fill:none;stroke:#000000;stroke-width:0.0508" d="M 91.5 81.3333 L 91.5 87.3333 L 94.5 87.3333 L 94.5 81.3333 L 91.5 81.3333 Z"/>
      <path id="hole_038" style="fill:none;stroke:#000000;stroke-width:0.0508" d="M 70.75 81.3333 L 70.75 87.3333 L 73.75 87.3333 L 73.75 81.3333 L 70.75 81.3333 Z"/>
      <path id="hole_039" style="fill:none;stroke:#000000;stroke-width:0.0508" d="M 112.25 93.7778 L 112.25 99.7778 L 115.25 99.7778 L 115.25 93.7778 L 112.25 93.7778 Z"/>
      <path id="hole_040" style="fill:none;stroke:#000000;stroke-width:0.0508" d="M 91.5 93.7778 L 91.5 99.7778 L 94.5 99.7778 L 94.5 93.7778 L 91.5 93.7778 Z"/>
      <path id="hole_041" style="fill:none;stroke:#000000;stroke-width:0.0508" d="M 70.75 93.7778 L 70.75 99.7778 L 73.75 99.7778 L 73.75 93.7778 L 70.75 93.7778 Z"/>
      <path id="hole_042" style="fill:none;stroke:#000000;stroke-width:0.0508" d="M 112.25 106.222 L 112.25 112.222 L 115.25 112.222 L 115.25 106.222 L 112.25 106.222 Z"/>
      <path id="hole_043" style="fill:none;stroke:#000000;stroke-width:0.0508" d="M 91.5 106.222 L 91.5 112.222 L 94.5 112.222 L 94.5 106.222 L 91.5 106.222 Z"/>
      <path id="hole_044" style="fill:none;stroke:#000000;stroke-width:0.0508" d="M 70.75 106.222 L 70.75 112.222 L 73.75 112.222 L 73.75 106.222 L 70.75 106.222 Z"/>
      <path id="hole_045" style="fill:none;stroke:#000000;stroke-width:0.0508" d="M 112.25 118.667 L 112.25 124.667 L 115.25 124.667 L 115.25 118.667 L 112.25 118.667 Z"/>
      <path id="hole_046" style="fill:none;stroke:#000000;stroke-width:0.0508" d="M 91.5 118.667 L 91.5 124.667 L 94.5 124.667 L 94.5 118.667 L 91.5 118.667 Z"/>
      <path id="hole_047" style="fill:none;stroke:#000000;stroke-width:0.0508" d="M 70.75 118.667 L 70.75 124.667 L 73.75 124.667 L 73.75 118.667 L 70.75 118.667 Z"/>
      <path id="hole_048" style="fill:none;stroke:#000000;stroke-width:0.0508" d="M 112.25 131.111 L 112.25 137.111 L 115.25 137.111 L 115.25 131.111 L 112.25 131.111 Z"/>
      <path id="hole_049" style="fill:none;stroke:#000000;stroke-width:0.0508" d="M 91.5 131.111 L 91.5 137.111 L 94.5 137.111 L 94.5 131.111 L 91.5 131.111 Z"/>
      <path id="hole_050" style="fill:none;stroke:#000000;stroke-width:0.0508" d="M 70.75 131.111 L 70.75 137.111 L 73.75 137.111 L 73.75 131.111 L 70.75 131.111 Z"/>
      <path id="hole_051" style="fill:none;stroke:#000000;stroke-width:0.0508" d="M 112.25 143.556 L 112.25 149.556 L 115.25 149.556 L 115.25 143.556 L 112.25 143.556 Z"/>
      <path id="hole_052" style="fill:none;stroke:#000000;stroke-width:0.0508" d="M 91.5 143.556 L 91.5 149.556 L 94.5 149.556 L 94.5 143.556 L 91.5 143.556 Z"/>
      <path id="hole_053" style="fill:none;stroke:#000000;stroke-width:0.0508" d="M 70.75 143.556 L 70.75 149.556 L 73.75 149.556 L 73.75 143.556 L 70.75 143.556 Z"/>
      <path id="side_031" style="fill:none;stroke:#000000;stroke-width:0.0508" d="M 136 156 L 128.857 156 L 128.857 153 L 122.857 153 L 122.857 156 L 115.714 156 L 115.714 153 L 109.714 153 L 109.714 156 L 102.571 156 L 102.571 153 L 96.5714 153 L 96.5714 156 L 89.4286 156 L 89.4286 153 L 83.4286 153 L 83.4286 156 L 76.2857 156 L 76.2857 153 L 70.2857 153 L 70.2857 156 L 63.1429 156 L 63.1429 153 L 57.1429 153 L 57.1429 156 L 50 156"/>
      <path id="side_032" style="fill:none;stroke:#000000;stroke-width:0.0508" d="M 50 156 L 50 149.556 L 53 149.556 L 53 143.556 L 50 143.556 L 50 137.111 L 53 137.111 L 53 131.111 L 50 131.111 L 50 124.667 L 53 124.667 L 53 118.667 L 50 118.667 L 50 112.222 L 53 112.222 L 53 106.222 L 50 106.222 L 50 99.7778 L 53 99.7778 L 53 93.7778 L 50 93.7778 L 50 87.3333 L 53 87.3333 L 53 81.3333 L 50 81.3333 L 50 74.8889 L 53 74.8889 L 53 68.8889 L 50 68.8889 L 50 62.4444 L 53 62.4444 L 53 56.4444 L 50 56.4444 L 50 50"/>
    </g>
    <g id="piece_004">
      <path id="side_033" style="fill:none;stroke:#000000;stroke-width:0.0508" d="M 141 53 L 145 53 L 145 50 L 151 50 L 151 53 L 158 53 L 158 50 L 164 50 L 164 53 L 171 53 L 171 50 L 177 50 L 177 53 L 181 53"/>
      <path id="hole_054" style="fill:none;stroke:#000000;stroke-width:0.0508" d="M 141 84.3333 L 145 84.3333 L 145 87.3333 L 141 87.3333 L 141 84.3333 Z"/>
      <path id="hole_055" style="fill:none;stroke:#000000;stroke-width:0.0508" d="M 141 118.667 L 145 118.667 L 145 121.667 L 141 121.667 L 141 118.667 Z"/>
      <path id="hole_056" style="fill:none;stroke:#000000;stroke-width:0.0508" d="M 151 84.3333 L 158 84.3333 L 158 87.3333 L 151 87.3333 L 151 84.3333 Z"/>
      <path id="hole_057" style="fill:none;stroke:#000000;stroke-width:0.0508" d="M 151 118.667 L 158 118.667 L 158 121.667 L 151 121.667 L 151 118.667 Z"/>
      <path id="hole_058" style="fill:none;stroke:#000000;stroke-width:0.0508" d="M 164 84.3333 L 171 84.3333 L 171 87.3333 L 164 87.3333 L 164 84.3333 Z"/>
      <path id="hole_059" style="fill:none;stroke:#000000;stroke-width:0.0508" d="M 164 118.667 L 171 118.667 L 171 121.667 L 164 121.667 L 164 118.667 Z"/>
      <path id="hole_060" style="fill:none;stroke:#000000;stroke-width:0.0508" d="M 177 84.3333 L 181 84.3333 L 181 87.3333 L 177 87.3333 L 177 84.3333 Z"/>
      <path id="hole_061" style="fill:none;stroke:#000000;stroke-width:0.0508" d="M 177 118.667 L 181 118.667 L 181 121.667 L 177 121.667 L 177 118.667 Z"/>
      <path id="side_034" style="fill:none;stroke:#000000;stroke-width:0.0508" d="M 181 53 L 181 56.4444 L 184 56.4444 L 184 62.4444 L 181 62.4444 L 181 68.8889 L 184 68.8889 L 184 74.8889 L 181 74.8889 L 181 81.3333 L 184 81.3333 L 184 87.3333 L 181 87.3333 L 181 93.7778 L 184 93.7778 L 184 99.7778 L 181 99.7778 L 181 106.222 L 184 106.222 L 184 112.222 L 181 112.222 L 181 118.667 L 184 118.667 L 184 124.667 L 181 124.667 L 181 131.111 L 184 131.111 L 184 137.111 L 181 137.111 L 181 143.556 L 184 143.556 L 184 149.556 L 181 149.556 L 181 153"/>
      <path id="side_035" style="fill:none;stroke:#000000;stroke-width:0.0508" d="M 181 153 L 177 153 L 177 156 L 171 156 L 171 153 L 164 153 L 164 156 L 158 156 L 158 153 L 151 153 L 151 156 L 145 156 L 145 153 L 141 153"/>
      <path id="side_036" style="fill:none;stroke:#000000;stroke-width:0.0508" d="M 141 153 L 141 149.556 L 138 149.556 L 138 143.556 L 141 143.556 L 141 137.111 L 138 137.111 L 138 131.111 L 141 131.111 L 141 124.667 L 138 124.667 L 138 118.667 L 141 118.667 L 141 112.222 L 138 112.222 L 138 106.222 L 141 106.222 L 141 99.7778 L 138 99.7778 L 138 93.7778 L 141 93.7778 L 141 87.3333 L 138 87.3333 L 138 81.3333 L 141 81.3333 L 141 74.8889 L 138 74.8889 L 138 68.8889 L 141 68.8889 L 141 62.4444 L 138 62.4444 L 138 56.4444 L 141 56.4444 L 141 53"/>
    </g>
    <g id="piece_005">
      <path id="side_037" style="fill:none;stroke:#000000;stroke-width:0.0508" d="M 186 50 L 193.143 50 L 193.143 53 L 199.143 53 L 199.143 50 L 206.286 50 L 206.286 53 L 212.286 53 L 212.286 50 L 219.429 50 L 219.429 53 L 225.429 53 L 225.429 50 L 232.571 50 L 232.571 53 L 238.571 53 L 238.571 50 L 245.714 50 L 245.714 53 L 251.714 53 L 251.714 50 L 258.857 50 L 258.857 53 L 264.857 53 L 264.857 50 L 272 50"/>
      <path id="hole_062" style="fill:none;stroke:#000000;stroke-width:0.0508" d="M 193.143 87.3333 L 199.143 87.3333 L 199.143 84.3333 L 193.143 84.3333 L 193.143 87.3333 Z"/>
      <path id="hole_063" style="fill:none;stroke:#000000;stroke-width:0.0508" d="M 193.143 121.667 L 199.143 121.667 L 199.143 118.667 L 193.143 118.667 L 193.143 121.667 Z"/>
      <path id="hole_064" style="fill:none;stroke:#000000;stroke-width:0.0508" d="M 206.286 87.3333 L 212.286 87.3333 L 212.286 84.3333 L 206.286 84.3333 L 206.286 87.3333 Z"/>
      <path id="hole_065" style="fill:none;stroke:#000000;stroke-width:0.0508" d="M 206.286 121.667 L 212.286 121.667 L 212.286 118.667 L 206.286 118.667 L 206.286 121.667 Z"/>
      <path id="hole_066" style="fill:none;stroke:#000000;stroke-width:0.0508" d="M 219.429 87.3333 L 225.429 87.3333 L 225.429 84.3333 L 219.429 84.3333 L 219.429 87.3333 Z"/>
      <path id="hole_067" style="fill:none;stroke:#000000;stroke-width:0.0508" d="M 219.429 121.667 L 225.429 121.667 L 225.429 118.667 L 219.429 118.667 L 219.429 121.667 Z"/>
      <path id="hole_068" style="fill:none;stroke:#000000;stroke-width:0.0508" d="M 232.571 87.3333 L 238.571 87.3333 L 238.571 84.3333 L 232.571 84.3333 L 232.571 87.3333 Z"/>
      <path id="hole_069" style="fill:none;stroke:#000000;stroke-width:0.0508" d="M 232.571 121.667 L 238.571 121.667 L 238.571 118.667 L 232.571 118.667 L 232.571 121.667 Z"/>
      <path id="hole_070" style="fill:none;stroke:#000000;stroke-width:0.0508" d="M 245.714 87.3333 L 251.714 87.3333 L 251.714 84.3333 L 245.714 84.3333 L 245.714 87.3333 Z"/>
      <path id="hole_071" style="fill:none;stroke:#000000;stroke-width:0.0508" d="M 245.714 121.667 L 251.714 121.667 L 251.714 118.667 L 245.714 118.667 L 245.714 121.667 Z"/>
      <path id="hole_072" style="fill:none;stroke:#000000;stroke-width:0.0508" d="M 258.857 87.3333 L 264.857 87.3333 L 264.857 84.3333 L 258.857 84.3333 L 258.857 87.3333 Z"/>
      <path id="hole_073" style="fill:none;stroke:#000000;stroke-width:0.0508" d="M 258.857 121.667 L 264.857 121.667 L 264.857 118.667 L 258.857 118.667 L 258.857 121.667 Z"/>
      <path id="side_038" style="fill:none;stroke:#000000;stroke-width:0.0508" d="M 272 50 L 272 56.4444 L 269 56.4444 L 269 62.4444 L 272 62.4444 L 272 68.8889 L 269 68.8889 L 269 74.8889 L 272 74.8889 L 272 81.3333 L 269 81.3333 L 269 87.3333 L 272 87.3333 L 272 93.7778 L 269 93.7778 L 269 99.7778 L 272 99.7778 L 272 106.222 L 269 106.222 L 269 112.222 L 272 112.222 L 272 118.667 L 269 118.667 L 269 124.667 L 272 124.667 L 272 131.111 L 269 131.111 L 269 137.111 L 272 137.111 L 272 143.556 L 269 143.556 L 269 149.556 L 272 149.556 L 272 156"/>
      <path id="hole_074" style="fill:none;stroke:#000000;stroke-width:0.0508" d="M 248.25 56.4444 L 248.25 62.4444 L 251.25 62.4444 L 251.25 56.4444 L 248.25 56.4444 Z"/>
      <path id="hole_075" style="fill:none;stroke:#000000;stroke-width:0.0508" d="M 227.5 56.4444 L 227.5 62.4444 L 230.5 62.4444 L 230.5 56.4444 L 227.5 56.4444 Z"/>
      <path id="hole_076" style="fill:none;stroke:#000000;stroke-width:0.0508" d="M 206.75 56.4444 L 206.75 62.4444 L 209.75 62.4444 L 209.75 56.4444 L 206.75 56.4444 Z"/>
      <path id="hole_077" style="fill:none;stroke:#000000;stroke-width:0.0508" d="M 248.25 68.8889 L 248.25 74.8889 L 251.25 74.8889 L 251.25 68.8889 L 248.25 68.8889 Z"/>
      <path id="hole_078" style="fill:none;stroke:#000000;stroke-width:0.0508" d="M 227.5 68.8889 L 227.5 74.8889 L 230.5 74.8889 L 230.5 68.8889 L 227.5 68.8889 Z"/>
      <path id="hole_079" style="fill:none;stroke:#000000;stroke-width:0.0508" d="M 206.75 68.8889 L 206.75 74.8889 L 209.75 74.8889 L 209.75 68.8889 L 206.75 68.8889 Z"/>
      <path id="hole_080" style="fill:none;stroke:#000000;stroke-width:0.0508" d="M 248.25 81.3333 L 248.25 87.3333 L 251.25 87.3333 L 251.25 81.3333 L 248.25 81.3333 Z"/>
      <path id="hole_081" style="fill:none;stroke:#000000;stroke-width:0.0508" d="M 227.5 81.3333 L 227.5 87.3333 L 230.5 87.3333 L 230.5 81.3333 L 227.5 81.3333 Z"/>
      <path id="hole_082" style="fill:none;stroke:#000000;stroke-width:0.0508" d="M 206.75 81.3333 L 206.75 87.3333 L 209.75 87.3333 L 209.75 81.3333 L 206.75 81.3333 Z"/>
      <path id="hole_083" style="fill:none;stroke:#000000;stroke-width:0.0508" d="M 248.25 93.7778 L 248.25 99.7778 L 251.25 99.7778 L 251.25 93.7778 L 248.25 93.7778 Z"/>
      <path id="hole_084" style="fill:none;stroke:#000000;stroke-width:0.0508" d="M 227.5 93.7778 L 227.5 99.7778 L 230.5 99.7778 L 230.5 93.7778 L 227.5 93.7778 Z"/>
      <path id="hole_085" style="fill:none;stroke:#000000;stroke-width:0.0508" d="M 206.75 93.7778 L 206.75 99.7778 L 209.75 99.7778 L 209.75 93.7778 L 206.75 93.7778 Z"/>
      <path id="hole_086" style="fill:none;stroke:#000000;stroke-width:0.0508" d="M 248.25 106.222 L 248.25 112.222 L 251.25 112.222 L 251.25 106.222 L 248.25 106.222 Z"/>
      <path id="hole_087" style="fill:none;stroke:#000000;stroke-width:0.0508" d="M 227.5 106.222 L 227.5 112.222 L 230.5 112.222 L 230.5 106.222 L 227.5 106.222 Z"/>
      <path id="hole_088" style="fill:none;stroke:#000000;stroke-width:0.0508" d="M 206.75 106.222 L 206.75 112.222 L 209.75 112.222 L 209.75 106.222 L 206.75 106.222 Z"/>
      <path id="hole_089" style="fill:none;stroke:#000000;stroke-width:0.0508" d="M 248.25 118.667 L 248.25 124.667 L 251.25 124.667 L 251.25 118.667 L 248.25 118.667 Z"/>
      <path id="hole_090" style="fill:none;stroke:#000000;stroke-width:0.0508" d="M 227.5 118.667 L 227.5 124.667 L 230.5 124.667 L 230.5 118.667 L 227.5 118.667 Z"/>
      <path id="hole_091" style="fill:none;stroke:#000000;stroke-width:0.0508" d="M 206.75 118.667 L 206.75 124.667 L 209.75 124.667 L 209.75 118.667 L 206.75 118.667 Z"/>
      <path id="hole_092" style="fill:none;stroke:#000000;stroke-width:0.0508" d="M 248.25 131.111 L 248.25 137.111 L 251.25 137.111 L 251.25 131.111 L 248.25 131.111 Z"/>
      <path id="hole_093" style="fill:none;stroke:#000000;stroke-width:0.0508" d="M 227.5 131.111 L 227.5 137.111 L 230.5 137.111 L 230.5 131.111 L 227.5 131.111 Z"/>
      <path id="hole_094" style="fill:none;stroke:#000000;stroke-width:0.0508" d="M 206.75 131.111 L 206.75 137.111 L 209.75 137.111 L 209.75 131.111 L 206.75 131.111 Z"/>
      <path id="hole_095" style="fill:none;stroke:#000000;stroke-width:0.0508" d="M 248.25 143.556 L 248.25 149.556 L 251.25 149.556 L 251.25 143.556 L 248.25 143.556 Z"/>
      <path id="hole_096" style="fill:none;stroke:#000000;stroke-width:0.0508" d="M 227.5 143.556 L 227.5 149.556 L 230.5 149.556 L 230.5 143.556 L 227.5 143.556 Z"/>
      <path id="hole_097" style="fill:none;stroke:#000000;stroke-width:0.0508" d="M 206.75 143.556 L 206.75 149.556 L 209.75 149.556 L 209.75 143.556 L 206.75 143.556 Z"/>
      <path id="side_039" style="fill:none;stroke:#000000;stroke-width:0.0508" d="M 272 156 L 264.857 156 L 264.857 153 L 258.857 153 L 258.857 156 L 251.714 156 L 251.714 153 L 245.714 153 L 245.714 156 L 238.571 156 L 238.571 153 L 232.571 153 L 232.571 156 L 225.429 156 L 225.429 153 L 219.429 153 L 219.429 156 L 212.286 156 L 212.286 153 L 206.286 153 L 206.286 156 L 199.143 156 L 199.143 153 L 193.143 153 L 193.143 156 L 186 156"/>
      <path id="side_040" style="fill:none;stroke:#000000;stroke-width:0.0508" d="M 186 156 L 186 149.556 L 189 149.556 L 189 143.556 L 186 143.556 L 186 137.111 L 189 137.111 L 189 131.111 L 186 131.111 L 186 124.667 L 189 124.667 L 189 118.667 L 186 118.667 L 186 112.222 L 189 112.222 L 189 106.222 L 186 106.222 L 186 99.7778 L 189 99.7778 L 189 93.7778 L 186 93.7778 L 186 87.3333 L 189 87.3333 L 189 81.3333 L 186 81.3333 L 186 74.8889 L 189 74.8889 L 189 68.8889 L 186 68.8889 L 186 62.4444 L 189 62.4444 L 189 56.4444 L 186 56.4444 L 186 50"/>
    </g>
    <g id="piece_006">
      <path id="side_041" style="fill:none;stroke:#000000;stroke-width:0.0508" d="M 50 5 L 57.1429 5 L 57.1429 2 L 63.1429 2 L 63.1429 5 L 70.2857 5 L 70.2857 2 L 76.2857 2 L 76.2857 5 L 83.4286 5 L 83.4286 2 L 89.4286 2 L 89.4286 5 L 96.5714 5 L 96.5714 2 L 102.571 2 L 102.571 5 L 109.714 5 L 109.714 2 L 115.714 2 L 115.714 5 L 122.857 5 L 122.857 2 L 128.857 2 L 128.857 5 L 136 5"/>
      <path id="side_042" style="fill:none;stroke:#000000;stroke-width:0.0508" d="M 136 5 L 136 9 L 133 9 L 133 15 L 136 15 L 136 22 L 133 22 L 133 28 L 136 28 L 136 35 L 133 35 L 133 41 L 136 41 L 136 45"/>
      <path id="hole_098" style="fill:none;stroke:#000000;stroke-width:0.0508" d="M 112.25 9 L 112.25 15 L 115.25 15 L 115.25 9 L 112.25 9 Z"/>
      <path id="hole_099" style="fill:none;stroke:#000000;stroke-width:0.0508" d="M 91.5 9 L 91.5 15 L 94.5 15 L 94.5 9 L 91.5 9 Z"/>
      <path id="hole_100" style="fill:none;stroke:#000000;stroke-width:0.0508" d="M 70.75 9 L 70.75 15 L 73.75 15 L 73.75 9 L 70.75 9 Z"/>
      <path id="hole_101" style="fill:none;stroke:#000000;stroke-width:0.0508" d="M 112.25 22 L 112.25 28 L 115.25 28 L 115.25 22 L 112.25 22 Z"/>
      <path id="hole_102" style="fill:none;stroke:#000000;stroke-width:0.0508" d="M 91.5 22 L 91.5 28 L 94.5 28 L 94.5 22 L 91.5 22 Z"/>
      <path id="hole_103" style="fill:none;stroke:#000000;stroke-width:0.0508" d="M 70.75 22 L 70.75 28 L 73.75 28 L 73.75 22 L 70.75 22 Z"/>
      <path id="hole_104" style="fill:none;stroke:#000000;stroke-width:0.0508" d="M 112.25 35 L 112.25 41 L 115.25 41 L 115.25 35 L 112.25 35 Z"/>
      <path id="hole_105" style="fill:none;stroke:#000000;stroke-width:0.0508" d="M 91.5 35 L 91.5 41 L 94.5 41 L 94.5 35 L 91.5 35 Z"/>
      <path id="hole_106" style="fill:none;stroke:#000000;stroke-width:0.0508" d="M 70.75 35 L 70.75 41 L 73.75 41 L 73.75 35 L 70.75 35 Z"/>
      <path id="side_043" style="fill:none;stroke:#000000;stroke-width:0.0508" d="M 136 45 L 128.857 45 L 128.857 48 L 122.857 48 L 122.857 45 L 115.714 45 L 115.714 48 L 109.714 48 L 109.714 45 L 102.571 45 L 102.571 48 L 96.5714 48 L 96.5714 45 L 89.4286 45 L 89.4286 48 L 83.4286 48 L 83.4286 45 L 76.2857 45 L 76.2857 48 L 70.2857 48 L 70.2857 45 L 63.1429 45 L 63.1429 48 L 57.1429 48 L 57.1429 45 L 50 45"/>
      <path id="side_044" style="fill:none;stroke:#000000;stroke-width:0.0508" d="M 50 45 L 50 41 L 53 41 L 53 35 L 50 35 L 50 28 L 53 28 L 53 22 L 50 22 L 50 15 L 53 15 L 53 9 L 50 9 L 50 5"/>
    </g>
  </g>
</svg>