<!-- Created with Inkscape (http://www.inkscape.org/) -->
<svg xmlns:inkscape="http://www.inkscape.org/namespaces/inkscape" xmlns:sodipodi="http://sodipodi.sourceforge.net/DTD/sodipodi-0.dtd" xmlns="http://www.w3.org/2000/svg" xmlns:svg="http://www.w3.org/2000/svg" width="210mm" height="297mm" viewBox="0 0 210 297" version="1.1" id="svg5" inkscape:version="1.1.2 (0a00cf5339, 2022-02-04)" sodipodi:docname="blank.svg">
  <sodipodi:namedview id="namedview7" pagecolor="#ffffff" bordercolor="#666666" borderopacity="1.0" inkscape:pageshadow="2" inkscape:pageopacity="0.0" inkscape:pagecheckerboard="0" inkscape:document-units="mm" showgrid="false" inkscape:zoom="0.64052329" inkscape:cx="397.33138" inkscape:cy="561.25984" inkscape:window-width="2086" inkscape:window-height="1376" inkscape:window-x="0" inkscape:window-y="0" inkscape:window-maximized="1" inkscape:current-layer="layer1"/>
  <defs id="defs2"/>
  <g inkscape:label="Layer 1" inkscape:groupmode="layer" id="layer1">
    <g id="piece_001">
      <path id="side_001" style="fill:none;stroke:#000000;stroke-width:1" d="m 50 161 l 7.1429 0 l 0 -3 l 6 0 l 0 3 l 7.1428 0 l 0 -3 l 6 0 l 0 3 l 7.1429 0 l 0 -3 l 6 0 l 0 3 l 7.1428 0 l 0 -3 l 5.9996 0 l 0 3 l 7.143 0 l 0 -3 l 6 0 l 0 3 l 7.143 0 l 0 -3 l 6 0 l 0 3 l 7.143 0"/>
      <path id="side_002" style="fill:none;stroke:#000000;stroke-width:1" d="m 112.25 165 l 0 6 l 3 0 l 0 -6 l -3 0"/>
      <path id="side_003" style="fill:none;stroke:#000000;stroke-width:1" d="m 91.5 165 l 0 6 l 3 0 l 0 -6 l -3 0"/>
      <path id="side_004" style="fill:none;stroke:#000000;stroke-width:1" d="m 70.75 165 l 0 6 l 3 0 l 0 -6 l -3 0"/>
      <path id="side_005" style="fill:none;stroke:#000000;stroke-width:1" d="m 112.25 178 l 0 6 l 3 0 l 0 -6 l -3 0"/>
      <path id="side_006" style="fill:none;stroke:#000000;stroke-width:1" d="m 91.5 178 l 0 6 l 3 0 l 0 -6 l -3 0"/>
      <path id="side_007" style="fill:none;stroke:#000000;stroke-width:1" d="m 70.75 178 l 0 6 l 3 0 l 0 -6 l -3 0"/>
      <path id="side_008" style="fill:none;stroke:#000000;stroke-width:1" d="m 112.25 191 l 0 6 l 3 0 l 0 -6 l -3 0"/>
      <path id="side_009" style="fill:none;stroke:#000000;stroke-width:1" d="m 91.5 191 l 0 6 l 3 0 l 0 -6 l -3 0"/>
      <path id="side_010" style="fill:none;stroke:#000000;stroke-width:1" d="m 70.75 191 l 0 6 l 3 0 l 0 -6 l -3 0"/>
      <path id="side_011" style="fill:none;stroke:#000000;stroke-width:1" d="m 136 161 l 0 4 l -3 0 l 0 6 l 3 0 l 0 7 l -3 0 l 0 6 l 3 0 l 0 7 l -3 0 l 0 6 l 3 0 l 0 4"/>
      <path id="side_012" style="fill:none;stroke:#000000;stroke-width:1" d="m 136 201 l -7.143 0 l 0 3 l -6 0 l 0 -3 l -7.143 0 l 0 3 l -6 0 l 0 -3 l -7.143 0 l 0 3 l -5.9996 0 l 0 -3 l -7.1428 0 l 0 3 l -6 0 l 0 -3 l -7.1429 0 l 0 3 l -6 0 l 0 -3 l -7.1428 0 l 0 3 l -6 0 l 0 -3 l -7.1429 0"/>
      <path id="side_013" style="fill:none;stroke:#000000;stroke-width:1" d="m 50 201 l 0 -4 l 3 0 l 0 -6 l -3 0 l 0 -7 l 3 0 l 0 -6 l -3 0 l 0 -7 l 3 0 l 0 -6 l -3 0 l 0 -4"/>
    </g>
    <g id="piece_002">
      <path id="side_014" style="fill:none;stroke:#000000;stroke-width:1" d="m 0 209 l 7.14286 0 l 0 -3 l 6.00004 0 l 0 3 l 7.1428 0 l 0 -3 l 6 0 l 0 3 l 7.1429 0 l 0 -3 l 6 0 l 0 3 l 7.1428 0 l 0 -3 l 6 0 l 0 3 l 7.1429 0 l 0 -3 l 6 0 l 0 3 l 7.1428 0 l 0 -3 l 6 0 l 0 3 l 7.1429 0"/>
      <path id="side_015" style="fill:none;stroke:#000000;stroke-width:1" d="m 62.25 206 l 0 23 l 3 0 l 0 -23 l -3 0"/>
      <path id="side_016" style="fill:none;stroke:#000000;stroke-width:1" d="m 41.5 206 l 0 23 l 3 0 l 0 -23 l -3 0"/>
      <path id="side_017" style="fill:none;stroke:#000000;stroke-width:1" d="m 20.75 206 l 0 23 l 3 0 l 0 -23 l -3 0"/>
      <path id="side_018" style="fill:none;stroke:#000000;stroke-width:1" d="m 86 209 l 0 4 l -3 0 l 0 6 l 3 0 l 0 7 l -3 0 l 0 6 l 3 0 l 0 7 l -3 0 l 0 6 l 3 0 l 0 4"/>
      <path id="side_019" style="fill:none;stroke:#000000;stroke-width:1" d="m 86 249 l -7.1429 0 l 0 3 l -6 0 l 0 -3 l -7.1428 0 l 0 3 l -6 0 l 0 -3 l -7.1429 0 l 0 3 l -6 0 l 0 -3 l -7.1428 0 l 0 3 l -6 0 l 0 -3 l -7.1429 0 l 0 3 l -6 0 l 0 -3 l -7.1428 0 l 0 3 l -6.00004 0 l 0 -3 l -7.14286 0"/>
      <path id="side_020" style="fill:none;stroke:#000000;stroke-width:1" d="m 0 249 l 0 -4 l 3 0 l 0 -6 l -3 0 l 0 -7 l 3 0 l 0 -6 l -3 0 l 0 -7 l 3 0 l 0 -6 l -3 0 l 0 -4"/>
    </g>
    <g id="piece_003">
      <path id="side_021" style="fill:none;stroke:#000000;stroke-width:1" d="m 88 209 l 7.1429 0 l 0 -3 l 6.0001 0 l 0 3 l 7.143 0 l 0 -3 l 6 0 l 0 3 l 7.143 0 l 0 -3 l 6 0 l 0 3 l 7.142 0 l 0 -3 l 6 0 l 0 3 l 7.143 0 l 0 -3 l 6 0 l 0 3 l 7.143 0 l 0 -3 l 6 0 l 0 3 l 7.143 0"/>
      <path id="side_022" style="fill:none;stroke:#000000;stroke-width:1" d="m 150.25 206 l 0 23 l 3 0 l 0 -23 l -3 0"/>
      <path id="side_023" style="fill:none;stroke:#000000;stroke-width:1" d="m 129.5 206 l 0 23 l 3 0 l 0 -23 l -3 0"/>
      <path id="side_024" style="fill:none;stroke:#000000;stroke-width:1" d="m 108.75 206 l 0 23 l 3 0 l 0 -23 l -3 0"/>
      <path id="side_025" style="fill:none;stroke:#000000;stroke-width:1" d="m 174 209 l 0 4 l -3 0 l 0 6 l 3 0 l 0 7 l -3 0 l 0 6 l 3 0 l 0 7 l -3 0 l 0 6 l 3 0 l 0 4"/>
      <path id="side_026" style="fill:none;stroke:#000000;stroke-width:1" d="m 174 249 l -7.143 0 l 0 3 l -6 0 l 0 -3 l -7.143 0 l 0 3 l -6 0 l 0 -3 l -7.143 0 l 0 3 l -6 0 l 0 -3 l -7.142 0 l 0 3 l -6 0 l 0 -3 l -7.143 0 l 0 3 l -6 0 l 0 -3 l -7.143 0 l 0 3 l -6.0001 0 l 0 -3 l -7.1429 0"/>
      <path id="side_027" style="fill:none;stroke:#000000;stroke-width:1" d="m 88 249 l 0 -4 l 3 0 l 0 -6 l -3 0 l 0 -7 l 3 0 l 0 -6 l -3 0 l 0 -7 l 3 0 l 0 -6 l -3 0 l 0 -4"/>
    </g>
    <g id="piece_004">
      <path id="side_028" style="fill:none;stroke:#000000;stroke-width:1" d="m 5 87.3333 l 4 0 l 0 -3 l -4 0 l 0 3"/>
      <path id="side_029" style="fill:none;stroke:#000000;stroke-width:1" d="m 5 121.667 l 4 0 l 0 -3 l -4 0 l 0 3"/>
      <path id="side_030" style="fill:none;stroke:#000000;stroke-width:1" d="m 15 87.3333 l 7 0 l 0 -3 l -7 0 l 0 3"/>
      <path id="side_031" style="fill:none;stroke:#000000;stroke-width:1" d="m 15 121.667 l 7 0 l 0 -3 l -7 0 l 0 3"/>
      <path id="side_032" style="fill:none;stroke:#000000;stroke-width:1" d="m 28 87.3333 l 7 0 l 0 -3 l -7 0 l 0 3"/>
      <path id="side_033" style="fill:none;stroke:#000000;stroke-width:1" d="m 28 121.667 l 7 0 l 0 -3 l -7 0 l 0 3"/>
      <path id="side_034" style="fill:none;stroke:#000000;stroke-width:1" d="m 41 84.3333 l 0 0 l 0 3 l 0 0 l 0 -3"/>
      <path id="side_035" style="fill:none;stroke:#000000;stroke-width:1" d="m 41 118.667 l 0 0 l 0 3 l 0 0 l 0 -3"/>
      <path id="side_036" style="fill:none;stroke:#000000;stroke-width:1" d="m 5 53 l 4 0 l 0 -3 l 6 0 l 0 3 l 7 0 l 0 -3 l 6 0 l 0 3 l 7 0 l 0 -3 l 6 0 l 0 3 l 4 0"/>
      <path id="side_037" style="fill:none;stroke:#000000;stroke-width:1" d="m 45 53 l 0 3.4444 l 3 0 l 0 6 l -3 0 l 0 6.4445 l 3 0 l 0 6 l -3 0 l 0 6.4444 l 3 0 l 0 6 l -3 0 l 0 6.4445 l 3 0 l 0 6 l -3 0 l 0 6.4442 l 3 0 l 0 6 l -3 0 l 0 6.445 l 3 0 l 0 6 l -3 0 l 0 6.444 l 3 0 l 0 6 l -3 0 l 0 6.445 l 3 0 l 0 6 l -3 0 l 0 3.444"/>
      <path id="side_038" style="fill:none;stroke:#000000;stroke-width:1" d="m 45 153 l -4 0 l 0 3 l -6 0 l 0 -3 l -7 0 l 0 3 l -6 0 l 0 -3 l -7 0 l 0 3 l -6 0 l 0 -3 l -4 0"/>
      <path id="side_039" style="fill:none;stroke:#000000;stroke-width:1" d="m 5 153 l 0 -3.444 l -3 0 l 0 -6 l 3 0 l 0 -6.445 l -3 0 l 0 -6 l 3 0 l 0 -6.444 l -3 0 l 0 -6 l 3 0 l 0 -6.445 l -3 0 l 0 -6 l 3 0 l 0 -6.4442 l -3 0 l 0 -6 l 3 0 l 0 -6.4445 l -3 0 l 0 -6 l 3 0 l 0 -6.4444 l -3 0 l 0 -6 l 3 0 l 0 -6.4445 l -3 0 l 0 -6 l 3 0 l 0 -3.4444"/>
    </g>
    <g id="piece_005">
      <path id="side_040" style="fill:none;stroke:#000000;stroke-width:1" d="m 0 288.333 l 23 0 l 0 3 l -23 0 l 0 -3"/>
      <path id="side_041" style="fill:none;stroke:#000000;stroke-width:1" d="m 0 322.667 l 23 0 l 0 3 l -23 0 l 0 -3"/>
      <path id="side_042" style="fill:none;stroke:#000000;stroke-width:1" d="m 3 257 l 4 0 l 0 -3 l 6 0 l 0 3 l 7 0 l 0 -3 l 6 0 l 0 3 l 7 0 l 0 -3 l 6 0 l 0 3 l 4 0"/>
      <path id="side_043" style="fill:none;stroke:#000000;stroke-width:1" d="m 43 257 l 0 3.444 l 3 0 l 0 6 l -3 0 l 0 6.445 l 3 0 l 0 6 l -3 0 l 0 6.444 l 3 0 l 0 6 l -3 0 l 0 6.445 l 3 0 l 0 6 l -3 0 l 0 6.444 l 3 0 l 0 6 l -3 0 l 0 6.445 l 3 0 l 0 6 l -3 0 l 0 6.444 l 3 0 l 0 6 l -3 0 l 0 6.445 l 3 0 l 0 6 l -3 0 l 0 3.444"/>
      <path id="side_044" style="fill:none;stroke:#000000;stroke-width:1" d="m 43 357 l -4 0 l 0 3 l -6 0 l 0 -3 l -7 0 l 0 3 l -6 0 l 0 -3 l -7 0 l 0 3 l -6 0 l 0 -3 l -4 0"/>
      <path id="side_045" style="fill:none;stroke:#000000;stroke-width:1" d="m 3 357 l 0 -3.444 l -3 0 l 0 -6 l 3 0 l 0 -6.445 l -3 0 l 0 -6 l 3 0 l 0 -6.444 l -3 0 l 0 -6 l 3 0 l 0 -6.445 l -3 0 l 0 -6 l 3 0 l 0 -6.444 l -3 0 l 0 -6 l 3 0 l 0 -6.445 l -3 0 l 0 -6 l 3 0 l 0 -6.444 l -3 0 l 0 -6 l 3 0 l 0 -6.445 l -3 0 l 0 -6 l 3 0 l 0 -3.444"/>
    </g>
    <g id="piece_006">
      <path id="side_046" style="fill:none;stroke:#000000;stroke-width:1" d="m 48 288.333 l 23 0 l 0 3 l -23 0 l 0 -3"/>
      <path id="side_047" style="fill:none;stroke:#000000;stroke-width:1" d="m 48 322.667 l 23 0 l 0 3 l -23 0 l 0 -3"/>
      <path id="side_048" style="fill:none;stroke:#000000;stroke-width:1" d="m 51 257 l 4 0 l 0 -3 l 6 0 l 0 3 l 7 0 l 0 -3 l 6 0 l 0 3 l 7 0 l 0 -3 l 6 0 l 0 3 l 4 0"/>
      <path id="side_049" style="fill:none;stroke:#000000;stroke-width:1" d="m 91 257 l 0 3.444 l 3 0 l 0 6 l -3 0 l 0 6.445 l 3 0 l 0 6 l -3 0 l 0 6.444 l 3 0 l 0 6 l -3 0 l 0 6.445 l 3 0 l 0 6 l -3 0 l 0 6.444 l 3 0 l 0 6 l -3 0 l 0 6.445 l 3 0 l 0 6 l -3 0 l 0 6.444 l 3 0 l 0 6 l -3 0 l 0 6.445 l 3 0 l 0 6 l -3 0 l 0 3.444"/>
      <path id="side_050" style="fill:none;stroke:#000000;stroke-width:1" d="m 91 357 l -4 0 l 0 3 l -6 0 l 0 -3 l -7 0 l 0 3 l -6 0 l 0 -3 l -7 0 l 0 3 l -6 0 l 0 -3 l -4 0"/>
      <path id="side_051" style="fill:none;stroke:#000000;stroke-width:1" d="m 51 357 l 0 -3.444 l -3 0 l 0 -6 l 3 0 l 0 -6.445 l -3 0 l 0 -6 l 3 0 l 0 -6.444 l -3 0 l 0 -6 l 3 0 l 0 -6.445 l -3 0 l 0 -6 l 3 0 l 0 -6.444 l -3 0 l 0 -6 l 3 0 l 0 -6.445 l -3 0 l 0 -6 l 3 0 l 0 -6.444 l -3 0 l 0 -6 l 3 0 l 0 -6.445 l -3 0 l 0 -6 l 3 0 l 0 -3.444"/>
    </g>
    <g id="piece_007">
      <path id="side_052" style="fill:none;stroke:#000000;stroke-width:1" d="m 96 288.333 l 23 0 l 0 3 l -23 0 l 0 -3"/>
      <path id="side_053" style="fill:none;stroke:#000000;stroke-width:1" d="m 96 322.667 l 23 0 l 0 3 l -23 0 l 0 -3"/>
      <path id="side_054" style="fill:none;stroke:#000000;stroke-width:1" d="m 99 257 l 4 0 l 0 -3 l 6 0 l 0 3 l 7 0 l 0 -3 l 6 0 l 0 3 l 7 0 l 0 -3 l 6 0 l 0 3 l 4 0"/>
      <path id="side_055" style="fill:none;stroke:#000000;stroke-width:1" d="m 139 257 l 0 3.444 l 3 0 l 0 6 l -3 0 l 0 6.445 l 3 0 l 0 6 l -3 0 l 0 6.444 l 3 0 l 0 6 l -3 0 l 0 6.445 l 3 0 l 0 6 l -3 0 l 0 6.444 l 3 0 l 0 6 l -3 0 l 0 6.445 l 3 0 l 0 6 l -3 0 l 0 6.444 l 3 0 l 0 6 l -3 0 l 0 6.445 l 3 0 l 0 6 l -3 0 l 0 3.444"/>
      <path id="side_056" style="fill:none;stroke:#000000;stroke-width:1" d="m 139 357 l -4 0 l 0 3 l -6 0 l 0 -3 l -7 0 l 0 3 l -6 0 l 0 -3 l -7 0 l 0 3 l -6 0 l 0 -3 l -4 0"/>
      <path id="side_057" style="fill:none;stroke:#000000;stroke-width:1" d="m 99 357 l 0 -3.444 l -3 0 l 0 -6 l 3 0 l 0 -6.445 l -3 0 l 0 -6 l 3 0 l 0 -6.444 l -3 0 l 0 -6 l 3 0 l 0 -6.445 l -3 0 l 0 -6 l 3 0 l 0 -6.444 l -3 0 l 0 -6 l 3 0 l 0 -6.445 l -3 0 l 0 -6 l 3 0 l 0 -6.444 l -3 0 l 0 -6 l 3 0 l 0 -6.445 l -3 0 l 0 -6 l 3 0 l 0 -3.444"/>
    </g>
    <g id="piece_008">
      <path id="side_058" style="fill:none;stroke:#000000;stroke-width:1" d="m 57.1429 87.3333 l 6 0 l 0 -3 l -6 0 l 0 3"/>
      <path id="side_059" style="fill:none;stroke:#000000;stroke-width:1" d="m 57.1429 121.667 l 6 0 l 0 -3 l -6 0 l 0 3"/>
      <path id="side_060" style="fill:none;stroke:#000000;stroke-width:1" d="m 70.2857 87.3333 l 6 0 l 0 -3 l -6 0 l 0 3"/>
      <path id="side_061" style="fill:none;stroke:#000000;stroke-width:1" d="m 70.2857 121.667 l 6 0 l 0 -3 l -6 0 l 0 3"/>
      <path id="side_062" style="fill:none;stroke:#000000;stroke-width:1" d="m 83.4286 87.3333 l 6 0 l 0 -3 l -6 0 l 0 3"/>
      <path id="side_063" style="fill:none;stroke:#000000;stroke-width:1" d="m 83.4286 121.667 l 6 0 l 0 -3 l -6 0 l 0 3"/>
      <path id="side_064" style="fill:none;stroke:#000000;stroke-width:1" d="m 96.5714 87.3333 l 5.9996 0 l 0 -3 l -5.9996 0 l 0 3"/>
      <path id="side_065" style="fill:none;stroke:#000000;stroke-width:1" d="m 96.5714 121.667 l 5.9996 0 l 0 -3 l -5.9996 0 l 0 3"/>
      <path id="side_066" style="fill:none;stroke:#000000;stroke-width:1" d="m 109.714 87.3333 l 6 0 l 0 -3 l -6 0 l 0 3"/>
      <path id="side_067" style="fill:none;stroke:#000000;stroke-width:1" d="m 109.714 121.667 l 6 0 l 0 -3 l -6 0 l 0 3"/>
      <path id="side_068" style="fill:none;stroke:#000000;stroke-width:1" d="m 122.857 87.3333 l 6 0 l 0 -3 l -6 0 l 0 3"/>
      <path id="side_069" style="fill:none;stroke:#000000;stroke-width:1" d="m 122.857 121.667 l 6 0 l 0 -3 l -6 0 l 0 3"/>
      <path id="side_070" style="fill:none;stroke:#000000;stroke-width:1" d="m 50 50 l 7.1429 0 l 0 3 l 6 0 l 0 -3 l 7.1428 0 l 0 3 l 6 0 l 0 -3 l 7.1429 0 l 0 3 l 6 0 l 0 -3 l 7.1428 0 l 0 3 l 5.9996 0 l 0 -3 l 7.143 0 l 0 3 l 6 0 l 0 -3 l 7.143 0 l 0 3 l 6 0 l 0 -3 l 7.143 0"/>
      <path id="side_071" style="fill:none;stroke:#000000;stroke-width:1" d="m 112.25 56.4444 l 0 6 l 3 0 l 0 -6 l -3 0"/>
      <path id="side_072" style="fill:none;stroke:#000000;stroke-width:1" d="m 91.5 56.4444 l 0 6 l 3 0 l 0 -6 l -3 0"/>
      <path id="side_073" style="fill:none;stroke:#000000;stroke-width:1" d="m 70.75 56.4444 l 0 6 l 3 0 l 0 -6 l -3 0"/>
      <path id="side_074" style="fill:none;stroke:#000000;stroke-width:1" d="m 112.25 68.8889 l 0 6 l 3 0 l 0 -6 l -3 0"/>
      <path id="side_075" style="fill:none;stroke:#000000;stroke-width:1" d="m 91.5 68.8889 l 0 6 l 3 0 l 0 -6 l -3 0"/>
      <path id="side_076" style="fill:none;stroke:#000000;stroke-width:1" d="m 70.75 68.8889 l 0 6 l 3 0 l 0 -6 l -3 0"/>
      <path id="side_077" style="fill:none;stroke:#000000;stroke-width:1" d="m 112.25 81.3333 l 0 6 l 3 0 l 0 -6 l -3 0"/>
      <path id="side_078" style="fill:none;stroke:#000000;stroke-width:1" d="m 91.5 81.3333 l 0 6 l 3 0 l 0 -6 l -3 0"/>
      <path id="side_079" style="fill:none;stroke:#000000;stroke-width:1" d="m 70.75 81.3333 l 0 6 l 3 0 l 0 -6 l -3 0"/>
      <path id="side_080" style="fill:none;stroke:#000000;stroke-width:1" d="m 112.25 93.7778 l 0 6 l 3 0 l 0 -6 l -3 0"/>
      <path id="side_081" style="fill:none;stroke:#000000;stroke-width:1" d="m 91.5 93.7778 l 0 6 l 3 0 l 0 -6 l -3 0"/>
      <path id="side_082" style="fill:none;stroke:#000000;stroke-width:1" d="m 70.75 93.7778 l 0 6 l 3 0 l 0 -6 l -3 0"/>
      <path id="side_083" style="fill:none;stroke:#000000;stroke-width:1" d="m 112.25 106.222 l 0 6 l 3 0 l 0 -6 l -3 0"/>
      <path id="side_084" style="fill:none;stroke:#000000;stroke-width:1" d="m 91.5 106.222 l 0 6 l 3 0 l 0 -6 l -3 0"/>
      <path id="side_085" style="fill:none;stroke:#000000;stroke-width:1" d="m 70.75 106.222 l 0 6 l 3 0 l 0 -6 l -3 0"/>
      <path id="side_086" style="fill:none;stroke:#000000;stroke-width:1" d="m 112.25 118.667 l 0 6 l 3 0 l 0 -6 l -3 0"/>
      <path id="side_087" style="fill:none;stroke:#000000;stroke-width:1" d="m 91.5 118.667 l 0 6 l 3 0 l 0 -6 l -3 0"/>
      <path id="side_088" style="fill:none;stroke:#000000;stroke-width:1" d="m 70.75 118.667 l 0 6 l 3 0 l 0 -6 l -3 0"/>
      <path id="side_089" style="fill:none;stroke:#000000;stroke-width:1" d="m 112.25 131.111 l 0 6 l 3 0 l 0 -6 l -3 0"/>
      <path id="side_090" style="fill:none;stroke:#000000;stroke-width:1" d="m 91.5 131.111 l 0 6 l 3 0 l 0 -6 l -3 0"/>
      <path id="side_091" style="fill:none;stroke:#000000;stroke-width:1" d="m 70.75 131.111 l 0 6 l 3 0 l 0 -6 l -3 0"/>
      <path id="side_092" style="fill:none;stroke:#000000;stroke-width:1" d="m 112.25 143.556 l 0 6 l 3 0 l 0 -6 l -3 0"/>
      <path id="side_093" style="fill:none;stroke:#000000;stroke-width:1" d="m 91.5 143.556 l 0 6 l 3 0 l 0 -6 l -3 0"/>
      <path id="side_094" style="fill:none;stroke:#000000;stroke-width:1" d="m 70.75 143.556 l 0 6 l 3 0 l 0 -6 l -3 0"/>
      <path id="side_095" style="fill:none;stroke:#000000;stroke-width:1" d="m 136 50 l 0 6.4444 l -3 0 l 0 6 l 3 0 l 0 6.4445 l -3 0 l 0 6 l 3 0 l 0 6.4444 l -3 0 l 0 6 l 3 0 l 0 6.4445 l -3 0 l 0 6 l 3 0 l 0 6.4442 l -3 0 l 0 6 l 3 0 l 0 6.445 l -3 0 l 0 6 l 3 0 l 0 6.444 l -3 0 l 0 6 l 3 0 l 0 6.445 l -3 0 l 0 6 l 3 0 l 0 6.444"/>
      <path id="side_096" style="fill:none;stroke:#000000;stroke-width:1" d="m 136 156 l -7.143 0 l 0 -3 l -6 0 l 0 3 l -7.143 0 l 0 -3 l -6 0 l 0 3 l -7.143 0 l 0 -3 l -5.9996 0 l 0 3 l -7.1428 0 l 0 -3 l -6 0 l 0 3 l -7.1429 0 l 0 -3 l -6 0 l 0 3 l -7.1428 0 l 0 -3 l -6 0 l 0 3 l -7.1429 0"/>
      <path id="side_097" style="fill:none;stroke:#000000;stroke-width:1" d="m 50 156 l 0 -6.444 l 3 0 l 0 -6 l -3 0 l 0 -6.445 l 3 0 l 0 -6 l -3 0 l 0 -6.444 l 3 0 l 0 -6 l -3 0 l 0 -6.445 l 3 0 l 0 -6 l -3 0 l 0 -6.4442 l 3 0 l 0 -6 l -3 0 l 0 -6.4445 l 3 0 l 0 -6 l -3 0 l 0 -6.4444 l 3 0 l 0 -6 l -3 0 l 0 -6.4445 l 3 0 l 0 -6 l -3 0 l 0 -6.4444"/>
    </g>
    <g id="piece_009">
      <path id="side_098" style="fill:none;stroke:#000000;stroke-width:1" d="m 141 87.3333 l 4 0 l 0 -3 l -4 0 l 0 3"/>
      <path id="side_099" style="fill:none;stroke:#000000;stroke-width:1" d="m 141 121.667 l 4 0 l 0 -3 l -4 0 l 0 3"/>
      <path id="side_100" style="fill:none;stroke:#000000;stroke-width:1" d="m 151 87.3333 l 7 0 l 0 -3 l -7 0 l 0 3"/>
      <path id="side_101" style="fill:none;stroke:#000000;stroke-width:1" d="m 151 121.667 l 7 0 l 0 -3 l -7 0 l 0 3"/>
      <path id="side_102" style="fill:none;stroke:#000000;stroke-width:1" d="m 164 87.3333 l 7 0 l 0 -3 l -7 0 l 0 3"/>
      <path id="side_103" style="fill:none;stroke:#000000;stroke-width:1" d="m 164 121.667 l 7 0 l 0 -3 l -7 0 l 0 3"/>
      <path id="side_104" style="fill:none;stroke:#000000;stroke-width:1" d="m 177 84.3333 l 0 0 l 0 3 l 0 0 l 0 -3"/>
      <path id="side_105" style="fill:none;stroke:#000000;stroke-width:1" d="m 177 118.667 l 0 0 l 0 3 l 0 0 l 0 -3"/>
      <path id="side_106" style="fill:none;stroke:#000000;stroke-width:1" d="m 141 53 l 4 0 l 0 -3 l 6 0 l 0 3 l 7 0 l 0 -3 l 6 0 l 0 3 l 7 0 l 0 -3 l 6 0 l 0 3 l 4 0"/>
      <path id="side_107" style="fill:none;stroke:#000000;stroke-width:1" d="m 181 53 l 0 3.4444 l 3 0 l 0 6 l -3 0 l 0 6.4445 l 3 0 l 0 6 l -3 0 l 0 6.4444 l 3 0 l 0 6 l -3 0 l 0 6.4445 l 3 0 l 0 6 l -3 0 l 0 6.4442 l 3 0 l 0 6 l -3 0 l 0 6.445 l 3 0 l 0 6 l -3 0 l 0 6.444 l 3 0 l 0 6 l -3 0 l 0 6.445 l 3 0 l 0 6 l -3 0 l 0 3.444"/>
      <path id="side_108" style="fill:none;stroke:#000000;stroke-width:1" d="m 181 153 l -4 0 l 0 3 l -6 0 l 0 -3 l -7 0 l 0 3 l -6 0 l 0 -3 l -7 0 l 0 3 l -6 0 l 0 -3 l -4 0"/>
      <path id="side_109" style="fill:none;stroke:#000000;stroke-width:1" d="m 141 153 l 0 -3.444 l -3 0 l 0 -6 l 3 0 l 0 -6.445 l -3 0 l 0 -6 l 3 0 l 0 -6.444 l -3 0 l 0 -6 l 3 0 l 0 -6.445 l -3 0 l 0 -6 l 3 0 l 0 -6.4442 l -3 0 l 0 -6 l 3 0 l 0 -6.4445 l -3 0 l 0 -6 l 3 0 l 0 -6.4444 l -3 0 l 0 -6 l 3 0 l 0 -6.4445 l -3 0 l 0 -6 l 3 0 l 0 -3.4444"/>
    </g>
    <g id="piece_010">
      <path id="side_110" style="fill:none;stroke:#000000;stroke-width:1" d="m 193.143 87.3333 l 6 0 l 0 -3 l -6 0 l 0 3"/>
      <path id="side_111" style="fill:none;stroke:#000000;stroke-width:1" d="m 193.143 121.667 l 6 0 l 0 -3 l -6 0 l 0 3"/>
      <path id="side_112" style="fill:none;stroke:#000000;stroke-width:1" d="m 206.286 87.3333 l 6 0 l 0 -3 l -6 0 l 0 3"/>
      <path id="side_113" style="fill:none;stroke:#000000;stroke-width:1" d="m 206.286 121.667 l 6 0 l 0 -3 l -6 0 l 0 3"/>
      <path id="side_114" style="fill:none;stroke:#000000;stroke-width:1" d="m 219.429 87.3333 l 6 0 l 0 -3 l -6 0 l 0 3"/>
      <path id="side_115" style="fill:none;stroke:#000000;stroke-width:1" d="m 219.429 121.667 l 6 0 l 0 -3 l -6 0 l 0 3"/>
      <path id="side_116" style="fill:none;stroke:#000000;stroke-width:1" d="m 232.571 87.3333 l 6 0 l 0 -3 l -6 0 l 0 3"/>
      <path id="side_117" style="fill:none;stroke:#000000;stroke-width:1" d="m 232.571 121.667 l 6 0 l 0 -3 l -6 0 l 0 3"/>
      <path id="side_118" style="fill:none;stroke:#000000;stroke-width:1" d="m 245.714 87.3333 l 6 0 l 0 -3 l -6 0 l 0 3"/>
      <path id="side_119" style="fill:none;stroke:#000000;stroke-width:1" d="m 245.714 121.667 l 6 0 l 0 -3 l -6 0 l 0 3"/>
      <path id="side_120" style="fill:none;stroke:#000000;stroke-width:1" d="m 258.857 87.3333 l 6 0 l 0 -3 l -6 0 l 0 3"/>
      <path id="side_121" style="fill:none;stroke:#000000;stroke-width:1" d="m 258.857 121.667 l 6 0 l 0 -3 l -6 0 l 0 3"/>
      <path id="side_122" style="fill:none;stroke:#000000;stroke-width:1" d="m 186 50 l 7.143 0 l 0 3 l 6 0 l 0 -3 l 7.143 0 l 0 3 l 6 0 l 0 -3 l 7.143 0 l 0 3 l 6 0 l 0 -3 l 7.142 0 l 0 3 l 6 0 l 0 -3 l 7.143 0 l 0 3 l 6 0 l 0 -3 l 7.143 0 l 0 3 l 6 0 l 0 -3 l 7.143 0"/>
      <path id="side_123" style="fill:none;stroke:#000000;stroke-width:1" d="m 248.25 56.4444 l 0 6 l 3 0 l 0 -6 l -3 0"/>
      <path id="side_124" style="fill:none;stroke:#000000;stroke-width:1" d="m 227.5 56.4444 l 0 6 l 3 0 l 0 -6 l -3 0"/>
      <path id="side_125" style="fill:none;stroke:#000000;stroke-width:1" d="m 206.75 56.4444 l 0 6 l 3 0 l 0 -6 l -3 0"/>
      <path id="side_126" style="fill:none;stroke:#000000;stroke-width:1" d="m 248.25 68.8889 l 0 6 l 3 0 l 0 -6 l -3 0"/>
      <path id="side_127" style="fill:none;stroke:#000000;stroke-width:1" d="m 227.5 68.8889 l 0 6 l 3 0 l 0 -6 l -3 0"/>
      <path id="side_128" style="fill:none;stroke:#000000;stroke-width:1" d="m 206.75 68.8889 l 0 6 l 3 0 l 0 -6 l -3 0"/>
      <path id="side_129" style="fill:none;stroke:#000000;stroke-width:1" d="m 248.25 81.3333 l 0 6 l 3 0 l 0 -6 l -3 0"/>
      <path id="side_130" style="fill:none;stroke:#000000;stroke-width:1" d="m 227.5 81.3333 l 0 6 l 3 0 l 0 -6 l -3 0"/>
      <path id="side_131" style="fill:none;stroke:#000000;stroke-width:1" d="m 206.75 81.3333 l 0 6 l 3 0 l 0 -6 l -3 0"/>
      <path id="side_132" style="fill:none;stroke:#000000;stroke-width:1" d="m 248.25 93.7778 l 0 6 l 3 0 l 0 -6 l -3 0"/>
      <path id="side_133" style="fill:none;stroke:#000000;stroke-width:1" d="m 227.5 93.7778 l 0 6 l 3 0 l 0 -6 l -3 0"/>
      <path id="side_134" style="fill:none;stroke:#000000;stroke-width:1" d="m 206.75 93.7778 l 0 6 l 3 0 l 0 -6 l -3 0"/>
      <path id="side_135" style="fill:none;stroke:#000000;stroke-width:1" d="m 248.25 106.222 l 0 6 l 3 0 l 0 -6 l -3 0"/>
      <path id="side_136" style="fill:none;stroke:#000000;stroke-width:1" d="m 227.5 106.222 l 0 6 l 3 0 l 0 -6 l -3 0"/>
      <path id="side_137" style="fill:none;stroke:#000000;stroke-width:1" d="m 206.75 106.222 l 0 6 l 3 0 l 0 -6 l -3 0"/>
      <path id="side_138" style="fill:none;stroke:#000000;stroke-width:1" d="m 248.25 118.667 l 0 6 l 3 0 l 0 -6 l -3 0"/>
      <path id="side_139" style="fill:none;stroke:#000000;stroke-width:1" d="m 227.5 118.667 l 0 6 l 3 0 l 0 -6 l -3 0"/>
      <path id="side_140" style="fill:none;stroke:#000000;stroke-width:1" d="m 206.75 118.667 l 0 6 l 3 0 l 0 -6 l -3 0"/>
      <path id="side_141" style="fill:none;stroke:#000000;stroke-width:1" d="m 248.25 131.111 l 0 6 l 3 0 l 0 -6 l -3 0"/>
      <path id="side_142" style="fill:none;stroke:#000000;stroke-width:1" d="m 227.5 131.111 l 0 6 l 3 0 l 0 -6 l -3 0"/>
      <path id="side_143" style="fill:none;stroke:#000000;stroke-width:1" d="m 206.75 131.111 l 0 6 l 3 0 l 0 -6 l -3 0"/>
      <path id="side_144" style="fill:none;stroke:#000000;stroke-width:1" d="m 248.25 143.556 l 0 6 l 3 0 l 0 -6 l -3 0"/>
      <path id="side_145" style="fill:none;stroke:#000000;stroke-width:1" d="m 227.5 143.556 l 0 6 l 3 0 l 0 -6 l -3 0"/>
      <path id="side_146" style="fill:none;stroke:#000000;stroke-width:1" d="m 206.75 143.556 l 0 6 l 3 0 l 0 -6 l -3 0"/>
      <path id="side_147" style="fill:none;stroke:#000000;stroke-width:1" d="m 272 50 l 0 6.4444 l -3 0 l 0 6 l 3 0 l 0 6.4445 l -3 0 l 0 6 l 3 0 l 0 6.4444 l -3 0 l 0 6 l 3 0 l 0 6.4445 l -3 0 l 0 6 l 3 0 l 0 6.4442 l -3 0 l 0 6 l 3 0 l 0 6.445 l -3 0 l 0 6 l 3 0 l 0 6.444 l -3 0 l 0 6 l 3 0 l 0 6.445 l -3 0 l 0 6 l 3 0 l 0 6.444"/>
      <path id="side_148" style="fill:none;stroke:#000000;stroke-width:1" d="m 272 156 l -7.143 0 l 0 -3 l -6 0 l 0 3 l -7.143 0 l 0 -3 l -6 0 l 0 3 l -7.143 0 l 0 -3 l -6 0 l 0 3 l -7.142 0 l 0 -3 l -6 0 l 0 3 l -7.143 0 l 0 -3 l -6 0 l 0 3 l -7.143 0 l 0 -3 l -6 0 l 0 3 l -7.143 0"/>
      <path id="side_149" style="fill:none;stroke:#000000;stroke-width:1" d="m 186 156 l 0 -6.444 l 3 0 l 0 -6 l -3 0 l 0 -6.445 l 3 0 l 0 -6 l -3 0 l 0 -6.444 l 3 0 l 0 -6 l -3 0 l 0 -6.445 l 3 0 l 0 -6 l -3 0 l 0 -6.4442 l 3 0 l 0 -6 l -3 0 l 0 -6.4445 l 3 0 l 0 -6 l -3 0 l 0 -6.4444 l 3 0 l 0 -6 l -3 0 l 0 -6.4445 l 3 0 l 0 -6 l -3 0 l 0 -6.4444"/>
    </g>
    <g id="piece_011">
      <path id="side_150" style="fill:none;stroke:#000000;stroke-width:1" d="m 50 5 l 7.1429 0 l 0 -3 l 6 0 l 0 3 l 7.1428 0 l 0 -3 l 6 0 l 0 3 l 7.1429 0 l 0 -3 l 6 0 l 0 3 l 7.1428 0 l 0 -3 l 5.9996 0 l 0 3 l 7.143 0 l 0 -3 l 6 0 l 0 3 l 7.143 0 l 0 -3 l 6 0 l 0 3 l 7.143 0"/>
      <path id="side_151" style="fill:none;stroke:#000000;stroke-width:1" d="m 112.25 9 l 0 6 l 3 0 l 0 -6 l -3 0"/>
      <path id="side_152" style="fill:none;stroke:#000000;stroke-width:1" d="m 91.5 9 l 0 6 l 3 0 l 0 -6 l -3 0"/>
      <path id="side_153" style="fill:none;stroke:#000000;stroke-width:1" d="m 70.75 9 l 0 6 l 3 0 l 0 -6 l -3 0"/>
      <path id="side_154" style="fill:none;stroke:#000000;stroke-width:1" d="m 112.25 22 l 0 6 l 3 0 l 0 -6 l -3 0"/>
      <path id="side_155" style="fill:none;stroke:#000000;stroke-width:1" d="m 91.5 22 l 0 6 l 3 0 l 0 -6 l -3 0"/>
      <path id="side_156" style="fill:none;stroke:#000000;stroke-width:1" d="m 70.75 22 l 0 6 l 3 0 l 0 -6 l -3 0"/>
      <path id="side_157" style="fill:none;stroke:#000000;stroke-width:1" d="m 112.25 35 l 0 6 l 3 0 l 0 -6 l -3 0"/>
      <path id="side_158" style="fill:none;stroke:#000000;stroke-width:1" d="m 91.5 35 l 0 6 l 3 0 l 0 -6 l -3 0"/>
      <path id="side_159" style="fill:none;stroke:#000000;stroke-width:1" d="m 70.75 35 l 0 6 l 3 0 l 0 -6 l -3 0"/>
      <path id="side_160" style="fill:none;stroke:#000000;stroke-width:1" d="m 136 5 l 0 4 l -3 0 l 0 6 l 3 0 l 0 7 l -3 0 l 0 6 l 3 0 l 0 7 l -3 0 l 0 6 l 3 0 l 0 4"/>
      <path id="side_161" style="fill:none;stroke:#000000;stroke-width:1" d="m 136 45 l -7.143 0 l 0 3 l -6 0 l 0 -3 l -7.143 0 l 0 3 l -6 0 l 0 -3 l -7.143 0 l 0 3 l -5.9996 0 l 0 -3 l -7.1428 0 l 0 3 l -6 0 l 0 -3 l -7.1429 0 l 0 3 l -6 0 l 0 -3 l -7.1428 0 l 0 3 l -6 0 l 0 -3 l -7.1429 0"/>
      <path id="side_162" style="fill:none;stroke:#000000;stroke-width:1" d="m 50 45 l 0 -4 l 3 0 l 0 -6 l -3 0 l 0 -7 l 3 0 l 0 -6 l -3 0 l 0 -7 l 3 0 l 0 -6 l -3 0 l 0 -4"/>
    </g>
  </g>
</svg>