<!-- Created with Inkscape (http://www.inkscape.org/) -->
<svg xmlns:inkscape="http://www.inkscape.org/namespaces/inkscape" xmlns:sodipodi="http://sodipodi.sourceforge.net/DTD/sodipodi-0.dtd" xmlns="http://www.w3.org/2000/svg" xmlns:svg="http://www.w3.org/2000/svg" width="273mm" height="361mm" viewBox="0 0 273 361" version="1.1" id="svg5" inkscape:version="1.1.2 (0a00cf5339, 2022-02-04)" sodipodi:docname="blank.svg">
  <sodipodi:namedview id="namedview7" pagecolor="#ffffff" bordercolor="#666666" borderopacity="1.0" inkscape:pageshadow="2" inkscape:pageopacity="0.0" inkscape:pagecheckerboard="0" inkscape:document-units="mm" showgrid="false" inkscape:zoom="0.64052329" inkscape:cx="397.33138" inkscape:cy="561.25984" inkscape:window-width="2086" inkscape:window-height="1376" inkscape:window-x="0" inkscape:window-y="0" inkscape:window-maximized="1" inkscape:current-layer="layer1"/>
  <defs id="defs2"/>
  <g inkscape:label="Layer 1" inkscape:groupmode="layer" id="layer1">
    <metadata text="createArgs=['--unit=mm', '--inside=1', '--length=80', '--width=100', '--depth=40', '--equal=0', '--tab=6', '--tabtype=0', '--tabsymmetry=0', '--dimpleheight=0', '--dimplelength=0', '--hairline=1', '--thickness=3', '--kerf=0', '--style=1', '--boxtype=1', '--keydiv=0', '--spacing=2', '--div_l=2', '--div_w=3']"/>
    <g id="piece_001">
      <path id="side_001" style="fill:none;stroke:#000000;stroke-width:0.0508" d="M 50 161 L 50 165 L 53 165 L 53 171 L 50 171 L 50 178 L 53 178 L 53 184 L 50 184 L 50 191 L 53 191 L 53 197 L 50 197 L 50 201 L 57.1429 201 L 57.1429 204 L 63.1429 204 L 63.1429 201 L 70.2857 201 L 70.2857 204 L 76.2857 204 L 76.2857 201 L 83.4286 201 L 83.4286 204 L 89.4286 204 L 89.4286 201 L 96.5714 201 L 96.5714 204 L 102.571 204 L 102.571 201 L 109.714 201 L 109.714 204 L 115.714 204 L 115.714 201 L 122.857 201 L 122.857 204 L 128.857 204 L 128.857 201 L 136 201 L 136 197 L 133 197 L 133 191 L 136 191 L 136 184 L 133 184 L 133 178 L 136 178 L 136 171 L 133 171 L 133 165 L 136 165 L 136 161 L 128.857 161 L 128.857 158 L 122.857 158 L 122.857 161 L 115.714 161 L 115.714 158 L 109.714 158 L 109.714 161 L 102.571 161 L 102.571 158 L 96.5714 158 L 96.5714 161 L 89.4286 161 L 89.4286 158 L 83.4286 158 L 83.4286 161 L 76.2857 161 L 76.2857 158 L 70.2857 158 L 70.2857 161 L 63.1429 161 L 63.1429 158 L 57.1429 158 L 57.1429 161 L 50 161 Z"/>
      <path id="hole_001" style="fill:none;stroke:#000000;stroke-width:0.0508" d="M 112.25 165 L 112.25 171 L 115.25 171 L 115.25 165 L 112.25 165 Z"/>
      <path id="hole_002" style="fill:none;stroke:#000000;stroke-width:0.0508" d="M 91.5 165 L 91.5 171 L 94.5 171 L 94.5 165 L 91.5 165 Z"/>
      <path id="hole_003" style="fill:none;stroke:#000000;stroke-width:0.0508" d="M 70.75 165 L 70.75 171 L 73.75 171 L 73.75 165 L 70.75 165 Z"/>
      <path id="hole_004" style="fill:none;stroke:#000000;stroke-width:0.0508" d="M 112.25 178 L 112.25 184 L 115.25 184 L 115.25 178 L 112.25 178 Z"/>
      <path id="hole_005" style="fill:none;stroke:#000000;stroke-width:0.0508" d="M 91.5 178 L 91.5 184 L 94.5 184 L 94.5 178 L 91.5 178 Z"/>
      <path id="hole_006" style="fill:none;stroke:#000000;stroke-width:0.0508" d="M 70.75 178 L 70.75 184 L 73.75 184 L 73.75 178 L 70.75 178 Z"/>
      <path id="hole_007" style="fill:none;stroke:#000000;stroke-width:0.0508" d="M 112.25 191 L 112.25 197 L 115.25 197 L 115.25 191 L 112.25 191 Z"/>
      <path id="hole_008" style="fill:none;stroke:#000000;stroke-width:0.0508" d="M 91.5 191 L 91.5 197 L 94.5 197 L 94.5 191 L 91.5 191 Z"/>
      <path id="hole_009" style="fill:none;stroke:#000000;stroke-width:0.0508" d="M 70.75 191 L 70.75 197 L 73.75 197 L 73.75 191 L 70.75 191 Z"/>
    </g>
    <g id="xdivider_001">
      <path id="side_005" style="fill:none;stroke:#000000;stroke-width:0.0508" d="M 0 209 L 0 213 L 3 213 L 3 219 L 0 219 L 0 226 L 3 226 L 3 232 L 0 232 L 0 239 L 3 239 L 3 245 L 0 245 L 0 249 L 7.14286 249 L 7.14286 252 L 13.1429 252 L 13.1429 249 L 20.2857 249 L 20.2857 252 L 26.2857 252 L 26.2857 249 L 33.4286 249 L 33.4286 252 L 39.4286 252 L 39.4286 249 L 46.5714 249 L 46.5714 252 L 52.5714 252 L 52.5714 249 L 59.7143 249 L 59.7143 252 L 65.7143 252 L 65.7143 249 L 72.8571 249 L 72.8571 252 L 78.8571 252 L 78.8571 249 L 86 249 L 86 245 L 83 245 L 83 239 L 86 239 L 86 232 L 83 232 L 83 226 L 86 226 L 86 219 L 83 219 L 83 213 L 86 213 L 86 209 L 78.8571 209 L 78.8571 206 L 72.8571 206 L 72.8571 209 L 65.7143 209 L 65.7143 206 L 59.7143 206 L 59.7143 209 L 52.5714 209 L 52.5714 206 L 46.5714 206 L 46.5714 209 L 39.4286 209 L 39.4286 206 L 33.4286 206 L 33.4286 209 L 26.2857 209 L 26.2857 206 L 20.2857 206 L 20.2857 209 L 13.1429 209 L 13.1429 206 L 7.14286 206 L 7.14286 209 L 0 209 Z"/>
      <path id="slot_001" style="fill:none;stroke:#000000;stroke-width:0.0508" d="M 62.25 206 L 62.25 229 L 65.25 229 L 65.25 206 L 62.25 206 Z"/>
      <path id="slot_002" style="fill:none;stroke:#000000;stroke-width:0.0508" d="M 41.5 206 L 41.5 229 L 44.5 229 L 44.5 206 L 41.5 206 Z"/>
      <path id="slot_003" style="fill:none;stroke:#000000;stroke-width:0.0508" d="M 20.75 206 L 20.75 229 L 23.75 229 L 23.75 206 L 20.75 206 Z"/>
    </g>
    <g id="xdivider_002">
      <path id="side_009" style="fill:none;stroke:#000000;stroke-width:0.0508" d="M 88 209 L 88 213 L 91 213 L 91 219 L 88 219 L 88 226 L 91 226 L 91 232 L 88 232 L 88 239 L 91 239 L 91 245 L 88 245 L 88 249 L 95.1429 249 L 95.1429 252 L 101.143 252 L 101.143 249 L 108.286 249 L 108.286 252 L 114.286 252 L 114.286 249 L 121.429 249 L 121.429 252 L 127.429 252 L 127.429 249 L 134.571 249 L 134.571 252 L 140.571 252 L 140.571 249 L 147.714 249 L 147.714 252 L 153.714 252 L 153.714 249 L 160.857 249 L 160.857 252 L 166.857 252 L 166.857 249 L 174 249 L 174 245 L 171 245 L 171 239 L 174 239 L 174 232 L 171 232 L 171 226 L 174 226 L 174 219 L 171 219 L 171 213 L 174 213 L 174 209 L 166.857 209 L 166.857 206 L 160.857 206 L 160.857 209 L 153.714 209 L 153.714 206 L 147.714 206 L 147.714 209 L 140.571 209 L 140.571 206 L 134.571 206 L 134.571 209 L 127.429 209 L 127.429 206 L 121.429 206 L 121.429 209 L 114.286 209 L 114.286 206 L 108.286 206 L 108.286 209 L 101.143 209 L 101.143 206 L 95.1429 206 L 95.1429 209 L 88 209 Z"/>
      <path id="slot_004" style="fill:none;stroke:#000000;stroke-width:0.0508" d="M 150.25 206 L 150.25 229 L 153.25 229 L 153.25 206 L 150.25 206 Z"/>
      <path id="slot_005" style="fill:none;stroke:#000000;stroke-width:0.0508" d="M 129.5 206 L 129.5 229 L 132.5 229 L 132.5 206 L 129.5 206 Z"/>
      <path id="slot_006" style="fill:none;stroke:#000000;stroke-width:0.0508" d="M 108.75 206 L 108.75 229 L 111.75 229 L 111.75 206 L 108.75 206 Z"/>
    </g>
    <g id="piece_002">
      <path id="side_013" style="fill:none;stroke:#000000;stroke-width:0.0508" d="M 5 53 L 5 56.4444 L 2 56.4444 L 2 62.4444 L 5 62.4444 L 5 68.8889 L 2 68.8889 L 2 74.8889 L 5 74.8889 L 5 81.3333 L 2 81.3333 L 2 87.3333 L 5 87.3333 L 5 93.7778 L 2 93.7778 L 2 99.7778 L 5 99.7778 L 5 106.222 L 2 106.222 L 2 112.222 L 5 112.222 L 5 118.667 L 2 118.667 L 2 124.667 L 5 124.667 L 5 131.111 L 2 131.111 L 2 137.111 L 5 137.111 L 5 143.556 L 2 143.556 L 2 149.556 L 5 149.556 L 5 153 L 9 153 L 9 156 L 15 156 L 15 153 L 22 153 L 22 156 L 28 156 L 28 153 L 35 153 L 35 156 L 41 156 L 41 153 L 45 153 L 45 149.556 L 48 149.556 L 48 143.556 L 45 143.556 L 45 137.111 L 48 137.111 L 48 131.111 L 45 131.111 L 45 124.667 L 48 124.667 L 48 118.667 L 45 118.667 L 45 112.222 L 48 112.222 L 48 106.222 L 45 106.222 L 45 99.7778 L 48 99.7778 L 48 93.7778 L 45 93.7778 L 45 87.3333 L 48 87.3333 L 48 81.3333 L 45 81.3333 L 45 74.8889 L 48 74.8889 L 48 68.8889 L 45 68.8889 L 45 62.4444 L 48 62.4444 L 48 56.4444 L 45 56.4444 L 45 53 L 41 53 L 41 50 L 35 50 L 35 53 L 28 53 L 28 50 L 22 50 L 22 53 L 15 53 L 15 50 L 9 50 L 9 53 L 5 53 Z"/>
      <path id="hole_010" style="fill:none;stroke:#000000;stroke-width:0.0508" d="M 5 87.3333 L 9 87.3333 L 9 84.3333 L 5 84.3333 L 5 87.3333 Z"/>
      <path id="hole_011" style="fill:none;stroke:#000000;stroke-width:0.0508" d="M 5 121.667 L 9 121.667 L 9 118.667 L 5 118.667 L 5 121.667 Z"/>
      <path id="hole_012" style="fill:none;stroke:#000000;stroke-width:0.0508" d="M 15 87.3333 L 22 87.3333 L 22 84.3333 L 15 84.3333 L 15 87.3333 Z"/>
      <path id="hole_013" style="fill:none;stroke:#000000;stroke-width:0.0508" d="M 15 121.667 L 22 121.667 L 22 118.667 L 15 118.667 L 15 121.667 Z"/>
      <path id="hole_014" style="fill:none;stroke:#000000;stroke-width:0.0508" d="M 28 87.3333 L 35 87.3333 L 35 84.3333 L 28 84.3333 L 28 87.3333 Z"/>
      <path id="hole_015" style="fill:none;stroke:#000000;stroke-width:0.0508" d="M 28 121.667 L 35 121.667 L 35 118.667 L 28 118.667 L 28 121.667 Z"/>
      <path id="hole_016" style="fill:none;stroke:#000000;stroke-width:0.0508" d="M 41 87.3333 L 48 87.3333 L 48 90.3333 L 41 90.3333 L 41 87.3333 Z"/>
      <path id="hole_017" style="fill:none;stroke:#000000;stroke-width:0.0508" d="M 41 121.667 L 48 121.667 L 48 124.667 L 41 124.667 L 41 121.667 Z"/>
    </g>
    <g id="ydivider_001">
      <path id="side_017" style="fill:none;stroke:#000000;stroke-width:0.0508" d="M 3 257 L 3 260.444 L 0 260.444 L 0 266.444 L 3 266.444 L 3 272.889 L 0 272.889 L 0 278.889 L 3 278.889 L 3 285.333 L 0 285.333 L 0 291.333 L 3 291.333 L 3 297.778 L 0 297.778 L 0 303.778 L 3 303.778 L 3 310.222 L 0 310.222 L 0 316.222 L 3 316.222 L 3 322.667 L 0 322.667 L 0 328.667 L 3 328.667 L 3 335.111 L 0 335.111 L 0 341.111 L 3 341.111 L 3 347.556 L 0 347.556 L 0 353.556 L 3 353.556 L 3 357 L 7 357 L 7 360 L 13 360 L 13 357 L 20 357 L 20 360 L 26 360 L 26 357 L 33 357 L 33 360 L 39 360 L 39 357 L 43 357 L 43 353.556 L 46 353.556 L 46 347.556 L 43 347.556 L 43 341.111 L 46 341.111 L 46 335.111 L 43 335.111 L 43 328.667 L 46 328.667 L 46 322.667 L 43 322.667 L 43 316.222 L 46 316.222 L 46 310.222 L 43 310.222 L 43 303.778 L 46 303.778 L 46 297.778 L 43 297.778 L 43 291.333 L 46 291.333 L 46 285.333 L 43 285.333 L 43 278.889 L 46 278.889 L 46 272.889 L 43 272.889 L 43 266.444 L 46 266.444 L 46 260.444 L 43 260.444 L 43 257 L 39 257 L 39 254 L 33 254 L 33 257 L 26 257 L 26 254 L 20 254 L 20 257 L 13 257 L 13 254 L 7 254 L 7 257 L 3 257 Z"/>
      <path id="slot_007" style="fill:none;stroke:#000000;stroke-width:0.0508" d="M 0 288.333 L 23 288.333 L 23 291.333 L 0 291.333 L 0 288.333 Z"/>
      <path id="slot_008" style="fill:none;stroke:#000000;stroke-width:0.0508" d="M 0 322.667 L 23 322.667 L 23 325.667 L 0 325.667 L 0 322.667 Z"/>
    </g>
    <g id="ydivider_002">
      <path id="side_021" style="fill:none;stroke:#000000;stroke-width:0.0508" d="M 51 257 L 51 260.444 L 48 260.444 L 48 266.444 L 51 266.444 L 51 272.889 L 48 272.889 L 48 278.889 L 51 278.889 L 51 285.333 L 48 285.333 L 48 291.333 L 51 291.333 L 51 297.778 L 48 297.778 L 48 303.778 L 51 303.778 L 51 310.222 L 48 310.222 L 48 316.222 L 51 316.222 L 51 322.667 L 48 322.667 L 48 328.667 L 51 328.667 L 51 335.111 L 48 335.111 L 48 341.111 L 51 341.111 L 51 347.556 L 48 347.556 L 48 353.556 L 51 353.556 L 51 357 L 55 357 L 55 360 L 61 360 L 61 357 L 68 357 L 68 360 L 74 360 L 74 357 L 81 357 L 81 360 L 87 360 L 87 357 L 91 357 L 91 353.556 L 94 353.556 L 94 347.556 L 91 347.556 L 91 341.111 L 94 341.111 L 94 335.111 L 91 335.111 L 91 328.667 L 94 328.667 L 94 322.667 L 91 322.667 L 91 316.222 L 94 316.222 L 94 310.222 L 91 310.222 L 91 303.778 L 94 303.778 L 94 297.778 L 91 297.778 L 91 291.333 L 94 291.333 L 94 285.333 L 91 285.333 L 91 278.889 L 94 278.889 L 94 272.889 L 91 272.889 L 91 266.444 L 94 266.444 L 94 260.444 L 91 260.444 L 91 257 L 87 257 L 87 254 L 81 254 L 81 257 L 74 257 L 74 254 L 68 254 L 68 257 L 61 257 L 61 254 L 55 254 L 55 257 L 51 257 Z"/>
      <path id="slot_009" style="fill:none;stroke:#000000;stroke-width:0.0508" d="M 48 288.333 L 71 288.333 L 71 291.333 L 48 291.333 L 48 288.333 Z"/>
      <path id="slot_010" style="fill:none;stroke:#000000;stroke-width:0.0508" d="M 48 322.667 L 71 322.667 L 71 325.667 L 48 325.667 L 48 322.667 Z"/>
    </g>
    <g id="ydivider_003">
      <path id="side_025" style="fill:none;stroke:#000000;stroke-width:0.0508" d="M 99 257 L 99 260.444 L 96 260.444 L 96 266.444 L 99 266.444 L 99 272.889 L 96 272.889 L 96 278.889 L 99 278.889 L 99 285.333 L 96 285.333 L 96 291.333 L 99 291.333 L 99 297.778 L 96 297.778 L 96 303.778 L 99 303.778 L 99 310.222 L 96 310.222 L 96 316.222 L 99 316.222 L 99 322.667 L 96 322.667 L 96 328.667 L 99 328.667 L 99 335.111 L 96 335.111 L 96 341.111 L 99 341.111 L 99 347.556 L 96 347.556 L 96 353.556 L 99 353.556 L 99 357 L 103 357 L 103 360 L 109 360 L 109 357 L 116 357 L 116 360 L 122 360 L 122 357 L 129 357 L 129 360 L 135 360 L 135 357 L 139 357 L 139 353.556 L 142 353.556 L 142 347.556 L 139 347.556 L 139 341.111 L 142 341.111 L 142 335.111 L 139 335.111 L 139 328.667 L 142 328.667 L 142 322.667 L 139 322.667 L 139 316.222 L 142 316.222 L 142 310.222 L 139 310.222 L 139 303.778 L 142 303.778 L 142 297.778 L 139 297.778 L 139 291.333 L 142 291.333 L 142 285.333 L 139 285.333 L 139 278.889 L 142 278.889 L 142 272.889 L 139 272.889 L 139 266.444 L 142 266.444 L 142 260.444 L 139 260.444 L 139 257 L 135 257 L 135 254 L 129 254 L 129 257 L 122 257 L 122 254 L 116 254 L 116 257 L 109 257 L 109 254 L 103 254 L 103 257 L 99 257 Z"/>
      <path id="slot_011" style="fill:none;stroke:#000000;stroke-width:0.0508" d="M 96 288.333 L 119 288.333 L 119 291.333 L 96 291.333 L 96 288.333 Z"/>
      <path id="slot_012" style="fill:none;stroke:#000000;stroke-width:0.0508" d="M 96 322.667 L 119 322.667 L 119 325.667 L 96 325.667 L 96 322.667 Z"/>
    </g>
    <g id="piece_003">
      <path id="side_029" style="fill:none;stroke:#000000;stroke-width:0.0508" d="M 50 50 L 50 56.4444 L 53 56.4444 L 53 62.4444 L 50 62.4444 L 50 68.8889 L 53 68.8889 L 53 74.8889 L 50 74.8889 L 50 81.3333 L 53 81.3333 L 53 87.3333 L 50 87.3333 L 50 93.7778 L 53 93.7778 L 53 99.7778 L 50 99.7778 L 50 106.222 L 53 106.222 L 53 112.222 L 50 112.222 L 50 118.667 L 53 118.667 L 53 124.667 L 50 124.667 L 50 131.111 L 53 131.111 L 53 137.111 L 50 137.111 L 50 143.556 L 53 143.556 L 53 149.556 L 50 149.556 L 50 156 L 57.1429 156 L 57.1429 153 L 63.1429 153 L 63.1429 156 L 70.2857 156 L 70.2857 153 L 76.2857 153 L 76.2857 156 L 83.4286 156 L 83.4286 153 L 89.4286 153 L 89.4286 156 L 96.5714 156 L 96.5714 153 L 102.571 153 L 102.571 156 L 109.714 156 L 109.714 153 L 115.714 153 L 115.714 156 L 122.857 156 L 122.857 153 L 128.857 153 L 128.857 156 L 136 156 L 136 149.556 L 133 149.556 L 133 143.556 L 136 143.556 L 136 137.111 L 133 137.111 L 133 131.111 L 136 131.111 L 136 124.667 L 133 124.667 L 133 118.667 L 136 118.667 L 136 112.222 L 133 112.222 L 133 106.222 L 136 106.222 L 136 99.7778 L 133 99.7778 L 133 93.7778 L 136 93.7778 L 136 87.3333 L 133 87.3333 L 133 81.3333 L 136 81.3333 L 136 74.8889 L 133 74.8889 L 133 68.8889 L 136 68.8889 L 136 62.4444 L 133 62.4444 L 133 56.4444 L 136 56.4444 L 136 50 L 128.857 50 L 128.857 53 L 122.857 53 L 122.857 50 L 115.714 50 L 115.714 53 L 109.714 53 L 109.714 50 L 102.571 50 L 102.571 53 L 96.5714 53 L 96.5714 50 L 89.4286 50 L 89.4286 53 L 83.4286 53 L 83.4286 50 L 76.2857 50 L 76.2857 53 L 70.2857 53 L 70.2857 50 L 63.1429 50 L 63.1429 53 L 57.1429 53 L 57.1429 50 L 50 50 Z"/>
      <path id="hole_018" style="fill:none;stroke:#000000;stroke-width:0.0508" d="M 57.1429 87.3333 L 63.1429 87.3333 L 63.1429 84.3333 L 57.1429 84.3333 L 57.1429 87.3333 Z"/>
      <path id="hole_019" style="fill:none;stroke:#000000;stroke-width:0.0508" d="M 57.1429 121.667 L 63.1429 121.667 L 63.1429 118.667 L 57.1429 118.667 L 57.1429 121.667 Z"/>
      <path id="hole_020" style="fill:none;stroke:#000000;stroke-width:0.0508" d="M 70.2857 87.3333 L 76.2857 87.3333 L 76.2857 84.3333 L 70.2857 84.3333 L 70.2857 87.3333 Z"/>
      <path id="hole_021" style="fill:none;stroke:#000000;stroke-width:0.0508" d="M 70.2857 121.667 L 76.2857 121.667 L 76.2857 118.667 L 70.2857 118.667 L 70.2857 121.667 Z"/>
      <path id="hole_022" style="fill:none;stroke:#000000;stroke-width:0.0508" d="M 83.4286 87.3333 L 89.4286 87.3333 L 89.4286 84.3333 L 83.4286 84.3333 L 83.4286 87.3333 Z"/>
      <path id="hole_023" style="fill:none;stroke:#000000;stroke-width:0.0508" d="M 83.4286 121.667 L 89.4286 121.667 L 89.4286 118.667 L 83.4286 118.667 L 83.4286 121.667 Z"/>
      <path id="hole_024" style="fill:none;stroke:#000000;stroke-width:0.0508" d="M 96.5714 87.3333 L 102.571 87.3333 L 102.571 84.3333 L 96.5714 84.3333 L 96.5714 87.3333 Z"/>
      <path id="hole_025" style="fill:none;stroke:#000000;stroke-width:0.0508" d="M 96.5714 121.667 L 102.571 121.667 L 102.571 118.667 L 96.5714 118.667 L 96.5714 121.667 Z"/>
      <path id="hole_026" style="fill:none;stroke:#000000;stroke-width:0.0508" d="M 109.714 87.3333 L 115.714 87.3333 L 115.714 84.3333 L 109.714 84.3333 L 109.714 87.3333 Z"/>
      <path id="hole_027" style="fill:none;stroke:#000000;stroke-width:0.0508" d="M 109.714 121.667 L 115.714 121.667 L 115.714 118.667 L 109.714 118.667 L 109.714 121.667 Z"/>
      <path id="hole_028" style="fill:none;stroke:#000000;stroke-width:0.0508" d="M 122.857 87.3333 L 128.857 87.3333 L 128.857 84.3333 L 122.857 84.3333 L 122.857 87.3333 Z"/>
      <path id="hole_029" style="fill:none;stroke:#000000;stroke-width:0.0508" d="M 122.857 121.667 L 128.857 121.667 L 128.857 118.667 L 122.857 118.667 L 122.857 121.667 Z"/>
      <path id="hole_030" style="fill:none;stroke:#000000;stroke-width:0.0508" d="M 112.25 56.4444 L 112.25 62.4444 L 115.25 62.4444 L 115.25 56.4444 L 112.25 56.4444 Z"/>
      <path id="hole_031" style="fill:none;stroke:#000000;stroke-width:0.0508" d="M 91.5 56.4444 L 91.5 62.4444 L 94.5 62.4444 L 94.5 56.4444 L 91.5 56.4444 Z"/>
      <path id="hole_032" style="fill:none;stroke:#000000;stroke-width:0.0508" d="M 70.75 56.4444 L 70.75 62.4444 L 73.75 62.4444 L 73.75 56.4444 L 70.75 56.4444 Z"/>
      <path id="hole_033" style="fill:none;stroke:#000000;stroke-width:0.0508" d="M 112.25 68.8889 L 112.25 74.8889 L 115.25 74.8889 L 115.25 68.8889 L 112.25 68.8889 Z"/>
      <path id="hole_034" style="fill:none;stroke:#000000;stroke-width:0.0508" d="M 91.5 68.8889 L 91.5 74.8889 L 94.5 74.8889 L 94.5 68.8889 L 91.5 68.8889 Z"/>
      <path id="hole_035" style="fill:none;stroke:#000000;stroke-width:0.0508" d="M 70.75 68.8889 L 70.75 74.8889 L 73.75 74.8889 L 73.75 68.8889 L 70.75 68.8889 Z"/>
      <path id="hole_036" style="fill:none;stroke:#000000;stroke-width:0.0508" d="M 112.25 81.3333 L 112.25 87.3333 L 115.25 87.3333 L 115.25 81.3333 L 112.25 81.3333 Z"/>
      <path id="hole_037" style="fill:none;stroke:#000000;stroke-width:0.0508" d="M 91.5 81.3333 L 91.5 87.3333 L 94.5 87.3333 L 94.5 81.3333 L 91.5 81.3333 Z"/>
      <path id="hole_038" style="fill:none;stroke:#000000;stroke-width:0.0508" d="M 70.75 81.3333 L 70.75 87.3333 L 73.75 87.3333 L 73.75 81.3333 L 70.75 81.3333 Z"/>
      <path id="hole_039" style="fill:none;stroke:#000000;stroke-width:0.0508" d="M 112.25 93.7778 L 112.25 99.7778 L 115.25 99.7778 L 115.25 93.7778 L 112.25 93.7778 Z"/>
      <path id="hole_040" style="fill:none;stroke:#000000;stroke-width:0.0508" d="M 91.5 93.7778 L 91.5 99.7778 L 94.5 99.7778 L 94.5 93.7778 L 91.5 93.7778 Z"/>
      <path id="hole_041" style="fill:none;stroke:#000000;stroke-width:0.0508" d="M 70.75 93.7778 L 70.75 99.7778 L 73.75 99.7778 L 73.75 93.7778 L 70.75 93.7778 Z"/>
      <path id="hole_042" style="fill:none;stroke:#000000;stroke-width:0.0508" d="M 112.25 106.222 L 112.25 112.222 L 115.25 112.222 L 115.25 106.222 L 112.25 106.222 Z"/>
      <path id="hole_043" style="fill:none;stroke:#000000;stroke-width:0.0508" d="M 91.5 106.222 L 91.5 112.222 L 94.5 112.222 L 94.5 106.222 L 91.5 106.222 Z"/>
      <path id="hole_044" style="fill:none;stroke:#000000;stroke-width:0.0508" d="M 70.75 106.222 L 70.75 112.222 L 73.75 112.222 L 73.75 106.222 L 70.75 106.222 Z"/>
      <path id="hole_045" style="fill:none;stroke:#000000;stroke-width:0.0508" d="M 112.25 118.667 L 112.25 124.667 L 115.25 124.667 L 115.25 118.667 L 112.25 118.667 Z"/>
      <path id="hole_046" style="fill:none;stroke:#000000;stroke-width:0.0508" d="M 91.5 118.667 L 91.5 124.667 L 94.5 124.667 L 94.5 118.667 L 91.5 118.667 Z"/>
      <path id="hole_047" style="fill:none;stroke:#000000;stroke-width:0.0508" d="M 70.75 118.667 L 70.75 124.667 L 73.75 124.667 L 73.75 118.667 L 70.75 118.667 Z"/>
      <path id="hole_048" style="fill:none;stroke:#000000;stroke-width:0.0508" d="M 112.25 131.111 L 112.25 137.111 L 115.25 137.111 L 115.25 131.111 L 112.25 131.111 Z"/>
      <path id="hole_049" style="fill:none;stroke:#000000;stroke-width:0.0508" d="M 91.5 131.111 L 91.5 137.111 L 94.5 137.111 L 94.5 131.111 L 91.5 131.111 Z"/>
      <path id="hole_050" style="fill:none;stroke:#000000;stroke-width:0.0508" d="M 70.75 131.111 L 70.75 137.111 L 73.75 137.111 L 73.75 131.111 L 70.75 131.111 Z"/>
      <path id="hole_051" style="fill:none;stroke:#000000;stroke-width:0.0508" d="M 112.25 143.556 L 112.25 149.556 L 115.25 149.556 L 115.25 143.556 L 112.25 143.556 Z"/>
      <path id="hole_052" style="fill:none;stroke:#000000;stroke-width:0.0508" d="M 91.5 143.556 L 91.5 149.556 L 94.5 149.556 L 94.5 143.556 L 91.5 143.556 Z"/>
      <path id="hole_053" style="fill:none;stroke:#000000;stroke-width:0.0508" d="M 70.75 143.556 L 70.75 149.556 L 73.75 149.556 L 73.75 143.556 L 70.75 143.556 Z"/>
    </g>
    <g id="piece_004">
      <path id="side_033" style="fill:none;stroke:#000000;stroke-width:0.0508" d="M 141 53 L 141 56.4444 L 138 56.4444 L 138 62.4444 L 141 62.4444 L 141 68.8889 L 138 68.8889 L 138 74.8889 L 141 74.8889 L 141 81.3333 L 138 81.3333 L 138 87.3333 L 141 87.3333 L 141 93.7778 L 138 93.7778 L 138 99.7778 L 141 99.7778 L 141 106.222 L 138 106.222 L 138 112.222 L 141 112.222 L 141 118.667 L 138 118.667 L 138 124.667 L 141 124.667 L 141 131.111 L 138 131.111 L 138 137.111 L 141 137.111 L 141 143.556 L 138 143.556 L 138 149.556 L 141 149.556 L 141 153 L 145 153 L 145 156 L 151 156 L 151 153 L 158 153 L 158 156 L 164 156 L 164 153 L 171 153 L 171 156 L 177 156 L 177 153 L 181 153 L 181 149.556 L 184 149.556 L 184 143.556 L 181 143.556 L 181 137.111 L 184 137.111 L 184 131.111 L 181 131.111 L 181 124.667 L 184 124.667 L 184 118.667 L 181 118.667 L 181 112.222 L 184 112.222 L 184 106.222 L 181 106.222 L 181 99.7778 L 184 99.7778 L 184 93.7778 L 181 93.7778 L 181 87.3333 L 184 87.3333 L 184 81.3333 L 181 81.3333 L 181 74.8889 L 184 74.8889 L 184 68.8889 L 181 68.8889 L 181 62.4444 L 184 62.4444 L 184 56.4444 L 181 56.4444 L 181 53 L 177 53 L 177 50 L 171 50 L 171 53 L 164 53 L 164 50 L 158 50 L 158 53 L 151 53 L 151 50 L 145 50 L 145 53 L 141 53 Z"/>
      <path id="hole_054" style="fill:none;stroke:#000000;stroke-width:0.0508" d="M 141 87.3333 L 145 87.3333 L 145 84.3333 L 141 84.3333 L 141 87.3333 Z"/>
      <path id="hole_055" style="fill:none;stroke:#000000;stroke-width:0.0508" d="M 141 121.667 L 145 121.667 L 145 118.667 L 141 118.667 L 141 121.667 Z"/>
      <path id="hole_056" style="fill:none;stroke:#000000;stroke-width:0.0508" d="M 151 87.3333 L 158 87.3333 L 158 84.3333 L 151 84.3333 L 151 87.3333 Z"/>
      <path id="hole_057" style="fill:none;stroke:#000000;stroke-width:0.0508" d="M 151 121.667 L 158 121.667 L 158 118.667 L 151 118.667 L 151 121.667 Z"/>
      <path id="hole_058" style="fill:none;stroke:#000000;stroke-width:0.0508" d="M 164 87.3333 L 171 87.3333 L 171 84.3333 L 164 84.3333 L 164 87.3333 Z"/>
      <path id="hole_059" style="fill:none;stroke:#000000;stroke-width:0.0508" d="M 164 121.667 L 171 121.667 L 171 118.667 L 164 118.667 L 164 121.667 Z"/>
      <path id="hole_060" style="fill:none;stroke:#000000;stroke-width:0.0508" d="M 177 87.3333 L 184 87.3333 L 184 90.3333 L 177 90.3333 L 177 87.3333 Z"/>
      <path id="hole_061" style="fill:none;stroke:#000000;stroke-width:0.0508" d="M 177 121.667 L 184 121.667 L 184 124.667 L 177 124.667 L 177 121.667 Z"/>
    </g>
    <g id="piece_005">
      <path id="side_037" style="fill:none;stroke:#000000;stroke-width:0.0508" d="M 186 50 L 186 56.4444 L 189 56.4444 L 189 62.4444 L 186 62.4444 L 186 68.8889 L 189 68.8889 L 189 74.8889 L 186 74.8889 L 186 81.3333 L 189 81.3333 L 189 87.3333 L 186 87.3333 L 186 93.7778 L 189 93.7778 L 189 99.7778 L 186 99.7778 L 186 106.222 L 189 106.222 L 189 112.222 L 186 112.222 L 186 118.667 L 189 118.667 L 189 124.667 L 186 124.667 L 186 131.111 L 189 131.111 L 189 137.111 L 186 137.111 L 186 143.556 L 189 143.556 L 189 149.556 L 186 149.556 L 186 156 L 193.143 156 L 193.143 153 L 199.143 153 L 199.143 156 L 206.286 156 L 206.286 153 L 212.286 153 L 212.286 156 L 219.429 156 L 219.429 153 L 225.429 153 L 225.429 156 L 232.571 156 L 232.571 153 L 238.571 153 L 238.571 156 L 245.714 156 L 245.714 153 L 251.714 153 L 251.714 156 L 258.857 156 L 258.857 153 L 264.857 153 L 264.857 156 L 272 156 L 272 149.556 L 269 149.556 L 269 143.556 L 272 143.556 L 272 137.111 L 269 137.111 L 269 131.111 L 272 131.111 L 272 124.667 L 269 124.667 L 269 118.667 L 272 118.667 L 272 112.222 L 269 112.222 L 269 106.222 L 272 106.222 L 272 99.7778 L 269 99.7778 L 269 93.7778 L 272 93.7778 L 272 87.3333 L 269 87.3333 L 269 81.3333 L 272 81.3333 L 272 74.8889 L 269 74.8889 L 269 68.8889 L 272 68.8889 L 272 62.4444 L 269 62.4444 L 269 56.4444 L 272 56.4444 L 272 50 L 264.857 50 L 264.857 53 L 258.857 53 L 258.857 50 L 251.714 50 L 251.714 53 L 245.714 53 L 245.714 50 L 238.571 50 L 238.571 53 L 232.571 53 L 232.571 50 L 225.429 50 L 225.429 53 L 219.429 53 L 219.429 50 L 212.286 50 L 212.286 53 L 206.286 53 L 206.286 50 L 199.143 50 L 199.143 53 L 193.143 53 L 193.143 50 L 186 50 Z"/>
      <path id="hole_062" style="fill:none;stroke:#000000;stroke-width:0.0508" d="M 193.143 87.3333 L 199.143 87.3333 L 199.143 84.3333 L 193.143 84.3333 L 193.143 87.3333 Z"/>
      <path id="hole_063" style="fill:none;stroke:#000000;stroke-width:0.0508" d="M 193.143 121.667 L 199.143 121.667 L 199.143 118.667 L 193.143 118.667 L 193.143 121.667 Z"/>
      <path id="hole_064" style="fill:none;stroke:#000000;stroke-width:0.0508" d="M 206.286 87.3333 L 212.286 87.3333 L 212.286 84.3333 L 206.286 84.3333 L 206.286 87.3333 Z"/>
      <path id="hole_065" style="fill:none;stroke:#000000;stroke-width:0.0508" d="M 206.286 121.667 L 212.286 121.667 L 212.286 118.667 L 206.286 118.667 L 206.286 121.667 Z"/>
      <path id="hole_066" style="fill:none;stroke:#000000;stroke-width:0.0508" d="M 219.429 87.3333 L 225.429 87.3333 L 225.429 84.3333 L 219.429 84.3333 L 219.429 87.3333 Z"/>
      <path id="hole_067" style="fill:none;stroke:#000000;stroke-width:0.0508" d="M 219.429 121.667 L 225.429 121.667 L 225.429 118.667 L 219.429 118.667 L 219.429 121.667 Z"/>
      <path id="hole_068" style="fill:none;stroke:#000000;stroke-width:0.0508" d="M 232.571 87.3333 L 238.571 87.3333 L 238.571 84.3333 L 232.571 84.3333 L 232.571 87.3333 Z"/>
      <path id="hole_069" style="fill:none;stroke:#000000;stroke-width:0.0508" d="M 232.571 121.667 L 238.571 121.667 L 238.571 118.667 L 232.571 118.667 L 232.571 121.667 Z"/>
      <path id="hole_070" style="fill:none;stroke:#000000;stroke-width:0.0508" d="M 245.714 87.3333 L 251.714 87.3333 L 251.714 84.3333 L 245.714 84.3333 L 245.714 87.3333 Z"/>
      <path id="hole_071" style="fill:none;stroke:#000000;stroke-width:0.0508" d="M 245.714 121.667 L 251.714 121.667 L 251.714 118.667 L 245.714 118.667 L 245.714 121.667 Z"/>
      <path id="hole_072" style="fill:none;stroke:#000000;stroke-width:0.0508" d="M 258.857 87.3333 L 264.857 87.3333 L 264.857 84.3333 L 258.857 84.3333 L 258.857 87.3333 Z"/>
      <path id="hole_073" style="fill:none;stroke:#000000;stroke-width:0.0508" d="M 258.857 121.667 L 264.857 121.667 L 264.857 118.667 L 258.857 118.667 L 258.857 121.667 Z"/>
      <path id="hole_074" style="fill:none;stroke:#000000;stroke-width:0.0508" d="M 248.25 56.4444 L 248.25 62.4444 L 251.25 62.4444 L 251.25 56.4444 L 248.25 56.4444 Z"/>
      <path id="hole_075" style="fill:none;stroke:#000000;stroke-width:0.0508" d="M 227.5 56.4444 L 227.5 62.4444 L 230.5 62.4444 L 230.5 56.4444 L 227.5 56.4444 Z"/>
      <path id="hole_076" style="fill:none;stroke:#000000;stroke-width:0.0508" d="M 206.75 56.4444 L 206.75 62.4444 L 209.75 62.4444 L 209.75 56.4444 L 206.75 56.4444 Z"/>
      <path id="hole_077" style="fill:none;stroke:#000000;stroke-width:0.0508" d="M 248.25 68.8889 L 248.25 74.8889 L 251.25 74.8889 L 251.25 68.8889 L 248.25 68.8889 Z"/>
      <path id="hole_078" style="fill:none;stroke:#000000;stroke-width:0.0508" d="M 227.5 68.8889 L 227.5 74.8889 L 230.5 74.8889 L 230.5 68.8889 L 227.5 68.8889 Z"/>
      <path id="hole_079" style="fill:none;stroke:#000000;stroke-width:0.0508" d="M 206.75 68.8889 L 206.75 74.8889 L 209.75 74.8889 L 209.75 68.8889 L 206.75 68.8889 Z"/>
      <path id="hole_080" style="fill:none;stroke:#000000;stroke-width:0.0508" d="M 248.25 81.3333 L 248.25 87.3333 L 251.25 87.3333 L 251.25 81.3333 L 248.25 81.3333 Z"/>
      <path id="hole_081" style="fill:none;stroke:#000000;stroke-width:0.0508" d="M 227.5 81.3333 L 227.5 87.3333 L 230.5 87.3333 L 230.5 81.3333 L 227.5 81.3333 Z"/>
      <path id="hole_082" style="fill:none;stroke:#000000;stroke-width:0.0508" d="M 206.75 81.3333 L 206.75 87.3333 L 209.75 87.3333 L 209.75 81.3333 L 206.75 81.3333 Z"/>
      <path id="hole_083" style="fill:none;stroke:#000000;stroke-width:0.0508" d="M 248.25 93.7778 L 248.25 99.7778 L 251.25 99.7778 L 251.25 93.7778 L 248.25 93.7778 Z"/>
      <path id="hole_084" style="fill:none;stroke:#000000;stroke-width:0.0508" d="M 227.5 93.7778 L 227.5 99.7778 L 230.5 99.7778 L 230.5 93.7778 L 227.5 93.7778 Z"/>
      <path id="hole_085" style="fill:none;stroke:#000000;stroke-width:0.0508" d="M 206.75 93.7778 L 206.75 99.7778 L 209.75 99.7778 L 209.75 93.7778 L 206.75 93.7778 Z"/>
      <path id="hole_086" style="fill:none;stroke:#000000;stroke-width:0.0508" d="M 248.25 106.222 L 248.25 112.222 L 251.25 112.222 L 251.25 106.222 L 248.25 106.222 Z"/>
      <path id="hole_087" style="fill:none;stroke:#000000;stroke-width:0.0508" d="M 227.5 106.222 L 227.5 112.222 L 230.5 112.222 L 230.5 106.222 L 227.5 106.222 Z"/>
      <path id="hole_088" style="fill:none;stroke:#000000;stroke-width:0.0508" d="M 206.75 106.222 L 206.75 112.222 L 209.75 112.222 L 209.75 106.222 L 206.75 106.222 Z"/>
      <path id="hole_089" style="fill:none;stroke:#000000;stroke-width:0.0508" d="M 248.25 118.667 L 248.25 124.667 L 251.25 124.667 L 251.25 118.667 L 248.25 118.667 Z"/>
      <path id="hole_090" style="fill:none;stroke:#000000;stroke-width:0.0508" d="M 227.5 118.667 L 227.5 124.667 L 230.5 124.667 L 230.5 118.667 L 227.5 118.667 Z"/>
      <path id="hole_091" style="fill:none;stroke:#000000;stroke-width:0.0508" d="M 206.75 118.667 L 206.75 124.667 L 209.75 124.667 L 209.75 118.667 L 206.75 118.667 Z"/>
      <path id="hole_092" style="fill:none;stroke:#000000;stroke-width:0.0508" d="M 248.25 131.111 L 248.25 137.111 L 251.25 137.111 L 251.25 131.111 L 248.25 131.111 Z"/>
      <path id="hole_093" style="fill:none;stroke:#000000;stroke-width:0.0508" d="M 227.5 131.111 L 227.5 137.111 L 230.5 137.111 L 230.5 131.111 L 227.5 131.111 Z"/>
      <path id="hole_094" style="fill:none;stroke:#000000;stroke-width:0.0508" d="M 206.75 131.111 L 206.75 137.111 L 209.75 137.111 L 209.75 131.111 L 206.75 131.111 Z"/>
      <path id="hole_095" style="fill:none;stroke:#000000;stroke-width:0.0508" d="M 248.25 143.556 L 248.25 149.556 L 251.25 149.556 L 251.25 143.556 L 248.25 143.556 Z"/>
      <path id="hole_096" style="fill:none;stroke:#000000;stroke-width:0.0508" d="M 227.5 143.556 L 227.5 149.556 L 230.5 149.556 L 230.5 143.556 L 227.5 143.556 Z"/>
      <path id="hole_097" style="fill:none;stroke:#000000;stroke-width:0.0508" d="M 206.75 143.556 L 206.75 149.556 L 209.75 149.556 L 209.75 143.556 L 206.75 143.556 Z"/>
    </g>
    <g id="piece_006">
      <path id="side_041" style="fill:none;stroke:#000000;stroke-width:0.0508" d="M 50 5 L 50 9 L 53 9 L 53 15 L 50 15 L 50 22 L 53 22 L 53 28 L 50 28 L 50 35 L 53 35 L 53 41 L 50 41 L 50 45 L 57.1429 45 L 57.1429 48 L 63.1429 48 L 63.1429 45 L 70.2857 45 L 70.2857 48 L 76.2857 48 L 76.2857 45 L 83.4286 45 L 83.4286 48 L 89.4286 48 L 89.4286 45 L 96.5714 45 L 96.5714 48 L 102.571 48 L 102.571 45 L 109.714 45 L 109.714 48 L 115.714 48 L 115.714 45 L 122.857 45 L 122.857 48 L 128.857 48 L 128.857 45 L 136 45 L 136 41 L 133 41 L 133 35 L 136 35 L 136 28 L 133 28 L 133 22 L 136 22 L 136 15 L 133 15 L 133 9 L 136 9 L 136 5 L 128.857 5 L 128.857 2 L 122.857 2 L 122.857 5 L 115.714 5 L 115.714 2 L 109.714 2 L 109.714 5 L 102.571 5 L 102.571 2 L 96.5714 2 L 96.5714 5 L 89.4286 5 L 89.4286 2 L 83.4286 2 L 83.4286 5 L 76.2857 5 L 76.2857 2 L 70.2857 2 L 70.2857 5 L 63.1429 5 L 63.1429 2 L 57.1429 2 L 57.1429 5 L 50 5 Z"/>
      <path id="hole_098" style="fill:none;stroke:#000000;stroke-width:0.0508" d="M 112.25 9 L 112.25 15 L 115.25 15 L 115.25 9 L 112.25 9 Z"/>
      <path id="hole_099" style="fill:none;stroke:#000000;stroke-width:0.0508" d="M 91.5 9 L 91.5 15 L 94.5 15 L 94.5 9 L 91.5 9 Z"/>
      <path id="hole_100" style="fill:none;stroke:#000000;stroke-width:0.0508" d="M 70.75 9 L 70.75 15 L 73.75 15 L 73.75 9 L 70.75 9 Z"/>
      <path id="hole_101" style="fill:none;stroke:#000000;stroke-width:0.0508" d="M 112.25 22 L 112.25 28 L 115.25 28 L 115.25 22 L 112.25 22 Z"/>
      <path id="hole_102" style="fill:none;stroke:#000000;stroke-width:0.0508" d="M 91.5 22 L 91.5 28 L 94.5 28 L 94.5 22 L 91.5 22 Z"/>
      <path id="hole_103" style="fill:none;stroke:#000000;stroke-width:0.0508" d="M 70.75 22 L 70.75 28 L 73.75 28 L 73.75 22 L 70.75 22 Z"/>
      <path id="hole_104" style="fill:none;stroke:#000000;stroke-width:0.0508" d="M 112.25 35 L 112.25 41 L 115.25 41 L 115.25 35 L 112.25 35 Z"/>
      <path id="hole_105" style="fill:none;stroke:#000000;stroke-width:0.0508" d="M 91.5 35 L 91.5 41 L 94.5 41 L 94.5 35 L 91.5 35 Z"/>
      <path id="hole_106" style="fill:none;stroke:#000000;stroke-width:0.0508" d="M 70.75 35 L 70.75 41 L 73.75 41 L 73.75 35 L 70.75 35 Z"/>
    </g>
  </g>
</svg>