<!-- Created with Inkscape (http://www.inkscape.org/) -->
<svg xmlns:inkscape="http://www.inkscape.org/namespaces/inkscape" xmlns:sodipodi="http://sodipodi.sourceforge.net/DTD/sodipodi-0.dtd" xmlns="http://www.w3.org/2000/svg" xmlns:svg="http://www.w3.org/2000/svg" width="273mm" height="361mm" viewBox="0 0 273 361" version="1.1" id="svg5" inkscape:version="1.1.2 (0a00cf5339, 2022-02-04)" sodipodi:docname="blank.svg">
  <sodipodi:namedview id="namedview7" pagecolor="#ffffff" bordercolor="#666666" borderopacity="1.0" inkscape:pageshadow="2" inkscape:pageopacity="0.0" inkscape:pagecheckerboard="0" inkscape:document-units="mm" showgrid="false" inkscape:zoom="0.64052329" inkscape:cx="397.33138" inkscape:cy="561.25984" inkscape:window-width="2086" inkscape:window-height="1376" inkscape:window-x="0" inkscape:window-y="0" inkscape:window-maximized="1" inkscape:current-layer="layer1"/>
  <defs id="defs2"/>
  <g inkscape:label="Layer 1" inkscape:groupmode="layer" id="layer1">
    <metadata text="createArgs=['--unit=mm', '--inside=1', '--length=80', '--width=100', '--depth=40', '--equal=0', '--tab=6', '--tabtype=0', '--tabsymmetry=0', '--dimpleheight=0', '--dimplelength=0', '--hairline=1', '--thickness=3', '--kerf=0', '--style=1', '--boxtype=1', '--keydiv=0', '--spacing=2', '--div_l=2', '--div_w=3']"/>
    <g id="piece_001">
      <path id="side_001" style="fill:none;stroke:#000000;stroke-width:0.0508" d="m 50 161 l 7.1429 0 l 0 -3 l 6 0 l 0 3 l 7.1428 0 l 0 -3 l 6 0 l 0 3 l 7.1429 0 l 0 -3 l 6 0 l 0 3 l 7.1428 0 l 0 -3 l 5.9996 0 l 0 3 l 7.143 0 l 0 -3 l 6 0 l 0 3 l 7.143 0 l 0 -3 l 6 0 l 0 3 l 7.143 0"/>
      <path id="side_002" style="fill:none;stroke:#000000;stroke-width:0.0508" d="m 136 161 l 0 4 l -3 0 l 0 6 l 3 0 l 0 7 l -3 0 l 0 6 l 3 0 l 0 7 l -3 0 l 0 6 l 3 0 l 0 4"/>
      <path id="hole_001" style="fill:none;stroke:#000000;stroke-width:0.0508" d="m 112.25 165 l 0 6 l 3 0 l 0 -6 l -3 0 z"/>
      <path id="hole_002" style="fill:none;stroke:#000000;stroke-width:0.0508" d="m 91.5 165 l 0 6 l 3 0 l 0 -6 l -3 0 z"/>
      <path id="hole_003" style="fill:none;stroke:#000000;stroke-width:0.0508" d="m 70.75 165 l 0 6 l 3 0 l 0 -6 l -3 0 z"/>
      <path id="hole_004" style="fill:none;stroke:#000000;stroke-width:0.0508" d="m 112.25 178 l 0 6 l 3 0 l 0 -6 l -3 0 z"/>
      <path id="hole_005" style="fill:none;stroke:#000000;stroke-width:0.0508" d="m 91.5 178 l 0 6 l 3 0 l 0 -6 l -3 0 z"/>
      <path id="hole_006" style="fill:none;stroke:#000000;stroke-width:0.0508" d="m 70.75 178 l 0 6 l 3 0 l 0 -6 l -3 0 z"/>
      <path id="hole_007" style="fill:none;stroke:#000000;stroke-width:0.0508" d="m 112.25 191 l 0 6 l 3 0 l 0 -6 l -3 0 z"/>
      <path id="hole_008" style="fill:none;stroke:#000000;stroke-width:0.0508" d="m 91.5 191 l 0 6 l 3 0 l 0 -6 l -3 0 z"/>
      <path id="hole_009" style="fill:none;stroke:#000000;stroke-width:0.0508" d="m 70.75 191 l 0 6 l 3 0 l 0 -6 l -3 0 z"/>
      <path id="side_003" style="fill:none;stroke:#000000;stroke-width:0.0508" d="m 136 201 l -7.143 0 l 0 3 l -6 0 l 0 -3 l -7.143 0 l 0 3 l -6 0 l 0 -3 l -7.143 0 l 0 3 l -5.9996 0 l 0 -3 l -7.1428 0 l 0 3 l -6 0 l 0 -3 l -7.1429 0 l 0 3 l -6 0 l 0 -3 l -7.1428 0 l 0 3 l -6 0 l 0 -3 l -7.1429 0"/>
      <path id="side_004" style="fill:none;stroke:#000000;stroke-width:0.0508" d="m 50 201 l 0 -4 l 3 0 l 0 -6 l -3 0 l 0 -7 l 3 0 l 0 -6 l -3 0 l 0 -7 l 3 0 l 0 -6 l -3 0 l 0 -4"/>
    </g>
    <g id="xdivider_001">
      <path id="side_005" style="fill:none;stroke:#000000;stroke-width:0.0508" d="m 0 209 l 7.14286 0 l 0 -3 l 6.00004 0 l 0 3 l 7.1428 0 l 0 -3 l 6 0 l 0 3 l 7.1429 0 l 0 -3 l 6 0 l 0 3 l 7.1428 0 l 0 -3 l 6 0 l 0 3 l 7.1429 0 l 0 -3 l 6 0 l 0 3 l 7.1428 0 l 0 -3 l 6 0 l 0 3 l 7.1429 0"/>
      <path id="side_006" style="fill:none;stroke:#000000;stroke-width:0.0508" d="m 86 209 l 0 4 l -3 0 l 0 6 l 3 0 l 0 7 l -3 0 l 0 6 l 3 0 l 0 7 l -3 0 l 0 6 l 3 0 l 0 4"/>
      <path id="slot_001" style="fill:none;stroke:#000000;stroke-width:0.0508" d="m 62.25 206 l 0 23 l 3 0 l 0 -23 l -3 0 z"/>
      <path id="slot_002" style="fill:none;stroke:#000000;stroke-width:0.0508" d="m 41.5 206 l 0 23 l 3 0 l 0 -23 l -3 0 z"/>
      <path id="slot_003" style="fill:none;stroke:#000000;stroke-width:0.0508" d="m 20.75 206 l 0 23 l 3 0 l 0 -23 l -3 0 z"/>
      <path id="side_007" style="fill:none;stroke:#000000;stroke-width:0.0508" d="m 86 249 l -7.1429 0 l 0 3 l -6 0 l 0 -3 l -7.1428 0 l 0 3 l -6 0 l 0 -3 l -7.1429 0 l 0 3 l -6 0 l 0 -3 l -7.1428 0 l 0 3 l -6 0 l 0 -3 l -7.1429 0 l 0 3 l -6 0 l 0 -3 l -7.1428 0 l 0 3 l -6 0 l 0 -3 l -7.1429 0"/>
      <path id="side_008" style="fill:none;stroke:#000000;stroke-width:0.0508" d="m 0 249 l 0 -4 l 3 0 l 0 -6 l -3 0 l 0 -7 l 3 0 l 0 -6 l -3 0 l 0 -7 l 3 0 l 0 -6 l -3 0 l 0 -4"/>
    </g>
    <g id="xdivider_002">
      <path id="side_009" style="fill:none;stroke:#000000;stroke-width:0.0508" d="m 88 209 l 7.1429 0 l 0 -3 l 6.0001 0 l 0 3 l 7.143 0 l 0 -3 l 6 0 l 0 3 l 7.143 0 l 0 -3 l 6 0 l 0 3 l 7.142 0 l 0 -3 l 6 0 l 0 3 l 7.143 0 l 0 -3 l 6 0 l 0 3 l 7.143 0 l 0 -3 l 6 0 l 0 3 l 7.143 0"/>
      <path id="side_010" style="fill:none;stroke:#000000;stroke-width:0.0508" d="m 174 209 l 0 4 l -3 0 l 0 6 l 3 0 l 0 7 l -3 0 l 0 6 l 3 0 l 0 7 l -3 0 l 0 6 l 3 0 l 0 4"/>
      <path id="slot_004" style="fill:none;stroke:#000000;stroke-width:0.0508" d="m 150.25 206 l 0 23 l 3 0 l 0 -23 l -3 0 z"/>
      <path id="slot_005" style="fill:none;stroke:#000000;stroke-width:0.0508" d="m 129.5 206 l 0 23 l 3 0 l 0 -23 l -3 0 z"/>
      <path id="slot_006" style="fill:none;stroke:#000000;stroke-width:0.0508" d="m 108.75 206 l 0 23 l 3 0 l 0 -23 l -3 0 z"/>
      <path id="side_011" style="fill:none;stroke:#000000;stroke-width:0.0508" d="m 174 249 l -7.143 0 l 0 3 l -6 0 l 0 -3 l -7.143 0 l 0 3 l -6 0 l 0 -3 l -7.143 0 l 0 3 l -6 0 l 0 -3 l -7.142 0 l 0 3 l -6 0 l 0 -3 l -7.143 0 l 0 3 l -6 0 l 0 -3 l -7.143 0 l 0 3 l -6.0001 0 l 0 -3 l -7.1429 0"/>
      <path id="side_012" style="fill:none;stroke:#000000;stroke-width:0.0508" d="m 88 249 l 0 -4 l 3 0 l 0 -6 l -3 0 l 0 -7 l 3 0 l 0 -6 l -3 0 l 0 -7 l 3 0 l 0 -6 l -3 0 l 0 -4"/>
    </g>
    <g id="piece_002">
      <path id="side_013" style="fill:none;stroke:#000000;stroke-width:0.0508" d="m 5 53 l 4 0 l 0 -3 l 6 0 l 0 3 l 7 0 l 0 -3 l 6 0 l 0 3 l 7 0 l 0 -3 l 6 0 l 0 3 l 4 0"/>
      <path id="hole_010" style="fill:none;stroke:#000000;stroke-width:0.0508" d="m 5 87.3333 l 4 0 l 0 -3 l -4 0 l 0 3 z"/>
      <path id="hole_011" style="fill:none;stroke:#000000;stroke-width:0.0508" d="m 5 121.667 l 4 0 l 0 -3 l -4 0 l 0 3 z"/>
      <path id="hole_012" style="fill:none;stroke:#000000;stroke-width:0.0508" d="m 15 87.3333 l 7 0 l 0 -3 l -7 0 l 0 3 z"/>
      <path id="hole_013" style="fill:none;stroke:#000000;stroke-width:0.0508" d="m 15 121.667 l 7 0 l 0 -3 l -7 0 l 0 3 z"/>
      <path id="hole_014" style="fill:none;stroke:#000000;stroke-width:0.0508" d="m 28 87.3333 l 7 0 l 0 -3 l -7 0 l 0 3 z"/>
      <path id="hole_015" style="fill:none;stroke:#000000;stroke-width:0.0508" d="m 28 121.667 l 7 0 l 0 -3 l -7 0 l 0 3 z"/>
      <path id="hole_016" style="fill:none;stroke:#000000;stroke-width:0.0508" d="m 41 87.3333 l 4 0 l 0 -3 l -4 0 l 0 3 z"/>
      <path id="hole_017" style="fill:none;stroke:#000000;stroke-width:0.0508" d="m 41 121.667 l 4 0 l 0 -3 l -4 0 l 0 3 z"/>
      <path id="side_014" style="fill:none;stroke:#000000;stroke-width:0.0508" d="m 45 53 l 0 3.4444 l 3 0 l 0 6 l -3 0 l 0 6.4445 l 3 0 l 0 6 l -3 0 l 0 6.4444 l 3 0 l 0 6 l -3 0 l 0 6.4445 l 3 0 l 0 6 l -3 0 l 0 6.4442 l 3 0 l 0 6 l -3 0 l 0 6.445 l 3 0 l 0 6 l -3 0 l 0 6.444 l 3 0 l 0 6 l -3 0 l 0 6.445 l 3 0 l 0 6 l -3 0 l 0 3.444"/>
      <path id="side_015" style="fill:none;stroke:#000000;stroke-width:0.0508" d="m 45 153 l -4 0 l 0 3 l -6 0 l 0 -3 l -7 0 l 0 3 l -6 0 l 0 -3 l -7 0 l 0 3 l -6 0 l 0 -3 l -4 0"/>
      <path id="side_016" style="fill:none;stroke:#000000;stroke-width:0.0508" d="m 5 153 l 0 -3.444 l -3 0 l 0 -6 l 3 0 l 0 -6.445 l -3 0 l 0 -6 l 3 0 l 0 -6.444 l -3 0 l 0 -6 l 3 0 l 0 -6.445 l -3 0 l 0 -6 l 3 0 l 0 -6.4442 l -3 0 l 0 -6 l 3 0 l 0 -6.4445 l -3 0 l 0 -6 l 3 0 l 0 -6.4444 l -3 0 l 0 -6 l 3 0 l 0 -6.4445 l -3 0 l 0 -6 l 3 0 l 0 -3.4444"/>
    </g>
    <g id="ydivider_001">
      <path id="side_017" style="fill:none;stroke:#000000;stroke-width:0.0508" d="m 3 257 l 4 0 l 0 -3 l 6 0 l 0 3 l 7 0 l 0 -3 l 6 0 l 0 3 l 7 0 l 0 -3 l 6 0 l 0 3 l 4 0"/>
      <path id="slot_007" style="fill:none;stroke:#000000;stroke-width:0.0508" d="m 0 288.333 l 23 0 l 0 3 l -23 0 l 0 -3 z"/>
      <path id="slot_008" style="fill:none;stroke:#000000;stroke-width:0.0508" d="m 0 322.667 l 23 0 l 0 3 l -23 0 l 0 -3 z"/>
      <path id="side_018" style="fill:none;stroke:#000000;stroke-width:0.0508" d="m 43 257 l 0 3.444 l 3 0 l 0 6 l -3 0 l 0 6.445 l 3 0 l 0 6 l -3 0 l 0 6.444 l 3 0 l 0 6 l -3 0 l 0 6.445 l 3 0 l 0 6 l -3 0 l 0 6.444 l 3 0 l 0 6 l -3 0 l 0 6.445 l 3 0 l 0 6 l -3 0 l 0 6.444 l 3 0 l 0 6 l -3 0 l 0 6.445 l 3 0 l 0 6 l -3 0 l 0 3.444"/>
      <path id="side_019" style="fill:none;stroke:#000000;stroke-width:0.0508" d="m 43 357 l -4 0 l 0 3 l -6 0 l 0 -3 l -7 0 l 0 3 l -6 0 l 0 -3 l -7 0 l 0 3 l -6 0 l 0 -3 l -4 0"/>
      <path id="side_020" style="fill:none;stroke:#000000;stroke-width:0.0508" d="m 3 357 l 0 -3.444 l -3 0 l 0 -6 l 3 0 l 0 -6.445 l -3 0 l 0 -6 l 3 0 l 0 -6.444 l -3 0 l 0 -6 l 3 0 l 0 -6.445 l -3 0 l 0 -6 l 3 0 l 0 -6.444 l -3 0 l 0 -6 l 3 0 l 0 -6.445 l -3 0 l 0 -6 l 3 0 l 0 -6.444 l -3 0 l 0 -6 l 3 0 l 0 -6.445 l -3 0 l 0 -6 l 3 0 l 0 -3.444"/>
    </g>
    <g id="ydivider_002">
      <path id="side_021" style="fill:none;stroke:#000000;stroke-width:0.0508" d="m 51 257 l 4 0 l 0 -3 l 6 0 l 0 3 l 7 0 l 0 -3 l 6 0 l 0 3 l 7 0 l 0 -3 l 6 0 l 0 3 l 4 0"/>
      <path id="slot_009" style="fill:none;stroke:#000000;stroke-width:0.0508" d="m 48 288.333 l 23 0 l 0 3 l -23 0 l 0 -3 z"/>
      <path id="slot_010" style="fill:none;stroke:#000000;stroke-width:0.0508" d="m 48 322.667 l 23 0 l 0 3 l -23 0 l 0 -3 z"/>
      <path id="side_022" style="fill:none;stroke:#000000;stroke-width:0.0508" d="m 91 257 l 0 3.444 l 3 0 l 0 6 l -3 0 l 0 6.445 l 3 0 l 0 6 l -3 0 l 0 6.444 l 3 0 l 0 6 l -3 0 l 0 6.445 l 3 0 l 0 6 l -3 0 l 0 6.444 l 3 0 l 0 6 l -3 0 l 0 6.445 l 3 0 l 0 6 l -3 0 l 0 6.444 l 3 0 l 0 6 l -3 0 l 0 6.445 l 3 0 l 0 6 l -3 0 l 0 3.444"/>
      <path id="side_023" style="fill:none;stroke:#000000;stroke-width:0.0508" d="m 91 357 l -4 0 l 0 3 l -6 0 l 0 -3 l -7 0 l 0 3 l -6 0 l 0 -3 l -7 0 l 0 3 l -6 0 l 0 -3 l -4 0"/>
      <path id="side_024" style="fill:none;stroke:#000000;stroke-width:0.0508" d="m 51 357 l 0 -3.444 l -3 0 l 0 -6 l 3 0 l 0 -6.445 l -3 0 l 0 -6 l 3 0 l 0 -6.444 l -3 0 l 0 -6 l 3 0 l 0 -6.445 l -3 0 l 0 -6 l 3 0 l 0 -6.444 l -3 0 l 0 -6 l 3 0 l 0 -6.445 l -3 0 l 0 -6 l 3 0 l 0 -6.444 l -3 0 l 0 -6 l 3 0 l 0 -6.445 l -3 0 l 0 -6 l 3 0 l 0 -3.444"/>
    </g>
    <g id="ydivider_003">
      <path id="side_025" style="fill:none;stroke:#000000;stroke-width:0.0508" d="m 99 257 l 4 0 l 0 -3 l 6 0 l 0 3 l 7 0 l 0 -3 l 6 0 l 0 3 l 7 0 l 0 -3 l 6 0 l 0 3 l 4 0"/>
      <path id="slot_011" style="fill:none;stroke:#000000;stroke-width:0.0508" d="m 96 288.333 l 23 0 l 0 3 l -23 0 l 0 -3 z"/>
      <path id="slot_012" style="fill:none;stroke:#000000;stroke-width:0.0508" d="m 96 322.667 l 23 0 l 0 3 l -23 0 l 0 -3 z"/>
      <path id="side_026" style="fill:none;stroke:#000000;stroke-width:0.0508" d="m 139 257 l 0 3.444 l 3 0 l 0 6 l -3 0 l 0 6.445 l 3 0 l 0 6 l -3 0 l 0 6.444 l 3 0 l 0 6 l -3 0 l 0 6.445 l 3 0 l 0 6 l -3 0 l 0 6.444 l 3 0 l 0 6 l -3 0 l 0 6.445 l 3 0 l 0 6 l -3 0 l 0 6.444 l 3 0 l 0 6 l -3 0 l 0 6.445 l 3 0 l 0 6 l -3 0 l 0 3.444"/>
      <path id="side_027" style="fill:none;stroke:#000000;stroke-width:0.0508" d="m 139 357 l -4 0 l 0 3 l -6 0 l 0 -3 l -7 0 l 0 3 l -6 0 l 0 -3 l -7 0 l 0 3 l -6 0 l 0 -3 l -4 0"/>
      <path id="side_028" style="fill:none;stroke:#000000;stroke-width:0.0508" d="m 99 357 l 0 -3.444 l -3 0 l 0 -6 l 3 0 l 0 -6.445 l -3 0 l 0 -6 l 3 0 l 0 -6.444 l -3 0 l 0 -6 l 3 0 l 0 -6.445 l -3 0 l 0 -6 l 3 0 l 0 -6.444 l -3 0 l 0 -6 l 3 0 l 0 -6.445 l -3 0 l 0 -6 l 3 0 l 0 -6.444 l -3 0 l 0 -6 l 3 0 l 0 -6.445 l -3 0 l 0 -6 l 3 0 l 0 -3.444"/>
    </g>
    <g id="piece_003">
      <path id="side_029" style="fill:none;stroke:#000000;stroke-width:0.0508" d="m 50 50 l 7.1429 0 l 0 3 l 6 0 l 0 -3 l 7.1428 0 l 0 3 l 6 0 l 0 -3 l 7.1429 0 l 0 3 l 6 0 l 0 -3 l 7.1428 0 l 0 3 l 5.9996 0 l 0 -3 l 7.143 0 l 0 3 l 6 0 l 0 -3 l 7.143 0 l 0 3 l 6 0 l 0 -3 l 7.143 0"/>
      <path id="hole_018" style="fill:none;stroke:#000000;stroke-width:0.0508" d="m 57.1429 87.3333 l 6 0 l 0 -3 l -6 0 l 0 3 z"/>
      <path id="hole_019" style="fill:none;stroke:#000000;stroke-width:0.0508" d="m 57.1429 121.667 l 6 0 l 0 -3 l -6 0 l 0 3 z"/>
      <path id="hole_020" style="fill:none;stroke:#000000;stroke-width:0.0508" d="m 70.2857 87.3333 l 6 0 l 0 -3 l -6 0 l 0 3 z"/>
      <path id="hole_021" style="fill:none;stroke:#000000;stroke-width:0.0508" d="m 70.2857 121.667 l 6 0 l 0 -3 l -6 0 l 0 3 z"/>
      <path id="hole_022" style="fill:none;stroke:#000000;stroke-width:0.0508" d="m 83.4286 87.3333 l 6 0 l 0 -3 l -6 0 l 0 3 z"/>
      <path id="hole_023" style="fill:none;stroke:#000000;stroke-width:0.0508" d="m 83.4286 121.667 l 6 0 l 0 -3 l -6 0 l 0 3 z"/>
      <path id="hole_024" style="fill:none;stroke:#000000;stroke-width:0.0508" d="m 96.5714 87.3333 l 5.9996 0 l 0 -3 l -5.9996 0 l 0 3 z"/>
      <path id="hole_025" style="fill:none;stroke:#000000;stroke-width:0.0508" d="m 96.5714 121.667 l 5.9996 0 l 0 -3 l -5.9996 0 l 0 3 z"/>
      <path id="hole_026" style="fill:none;stroke:#000000;stroke-width:0.0508" d="m 109.714 87.3333 l 6 0 l 0 -3 l -6 0 l 0 3 z"/>
      <path id="hole_027" style="fill:none;stroke:#000000;stroke-width:0.0508" d="m 109.714 121.667 l 6 0 l 0 -3 l -6 0 l 0 3 z"/>
      <path id="hole_028" style="fill:none;stroke:#000000;stroke-width:0.0508" d="m 122.857 87.3333 l 6 0 l 0 -3 l -6 0 l 0 3 z"/>
      <path id="hole_029" style="fill:none;stroke:#000000;stroke-width:0.0508" d="m 122.857 121.667 l 6 0 l 0 -3 l -6 0 l 0 3 z"/>
      <path id="side_030" style="fill:none;stroke:#000000;stroke-width:0.0508" d="m 136 50 l 0 6.4444 l -3 0 l 0 6 l 3 0 l 0 6.4445 l -3 0 l 0 6 l 3 0 l 0 6.4444 l -3 0 l 0 6 l 3 0 l 0 6.4445 l -3 0 l 0 6 l 3 0 l 0 6.4442 l -3 0 l 0 6 l 3 0 l 0 6.445 l -3 0 l 0 6 l 3 0 l 0 6.444 l -3 0 l 0 6 l 3 0 l 0 6.445 l -3 0 l 0 6 l 3 0 l 0 6.444"/>
      <path id="hole_030" style="fill:none;stroke:#000000;stroke-width:0.0508" d="m 112.25 56.4444 l 0 6 l 3 0 l 0 -6 l -3 0 z"/>
      <path id="hole_031" style="fill:none;stroke:#000000;stroke-width:0.0508" d="m 91.5 56.4444 l 0 6 l 3 0 l 0 -6 l -3 0 z"/>
      <path id="hole_032" style="fill:none;stroke:#000000;stroke-width:0.0508" d="m 70.75 56.4444 l 0 6 l 3 0 l 0 -6 l -3 0 z"/>
      <path id="hole_033" style="fill:none;stroke:#000000;stroke-width:0.0508" d="m 112.25 68.8889 l 0 6 l 3 0 l 0 -6 l -3 0 z"/>
      <path id="hole_034" style="fill:none;stroke:#000000;stroke-width:0.0508" d="m 91.5 68.8889 l 0 6 l 3 0 l 0 -6 l -3 0 z"/>
      <path id="hole_035" style="fill:none;stroke:#000000;stroke-width:0.0508" d="m 70.75 68.8889 l 0 6 l 3 0 l 0 -6 l -3 0 z"/>
      <path id="hole_036" style="fill:none;stroke:#000000;stroke-width:0.0508" d="m 112.25 81.3333 l 0 6 l 3 0 l 0 -6 l -3 0 z"/>
      <path id="hole_037" style="fill:none;stroke:#000000;stroke-width:0.0508" d="m 91.5 81.3333 l 0 6 l 3 0 l 0 -6 l -3 0 z"/>
      <path id="hole_038" style="fill:none;stroke:#000000;stroke-width:0.0508" d="m 70.75 81.3333 l 0 6 l 3 0 l 0 -6 l -3 0 z"/>
      <path id="hole_039" style="fill:none;stroke:#000000;stroke-width:0.0508" d="m 112.25 93.7778 l 0 6 l 3 0 l 0 -6 l -3 0 z"/>
      <path id="hole_040" style="fill:none;stroke:#000000;stroke-width:0.0508" d="m 91.5 93.7778 l 0 6 l 3 0 l 0 -6 l -3 0 z"/>
      <path id="hole_041" style="fill:none;stroke:#000000;stroke-width:0.0508" d="m 70.75 93.7778 l 0 6 l 3 0 l 0 -6 l -3 0 z"/>
      <path id="hole_042" style="fill:none;stroke:#000000;stroke-width:0.0508" d="m 112.25 106.222 l 0 6 l 3 0 l 0 -6 l -3 0 z"/>
      <path id="hole_043" style="fill:none;stroke:#000000;stroke-width:0.0508" d="m 91.5 106.222 l 0 6 l 3 0 l 0 -6 l -3 0 z"/>
      <path id="hole_044" style="fill:none;stroke:#000000;stroke-width:0.0508" d="m 70.75 106.222 l 0 6 l 3 0 l 0 -6 l -3 0 z"/>
      <path id="hole_045" style="fill:none;stroke:#000000;stroke-width:0.0508" d="m 112.25 118.667 l 0 6 l 3 0 l 0 -6 l -3 0 z"/>
      <path id="hole_046" style="fill:none;stroke:#000000;stroke-width:0.0508" d="m 91.5 118.667 l 0 6 l 3 0 l 0 -6 l -3 0 z"/>
      <path id="hole_047" style="fill:none;stroke:#000000;stroke-width:0.0508" d="m 70.75 118.667 l 0 6 l 3 0 l 0 -6 l -3 0 z"/>
      <path id="hole_048" style="fill:none;stroke:#000000;stroke-width:0.0508" d="m 112.25 131.111 l 0 6 l 3 0 l 0 -6 l -3 0 z"/>
      <path id="hole_049" style="fill:none;stroke:#000000;stroke-width:0.0508" d="m 91.5 131.111 l 0 6 l 3 0 l 0 -6 l -3 0 z"/>
      <path id="hole_050" style="fill:none;stroke:#000000;stroke-width:0.0508" d="m 70.75 131.111 l 0 6 l 3 0 l 0 -6 l -3 0 z"/>
      <path id="hole_051" style="fill:none;stroke:#000000;stroke-width:0.0508" d="m 112.25 143.556 l 0 6 l 3 0 l 0 -6 l -3 0 z"/>
      <path id="hole_052" style="fill:none;stroke:#000000;stroke-width:0.0508" d="m 91.5 143.556 l 0 6 l 3 0 l 0 -6 l -3 0 z"/>
      <path id="hole_053" style="fill:none;stroke:#000000;stroke-width:0.0508" d="m 70.75 143.556 l 0 6 l 3 0 l 0 -6 l -3 0 z"/>
      <path id="side_031" style="fill:none;stroke:#000000;stroke-width:0.0508" d="m 136 156 l -7.143 0 l 0 -3 l -6 0 l 0 3 l -7.143 0 l 0 -3 l -6 0 l 0 3 l -7.143 0 l 0 -3 l -5.9996 0 l 0 3 l -7.1428 0 l 0 -3 l -6 0 l 0 3 l -7.1429 0 l 0 -3 l -6 0 l 0 3 l -7.1428 0 l 0 -3 l -6 0 l 0 3 l -7.1429 0"/>
      <path id="side_032" style="fill:none;stroke:#000000;stroke-width:0.0508" d="m 50 156 l 0 -6.444 l 3 0 l 0 -6 l -3 0 l 0 -6.445 l 3 0 l 0 -6 l -3 0 l 0 -6.444 l 3 0 l 0 -6 l -3 0 l 0 -6.445 l 3 0 l 0 -6 l -3 0 l 0 -6.4442 l 3 0 l 0 -6 l -3 0 l 0 -6.4445 l 3 0 l 0 -6 l -3 0 l 0 -6.4444 l 3 0 l 0 -6 l -3 0 l 0 -6.4445 l 3 0 l 0 -6 l -3 0 l 0 -6.4444"/>
    </g>
    <g id="piece_004">
      <path id="side_033" style="fill:none;stroke:#000000;stroke-width:0.0508" d="m 141 53 l 4 0 l 0 -3 l 6 0 l 0 3 l 7 0 l 0 -3 l 6 0 l 0 3 l 7 0 l 0 -3 l 6 0 l 0 3 l 4 0"/>
      <path id="hole_054" style="fill:none;stroke:#000000;stroke-width:0.0508" d="m 141 87.3333 l 4 0 l 0 -3 l -4 0 l 0 3 z"/>
      <path id="hole_055" style="fill:none;stroke:#000000;stroke-width:0.0508" d="m 141 121.667 l 4 0 l 0 -3 l -4 0 l 0 3 z"/>
      <path id="hole_056" style="fill:none;stroke:#000000;stroke-width:0.0508" d="m 151 87.3333 l 7 0 l 0 -3 l -7 0 l 0 3 z"/>
      <path id="hole_057" style="fill:none;stroke:#000000;stroke-width:0.0508" d="m 151 121.667 l 7 0 l 0 -3 l -7 0 l 0 3 z"/>
      <path id="hole_058" style="fill:none;stroke:#000000;stroke-width:0.0508" d="m 164 87.3333 l 7 0 l 0 -3 l -7 0 l 0 3 z"/>
      <path id="hole_059" style="fill:none;stroke:#000000;stroke-width:0.0508" d="m 164 121.667 l 7 0 l 0 -3 l -7 0 l 0 3 z"/>
      <path id="hole_060" style="fill:none;stroke:#000000;stroke-width:0.0508" d="m 177 87.3333 l 4 0 l 0 -3 l -4 0 l 0 3 z"/>
      <path id="hole_061" style="fill:none;stroke:#000000;stroke-width:0.0508" d="m 177 121.667 l 4 0 l 0 -3 l -4 0 l 0 3 z"/>
      <path id="side_034" style="fill:none;stroke:#000000;stroke-width:0.0508" d="m 181 53 l 0 3.4444 l 3 0 l 0 6 l -3 0 l 0 6.4445 l 3 0 l 0 6 l -3 0 l 0 6.4444 l 3 0 l 0 6 l -3 0 l 0 6.4445 l 3 0 l 0 6 l -3 0 l 0 6.4442 l 3 0 l 0 6 l -3 0 l 0 6.445 l 3 0 l 0 6 l -3 0 l 0 6.444 l 3 0 l 0 6 l -3 0 l 0 6.445 l 3 0 l 0 6 l -3 0 l 0 3.444"/>
      <path id="side_035" style="fill:none;stroke:#000000;stroke-width:0.0508" d="m 181 153 l -4 0 l 0 3 l -6 0 l 0 -3 l -7 0 l 0 3 l -6 0 l 0 -3 l -7 0 l 0 3 l -6 0 l 0 -3 l -4 0"/>
      <path id="side_036" style="fill:none;stroke:#000000;stroke-width:0.0508" d="m 141 153 l 0 -3.444 l -3 0 l 0 -6 l 3 0 l 0 -6.445 l -3 0 l 0 -6 l 3 0 l 0 -6.444 l -3 0 l 0 -6 l 3 0 l 0 -6.445 l -3 0 l 0 -6 l 3 0 l 0 -6.4442 l -3 0 l 0 -6 l 3 0 l 0 -6.4445 l -3 0 l 0 -6 l 3 0 l 0 -6.4444 l -3 0 l 0 -6 l 3 0 l 0 -6.4445 l -3 0 l 0 -6 l 3 0 l 0 -3.4444"/>
    </g>
    <g id="piece_005">
      <path id="side_037" style="fill:none;stroke:#000000;stroke-width:0.0508" d="m 186 50 l 7.143 0 l 0 3 l 6 0 l 0 -3 l 7.143 0 l 0 3 l 6 0 l 0 -3 l 7.143 0 l 0 3 l 6 0 l 0 -3 l 7.142 0 l 0 3 l 6 0 l 0 -3 l 7.143 0 l 0 3 l 6 0 l 0 -3 l 7.143 0 l 0 3 l 6 0 l 0 -3 l 7.143 0"/>
      <path id="hole_062" style="fill:none;stroke:#000000;stroke-width:0.0508" d="m 193.143 87.3333 l 6 0 l 0 -3 l -6 0 l 0 3 z"/>
      <path id="hole_063" style="fill:none;stroke:#000000;stroke-width:0.0508" d="m 193.143 121.667 l 6 0 l 0 -3 l -6 0 l 0 3 z"/>
      <path id="hole_064" style="fill:none;stroke:#000000;stroke-width:0.0508" d="m 206.286 87.3333 l 6 0 l 0 -3 l -6 0 l 0 3 z"/>
      <path id="hole_065" style="fill:none;stroke:#000000;stroke-width:0.0508" d="m 206.286 121.667 l 6 0 l 0 -3 l -6 0 l 0 3 z"/>
      <path id="hole_066" style="fill:none;stroke:#000000;stroke-width:0.0508" d="m 219.429 87.3333 l 6 0 l 0 -3 l -6 0 l 0 3 z"/>
      <path id="hole_067" style="fill:none;stroke:#000000;stroke-width:0.0508" d="m 219.429 121.667 l 6 0 l 0 -3 l -6 0 l 0 3 z"/>
      <path id="hole_068" style="fill:none;stroke:#000000;stroke-width:0.0508" d="m 232.571 87.3333 l 6 0 l 0 -3 l -6 0 l 0 3 z"/>
      <path id="hole_069" style="fill:none;stroke:#000000;stroke-width:0.0508" d="m 232.571 121.667 l 6 0 l 0 -3 l -6 0 l 0 3 z"/>
      <path id="hole_070" style="fill:none;stroke:#000000;stroke-width:0.0508" d="m 245.714 87.3333 l 6 0 l 0 -3 l -6 0 l 0 3 z"/>
      <path id="hole_071" style="fill:none;stroke:#000000;stroke-width:0.0508" d="m 245.714 121.667 l 6 0 l 0 -3 l -6 0 l 0 3 z"/>
      <path id="hole_072" style="fill:none;stroke:#000000;stroke-width:0.0508" d="m 258.857 87.3333 l 6 0 l 0 -3 l -6 0 l 0 3 z"/>
      <path id="hole_073" style="fill:none;stroke:#000000;stroke-width:0.0508" d="m 258.857 121.667 l 6 0 l 0 -3 l -6 0 l 0 3 z"/>
      <path id="side_038" style="fill:none;stroke:#000000;stroke-width:0.0508" d="m 272 50 l 0 6.4444 l -3 0 l 0 6 l 3 0 l 0 6.4445 l -3 0 l 0 6 l 3 0 l 0 6.4444 l -3 0 l 0 6 l 3 0 l 0 6.4445 l -3 0 l 0 6 l 3 0 l 0 6.4442 l -3 0 l 0 6 l 3 0 l 0 6.445 l -3 0 l 0 6 l 3 0 l 0 6.444 l -3 0 l 0 6 l 3 0 l 0 6.445 l -3 0 l 0 6 l 3 0 l 0 6.444"/>
      <path id="hole_074" style="fill:none;stroke:#000000;stroke-width:0.0508" d="m 248.25 56.4444 l 0 6 l 3 0 l 0 -6 l -3 0 z"/>
      <path id="hole_075" style="fill:none;stroke:#000000;stroke-width:0.0508" d="m 227.5 56.4444 l 0 6 l 3 0 l 0 -6 l -3 0 z"/>
      <path id="hole_076" style="fill:none;stroke:#000000;stroke-width:0.0508" d="m 206.75 56.4444 l 0 6 l 3 0 l 0 -6 l -3 0 z"/>
      <path id="hole_077" style="fill:none;stroke:#000000;stroke-width:0.0508" d="m 248.25 68.8889 l 0 6 l 3 0 l 0 -6 l -3 0 z"/>
      <path id="hole_078" style="fill:none;stroke:#000000;stroke-width:0.0508" d="m 227.5 68.8889 l 0 6 l 3 0 l 0 -6 l -3 0 z"/>
      <path id="hole_079" style="fill:none;stroke:#000000;stroke-width:0.0508" d="m 206.75 68.8889 l 0 6 l 3 0 l 0 -6 l -3 0 z"/>
      <path id="hole_080" style="fill:none;stroke:#000000;stroke-width:0.0508" d="m 248.25 81.3333 l 0 6 l 3 0 l 0 -6 l -3 0 z"/>
      <path id="hole_081" style="fill:none;stroke:#000000;stroke-width:0.0508" d="m 227.5 81.3333 l 0 6 l 3 0 l 0 -6 l -3 0 z"/>
      <path id="hole_082" style="fill:none;stroke:#000000;stroke-width:0.0508" d="m 206.75 81.3333 l 0 6 l 3 0 l 0 -6 l -3 0 z"/>
      <path id="hole_083" style="fill:none;stroke:#000000;stroke-width:0.0508" d="m 248.25 93.7778 l 0 6 l 3 0 l 0 -6 l -3 0 z"/>
      <path id="hole_084" style="fill:none;stroke:#000000;stroke-width:0.0508" d="m 227.5 93.7778 l 0 6 l 3 0 l 0 -6 l -3 0 z"/>
      <path id="hole_085" style="fill:none;stroke:#000000;stroke-width:0.0508" d="m 206.75 93.7778 l 0 6 l 3 0 l 0 -6 l -3 0 z"/>
      <path id="hole_086" style="fill:none;stroke:#000000;stroke-width:0.0508" d="m 248.25 106.222 l 0 6 l 3 0 l 0 -6 l -3 0 z"/>
      <path id="hole_087" style="fill:none;stroke:#000000;stroke-width:0.0508" d="m 227.5 106.222 l 0 6 l 3 0 l 0 -6 l -3 0 z"/>
      <path id="hole_088" style="fill:none;stroke:#000000;stroke-width:0.0508" d="m 206.75 106.222 l 0 6 l 3 0 l 0 -6 l -3 0 z"/>
      <path id="hole_089" style="fill:none;stroke:#000000;stroke-width:0.0508" d="m 248.25 118.667 l 0 6 l 3 0 l 0 -6 l -3 0 z"/>
      <path id="hole_090" style="fill:none;stroke:#000000;stroke-width:0.0508" d="m 227.5 118.667 l 0 6 l 3 0 l 0 -6 l -3 0 z"/>
      <path id="hole_091" style="fill:none;stroke:#000000;stroke-width:0.0508" d="m 206.75 118.667 l 0 6 l 3 0 l 0 -6 l -3 0 z"/>
      <path id="hole_092" style="fill:none;stroke:#000000;stroke-width:0.0508" d="m 248.25 131.111 l 0 6 l 3 0 l 0 -6 l -3 0 z"/>
      <path id="hole_093" style="fill:none;stroke:#000000;stroke-width:0.0508" d="m 227.5 131.111 l 0 6 l 3 0 l 0 -6 l -3 0 z"/>
      <path id="hole_094" style="fill:none;stroke:#000000;stroke-width:0.0508" d="m 206.75 131.111 l 0 6 l 3 0 l 0 -6 l -3 0 z"/>
      <path id="hole_095" style="fill:none;stroke:#000000;stroke-width:0.0508" d="m 248.25 143.556 l 0 6 l 3 0 l 0 -6 l -3 0 z"/>
      <path id="hole_096" style="fill:none;stroke:#000000;stroke-width:0.0508" d="m 227.5 143.556 l 0 6 l 3 0 l 0 -6 l -3 0 z"/>
      <path id="hole_097" style="fill:none;stroke:#000000;stroke-width:0.0508" d="m 206.75 143.556 l 0 6 l 3 0 l 0 -6 l -3 0 z"/>
      <path id="side_039" style="fill:none;stroke:#000000;stroke-width:0.0508" d="m 272 156 l -7.143 0 l 0 -3 l -6 0 l 0 3 l -7.143 0 l 0 -3 l -6 0 l 0 3 l -7.143 0 l 0 -3 l -6 0 l 0 3 l -7.142 0 l 0 -3 l -6 0 l 0 3 l -7.143 0 l 0 -3 l -6 0 l 0 3 l -7.143 0 l 0 -3 l -6 0 l 0 3 l -7.143 0"/>
      <path id="side_040" style="fill:none;stroke:#000000;stroke-width:0.0508" d="m 186 156 l 0 -6.444 l 3 0 l 0 -6 l -3 0 l 0 -6.445 l 3 0 l 0 -6 l -3 0 l 0 -6.444 l 3 0 l 0 -6 l -3 0 l 0 -6.445 l 3 0 l 0 -6 l -3 0 l 0 -6.4442 l 3 0 l 0 -6 l -3 0 l 0 -6.4445 l 3 0 l 0 -6 l -3 0 l 0 -6.4444 l 3 0 l 0 -6 l -3 0 l 0 -6.4445 l 3 0 l 0 -6 l -3 0 l 0 -6.4444"/>
    </g>
    <g id="piece_006">
      <path id="side_041" style="fill:none;stroke:#000000;stroke-width:0.0508" d="m 50 5 l 7.1429 0 l 0 -3 l 6 0 l 0 3 l 7.1428 0 l 0 -3 l 6 0 l 0 3 l 7.1429 0 l 0 -3 l 6 0 l 0 3 l 7.1428 0 l 0 -3 l 5.9996 0 l 0 3 l 7.143 0 l 0 -3 l 6 0 l 0 3 l 7.143 0 l 0 -3 l 6 0 l 0 3 l 7.143 0"/>
      <path id="side_042" style="fill:none;stroke:#000000;stroke-width:0.0508" d="m 136 5 l 0 4 l -3 0 l 0 6 l 3 0 l 0 7 l -3 0 l 0 6 l 3 0 l 0 7 l -3 0 l 0 6 l 3 0 l 0 4"/>
      <path id="hole_098" style="fill:none;stroke:#000000;stroke-width:0.0508" d="m 112.25 9 l 0 6 l 3 0 l 0 -6 l -3 0 z"/>
      <path id="hole_099" style="fill:none;stroke:#000000;stroke-width:0.0508" d="m 91.5 9 l 0 6 l 3 0 l 0 -6 l -3 0 z"/>
      <path id="hole_100" style="fill:none;stroke:#000000;stroke-width:0.0508" d="m 70.75 9 l 0 6 l 3 0 l 0 -6 l -3 0 z"/>
      <path id="hole_101" style="fill:none;stroke:#000000;stroke-width:0.0508" d="m 112.25 22 l 0 6 l 3 0 l 0 -6 l -3 0 z"/>
      <path id="hole_102" style="fill:none;stroke:#000000;stroke-width:0.0508" d="m 91.5 22 l 0 6 l 3 0 l 0 -6 l -3 0 z"/>
      <path id="hole_103" style="fill:none;stroke:#000000;stroke-width:0.0508" d="m 70.75 22 l 0 6 l 3 0 l 0 -6 l -3 0 z"/>
      <path id="hole_104" style="fill:none;stroke:#000000;stroke-width:0.0508" d="m 112.25 35 l 0 6 l 3 0 l 0 -6 l -3 0 z"/>
      <path id="hole_105" style="fill:none;stroke:#000000;stroke-width:0.0508" d="m 91.5 35 l 0 6 l 3 0 l 0 -6 l -3 0 z"/>
      <path id="hole_106" style="fill:none;stroke:#000000;stroke-width:0.0508" d="m 70.75 35 l 0 6 l 3 0 l 0 -6 l -3 0 z"/>
      <path id="side_043" style="fill:none;stroke:#000000;stroke-width:0.0508" d="m 136 45 l -7.143 0 l 0 3 l -6 0 l 0 -3 l -7.143 0 l 0 3 l -6 0 l 0 -3 l -7.143 0 l 0 3 l -5.9996 0 l 0 -3 l -7.1428 0 l 0 3 l -6 0 l 0 -3 l -7.1429 0 l 0 3 l -6 0 l 0 -3 l -7.1428 0 l 0 3 l -6 0 l 0 -3 l -7.1429 0"/>
      <path id="side_044" style="fill:none;stroke:#000000;stroke-width:0.0508" d="m 50 45 l 0 -4 l 3 0 l 0 -6 l -3 0 l 0 -7 l 3 0 l 0 -6 l -3 0 l 0 -7 l 3 0 l 0 -6 l -3 0 l 0 -4"/>
    </g>
  </g>
</svg>