<!-- Created with Inkscape (http://www.inkscape.org/) -->
<svg xmlns:inkscape="http://www.inkscape.org/namespaces/inkscape" xmlns:sodipodi="http://sodipodi.sourceforge.net/DTD/sodipodi-0.dtd" xmlns="http://www.w3.org/2000/svg" xmlns:svg="http://www.w3.org/2000/svg" width="273mm" height="361mm" viewBox="0 0 273 361" version="1.1" id="svg5" inkscape:version="1.1.2 (0a00cf5339, 2022-02-04)" sodipodi:docname="blank.svg">
  <sodipodi:namedview id="namedview7" pagecolor="#ffffff" bordercolor="#666666" borderopacity="1.0" inkscape:pageshadow="2" inkscape:pageopacity="0.0" inkscape:pagecheckerboard="0" inkscape:document-units="mm" showgrid="false" inkscape:zoom="0.64052329" inkscape:cx="397.33138" inkscape:cy="561.25984" inkscape:window-width="2086" inkscape:window-height="1376" inkscape:window-x="0" inkscape:window-y="0" inkscape:window-maximized="1" inkscape:current-layer="layer1"/>
  <defs id="defs2"/>
  <g inkscape:label="Layer 1" inkscape:groupmode="layer" id="layer1">
    <metadata text="createArgs=['--unit=mm', '--inside=1', '--length=80', '--width=100', '--depth=40', '--tab=6', '--tabtype=0', '--tabsymmetry=0', '--dimpleheight=0', '--dimplelength=0', '--hairline=1', '--thickness=3', '--kerf=0', '--style=1', '--boxtype=1', '--div_l=1', '--div_w=1', '--keydiv=0', '--spacing=2', '--equal=1']"/>
    <g id="piece_001">
      <path id="side_001" style="fill:none;stroke:#000000;stroke-width:0.0508" d="m 50 161 l 6.6154 0 l 0 -3 l 6.6154 0 l 0 3 l 6.6154 0 l 0 -3 l 6.6153 0 l 0 3 l 6.6154 0 l 0 -3 l 6.6154 0 l 0 3 l 6.6154 0 l 0 -3 l 6.6153 0 l 0 3 l 6.615 0 l 0 -3 l 6.616 0 l 0 3 l 6.615 0 l 0 -3 l 6.616 0 l 0 3 l 6.615 0"/>
      <path id="side_002" style="fill:none;stroke:#000000;stroke-width:0.0508" d="m 136 161 l 0 3.571 l -3 0 l 0 6.572 l 3 0 l 0 6.571 l -3 0 l 0 6.572 l 3 0 l 0 6.571 l -3 0 l 0 6.572 l 3 0 l 0 3.571"/>
      <path id="hole_001" style="fill:none;stroke:#000000;stroke-width:0.0508" d="m 91.5 164.571 l 0 6.572 l 3 0 l 0 -6.572 l -3 0 z"/>
      <path id="hole_002" style="fill:none;stroke:#000000;stroke-width:0.0508" d="m 91.5 177.714 l 0 6.572 l 3 0 l 0 -6.572 l -3 0 z"/>
      <path id="hole_003" style="fill:none;stroke:#000000;stroke-width:0.0508" d="m 91.5 190.857 l 0 6.572 l 3 0 l 0 -6.572 l -3 0 z"/>
      <path id="side_003" style="fill:none;stroke:#000000;stroke-width:0.0508" d="m 136 201 l -6.615 0 l 0 3 l -6.616 0 l 0 -3 l -6.615 0 l 0 3 l -6.616 0 l 0 -3 l -6.615 0 l 0 3 l -6.6153 0 l 0 -3 l -6.6154 0 l 0 3 l -6.6154 0 l 0 -3 l -6.6154 0 l 0 3 l -6.6153 0 l 0 -3 l -6.6154 0 l 0 3 l -6.6154 0 l 0 -3 l -6.6154 0"/>
      <path id="side_004" style="fill:none;stroke:#000000;stroke-width:0.0508" d="m 50 201 l 0 -3.571 l 3 0 l 0 -6.572 l -3 0 l 0 -6.571 l 3 0 l 0 -6.572 l -3 0 l 0 -6.571 l 3 0 l 0 -6.572 l -3 0 l 0 -3.571"/>
    </g>
    <g id="xdivider_001">
      <path id="side_005" style="fill:none;stroke:#000000;stroke-width:0.0508" d="m 0 209 l 6.61538 0 l 0 -3 l 6.61542 0 l 0 3 l 6.6154 0 l 0 -3 l 6.6153 0 l 0 3 l 6.6154 0 l 0 -3 l 6.6154 0 l 0 3 l 6.6154 0 l 0 -3 l 6.6154 0 l 0 3 l 6.6154 0 l 0 -3 l 6.6153 0 l 0 3 l 6.6154 0 l 0 -3 l 6.6154 0 l 0 3 l 6.6154 0"/>
      <path id="side_006" style="fill:none;stroke:#000000;stroke-width:0.0508" d="m 86 209 l 0 3.571 l -3 0 l 0 6.572 l 3 0 l 0 6.571 l -3 0 l 0 6.572 l 3 0 l 0 6.571 l -3 0 l 0 6.572 l 3 0 l 0 3.571"/>
      <path id="slot_001" style="fill:none;stroke:#000000;stroke-width:0.0508" d="m 41.5 206 l 0 23 l 3 0 l 0 -23 l -3 0 z"/>
      <path id="side_007" style="fill:none;stroke:#000000;stroke-width:0.0508" d="m 86 249 l -6.6154 0 l 0 3 l -6.6154 0 l 0 -3 l -6.6154 0 l 0 3 l -6.6153 0 l 0 -3 l -6.6154 0 l 0 3 l -6.6154 0 l 0 -3 l -6.6154 0 l 0 3 l -6.6154 0 l 0 -3 l -6.6154 0 l 0 3 l -6.6153 0 l 0 -3 l -6.6154 0 l 0 3 l -6.6154 0 l 0 -3 l -6.6154 0"/>
      <path id="side_008" style="fill:none;stroke:#000000;stroke-width:0.0508" d="m 0 249 l 0 -3.571 l 3 0 l 0 -6.572 l -3 0 l 0 -6.571 l 3 0 l 0 -6.572 l -3 0 l 0 -6.571 l 3 0 l 0 -6.572 l -3 0 l 0 -3.571"/>
    </g>
    <g id="piece_002">
      <path id="side_009" style="fill:none;stroke:#000000;stroke-width:0.0508" d="m 5 53 l 3.57143 0 l 0 -3 l 6.57147 0 l 0 3 l 6.5714 0 l 0 -3 l 6.5714 0 l 0 3 l 6.5714 0 l 0 -3 l 6.5715 0 l 0 3 l 3.5714 0"/>
      <path id="hole_004" style="fill:none;stroke:#000000;stroke-width:0.0508" d="m 5 104.5 l 3.57143 0 l 0 -3 l -3.57143 0 l 0 3 z"/>
      <path id="hole_005" style="fill:none;stroke:#000000;stroke-width:0.0508" d="m 15.1429 104.5 l 6.5714 0 l 0 -3 l -6.5714 0 l 0 3 z"/>
      <path id="hole_006" style="fill:none;stroke:#000000;stroke-width:0.0508" d="m 28.2857 104.5 l 6.5714 0 l 0 -3 l -6.5714 0 l 0 3 z"/>
      <path id="hole_007" style="fill:none;stroke:#000000;stroke-width:0.0508" d="m 41.4286 104.5 l 6.5714 0 l 0 3 l -6.5714 0 l 0 -3 z"/>
      <path id="side_010" style="fill:none;stroke:#000000;stroke-width:0.0508" d="m 45 53 l 0 3.2353 l 3 0 l 0 6.2353 l -3 0 l 0 6.2353 l 3 0 l 0 6.2353 l -3 0 l 0 6.2353 l 3 0 l 0 6.2353 l -3 0 l 0 6.2353 l 3 0 l 0 6.2353 l -3 0 l 0 6.2356 l 3 0 l 0 6.235 l -3 0 l 0 6.235 l 3 0 l 0 6.235 l -3 0 l 0 6.236 l 3 0 l 0 6.235 l -3 0 l 0 6.235 l 3 0 l 0 6.236 l -3 0 l 0 3.235"/>
      <path id="side_011" style="fill:none;stroke:#000000;stroke-width:0.0508" d="m 45 153 l -3.5714 0 l 0 3 l -6.5715 0 l 0 -3 l -6.5714 0 l 0 3 l -6.5714 0 l 0 -3 l -6.5714 0 l 0 3 l -6.5715 0 l 0 -3 l -3.5714 0"/>
      <path id="side_012" style="fill:none;stroke:#000000;stroke-width:0.0508" d="m 5 153 l 0 -3.235 l -3 0 l 0 -6.236 l 3 0 l 0 -6.235 l -3 0 l 0 -6.235 l 3 0 l 0 -6.236 l -3 0 l 0 -6.235 l 3 0 l 0 -6.235 l -3 0 l 0 -6.235 l 3 0 l 0 -6.2356 l -3 0 l 0 -6.2353 l 3 0 l 0 -6.2353 l -3 0 l 0 -6.2353 l 3 0 l 0 -6.2353 l -3 0 l 0 -6.2353 l 3 0 l 0 -6.2353 l -3 0 l 0 -6.2353 l 3 0 l 0 -3.2353"/>
    </g>
    <g id="ydivider_001">
      <path id="side_013" style="fill:none;stroke:#000000;stroke-width:0.0508" d="m 3 257 l 3.57143 0 l 0 -3 l 6.57147 0 l 0 3 l 6.5714 0 l 0 -3 l 6.5714 0 l 0 3 l 6.5714 0 l 0 -3 l 6.5715 0 l 0 3 l 3.5714 0"/>
      <path id="slot_002" style="fill:none;stroke:#000000;stroke-width:0.0508" d="m 0 305.5 l 23 0 l 0 3 l -23 0 l 0 -3 z"/>
      <path id="side_014" style="fill:none;stroke:#000000;stroke-width:0.0508" d="m 43 257 l 0 3.235 l 3 0 l 0 6.236 l -3 0 l 0 6.235 l 3 0 l 0 6.235 l -3 0 l 0 6.235 l 3 0 l 0 6.236 l -3 0 l 0 6.235 l 3 0 l 0 6.235 l -3 0 l 0 6.236 l 3 0 l 0 6.235 l -3 0 l 0 6.235 l 3 0 l 0 6.235 l -3 0 l 0 6.236 l 3 0 l 0 6.235 l -3 0 l 0 6.235 l 3 0 l 0 6.236 l -3 0 l 0 3.235"/>
      <path id="side_015" style="fill:none;stroke:#000000;stroke-width:0.0508" d="m 43 357 l -3.5714 0 l 0 3 l -6.5715 0 l 0 -3 l -6.5714 0 l 0 3 l -6.5714 0 l 0 -3 l -6.5714 0 l 0 3 l -6.5715 0 l 0 -3 l -3.5714 0"/>
      <path id="side_016" style="fill:none;stroke:#000000;stroke-width:0.0508" d="m 3 357 l 0 -3.235 l -3 0 l 0 -6.236 l 3 0 l 0 -6.235 l -3 0 l 0 -6.235 l 3 0 l 0 -6.235 l -3 0 l 0 -6.236 l 3 0 l 0 -6.235 l -3 0 l 0 -6.235 l 3 0 l 0 -6.236 l -3 0 l 0 -6.235 l 3 0 l 0 -6.235 l -3 0 l 0 -6.235 l 3 0 l 0 -6.236 l -3 0 l 0 -6.235 l 3 0 l 0 -6.235 l -3 0 l 0 -6.236 l 3 0 l 0 -3.235"/>
    </g>
    <g id="piece_003">
      <path id="side_017" style="fill:none;stroke:#000000;stroke-width:0.0508" d="m 50 50 l 6.6154 0 l 0 3 l 6.6154 0 l 0 -3 l 6.6154 0 l 0 3 l 6.6153 0 l 0 -3 l 6.6154 0 l 0 3 l 6.6154 0 l 0 -3 l 6.6154 0 l 0 3 l 6.6153 0 l 0 -3 l 6.615 0 l 0 3 l 6.616 0 l 0 -3 l 6.615 0 l 0 3 l 6.616 0 l 0 -3 l 6.615 0"/>
      <path id="hole_008" style="fill:none;stroke:#000000;stroke-width:0.0508" d="m 56.6154 104.5 l 6.6154 0 l 0 -3 l -6.6154 0 l 0 3 z"/>
      <path id="hole_009" style="fill:none;stroke:#000000;stroke-width:0.0508" d="m 69.8462 104.5 l 6.6153 0 l 0 -3 l -6.6153 0 l 0 3 z"/>
      <path id="hole_010" style="fill:none;stroke:#000000;stroke-width:0.0508" d="m 83.0769 104.5 l 6.6154 0 l 0 -3 l -6.6154 0 l 0 3 z"/>
      <path id="hole_011" style="fill:none;stroke:#000000;stroke-width:0.0508" d="m 96.3077 104.5 l 6.6153 0 l 0 -3 l -6.6153 0 l 0 3 z"/>
      <path id="hole_012" style="fill:none;stroke:#000000;stroke-width:0.0508" d="m 109.538 104.5 l 6.616 0 l 0 -3 l -6.616 0 l 0 3 z"/>
      <path id="hole_013" style="fill:none;stroke:#000000;stroke-width:0.0508" d="m 122.769 104.5 l 6.616 0 l 0 -3 l -6.616 0 l 0 3 z"/>
      <path id="side_018" style="fill:none;stroke:#000000;stroke-width:0.0508" d="m 136 50 l 0 6.2353 l -3 0 l 0 6.2353 l 3 0 l 0 6.2353 l -3 0 l 0 6.2353 l 3 0 l 0 6.2353 l -3 0 l 0 6.2353 l 3 0 l 0 6.2353 l -3 0 l 0 6.2353 l 3 0 l 0 6.2356 l -3 0 l 0 6.235 l 3 0 l 0 6.235 l -3 0 l 0 6.235 l 3 0 l 0 6.236 l -3 0 l 0 6.235 l 3 0 l 0 6.235 l -3 0 l 0 6.236 l 3 0 l 0 6.235"/>
      <path id="hole_014" style="fill:none;stroke:#000000;stroke-width:0.0508" d="m 91.5 56.2353 l 0 6.2353 l 3 0 l 0 -6.2353 l -3 0 z"/>
      <path id="hole_015" style="fill:none;stroke:#000000;stroke-width:0.0508" d="m 91.5 68.7059 l 0 6.2353 l 3 0 l 0 -6.2353 l -3 0 z"/>
      <path id="hole_016" style="fill:none;stroke:#000000;stroke-width:0.0508" d="m 91.5 81.1765 l 0 6.2353 l 3 0 l 0 -6.2353 l -3 0 z"/>
      <path id="hole_017" style="fill:none;stroke:#000000;stroke-width:0.0508" d="m 91.5 93.6471 l 0 6.2353 l 3 0 l 0 -6.2353 l -3 0 z"/>
      <path id="hole_018" style="fill:none;stroke:#000000;stroke-width:0.0508" d="m 91.5 106.118 l 0 6.235 l 3 0 l 0 -6.235 l -3 0 z"/>
      <path id="hole_019" style="fill:none;stroke:#000000;stroke-width:0.0508" d="m 91.5 118.588 l 0 6.235 l 3 0 l 0 -6.235 l -3 0 z"/>
      <path id="hole_020" style="fill:none;stroke:#000000;stroke-width:0.0508" d="m 91.5 131.059 l 0 6.235 l 3 0 l 0 -6.235 l -3 0 z"/>
      <path id="hole_021" style="fill:none;stroke:#000000;stroke-width:0.0508" d="m 91.5 143.529 l 0 6.236 l 3 0 l 0 -6.236 l -3 0 z"/>
      <path id="side_019" style="fill:none;stroke:#000000;stroke-width:0.0508" d="m 136 156 l -6.615 0 l 0 -3 l -6.616 0 l 0 3 l -6.615 0 l 0 -3 l -6.616 0 l 0 3 l -6.615 0 l 0 -3 l -6.6153 0 l 0 3 l -6.6154 0 l 0 -3 l -6.6154 0 l 0 3 l -6.6154 0 l 0 -3 l -6.6153 0 l 0 3 l -6.6154 0 l 0 -3 l -6.6154 0 l 0 3 l -6.6154 0"/>
      <path id="side_020" style="fill:none;stroke:#000000;stroke-width:0.0508" d="m 50 156 l 0 -6.235 l 3 0 l 0 -6.236 l -3 0 l 0 -6.235 l 3 0 l 0 -6.235 l -3 0 l 0 -6.236 l 3 0 l 0 -6.235 l -3 0 l 0 -6.235 l 3 0 l 0 -6.235 l -3 0 l 0 -6.2356 l 3 0 l 0 -6.2353 l -3 0 l 0 -6.2353 l 3 0 l 0 -6.2353 l -3 0 l 0 -6.2353 l 3 0 l 0 -6.2353 l -3 0 l 0 -6.2353 l 3 0 l 0 -6.2353 l -3 0 l 0 -6.2353"/>
    </g>
    <g id="piece_004">
      <path id="side_021" style="fill:none;stroke:#000000;stroke-width:0.0508" d="m 141 53 l 3.571 0 l 0 -3 l 6.572 0 l 0 3 l 6.571 0 l 0 -3 l 6.572 0 l 0 3 l 6.571 0 l 0 -3 l 6.572 0 l 0 3 l 3.571 0"/>
      <path id="hole_022" style="fill:none;stroke:#000000;stroke-width:0.0508" d="m 141 104.5 l 3.571 0 l 0 -3 l -3.571 0 l 0 3 z"/>
      <path id="hole_023" style="fill:none;stroke:#000000;stroke-width:0.0508" d="m 151.143 104.5 l 6.571 0 l 0 -3 l -6.571 0 l 0 3 z"/>
      <path id="hole_024" style="fill:none;stroke:#000000;stroke-width:0.0508" d="m 164.286 104.5 l 6.571 0 l 0 -3 l -6.571 0 l 0 3 z"/>
      <path id="hole_025" style="fill:none;stroke:#000000;stroke-width:0.0508" d="m 177.429 104.5 l 6.571 0 l 0 3 l -6.571 0 l 0 -3 z"/>
      <path id="side_022" style="fill:none;stroke:#000000;stroke-width:0.0508" d="m 181 53 l 0 3.2353 l 3 0 l 0 6.2353 l -3 0 l 0 6.2353 l 3 0 l 0 6.2353 l -3 0 l 0 6.2353 l 3 0 l 0 6.2353 l -3 0 l 0 6.2353 l 3 0 l 0 6.2353 l -3 0 l 0 6.2356 l 3 0 l 0 6.235 l -3 0 l 0 6.235 l 3 0 l 0 6.235 l -3 0 l 0 6.236 l 3 0 l 0 6.235 l -3 0 l 0 6.235 l 3 0 l 0 6.236 l -3 0 l 0 3.235"/>
      <path id="side_023" style="fill:none;stroke:#000000;stroke-width:0.0508" d="m 181 153 l -3.571 0 l 0 3 l -6.572 0 l 0 -3 l -6.571 0 l 0 3 l -6.572 0 l 0 -3 l -6.571 0 l 0 3 l -6.572 0 l 0 -3 l -3.571 0"/>
      <path id="side_024" style="fill:none;stroke:#000000;stroke-width:0.0508" d="m 141 153 l 0 -3.235 l -3 0 l 0 -6.236 l 3 0 l 0 -6.235 l -3 0 l 0 -6.235 l 3 0 l 0 -6.236 l -3 0 l 0 -6.235 l 3 0 l 0 -6.235 l -3 0 l 0 -6.235 l 3 0 l 0 -6.2356 l -3 0 l 0 -6.2353 l 3 0 l 0 -6.2353 l -3 0 l 0 -6.2353 l 3 0 l 0 -6.2353 l -3 0 l 0 -6.2353 l 3 0 l 0 -6.2353 l -3 0 l 0 -6.2353 l 3 0 l 0 -3.2353"/>
    </g>
    <g id="piece_005">
      <path id="side_025" style="fill:none;stroke:#000000;stroke-width:0.0508" d="m 186 50 l 6.615 0 l 0 3 l 6.616 0 l 0 -3 l 6.615 0 l 0 3 l 6.616 0 l 0 -3 l 6.615 0 l 0 3 l 6.615 0 l 0 -3 l 6.616 0 l 0 3 l 6.615 0 l 0 -3 l 6.615 0 l 0 3 l 6.616 0 l 0 -3 l 6.615 0 l 0 3 l 6.616 0 l 0 -3 l 6.615 0"/>
      <path id="hole_026" style="fill:none;stroke:#000000;stroke-width:0.0508" d="m 192.615 104.5 l 6.616 0 l 0 -3 l -6.616 0 l 0 3 z"/>
      <path id="hole_027" style="fill:none;stroke:#000000;stroke-width:0.0508" d="m 205.846 104.5 l 6.616 0 l 0 -3 l -6.616 0 l 0 3 z"/>
      <path id="hole_028" style="fill:none;stroke:#000000;stroke-width:0.0508" d="m 219.077 104.5 l 6.615 0 l 0 -3 l -6.615 0 l 0 3 z"/>
      <path id="hole_029" style="fill:none;stroke:#000000;stroke-width:0.0508" d="m 232.308 104.5 l 6.615 0 l 0 -3 l -6.615 0 l 0 3 z"/>
      <path id="hole_030" style="fill:none;stroke:#000000;stroke-width:0.0508" d="m 245.538 104.5 l 6.616 0 l 0 -3 l -6.616 0 l 0 3 z"/>
      <path id="hole_031" style="fill:none;stroke:#000000;stroke-width:0.0508" d="m 258.769 104.5 l 6.616 0 l 0 -3 l -6.616 0 l 0 3 z"/>
      <path id="side_026" style="fill:none;stroke:#000000;stroke-width:0.0508" d="m 272 50 l 0 6.2353 l -3 0 l 0 6.2353 l 3 0 l 0 6.2353 l -3 0 l 0 6.2353 l 3 0 l 0 6.2353 l -3 0 l 0 6.2353 l 3 0 l 0 6.2353 l -3 0 l 0 6.2353 l 3 0 l 0 6.2356 l -3 0 l 0 6.235 l 3 0 l 0 6.235 l -3 0 l 0 6.235 l 3 0 l 0 6.236 l -3 0 l 0 6.235 l 3 0 l 0 6.235 l -3 0 l 0 6.236 l 3 0 l 0 6.235"/>
      <path id="hole_032" style="fill:none;stroke:#000000;stroke-width:0.0508" d="m 227.5 56.2353 l 0 6.2353 l 3 0 l 0 -6.2353 l -3 0 z"/>
      <path id="hole_033" style="fill:none;stroke:#000000;stroke-width:0.0508" d="m 227.5 68.7059 l 0 6.2353 l 3 0 l 0 -6.2353 l -3 0 z"/>
      <path id="hole_034" style="fill:none;stroke:#000000;stroke-width:0.0508" d="m 227.5 81.1765 l 0 6.2353 l 3 0 l 0 -6.2353 l -3 0 z"/>
      <path id="hole_035" style="fill:none;stroke:#000000;stroke-width:0.0508" d="m 227.5 93.6471 l 0 6.2353 l 3 0 l 0 -6.2353 l -3 0 z"/>
      <path id="hole_036" style="fill:none;stroke:#000000;stroke-width:0.0508" d="m 227.5 106.118 l 0 6.235 l 3 0 l 0 -6.235 l -3 0 z"/>
      <path id="hole_037" style="fill:none;stroke:#000000;stroke-width:0.0508" d="m 227.5 118.588 l 0 6.235 l 3 0 l 0 -6.235 l -3 0 z"/>
      <path id="hole_038" style="fill:none;stroke:#000000;stroke-width:0.0508" d="m 227.5 131.059 l 0 6.235 l 3 0 l 0 -6.235 l -3 0 z"/>
      <path id="hole_039" style="fill:none;stroke:#000000;stroke-width:0.0508" d="m 227.5 143.529 l 0 6.236 l 3 0 l 0 -6.236 l -3 0 z"/>
      <path id="side_027" style="fill:none;stroke:#000000;stroke-width:0.0508" d="m 272 156 l -6.615 0 l 0 -3 l -6.616 0 l 0 3 l -6.615 0 l 0 -3 l -6.616 0 l 0 3 l -6.615 0 l 0 -3 l -6.615 0 l 0 3 l -6.616 0 l 0 -3 l -6.615 0 l 0 3 l -6.615 0 l 0 -3 l -6.616 0 l 0 3 l -6.615 0 l 0 -3 l -6.616 0 l 0 3 l -6.615 0"/>
      <path id="side_028" style="fill:none;stroke:#000000;stroke-width:0.0508" d="m 186 156 l 0 -6.235 l 3 0 l 0 -6.236 l -3 0 l 0 -6.235 l 3 0 l 0 -6.235 l -3 0 l 0 -6.236 l 3 0 l 0 -6.235 l -3 0 l 0 -6.235 l 3 0 l 0 -6.235 l -3 0 l 0 -6.2356 l 3 0 l 0 -6.2353 l -3 0 l 0 -6.2353 l 3 0 l 0 -6.2353 l -3 0 l 0 -6.2353 l 3 0 l 0 -6.2353 l -3 0 l 0 -6.2353 l 3 0 l 0 -6.2353 l -3 0 l 0 -6.2353"/>
    </g>
    <g id="piece_006">
      <path id="side_029" style="fill:none;stroke:#000000;stroke-width:0.0508" d="m 50 5 l 6.6154 0 l 0 -3 l 6.6154 0 l 0 3 l 6.6154 0 l 0 -3 l 6.6153 0 l 0 3 l 6.6154 0 l 0 -3 l 6.6154 0 l 0 3 l 6.6154 0 l 0 -3 l 6.6153 0 l 0 3 l 6.615 0 l 0 -3 l 6.616 0 l 0 3 l 6.615 0 l 0 -3 l 6.616 0 l 0 3 l 6.615 0"/>
      <path id="side_030" style="fill:none;stroke:#000000;stroke-width:0.0508" d="m 136 5 l 0 3.57143 l -3 0 l 0 6.57147 l 3 0 l 0 6.5714 l -3 0 l 0 6.5714 l 3 0 l 0 6.5714 l -3 0 l 0 6.5715 l 3 0 l 0 3.5714"/>
      <path id="hole_040" style="fill:none;stroke:#000000;stroke-width:0.0508" d="m 91.5 8.57143 l 0 6.57147 l 3 0 l 0 -6.57147 l -3 0 z"/>
      <path id="hole_041" style="fill:none;stroke:#000000;stroke-width:0.0508" d="m 91.5 21.7143 l 0 6.5714 l 3 0 l 0 -6.5714 l -3 0 z"/>
      <path id="hole_042" style="fill:none;stroke:#000000;stroke-width:0.0508" d="m 91.5 34.8571 l 0 6.5715 l 3 0 l 0 -6.5715 l -3 0 z"/>
      <path id="side_031" style="fill:none;stroke:#000000;stroke-width:0.0508" d="m 136 45 l -6.615 0 l 0 3 l -6.616 0 l 0 -3 l -6.615 0 l 0 3 l -6.616 0 l 0 -3 l -6.615 0 l 0 3 l -6.6153 0 l 0 -3 l -6.6154 0 l 0 3 l -6.6154 0 l 0 -3 l -6.6154 0 l 0 3 l -6.6153 0 l 0 -3 l -6.6154 0 l 0 3 l -6.6154 0 l 0 -3 l -6.6154 0"/>
      <path id="side_032" style="fill:none;stroke:#000000;stroke-width:0.0508" d="m 50 45 l 0 -3.5714 l 3 0 l 0 -6.5715 l -3 0 l 0 -6.5714 l 3 0 l 0 -6.5714 l -3 0 l 0 -6.5714 l 3 0 l 0 -6.5715 l -3 0 l 0 -3.5714"/>
    </g>
  </g>
</svg>