<!-- Created with Inkscape (http://www.inkscape.org/) -->
<svg xmlns:inkscape="http://www.inkscape.org/namespaces/inkscape" xmlns:sodipodi="http://sodipodi.sourceforge.net/DTD/sodipodi-0.dtd" xmlns="http://www.w3.org/2000/svg" xmlns:svg="http://www.w3.org/2000/svg" width="210mm" height="297mm" viewBox="0 0 210 297" version="1.1" id="svg5" inkscape:version="1.1.2 (0a00cf5339, 2022-02-04)" sodipodi:docname="blank.svg">
  <sodipodi:namedview id="namedview7" pagecolor="#ffffff" bordercolor="#666666" borderopacity="1.0" inkscape:pageshadow="2" inkscape:pageopacity="0.0" inkscape:pagecheckerboard="0" inkscape:document-units="mm" showgrid="false" inkscape:zoom="0.64052329" inkscape:cx="397.33138" inkscape:cy="561.25984" inkscape:window-width="2086" inkscape:window-height="1376" inkscape:window-x="0" inkscape:window-y="0" inkscape:window-maximized="1" inkscape:current-layer="layer1"/>
  <defs id="defs2"/>
  <g inkscape:label="Layer 1" inkscape:groupmode="layer" id="layer1">
    <g id="piece_001">
      <path id="side_002" style="fill:none;stroke:#000000;stroke-width:1" d="M 91.5 164.571 L 91.5 171.143 L 94.5 171.143 L 94.5 164.571 L 91.5 164.571 Z"/>
      <path id="side_003" style="fill:none;stroke:#000000;stroke-width:1" d="M 91.5 177.714 L 91.5 184.286 L 94.5 184.286 L 94.5 177.714 L 91.5 177.714"/>
      <path id="side_004" style="fill:none;stroke:#000000;stroke-width:1" d="M 91.5 190.857 L 91.5 197.429 L 94.5 197.429 L 94.5 190.857 L 91.5 190.857"/>
      <path id="side_007" style="fill:none;stroke:#000000;stroke-width:1" d="M 50 161 L 56.6154 161 L 56.6154 158 L 63.2308 158 L 63.2308 161 L 69.8462 161 L 69.8462 158 L 76.4615 158 L 76.4615 161 L 83.0769 161 L 83.0769 158 L 89.6923 158 L 89.6923 161 L 96.3077 161 L 96.3077 158 L 102.923 158 L 102.923 161 L 109.538 161 L 109.538 158 L 116.154 158 L 116.154 161 L 122.769 161 L 122.769 158 L 129.385 158 L 129.385 161 L 136 161 L 136 164.571 L 133 164.571 L 133 171.143 L 136 171.143 L 136 177.714 L 133 177.714 L 133 184.286 L 136 184.286 L 136 190.857 L 133 190.857 L 133 197.429 L 136 197.429 L 136 201 L 129.385 201 L 129.385 204 L 122.769 204 L 122.769 201 L 116.154 201 L 116.154 204 L 109.538 204 L 109.538 201 L 102.923 201 L 102.923 204 L 96.3077 204 L 96.3077 201 L 89.6923 201 L 89.6923 204 L 83.0769 204 L 83.0769 201 L 76.4615 201 L 76.4615 204 L 69.8462 204 L 69.8462 201 L 63.2308 201 L 63.2308 204 L 56.6154 204 L 56.6154 201 L 50 201 L 50 197.429 L 53 197.429 L 53 190.857 L 50 190.857 L 50 184.286 L 53 184.286 L 53 177.714 L 50 177.714 L 50 171.143 L 53 171.143 L 53 164.571 L 50 164.571 L 50 161"/>
    </g>
    <g id="piece_002">
      <path id="side_009" style="fill:none;stroke:#000000;stroke-width:1" d="M 41.5 206 L 41.5 229 L 44.5 229 L 44.5 206 L 41.5 206 Z"/>
      <path id="side_012" style="fill:none;stroke:#000000;stroke-width:1" d="M 0 209 L 6.61538 209 L 6.61538 206 L 13.2308 206 L 13.2308 209 L 19.8462 209 L 19.8462 206 L 26.4615 206 L 26.4615 209 L 33.0769 209 L 33.0769 206 L 39.6923 206 L 39.6923 209 L 46.3077 209 L 46.3077 206 L 52.9231 206 L 52.9231 209 L 59.5385 209 L 59.5385 206 L 66.1538 206 L 66.1538 209 L 72.7692 209 L 72.7692 206 L 79.3846 206 L 79.3846 209 L 86 209 L 86 212.571 L 83 212.571 L 83 219.143 L 86 219.143 L 86 225.714 L 83 225.714 L 83 232.286 L 86 232.286 L 86 238.857 L 83 238.857 L 83 245.429 L 86 245.429 L 86 249 L 79.3846 249 L 79.3846 252 L 72.7692 252 L 72.7692 249 L 66.1538 249 L 66.1538 252 L 59.5385 252 L 59.5385 249 L 52.9231 249 L 52.9231 252 L 46.3077 252 L 46.3077 249 L 39.6923 249 L 39.6923 252 L 33.0769 252 L 33.0769 249 L 26.4615 249 L 26.4615 252 L 19.8462 252 L 19.8462 249 L 13.2308 249 L 13.2308 252 L 6.61538 252 L 6.61538 249 L 0 249 L 0 245.429 L 3 245.429 L 3 238.857 L 0 238.857 L 0 232.286 L 3 232.286 L 3 225.714 L 0 225.714 L 0 219.143 L 3 219.143 L 3 212.571 L 0 212.571 L 0 209"/>
    </g>
    <g id="piece_003">
      <path id="side_013" style="fill:none;stroke:#000000;stroke-width:1" d="M 5 104.5 L 8.57143 104.5 L 8.57143 101.5 L 5 101.5 L 5 104.5 Z"/>
      <path id="side_014" style="fill:none;stroke:#000000;stroke-width:1" d="M 15.1429 104.5 L 21.7143 104.5 L 21.7143 101.5 L 15.1429 101.5 L 15.1429 104.5"/>
      <path id="side_015" style="fill:none;stroke:#000000;stroke-width:1" d="M 28.2857 104.5 L 34.8571 104.5 L 34.8571 101.5 L 28.2857 101.5 L 28.2857 104.5"/>
      <path id="side_016" style="fill:none;stroke:#000000;stroke-width:1" d="M 41.4286 101.5 L 41.4286 101.5 L 41.4286 101.5"/>
      <path id="side_020" style="fill:none;stroke:#000000;stroke-width:1" d="M 5 53 L 8.57143 53 L 8.57143 50 L 15.1429 50 L 15.1429 53 L 21.7143 53 L 21.7143 50 L 28.2857 50 L 28.2857 53 L 34.8571 53 L 34.8571 50 L 41.4286 50 L 41.4286 53 L 45 53 L 45 56.2353 L 48 56.2353 L 48 62.4706 L 45 62.4706 L 45 68.7059 L 48 68.7059 L 48 74.9412 L 45 74.9412 L 45 81.1765 L 48 81.1765 L 48 87.4118 L 45 87.4118 L 45 93.6471 L 48 93.6471 L 48 99.8824 L 45 99.8824 L 45 106.118 L 48 106.118 L 48 112.353 L 45 112.353 L 45 118.588 L 48 118.588 L 48 124.824 L 45 124.824 L 45 131.059 L 48 131.059 L 48 137.294 L 45 137.294 L 45 143.529 L 48 143.529 L 48 149.765 L 45 149.765 L 45 153 L 41.4286 153 L 41.4286 156 L 34.8571 156 L 34.8571 153 L 28.2857 153 L 28.2857 156 L 21.7143 156 L 21.7143 153 L 15.1429 153 L 15.1429 156 L 8.57143 156 L 8.57143 153 L 5 153 L 5 149.765 L 2 149.765 L 2 143.529 L 5 143.529 L 5 137.294 L 2 137.294 L 2 131.059 L 5 131.059 L 5 124.824 L 2 124.824 L 2 118.588 L 5 118.588 L 5 112.353 L 2 112.353 L 2 106.118 L 5 106.118 L 5 99.8824 L 2 99.8824 L 2 93.6471 L 5 93.6471 L 5 87.4118 L 2 87.4118 L 2 81.1765 L 5 81.1765 L 5 74.9412 L 2 74.9412 L 2 68.7059 L 5 68.7059 L 5 62.4706 L 2 62.4706 L 2 56.2353 L 5 56.2353 L 5 53"/>
    </g>
    <g id="piece_004">
      <path id="side_021" style="fill:none;stroke:#000000;stroke-width:1" d="M 0 305.5 L 23 305.5 L 23 308.5 L 0 308.5 L 0 305.5 Z"/>
      <path id="side_025" style="fill:none;stroke:#000000;stroke-width:1" d="M 3 257 L 6.57143 257 L 6.57143 254 L 13.1429 254 L 13.1429 257 L 19.7143 257 L 19.7143 254 L 26.2857 254 L 26.2857 257 L 32.8571 257 L 32.8571 254 L 39.4286 254 L 39.4286 257 L 43 257 L 43 260.235 L 46 260.235 L 46 266.471 L 43 266.471 L 43 272.706 L 46 272.706 L 46 278.941 L 43 278.941 L 43 285.176 L 46 285.176 L 46 291.412 L 43 291.412 L 43 297.647 L 46 297.647 L 46 303.882 L 43 303.882 L 43 310.118 L 46 310.118 L 46 316.353 L 43 316.353 L 43 322.588 L 46 322.588 L 46 328.824 L 43 328.824 L 43 335.059 L 46 335.059 L 46 341.294 L 43 341.294 L 43 347.529 L 46 347.529 L 46 353.765 L 43 353.765 L 43 357 L 39.4286 357 L 39.4286 360 L 32.8571 360 L 32.8571 357 L 26.2857 357 L 26.2857 360 L 19.7143 360 L 19.7143 357 L 13.1429 357 L 13.1429 360 L 6.57143 360 L 6.57143 357 L 3 357 L 3 353.765 L 0 353.765 L 0 347.529 L 3 347.529 L 3 341.294 L 0 341.294 L 0 335.059 L 3 335.059 L 3 328.824 L 0 328.824 L 0 322.588 L 3 322.588 L 3 316.353 L 0 316.353 L 0 310.118 L 3 310.118 L 3 303.882 L 0 303.882 L 0 297.647 L 3 297.647 L 3 291.412 L 0 291.412 L 0 285.176 L 3 285.176 L 3 278.941 L 0 278.941 L 0 272.706 L 3 272.706 L 3 266.471 L 0 266.471 L 0 260.235 L 3 260.235 L 3 257"/>
    </g>
    <g id="piece_005">
      <path id="side_026" style="fill:none;stroke:#000000;stroke-width:1" d="M 56.6154 104.5 L 63.2308 104.5 L 63.2308 101.5 L 56.6154 101.5 L 56.6154 104.5 Z"/>
      <path id="side_027" style="fill:none;stroke:#000000;stroke-width:1" d="M 69.8462 104.5 L 76.4615 104.5 L 76.4615 101.5 L 69.8462 101.5 L 69.8462 104.5"/>
      <path id="side_028" style="fill:none;stroke:#000000;stroke-width:1" d="M 83.0769 104.5 L 89.6923 104.5 L 89.6923 101.5 L 83.0769 101.5 L 83.0769 104.5"/>
      <path id="side_029" style="fill:none;stroke:#000000;stroke-width:1" d="M 96.3077 104.5 L 102.923 104.5 L 102.923 101.5 L 96.3077 101.5 L 96.3077 104.5"/>
      <path id="side_030" style="fill:none;stroke:#000000;stroke-width:1" d="M 109.538 104.5 L 116.154 104.5 L 116.154 101.5 L 109.538 101.5 L 109.538 104.5"/>
      <path id="side_031" style="fill:none;stroke:#000000;stroke-width:1" d="M 122.769 104.5 L 129.385 104.5 L 129.385 101.5 L 122.769 101.5 L 122.769 104.5"/>
      <path id="side_033" style="fill:none;stroke:#000000;stroke-width:1" d="M 91.5 56.2353 L 91.5 62.4706 L 94.5 62.4706 L 94.5 56.2353 L 91.5 56.2353"/>
      <path id="side_034" style="fill:none;stroke:#000000;stroke-width:1" d="M 91.5 68.7059 L 91.5 74.9412 L 94.5 74.9412 L 94.5 68.7059 L 91.5 68.7059"/>
      <path id="side_035" style="fill:none;stroke:#000000;stroke-width:1" d="M 91.5 81.1765 L 91.5 87.4118 L 94.5 87.4118 L 94.5 81.1765 L 91.5 81.1765"/>
      <path id="side_036" style="fill:none;stroke:#000000;stroke-width:1" d="M 91.5 93.6471 L 91.5 99.8824 L 94.5 99.8824 L 94.5 93.6471 L 91.5 93.6471"/>
      <path id="side_037" style="fill:none;stroke:#000000;stroke-width:1" d="M 91.5 106.118 L 91.5 112.353 L 94.5 112.353 L 94.5 106.118 L 91.5 106.118"/>
      <path id="side_038" style="fill:none;stroke:#000000;stroke-width:1" d="M 91.5 118.588 L 91.5 124.824 L 94.5 124.824 L 94.5 118.588 L 91.5 118.588"/>
      <path id="side_039" style="fill:none;stroke:#000000;stroke-width:1" d="M 91.5 131.059 L 91.5 137.294 L 94.5 137.294 L 94.5 131.059 L 91.5 131.059"/>
      <path id="side_040" style="fill:none;stroke:#000000;stroke-width:1" d="M 91.5 143.529 L 91.5 149.765 L 94.5 149.765 L 94.5 143.529 L 91.5 143.529"/>
      <path id="side_043" style="fill:none;stroke:#000000;stroke-width:1" d="M 50 50 L 56.6154 50 L 56.6154 53 L 63.2308 53 L 63.2308 50 L 69.8462 50 L 69.8462 53 L 76.4615 53 L 76.4615 50 L 83.0769 50 L 83.0769 53 L 89.6923 53 L 89.6923 50 L 96.3077 50 L 96.3077 53 L 102.923 53 L 102.923 50 L 109.538 50 L 109.538 53 L 116.154 53 L 116.154 50 L 122.769 50 L 122.769 53 L 129.385 53 L 129.385 50 L 136 50 L 136 56.2353 L 133 56.2353 L 133 62.4706 L 136 62.4706 L 136 68.7059 L 133 68.7059 L 133 74.9412 L 136 74.9412 L 136 81.1765 L 133 81.1765 L 133 87.4118 L 136 87.4118 L 136 93.6471 L 133 93.6471 L 133 99.8824 L 136 99.8824 L 136 106.118 L 133 106.118 L 133 112.353 L 136 112.353 L 136 118.588 L 133 118.588 L 133 124.824 L 136 124.824 L 136 131.059 L 133 131.059 L 133 137.294 L 136 137.294 L 136 143.529 L 133 143.529 L 133 149.765 L 136 149.765 L 136 156 L 129.385 156 L 129.385 153 L 122.769 153 L 122.769 156 L 116.154 156 L 116.154 153 L 109.538 153 L 109.538 156 L 102.923 156 L 102.923 153 L 96.3077 153 L 96.3077 156 L 89.6923 156 L 89.6923 153 L 83.0769 153 L 83.0769 156 L 76.4615 156 L 76.4615 153 L 69.8462 153 L 69.8462 156 L 63.2308 156 L 63.2308 153 L 56.6154 153 L 56.6154 156 L 50 156 L 50 149.765 L 53 149.765 L 53 143.529 L 50 143.529 L 50 137.294 L 53 137.294 L 53 131.059 L 50 131.059 L 50 124.824 L 53 124.824 L 53 118.588 L 50 118.588 L 50 112.353 L 53 112.353 L 53 106.118 L 50 106.118 L 50 99.8824 L 53 99.8824 L 53 93.6471 L 50 93.6471 L 50 87.4118 L 53 87.4118 L 53 81.1765 L 50 81.1765 L 50 74.9412 L 53 74.9412 L 53 68.7059 L 50 68.7059 L 50 62.4706 L 53 62.4706 L 53 56.2353 L 50 56.2353 L 50 50"/>
    </g>
    <g id="piece_006">
      <path id="side_044" style="fill:none;stroke:#000000;stroke-width:1" d="M 141 104.5 L 144.571 104.5 L 144.571 101.5 L 141 101.5 L 141 104.5 Z"/>
      <path id="side_045" style="fill:none;stroke:#000000;stroke-width:1" d="M 151.143 104.5 L 157.714 104.5 L 157.714 101.5 L 151.143 101.5 L 151.143 104.5"/>
      <path id="side_046" style="fill:none;stroke:#000000;stroke-width:1" d="M 164.286 104.5 L 170.857 104.5 L 170.857 101.5 L 164.286 101.5 L 164.286 104.5"/>
      <path id="side_047" style="fill:none;stroke:#000000;stroke-width:1" d="M 177.429 101.5 L 177.429 101.5 L 177.429 101.5"/>
      <path id="side_051" style="fill:none;stroke:#000000;stroke-width:1" d="M 141 53 L 144.571 53 L 144.571 50 L 151.143 50 L 151.143 53 L 157.714 53 L 157.714 50 L 164.286 50 L 164.286 53 L 170.857 53 L 170.857 50 L 177.429 50 L 177.429 53 L 181 53 L 181 56.2353 L 184 56.2353 L 184 62.4706 L 181 62.4706 L 181 68.7059 L 184 68.7059 L 184 74.9412 L 181 74.9412 L 181 81.1765 L 184 81.1765 L 184 87.4118 L 181 87.4118 L 181 93.6471 L 184 93.6471 L 184 99.8824 L 181 99.8824 L 181 106.118 L 184 106.118 L 184 112.353 L 181 112.353 L 181 118.588 L 184 118.588 L 184 124.824 L 181 124.824 L 181 131.059 L 184 131.059 L 184 137.294 L 181 137.294 L 181 143.529 L 184 143.529 L 184 149.765 L 181 149.765 L 181 153 L 177.429 153 L 177.429 156 L 170.857 156 L 170.857 153 L 164.286 153 L 164.286 156 L 157.714 156 L 157.714 153 L 151.143 153 L 151.143 156 L 144.571 156 L 144.571 153 L 141 153 L 141 149.765 L 138 149.765 L 138 143.529 L 141 143.529 L 141 137.294 L 138 137.294 L 138 131.059 L 141 131.059 L 141 124.824 L 138 124.824 L 138 118.588 L 141 118.588 L 141 112.353 L 138 112.353 L 138 106.118 L 141 106.118 L 141 99.8824 L 138 99.8824 L 138 93.6471 L 141 93.6471 L 141 87.4118 L 138 87.4118 L 138 81.1765 L 141 81.1765 L 141 74.9412 L 138 74.9412 L 138 68.7059 L 141 68.7059 L 141 62.4706 L 138 62.4706 L 138 56.2353 L 141 56.2353 L 141 53"/>
    </g>
    <g id="piece_007">
      <path id="side_052" style="fill:none;stroke:#000000;stroke-width:1" d="M 192.615 104.5 L 199.231 104.5 L 199.231 101.5 L 192.615 101.5 L 192.615 104.5 Z"/>
      <path id="side_053" style="fill:none;stroke:#000000;stroke-width:1" d="M 205.846 104.5 L 212.462 104.5 L 212.462 101.5 L 205.846 101.5 L 205.846 104.5"/>
      <path id="side_054" style="fill:none;stroke:#000000;stroke-width:1" d="M 219.077 104.5 L 225.692 104.5 L 225.692 101.5 L 219.077 101.5 L 219.077 104.5"/>
      <path id="side_055" style="fill:none;stroke:#000000;stroke-width:1" d="M 232.308 104.5 L 238.923 104.5 L 238.923 101.5 L 232.308 101.5 L 232.308 104.5"/>
      <path id="side_056" style="fill:none;stroke:#000000;stroke-width:1" d="M 245.538 104.5 L 252.154 104.5 L 252.154 101.5 L 245.538 101.5 L 245.538 104.5"/>
      <path id="side_057" style="fill:none;stroke:#000000;stroke-width:1" d="M 258.769 104.5 L 265.385 104.5 L 265.385 101.5 L 258.769 101.5 L 258.769 104.5"/>
      <path id="side_059" style="fill:none;stroke:#000000;stroke-width:1" d="M 227.5 56.2353 L 227.5 62.4706 L 230.5 62.4706 L 230.5 56.2353 L 227.5 56.2353"/>
      <path id="side_060" style="fill:none;stroke:#000000;stroke-width:1" d="M 227.5 68.7059 L 227.5 74.9412 L 230.5 74.9412 L 230.5 68.7059 L 227.5 68.7059"/>
      <path id="side_061" style="fill:none;stroke:#000000;stroke-width:1" d="M 227.5 81.1765 L 227.5 87.4118 L 230.5 87.4118 L 230.5 81.1765 L 227.5 81.1765"/>
      <path id="side_062" style="fill:none;stroke:#000000;stroke-width:1" d="M 227.5 93.6471 L 227.5 99.8824 L 230.5 99.8824 L 230.5 93.6471 L 227.5 93.6471"/>
      <path id="side_063" style="fill:none;stroke:#000000;stroke-width:1" d="M 227.5 106.118 L 227.5 112.353 L 230.5 112.353 L 230.5 106.118 L 227.5 106.118"/>
      <path id="side_064" style="fill:none;stroke:#000000;stroke-width:1" d="M 227.5 118.588 L 227.5 124.824 L 230.5 124.824 L 230.5 118.588 L 227.5 118.588"/>
      <path id="side_065" style="fill:none;stroke:#000000;stroke-width:1" d="M 227.5 131.059 L 227.5 137.294 L 230.5 137.294 L 230.5 131.059 L 227.5 131.059"/>
      <path id="side_066" style="fill:none;stroke:#000000;stroke-width:1" d="M 227.5 143.529 L 227.5 149.765 L 230.5 149.765 L 230.5 143.529 L 227.5 143.529"/>
      <path id="side_069" style="fill:none;stroke:#000000;stroke-width:1" d="M 186 50 L 192.615 50 L 192.615 53 L 199.231 53 L 199.231 50 L 205.846 50 L 205.846 53 L 212.462 53 L 212.462 50 L 219.077 50 L 219.077 53 L 225.692 53 L 225.692 50 L 232.308 50 L 232.308 53 L 238.923 53 L 238.923 50 L 245.538 50 L 245.538 53 L 252.154 53 L 252.154 50 L 258.769 50 L 258.769 53 L 265.385 53 L 265.385 50 L 272 50 L 272 56.2353 L 269 56.2353 L 269 62.4706 L 272 62.4706 L 272 68.7059 L 269 68.7059 L 269 74.9412 L 272 74.9412 L 272 81.1765 L 269 81.1765 L 269 87.4118 L 272 87.4118 L 272 93.6471 L 269 93.6471 L 269 99.8824 L 272 99.8824 L 272 106.118 L 269 106.118 L 269 112.353 L 272 112.353 L 272 118.588 L 269 118.588 L 269 124.824 L 272 124.824 L 272 131.059 L 269 131.059 L 269 137.294 L 272 137.294 L 272 143.529 L 269 143.529 L 269 149.765 L 272 149.765 L 272 156 L 265.385 156 L 265.385 153 L 258.769 153 L 258.769 156 L 252.154 156 L 252.154 153 L 245.538 153 L 245.538 156 L 238.923 156 L 238.923 153 L 232.308 153 L 232.308 156 L 225.692 156 L 225.692 153 L 219.077 153 L 219.077 156 L 212.462 156 L 212.462 153 L 205.846 153 L 205.846 156 L 199.231 156 L 199.231 153 L 192.615 153 L 192.615 156 L 186 156 L 186 149.765 L 189 149.765 L 189 143.529 L 186 143.529 L 186 137.294 L 189 137.294 L 189 131.059 L 186 131.059 L 186 124.824 L 189 124.824 L 189 118.588 L 186 118.588 L 186 112.353 L 189 112.353 L 189 106.118 L 186 106.118 L 186 99.8824 L 189 99.8824 L 189 93.6471 L 186 93.6471 L 186 87.4118 L 189 87.4118 L 189 81.1765 L 186 81.1765 L 186 74.9412 L 189 74.9412 L 189 68.7059 L 186 68.7059 L 186 62.4706 L 189 62.4706 L 189 56.2353 L 186 56.2353 L 186 50"/>
    </g>
    <g id="piece_008">
      <path id="side_071" style="fill:none;stroke:#000000;stroke-width:1" d="M 91.5 8.57143 L 91.5 15.1429 L 94.5 15.1429 L 94.5 8.57143 L 91.5 8.57143 Z"/>
      <path id="side_072" style="fill:none;stroke:#000000;stroke-width:1" d="M 91.5 21.7143 L 91.5 28.2857 L 94.5 28.2857 L 94.5 21.7143 L 91.5 21.7143"/>
      <path id="side_073" style="fill:none;stroke:#000000;stroke-width:1" d="M 91.5 34.8571 L 91.5 41.4286 L 94.5 41.4286 L 94.5 34.8571 L 91.5 34.8571"/>
      <path id="side_076" style="fill:none;stroke:#000000;stroke-width:1" d="M 50 5 L 56.6154 5 L 56.6154 2 L 63.2308 2 L 63.2308 5 L 69.8462 5 L 69.8462 2 L 76.4615 2 L 76.4615 5 L 83.0769 5 L 83.0769 2 L 89.6923 2 L 89.6923 5 L 96.3077 5 L 96.3077 2 L 102.923 2 L 102.923 5 L 109.538 5 L 109.538 2 L 116.154 2 L 116.154 5 L 122.769 5 L 122.769 2 L 129.385 2 L 129.385 5 L 136 5 L 136 8.57143 L 133 8.57143 L 133 15.1429 L 136 15.1429 L 136 21.7143 L 133 21.7143 L 133 28.2857 L 136 28.2857 L 136 34.8571 L 133 34.8571 L 133 41.4286 L 136 41.4286 L 136 45 L 129.385 45 L 129.385 48 L 122.769 48 L 122.769 45 L 116.154 45 L 116.154 48 L 109.538 48 L 109.538 45 L 102.923 45 L 102.923 48 L 96.3077 48 L 96.3077 45 L 89.6923 45 L 89.6923 48 L 83.0769 48 L 83.0769 45 L 76.4615 45 L 76.4615 48 L 69.8462 48 L 69.8462 45 L 63.2308 45 L 63.2308 48 L 56.6154 48 L 56.6154 45 L 50 45 L 50 41.4286 L 53 41.4286 L 53 34.8571 L 50 34.8571 L 50 28.2857 L 53 28.2857 L 53 21.7143 L 50 21.7143 L 50 15.1429 L 53 15.1429 L 53 8.57143 L 50 8.57143 L 50 5"/>
    </g>
  </g>
</svg>