<!-- Created with Inkscape (http://www.inkscape.org/) -->
<svg xmlns:inkscape="http://www.inkscape.org/namespaces/inkscape" xmlns:sodipodi="http://sodipodi.sourceforge.net/DTD/sodipodi-0.dtd" xmlns="http://www.w3.org/2000/svg" xmlns:svg="http://www.w3.org/2000/svg" width="291mm" height="229mm" viewBox="0 0 291 229" version="1.1" id="svg5" inkscape:version="1.1.2 (0a00cf5339, 2022-02-04)" sodipodi:docname="blank.svg">
  <sodipodi:namedview id="namedview7" pagecolor="#ffffff" bordercolor="#666666" borderopacity="1.0" inkscape:pageshadow="2" inkscape:pageopacity="0.0" inkscape:pagecheckerboard="0" inkscape:document-units="mm" showgrid="false" inkscape:zoom="0.64052329" inkscape:cx="397.33138" inkscape:cy="561.25984" inkscape:window-width="2086" inkscape:window-height="1376" inkscape:window-x="0" inkscape:window-y="0" inkscape:window-maximized="1" inkscape:current-layer="layer1"/>
  <defs id="defs2"/>
  <g inkscape:label="Layer 1" inkscape:groupmode="layer" id="layer1">
    <metadata text="createArgs=['--unit=mm', '--length=80', '--width=100', '--depth=40', '--equal=0', '--tab=6', '--tabtype=0', '--tabsymmetry=0', '--dimpleheight=0', '--dimplelength=0', '--hairline=1', '--thickness=3', '--kerf=0', '--style=1', '--boxtype=1', '--div-l=1', '--div-w=1', '--keydiv=0', '--spacing=2', '--inside=0']"/>
    <g id="piece_001">
      <path id="side_001" style="fill:none;stroke:#000000;stroke-width:0.0508" d="M 44 149 L 50.2857 149 L 50.2857 146 L 56.2857 146 L 56.2857 149 L 62.5714 149 L 62.5714 146 L 68.5714 146 L 68.5714 149 L 74.8571 149 L 74.8571 146 L 80.8571 146 L 80.8571 149 L 87.1429 149 L 87.1429 146 L 93.1429 146 L 93.1429 149 L 99.4286 149 L 99.4286 146 L 105.429 146 L 105.429 149 L 111.714 149 L 111.714 146 L 117.714 146 L 117.714 149 L 124 149"/>
      <path id="side_002" style="fill:none;stroke:#000000;stroke-width:0.0508" d="M 124 149 L 124 155.333 L 121 155.333 L 121 161.333 L 124 161.333 L 124 170.667 L 121 170.667 L 121 176.667 L 124 176.667 L 124 183"/>
      <path id="hole_001" style="fill:none;stroke:#000000;stroke-width:0.0508" d="M 85.5 155.333 L 85.5 161.333 L 82.5 161.333 L 82.5 155.333 L 85.5 155.333 Z"/>
      <path id="hole_002" style="fill:none;stroke:#000000;stroke-width:0.0508" d="M 85.5 170.667 L 85.5 176.667 L 82.5 176.667 L 82.5 170.667 L 85.5 170.667 Z"/>
      <path id="side_003" style="fill:none;stroke:#000000;stroke-width:0.0508" d="M 124 183 L 117.714 183 L 117.714 186 L 111.714 186 L 111.714 183 L 105.429 183 L 105.429 186 L 99.4286 186 L 99.4286 183 L 93.1429 183 L 93.1429 186 L 87.1429 186 L 87.1429 183 L 80.8571 183 L 80.8571 186 L 74.8571 186 L 74.8571 183 L 68.5714 183 L 68.5714 186 L 62.5714 186 L 62.5714 183 L 56.2857 183 L 56.2857 186 L 50.2857 186 L 50.2857 183 L 44 183"/>
      <path id="side_004" style="fill:none;stroke:#000000;stroke-width:0.0508" d="M 44 183 L 44 176.667 L 47 176.667 L 47 170.667 L 44 170.667 L 44 161.333 L 47 161.333 L 47 155.333 L 44 155.333 L 44 149"/>
    </g>
    <g id="xdivider_001">
      <path id="side_005" style="fill:none;stroke:#000000;stroke-width:0.0508" d="M 44 191 L 50.2857 191 L 50.2857 188 L 56.2857 188 L 56.2857 191 L 62.5714 191 L 62.5714 188 L 68.5714 188 L 68.5714 191 L 74.8571 191 L 74.8571 188 L 80.8571 188 L 80.8571 191 L 87.1429 191 L 87.1429 188 L 93.1429 188 L 93.1429 191 L 99.4286 191 L 99.4286 188 L 105.429 188 L 105.429 191 L 111.714 191 L 111.714 188 L 117.714 188 L 117.714 191 L 124 191"/>
      <path id="side_006" style="fill:none;stroke:#000000;stroke-width:0.0508" d="M 124 191 L 124 197.333 L 121 197.333 L 121 203.333 L 124 203.333 L 124 212.667 L 121 212.667 L 121 218.667 L 124 218.667 L 124 225"/>
      <path id="side_007" style="fill:none;stroke:#000000;stroke-width:0.0508" d="M 124 225 L 117.714 225 L 117.714 228 L 111.714 228 L 111.714 225 L 105.429 225 L 105.429 228 L 99.4286 228 L 99.4286 225 L 93.1429 225 L 93.1429 228 L 87.1429 228 L 87.1429 225 L 80.8571 225 L 80.8571 228 L 74.8571 228 L 74.8571 225 L 68.5714 225 L 68.5714 228 L 62.5714 228 L 62.5714 225 L 56.2857 225 L 56.2857 228 L 50.2857 228 L 50.2857 225 L 44 225"/>
      <path id="side_008" style="fill:none;stroke:#000000;stroke-width:0.0508" d="M 44 225 L 44 218.667 L 47 218.667 L 47 212.667 L 44 212.667 L 44 203.333 L 47 203.333 L 47 197.333 L 44 197.333 L 44 191"/>
      <path id="slot_001" style="fill:none;stroke:#000000;stroke-width:0.0508" d="M 82.5 228 L 82.5 208 L 85.5 208 L 85.5 228 L 82.5 228 Z"/>
    </g>
    <g id="piece_002">
      <path id="side_009" style="fill:none;stroke:#000000;stroke-width:0.0508" d="M 5 47 L 11.3333 47 L 11.3333 44 L 17.3333 44 L 17.3333 47 L 26.6667 47 L 26.6667 44 L 32.6667 44 L 32.6667 47 L 39 47"/>
      <path id="hole_003" style="fill:none;stroke:#000000;stroke-width:0.0508" d="M 5 92.5 L 11.3333 92.5 L 11.3333 95.5 L 5 95.5 L 5 92.5 Z"/>
      <path id="hole_004" style="fill:none;stroke:#000000;stroke-width:0.0508" d="M 17.3333 92.5 L 26.6667 92.5 L 26.6667 95.5 L 17.3333 95.5 L 17.3333 92.5 Z"/>
      <path id="hole_005" style="fill:none;stroke:#000000;stroke-width:0.0508" d="M 32.6667 92.5 L 39 92.5 L 39 95.5 L 32.6667 95.5 L 32.6667 92.5 Z"/>
      <path id="side_010" style="fill:none;stroke:#000000;stroke-width:0.0508" d="M 39 47 L 39 51.25 L 42 51.25 L 42 57.25 L 39 57.25 L 39 64.5 L 42 64.5 L 42 70.5 L 39 70.5 L 39 77.75 L 42 77.75 L 42 83.75 L 39 83.75 L 39 91 L 42 91 L 42 97 L 39 97 L 39 104.25 L 42 104.25 L 42 110.25 L 39 110.25 L 39 117.5 L 42 117.5 L 42 123.5 L 39 123.5 L 39 130.75 L 42 130.75 L 42 136.75 L 39 136.75 L 39 141"/>
      <path id="side_011" style="fill:none;stroke:#000000;stroke-width:0.0508" d="M 39 141 L 32.6667 141 L 32.6667 144 L 26.6667 144 L 26.6667 141 L 17.3333 141 L 17.3333 144 L 11.3333 144 L 11.3333 141 L 5 141"/>
      <path id="side_012" style="fill:none;stroke:#000000;stroke-width:0.0508" d="M 5 141 L 5 136.75 L 2 136.75 L 2 130.75 L 5 130.75 L 5 123.5 L 2 123.5 L 2 117.5 L 5 117.5 L 5 110.25 L 2 110.25 L 2 104.25 L 5 104.25 L 5 97 L 2 97 L 2 91 L 5 91 L 5 83.75 L 2 83.75 L 2 77.75 L 5 77.75 L 5 70.5 L 2 70.5 L 2 64.5 L 5 64.5 L 5 57.25 L 2 57.25 L 2 51.25 L 5 51.25 L 5 47"/>
    </g>
    <g id="ydivider_001">
      <path id="side_013" style="fill:none;stroke:#000000;stroke-width:0.0508" d="M 253 47 L 259.333 47 L 259.333 44 L 265.333 44 L 265.333 47 L 274.667 47 L 274.667 44 L 280.667 44 L 280.667 47 L 287 47"/>
      <path id="slot_002" style="fill:none;stroke:#000000;stroke-width:0.0508" d="M 250 92.5 L 270 92.5 L 270 95.5 L 250 95.5 L 250 92.5 Z"/>
      <path id="side_014" style="fill:none;stroke:#000000;stroke-width:0.0508" d="M 287 47 L 287 51.25 L 290 51.25 L 290 57.25 L 287 57.25 L 287 64.5 L 290 64.5 L 290 70.5 L 287 70.5 L 287 77.75 L 290 77.75 L 290 83.75 L 287 83.75 L 287 91 L 290 91 L 290 97 L 287 97 L 287 104.25 L 290 104.25 L 290 110.25 L 287 110.25 L 287 117.5 L 290 117.5 L 290 123.5 L 287 123.5 L 287 130.75 L 290 130.75 L 290 136.75 L 287 136.75 L 287 141"/>
      <path id="side_015" style="fill:none;stroke:#000000;stroke-width:0.0508" d="M 287 141 L 280.667 141 L 280.667 144 L 274.667 144 L 274.667 141 L 265.333 141 L 265.333 144 L 259.333 144 L 259.333 141 L 253 141"/>
      <path id="side_016" style="fill:none;stroke:#000000;stroke-width:0.0508" d="M 253 141 L 253 136.75 L 250 136.75 L 250 130.75 L 253 130.75 L 253 123.5 L 250 123.5 L 250 117.5 L 253 117.5 L 253 110.25 L 250 110.25 L 250 104.25 L 253 104.25 L 253 97 L 250 97 L 250 91 L 253 91 L 253 83.75 L 250 83.75 L 250 77.75 L 253 77.75 L 253 70.5 L 250 70.5 L 250 64.5 L 253 64.5 L 253 57.25 L 250 57.25 L 250 51.25 L 253 51.25 L 253 47"/>
    </g>
    <g id="piece_003">
      <path id="side_017" style="fill:none;stroke:#000000;stroke-width:0.0508" d="M 44 44 L 50.2857 44 L 50.2857 47 L 56.2857 47 L 56.2857 44 L 62.5714 44 L 62.5714 47 L 68.5714 47 L 68.5714 44 L 74.8571 44 L 74.8571 47 L 80.8571 47 L 80.8571 44 L 87.1429 44 L 87.1429 47 L 93.1429 47 L 93.1429 44 L 99.4286 44 L 99.4286 47 L 105.429 47 L 105.429 44 L 111.714 44 L 111.714 47 L 117.714 47 L 117.714 44 L 124 44"/>
      <path id="hole_006" style="fill:none;stroke:#000000;stroke-width:0.0508" d="M 50.2857 92.5 L 56.2857 92.5 L 56.2857 95.5 L 50.2857 95.5 L 50.2857 92.5 Z"/>
      <path id="hole_007" style="fill:none;stroke:#000000;stroke-width:0.0508" d="M 62.5714 92.5 L 68.5714 92.5 L 68.5714 95.5 L 62.5714 95.5 L 62.5714 92.5 Z"/>
      <path id="hole_008" style="fill:none;stroke:#000000;stroke-width:0.0508" d="M 74.8571 92.5 L 80.8571 92.5 L 80.8571 95.5 L 74.8571 95.5 L 74.8571 92.5 Z"/>
      <path id="hole_009" style="fill:none;stroke:#000000;stroke-width:0.0508" d="M 87.1429 92.5 L 93.1429 92.5 L 93.1429 95.5 L 87.1429 95.5 L 87.1429 92.5 Z"/>
      <path id="hole_010" style="fill:none;stroke:#000000;stroke-width:0.0508" d="M 99.4286 92.5 L 105.429 92.5 L 105.429 95.5 L 99.4286 95.5 L 99.4286 92.5 Z"/>
      <path id="hole_011" style="fill:none;stroke:#000000;stroke-width:0.0508" d="M 111.714 92.5 L 117.714 92.5 L 117.714 95.5 L 111.714 95.5 L 111.714 92.5 Z"/>
      <path id="side_018" style="fill:none;stroke:#000000;stroke-width:0.0508" d="M 124 44 L 124 51.25 L 121 51.25 L 121 57.25 L 124 57.25 L 124 64.5 L 121 64.5 L 121 70.5 L 124 70.5 L 124 77.75 L 121 77.75 L 121 83.75 L 124 83.75 L 124 91 L 121 91 L 121 97 L 124 97 L 124 104.25 L 121 104.25 L 121 110.25 L 124 110.25 L 124 117.5 L 121 117.5 L 121 123.5 L 124 123.5 L 124 130.75 L 121 130.75 L 121 136.75 L 124 136.75 L 124 144"/>
      <path id="hole_012" style="fill:none;stroke:#000000;stroke-width:0.0508" d="M 85.5 51.25 L 85.5 57.25 L 82.5 57.25 L 82.5 51.25 L 85.5 51.25 Z"/>
      <path id="hole_013" style="fill:none;stroke:#000000;stroke-width:0.0508" d="M 85.5 64.5 L 85.5 70.5 L 82.5 70.5 L 82.5 64.5 L 85.5 64.5 Z"/>
      <path id="hole_014" style="fill:none;stroke:#000000;stroke-width:0.0508" d="M 85.5 77.75 L 85.5 83.75 L 82.5 83.75 L 82.5 77.75 L 85.5 77.75 Z"/>
      <path id="hole_015" style="fill:none;stroke:#000000;stroke-width:0.0508" d="M 85.5 91 L 85.5 97 L 82.5 97 L 82.5 91 L 85.5 91 Z"/>
      <path id="hole_016" style="fill:none;stroke:#000000;stroke-width:0.0508" d="M 85.5 104.25 L 85.5 110.25 L 82.5 110.25 L 82.5 104.25 L 85.5 104.25 Z"/>
      <path id="hole_017" style="fill:none;stroke:#000000;stroke-width:0.0508" d="M 85.5 117.5 L 85.5 123.5 L 82.5 123.5 L 82.5 117.5 L 85.5 117.5 Z"/>
      <path id="hole_018" style="fill:none;stroke:#000000;stroke-width:0.0508" d="M 85.5 130.75 L 85.5 136.75 L 82.5 136.75 L 82.5 130.75 L 85.5 130.75 Z"/>
      <path id="side_019" style="fill:none;stroke:#000000;stroke-width:0.0508" d="M 124 144 L 117.714 144 L 117.714 141 L 111.714 141 L 111.714 144 L 105.429 144 L 105.429 141 L 99.4286 141 L 99.4286 144 L 93.1429 144 L 93.1429 141 L 87.1429 141 L 87.1429 144 L 80.8571 144 L 80.8571 141 L 74.8571 141 L 74.8571 144 L 68.5714 144 L 68.5714 141 L 62.5714 141 L 62.5714 144 L 56.2857 144 L 56.2857 141 L 50.2857 141 L 50.2857 144 L 44 144"/>
      <path id="side_020" style="fill:none;stroke:#000000;stroke-width:0.0508" d="M 44 144 L 44 136.75 L 47 136.75 L 47 130.75 L 44 130.75 L 44 123.5 L 47 123.5 L 47 117.5 L 44 117.5 L 44 110.25 L 47 110.25 L 47 104.25 L 44 104.25 L 44 97 L 47 97 L 47 91 L 44 91 L 44 83.75 L 47 83.75 L 47 77.75 L 44 77.75 L 44 70.5 L 47 70.5 L 47 64.5 L 44 64.5 L 44 57.25 L 47 57.25 L 47 51.25 L 44 51.25 L 44 44"/>
    </g>
    <g id="piece_004">
      <path id="side_021" style="fill:none;stroke:#000000;stroke-width:0.0508" d="M 129 47 L 135.333 47 L 135.333 44 L 141.333 44 L 141.333 47 L 150.667 47 L 150.667 44 L 156.667 44 L 156.667 47 L 163 47"/>
      <path id="hole_019" style="fill:none;stroke:#000000;stroke-width:0.0508" d="M 129 92.5 L 135.333 92.5 L 135.333 95.5 L 129 95.5 L 129 92.5 Z"/>
      <path id="hole_020" style="fill:none;stroke:#000000;stroke-width:0.0508" d="M 141.333 92.5 L 150.667 92.5 L 150.667 95.5 L 141.333 95.5 L 141.333 92.5 Z"/>
      <path id="hole_021" style="fill:none;stroke:#000000;stroke-width:0.0508" d="M 156.667 92.5 L 163 92.5 L 163 95.5 L 156.667 95.5 L 156.667 92.5 Z"/>
      <path id="side_022" style="fill:none;stroke:#000000;stroke-width:0.0508" d="M 163 47 L 163 51.25 L 166 51.25 L 166 57.25 L 163 57.25 L 163 64.5 L 166 64.5 L 166 70.5 L 163 70.5 L 163 77.75 L 166 77.75 L 166 83.75 L 163 83.75 L 163 91 L 166 91 L 166 97 L 163 97 L 163 104.25 L 166 104.25 L 166 110.25 L 163 110.25 L 163 117.5 L 166 117.5 L 166 123.5 L 163 123.5 L 163 130.75 L 166 130.75 L 166 136.75 L 163 136.75 L 163 141"/>
      <path id="side_023" style="fill:none;stroke:#000000;stroke-width:0.0508" d="M 163 141 L 156.667 141 L 156.667 144 L 150.667 144 L 150.667 141 L 141.333 141 L 141.333 144 L 135.333 144 L 135.333 141 L 129 141"/>
      <path id="side_024" style="fill:none;stroke:#000000;stroke-width:0.0508" d="M 129 141 L 129 136.75 L 126 136.75 L 126 130.75 L 129 130.75 L 129 123.5 L 126 123.5 L 126 117.5 L 129 117.5 L 129 110.25 L 126 110.25 L 126 104.25 L 129 104.25 L 129 97 L 126 97 L 126 91 L 129 91 L 129 83.75 L 126 83.75 L 126 77.75 L 129 77.75 L 129 70.5 L 126 70.5 L 126 64.5 L 129 64.5 L 129 57.25 L 126 57.25 L 126 51.25 L 129 51.25 L 129 47"/>
    </g>
    <g id="piece_005">
      <path id="side_025" style="fill:none;stroke:#000000;stroke-width:0.0508" d="M 168 44 L 174.286 44 L 174.286 47 L 180.286 47 L 180.286 44 L 186.571 44 L 186.571 47 L 192.571 47 L 192.571 44 L 198.857 44 L 198.857 47 L 204.857 47 L 204.857 44 L 211.143 44 L 211.143 47 L 217.143 47 L 217.143 44 L 223.429 44 L 223.429 47 L 229.429 47 L 229.429 44 L 235.714 44 L 235.714 47 L 241.714 47 L 241.714 44 L 248 44"/>
      <path id="hole_022" style="fill:none;stroke:#000000;stroke-width:0.0508" d="M 174.286 92.5 L 180.286 92.5 L 180.286 95.5 L 174.286 95.5 L 174.286 92.5 Z"/>
      <path id="hole_023" style="fill:none;stroke:#000000;stroke-width:0.0508" d="M 186.571 92.5 L 192.571 92.5 L 192.571 95.5 L 186.571 95.5 L 186.571 92.5 Z"/>
      <path id="hole_024" style="fill:none;stroke:#000000;stroke-width:0.0508" d="M 198.857 92.5 L 204.857 92.5 L 204.857 95.5 L 198.857 95.5 L 198.857 92.5 Z"/>
      <path id="hole_025" style="fill:none;stroke:#000000;stroke-width:0.0508" d="M 211.143 92.5 L 217.143 92.5 L 217.143 95.5 L 211.143 95.5 L 211.143 92.5 Z"/>
      <path id="hole_026" style="fill:none;stroke:#000000;stroke-width:0.0508" d="M 223.429 92.5 L 229.429 92.5 L 229.429 95.5 L 223.429 95.5 L 223.429 92.5 Z"/>
      <path id="hole_027" style="fill:none;stroke:#000000;stroke-width:0.0508" d="M 235.714 92.5 L 241.714 92.5 L 241.714 95.5 L 235.714 95.5 L 235.714 92.5 Z"/>
      <path id="side_026" style="fill:none;stroke:#000000;stroke-width:0.0508" d="M 248 44 L 248 51.25 L 245 51.25 L 245 57.25 L 248 57.25 L 248 64.5 L 245 64.5 L 245 70.5 L 248 70.5 L 248 77.75 L 245 77.75 L 245 83.75 L 248 83.75 L 248 91 L 245 91 L 245 97 L 248 97 L 248 104.25 L 245 104.25 L 245 110.25 L 248 110.25 L 248 117.5 L 245 117.5 L 245 123.5 L 248 123.5 L 248 130.75 L 245 130.75 L 245 136.75 L 248 136.75 L 248 144"/>
      <path id="hole_028" style="fill:none;stroke:#000000;stroke-width:0.0508" d="M 209.5 51.25 L 209.5 57.25 L 206.5 57.25 L 206.5 51.25 L 209.5 51.25 Z"/>
      <path id="hole_029" style="fill:none;stroke:#000000;stroke-width:0.0508" d="M 209.5 64.5 L 209.5 70.5 L 206.5 70.5 L 206.5 64.5 L 209.5 64.5 Z"/>
      <path id="hole_030" style="fill:none;stroke:#000000;stroke-width:0.0508" d="M 209.5 77.75 L 209.5 83.75 L 206.5 83.75 L 206.5 77.75 L 209.5 77.75 Z"/>
      <path id="hole_031" style="fill:none;stroke:#000000;stroke-width:0.0508" d="M 209.5 91 L 209.5 97 L 206.5 97 L 206.5 91 L 209.5 91 Z"/>
      <path id="hole_032" style="fill:none;stroke:#000000;stroke-width:0.0508" d="M 209.5 104.25 L 209.5 110.25 L 206.5 110.25 L 206.5 104.25 L 209.5 104.25 Z"/>
      <path id="hole_033" style="fill:none;stroke:#000000;stroke-width:0.0508" d="M 209.5 117.5 L 209.5 123.5 L 206.5 123.5 L 206.5 117.5 L 209.5 117.5 Z"/>
      <path id="hole_034" style="fill:none;stroke:#000000;stroke-width:0.0508" d="M 209.5 130.75 L 209.5 136.75 L 206.5 136.75 L 206.5 130.75 L 209.5 130.75 Z"/>
      <path id="side_027" style="fill:none;stroke:#000000;stroke-width:0.0508" d="M 248 144 L 241.714 144 L 241.714 141 L 235.714 141 L 235.714 144 L 229.429 144 L 229.429 141 L 223.429 141 L 223.429 144 L 217.143 144 L 217.143 141 L 211.143 141 L 211.143 144 L 204.857 144 L 204.857 141 L 198.857 141 L 198.857 144 L 192.571 144 L 192.571 141 L 186.571 141 L 186.571 144 L 180.286 144 L 180.286 141 L 174.286 141 L 174.286 144 L 168 144"/>
      <path id="side_028" style="fill:none;stroke:#000000;stroke-width:0.0508" d="M 168 144 L 168 136.75 L 171 136.75 L 171 130.75 L 168 130.75 L 168 123.5 L 171 123.5 L 171 117.5 L 168 117.5 L 168 110.25 L 171 110.25 L 171 104.25 L 168 104.25 L 168 97 L 171 97 L 171 91 L 168 91 L 168 83.75 L 171 83.75 L 171 77.75 L 168 77.75 L 168 70.5 L 171 70.5 L 171 64.5 L 168 64.5 L 168 57.25 L 171 57.25 L 171 51.25 L 168 51.25 L 168 44"/>
    </g>
    <g id="piece_006">
      <path id="side_029" style="fill:none;stroke:#000000;stroke-width:0.0508" d="M 44 5 L 50.2857 5 L 50.2857 2 L 56.2857 2 L 56.2857 5 L 62.5714 5 L 62.5714 2 L 68.5714 2 L 68.5714 5 L 74.8571 5 L 74.8571 2 L 80.8571 2 L 80.8571 5 L 87.1429 5 L 87.1429 2 L 93.1429 2 L 93.1429 5 L 99.4286 5 L 99.4286 2 L 105.429 2 L 105.429 5 L 111.714 5 L 111.714 2 L 117.714 2 L 117.714 5 L 124 5"/>
      <path id="side_030" style="fill:none;stroke:#000000;stroke-width:0.0508" d="M 124 5 L 124 11.3333 L 121 11.3333 L 121 17.3333 L 124 17.3333 L 124 26.6667 L 121 26.6667 L 121 32.6667 L 124 32.6667 L 124 39"/>
      <path id="hole_035" style="fill:none;stroke:#000000;stroke-width:0.0508" d="M 85.5 11.3333 L 85.5 17.3333 L 82.5 17.3333 L 82.5 11.3333 L 85.5 11.3333 Z"/>
      <path id="hole_036" style="fill:none;stroke:#000000;stroke-width:0.0508" d="M 85.5 26.6667 L 85.5 32.6667 L 82.5 32.6667 L 82.5 26.6667 L 85.5 26.6667 Z"/>
      <path id="side_031" style="fill:none;stroke:#000000;stroke-width:0.0508" d="M 124 39 L 117.714 39 L 117.714 42 L 111.714 42 L 111.714 39 L 105.429 39 L 105.429 42 L 99.4286 42 L 99.4286 39 L 93.1429 39 L 93.1429 42 L 87.1429 42 L 87.1429 39 L 80.8571 39 L 80.8571 42 L 74.8571 42 L 74.8571 39 L 68.5714 39 L 68.5714 42 L 62.5714 42 L 62.5714 39 L 56.2857 39 L 56.2857 42 L 50.2857 42 L 50.2857 39 L 44 39"/>
      <path id="side_032" style="fill:none;stroke:#000000;stroke-width:0.0508" d="M 44 39 L 44 32.6667 L 47 32.6667 L 47 26.6667 L 44 26.6667 L 44 17.3333 L 47 17.3333 L 47 11.3333 L 44 11.3333 L 44 5"/>
    </g>
  </g>
</svg>