<!-- Created with Inkscape (http://www.inkscape.org/) -->
<svg xmlns:inkscape="http://www.inkscape.org/namespaces/inkscape" xmlns:sodipodi="http://sodipodi.sourceforge.net/DTD/sodipodi-0.dtd" xmlns="http://www.w3.org/2000/svg" xmlns:svg="http://www.w3.org/2000/svg" width="291mm" height="229mm" viewBox="0 0 291 229" version="1.1" id="svg5" inkscape:version="1.1.2 (0a00cf5339, 2022-02-04)" sodipodi:docname="blank.svg">
  <sodipodi:namedview id="namedview7" pagecolor="#ffffff" bordercolor="#666666" borderopacity="1.0" inkscape:pageshadow="2" inkscape:pageopacity="0.0" inkscape:pagecheckerboard="0" inkscape:document-units="mm" showgrid="false" inkscape:zoom="0.64052329" inkscape:cx="397.33138" inkscape:cy="561.25984" inkscape:window-width="2086" inkscape:window-height="1376" inkscape:window-x="0" inkscape:window-y="0" inkscape:window-maximized="1" inkscape:current-layer="layer1"/>
  <defs id="defs2"/>
  <g inkscape:label="Layer 1" inkscape:groupmode="layer" id="layer1">
    <metadata text="createArgs=['--unit=mm', '--length=80', '--width=100', '--depth=40', '--equal=0', '--tab=6', '--tabtype=0', '--tabsymmetry=0', '--dimpleheight=0', '--dimplelength=0', '--hairline=1', '--thickness=3', '--kerf=0', '--style=1', '--boxtype=1', '--div-l=1', '--div-w=1', '--keydiv=0', '--spacing=2', '--inside=0']"/>
    <g id="piece_001">
      <path id="side_001" style="fill:none;stroke:#000000;stroke-width:0.0508" d="m 44 149 l 6.2857 0 l 0 -3 l 6 0 l 0 3 l 6.2857 0 l 0 -3 l 6 0 l 0 3 l 6.2857 0 l 0 -3 l 6 0 l 0 3 l 6.2858 0 l 0 -3 l 6 0 l 0 3 l 6.2857 0 l 0 -3 l 6.0004 0 l 0 3 l 6.285 0 l 0 -3 l 6 0 l 0 3 l 6.286 0"/>
      <path id="side_002" style="fill:none;stroke:#000000;stroke-width:0.0508" d="m 124 149 l 0 6.333 l -3 0 l 0 6 l 3 0 l 0 9.334 l -3 0 l 0 6 l 3 0 l 0 6.333"/>
      <path id="hole_001" style="fill:none;stroke:#000000;stroke-width:0.0508" d="m 85.5 155.333 l 0 6 l -3 0 l 0 -6 l 3 0 z"/>
      <path id="hole_002" style="fill:none;stroke:#000000;stroke-width:0.0508" d="m 85.5 170.667 l 0 6 l -3 0 l 0 -6 l 3 0 z"/>
      <path id="side_003" style="fill:none;stroke:#000000;stroke-width:0.0508" d="m 124 183 l -6.286 0 l 0 3 l -6 0 l 0 -3 l -6.285 0 l 0 3 l -6.0004 0 l 0 -3 l -6.2857 0 l 0 3 l -6 0 l 0 -3 l -6.2858 0 l 0 3 l -6 0 l 0 -3 l -6.2857 0 l 0 3 l -6 0 l 0 -3 l -6.2857 0 l 0 3 l -6 0 l 0 -3 l -6.2857 0"/>
      <path id="side_004" style="fill:none;stroke:#000000;stroke-width:0.0508" d="m 44 183 l 0 -6.333 l 3 0 l 0 -6 l -3 0 l 0 -9.334 l 3 0 l 0 -6 l -3 0 l 0 -6.333"/>
    </g>
    <g id="xdivider_001">
      <path id="side_005" style="fill:none;stroke:#000000;stroke-width:0.0508" d="m 44 191 l 6.2857 0 l 0 -3 l 6 0 l 0 3 l 6.2857 0 l 0 -3 l 6 0 l 0 3 l 6.2857 0 l 0 -3 l 6 0 l 0 3 l 6.2858 0 l 0 -3 l 6 0 l 0 3 l 6.2857 0 l 0 -3 l 6.0004 0 l 0 3 l 6.285 0 l 0 -3 l 6 0 l 0 3 l 6.286 0"/>
      <path id="side_006" style="fill:none;stroke:#000000;stroke-width:0.0508" d="m 124 191 l 0 6.333 l -3 0 l 0 6 l 3 0 l 0 9.334 l -3 0 l 0 6 l 3 0 l 0 6.333"/>
      <path id="slot_001" style="fill:none;stroke:#000000;stroke-width:0.0508" d="m 85.5 188 l 0 20 l -3 0 l 0 -20 l 3 0 z"/>
      <path id="side_007" style="fill:none;stroke:#000000;stroke-width:0.0508" d="m 124 225 l -6.286 0 l 0 3 l -6 0 l 0 -3 l -6.285 0 l 0 3 l -6.0004 0 l 0 -3 l -6.2857 0 l 0 3 l -6 0 l 0 -3 l -6.2858 0 l 0 3 l -6 0 l 0 -3 l -6.2857 0 l 0 3 l -6 0 l 0 -3 l -6.2857 0 l 0 3 l -6 0 l 0 -3 l -6.2857 0"/>
      <path id="side_008" style="fill:none;stroke:#000000;stroke-width:0.0508" d="m 44 225 l 0 -6.333 l 3 0 l 0 -6 l -3 0 l 0 -9.334 l 3 0 l 0 -6 l -3 0 l 0 -6.333"/>
    </g>
    <g id="piece_002">
      <path id="side_009" style="fill:none;stroke:#000000;stroke-width:0.0508" d="m 5 47 l 6.3333 0 l 0 -3 l 6 0 l 0 3 l 9.3334 0 l 0 -3 l 6 0 l 0 3 l 6.3333 0"/>
      <path id="hole_003" style="fill:none;stroke:#000000;stroke-width:0.0508" d="m 5 92.5 l 6.3333 0 l 0 3 l -6.3333 0 l 0 -3 z"/>
      <path id="hole_004" style="fill:none;stroke:#000000;stroke-width:0.0508" d="m 17.3333 92.5 l 9.3334 0 l 0 3 l -9.3334 0 l 0 -3 z"/>
      <path id="hole_005" style="fill:none;stroke:#000000;stroke-width:0.0508" d="m 32.6667 92.5 l 6.3333 0 l 0 3 l -6.3333 0 l 0 -3 z"/>
      <path id="side_010" style="fill:none;stroke:#000000;stroke-width:0.0508" d="m 39 47 l 0 4.25 l 3 0 l 0 6 l -3 0 l 0 7.25 l 3 0 l 0 6 l -3 0 l 0 7.25 l 3 0 l 0 6 l -3 0 l 0 7.25 l 3 0 l 0 6 l -3 0 l 0 7.25 l 3 0 l 0 6 l -3 0 l 0 7.25 l 3 0 l 0 6 l -3 0 l 0 7.25 l 3 0 l 0 6 l -3 0 l 0 4.25"/>
      <path id="side_011" style="fill:none;stroke:#000000;stroke-width:0.0508" d="m 39 141 l -6.3333 0 l 0 3 l -6 0 l 0 -3 l -9.3334 0 l 0 3 l -6 0 l 0 -3 l -6.3333 0"/>
      <path id="side_012" style="fill:none;stroke:#000000;stroke-width:0.0508" d="m 5 141 l 0 -4.25 l -3 0 l 0 -6 l 3 0 l 0 -7.25 l -3 0 l 0 -6 l 3 0 l 0 -7.25 l -3 0 l 0 -6 l 3 0 l 0 -7.25 l -3 0 l 0 -6 l 3 0 l 0 -7.25 l -3 0 l 0 -6 l 3 0 l 0 -7.25 l -3 0 l 0 -6 l 3 0 l 0 -7.25 l -3 0 l 0 -6 l 3 0 l 0 -4.25"/>
    </g>
    <g id="ydivider_001">
      <path id="side_013" style="fill:none;stroke:#000000;stroke-width:0.0508" d="m 253 47 l 6.333 0 l 0 -3 l 6 0 l 0 3 l 9.334 0 l 0 -3 l 6 0 l 0 3 l 6.333 0"/>
      <path id="slot_002" style="fill:none;stroke:#000000;stroke-width:0.0508" d="m 250 92.5 l 20 0 l 0 3 l -20 0 l 0 -3 z"/>
      <path id="side_014" style="fill:none;stroke:#000000;stroke-width:0.0508" d="m 287 47 l 0 4.25 l 3 0 l 0 6 l -3 0 l 0 7.25 l 3 0 l 0 6 l -3 0 l 0 7.25 l 3 0 l 0 6 l -3 0 l 0 7.25 l 3 0 l 0 6 l -3 0 l 0 7.25 l 3 0 l 0 6 l -3 0 l 0 7.25 l 3 0 l 0 6 l -3 0 l 0 7.25 l 3 0 l 0 6 l -3 0 l 0 4.25"/>
      <path id="side_015" style="fill:none;stroke:#000000;stroke-width:0.0508" d="m 287 141 l -6.333 0 l 0 3 l -6 0 l 0 -3 l -9.334 0 l 0 3 l -6 0 l 0 -3 l -6.333 0"/>
      <path id="side_016" style="fill:none;stroke:#000000;stroke-width:0.0508" d="m 253 141 l 0 -4.25 l -3 0 l 0 -6 l 3 0 l 0 -7.25 l -3 0 l 0 -6 l 3 0 l 0 -7.25 l -3 0 l 0 -6 l 3 0 l 0 -7.25 l -3 0 l 0 -6 l 3 0 l 0 -7.25 l -3 0 l 0 -6 l 3 0 l 0 -7.25 l -3 0 l 0 -6 l 3 0 l 0 -7.25 l -3 0 l 0 -6 l 3 0 l 0 -4.25"/>
    </g>
    <g id="piece_003">
      <path id="side_017" style="fill:none;stroke:#000000;stroke-width:0.0508" d="m 44 44 l 6.2857 0 l 0 3 l 6 0 l 0 -3 l 6.2857 0 l 0 3 l 6 0 l 0 -3 l 6.2857 0 l 0 3 l 6 0 l 0 -3 l 6.2858 0 l 0 3 l 6 0 l 0 -3 l 6.2857 0 l 0 3 l 6.0004 0 l 0 -3 l 6.285 0 l 0 3 l 6 0 l 0 -3 l 6.286 0"/>
      <path id="hole_006" style="fill:none;stroke:#000000;stroke-width:0.0508" d="m 50.2857 92.5 l 6 0 l 0 3 l -6 0 l 0 -3 z"/>
      <path id="hole_007" style="fill:none;stroke:#000000;stroke-width:0.0508" d="m 62.5714 92.5 l 6 0 l 0 3 l -6 0 l 0 -3 z"/>
      <path id="hole_008" style="fill:none;stroke:#000000;stroke-width:0.0508" d="m 74.8571 92.5 l 6 0 l 0 3 l -6 0 l 0 -3 z"/>
      <path id="hole_009" style="fill:none;stroke:#000000;stroke-width:0.0508" d="m 87.1429 92.5 l 6 0 l 0 3 l -6 0 l 0 -3 z"/>
      <path id="hole_010" style="fill:none;stroke:#000000;stroke-width:0.0508" d="m 99.4286 92.5 l 6.0004 0 l 0 3 l -6.0004 0 l 0 -3 z"/>
      <path id="hole_011" style="fill:none;stroke:#000000;stroke-width:0.0508" d="m 111.714 92.5 l 6 0 l 0 3 l -6 0 l 0 -3 z"/>
      <path id="side_018" style="fill:none;stroke:#000000;stroke-width:0.0508" d="m 124 44 l 0 7.25 l -3 0 l 0 6 l 3 0 l 0 7.25 l -3 0 l 0 6 l 3 0 l 0 7.25 l -3 0 l 0 6 l 3 0 l 0 7.25 l -3 0 l 0 6 l 3 0 l 0 7.25 l -3 0 l 0 6 l 3 0 l 0 7.25 l -3 0 l 0 6 l 3 0 l 0 7.25 l -3 0 l 0 6 l 3 0 l 0 7.25"/>
      <path id="hole_012" style="fill:none;stroke:#000000;stroke-width:0.0508" d="m 85.5 51.25 l 0 6 l -3 0 l 0 -6 l 3 0 z"/>
      <path id="hole_013" style="fill:none;stroke:#000000;stroke-width:0.0508" d="m 85.5 64.5 l 0 6 l -3 0 l 0 -6 l 3 0 z"/>
      <path id="hole_014" style="fill:none;stroke:#000000;stroke-width:0.0508" d="m 85.5 77.75 l 0 6 l -3 0 l 0 -6 l 3 0 z"/>
      <path id="hole_015" style="fill:none;stroke:#000000;stroke-width:0.0508" d="m 85.5 91 l 0 6 l -3 0 l 0 -6 l 3 0 z"/>
      <path id="hole_016" style="fill:none;stroke:#000000;stroke-width:0.0508" d="m 85.5 104.25 l 0 6 l -3 0 l 0 -6 l 3 0 z"/>
      <path id="hole_017" style="fill:none;stroke:#000000;stroke-width:0.0508" d="m 85.5 117.5 l 0 6 l -3 0 l 0 -6 l 3 0 z"/>
      <path id="hole_018" style="fill:none;stroke:#000000;stroke-width:0.0508" d="m 85.5 130.75 l 0 6 l -3 0 l 0 -6 l 3 0 z"/>
      <path id="side_019" style="fill:none;stroke:#000000;stroke-width:0.0508" d="m 124 144 l -6.286 0 l 0 -3 l -6 0 l 0 3 l -6.285 0 l 0 -3 l -6.0004 0 l 0 3 l -6.2857 0 l 0 -3 l -6 0 l 0 3 l -6.2858 0 l 0 -3 l -6 0 l 0 3 l -6.2857 0 l 0 -3 l -6 0 l 0 3 l -6.2857 0 l 0 -3 l -6 0 l 0 3 l -6.2857 0"/>
      <path id="side_020" style="fill:none;stroke:#000000;stroke-width:0.0508" d="m 44 144 l 0 -7.25 l 3 0 l 0 -6 l -3 0 l 0 -7.25 l 3 0 l 0 -6 l -3 0 l 0 -7.25 l 3 0 l 0 -6 l -3 0 l 0 -7.25 l 3 0 l 0 -6 l -3 0 l 0 -7.25 l 3 0 l 0 -6 l -3 0 l 0 -7.25 l 3 0 l 0 -6 l -3 0 l 0 -7.25 l 3 0 l 0 -6 l -3 0 l 0 -7.25"/>
    </g>
    <g id="piece_004">
      <path id="side_021" style="fill:none;stroke:#000000;stroke-width:0.0508" d="m 129 47 l 6.333 0 l 0 -3 l 6 0 l 0 3 l 9.334 0 l 0 -3 l 6 0 l 0 3 l 6.333 0"/>
      <path id="hole_019" style="fill:none;stroke:#000000;stroke-width:0.0508" d="m 129 92.5 l 6.333 0 l 0 3 l -6.333 0 l 0 -3 z"/>
      <path id="hole_020" style="fill:none;stroke:#000000;stroke-width:0.0508" d="m 141.333 92.5 l 9.334 0 l 0 3 l -9.334 0 l 0 -3 z"/>
      <path id="hole_021" style="fill:none;stroke:#000000;stroke-width:0.0508" d="m 156.667 92.5 l 6.333 0 l 0 3 l -6.333 0 l 0 -3 z"/>
      <path id="side_022" style="fill:none;stroke:#000000;stroke-width:0.0508" d="m 163 47 l 0 4.25 l 3 0 l 0 6 l -3 0 l 0 7.25 l 3 0 l 0 6 l -3 0 l 0 7.25 l 3 0 l 0 6 l -3 0 l 0 7.25 l 3 0 l 0 6 l -3 0 l 0 7.25 l 3 0 l 0 6 l -3 0 l 0 7.25 l 3 0 l 0 6 l -3 0 l 0 7.25 l 3 0 l 0 6 l -3 0 l 0 4.25"/>
      <path id="side_023" style="fill:none;stroke:#000000;stroke-width:0.0508" d="m 163 141 l -6.333 0 l 0 3 l -6 0 l 0 -3 l -9.334 0 l 0 3 l -6 0 l 0 -3 l -6.333 0"/>
      <path id="side_024" style="fill:none;stroke:#000000;stroke-width:0.0508" d="m 129 141 l 0 -4.25 l -3 0 l 0 -6 l 3 0 l 0 -7.25 l -3 0 l 0 -6 l 3 0 l 0 -7.25 l -3 0 l 0 -6 l 3 0 l 0 -7.25 l -3 0 l 0 -6 l 3 0 l 0 -7.25 l -3 0 l 0 -6 l 3 0 l 0 -7.25 l -3 0 l 0 -6 l 3 0 l 0 -7.25 l -3 0 l 0 -6 l 3 0 l 0 -4.25"/>
    </g>
    <g id="piece_005">
      <path id="side_025" style="fill:none;stroke:#000000;stroke-width:0.0508" d="m 168 44 l 6.286 0 l 0 3 l 6 0 l 0 -3 l 6.285 0 l 0 3 l 6 0 l 0 -3 l 6.286 0 l 0 3 l 6 0 l 0 -3 l 6.286 0 l 0 3 l 6 0 l 0 -3 l 6.286 0 l 0 3 l 6 0 l 0 -3 l 6.285 0 l 0 3 l 6 0 l 0 -3 l 6.286 0"/>
      <path id="hole_022" style="fill:none;stroke:#000000;stroke-width:0.0508" d="m 174.286 92.5 l 6 0 l 0 3 l -6 0 l 0 -3 z"/>
      <path id="hole_023" style="fill:none;stroke:#000000;stroke-width:0.0508" d="m 186.571 92.5 l 6 0 l 0 3 l -6 0 l 0 -3 z"/>
      <path id="hole_024" style="fill:none;stroke:#000000;stroke-width:0.0508" d="m 198.857 92.5 l 6 0 l 0 3 l -6 0 l 0 -3 z"/>
      <path id="hole_025" style="fill:none;stroke:#000000;stroke-width:0.0508" d="m 211.143 92.5 l 6 0 l 0 3 l -6 0 l 0 -3 z"/>
      <path id="hole_026" style="fill:none;stroke:#000000;stroke-width:0.0508" d="m 223.429 92.5 l 6 0 l 0 3 l -6 0 l 0 -3 z"/>
      <path id="hole_027" style="fill:none;stroke:#000000;stroke-width:0.0508" d="m 235.714 92.5 l 6 0 l 0 3 l -6 0 l 0 -3 z"/>
      <path id="side_026" style="fill:none;stroke:#000000;stroke-width:0.0508" d="m 248 44 l 0 7.25 l -3 0 l 0 6 l 3 0 l 0 7.25 l -3 0 l 0 6 l 3 0 l 0 7.25 l -3 0 l 0 6 l 3 0 l 0 7.25 l -3 0 l 0 6 l 3 0 l 0 7.25 l -3 0 l 0 6 l 3 0 l 0 7.25 l -3 0 l 0 6 l 3 0 l 0 7.25 l -3 0 l 0 6 l 3 0 l 0 7.25"/>
      <path id="hole_028" style="fill:none;stroke:#000000;stroke-width:0.0508" d="m 209.5 51.25 l 0 6 l -3 0 l 0 -6 l 3 0 z"/>
      <path id="hole_029" style="fill:none;stroke:#000000;stroke-width:0.0508" d="m 209.5 64.5 l 0 6 l -3 0 l 0 -6 l 3 0 z"/>
      <path id="hole_030" style="fill:none;stroke:#000000;stroke-width:0.0508" d="m 209.5 77.75 l 0 6 l -3 0 l 0 -6 l 3 0 z"/>
      <path id="hole_031" style="fill:none;stroke:#000000;stroke-width:0.0508" d="m 209.5 91 l 0 6 l -3 0 l 0 -6 l 3 0 z"/>
      <path id="hole_032" style="fill:none;stroke:#000000;stroke-width:0.0508" d="m 209.5 104.25 l 0 6 l -3 0 l 0 -6 l 3 0 z"/>
      <path id="hole_033" style="fill:none;stroke:#000000;stroke-width:0.0508" d="m 209.5 117.5 l 0 6 l -3 0 l 0 -6 l 3 0 z"/>
      <path id="hole_034" style="fill:none;stroke:#000000;stroke-width:0.0508" d="m 209.5 130.75 l 0 6 l -3 0 l 0 -6 l 3 0 z"/>
      <path id="side_027" style="fill:none;stroke:#000000;stroke-width:0.0508" d="m 248 144 l -6.286 0 l 0 -3 l -6 0 l 0 3 l -6.285 0 l 0 -3 l -6 0 l 0 3 l -6.286 0 l 0 -3 l -6 0 l 0 3 l -6.286 0 l 0 -3 l -6 0 l 0 3 l -6.286 0 l 0 -3 l -6 0 l 0 3 l -6.285 0 l 0 -3 l -6 0 l 0 3 l -6.286 0"/>
      <path id="side_028" style="fill:none;stroke:#000000;stroke-width:0.0508" d="m 168 144 l 0 -7.25 l 3 0 l 0 -6 l -3 0 l 0 -7.25 l 3 0 l 0 -6 l -3 0 l 0 -7.25 l 3 0 l 0 -6 l -3 0 l 0 -7.25 l 3 0 l 0 -6 l -3 0 l 0 -7.25 l 3 0 l 0 -6 l -3 0 l 0 -7.25 l 3 0 l 0 -6 l -3 0 l 0 -7.25 l 3 0 l 0 -6 l -3 0 l 0 -7.25"/>
    </g>
    <g id="piece_006">
      <path id="side_029" style="fill:none;stroke:#000000;stroke-width:0.0508" d="m 44 5 l 6.2857 0 l 0 -3 l 6 0 l 0 3 l 6.2857 0 l 0 -3 l 6 0 l 0 3 l 6.2857 0 l 0 -3 l 6 0 l 0 3 l 6.2858 0 l 0 -3 l 6 0 l 0 3 l 6.2857 0 l 0 -3 l 6.0004 0 l 0 3 l 6.285 0 l 0 -3 l 6 0 l 0 3 l 6.286 0"/>
      <path id="side_030" style="fill:none;stroke:#000000;stroke-width:0.0508" d="m 124 5 l 0 6.3333 l -3 0 l 0 6 l 3 0 l 0 9.3334 l -3 0 l 0 6 l 3 0 l 0 6.3333"/>
      <path id="hole_035" style="fill:none;stroke:#000000;stroke-width:0.0508" d="m 85.5 11.3333 l 0 6 l -3 0 l 0 -6 l 3 0 z"/>
      <path id="hole_036" style="fill:none;stroke:#000000;stroke-width:0.0508" d="m 85.5 26.6667 l 0 6 l -3 0 l 0 -6 l 3 0 z"/>
      <path id="side_031" style="fill:none;stroke:#000000;stroke-width:0.0508" d="m 124 39 l -6.286 0 l 0 3 l -6 0 l 0 -3 l -6.285 0 l 0 3 l -6.0004 0 l 0 -3 l -6.2857 0 l 0 3 l -6 0 l 0 -3 l -6.2858 0 l 0 3 l -6 0 l 0 -3 l -6.2857 0 l 0 3 l -6 0 l 0 -3 l -6.2857 0 l 0 3 l -6 0 l 0 -3 l -6.2857 0"/>
      <path id="side_032" style="fill:none;stroke:#000000;stroke-width:0.0508" d="m 44 39 l 0 -6.3333 l 3 0 l 0 -6 l -3 0 l 0 -9.3334 l 3 0 l 0 -6 l -3 0 l 0 -6.3333"/>
    </g>
  </g>
</svg>