<!-- Created with Inkscape (http://www.inkscape.org/) -->
<svg xmlns:inkscape="http://www.inkscape.org/namespaces/inkscape" xmlns:sodipodi="http://sodipodi.sourceforge.net/DTD/sodipodi-0.dtd" xmlns="http://www.w3.org/2000/svg" xmlns:svg="http://www.w3.org/2000/svg" width="249mm" height="331mm" viewBox="0 0 249 331" version="1.1" id="svg5" inkscape:version="1.1.2 (0a00cf5339, 2022-02-04)" sodipodi:docname="blank.svg">
  <sodipodi:namedview id="namedview7" pagecolor="#ffffff" bordercolor="#666666" borderopacity="1.0" inkscape:pageshadow="2" inkscape:pageopacity="0.0" inkscape:pagecheckerboard="0" inkscape:document-units="mm" showgrid="false" inkscape:zoom="0.64052329" inkscape:cx="397.33138" inkscape:cy="561.25984" inkscape:window-width="2086" inkscape:window-height="1376" inkscape:window-x="0" inkscape:window-y="0" inkscape:window-maximized="1" inkscape:current-layer="layer1"/>
  <defs id="defs2"/>
  <g inkscape:label="Layer 1" inkscape:groupmode="layer" id="layer1">
    <metadata text="createArgs=['--unit=mm', '--length=80', '--width=100', '--depth=40', '--equal=0', '--tab=6', '--tabtype=0', '--tabsymmetry=0', '--dimpleheight=0', '--dimplelength=0', '--hairline=1', '--thickness=3', '--kerf=0', '--style=1', '--boxtype=1', '--div_l=1', '--div_w=1', '--keydiv=0', '--spacing=2', '--inside=0']"/>
    <path id="piece_001" style="fill:none;stroke:#000000;stroke-width:0.0508" d="M 44 155.333 L 47 155.333 L 47 161.333 L 44 161.333 L 44 170.667 L 47 170.667 L 47 176.667 L 44 176.667 L 44 183 L 50.2857 183 L 50.2857 186 L 56.2857 186 L 56.2857 183 L 62.5714 183 L 62.5714 186 L 68.5714 186 L 68.5714 183 L 74.8571 183 L 74.8571 186 L 80.8571 186 L 80.8571 183 L 87.1429 183 L 87.1429 186 L 93.1429 186 L 93.1429 183 L 99.4286 183 L 99.4286 186 L 105.429 186 L 105.429 183 L 111.714 183 L 111.714 186 L 117.714 186 L 117.714 183 L 124 183 L 124 176.667 L 121 176.667 L 121 170.667 L 124 170.667 L 124 161.333 L 121 161.333 L 121 155.333 L 124 155.333 L 124 149 L 117.714 149 L 117.714 146 L 111.714 146 L 111.714 149 L 105.429 149 L 105.429 146 L 99.4286 146 L 99.4286 149 L 93.1429 149 L 93.1429 146 L 87.1429 146 L 87.1429 149 L 80.8571 149 L 80.8571 146 L 74.8571 146 L 74.8571 149 L 68.5714 149 L 68.5714 146 L 62.5714 146 L 62.5714 149 L 56.2857 149 L 56.2857 146 L 50.2857 146 L 50.2857 149 L 44 149 L 44 155.333 Z M 82.5 155.333 L 85.5 155.333 L 85.5 161.333 L 82.5 161.333 L 82.5 155.333 Z M 82.5 170.667 L 85.5 170.667 L 85.5 176.667 L 82.5 176.667 L 82.5 170.667 Z"/>
    <path id="xdivider_001" style="fill:none;stroke:#000000;stroke-width:0.0508" d="M 0 197.333 L 3 197.333 L 3 203.333 L 0 203.333 L 0 212.667 L 3 212.667 L 3 218.667 L 0 218.667 L 0 225 L 6.2857 225 L 6.2857 228 L 12.2857 228 L 12.2857 225 L 18.5714 225 L 18.5714 228 L 24.5714 228 L 24.5714 225 L 30.8571 225 L 30.8571 228 L 36.8571 228 L 36.8571 225 L 43.1429 225 L 43.1429 228 L 49.1429 228 L 49.1429 225 L 55.4286 225 L 55.4286 228 L 61.4286 228 L 61.4286 225 L 67.7143 225 L 67.7143 228 L 73.7143 228 L 73.7143 225 L 80 225 L 80 218.667 L 77 218.667 L 77 212.667 L 80 212.667 L 80 203.333 L 77 203.333 L 77 197.333 L 80 197.333 L 80 191 L 73.7143 191 L 73.7143 188 L 67.7143 188 L 67.7143 191 L 61.4286 191 L 61.4286 188 L 55.4286 188 L 55.4286 191 L 49.1429 191 L 49.1429 188 L 43.1429 188 L 43.1429 191 L 41.5 191 L 41.5 208 L 38.5 208 L 38.5 191 L 36.8571 191 L 36.8571 188 L 30.8571 188 L 30.8571 191 L 24.5714 191 L 24.5714 188 L 18.5714 188 L 18.5714 191 L 12.2857 191 L 12.2857 188 L 6.28571 188 L 6.28571 191 L 0 191 L 0 197.333 Z"/>
    <path id="piece_002" style="fill:none;stroke:#000000;stroke-width:0.0508" d="M 5 51.25 L 2 51.25 L 2 57.25 L 5 57.25 L 5 64.5 L 2 64.5 L 2 70.5 L 5 70.5 L 5 77.75 L 2 77.75 L 2 83.75 L 5 83.75 L 5 91 L 2 91 L 2 97 L 5 97 L 5 104.25 L 2 104.25 L 2 110.25 L 5 110.25 L 5 117.5 L 2 117.5 L 2 123.5 L 5 123.5 L 5 130.75 L 2 130.75 L 2 136.75 L 5 136.75 L 5 141 L 11.3333 141 L 11.3333 144 L 17.3333 144 L 17.3333 141 L 26.6667 141 L 26.6667 144 L 32.6667 144 L 32.6667 141 L 39 141 L 39 136.75 L 42 136.75 L 42 130.75 L 39 130.75 L 39 123.5 L 42 123.5 L 42 117.5 L 39 117.5 L 39 110.25 L 42 110.25 L 42 104.25 L 39 104.25 L 39 97 L 42 97 L 42 91 L 39 91 L 39 83.75 L 42 83.75 L 42 77.75 L 39 77.75 L 39 70.5 L 42 70.5 L 42 64.5 L 39 64.5 L 39 57.25 L 42 57.25 L 42 51.25 L 39 51.25 L 39 47 L 32.6667 47 L 32.6667 44 L 26.6667 44 L 26.6667 47 L 17.3333 47 L 17.3333 44 L 11.3333 44 L 11.3333 47 L 5 47 L 5 51.25 Z M 17.3333 92.5 L 26.6667 92.5 L 26.6667 95.5 L 17.3333 95.5 L 17.3333 92.5 Z M 32.6667 92.5 L 39 92.5 L 39 95.5 L 32.6667 95.5 L 32.6667 92.5 Z M 5 92.5 L 11.3333 92.5 L 11.3333 95.5 L 5 95.5 L 5 92.5 Z"/>
    <path id="ydivider_001" style="fill:none;stroke:#000000;stroke-width:0.0508" d="M 3 237.25 L 0 237.25 L 0 243.25 L 3 243.25 L 3 250.5 L 0 250.5 L 0 256.5 L 3 256.5 L 3 263.75 L 0 263.75 L 0 269.75 L 3 269.75 L 3 277 L 0 277 L 0 278.5 L 20 278.5 L 20 281.5 L 0 281.5 L 0 283 L 3 283 L 3 290.25 L 0 290.25 L 0 296.25 L 3 296.25 L 3 303.5 L 0 303.5 L 0 309.5 L 3 309.5 L 3 316.75 L 0 316.75 L 0 322.75 L 3 322.75 L 3 327 L 9.3333 327 L 9.3333 330 L 15.3333 330 L 15.3333 327 L 24.6667 327 L 24.6667 330 L 30.6667 330 L 30.6667 327 L 37 327 L 37 322.75 L 40 322.75 L 40 316.75 L 37 316.75 L 37 309.5 L 40 309.5 L 40 303.5 L 37 303.5 L 37 296.25 L 40 296.25 L 40 290.25 L 37 290.25 L 37 283 L 40 283 L 40 277 L 37 277 L 37 269.75 L 40 269.75 L 40 263.75 L 37 263.75 L 37 256.5 L 40 256.5 L 40 250.5 L 37 250.5 L 37 243.25 L 40 243.25 L 40 237.25 L 37 237.25 L 37 233 L 30.6667 233 L 30.6667 230 L 24.6667 230 L 24.6667 233 L 15.3333 233 L 15.3333 230 L 9.33333 230 L 9.33333 233 L 3 233 L 3 237.25 Z"/>
    <path id="piece_003" style="fill:none;stroke:#000000;stroke-width:0.0508" d="M 44 51.25 L 47 51.25 L 47 57.25 L 44 57.25 L 44 64.5 L 47 64.5 L 47 70.5 L 44 70.5 L 44 77.75 L 47 77.75 L 47 83.75 L 44 83.75 L 44 91 L 47 91 L 47 97 L 44 97 L 44 104.25 L 47 104.25 L 47 110.25 L 44 110.25 L 44 117.5 L 47 117.5 L 47 123.5 L 44 123.5 L 44 130.75 L 47 130.75 L 47 136.75 L 44 136.75 L 44 144 L 50.2857 144 L 50.2857 141 L 56.2857 141 L 56.2857 144 L 62.5714 144 L 62.5714 141 L 68.5714 141 L 68.5714 144 L 74.8571 144 L 74.8571 141 L 80.8571 141 L 80.8571 144 L 87.1429 144 L 87.1429 141 L 93.1429 141 L 93.1429 144 L 99.4286 144 L 99.4286 141 L 105.429 141 L 105.429 144 L 111.714 144 L 111.714 141 L 117.714 141 L 117.714 144 L 124 144 L 124 136.75 L 121 136.75 L 121 130.75 L 124 130.75 L 124 123.5 L 121 123.5 L 121 117.5 L 124 117.5 L 124 110.25 L 121 110.25 L 121 104.25 L 124 104.25 L 124 97 L 121 97 L 121 91 L 124 91 L 124 83.75 L 121 83.75 L 121 77.75 L 124 77.75 L 124 70.5 L 121 70.5 L 121 64.5 L 124 64.5 L 124 57.25 L 121 57.25 L 121 51.25 L 124 51.25 L 124 44 L 117.714 44 L 117.714 47 L 111.714 47 L 111.714 44 L 105.429 44 L 105.429 47 L 99.4286 47 L 99.4286 44 L 93.1429 44 L 93.1429 47 L 87.1429 47 L 87.1429 44 L 80.8571 44 L 80.8571 47 L 74.8571 47 L 74.8571 44 L 68.5714 44 L 68.5714 47 L 62.5714 47 L 62.5714 44 L 56.2857 44 L 56.2857 47 L 50.2857 47 L 50.2857 44 L 44 44 L 44 51.25 Z M 111.714 92.5 L 117.714 92.5 L 117.714 95.5 L 111.714 95.5 L 111.714 92.5 Z M 50.2857 92.5 L 56.2857 92.5 L 56.2857 95.5 L 50.2857 95.5 L 50.2857 92.5 Z M 62.5714 92.5 L 68.5714 92.5 L 68.5714 95.5 L 62.5714 95.5 L 62.5714 92.5 Z M 74.8571 92.5 L 80.8571 92.5 L 80.8571 95.5 L 74.8571 95.5 L 74.8571 92.5 Z M 82.5 104.25 L 85.5 104.25 L 85.5 110.25 L 82.5 110.25 L 82.5 104.25 Z M 82.5 117.5 L 85.5 117.5 L 85.5 123.5 L 82.5 123.5 L 82.5 117.5 Z M 82.5 130.75 L 85.5 130.75 L 85.5 136.75 L 82.5 136.75 L 82.5 130.75 Z M 82.5 51.25 L 85.5 51.25 L 85.5 57.25 L 82.5 57.25 L 82.5 51.25 Z M 82.5 64.5 L 85.5 64.5 L 85.5 70.5 L 82.5 70.5 L 82.5 64.5 Z M 82.5 77.75 L 85.5 77.75 L 85.5 83.75 L 82.5 83.75 L 82.5 77.75 Z M 82.5 91 L 85.5 91 L 85.5 97 L 82.5 97 L 82.5 91 Z M 87.1429 92.5 L 93.1429 92.5 L 93.1429 95.5 L 87.1429 95.5 L 87.1429 92.5 Z M 99.4286 92.5 L 105.429 92.5 L 105.429 95.5 L 99.4286 95.5 L 99.4286 92.5 Z"/>
    <path id="piece_004" style="fill:none;stroke:#000000;stroke-width:0.0508" d="M 129 51.25 L 126 51.25 L 126 57.25 L 129 57.25 L 129 64.5 L 126 64.5 L 126 70.5 L 129 70.5 L 129 77.75 L 126 77.75 L 126 83.75 L 129 83.75 L 129 91 L 126 91 L 126 97 L 129 97 L 129 104.25 L 126 104.25 L 126 110.25 L 129 110.25 L 129 117.5 L 126 117.5 L 126 123.5 L 129 123.5 L 129 130.75 L 126 130.75 L 126 136.75 L 129 136.75 L 129 141 L 135.333 141 L 135.333 144 L 141.333 144 L 141.333 141 L 150.667 141 L 150.667 144 L 156.667 144 L 156.667 141 L 163 141 L 163 136.75 L 166 136.75 L 166 130.75 L 163 130.75 L 163 123.5 L 166 123.5 L 166 117.5 L 163 117.5 L 163 110.25 L 166 110.25 L 166 104.25 L 163 104.25 L 163 97 L 166 97 L 166 91 L 163 91 L 163 83.75 L 166 83.75 L 166 77.75 L 163 77.75 L 163 70.5 L 166 70.5 L 166 64.5 L 163 64.5 L 163 57.25 L 166 57.25 L 166 51.25 L 163 51.25 L 163 47 L 156.667 47 L 156.667 44 L 150.667 44 L 150.667 47 L 141.333 47 L 141.333 44 L 135.333 44 L 135.333 47 L 129 47 L 129 51.25 Z M 129 92.5 L 135.333 92.5 L 135.333 95.5 L 129 95.5 L 129 92.5 Z M 141.333 92.5 L 150.667 92.5 L 150.667 95.5 L 141.333 95.5 L 141.333 92.5 Z M 156.667 92.5 L 163 92.5 L 163 95.5 L 156.667 95.5 L 156.667 92.5 Z"/>
    <path id="piece_005" style="fill:none;stroke:#000000;stroke-width:0.0508" d="M 168 51.25 L 171 51.25 L 171 57.25 L 168 57.25 L 168 64.5 L 171 64.5 L 171 70.5 L 168 70.5 L 168 77.75 L 171 77.75 L 171 83.75 L 168 83.75 L 168 91 L 171 91 L 171 97 L 168 97 L 168 104.25 L 171 104.25 L 171 110.25 L 168 110.25 L 168 117.5 L 171 117.5 L 171 123.5 L 168 123.5 L 168 130.75 L 171 130.75 L 171 136.75 L 168 136.75 L 168 144 L 174.286 144 L 174.286 141 L 180.286 141 L 180.286 144 L 186.571 144 L 186.571 141 L 192.571 141 L 192.571 144 L 198.857 144 L 198.857 141 L 204.857 141 L 204.857 144 L 211.143 144 L 211.143 141 L 217.143 141 L 217.143 144 L 223.429 144 L 223.429 141 L 229.429 141 L 229.429 144 L 235.714 144 L 235.714 141 L 241.714 141 L 241.714 144 L 248 144 L 248 136.75 L 245 136.75 L 245 130.75 L 248 130.75 L 248 123.5 L 245 123.5 L 245 117.5 L 248 117.5 L 248 110.25 L 245 110.25 L 245 104.25 L 248 104.25 L 248 97 L 245 97 L 245 91 L 248 91 L 248 83.75 L 245 83.75 L 245 77.75 L 248 77.75 L 248 70.5 L 245 70.5 L 245 64.5 L 248 64.5 L 248 57.25 L 245 57.25 L 245 51.25 L 248 51.25 L 248 44 L 241.714 44 L 241.714 47 L 235.714 47 L 235.714 44 L 229.429 44 L 229.429 47 L 223.429 47 L 223.429 44 L 217.143 44 L 217.143 47 L 211.143 47 L 211.143 44 L 204.857 44 L 204.857 47 L 198.857 47 L 198.857 44 L 192.571 44 L 192.571 47 L 186.571 47 L 186.571 44 L 180.286 44 L 180.286 47 L 174.286 47 L 174.286 44 L 168 44 L 168 51.25 Z M 174.286 92.5 L 180.286 92.5 L 180.286 95.5 L 174.286 95.5 L 174.286 92.5 Z M 186.571 92.5 L 192.571 92.5 L 192.571 95.5 L 186.571 95.5 L 186.571 92.5 Z M 198.857 92.5 L 204.857 92.5 L 204.857 95.5 L 198.857 95.5 L 198.857 92.5 Z M 206.5 104.25 L 209.5 104.25 L 209.5 110.25 L 206.5 110.25 L 206.5 104.25 Z M 206.5 117.5 L 209.5 117.5 L 209.5 123.5 L 206.5 123.5 L 206.5 117.5 Z M 206.5 130.75 L 209.5 130.75 L 209.5 136.75 L 206.5 136.75 L 206.5 130.75 Z M 206.5 51.25 L 209.5 51.25 L 209.5 57.25 L 206.5 57.25 L 206.5 51.25 Z M 206.5 64.5 L 209.5 64.5 L 209.5 70.5 L 206.5 70.5 L 206.5 64.5 Z M 206.5 77.75 L 209.5 77.75 L 209.5 83.75 L 206.5 83.75 L 206.5 77.75 Z M 206.5 91 L 209.5 91 L 209.5 97 L 206.5 97 L 206.5 91 Z M 211.143 92.5 L 217.143 92.5 L 217.143 95.5 L 211.143 95.5 L 211.143 92.5 Z M 223.429 92.5 L 229.429 92.5 L 229.429 95.5 L 223.429 95.5 L 223.429 92.5 Z M 235.714 92.5 L 241.714 92.5 L 241.714 95.5 L 235.714 95.5 L 235.714 92.5 Z"/>
    <path id="piece_006" style="fill:none;stroke:#000000;stroke-width:0.0508" d="M 44 11.3333 L 47 11.3333 L 47 17.3333 L 44 17.3333 L 44 26.6667 L 47 26.6667 L 47 32.6667 L 44 32.6667 L 44 39 L 50.2857 39 L 50.2857 42 L 56.2857 42 L 56.2857 39 L 62.5714 39 L 62.5714 42 L 68.5714 42 L 68.5714 39 L 74.8571 39 L 74.8571 42 L 80.8571 42 L 80.8571 39 L 87.1429 39 L 87.1429 42 L 93.1429 42 L 93.1429 39 L 99.4286 39 L 99.4286 42 L 105.429 42 L 105.429 39 L 111.714 39 L 111.714 42 L 117.714 42 L 117.714 39 L 124 39 L 124 32.6667 L 121 32.6667 L 121 26.6667 L 124 26.6667 L 124 17.3333 L 121 17.3333 L 121 11.3333 L 124 11.3333 L 124 5 L 117.714 5 L 117.714 2 L 111.714 2 L 111.714 5 L 105.429 5 L 105.429 2 L 99.4286 2 L 99.4286 5 L 93.1429 5 L 93.1429 2 L 87.1429 2 L 87.1429 5 L 80.8571 5 L 80.8571 2 L 74.8571 2 L 74.8571 5 L 68.5714 5 L 68.5714 2 L 62.5714 2 L 62.5714 5 L 56.2857 5 L 56.2857 2 L 50.2857 2 L 50.2857 5 L 44 5 L 44 11.3333 Z M 82.5 11.3333 L 85.5 11.3333 L 85.5 17.3333 L 82.5 17.3333 L 82.5 11.3333 Z M 82.5 26.6667 L 85.5 26.6667 L 85.5 32.6667 L 82.5 32.6667 L 82.5 26.6667 Z"/>
  </g>
</svg>