<!-- Created with Inkscape (http://www.inkscape.org/) -->
<svg xmlns:inkscape="http://www.inkscape.org/namespaces/inkscape" xmlns:sodipodi="http://sodipodi.sourceforge.net/DTD/sodipodi-0.dtd" xmlns="http://www.w3.org/2000/svg" xmlns:svg="http://www.w3.org/2000/svg" width="321.5mm" height="253.4mm" viewBox="0 0 321.5 253.4" version="1.1" id="svg5" inkscape:version="1.1.2 (0a00cf5339, 2022-02-04)" sodipodi:docname="blank.svg">
  <sodipodi:namedview id="namedview7" pagecolor="#ffffff" bordercolor="#666666" borderopacity="1.0" inkscape:pageshadow="2" inkscape:pageopacity="0.0" inkscape:pagecheckerboard="0" inkscape:document-units="mm" showgrid="false" inkscape:zoom="0.64052329" inkscape:cx="397.33138" inkscape:cy="561.25984" inkscape:window-width="2086" inkscape:window-height="1376" inkscape:window-x="0" inkscape:window-y="0" inkscape:window-maximized="1" inkscape:current-layer="layer1"/>
  <defs id="defs2"/>
  <g inkscape:label="Layer 1" inkscape:groupmode="layer" id="layer1">
    <metadata text="createArgs=['--unit=mm', '--inside=1', '--length=80', '--width=100', '--depth=40', '--equal=0', '--tab=6', '--tabtype=0', '--tabsymmetry=0', '--dimpleheight=0', '--dimplelength=0', '--hairline=1', '--thickness=3', '--style=1', '--boxtype=1', '--div_l=1', '--div_w=1', '--keydiv=0', '--spacing=2', '--kerf=0.1']"/>
    <g id="piece_001">
      <path id="side_001" style="fill:none;stroke:#000000;stroke-width:0.0508" d="m 50.1 161.2 l 7.1429 0 l 0 -3 l 6.1 0 l 0 3 l 7.0428 0 l 0 -3 l 6.1 0 l 0 3 l 7.0429 0 l 0 -3 l 6.1 0 l 0 3 l 7.0428 0 l 0 -3 l 6.0996 0 l 0 3 l 7.043 0 l 0 -3 l 6.1 0 l 0 3 l 7.043 0 l 0 -3 l 6.1 0 l 0 3 l 7.143 0"/>
      <path id="side_002" style="fill:none;stroke:#000000;stroke-width:0.0508" d="m 136.2 161.2 l 0 4.1 l -3 0 l 0 5.9 l 3 0 l 0 7.1 l -3 0 l 0 5.9 l 3 0 l 0 7.1 l -3 0 l 0 5.9 l 3 0 l 0 4.1"/>
      <path id="hole_001" style="fill:none;stroke:#000000;stroke-width:0.0508" d="m 91.7 165.3 l 0 5.9 l 2.9 0 l 0 -5.9 l -2.9 0 z"/>
      <path id="hole_002" style="fill:none;stroke:#000000;stroke-width:0.0508" d="m 91.7 178.3 l 0 5.9 l 2.9 0 l 0 -5.9 l -2.9 0 z"/>
      <path id="hole_003" style="fill:none;stroke:#000000;stroke-width:0.0508" d="m 91.7 191.3 l 0 5.9 l 2.9 0 l 0 -5.9 l -2.9 0 z"/>
      <path id="side_003" style="fill:none;stroke:#000000;stroke-width:0.0508" d="m 136.2 201.3 l -7.143 0 l 0 3 l -6.1 0 l 0 -3 l -7.043 0 l 0 3 l -6.1 0 l 0 -3 l -7.043 0 l 0 3 l -6.0996 0 l 0 -3 l -7.0428 0 l 0 3 l -6.1 0 l 0 -3 l -7.0429 0 l 0 3 l -6.1 0 l 0 -3 l -7.0428 0 l 0 3 l -6.1 0 l 0 -3 l -7.1429 0"/>
      <path id="side_004" style="fill:none;stroke:#000000;stroke-width:0.0508" d="m 50.1 201.3 l 0 -4.1 l 3 0 l 0 -5.9 l -3 0 l 0 -7.1 l 3 0 l 0 -5.9 l -3 0 l 0 -7.1 l 3 0 l 0 -5.9 l -3 0 l 0 -4.1"/>
    </g>
    <g id="xdivider_001">
      <path id="side_005" style="fill:none;stroke:#000000;stroke-width:0.0508" d="m 50.1 209.3 l 7.1429 0 l 0 -3 l 6.1 0 l 0 3 l 7.0428 0 l 0 -3 l 6.1 0 l 0 3 l 7.0429 0 l 0 -3 l 6.1 0 l 0 3 l 7.0428 0 l 0 -3 l 6.0996 0 l 0 3 l 7.043 0 l 0 -3 l 6.1 0 l 0 3 l 7.043 0 l 0 -3 l 6.1 0 l 0 3 l 7.143 0"/>
      <path id="side_006" style="fill:none;stroke:#000000;stroke-width:0.0508" d="m 136.2 209.3 l 0 4.1 l -3 0 l 0 5.9 l 3 0 l 0 7.1 l -3 0 l 0 5.9 l 3 0 l 0 7.1 l -3 0 l 0 5.9 l 3 0 l 0 4.1"/>
      <path id="slot_001" style="fill:none;stroke:#000000;stroke-width:0.0508" d="m 94.6 206.35 l 0 22.95 l -2.9 0 l 0 -22.95 l 2.9 0 z"/>
      <path id="side_007" style="fill:none;stroke:#000000;stroke-width:0.0508" d="m 136.2 249.4 l -7.143 0 l 0 3 l -6.1 0 l 0 -3 l -7.043 0 l 0 3 l -6.1 0 l 0 -3 l -7.043 0 l 0 3 l -6.0996 0 l 0 -3 l -7.0428 0 l 0 3 l -6.1 0 l 0 -3 l -7.0429 0 l 0 3 l -6.1 0 l 0 -3 l -7.0428 0 l 0 3 l -6.1 0 l 0 -3 l -7.1429 0"/>
      <path id="side_008" style="fill:none;stroke:#000000;stroke-width:0.0508" d="m 50.1 249.4 l 0 -4.1 l 3 0 l 0 -5.9 l -3 0 l 0 -7.1 l 3 0 l 0 -5.9 l -3 0 l 0 -7.1 l 3 0 l 0 -5.9 l -3 0 l 0 -4.1"/>
    </g>
    <g id="piece_002">
      <path id="side_009" style="fill:none;stroke:#000000;stroke-width:0.0508" d="m 5 53.1 l 4 0 l 0 -3 l 6.1 0 l 0 3 l 6.9 0 l 0 -3 l 6.1 0 l 0 3 l 6.9 0 l 0 -3 l 6.1 0 l 0 3 l 4 0"/>
      <path id="hole_004" style="fill:none;stroke:#000000;stroke-width:0.0508" d="m 5.05 101.6 l 3.95 0 l 0 2.9 l -3.95 0 l 0 -2.9 z"/>
      <path id="hole_005" style="fill:none;stroke:#000000;stroke-width:0.0508" d="m 15.1 101.6 l 6.9 0 l 0 2.9 l -6.9 0 l 0 -2.9 z"/>
      <path id="hole_006" style="fill:none;stroke:#000000;stroke-width:0.0508" d="m 28.1 101.6 l 6.9 0 l 0 2.9 l -6.9 0 l 0 -2.9 z"/>
      <path id="hole_007" style="fill:none;stroke:#000000;stroke-width:0.0508" d="m 41.1 101.6 l 3.9 0 l 0 2.9 l -3.9 0 l 0 -2.9 z"/>
      <path id="side_010" style="fill:none;stroke:#000000;stroke-width:0.0508" d="m 45.1 53.1 l 0 3.4444 l 3 0 l 0 6.1 l -3 0 l 0 6.3445 l 3 0 l 0 6.1 l -3 0 l 0 6.3444 l 3 0 l 0 6.1 l -3 0 l 0 6.3445 l 3 0 l 0 6.1 l -3 0 l 0 6.3442 l 3 0 l 0 6.1 l -3 0 l 0 6.345 l 3 0 l 0 6.1 l -3 0 l 0 6.344 l 3 0 l 0 6.1 l -3 0 l 0 6.345 l 3 0 l 0 6.1 l -3 0 l 0 3.444"/>
      <path id="side_011" style="fill:none;stroke:#000000;stroke-width:0.0508" d="m 45.1 153.2 l -4 0 l 0 3 l -6.1 0 l 0 -3 l -6.9 0 l 0 3 l -6.1 0 l 0 -3 l -6.9 0 l 0 3 l -6.1 0 l 0 -3 l -4 0"/>
      <path id="side_012" style="fill:none;stroke:#000000;stroke-width:0.0508" d="m 5 153.2 l 0 -3.444 l -3 0 l 0 -6.1 l 3 0 l 0 -6.345 l -3 0 l 0 -6.1 l 3 0 l 0 -6.344 l -3 0 l 0 -6.1 l 3 0 l 0 -6.345 l -3 0 l 0 -6.1 l 3 0 l 0 -6.3442 l -3 0 l 0 -6.1 l 3 0 l 0 -6.3445 l -3 0 l 0 -6.1 l 3 0 l 0 -6.3444 l -3 0 l 0 -6.1 l 3 0 l 0 -6.3445 l -3 0 l 0 -6.1 l 3 0 l 0 -3.4444"/>
    </g>
    <g id="ydivider_001">
      <path id="side_013" style="fill:none;stroke:#000000;stroke-width:0.0508" d="m 277.4 53.1 l 4 0 l 0 -3 l 6.1 0 l 0 3 l 6.9 0 l 0 -3 l 6.1 0 l 0 3 l 6.9 0 l 0 -3 l 6.1 0 l 0 3 l 4 0"/>
      <path id="slot_002" style="fill:none;stroke:#000000;stroke-width:0.0508" d="m 274.45 101.7 l 23.05 0 l 0 2.9 l -23.05 0 l 0 -2.9 z"/>
      <path id="side_014" style="fill:none;stroke:#000000;stroke-width:0.0508" d="m 317.5 53.1 l 0 3.4444 l 3 0 l 0 6.1 l -3 0 l 0 6.3445 l 3 0 l 0 6.1 l -3 0 l 0 6.3444 l 3 0 l 0 6.1 l -3 0 l 0 6.3445 l 3 0 l 0 6.1 l -3 0 l 0 6.3442 l 3 0 l 0 6.1 l -3 0 l 0 6.345 l 3 0 l 0 6.1 l -3 0 l 0 6.344 l 3 0 l 0 6.1 l -3 0 l 0 6.345 l 3 0 l 0 6.1 l -3 0 l 0 3.444"/>
      <path id="side_015" style="fill:none;stroke:#000000;stroke-width:0.0508" d="m 317.5 153.2 l -4 0 l 0 3 l -6.1 0 l 0 -3 l -6.9 0 l 0 3 l -6.1 0 l 0 -3 l -6.9 0 l 0 3 l -6.1 0 l 0 -3 l -4 0"/>
      <path id="side_016" style="fill:none;stroke:#000000;stroke-width:0.0508" d="m 277.4 153.2 l 0 -3.444 l -3 0 l 0 -6.1 l 3 0 l 0 -6.345 l -3 0 l 0 -6.1 l 3 0 l 0 -6.344 l -3 0 l 0 -6.1 l 3 0 l 0 -6.345 l -3 0 l 0 -6.1 l 3 0 l 0 -6.3442 l -3 0 l 0 -6.1 l 3 0 l 0 -6.3445 l -3 0 l 0 -6.1 l 3 0 l 0 -6.3444 l -3 0 l 0 -6.1 l 3 0 l 0 -6.3445 l -3 0 l 0 -6.1 l 3 0 l 0 -3.4444"/>
    </g>
    <g id="piece_003">
      <path id="side_017" style="fill:none;stroke:#000000;stroke-width:0.0508" d="m 50.1 50.1 l 7.2429 0 l 0 3 l 5.9 0 l 0 -3 l 7.2428 0 l 0 3 l 5.9 0 l 0 -3 l 7.2429 0 l 0 3 l 5.9 0 l 0 -3 l 7.2428 0 l 0 3 l 5.8996 0 l 0 -3 l 7.243 0 l 0 3 l 5.9 0 l 0 -3 l 7.243 0 l 0 3 l 5.9 0 l 0 -3 l 7.243 0"/>
      <path id="hole_008" style="fill:none;stroke:#000000;stroke-width:0.0508" d="m 57.3429 104.6 l 5.9 0 l 0 -2.9 l -5.9 0 l 0 2.9 z"/>
      <path id="hole_009" style="fill:none;stroke:#000000;stroke-width:0.0508" d="m 70.4857 104.6 l 5.9 0 l 0 -2.9 l -5.9 0 l 0 2.9 z"/>
      <path id="hole_010" style="fill:none;stroke:#000000;stroke-width:0.0508" d="m 83.6286 104.6 l 5.9 0 l 0 -2.9 l -5.9 0 l 0 2.9 z"/>
      <path id="hole_011" style="fill:none;stroke:#000000;stroke-width:0.0508" d="m 96.7714 104.6 l 5.8996 0 l 0 -2.9 l -5.8996 0 l 0 2.9 z"/>
      <path id="hole_012" style="fill:none;stroke:#000000;stroke-width:0.0508" d="m 109.914 104.6 l 5.9 0 l 0 -2.9 l -5.9 0 l 0 2.9 z"/>
      <path id="hole_013" style="fill:none;stroke:#000000;stroke-width:0.0508" d="m 123.057 104.6 l 5.9 0 l 0 -2.9 l -5.9 0 l 0 2.9 z"/>
      <path id="side_018" style="fill:none;stroke:#000000;stroke-width:0.0508" d="m 136.2 50.1 l 0 6.5444 l -3 0 l 0 5.9 l 3 0 l 0 6.5445 l -3 0 l 0 5.9 l 3 0 l 0 6.5444 l -3 0 l 0 5.9 l 3 0 l 0 6.5445 l -3 0 l 0 5.9 l 3 0 l 0 6.5442 l -3 0 l 0 5.9 l 3 0 l 0 6.545 l -3 0 l 0 5.9 l 3 0 l 0 6.544 l -3 0 l 0 5.9 l 3 0 l 0 6.545 l -3 0 l 0 5.9 l 3 0 l 0 6.544"/>
      <path id="hole_014" style="fill:none;stroke:#000000;stroke-width:0.0508" d="m 91.7 56.6444 l 0 5.9 l 2.9 0 l 0 -5.9 l -2.9 0 z"/>
      <path id="hole_015" style="fill:none;stroke:#000000;stroke-width:0.0508" d="m 91.7 69.0889 l 0 5.9 l 2.9 0 l 0 -5.9 l -2.9 0 z"/>
      <path id="hole_016" style="fill:none;stroke:#000000;stroke-width:0.0508" d="m 91.7 81.5333 l 0 5.9 l 2.9 0 l 0 -5.9 l -2.9 0 z"/>
      <path id="hole_017" style="fill:none;stroke:#000000;stroke-width:0.0508" d="m 91.7 93.9778 l 0 5.9 l 2.9 0 l 0 -5.9 l -2.9 0 z"/>
      <path id="hole_018" style="fill:none;stroke:#000000;stroke-width:0.0508" d="m 91.7 106.422 l 0 5.9 l 2.9 0 l 0 -5.9 l -2.9 0 z"/>
      <path id="hole_019" style="fill:none;stroke:#000000;stroke-width:0.0508" d="m 91.7 118.867 l 0 5.9 l 2.9 0 l 0 -5.9 l -2.9 0 z"/>
      <path id="hole_020" style="fill:none;stroke:#000000;stroke-width:0.0508" d="m 91.7 131.311 l 0 5.9 l 2.9 0 l 0 -5.9 l -2.9 0 z"/>
      <path id="hole_021" style="fill:none;stroke:#000000;stroke-width:0.0508" d="m 91.7 143.756 l 0 5.9 l 2.9 0 l 0 -5.9 l -2.9 0 z"/>
      <path id="side_019" style="fill:none;stroke:#000000;stroke-width:0.0508" d="m 136.2 156.2 l -7.243 0 l 0 -3 l -5.9 0 l 0 3 l -7.243 0 l 0 -3 l -5.9 0 l 0 3 l -7.243 0 l 0 -3 l -5.8996 0 l 0 3 l -7.2428 0 l 0 -3 l -5.9 0 l 0 3 l -7.2429 0 l 0 -3 l -5.9 0 l 0 3 l -7.2428 0 l 0 -3 l -5.9 0 l 0 3 l -7.2429 0"/>
      <path id="side_020" style="fill:none;stroke:#000000;stroke-width:0.0508" d="m 50.1 156.2 l 0 -6.544 l 3 0 l 0 -5.9 l -3 0 l 0 -6.545 l 3 0 l 0 -5.9 l -3 0 l 0 -6.544 l 3 0 l 0 -5.9 l -3 0 l 0 -6.545 l 3 0 l 0 -5.9 l -3 0 l 0 -6.5442 l 3 0 l 0 -5.9 l -3 0 l 0 -6.5445 l 3 0 l 0 -5.9 l -3 0 l 0 -6.5444 l 3 0 l 0 -5.9 l -3 0 l 0 -6.5445 l 3 0 l 0 -5.9 l -3 0 l 0 -6.5444"/>
    </g>
    <g id="piece_004">
      <path id="side_021" style="fill:none;stroke:#000000;stroke-width:0.0508" d="m 141.2 53.1 l 4 0 l 0 -3 l 6.1 0 l 0 3 l 6.9 0 l 0 -3 l 6.1 0 l 0 3 l 6.9 0 l 0 -3 l 6.1 0 l 0 3 l 4 0"/>
      <path id="hole_022" style="fill:none;stroke:#000000;stroke-width:0.0508" d="m 141.25 101.6 l 3.95 0 l 0 2.9 l -3.95 0 l 0 -2.9 z"/>
      <path id="hole_023" style="fill:none;stroke:#000000;stroke-width:0.0508" d="m 151.3 101.6 l 6.9 0 l 0 2.9 l -6.9 0 l 0 -2.9 z"/>
      <path id="hole_024" style="fill:none;stroke:#000000;stroke-width:0.0508" d="m 164.3 101.6 l 6.9 0 l 0 2.9 l -6.9 0 l 0 -2.9 z"/>
      <path id="hole_025" style="fill:none;stroke:#000000;stroke-width:0.0508" d="m 177.3 101.6 l 3.9 0 l 0 2.9 l -3.9 0 l 0 -2.9 z"/>
      <path id="side_022" style="fill:none;stroke:#000000;stroke-width:0.0508" d="m 181.3 53.1 l 0 3.4444 l 3 0 l 0 6.1 l -3 0 l 0 6.3445 l 3 0 l 0 6.1 l -3 0 l 0 6.3444 l 3 0 l 0 6.1 l -3 0 l 0 6.3445 l 3 0 l 0 6.1 l -3 0 l 0 6.3442 l 3 0 l 0 6.1 l -3 0 l 0 6.345 l 3 0 l 0 6.1 l -3 0 l 0 6.344 l 3 0 l 0 6.1 l -3 0 l 0 6.345 l 3 0 l 0 6.1 l -3 0 l 0 3.444"/>
      <path id="side_023" style="fill:none;stroke:#000000;stroke-width:0.0508" d="m 181.3 153.2 l -4 0 l 0 3 l -6.1 0 l 0 -3 l -6.9 0 l 0 3 l -6.1 0 l 0 -3 l -6.9 0 l 0 3 l -6.1 0 l 0 -3 l -4 0"/>
      <path id="side_024" style="fill:none;stroke:#000000;stroke-width:0.0508" d="m 141.2 153.2 l 0 -3.444 l -3 0 l 0 -6.1 l 3 0 l 0 -6.345 l -3 0 l 0 -6.1 l 3 0 l 0 -6.344 l -3 0 l 0 -6.1 l 3 0 l 0 -6.345 l -3 0 l 0 -6.1 l 3 0 l 0 -6.3442 l -3 0 l 0 -6.1 l 3 0 l 0 -6.3445 l -3 0 l 0 -6.1 l 3 0 l 0 -6.3444 l -3 0 l 0 -6.1 l 3 0 l 0 -6.3445 l -3 0 l 0 -6.1 l 3 0 l 0 -3.4444"/>
    </g>
    <g id="piece_005">
      <path id="side_025" style="fill:none;stroke:#000000;stroke-width:0.0508" d="m 186.3 50.1 l 7.243 0 l 0 3 l 5.9 0 l 0 -3 l 7.243 0 l 0 3 l 5.9 0 l 0 -3 l 7.243 0 l 0 3 l 5.9 0 l 0 -3 l 7.242 0 l 0 3 l 5.9 0 l 0 -3 l 7.243 0 l 0 3 l 5.9 0 l 0 -3 l 7.243 0 l 0 3 l 5.9 0 l 0 -3 l 7.243 0"/>
      <path id="hole_026" style="fill:none;stroke:#000000;stroke-width:0.0508" d="m 193.543 104.6 l 5.9 0 l 0 -2.9 l -5.9 0 l 0 2.9 z"/>
      <path id="hole_027" style="fill:none;stroke:#000000;stroke-width:0.0508" d="m 206.686 104.6 l 5.9 0 l 0 -2.9 l -5.9 0 l 0 2.9 z"/>
      <path id="hole_028" style="fill:none;stroke:#000000;stroke-width:0.0508" d="m 219.829 104.6 l 5.9 0 l 0 -2.9 l -5.9 0 l 0 2.9 z"/>
      <path id="hole_029" style="fill:none;stroke:#000000;stroke-width:0.0508" d="m 232.971 104.6 l 5.9 0 l 0 -2.9 l -5.9 0 l 0 2.9 z"/>
      <path id="hole_030" style="fill:none;stroke:#000000;stroke-width:0.0508" d="m 246.114 104.6 l 5.9 0 l 0 -2.9 l -5.9 0 l 0 2.9 z"/>
      <path id="hole_031" style="fill:none;stroke:#000000;stroke-width:0.0508" d="m 259.257 104.6 l 5.9 0 l 0 -2.9 l -5.9 0 l 0 2.9 z"/>
      <path id="side_026" style="fill:none;stroke:#000000;stroke-width:0.0508" d="m 272.4 50.1 l 0 6.5444 l -3 0 l 0 5.9 l 3 0 l 0 6.5445 l -3 0 l 0 5.9 l 3 0 l 0 6.5444 l -3 0 l 0 5.9 l 3 0 l 0 6.5445 l -3 0 l 0 5.9 l 3 0 l 0 6.5442 l -3 0 l 0 5.9 l 3 0 l 0 6.545 l -3 0 l 0 5.9 l 3 0 l 0 6.544 l -3 0 l 0 5.9 l 3 0 l 0 6.545 l -3 0 l 0 5.9 l 3 0 l 0 6.544"/>
      <path id="hole_032" style="fill:none;stroke:#000000;stroke-width:0.0508" d="m 227.9 56.6444 l 0 5.9 l 2.9 0 l 0 -5.9 l -2.9 0 z"/>
      <path id="hole_033" style="fill:none;stroke:#000000;stroke-width:0.0508" d="m 227.9 69.0889 l 0 5.9 l 2.9 0 l 0 -5.9 l -2.9 0 z"/>
      <path id="hole_034" style="fill:none;stroke:#000000;stroke-width:0.0508" d="m 227.9 81.5333 l 0 5.9 l 2.9 0 l 0 -5.9 l -2.9 0 z"/>
      <path id="hole_035" style="fill:none;stroke:#000000;stroke-width:0.0508" d="m 227.9 93.9778 l 0 5.9 l 2.9 0 l 0 -5.9 l -2.9 0 z"/>
      <path id="hole_036" style="fill:none;stroke:#000000;stroke-width:0.0508" d="m 227.9 106.422 l 0 5.9 l 2.9 0 l 0 -5.9 l -2.9 0 z"/>
      <path id="hole_037" style="fill:none;stroke:#000000;stroke-width:0.0508" d="m 227.9 118.867 l 0 5.9 l 2.9 0 l 0 -5.9 l -2.9 0 z"/>
      <path id="hole_038" style="fill:none;stroke:#000000;stroke-width:0.0508" d="m 227.9 131.311 l 0 5.9 l 2.9 0 l 0 -5.9 l -2.9 0 z"/>
      <path id="hole_039" style="fill:none;stroke:#000000;stroke-width:0.0508" d="m 227.9 143.756 l 0 5.9 l 2.9 0 l 0 -5.9 l -2.9 0 z"/>
      <path id="side_027" style="fill:none;stroke:#000000;stroke-width:0.0508" d="m 272.4 156.2 l -7.243 0 l 0 -3 l -5.9 0 l 0 3 l -7.243 0 l 0 -3 l -5.9 0 l 0 3 l -7.243 0 l 0 -3 l -5.9 0 l 0 3 l -7.242 0 l 0 -3 l -5.9 0 l 0 3 l -7.243 0 l 0 -3 l -5.9 0 l 0 3 l -7.243 0 l 0 -3 l -5.9 0 l 0 3 l -7.243 0"/>
      <path id="side_028" style="fill:none;stroke:#000000;stroke-width:0.0508" d="m 186.3 156.2 l 0 -6.544 l 3 0 l 0 -5.9 l -3 0 l 0 -6.545 l 3 0 l 0 -5.9 l -3 0 l 0 -6.544 l 3 0 l 0 -5.9 l -3 0 l 0 -6.545 l 3 0 l 0 -5.9 l -3 0 l 0 -6.5442 l 3 0 l 0 -5.9 l -3 0 l 0 -6.5445 l 3 0 l 0 -5.9 l -3 0 l 0 -6.5444 l 3 0 l 0 -5.9 l -3 0 l 0 -6.5445 l 3 0 l 0 -5.9 l -3 0 l 0 -6.5444"/>
    </g>
    <g id="piece_006">
      <path id="side_029" style="fill:none;stroke:#000000;stroke-width:0.0508" d="m 50.1 5 l 7.1429 0 l 0 -3 l 6.1 0 l 0 3 l 7.0428 0 l 0 -3 l 6.1 0 l 0 3 l 7.0429 0 l 0 -3 l 6.1 0 l 0 3 l 7.0428 0 l 0 -3 l 6.0996 0 l 0 3 l 7.043 0 l 0 -3 l 6.1 0 l 0 3 l 7.043 0 l 0 -3 l 6.1 0 l 0 3 l 7.143 0"/>
      <path id="side_030" style="fill:none;stroke:#000000;stroke-width:0.0508" d="m 136.2 5 l 0 4.1 l -3 0 l 0 5.9 l 3 0 l 0 7.1 l -3 0 l 0 5.9 l 3 0 l 0 7.1 l -3 0 l 0 5.9 l 3 0 l 0 4.1"/>
      <path id="hole_040" style="fill:none;stroke:#000000;stroke-width:0.0508" d="m 91.7 9.1 l 0 5.9 l 2.9 0 l 0 -5.9 l -2.9 0 z"/>
      <path id="hole_041" style="fill:none;stroke:#000000;stroke-width:0.0508" d="m 91.7 22.1 l 0 5.9 l 2.9 0 l 0 -5.9 l -2.9 0 z"/>
      <path id="hole_042" style="fill:none;stroke:#000000;stroke-width:0.0508" d="m 91.7 35.1 l 0 5.9 l 2.9 0 l 0 -5.9 l -2.9 0 z"/>
      <path id="side_031" style="fill:none;stroke:#000000;stroke-width:0.0508" d="m 136.2 45.1 l -7.143 0 l 0 3 l -6.1 0 l 0 -3 l -7.043 0 l 0 3 l -6.1 0 l 0 -3 l -7.043 0 l 0 3 l -6.0996 0 l 0 -3 l -7.0428 0 l 0 3 l -6.1 0 l 0 -3 l -7.0429 0 l 0 3 l -6.1 0 l 0 -3 l -7.0428 0 l 0 3 l -6.1 0 l 0 -3 l -7.1429 0"/>
      <path id="side_032" style="fill:none;stroke:#000000;stroke-width:0.0508" d="m 50.1 45.1 l 0 -4.1 l 3 0 l 0 -5.9 l -3 0 l 0 -7.1 l 3 0 l 0 -5.9 l -3 0 l 0 -7.1 l 3 0 l 0 -5.9 l -3 0 l 0 -4.1"/>
    </g>
  </g>
</svg>