<!-- Created with Inkscape (http://www.inkscape.org/) -->
<svg xmlns:inkscape="http://www.inkscape.org/namespaces/inkscape" xmlns:sodipodi="http://sodipodi.sourceforge.net/DTD/sodipodi-0.dtd" xmlns="http://www.w3.org/2000/svg" xmlns:svg="http://www.w3.org/2000/svg" width="210mm" height="297mm" viewBox="0 0 210 297" version="1.1" id="svg5" inkscape:version="1.1.2 (0a00cf5339, 2022-02-04)" sodipodi:docname="blank.svg">
  <sodipodi:namedview id="namedview7" pagecolor="#ffffff" bordercolor="#666666" borderopacity="1.0" inkscape:pageshadow="2" inkscape:pageopacity="0.0" inkscape:pagecheckerboard="0" inkscape:document-units="mm" showgrid="false" inkscape:zoom="0.64052329" inkscape:cx="397.33138" inkscape:cy="561.25984" inkscape:window-width="2086" inkscape:window-height="1376" inkscape:window-x="0" inkscape:window-y="0" inkscape:window-maximized="1" inkscape:current-layer="layer1"/>
  <defs id="defs2"/>
  <g inkscape:label="Layer 1" inkscape:groupmode="layer" id="layer1">
    <g id="piece_001">
      <path id="side_001" style="fill:none;stroke:#000000;stroke-width:1" d="m 50.5 162 l 6.9643 0 l 0 -3 l 6.5 0 l 0 3 l 6.7143 0 l 0 -3 l 6.5 0 l 0 3 l 6.7143 0 l 0 -3 l 6.5 0 l 0 3 l 6.7142 0 l 0 -3 l 6.4999 0 l 0 3 l 6.714 0 l 0 -3 l 6.5 0 l 0 3 l 6.715 0 l 0 -3 l 6.5 0 l 0 3 l 6.964 0"/>
      <path id="side_002" style="fill:none;stroke:#000000;stroke-width:1" d="m 92.5 166.375 l 0 5.5 l 2.5 0 l 0 -5.5 l -2.5 0"/>
      <path id="side_003" style="fill:none;stroke:#000000;stroke-width:1" d="m 92.5 179.5 l 0 5.5 l 2.5 0 l 0 -5.5 l -2.5 0"/>
      <path id="side_004" style="fill:none;stroke:#000000;stroke-width:1" d="m 92.5 192.625 l 0 5.5 l 2.5 0 l 0 -5.5 l -2.5 0"/>
      <path id="side_005" style="fill:none;stroke:#000000;stroke-width:1" d="m 137 162 l 0 4.375 l -3 0 l 0 5.5 l 3 0 l 0 7.625 l -3 0 l 0 5.5 l 3 0 l 0 7.625 l -3 0 l 0 5.5 l 3 0 l 0 4.375"/>
      <path id="side_006" style="fill:none;stroke:#000000;stroke-width:1" d="m 137 202.5 l -6.964 0 l 0 3 l -6.5 0 l 0 -3 l -6.715 0 l 0 3 l -6.5 0 l 0 -3 l -6.714 0 l 0 3 l -6.4999 0 l 0 -3 l -6.7142 0 l 0 3 l -6.5 0 l 0 -3 l -6.7143 0 l 0 3 l -6.5 0 l 0 -3 l -6.7143 0 l 0 3 l -6.5 0 l 0 -3 l -6.9643 0"/>
      <path id="side_007" style="fill:none;stroke:#000000;stroke-width:1" d="m 50.5 202.5 l 0 -4.375 l 3 0 l 0 -5.5 l -3 0 l 0 -7.625 l 3 0 l 0 -5.5 l -3 0 l 0 -7.625 l 3 0 l 0 -5.5 l -3 0 l 0 -4.375"/>
    </g>
    <g id="piece_002">
      <path id="side_008" style="fill:none;stroke:#000000;stroke-width:1" d="m 0 210.5 l 6.96429 0 l 0 -3 l 6.50001 0 l 0 3 l 6.7143 0 l 0 -3 l 6.5 0 l 0 3 l 6.7143 0 l 0 -3 l 6.5 0 l 0 3 l 6.7142 0 l 0 -3 l 6.5 0 l 0 3 l 6.7143 0 l 0 -3 l 6.5 0 l 0 3 l 6.7143 0 l 0 -3 l 6.5 0 l 0 3 l 6.9643 0"/>
      <path id="side_009" style="fill:none;stroke:#000000;stroke-width:1" d="m 42 207.5 l 0 23 l 2.5 0 l 0 -23 l -2.5 0"/>
      <path id="side_010" style="fill:none;stroke:#000000;stroke-width:1" d="m 86.5 210.5 l 0 4.375 l -3 0 l 0 5.5 l 3 0 l 0 7.625 l -3 0 l 0 5.5 l 3 0 l 0 7.625 l -3 0 l 0 5.5 l 3 0 l 0 4.375"/>
      <path id="side_011" style="fill:none;stroke:#000000;stroke-width:1" d="m 86.5 251 l -6.9643 0 l 0 3 l -6.5 0 l 0 -3 l -6.7143 0 l 0 3 l -6.5 0 l 0 -3 l -6.7143 0 l 0 3 l -6.5 0 l 0 -3 l -6.7142 0 l 0 3 l -6.5 0 l 0 -3 l -6.7143 0 l 0 3 l -6.5 0 l 0 -3 l -6.7143 0 l 0 3 l -6.50001 0 l 0 -3 l -6.96429 0"/>
      <path id="side_012" style="fill:none;stroke:#000000;stroke-width:1" d="m 0 251 l 0 -4.375 l 3 0 l 0 -5.5 l -3 0 l 0 -7.625 l 3 0 l 0 -5.5 l -3 0 l 0 -7.625 l 3 0 l 0 -5.5 l -3 0 l 0 -4.375"/>
    </g>
    <g id="piece_003">
      <path id="side_013" style="fill:none;stroke:#000000;stroke-width:1" d="m 5 105 l 3.875 0 l 0 -2.5 l -3.875 0 l 0 2.5"/>
      <path id="side_014" style="fill:none;stroke:#000000;stroke-width:1" d="m 15.375 105 l 6.625 0 l 0 -2.5 l -6.625 0 l 0 2.5"/>
      <path id="side_015" style="fill:none;stroke:#000000;stroke-width:1" d="m 28.5 105 l 6.625 0 l 0 -2.5 l -6.625 0 l 0 2.5"/>
      <path id="side_016" style="fill:none;stroke:#000000;stroke-width:1" d="m 41.625 102.5 l 3.875 0 l 0 2.5 l -3.875 0 l 0 -2.5"/>
      <path id="side_017" style="fill:none;stroke:#000000;stroke-width:1" d="m 5 53.5 l 3.875 0 l 0 -3 l 6.5 0 l 0 3 l 6.625 0 l 0 -3 l 6.5 0 l 0 3 l 6.625 0 l 0 -3 l 6.5 0 l 0 3 l 3.875 0"/>
      <path id="side_018" style="fill:none;stroke:#000000;stroke-width:1" d="m 45.5 53.5 l 0 3.25 l 3 0 l 0 6.5 l -3 0 l 0 6 l 3 0 l 0 6.5 l -3 0 l 0 6 l 3 0 l 0 6.5 l -3 0 l 0 6 l 3 0 l 0 6.5 l -3 0 l 0 6 l 3 0 l 0 6.5 l -3 0 l 0 6 l 3 0 l 0 6.5 l -3 0 l 0 6 l 3 0 l 0 6.5 l -3 0 l 0 6 l 3 0 l 0 6.5 l -3 0 l 0 3.25"/>
      <path id="side_019" style="fill:none;stroke:#000000;stroke-width:1" d="m 45.5 154 l -3.875 0 l 0 3 l -6.5 0 l 0 -3 l -6.625 0 l 0 3 l -6.5 0 l 0 -3 l -6.625 0 l 0 3 l -6.5 0 l 0 -3 l -3.875 0"/>
      <path id="side_020" style="fill:none;stroke:#000000;stroke-width:1" d="m 5 154 l 0 -3.25 l -3 0 l 0 -6.5 l 3 0 l 0 -6 l -3 0 l 0 -6.5 l 3 0 l 0 -6 l -3 0 l 0 -6.5 l 3 0 l 0 -6 l -3 0 l 0 -6.5 l 3 0 l 0 -6 l -3 0 l 0 -6.5 l 3 0 l 0 -6 l -3 0 l 0 -6.5 l 3 0 l 0 -6 l -3 0 l 0 -6.5 l 3 0 l 0 -6 l -3 0 l 0 -6.5 l 3 0 l 0 -3.25"/>
    </g>
    <g id="piece_004">
      <path id="side_021" style="fill:none;stroke:#000000;stroke-width:1" d="m 0 308 l 23.5 0 l 0 2.5 l -23.5 0 l 0 -2.5"/>
      <path id="side_022" style="fill:none;stroke:#000000;stroke-width:1" d="m 3 259 l 3.875 0 l 0 -3 l 6.5 0 l 0 3 l 6.625 0 l 0 -3 l 6.5 0 l 0 3 l 6.625 0 l 0 -3 l 6.5 0 l 0 3 l 3.875 0"/>
      <path id="side_023" style="fill:none;stroke:#000000;stroke-width:1" d="m 43.5 259 l 0 3.25 l 3 0 l 0 6.5 l -3 0 l 0 6 l 3 0 l 0 6.5 l -3 0 l 0 6 l 3 0 l 0 6.5 l -3 0 l 0 6 l 3 0 l 0 6.5 l -3 0 l 0 6 l 3 0 l 0 6.5 l -3 0 l 0 6 l 3 0 l 0 6.5 l -3 0 l 0 6 l 3 0 l 0 6.5 l -3 0 l 0 6 l 3 0 l 0 6.5 l -3 0 l 0 3.25"/>
      <path id="side_024" style="fill:none;stroke:#000000;stroke-width:1" d="m 43.5 359.5 l -3.875 0 l 0 3 l -6.5 0 l 0 -3 l -6.625 0 l 0 3 l -6.5 0 l 0 -3 l -6.625 0 l 0 3 l -6.5 0 l 0 -3 l -3.875 0"/>
      <path id="side_025" style="fill:none;stroke:#000000;stroke-width:1" d="m 3 359.5 l 0 -3.25 l -3 0 l 0 -6.5 l 3 0 l 0 -6 l -3 0 l 0 -6.5 l 3 0 l 0 -6 l -3 0 l 0 -6.5 l 3 0 l 0 -6 l -3 0 l 0 -6.5 l 3 0 l 0 -6 l -3 0 l 0 -6.5 l 3 0 l 0 -6 l -3 0 l 0 -6.5 l 3 0 l 0 -6 l -3 0 l 0 -6.5 l 3 0 l 0 -6 l -3 0 l 0 -6.5 l 3 0 l 0 -3.25"/>
    </g>
    <g id="piece_005">
      <path id="side_026" style="fill:none;stroke:#000000;stroke-width:1" d="m 57.9643 105 l 5.5 0 l 0 -2.5 l -5.5 0 l 0 2.5"/>
      <path id="side_027" style="fill:none;stroke:#000000;stroke-width:1" d="m 71.1786 105 l 5.5 0 l 0 -2.5 l -5.5 0 l 0 2.5"/>
      <path id="side_028" style="fill:none;stroke:#000000;stroke-width:1" d="m 84.3929 105 l 5.5 0 l 0 -2.5 l -5.5 0 l 0 2.5"/>
      <path id="side_029" style="fill:none;stroke:#000000;stroke-width:1" d="m 97.6071 105 l 5.4999 0 l 0 -2.5 l -5.4999 0 l 0 2.5"/>
      <path id="side_030" style="fill:none;stroke:#000000;stroke-width:1" d="m 110.821 105 l 5.5 0 l 0 -2.5 l -5.5 0 l 0 2.5"/>
      <path id="side_031" style="fill:none;stroke:#000000;stroke-width:1" d="m 124.036 105 l 5.5 0 l 0 -2.5 l -5.5 0 l 0 2.5"/>
      <path id="side_032" style="fill:none;stroke:#000000;stroke-width:1" d="m 50.5 50.5 l 7.4643 0 l 0 3 l 5.5 0 l 0 -3 l 7.7143 0 l 0 3 l 5.5 0 l 0 -3 l 7.7143 0 l 0 3 l 5.5 0 l 0 -3 l 7.7142 0 l 0 3 l 5.4999 0 l 0 -3 l 7.714 0 l 0 3 l 5.5 0 l 0 -3 l 7.715 0 l 0 3 l 5.5 0 l 0 -3 l 7.464 0"/>
      <path id="side_033" style="fill:none;stroke:#000000;stroke-width:1" d="m 92.5 57.25 l 0 5.5 l 2.5 0 l 0 -5.5 l -2.5 0"/>
      <path id="side_034" style="fill:none;stroke:#000000;stroke-width:1" d="m 92.5 69.75 l 0 5.5 l 2.5 0 l 0 -5.5 l -2.5 0"/>
      <path id="side_035" style="fill:none;stroke:#000000;stroke-width:1" d="m 92.5 82.25 l 0 5.5 l 2.5 0 l 0 -5.5 l -2.5 0"/>
      <path id="side_036" style="fill:none;stroke:#000000;stroke-width:1" d="m 92.5 94.75 l 0 5.5 l 2.5 0 l 0 -5.5 l -2.5 0"/>
      <path id="side_037" style="fill:none;stroke:#000000;stroke-width:1" d="m 92.5 107.25 l 0 5.5 l 2.5 0 l 0 -5.5 l -2.5 0"/>
      <path id="side_038" style="fill:none;stroke:#000000;stroke-width:1" d="m 92.5 119.75 l 0 5.5 l 2.5 0 l 0 -5.5 l -2.5 0"/>
      <path id="side_039" style="fill:none;stroke:#000000;stroke-width:1" d="m 92.5 132.25 l 0 5.5 l 2.5 0 l 0 -5.5 l -2.5 0"/>
      <path id="side_040" style="fill:none;stroke:#000000;stroke-width:1" d="m 92.5 144.75 l 0 5.5 l 2.5 0 l 0 -5.5 l -2.5 0"/>
      <path id="side_041" style="fill:none;stroke:#000000;stroke-width:1" d="m 137 50.5 l 0 6.75 l -3 0 l 0 5.5 l 3 0 l 0 7 l -3 0 l 0 5.5 l 3 0 l 0 7 l -3 0 l 0 5.5 l 3 0 l 0 7 l -3 0 l 0 5.5 l 3 0 l 0 7 l -3 0 l 0 5.5 l 3 0 l 0 7 l -3 0 l 0 5.5 l 3 0 l 0 7 l -3 0 l 0 5.5 l 3 0 l 0 7 l -3 0 l 0 5.5 l 3 0 l 0 6.75"/>
      <path id="side_042" style="fill:none;stroke:#000000;stroke-width:1" d="m 137 157 l -7.464 0 l 0 -3 l -5.5 0 l 0 3 l -7.715 0 l 0 -3 l -5.5 0 l 0 3 l -7.714 0 l 0 -3 l -5.4999 0 l 0 3 l -7.7142 0 l 0 -3 l -5.5 0 l 0 3 l -7.7143 0 l 0 -3 l -5.5 0 l 0 3 l -7.7143 0 l 0 -3 l -5.5 0 l 0 3 l -7.4643 0"/>
      <path id="side_043" style="fill:none;stroke:#000000;stroke-width:1" d="m 50.5 157 l 0 -6.75 l 3 0 l 0 -5.5 l -3 0 l 0 -7 l 3 0 l 0 -5.5 l -3 0 l 0 -7 l 3 0 l 0 -5.5 l -3 0 l 0 -7 l 3 0 l 0 -5.5 l -3 0 l 0 -7 l 3 0 l 0 -5.5 l -3 0 l 0 -7 l 3 0 l 0 -5.5 l -3 0 l 0 -7 l 3 0 l 0 -5.5 l -3 0 l 0 -7 l 3 0 l 0 -5.5 l -3 0 l 0 -6.75"/>
    </g>
    <g id="piece_006">
      <path id="side_044" style="fill:none;stroke:#000000;stroke-width:1" d="m 142 105 l 3.875 0 l 0 -2.5 l -3.875 0 l 0 2.5"/>
      <path id="side_045" style="fill:none;stroke:#000000;stroke-width:1" d="m 152.375 105 l 6.625 0 l 0 -2.5 l -6.625 0 l 0 2.5"/>
      <path id="side_046" style="fill:none;stroke:#000000;stroke-width:1" d="m 165.5 105 l 6.625 0 l 0 -2.5 l -6.625 0 l 0 2.5"/>
      <path id="side_047" style="fill:none;stroke:#000000;stroke-width:1" d="m 178.625 102.5 l 3.875 0 l 0 2.5 l -3.875 0 l 0 -2.5"/>
      <path id="side_048" style="fill:none;stroke:#000000;stroke-width:1" d="m 142 53.5 l 3.875 0 l 0 -3 l 6.5 0 l 0 3 l 6.625 0 l 0 -3 l 6.5 0 l 0 3 l 6.625 0 l 0 -3 l 6.5 0 l 0 3 l 3.875 0"/>
      <path id="side_049" style="fill:none;stroke:#000000;stroke-width:1" d="m 182.5 53.5 l 0 3.25 l 3 0 l 0 6.5 l -3 0 l 0 6 l 3 0 l 0 6.5 l -3 0 l 0 6 l 3 0 l 0 6.5 l -3 0 l 0 6 l 3 0 l 0 6.5 l -3 0 l 0 6 l 3 0 l 0 6.5 l -3 0 l 0 6 l 3 0 l 0 6.5 l -3 0 l 0 6 l 3 0 l 0 6.5 l -3 0 l 0 6 l 3 0 l 0 6.5 l -3 0 l 0 3.25"/>
      <path id="side_050" style="fill:none;stroke:#000000;stroke-width:1" d="m 182.5 154 l -3.875 0 l 0 3 l -6.5 0 l 0 -3 l -6.625 0 l 0 3 l -6.5 0 l 0 -3 l -6.625 0 l 0 3 l -6.5 0 l 0 -3 l -3.875 0"/>
      <path id="side_051" style="fill:none;stroke:#000000;stroke-width:1" d="m 142 154 l 0 -3.25 l -3 0 l 0 -6.5 l 3 0 l 0 -6 l -3 0 l 0 -6.5 l 3 0 l 0 -6 l -3 0 l 0 -6.5 l 3 0 l 0 -6 l -3 0 l 0 -6.5 l 3 0 l 0 -6 l -3 0 l 0 -6.5 l 3 0 l 0 -6 l -3 0 l 0 -6.5 l 3 0 l 0 -6 l -3 0 l 0 -6.5 l 3 0 l 0 -6 l -3 0 l 0 -6.5 l 3 0 l 0 -3.25"/>
    </g>
    <g id="piece_007">
      <path id="side_052" style="fill:none;stroke:#000000;stroke-width:1" d="m 194.964 105 l 5.5 0 l 0 -2.5 l -5.5 0 l 0 2.5"/>
      <path id="side_053" style="fill:none;stroke:#000000;stroke-width:1" d="m 208.179 105 l 5.5 0 l 0 -2.5 l -5.5 0 l 0 2.5"/>
      <path id="side_054" style="fill:none;stroke:#000000;stroke-width:1" d="m 221.393 105 l 5.5 0 l 0 -2.5 l -5.5 0 l 0 2.5"/>
      <path id="side_055" style="fill:none;stroke:#000000;stroke-width:1" d="m 234.607 105 l 5.5 0 l 0 -2.5 l -5.5 0 l 0 2.5"/>
      <path id="side_056" style="fill:none;stroke:#000000;stroke-width:1" d="m 247.821 105 l 5.5 0 l 0 -2.5 l -5.5 0 l 0 2.5"/>
      <path id="side_057" style="fill:none;stroke:#000000;stroke-width:1" d="m 261.036 105 l 5.5 0 l 0 -2.5 l -5.5 0 l 0 2.5"/>
      <path id="side_058" style="fill:none;stroke:#000000;stroke-width:1" d="m 187.5 50.5 l 7.464 0 l 0 3 l 5.5 0 l 0 -3 l 7.715 0 l 0 3 l 5.5 0 l 0 -3 l 7.714 0 l 0 3 l 5.5 0 l 0 -3 l 7.714 0 l 0 3 l 5.5 0 l 0 -3 l 7.714 0 l 0 3 l 5.5 0 l 0 -3 l 7.715 0 l 0 3 l 5.5 0 l 0 -3 l 7.464 0"/>
      <path id="side_059" style="fill:none;stroke:#000000;stroke-width:1" d="m 229.5 57.25 l 0 5.5 l 2.5 0 l 0 -5.5 l -2.5 0"/>
      <path id="side_060" style="fill:none;stroke:#000000;stroke-width:1" d="m 229.5 69.75 l 0 5.5 l 2.5 0 l 0 -5.5 l -2.5 0"/>
      <path id="side_061" style="fill:none;stroke:#000000;stroke-width:1" d="m 229.5 82.25 l 0 5.5 l 2.5 0 l 0 -5.5 l -2.5 0"/>
      <path id="side_062" style="fill:none;stroke:#000000;stroke-width:1" d="m 229.5 94.75 l 0 5.5 l 2.5 0 l 0 -5.5 l -2.5 0"/>
      <path id="side_063" style="fill:none;stroke:#000000;stroke-width:1" d="m 229.5 107.25 l 0 5.5 l 2.5 0 l 0 -5.5 l -2.5 0"/>
      <path id="side_064" style="fill:none;stroke:#000000;stroke-width:1" d="m 229.5 119.75 l 0 5.5 l 2.5 0 l 0 -5.5 l -2.5 0"/>
      <path id="side_065" style="fill:none;stroke:#000000;stroke-width:1" d="m 229.5 132.25 l 0 5.5 l 2.5 0 l 0 -5.5 l -2.5 0"/>
      <path id="side_066" style="fill:none;stroke:#000000;stroke-width:1" d="m 229.5 144.75 l 0 5.5 l 2.5 0 l 0 -5.5 l -2.5 0"/>
      <path id="side_067" style="fill:none;stroke:#000000;stroke-width:1" d="m 274 50.5 l 0 6.75 l -3 0 l 0 5.5 l 3 0 l 0 7 l -3 0 l 0 5.5 l 3 0 l 0 7 l -3 0 l 0 5.5 l 3 0 l 0 7 l -3 0 l 0 5.5 l 3 0 l 0 7 l -3 0 l 0 5.5 l 3 0 l 0 7 l -3 0 l 0 5.5 l 3 0 l 0 7 l -3 0 l 0 5.5 l 3 0 l 0 7 l -3 0 l 0 5.5 l 3 0 l 0 6.75"/>
      <path id="side_068" style="fill:none;stroke:#000000;stroke-width:1" d="m 274 157 l -7.464 0 l 0 -3 l -5.5 0 l 0 3 l -7.715 0 l 0 -3 l -5.5 0 l 0 3 l -7.714 0 l 0 -3 l -5.5 0 l 0 3 l -7.714 0 l 0 -3 l -5.5 0 l 0 3 l -7.714 0 l 0 -3 l -5.5 0 l 0 3 l -7.715 0 l 0 -3 l -5.5 0 l 0 3 l -7.464 0"/>
      <path id="side_069" style="fill:none;stroke:#000000;stroke-width:1" d="m 187.5 157 l 0 -6.75 l 3 0 l 0 -5.5 l -3 0 l 0 -7 l 3 0 l 0 -5.5 l -3 0 l 0 -7 l 3 0 l 0 -5.5 l -3 0 l 0 -7 l 3 0 l 0 -5.5 l -3 0 l 0 -7 l 3 0 l 0 -5.5 l -3 0 l 0 -7 l 3 0 l 0 -5.5 l -3 0 l 0 -7 l 3 0 l 0 -5.5 l -3 0 l 0 -7 l 3 0 l 0 -5.5 l -3 0 l 0 -6.75"/>
    </g>
    <g id="piece_008">
      <path id="side_070" style="fill:none;stroke:#000000;stroke-width:1" d="m 50.5 5 l 6.9643 0 l 0 -3 l 6.5 0 l 0 3 l 6.7143 0 l 0 -3 l 6.5 0 l 0 3 l 6.7143 0 l 0 -3 l 6.5 0 l 0 3 l 6.7142 0 l 0 -3 l 6.4999 0 l 0 3 l 6.714 0 l 0 -3 l 6.5 0 l 0 3 l 6.715 0 l 0 -3 l 6.5 0 l 0 3 l 6.964 0"/>
      <path id="side_071" style="fill:none;stroke:#000000;stroke-width:1" d="m 92.5 9.375 l 0 5.5 l 2.5 0 l 0 -5.5 l -2.5 0"/>
      <path id="side_072" style="fill:none;stroke:#000000;stroke-width:1" d="m 92.5 22.5 l 0 5.5 l 2.5 0 l 0 -5.5 l -2.5 0"/>
      <path id="side_073" style="fill:none;stroke:#000000;stroke-width:1" d="m 92.5 35.625 l 0 5.5 l 2.5 0 l 0 -5.5 l -2.5 0"/>
      <path id="side_074" style="fill:none;stroke:#000000;stroke-width:1" d="m 137 5 l 0 4.375 l -3 0 l 0 5.5 l 3 0 l 0 7.625 l -3 0 l 0 5.5 l 3 0 l 0 7.625 l -3 0 l 0 5.5 l 3 0 l 0 4.375"/>
      <path id="side_075" style="fill:none;stroke:#000000;stroke-width:1" d="m 137 45.5 l -6.964 0 l 0 3 l -6.5 0 l 0 -3 l -6.715 0 l 0 3 l -6.5 0 l 0 -3 l -6.714 0 l 0 3 l -6.4999 0 l 0 -3 l -6.7142 0 l 0 3 l -6.5 0 l 0 -3 l -6.7143 0 l 0 3 l -6.5 0 l 0 -3 l -6.7143 0 l 0 3 l -6.5 0 l 0 -3 l -6.9643 0"/>
      <path id="side_076" style="fill:none;stroke:#000000;stroke-width:1" d="m 50.5 45.5 l 0 -4.375 l 3 0 l 0 -5.5 l -3 0 l 0 -7.625 l 3 0 l 0 -5.5 l -3 0 l 0 -7.625 l 3 0 l 0 -5.5 l -3 0 l 0 -4.375"/>
    </g>
  </g>
</svg>