<!-- Created with Inkscape (http://www.inkscape.org/) -->
<svg xmlns:inkscape="http://www.inkscape.org/namespaces/inkscape" xmlns:sodipodi="http://sodipodi.sourceforge.net/DTD/sodipodi-0.dtd" xmlns="http://www.w3.org/2000/svg" xmlns:svg="http://www.w3.org/2000/svg" width="210mm" height="297mm" viewBox="0 0 210 297" version="1.1" id="svg5" inkscape:version="1.1.2 (0a00cf5339, 2022-02-04)" sodipodi:docname="blank.svg">
  <sodipodi:namedview id="namedview7" pagecolor="#ffffff" bordercolor="#666666" borderopacity="1.0" inkscape:pageshadow="2" inkscape:pageopacity="0.0" inkscape:pagecheckerboard="0" inkscape:document-units="mm" showgrid="false" inkscape:zoom="0.64052329" inkscape:cx="397.33138" inkscape:cy="561.25984" inkscape:window-width="2086" inkscape:window-height="1376" inkscape:window-x="0" inkscape:window-y="0" inkscape:window-maximized="1" inkscape:current-layer="layer1"/>
  <defs id="defs2"/>
  <g inkscape:label="Layer 1" inkscape:groupmode="layer" id="layer1">
    <g id="piece_001">
      <path id="side_001" style="fill:none;stroke:#000000;stroke-width:1" d="m 50.1 161.2 l 7.1071 0 l 0 -3 l 6.1 0 l 0 3 l 7.0572 0 l 0 -3 l 6.1 0 l 0 3 l 7.0571 0 l 0 -3 l 6.1 0 l 0 3 l 7.0572 0 l 0 -3 l 6.1004 0 l 0 3 l 7.057 0 l 0 -3 l 6.1 0 l 0 3 l 7.057 0 l 0 -3 l 6.1 0 l 0 3 l 7.107 0"/>
      <path id="side_002" style="fill:none;stroke:#000000;stroke-width:1" d="m 91.7 165.275 l 0 5.9 l 2.9 0 l 0 -5.9 l -2.9 0"/>
      <path id="side_003" style="fill:none;stroke:#000000;stroke-width:1" d="m 91.7 178.3 l 0 5.9 l 2.9 0 l 0 -5.9 l -2.9 0"/>
      <path id="side_004" style="fill:none;stroke:#000000;stroke-width:1" d="m 91.7 191.325 l 0 5.9 l 2.9 0 l 0 -5.9 l -2.9 0"/>
      <path id="side_005" style="fill:none;stroke:#000000;stroke-width:1" d="m 136.2 161.2 l 0 4.075 l -3 0 l 0 5.9 l 3 0 l 0 7.125 l -3 0 l 0 5.9 l 3 0 l 0 7.125 l -3 0 l 0 5.9 l 3 0 l 0 4.075"/>
      <path id="side_006" style="fill:none;stroke:#000000;stroke-width:1" d="m 136.2 201.3 l -7.107 0 l 0 3 l -6.1 0 l 0 -3 l -7.057 0 l 0 3 l -6.1 0 l 0 -3 l -7.057 0 l 0 3 l -6.1004 0 l 0 -3 l -7.0572 0 l 0 3 l -6.1 0 l 0 -3 l -7.0571 0 l 0 3 l -6.1 0 l 0 -3 l -7.0572 0 l 0 3 l -6.1 0 l 0 -3 l -7.1071 0"/>
      <path id="side_007" style="fill:none;stroke:#000000;stroke-width:1" d="m 50.1 201.3 l 0 -4.075 l 3 0 l 0 -5.9 l -3 0 l 0 -7.125 l 3 0 l 0 -5.9 l -3 0 l 0 -7.125 l 3 0 l 0 -5.9 l -3 0 l 0 -4.075"/>
    </g>
    <g id="piece_002">
      <path id="side_008" style="fill:none;stroke:#000000;stroke-width:1" d="m 0 209.3 l 7.10714 0 l 0 -3 l 6.09996 0 l 0 3 l 7.0572 0 l 0 -3 l 6.1 0 l 0 3 l 7.0571 0 l 0 -3 l 6.1 0 l 0 3 l 7.0572 0 l 0 -3 l 6.1 0 l 0 3 l 7.0571 0 l 0 -3 l 6.1 0 l 0 3 l 7.0572 0 l 0 -3 l 6.1 0 l 0 3 l 7.1071 0"/>
      <path id="side_009" style="fill:none;stroke:#000000;stroke-width:1" d="m 41.6 206.3 l 0 23 l 2.9 0 l 0 -23 l -2.9 0"/>
      <path id="side_010" style="fill:none;stroke:#000000;stroke-width:1" d="m 86.1 209.3 l 0 4.075 l -3 0 l 0 5.9 l 3 0 l 0 7.125 l -3 0 l 0 5.9 l 3 0 l 0 7.125 l -3 0 l 0 5.9 l 3 0 l 0 4.075"/>
      <path id="side_011" style="fill:none;stroke:#000000;stroke-width:1" d="m 86.1 249.4 l -7.1071 0 l 0 3 l -6.1 0 l 0 -3 l -7.0572 0 l 0 3 l -6.1 0 l 0 -3 l -7.0571 0 l 0 3 l -6.1 0 l 0 -3 l -7.0572 0 l 0 3 l -6.1 0 l 0 -3 l -7.0571 0 l 0 3 l -6.1 0 l 0 -3 l -7.0572 0 l 0 3 l -6.09996 0 l 0 -3 l -7.10714 0"/>
      <path id="side_012" style="fill:none;stroke:#000000;stroke-width:1" d="m 0 249.4 l 0 -4.075 l 3 0 l 0 -5.9 l -3 0 l 0 -7.125 l 3 0 l 0 -5.9 l -3 0 l 0 -7.125 l 3 0 l 0 -5.9 l -3 0 l 0 -4.075"/>
    </g>
    <g id="piece_003">
      <path id="side_013" style="fill:none;stroke:#000000;stroke-width:1" d="m 5 104.6 l 3.975 0 l 0 -2.9 l -3.975 0 l 0 2.9"/>
      <path id="side_014" style="fill:none;stroke:#000000;stroke-width:1" d="m 15.075 104.6 l 6.925 0 l 0 -2.9 l -6.925 0 l 0 2.9"/>
      <path id="side_015" style="fill:none;stroke:#000000;stroke-width:1" d="m 28.1 104.6 l 6.925 0 l 0 -2.9 l -6.925 0 l 0 2.9"/>
      <path id="side_016" style="fill:none;stroke:#000000;stroke-width:1" d="m 41.125 101.7 l 3.975 0 l 0 2.9 l -3.975 0 l 0 -2.9"/>
      <path id="side_017" style="fill:none;stroke:#000000;stroke-width:1" d="m 5 53.1 l 3.975 0 l 0 -3 l 6.1 0 l 0 3 l 6.925 0 l 0 -3 l 6.1 0 l 0 3 l 6.925 0 l 0 -3 l 6.1 0 l 0 3 l 3.975 0"/>
      <path id="side_018" style="fill:none;stroke:#000000;stroke-width:1" d="m 45.1 53.1 l 0 3.4056 l 3 0 l 0 6.1 l -3 0 l 0 6.3555 l 3 0 l 0 6.1 l -3 0 l 0 6.3556 l 3 0 l 0 6.1 l -3 0 l 0 6.3555 l 3 0 l 0 6.1 l -3 0 l 0 6.3558 l 3 0 l 0 6.1 l -3 0 l 0 6.355 l 3 0 l 0 6.1 l -3 0 l 0 6.356 l 3 0 l 0 6.1 l -3 0 l 0 6.355 l 3 0 l 0 6.1 l -3 0 l 0 3.406"/>
      <path id="side_019" style="fill:none;stroke:#000000;stroke-width:1" d="m 45.1 153.2 l -3.975 0 l 0 3 l -6.1 0 l 0 -3 l -6.925 0 l 0 3 l -6.1 0 l 0 -3 l -6.925 0 l 0 3 l -6.1 0 l 0 -3 l -3.975 0"/>
      <path id="side_020" style="fill:none;stroke:#000000;stroke-width:1" d="m 5 153.2 l 0 -3.406 l -3 0 l 0 -6.1 l 3 0 l 0 -6.355 l -3 0 l 0 -6.1 l 3 0 l 0 -6.356 l -3 0 l 0 -6.1 l 3 0 l 0 -6.355 l -3 0 l 0 -6.1 l 3 0 l 0 -6.3558 l -3 0 l 0 -6.1 l 3 0 l 0 -6.3555 l -3 0 l 0 -6.1 l 3 0 l 0 -6.3556 l -3 0 l 0 -6.1 l 3 0 l 0 -6.3555 l -3 0 l 0 -6.1 l 3 0 l 0 -3.4056"/>
    </g>
    <g id="piece_004">
      <path id="side_021" style="fill:none;stroke:#000000;stroke-width:1" d="m 0 306 l 23.1 0 l 0 2.9 l -23.1 0 l 0 -2.9"/>
      <path id="side_022" style="fill:none;stroke:#000000;stroke-width:1" d="m 3 257.4 l 3.975 0 l 0 -3 l 6.1 0 l 0 3 l 6.925 0 l 0 -3 l 6.1 0 l 0 3 l 6.925 0 l 0 -3 l 6.1 0 l 0 3 l 3.975 0"/>
      <path id="side_023" style="fill:none;stroke:#000000;stroke-width:1" d="m 43.1 257.4 l 0 3.406 l 3 0 l 0 6.1 l -3 0 l 0 6.355 l 3 0 l 0 6.1 l -3 0 l 0 6.356 l 3 0 l 0 6.1 l -3 0 l 0 6.355 l 3 0 l 0 6.1 l -3 0 l 0 6.356 l 3 0 l 0 6.1 l -3 0 l 0 6.355 l 3 0 l 0 6.1 l -3 0 l 0 6.356 l 3 0 l 0 6.1 l -3 0 l 0 6.355 l 3 0 l 0 6.1 l -3 0 l 0 3.406"/>
      <path id="side_024" style="fill:none;stroke:#000000;stroke-width:1" d="m 43.1 357.5 l -3.975 0 l 0 3 l -6.1 0 l 0 -3 l -6.925 0 l 0 3 l -6.1 0 l 0 -3 l -6.925 0 l 0 3 l -6.1 0 l 0 -3 l -3.975 0"/>
      <path id="side_025" style="fill:none;stroke:#000000;stroke-width:1" d="m 3 357.5 l 0 -3.406 l -3 0 l 0 -6.1 l 3 0 l 0 -6.355 l -3 0 l 0 -6.1 l 3 0 l 0 -6.356 l -3 0 l 0 -6.1 l 3 0 l 0 -6.355 l -3 0 l 0 -6.1 l 3 0 l 0 -6.356 l -3 0 l 0 -6.1 l 3 0 l 0 -6.355 l -3 0 l 0 -6.1 l 3 0 l 0 -6.356 l -3 0 l 0 -6.1 l 3 0 l 0 -6.355 l -3 0 l 0 -6.1 l 3 0 l 0 -3.406"/>
    </g>
    <g id="piece_005">
      <path id="side_026" style="fill:none;stroke:#000000;stroke-width:1" d="m 57.3071 104.6 l 5.9 0 l 0 -2.9 l -5.9 0 l 0 2.9"/>
      <path id="side_027" style="fill:none;stroke:#000000;stroke-width:1" d="m 70.4643 104.6 l 5.9 0 l 0 -2.9 l -5.9 0 l 0 2.9"/>
      <path id="side_028" style="fill:none;stroke:#000000;stroke-width:1" d="m 83.6214 104.6 l 5.9 0 l 0 -2.9 l -5.9 0 l 0 2.9"/>
      <path id="side_029" style="fill:none;stroke:#000000;stroke-width:1" d="m 96.7786 104.6 l 5.9004 0 l 0 -2.9 l -5.9004 0 l 0 2.9"/>
      <path id="side_030" style="fill:none;stroke:#000000;stroke-width:1" d="m 109.936 104.6 l 5.9 0 l 0 -2.9 l -5.9 0 l 0 2.9"/>
      <path id="side_031" style="fill:none;stroke:#000000;stroke-width:1" d="m 123.093 104.6 l 5.9 0 l 0 -2.9 l -5.9 0 l 0 2.9"/>
      <path id="side_032" style="fill:none;stroke:#000000;stroke-width:1" d="m 50.1 50.1 l 7.2071 0 l 0 3 l 5.9 0 l 0 -3 l 7.2572 0 l 0 3 l 5.9 0 l 0 -3 l 7.2571 0 l 0 3 l 5.9 0 l 0 -3 l 7.2572 0 l 0 3 l 5.9004 0 l 0 -3 l 7.257 0 l 0 3 l 5.9 0 l 0 -3 l 7.257 0 l 0 3 l 5.9 0 l 0 -3 l 7.207 0"/>
      <path id="side_033" style="fill:none;stroke:#000000;stroke-width:1" d="m 91.7 56.6056 l 0 5.9 l 2.9 0 l 0 -5.9 l -2.9 0"/>
      <path id="side_034" style="fill:none;stroke:#000000;stroke-width:1" d="m 91.7 69.0611 l 0 5.9 l 2.9 0 l 0 -5.9 l -2.9 0"/>
      <path id="side_035" style="fill:none;stroke:#000000;stroke-width:1" d="m 91.7 81.5167 l 0 5.9 l 2.9 0 l 0 -5.9 l -2.9 0"/>
      <path id="side_036" style="fill:none;stroke:#000000;stroke-width:1" d="m 91.7 93.9722 l 0 5.9 l 2.9 0 l 0 -5.9 l -2.9 0"/>
      <path id="side_037" style="fill:none;stroke:#000000;stroke-width:1" d="m 91.7 106.428 l 0 5.9 l 2.9 0 l 0 -5.9 l -2.9 0"/>
      <path id="side_038" style="fill:none;stroke:#000000;stroke-width:1" d="m 91.7 118.883 l 0 5.9 l 2.9 0 l 0 -5.9 l -2.9 0"/>
      <path id="side_039" style="fill:none;stroke:#000000;stroke-width:1" d="m 91.7 131.339 l 0 5.9 l 2.9 0 l 0 -5.9 l -2.9 0"/>
      <path id="side_040" style="fill:none;stroke:#000000;stroke-width:1" d="m 91.7 143.794 l 0 5.9 l 2.9 0 l 0 -5.9 l -2.9 0"/>
      <path id="side_041" style="fill:none;stroke:#000000;stroke-width:1" d="m 136.2 50.1 l 0 6.5056 l -3 0 l 0 5.9 l 3 0 l 0 6.5555 l -3 0 l 0 5.9 l 3 0 l 0 6.5556 l -3 0 l 0 5.9 l 3 0 l 0 6.5555 l -3 0 l 0 5.9 l 3 0 l 0 6.5558 l -3 0 l 0 5.9 l 3 0 l 0 6.555 l -3 0 l 0 5.9 l 3 0 l 0 6.556 l -3 0 l 0 5.9 l 3 0 l 0 6.555 l -3 0 l 0 5.9 l 3 0 l 0 6.506"/>
      <path id="side_042" style="fill:none;stroke:#000000;stroke-width:1" d="m 136.2 156.2 l -7.207 0 l 0 -3 l -5.9 0 l 0 3 l -7.257 0 l 0 -3 l -5.9 0 l 0 3 l -7.257 0 l 0 -3 l -5.9004 0 l 0 3 l -7.2572 0 l 0 -3 l -5.9 0 l 0 3 l -7.2571 0 l 0 -3 l -5.9 0 l 0 3 l -7.2572 0 l 0 -3 l -5.9 0 l 0 3 l -7.2071 0"/>
      <path id="side_043" style="fill:none;stroke:#000000;stroke-width:1" d="m 50.1 156.2 l 0 -6.506 l 3 0 l 0 -5.9 l -3 0 l 0 -6.555 l 3 0 l 0 -5.9 l -3 0 l 0 -6.556 l 3 0 l 0 -5.9 l -3 0 l 0 -6.555 l 3 0 l 0 -5.9 l -3 0 l 0 -6.5558 l 3 0 l 0 -5.9 l -3 0 l 0 -6.5555 l 3 0 l 0 -5.9 l -3 0 l 0 -6.5556 l 3 0 l 0 -5.9 l -3 0 l 0 -6.5555 l 3 0 l 0 -5.9 l -3 0 l 0 -6.5056"/>
    </g>
    <g id="piece_006">
      <path id="side_044" style="fill:none;stroke:#000000;stroke-width:1" d="m 141.2 104.6 l 3.975 0 l 0 -2.9 l -3.975 0 l 0 2.9"/>
      <path id="side_045" style="fill:none;stroke:#000000;stroke-width:1" d="m 151.275 104.6 l 6.925 0 l 0 -2.9 l -6.925 0 l 0 2.9"/>
      <path id="side_046" style="fill:none;stroke:#000000;stroke-width:1" d="m 164.3 104.6 l 6.925 0 l 0 -2.9 l -6.925 0 l 0 2.9"/>
      <path id="side_047" style="fill:none;stroke:#000000;stroke-width:1" d="m 177.325 101.7 l 3.975 0 l 0 2.9 l -3.975 0 l 0 -2.9"/>
      <path id="side_048" style="fill:none;stroke:#000000;stroke-width:1" d="m 141.2 53.1 l 3.975 0 l 0 -3 l 6.1 0 l 0 3 l 6.925 0 l 0 -3 l 6.1 0 l 0 3 l 6.925 0 l 0 -3 l 6.1 0 l 0 3 l 3.975 0"/>
      <path id="side_049" style="fill:none;stroke:#000000;stroke-width:1" d="m 181.3 53.1 l 0 3.4056 l 3 0 l 0 6.1 l -3 0 l 0 6.3555 l 3 0 l 0 6.1 l -3 0 l 0 6.3556 l 3 0 l 0 6.1 l -3 0 l 0 6.3555 l 3 0 l 0 6.1 l -3 0 l 0 6.3558 l 3 0 l 0 6.1 l -3 0 l 0 6.355 l 3 0 l 0 6.1 l -3 0 l 0 6.356 l 3 0 l 0 6.1 l -3 0 l 0 6.355 l 3 0 l 0 6.1 l -3 0 l 0 3.406"/>
      <path id="side_050" style="fill:none;stroke:#000000;stroke-width:1" d="m 181.3 153.2 l -3.975 0 l 0 3 l -6.1 0 l 0 -3 l -6.925 0 l 0 3 l -6.1 0 l 0 -3 l -6.925 0 l 0 3 l -6.1 0 l 0 -3 l -3.975 0"/>
      <path id="side_051" style="fill:none;stroke:#000000;stroke-width:1" d="m 141.2 153.2 l 0 -3.406 l -3 0 l 0 -6.1 l 3 0 l 0 -6.355 l -3 0 l 0 -6.1 l 3 0 l 0 -6.356 l -3 0 l 0 -6.1 l 3 0 l 0 -6.355 l -3 0 l 0 -6.1 l 3 0 l 0 -6.3558 l -3 0 l 0 -6.1 l 3 0 l 0 -6.3555 l -3 0 l 0 -6.1 l 3 0 l 0 -6.3556 l -3 0 l 0 -6.1 l 3 0 l 0 -6.3555 l -3 0 l 0 -6.1 l 3 0 l 0 -3.4056"/>
    </g>
    <g id="piece_007">
      <path id="side_052" style="fill:none;stroke:#000000;stroke-width:1" d="m 193.507 104.6 l 5.9 0 l 0 -2.9 l -5.9 0 l 0 2.9"/>
      <path id="side_053" style="fill:none;stroke:#000000;stroke-width:1" d="m 206.664 104.6 l 5.9 0 l 0 -2.9 l -5.9 0 l 0 2.9"/>
      <path id="side_054" style="fill:none;stroke:#000000;stroke-width:1" d="m 219.821 104.6 l 5.9 0 l 0 -2.9 l -5.9 0 l 0 2.9"/>
      <path id="side_055" style="fill:none;stroke:#000000;stroke-width:1" d="m 232.979 104.6 l 5.9 0 l 0 -2.9 l -5.9 0 l 0 2.9"/>
      <path id="side_056" style="fill:none;stroke:#000000;stroke-width:1" d="m 246.136 104.6 l 5.9 0 l 0 -2.9 l -5.9 0 l 0 2.9"/>
      <path id="side_057" style="fill:none;stroke:#000000;stroke-width:1" d="m 259.293 104.6 l 5.9 0 l 0 -2.9 l -5.9 0 l 0 2.9"/>
      <path id="side_058" style="fill:none;stroke:#000000;stroke-width:1" d="m 186.3 50.1 l 7.207 0 l 0 3 l 5.9 0 l 0 -3 l 7.257 0 l 0 3 l 5.9 0 l 0 -3 l 7.257 0 l 0 3 l 5.9 0 l 0 -3 l 7.258 0 l 0 3 l 5.9 0 l 0 -3 l 7.257 0 l 0 3 l 5.9 0 l 0 -3 l 7.257 0 l 0 3 l 5.9 0 l 0 -3 l 7.207 0"/>
      <path id="side_059" style="fill:none;stroke:#000000;stroke-width:1" d="m 227.9 56.6056 l 0 5.9 l 2.9 0 l 0 -5.9 l -2.9 0"/>
      <path id="side_060" style="fill:none;stroke:#000000;stroke-width:1" d="m 227.9 69.0611 l 0 5.9 l 2.9 0 l 0 -5.9 l -2.9 0"/>
      <path id="side_061" style="fill:none;stroke:#000000;stroke-width:1" d="m 227.9 81.5167 l 0 5.9 l 2.9 0 l 0 -5.9 l -2.9 0"/>
      <path id="side_062" style="fill:none;stroke:#000000;stroke-width:1" d="m 227.9 93.9722 l 0 5.9 l 2.9 0 l 0 -5.9 l -2.9 0"/>
      <path id="side_063" style="fill:none;stroke:#000000;stroke-width:1" d="m 227.9 106.428 l 0 5.9 l 2.9 0 l 0 -5.9 l -2.9 0"/>
      <path id="side_064" style="fill:none;stroke:#000000;stroke-width:1" d="m 227.9 118.883 l 0 5.9 l 2.9 0 l 0 -5.9 l -2.9 0"/>
      <path id="side_065" style="fill:none;stroke:#000000;stroke-width:1" d="m 227.9 131.339 l 0 5.9 l 2.9 0 l 0 -5.9 l -2.9 0"/>
      <path id="side_066" style="fill:none;stroke:#000000;stroke-width:1" d="m 227.9 143.794 l 0 5.9 l 2.9 0 l 0 -5.9 l -2.9 0"/>
      <path id="side_067" style="fill:none;stroke:#000000;stroke-width:1" d="m 272.4 50.1 l 0 6.5056 l -3 0 l 0 5.9 l 3 0 l 0 6.5555 l -3 0 l 0 5.9 l 3 0 l 0 6.5556 l -3 0 l 0 5.9 l 3 0 l 0 6.5555 l -3 0 l 0 5.9 l 3 0 l 0 6.5558 l -3 0 l 0 5.9 l 3 0 l 0 6.555 l -3 0 l 0 5.9 l 3 0 l 0 6.556 l -3 0 l 0 5.9 l 3 0 l 0 6.555 l -3 0 l 0 5.9 l 3 0 l 0 6.506"/>
      <path id="side_068" style="fill:none;stroke:#000000;stroke-width:1" d="m 272.4 156.2 l -7.207 0 l 0 -3 l -5.9 0 l 0 3 l -7.257 0 l 0 -3 l -5.9 0 l 0 3 l -7.257 0 l 0 -3 l -5.9 0 l 0 3 l -7.258 0 l 0 -3 l -5.9 0 l 0 3 l -7.257 0 l 0 -3 l -5.9 0 l 0 3 l -7.257 0 l 0 -3 l -5.9 0 l 0 3 l -7.207 0"/>
      <path id="side_069" style="fill:none;stroke:#000000;stroke-width:1" d="m 186.3 156.2 l 0 -6.506 l 3 0 l 0 -5.9 l -3 0 l 0 -6.555 l 3 0 l 0 -5.9 l -3 0 l 0 -6.556 l 3 0 l 0 -5.9 l -3 0 l 0 -6.555 l 3 0 l 0 -5.9 l -3 0 l 0 -6.5558 l 3 0 l 0 -5.9 l -3 0 l 0 -6.5555 l 3 0 l 0 -5.9 l -3 0 l 0 -6.5556 l 3 0 l 0 -5.9 l -3 0 l 0 -6.5555 l 3 0 l 0 -5.9 l -3 0 l 0 -6.5056"/>
    </g>
    <g id="piece_008">
      <path id="side_070" style="fill:none;stroke:#000000;stroke-width:1" d="m 50.1 5 l 7.1071 0 l 0 -3 l 6.1 0 l 0 3 l 7.0572 0 l 0 -3 l 6.1 0 l 0 3 l 7.0571 0 l 0 -3 l 6.1 0 l 0 3 l 7.0572 0 l 0 -3 l 6.1004 0 l 0 3 l 7.057 0 l 0 -3 l 6.1 0 l 0 3 l 7.057 0 l 0 -3 l 6.1 0 l 0 3 l 7.107 0"/>
      <path id="side_071" style="fill:none;stroke:#000000;stroke-width:1" d="m 91.7 9.075 l 0 5.9 l 2.9 0 l 0 -5.9 l -2.9 0"/>
      <path id="side_072" style="fill:none;stroke:#000000;stroke-width:1" d="m 91.7 22.1 l 0 5.9 l 2.9 0 l 0 -5.9 l -2.9 0"/>
      <path id="side_073" style="fill:none;stroke:#000000;stroke-width:1" d="m 91.7 35.125 l 0 5.9 l 2.9 0 l 0 -5.9 l -2.9 0"/>
      <path id="side_074" style="fill:none;stroke:#000000;stroke-width:1" d="m 136.2 5 l 0 4.075 l -3 0 l 0 5.9 l 3 0 l 0 7.125 l -3 0 l 0 5.9 l 3 0 l 0 7.125 l -3 0 l 0 5.9 l 3 0 l 0 4.075"/>
      <path id="side_075" style="fill:none;stroke:#000000;stroke-width:1" d="m 136.2 45.1 l -7.107 0 l 0 3 l -6.1 0 l 0 -3 l -7.057 0 l 0 3 l -6.1 0 l 0 -3 l -7.057 0 l 0 3 l -6.1004 0 l 0 -3 l -7.0572 0 l 0 3 l -6.1 0 l 0 -3 l -7.0571 0 l 0 3 l -6.1 0 l 0 -3 l -7.0572 0 l 0 3 l -6.1 0 l 0 -3 l -7.1071 0"/>
      <path id="side_076" style="fill:none;stroke:#000000;stroke-width:1" d="m 50.1 45.1 l 0 -4.075 l 3 0 l 0 -5.9 l -3 0 l 0 -7.125 l 3 0 l 0 -5.9 l -3 0 l 0 -7.125 l 3 0 l 0 -5.9 l -3 0 l 0 -4.075"/>
    </g>
  </g>
</svg>