<!-- Created with Inkscape (http://www.inkscape.org/) -->
<svg xmlns:inkscape="http://www.inkscape.org/namespaces/inkscape" xmlns:sodipodi="http://sodipodi.sourceforge.net/DTD/sodipodi-0.dtd" xmlns="http://www.w3.org/2000/svg" xmlns:svg="http://www.w3.org/2000/svg" width="321.5mm" height="253.4mm" viewBox="0 0 321.5 253.4" version="1.1" id="svg5" inkscape:version="1.1.2 (0a00cf5339, 2022-02-04)" sodipodi:docname="blank.svg">
  <sodipodi:namedview id="namedview7" pagecolor="#ffffff" bordercolor="#666666" borderopacity="1.0" inkscape:pageshadow="2" inkscape:pageopacity="0.0" inkscape:pagecheckerboard="0" inkscape:document-units="mm" showgrid="false" inkscape:zoom="0.64052329" inkscape:cx="397.33138" inkscape:cy="561.25984" inkscape:window-width="2086" inkscape:window-height="1376" inkscape:window-x="0" inkscape:window-y="0" inkscape:window-maximized="1" inkscape:current-layer="layer1"/>
  <defs id="defs2"/>
  <g inkscape:label="Layer 1" inkscape:groupmode="layer" id="layer1">
    <metadata text="createArgs=['--unit=mm', '--inside=1', '--length=80', '--width=100', '--depth=40', '--equal=0', '--tab=6', '--tabtype=0', '--tabsymmetry=0', '--dimpleheight=0', '--dimplelength=0', '--hairline=1', '--thickness=3', '--style=1', '--boxtype=1', '--div_l=1', '--div_w=1', '--keydiv=0', '--spacing=2', '--kerf=0.1']"/>
    <g id="piece_001">
      <path id="side_001" style="fill:none;stroke:#000000;stroke-width:0.0508" d="M 50.1 161.2 L 57.2071 161.2 L 57.2071 158.2 L 63.3071 158.2 L 63.3071 161.2 L 70.3643 161.2 L 70.3643 158.2 L 76.4643 158.2 L 76.4643 161.2 L 83.5214 161.2 L 83.5214 158.2 L 89.6214 158.2 L 89.6214 161.2 L 96.6786 161.2 L 96.6786 158.2 L 102.779 158.2 L 102.779 161.2 L 109.836 161.2 L 109.836 158.2 L 115.936 158.2 L 115.936 161.2 L 122.993 161.2 L 122.993 158.2 L 129.093 158.2 L 129.093 161.2 L 136.2 161.2"/>
      <path id="side_002" style="fill:none;stroke:#000000;stroke-width:0.0508" d="M 136.2 161.2 L 136.2 165.275 L 133.2 165.275 L 133.2 171.175 L 136.2 171.175 L 136.2 178.3 L 133.2 178.3 L 133.2 184.2 L 136.2 184.2 L 136.2 191.325 L 133.2 191.325 L 133.2 197.225 L 136.2 197.225 L 136.2 201.3"/>
      <path id="hole_001" style="fill:none;stroke:#000000;stroke-width:0.0508" d="M 91.7 165.275 L 91.7 171.175 L 94.6 171.175 L 94.6 165.275 L 91.7 165.275 Z"/>
      <path id="hole_002" style="fill:none;stroke:#000000;stroke-width:0.0508" d="M 91.7 178.3 L 91.7 184.2 L 94.6 184.2 L 94.6 178.3 L 91.7 178.3 Z"/>
      <path id="hole_003" style="fill:none;stroke:#000000;stroke-width:0.0508" d="M 91.7 191.325 L 91.7 197.225 L 94.6 197.225 L 94.6 191.325 L 91.7 191.325 Z"/>
      <path id="side_003" style="fill:none;stroke:#000000;stroke-width:0.0508" d="M 136.2 201.3 L 129.093 201.3 L 129.093 204.3 L 122.993 204.3 L 122.993 201.3 L 115.936 201.3 L 115.936 204.3 L 109.836 204.3 L 109.836 201.3 L 102.779 201.3 L 102.779 204.3 L 96.6786 204.3 L 96.6786 201.3 L 89.6214 201.3 L 89.6214 204.3 L 83.5214 204.3 L 83.5214 201.3 L 76.4643 201.3 L 76.4643 204.3 L 70.3643 204.3 L 70.3643 201.3 L 63.3071 201.3 L 63.3071 204.3 L 57.2071 204.3 L 57.2071 201.3 L 50.1 201.3"/>
      <path id="side_004" style="fill:none;stroke:#000000;stroke-width:0.0508" d="M 50.1 201.3 L 50.1 197.225 L 53.1 197.225 L 53.1 191.325 L 50.1 191.325 L 50.1 184.2 L 53.1 184.2 L 53.1 178.3 L 50.1 178.3 L 50.1 171.175 L 53.1 171.175 L 53.1 165.275 L 50.1 165.275 L 50.1 161.2"/>
    </g>
    <g id="xdivider_001">
      <path id="side_005" style="fill:none;stroke:#000000;stroke-width:0.0508" d="M 50.1 209.3 L 57.2071 209.3 L 57.2071 206.3 L 63.3071 206.3 L 63.3071 209.3 L 70.3643 209.3 L 70.3643 206.3 L 76.4643 206.3 L 76.4643 209.3 L 83.5214 209.3 L 83.5214 206.3 L 89.6214 206.3 L 89.6214 209.3 L 96.6786 209.3 L 96.6786 206.3 L 102.779 206.3 L 102.779 209.3 L 109.836 209.3 L 109.836 206.3 L 115.936 206.3 L 115.936 209.3 L 122.993 209.3 L 122.993 206.3 L 129.093 206.3 L 129.093 209.3 L 136.2 209.3"/>
      <path id="side_006" style="fill:none;stroke:#000000;stroke-width:0.0508" d="M 136.2 209.3 L 136.2 213.375 L 133.2 213.375 L 133.2 219.275 L 136.2 219.275 L 136.2 226.4 L 133.2 226.4 L 133.2 232.3 L 136.2 232.3 L 136.2 239.425 L 133.2 239.425 L 133.2 245.325 L 136.2 245.325 L 136.2 249.4"/>
      <path id="slot_001" style="fill:none;stroke:#000000;stroke-width:0.0508" d="M 91.7 206.3 L 91.7 229.3 L 94.6 229.3 L 94.6 206.3 L 91.7 206.3 Z"/>
      <path id="side_007" style="fill:none;stroke:#000000;stroke-width:0.0508" d="M 136.2 249.4 L 129.093 249.4 L 129.093 252.4 L 122.993 252.4 L 122.993 249.4 L 115.936 249.4 L 115.936 252.4 L 109.836 252.4 L 109.836 249.4 L 102.779 249.4 L 102.779 252.4 L 96.6786 252.4 L 96.6786 249.4 L 89.6214 249.4 L 89.6214 252.4 L 83.5214 252.4 L 83.5214 249.4 L 76.4643 249.4 L 76.4643 252.4 L 70.3643 252.4 L 70.3643 249.4 L 63.3071 249.4 L 63.3071 252.4 L 57.2071 252.4 L 57.2071 249.4 L 50.1 249.4"/>
      <path id="side_008" style="fill:none;stroke:#000000;stroke-width:0.0508" d="M 50.1 249.4 L 50.1 245.325 L 53.1 245.325 L 53.1 239.425 L 50.1 239.425 L 50.1 232.3 L 53.1 232.3 L 53.1 226.4 L 50.1 226.4 L 50.1 219.275 L 53.1 219.275 L 53.1 213.375 L 50.1 213.375 L 50.1 209.3"/>
    </g>
    <g id="piece_002">
      <path id="side_009" style="fill:none;stroke:#000000;stroke-width:0.0508" d="M 5 53.1 L 8.975 53.1 L 8.975 50.1 L 15.075 50.1 L 15.075 53.1 L 22 53.1 L 22 50.1 L 28.1 50.1 L 28.1 53.1 L 35.025 53.1 L 35.025 50.1 L 41.125 50.1 L 41.125 53.1 L 45.1 53.1"/>
      <path id="hole_004" style="fill:none;stroke:#000000;stroke-width:0.0508" d="M 5 104.6 L 8.975 104.6 L 8.975 101.7 L 5 101.7 L 5 104.6 Z"/>
      <path id="hole_005" style="fill:none;stroke:#000000;stroke-width:0.0508" d="M 15.075 104.6 L 22 104.6 L 22 101.7 L 15.075 101.7 L 15.075 104.6 Z"/>
      <path id="hole_006" style="fill:none;stroke:#000000;stroke-width:0.0508" d="M 28.1 104.6 L 35.025 104.6 L 35.025 101.7 L 28.1 101.7 L 28.1 104.6 Z"/>
      <path id="hole_007" style="fill:none;stroke:#000000;stroke-width:0.0508" d="M 41.125 104.6 L 45.05 104.6 L 45.05 101.7 L 41.125 101.7 L 41.125 104.6 Z"/>
      <path id="side_010" style="fill:none;stroke:#000000;stroke-width:0.0508" d="M 45.1 53.1 L 45.1 56.5056 L 48.1 56.5056 L 48.1 62.6056 L 45.1 62.6056 L 45.1 68.9611 L 48.1 68.9611 L 48.1 75.0611 L 45.1 75.0611 L 45.1 81.4167 L 48.1 81.4167 L 48.1 87.5167 L 45.1 87.5167 L 45.1 93.8722 L 48.1 93.8722 L 48.1 99.9722 L 45.1 99.9722 L 45.1 106.328 L 48.1 106.328 L 48.1 112.428 L 45.1 112.428 L 45.1 118.783 L 48.1 118.783 L 48.1 124.883 L 45.1 124.883 L 45.1 131.239 L 48.1 131.239 L 48.1 137.339 L 45.1 137.339 L 45.1 143.694 L 48.1 143.694 L 48.1 149.794 L 45.1 149.794 L 45.1 153.2"/>
      <path id="side_011" style="fill:none;stroke:#000000;stroke-width:0.0508" d="M 45.1 153.2 L 41.125 153.2 L 41.125 156.2 L 35.025 156.2 L 35.025 153.2 L 28.1 153.2 L 28.1 156.2 L 22 156.2 L 22 153.2 L 15.075 153.2 L 15.075 156.2 L 8.975 156.2 L 8.975 153.2 L 5 153.2"/>
      <path id="side_012" style="fill:none;stroke:#000000;stroke-width:0.0508" d="M 5 153.2 L 5 149.794 L 2 149.794 L 2 143.694 L 5 143.694 L 5 137.339 L 2 137.339 L 2 131.239 L 5 131.239 L 5 124.883 L 2 124.883 L 2 118.783 L 5 118.783 L 5 112.428 L 2 112.428 L 2 106.328 L 5 106.328 L 5 99.9722 L 2 99.9722 L 2 93.8722 L 5 93.8722 L 5 87.5167 L 2 87.5167 L 2 81.4167 L 5 81.4167 L 5 75.0611 L 2 75.0611 L 2 68.9611 L 5 68.9611 L 5 62.6056 L 2 62.6056 L 2 56.5056 L 5 56.5056 L 5 53.1"/>
    </g>
    <g id="ydivider_001">
      <path id="side_013" style="fill:none;stroke:#000000;stroke-width:0.0508" d="M 277.4 53.1 L 281.375 53.1 L 281.375 50.1 L 287.475 50.1 L 287.475 53.1 L 294.4 53.1 L 294.4 50.1 L 300.5 50.1 L 300.5 53.1 L 307.425 53.1 L 307.425 50.1 L 313.525 50.1 L 313.525 53.1 L 317.5 53.1"/>
      <path id="slot_002" style="fill:none;stroke:#000000;stroke-width:0.0508" d="M 274.4 101.7 L 297.5 101.7 L 297.5 104.6 L 274.4 104.6 L 274.4 101.7 Z"/>
      <path id="side_014" style="fill:none;stroke:#000000;stroke-width:0.0508" d="M 317.5 53.1 L 317.5 56.5056 L 320.5 56.5056 L 320.5 62.6056 L 317.5 62.6056 L 317.5 68.9611 L 320.5 68.9611 L 320.5 75.0611 L 317.5 75.0611 L 317.5 81.4167 L 320.5 81.4167 L 320.5 87.5167 L 317.5 87.5167 L 317.5 93.8722 L 320.5 93.8722 L 320.5 99.9722 L 317.5 99.9722 L 317.5 106.328 L 320.5 106.328 L 320.5 112.428 L 317.5 112.428 L 317.5 118.783 L 320.5 118.783 L 320.5 124.883 L 317.5 124.883 L 317.5 131.239 L 320.5 131.239 L 320.5 137.339 L 317.5 137.339 L 317.5 143.694 L 320.5 143.694 L 320.5 149.794 L 317.5 149.794 L 317.5 153.2"/>
      <path id="side_015" style="fill:none;stroke:#000000;stroke-width:0.0508" d="M 317.5 153.2 L 313.525 153.2 L 313.525 156.2 L 307.425 156.2 L 307.425 153.2 L 300.5 153.2 L 300.5 156.2 L 294.4 156.2 L 294.4 153.2 L 287.475 153.2 L 287.475 156.2 L 281.375 156.2 L 281.375 153.2 L 277.4 153.2"/>
      <path id="side_016" style="fill:none;stroke:#000000;stroke-width:0.0508" d="M 277.4 153.2 L 277.4 149.794 L 274.4 149.794 L 274.4 143.694 L 277.4 143.694 L 277.4 137.339 L 274.4 137.339 L 274.4 131.239 L 277.4 131.239 L 277.4 124.883 L 274.4 124.883 L 274.4 118.783 L 277.4 118.783 L 277.4 112.428 L 274.4 112.428 L 274.4 106.328 L 277.4 106.328 L 277.4 99.9722 L 274.4 99.9722 L 274.4 93.8722 L 277.4 93.8722 L 277.4 87.5167 L 274.4 87.5167 L 274.4 81.4167 L 277.4 81.4167 L 277.4 75.0611 L 274.4 75.0611 L 274.4 68.9611 L 277.4 68.9611 L 277.4 62.6056 L 274.4 62.6056 L 274.4 56.5056 L 277.4 56.5056 L 277.4 53.1"/>
    </g>
    <g id="piece_003">
      <path id="side_017" style="fill:none;stroke:#000000;stroke-width:0.0508" d="M 50.1 50.1 L 57.3071 50.1 L 57.3071 53.1 L 63.2071 53.1 L 63.2071 50.1 L 70.4643 50.1 L 70.4643 53.1 L 76.3643 53.1 L 76.3643 50.1 L 83.6214 50.1 L 83.6214 53.1 L 89.5214 53.1 L 89.5214 50.1 L 96.7786 50.1 L 96.7786 53.1 L 102.679 53.1 L 102.679 50.1 L 109.936 50.1 L 109.936 53.1 L 115.836 53.1 L 115.836 50.1 L 123.093 50.1 L 123.093 53.1 L 128.993 53.1 L 128.993 50.1 L 136.2 50.1"/>
      <path id="hole_008" style="fill:none;stroke:#000000;stroke-width:0.0508" d="M 57.3071 104.6 L 63.2071 104.6 L 63.2071 101.7 L 57.3071 101.7 L 57.3071 104.6 Z"/>
      <path id="hole_009" style="fill:none;stroke:#000000;stroke-width:0.0508" d="M 70.4643 104.6 L 76.3643 104.6 L 76.3643 101.7 L 70.4643 101.7 L 70.4643 104.6 Z"/>
      <path id="hole_010" style="fill:none;stroke:#000000;stroke-width:0.0508" d="M 83.6214 104.6 L 89.5214 104.6 L 89.5214 101.7 L 83.6214 101.7 L 83.6214 104.6 Z"/>
      <path id="hole_011" style="fill:none;stroke:#000000;stroke-width:0.0508" d="M 96.7786 104.6 L 102.679 104.6 L 102.679 101.7 L 96.7786 101.7 L 96.7786 104.6 Z"/>
      <path id="hole_012" style="fill:none;stroke:#000000;stroke-width:0.0508" d="M 109.936 104.6 L 115.836 104.6 L 115.836 101.7 L 109.936 101.7 L 109.936 104.6 Z"/>
      <path id="hole_013" style="fill:none;stroke:#000000;stroke-width:0.0508" d="M 123.093 104.6 L 128.993 104.6 L 128.993 101.7 L 123.093 101.7 L 123.093 104.6 Z"/>
      <path id="side_018" style="fill:none;stroke:#000000;stroke-width:0.0508" d="M 136.2 50.1 L 136.2 56.6056 L 133.2 56.6056 L 133.2 62.5056 L 136.2 62.5056 L 136.2 69.0611 L 133.2 69.0611 L 133.2 74.9611 L 136.2 74.9611 L 136.2 81.5167 L 133.2 81.5167 L 133.2 87.4167 L 136.2 87.4167 L 136.2 93.9722 L 133.2 93.9722 L 133.2 99.8722 L 136.2 99.8722 L 136.2 106.428 L 133.2 106.428 L 133.2 112.328 L 136.2 112.328 L 136.2 118.883 L 133.2 118.883 L 133.2 124.783 L 136.2 124.783 L 136.2 131.339 L 133.2 131.339 L 133.2 137.239 L 136.2 137.239 L 136.2 143.794 L 133.2 143.794 L 133.2 149.694 L 136.2 149.694 L 136.2 156.2"/>
      <path id="hole_014" style="fill:none;stroke:#000000;stroke-width:0.0508" d="M 91.7 56.6056 L 91.7 62.5056 L 94.6 62.5056 L 94.6 56.6056 L 91.7 56.6056 Z"/>
      <path id="hole_015" style="fill:none;stroke:#000000;stroke-width:0.0508" d="M 91.7 69.0611 L 91.7 74.9611 L 94.6 74.9611 L 94.6 69.0611 L 91.7 69.0611 Z"/>
      <path id="hole_016" style="fill:none;stroke:#000000;stroke-width:0.0508" d="M 91.7 81.5167 L 91.7 87.4167 L 94.6 87.4167 L 94.6 81.5167 L 91.7 81.5167 Z"/>
      <path id="hole_017" style="fill:none;stroke:#000000;stroke-width:0.0508" d="M 91.7 93.9722 L 91.7 99.8722 L 94.6 99.8722 L 94.6 93.9722 L 91.7 93.9722 Z"/>
      <path id="hole_018" style="fill:none;stroke:#000000;stroke-width:0.0508" d="M 91.7 106.428 L 91.7 112.328 L 94.6 112.328 L 94.6 106.428 L 91.7 106.428 Z"/>
      <path id="hole_019" style="fill:none;stroke:#000000;stroke-width:0.0508" d="M 91.7 118.883 L 91.7 124.783 L 94.6 124.783 L 94.6 118.883 L 91.7 118.883 Z"/>
      <path id="hole_020" style="fill:none;stroke:#000000;stroke-width:0.0508" d="M 91.7 131.339 L 91.7 137.239 L 94.6 137.239 L 94.6 131.339 L 91.7 131.339 Z"/>
      <path id="hole_021" style="fill:none;stroke:#000000;stroke-width:0.0508" d="M 91.7 143.794 L 91.7 149.694 L 94.6 149.694 L 94.6 143.794 L 91.7 143.794 Z"/>
      <path id="side_019" style="fill:none;stroke:#000000;stroke-width:0.0508" d="M 136.2 156.2 L 128.993 156.2 L 128.993 153.2 L 123.093 153.2 L 123.093 156.2 L 115.836 156.2 L 115.836 153.2 L 109.936 153.2 L 109.936 156.2 L 102.679 156.2 L 102.679 153.2 L 96.7786 153.2 L 96.7786 156.2 L 89.5214 156.2 L 89.5214 153.2 L 83.6214 153.2 L 83.6214 156.2 L 76.3643 156.2 L 76.3643 153.2 L 70.4643 153.2 L 70.4643 156.2 L 63.2071 156.2 L 63.2071 153.2 L 57.3071 153.2 L 57.3071 156.2 L 50.1 156.2"/>
      <path id="side_020" style="fill:none;stroke:#000000;stroke-width:0.0508" d="M 50.1 156.2 L 50.1 149.694 L 53.1 149.694 L 53.1 143.794 L 50.1 143.794 L 50.1 137.239 L 53.1 137.239 L 53.1 131.339 L 50.1 131.339 L 50.1 124.783 L 53.1 124.783 L 53.1 118.883 L 50.1 118.883 L 50.1 112.328 L 53.1 112.328 L 53.1 106.428 L 50.1 106.428 L 50.1 99.8722 L 53.1 99.8722 L 53.1 93.9722 L 50.1 93.9722 L 50.1 87.4167 L 53.1 87.4167 L 53.1 81.5167 L 50.1 81.5167 L 50.1 74.9611 L 53.1 74.9611 L 53.1 69.0611 L 50.1 69.0611 L 50.1 62.5056 L 53.1 62.5056 L 53.1 56.6056 L 50.1 56.6056 L 50.1 50.1"/>
    </g>
    <g id="piece_004">
      <path id="side_021" style="fill:none;stroke:#000000;stroke-width:0.0508" d="M 141.2 53.1 L 145.175 53.1 L 145.175 50.1 L 151.275 50.1 L 151.275 53.1 L 158.2 53.1 L 158.2 50.1 L 164.3 50.1 L 164.3 53.1 L 171.225 53.1 L 171.225 50.1 L 177.325 50.1 L 177.325 53.1 L 181.3 53.1"/>
      <path id="hole_022" style="fill:none;stroke:#000000;stroke-width:0.0508" d="M 141.2 104.6 L 145.175 104.6 L 145.175 101.7 L 141.2 101.7 L 141.2 104.6 Z"/>
      <path id="hole_023" style="fill:none;stroke:#000000;stroke-width:0.0508" d="M 151.275 104.6 L 158.2 104.6 L 158.2 101.7 L 151.275 101.7 L 151.275 104.6 Z"/>
      <path id="hole_024" style="fill:none;stroke:#000000;stroke-width:0.0508" d="M 164.3 104.6 L 171.225 104.6 L 171.225 101.7 L 164.3 101.7 L 164.3 104.6 Z"/>
      <path id="hole_025" style="fill:none;stroke:#000000;stroke-width:0.0508" d="M 177.325 104.6 L 181.25 104.6 L 181.25 101.7 L 177.325 101.7 L 177.325 104.6 Z"/>
      <path id="side_022" style="fill:none;stroke:#000000;stroke-width:0.0508" d="M 181.3 53.1 L 181.3 56.5056 L 184.3 56.5056 L 184.3 62.6056 L 181.3 62.6056 L 181.3 68.9611 L 184.3 68.9611 L 184.3 75.0611 L 181.3 75.0611 L 181.3 81.4167 L 184.3 81.4167 L 184.3 87.5167 L 181.3 87.5167 L 181.3 93.8722 L 184.3 93.8722 L 184.3 99.9722 L 181.3 99.9722 L 181.3 106.328 L 184.3 106.328 L 184.3 112.428 L 181.3 112.428 L 181.3 118.783 L 184.3 118.783 L 184.3 124.883 L 181.3 124.883 L 181.3 131.239 L 184.3 131.239 L 184.3 137.339 L 181.3 137.339 L 181.3 143.694 L 184.3 143.694 L 184.3 149.794 L 181.3 149.794 L 181.3 153.2"/>
      <path id="side_023" style="fill:none;stroke:#000000;stroke-width:0.0508" d="M 181.3 153.2 L 177.325 153.2 L 177.325 156.2 L 171.225 156.2 L 171.225 153.2 L 164.3 153.2 L 164.3 156.2 L 158.2 156.2 L 158.2 153.2 L 151.275 153.2 L 151.275 156.2 L 145.175 156.2 L 145.175 153.2 L 141.2 153.2"/>
      <path id="side_024" style="fill:none;stroke:#000000;stroke-width:0.0508" d="M 141.2 153.2 L 141.2 149.794 L 138.2 149.794 L 138.2 143.694 L 141.2 143.694 L 141.2 137.339 L 138.2 137.339 L 138.2 131.239 L 141.2 131.239 L 141.2 124.883 L 138.2 124.883 L 138.2 118.783 L 141.2 118.783 L 141.2 112.428 L 138.2 112.428 L 138.2 106.328 L 141.2 106.328 L 141.2 99.9722 L 138.2 99.9722 L 138.2 93.8722 L 141.2 93.8722 L 141.2 87.5167 L 138.2 87.5167 L 138.2 81.4167 L 141.2 81.4167 L 141.2 75.0611 L 138.2 75.0611 L 138.2 68.9611 L 141.2 68.9611 L 141.2 62.6056 L 138.2 62.6056 L 138.2 56.5056 L 141.2 56.5056 L 141.2 53.1"/>
    </g>
    <g id="piece_005">
      <path id="side_025" style="fill:none;stroke:#000000;stroke-width:0.0508" d="M 186.3 50.1 L 193.507 50.1 L 193.507 53.1 L 199.407 53.1 L 199.407 50.1 L 206.664 50.1 L 206.664 53.1 L 212.564 53.1 L 212.564 50.1 L 219.821 50.1 L 219.821 53.1 L 225.721 53.1 L 225.721 50.1 L 232.979 50.1 L 232.979 53.1 L 238.879 53.1 L 238.879 50.1 L 246.136 50.1 L 246.136 53.1 L 252.036 53.1 L 252.036 50.1 L 259.293 50.1 L 259.293 53.1 L 265.193 53.1 L 265.193 50.1 L 272.4 50.1"/>
      <path id="hole_026" style="fill:none;stroke:#000000;stroke-width:0.0508" d="M 193.507 104.6 L 199.407 104.6 L 199.407 101.7 L 193.507 101.7 L 193.507 104.6 Z"/>
      <path id="hole_027" style="fill:none;stroke:#000000;stroke-width:0.0508" d="M 206.664 104.6 L 212.564 104.6 L 212.564 101.7 L 206.664 101.7 L 206.664 104.6 Z"/>
      <path id="hole_028" style="fill:none;stroke:#000000;stroke-width:0.0508" d="M 219.821 104.6 L 225.721 104.6 L 225.721 101.7 L 219.821 101.7 L 219.821 104.6 Z"/>
      <path id="hole_029" style="fill:none;stroke:#000000;stroke-width:0.0508" d="M 232.979 104.6 L 238.879 104.6 L 238.879 101.7 L 232.979 101.7 L 232.979 104.6 Z"/>
      <path id="hole_030" style="fill:none;stroke:#000000;stroke-width:0.0508" d="M 246.136 104.6 L 252.036 104.6 L 252.036 101.7 L 246.136 101.7 L 246.136 104.6 Z"/>
      <path id="hole_031" style="fill:none;stroke:#000000;stroke-width:0.0508" d="M 259.293 104.6 L 265.193 104.6 L 265.193 101.7 L 259.293 101.7 L 259.293 104.6 Z"/>
      <path id="side_026" style="fill:none;stroke:#000000;stroke-width:0.0508" d="M 272.4 50.1 L 272.4 56.6056 L 269.4 56.6056 L 269.4 62.5056 L 272.4 62.5056 L 272.4 69.0611 L 269.4 69.0611 L 269.4 74.9611 L 272.4 74.9611 L 272.4 81.5167 L 269.4 81.5167 L 269.4 87.4167 L 272.4 87.4167 L 272.4 93.9722 L 269.4 93.9722 L 269.4 99.8722 L 272.4 99.8722 L 272.4 106.428 L 269.4 106.428 L 269.4 112.328 L 272.4 112.328 L 272.4 118.883 L 269.4 118.883 L 269.4 124.783 L 272.4 124.783 L 272.4 131.339 L 269.4 131.339 L 269.4 137.239 L 272.4 137.239 L 272.4 143.794 L 269.4 143.794 L 269.4 149.694 L 272.4 149.694 L 272.4 156.2"/>
      <path id="hole_032" style="fill:none;stroke:#000000;stroke-width:0.0508" d="M 227.9 56.6056 L 227.9 62.5056 L 230.8 62.5056 L 230.8 56.6056 L 227.9 56.6056 Z"/>
      <path id="hole_033" style="fill:none;stroke:#000000;stroke-width:0.0508" d="M 227.9 69.0611 L 227.9 74.9611 L 230.8 74.9611 L 230.8 69.0611 L 227.9 69.0611 Z"/>
      <path id="hole_034" style="fill:none;stroke:#000000;stroke-width:0.0508" d="M 227.9 81.5167 L 227.9 87.4167 L 230.8 87.4167 L 230.8 81.5167 L 227.9 81.5167 Z"/>
      <path id="hole_035" style="fill:none;stroke:#000000;stroke-width:0.0508" d="M 227.9 93.9722 L 227.9 99.8722 L 230.8 99.8722 L 230.8 93.9722 L 227.9 93.9722 Z"/>
      <path id="hole_036" style="fill:none;stroke:#000000;stroke-width:0.0508" d="M 227.9 106.428 L 227.9 112.328 L 230.8 112.328 L 230.8 106.428 L 227.9 106.428 Z"/>
      <path id="hole_037" style="fill:none;stroke:#000000;stroke-width:0.0508" d="M 227.9 118.883 L 227.9 124.783 L 230.8 124.783 L 230.8 118.883 L 227.9 118.883 Z"/>
      <path id="hole_038" style="fill:none;stroke:#000000;stroke-width:0.0508" d="M 227.9 131.339 L 227.9 137.239 L 230.8 137.239 L 230.8 131.339 L 227.9 131.339 Z"/>
      <path id="hole_039" style="fill:none;stroke:#000000;stroke-width:0.0508" d="M 227.9 143.794 L 227.9 149.694 L 230.8 149.694 L 230.8 143.794 L 227.9 143.794 Z"/>
      <path id="side_027" style="fill:none;stroke:#000000;stroke-width:0.0508" d="M 272.4 156.2 L 265.193 156.2 L 265.193 153.2 L 259.293 153.2 L 259.293 156.2 L 252.036 156.2 L 252.036 153.2 L 246.136 153.2 L 246.136 156.2 L 238.879 156.2 L 238.879 153.2 L 232.979 153.2 L 232.979 156.2 L 225.721 156.2 L 225.721 153.2 L 219.821 153.2 L 219.821 156.2 L 212.564 156.2 L 212.564 153.2 L 206.664 153.2 L 206.664 156.2 L 199.407 156.2 L 199.407 153.2 L 193.507 153.2 L 193.507 156.2 L 186.3 156.2"/>
      <path id="side_028" style="fill:none;stroke:#000000;stroke-width:0.0508" d="M 186.3 156.2 L 186.3 149.694 L 189.3 149.694 L 189.3 143.794 L 186.3 143.794 L 186.3 137.239 L 189.3 137.239 L 189.3 131.339 L 186.3 131.339 L 186.3 124.783 L 189.3 124.783 L 189.3 118.883 L 186.3 118.883 L 186.3 112.328 L 189.3 112.328 L 189.3 106.428 L 186.3 106.428 L 186.3 99.8722 L 189.3 99.8722 L 189.3 93.9722 L 186.3 93.9722 L 186.3 87.4167 L 189.3 87.4167 L 189.3 81.5167 L 186.3 81.5167 L 186.3 74.9611 L 189.3 74.9611 L 189.3 69.0611 L 186.3 69.0611 L 186.3 62.5056 L 189.3 62.5056 L 189.3 56.6056 L 186.3 56.6056 L 186.3 50.1"/>
    </g>
    <g id="piece_006">
      <path id="side_029" style="fill:none;stroke:#000000;stroke-width:0.0508" d="M 50.1 5 L 57.2071 5 L 57.2071 2 L 63.3071 2 L 63.3071 5 L 70.3643 5 L 70.3643 2 L 76.4643 2 L 76.4643 5 L 83.5214 5 L 83.5214 2 L 89.6214 2 L 89.6214 5 L 96.6786 5 L 96.6786 2 L 102.779 2 L 102.779 5 L 109.836 5 L 109.836 2 L 115.936 2 L 115.936 5 L 122.993 5 L 122.993 2 L 129.093 2 L 129.093 5 L 136.2 5"/>
      <path id="side_030" style="fill:none;stroke:#000000;stroke-width:0.0508" d="M 136.2 5 L 136.2 9.075 L 133.2 9.075 L 133.2 14.975 L 136.2 14.975 L 136.2 22.1 L 133.2 22.1 L 133.2 28 L 136.2 28 L 136.2 35.125 L 133.2 35.125 L 133.2 41.025 L 136.2 41.025 L 136.2 45.1"/>
      <path id="hole_040" style="fill:none;stroke:#000000;stroke-width:0.0508" d="M 91.7 9.075 L 91.7 14.975 L 94.6 14.975 L 94.6 9.075 L 91.7 9.075 Z"/>
      <path id="hole_041" style="fill:none;stroke:#000000;stroke-width:0.0508" d="M 91.7 22.1 L 91.7 28 L 94.6 28 L 94.6 22.1 L 91.7 22.1 Z"/>
      <path id="hole_042" style="fill:none;stroke:#000000;stroke-width:0.0508" d="M 91.7 35.125 L 91.7 41.025 L 94.6 41.025 L 94.6 35.125 L 91.7 35.125 Z"/>
      <path id="side_031" style="fill:none;stroke:#000000;stroke-width:0.0508" d="M 136.2 45.1 L 129.093 45.1 L 129.093 48.1 L 122.993 48.1 L 122.993 45.1 L 115.936 45.1 L 115.936 48.1 L 109.836 48.1 L 109.836 45.1 L 102.779 45.1 L 102.779 48.1 L 96.6786 48.1 L 96.6786 45.1 L 89.6214 45.1 L 89.6214 48.1 L 83.5214 48.1 L 83.5214 45.1 L 76.4643 45.1 L 76.4643 48.1 L 70.3643 48.1 L 70.3643 45.1 L 63.3071 45.1 L 63.3071 48.1 L 57.2071 48.1 L 57.2071 45.1 L 50.1 45.1"/>
      <path id="side_032" style="fill:none;stroke:#000000;stroke-width:0.0508" d="M 50.1 45.1 L 50.1 41.025 L 53.1 41.025 L 53.1 35.125 L 50.1 35.125 L 50.1 28 L 53.1 28 L 53.1 22.1 L 50.1 22.1 L 50.1 14.975 L 53.1 14.975 L 53.1 9.075 L 50.1 9.075 L 50.1 5"/>
    </g>
  </g>
</svg>