<!-- Created with Inkscape (http://www.inkscape.org/) -->
<svg xmlns:inkscape="http://www.inkscape.org/namespaces/inkscape" xmlns:sodipodi="http://sodipodi.sourceforge.net/DTD/sodipodi-0.dtd" xmlns="http://www.w3.org/2000/svg" xmlns:svg="http://www.w3.org/2000/svg" width="210mm" height="297mm" viewBox="0 0 210 297" version="1.1" id="svg5" inkscape:version="1.1.2 (0a00cf5339, 2022-02-04)" sodipodi:docname="blank.svg">
  <sodipodi:namedview id="namedview7" pagecolor="#ffffff" bordercolor="#666666" borderopacity="1.0" inkscape:pageshadow="2" inkscape:pageopacity="0.0" inkscape:pagecheckerboard="0" inkscape:document-units="mm" showgrid="false" inkscape:zoom="0.64052329" inkscape:cx="397.33138" inkscape:cy="561.25984" inkscape:window-width="2086" inkscape:window-height="1376" inkscape:window-x="0" inkscape:window-y="0" inkscape:window-maximized="1" inkscape:current-layer="layer1"/>
  <defs id="defs2"/>
  <g inkscape:label="Layer 1" inkscape:groupmode="layer" id="layer1">
    <g id="piece_001">
      <path id="side_002" style="fill:none;stroke:#000000;stroke-width:1" d="M 92.5 166.375 L 92.5 171.875 L 95 171.875 L 95 166.375 L 92.5 166.375 Z"/>
      <path id="side_003" style="fill:none;stroke:#000000;stroke-width:1" d="M 92.5 179.5 L 92.5 185 L 95 185 L 95 179.5 L 92.5 179.5"/>
      <path id="side_004" style="fill:none;stroke:#000000;stroke-width:1" d="M 92.5 192.625 L 92.5 198.125 L 95 198.125 L 95 192.625 L 92.5 192.625"/>
      <path id="side_007" style="fill:none;stroke:#000000;stroke-width:1" d="M 50.5 162 L 57.4643 162 L 57.4643 159 L 63.9643 159 L 63.9643 162 L 70.6786 162 L 70.6786 159 L 77.1786 159 L 77.1786 162 L 83.8929 162 L 83.8929 159 L 90.3929 159 L 90.3929 162 L 97.1071 162 L 97.1071 159 L 103.607 159 L 103.607 162 L 110.321 162 L 110.321 159 L 116.821 159 L 116.821 162 L 123.536 162 L 123.536 159 L 130.036 159 L 130.036 162 L 137 162 L 137 166.375 L 134 166.375 L 134 171.875 L 137 171.875 L 137 179.5 L 134 179.5 L 134 185 L 137 185 L 137 192.625 L 134 192.625 L 134 198.125 L 137 198.125 L 137 202.5 L 130.036 202.5 L 130.036 205.5 L 123.536 205.5 L 123.536 202.5 L 116.821 202.5 L 116.821 205.5 L 110.321 205.5 L 110.321 202.5 L 103.607 202.5 L 103.607 205.5 L 97.1071 205.5 L 97.1071 202.5 L 90.3929 202.5 L 90.3929 205.5 L 83.8929 205.5 L 83.8929 202.5 L 77.1786 202.5 L 77.1786 205.5 L 70.6786 205.5 L 70.6786 202.5 L 63.9643 202.5 L 63.9643 205.5 L 57.4643 205.5 L 57.4643 202.5 L 50.5 202.5 L 50.5 198.125 L 53.5 198.125 L 53.5 192.625 L 50.5 192.625 L 50.5 185 L 53.5 185 L 53.5 179.5 L 50.5 179.5 L 50.5 171.875 L 53.5 171.875 L 53.5 166.375 L 50.5 166.375 L 50.5 162"/>
    </g>
    <g id="piece_002">
      <path id="side_009" style="fill:none;stroke:#000000;stroke-width:1" d="M 42 207.5 L 42 230.5 L 44.5 230.5 L 44.5 207.5 L 42 207.5 Z"/>
      <path id="side_012" style="fill:none;stroke:#000000;stroke-width:1" d="M 0 210.5 L 6.96429 210.5 L 6.96429 207.5 L 13.4643 207.5 L 13.4643 210.5 L 20.1786 210.5 L 20.1786 207.5 L 26.6786 207.5 L 26.6786 210.5 L 33.3929 210.5 L 33.3929 207.5 L 39.8929 207.5 L 39.8929 210.5 L 46.6071 210.5 L 46.6071 207.5 L 53.1071 207.5 L 53.1071 210.5 L 59.8214 210.5 L 59.8214 207.5 L 66.3214 207.5 L 66.3214 210.5 L 73.0357 210.5 L 73.0357 207.5 L 79.5357 207.5 L 79.5357 210.5 L 86.5 210.5 L 86.5 214.875 L 83.5 214.875 L 83.5 220.375 L 86.5 220.375 L 86.5 228 L 83.5 228 L 83.5 233.5 L 86.5 233.5 L 86.5 241.125 L 83.5 241.125 L 83.5 246.625 L 86.5 246.625 L 86.5 251 L 79.5357 251 L 79.5357 254 L 73.0357 254 L 73.0357 251 L 66.3214 251 L 66.3214 254 L 59.8214 254 L 59.8214 251 L 53.1071 251 L 53.1071 254 L 46.6071 254 L 46.6071 251 L 39.8929 251 L 39.8929 254 L 33.3929 254 L 33.3929 251 L 26.6786 251 L 26.6786 254 L 20.1786 254 L 20.1786 251 L 13.4643 251 L 13.4643 254 L 6.96429 254 L 6.96429 251 L 0 251 L 0 246.625 L 3 246.625 L 3 241.125 L 0 241.125 L 0 233.5 L 3 233.5 L 3 228 L 0 228 L 0 220.375 L 3 220.375 L 3 214.875 L 0 214.875 L 0 210.5"/>
    </g>
    <g id="piece_003">
      <path id="side_013" style="fill:none;stroke:#000000;stroke-width:1" d="M 5 105 L 8.875 105 L 8.875 102.5 L 5 102.5 L 5 105 Z"/>
      <path id="side_014" style="fill:none;stroke:#000000;stroke-width:1" d="M 15.375 105 L 22 105 L 22 102.5 L 15.375 102.5 L 15.375 105"/>
      <path id="side_015" style="fill:none;stroke:#000000;stroke-width:1" d="M 28.5 105 L 35.125 105 L 35.125 102.5 L 28.5 102.5 L 28.5 105"/>
      <path id="side_016" style="fill:none;stroke:#000000;stroke-width:1" d="M 41.625 102.5 L 45.5 102.5 L 45.5 105 L 41.625 105 L 41.625 102.5"/>
      <path id="side_020" style="fill:none;stroke:#000000;stroke-width:1" d="M 5 53.5 L 8.875 53.5 L 8.875 50.5 L 15.375 50.5 L 15.375 53.5 L 22 53.5 L 22 50.5 L 28.5 50.5 L 28.5 53.5 L 35.125 53.5 L 35.125 50.5 L 41.625 50.5 L 41.625 53.5 L 45.5 53.5 L 45.5 56.75 L 48.5 56.75 L 48.5 63.25 L 45.5 63.25 L 45.5 69.25 L 48.5 69.25 L 48.5 75.75 L 45.5 75.75 L 45.5 81.75 L 48.5 81.75 L 48.5 88.25 L 45.5 88.25 L 45.5 94.25 L 48.5 94.25 L 48.5 100.75 L 45.5 100.75 L 45.5 106.75 L 48.5 106.75 L 48.5 113.25 L 45.5 113.25 L 45.5 119.25 L 48.5 119.25 L 48.5 125.75 L 45.5 125.75 L 45.5 131.75 L 48.5 131.75 L 48.5 138.25 L 45.5 138.25 L 45.5 144.25 L 48.5 144.25 L 48.5 150.75 L 45.5 150.75 L 45.5 154 L 41.625 154 L 41.625 157 L 35.125 157 L 35.125 154 L 28.5 154 L 28.5 157 L 22 157 L 22 154 L 15.375 154 L 15.375 157 L 8.875 157 L 8.875 154 L 5 154 L 5 150.75 L 2 150.75 L 2 144.25 L 5 144.25 L 5 138.25 L 2 138.25 L 2 131.75 L 5 131.75 L 5 125.75 L 2 125.75 L 2 119.25 L 5 119.25 L 5 113.25 L 2 113.25 L 2 106.75 L 5 106.75 L 5 100.75 L 2 100.75 L 2 94.25 L 5 94.25 L 5 88.25 L 2 88.25 L 2 81.75 L 5 81.75 L 5 75.75 L 2 75.75 L 2 69.25 L 5 69.25 L 5 63.25 L 2 63.25 L 2 56.75 L 5 56.75 L 5 53.5"/>
    </g>
    <g id="piece_004">
      <path id="side_021" style="fill:none;stroke:#000000;stroke-width:1" d="M 0 308 L 23.5 308 L 23.5 310.5 L 0 310.5 L 0 308 Z"/>
      <path id="side_025" style="fill:none;stroke:#000000;stroke-width:1" d="M 3 259 L 6.875 259 L 6.875 256 L 13.375 256 L 13.375 259 L 20 259 L 20 256 L 26.5 256 L 26.5 259 L 33.125 259 L 33.125 256 L 39.625 256 L 39.625 259 L 43.5 259 L 43.5 262.25 L 46.5 262.25 L 46.5 268.75 L 43.5 268.75 L 43.5 274.75 L 46.5 274.75 L 46.5 281.25 L 43.5 281.25 L 43.5 287.25 L 46.5 287.25 L 46.5 293.75 L 43.5 293.75 L 43.5 299.75 L 46.5 299.75 L 46.5 306.25 L 43.5 306.25 L 43.5 312.25 L 46.5 312.25 L 46.5 318.75 L 43.5 318.75 L 43.5 324.75 L 46.5 324.75 L 46.5 331.25 L 43.5 331.25 L 43.5 337.25 L 46.5 337.25 L 46.5 343.75 L 43.5 343.75 L 43.5 349.75 L 46.5 349.75 L 46.5 356.25 L 43.5 356.25 L 43.5 359.5 L 39.625 359.5 L 39.625 362.5 L 33.125 362.5 L 33.125 359.5 L 26.5 359.5 L 26.5 362.5 L 20 362.5 L 20 359.5 L 13.375 359.5 L 13.375 362.5 L 6.875 362.5 L 6.875 359.5 L 3 359.5 L 3 356.25 L 0 356.25 L 0 349.75 L 3 349.75 L 3 343.75 L 0 343.75 L 0 337.25 L 3 337.25 L 3 331.25 L 0 331.25 L 0 324.75 L 3 324.75 L 3 318.75 L 0 318.75 L 0 312.25 L 3 312.25 L 3 306.25 L 0 306.25 L 0 299.75 L 3 299.75 L 3 293.75 L 0 293.75 L 0 287.25 L 3 287.25 L 3 281.25 L 0 281.25 L 0 274.75 L 3 274.75 L 3 268.75 L 0 268.75 L 0 262.25 L 3 262.25 L 3 259"/>
    </g>
    <g id="piece_005">
      <path id="side_026" style="fill:none;stroke:#000000;stroke-width:1" d="M 57.9643 105 L 63.4643 105 L 63.4643 102.5 L 57.9643 102.5 L 57.9643 105 Z"/>
      <path id="side_027" style="fill:none;stroke:#000000;stroke-width:1" d="M 71.1786 105 L 76.6786 105 L 76.6786 102.5 L 71.1786 102.5 L 71.1786 105"/>
      <path id="side_028" style="fill:none;stroke:#000000;stroke-width:1" d="M 84.3929 105 L 89.8929 105 L 89.8929 102.5 L 84.3929 102.5 L 84.3929 105"/>
      <path id="side_029" style="fill:none;stroke:#000000;stroke-width:1" d="M 97.6071 105 L 103.107 105 L 103.107 102.5 L 97.6071 102.5 L 97.6071 105"/>
      <path id="side_030" style="fill:none;stroke:#000000;stroke-width:1" d="M 110.821 105 L 116.321 105 L 116.321 102.5 L 110.821 102.5 L 110.821 105"/>
      <path id="side_031" style="fill:none;stroke:#000000;stroke-width:1" d="M 124.036 105 L 129.536 105 L 129.536 102.5 L 124.036 102.5 L 124.036 105"/>
      <path id="side_033" style="fill:none;stroke:#000000;stroke-width:1" d="M 92.5 57.25 L 92.5 62.75 L 95 62.75 L 95 57.25 L 92.5 57.25"/>
      <path id="side_034" style="fill:none;stroke:#000000;stroke-width:1" d="M 92.5 69.75 L 92.5 75.25 L 95 75.25 L 95 69.75 L 92.5 69.75"/>
      <path id="side_035" style="fill:none;stroke:#000000;stroke-width:1" d="M 92.5 82.25 L 92.5 87.75 L 95 87.75 L 95 82.25 L 92.5 82.25"/>
      <path id="side_036" style="fill:none;stroke:#000000;stroke-width:1" d="M 92.5 94.75 L 92.5 100.25 L 95 100.25 L 95 94.75 L 92.5 94.75"/>
      <path id="side_037" style="fill:none;stroke:#000000;stroke-width:1" d="M 92.5 107.25 L 92.5 112.75 L 95 112.75 L 95 107.25 L 92.5 107.25"/>
      <path id="side_038" style="fill:none;stroke:#000000;stroke-width:1" d="M 92.5 119.75 L 92.5 125.25 L 95 125.25 L 95 119.75 L 92.5 119.75"/>
      <path id="side_039" style="fill:none;stroke:#000000;stroke-width:1" d="M 92.5 132.25 L 92.5 137.75 L 95 137.75 L 95 132.25 L 92.5 132.25"/>
      <path id="side_040" style="fill:none;stroke:#000000;stroke-width:1" d="M 92.5 144.75 L 92.5 150.25 L 95 150.25 L 95 144.75 L 92.5 144.75"/>
      <path id="side_043" style="fill:none;stroke:#000000;stroke-width:1" d="M 50.5 50.5 L 57.9643 50.5 L 57.9643 53.5 L 63.4643 53.5 L 63.4643 50.5 L 71.1786 50.5 L 71.1786 53.5 L 76.6786 53.5 L 76.6786 50.5 L 84.3929 50.5 L 84.3929 53.5 L 89.8929 53.5 L 89.8929 50.5 L 97.6071 50.5 L 97.6071 53.5 L 103.107 53.5 L 103.107 50.5 L 110.821 50.5 L 110.821 53.5 L 116.321 53.5 L 116.321 50.5 L 124.036 50.5 L 124.036 53.5 L 129.536 53.5 L 129.536 50.5 L 137 50.5 L 137 57.25 L 134 57.25 L 134 62.75 L 137 62.75 L 137 69.75 L 134 69.75 L 134 75.25 L 137 75.25 L 137 82.25 L 134 82.25 L 134 87.75 L 137 87.75 L 137 94.75 L 134 94.75 L 134 100.25 L 137 100.25 L 137 107.25 L 134 107.25 L 134 112.75 L 137 112.75 L 137 119.75 L 134 119.75 L 134 125.25 L 137 125.25 L 137 132.25 L 134 132.25 L 134 137.75 L 137 137.75 L 137 144.75 L 134 144.75 L 134 150.25 L 137 150.25 L 137 157 L 129.536 157 L 129.536 154 L 124.036 154 L 124.036 157 L 116.321 157 L 116.321 154 L 110.821 154 L 110.821 157 L 103.107 157 L 103.107 154 L 97.6071 154 L 97.6071 157 L 89.8929 157 L 89.8929 154 L 84.3929 154 L 84.3929 157 L 76.6786 157 L 76.6786 154 L 71.1786 154 L 71.1786 157 L 63.4643 157 L 63.4643 154 L 57.9643 154 L 57.9643 157 L 50.5 157 L 50.5 150.25 L 53.5 150.25 L 53.5 144.75 L 50.5 144.75 L 50.5 137.75 L 53.5 137.75 L 53.5 132.25 L 50.5 132.25 L 50.5 125.25 L 53.5 125.25 L 53.5 119.75 L 50.5 119.75 L 50.5 112.75 L 53.5 112.75 L 53.5 107.25 L 50.5 107.25 L 50.5 100.25 L 53.5 100.25 L 53.5 94.75 L 50.5 94.75 L 50.5 87.75 L 53.5 87.75 L 53.5 82.25 L 50.5 82.25 L 50.5 75.25 L 53.5 75.25 L 53.5 69.75 L 50.5 69.75 L 50.5 62.75 L 53.5 62.75 L 53.5 57.25 L 50.5 57.25 L 50.5 50.5"/>
    </g>
    <g id="piece_006">
      <path id="side_044" style="fill:none;stroke:#000000;stroke-width:1" d="M 142 105 L 145.875 105 L 145.875 102.5 L 142 102.5 L 142 105 Z"/>
      <path id="side_045" style="fill:none;stroke:#000000;stroke-width:1" d="M 152.375 105 L 159 105 L 159 102.5 L 152.375 102.5 L 152.375 105"/>
      <path id="side_046" style="fill:none;stroke:#000000;stroke-width:1" d="M 165.5 105 L 172.125 105 L 172.125 102.5 L 165.5 102.5 L 165.5 105"/>
      <path id="side_047" style="fill:none;stroke:#000000;stroke-width:1" d="M 178.625 102.5 L 182.5 102.5 L 182.5 105 L 178.625 105 L 178.625 102.5"/>
      <path id="side_051" style="fill:none;stroke:#000000;stroke-width:1" d="M 142 53.5 L 145.875 53.5 L 145.875 50.5 L 152.375 50.5 L 152.375 53.5 L 159 53.5 L 159 50.5 L 165.5 50.5 L 165.5 53.5 L 172.125 53.5 L 172.125 50.5 L 178.625 50.5 L 178.625 53.5 L 182.5 53.5 L 182.5 56.75 L 185.5 56.75 L 185.5 63.25 L 182.5 63.25 L 182.5 69.25 L 185.5 69.25 L 185.5 75.75 L 182.5 75.75 L 182.5 81.75 L 185.5 81.75 L 185.5 88.25 L 182.5 88.25 L 182.5 94.25 L 185.5 94.25 L 185.5 100.75 L 182.5 100.75 L 182.5 106.75 L 185.5 106.75 L 185.5 113.25 L 182.5 113.25 L 182.5 119.25 L 185.5 119.25 L 185.5 125.75 L 182.5 125.75 L 182.5 131.75 L 185.5 131.75 L 185.5 138.25 L 182.5 138.25 L 182.5 144.25 L 185.5 144.25 L 185.5 150.75 L 182.5 150.75 L 182.5 154 L 178.625 154 L 178.625 157 L 172.125 157 L 172.125 154 L 165.5 154 L 165.5 157 L 159 157 L 159 154 L 152.375 154 L 152.375 157 L 145.875 157 L 145.875 154 L 142 154 L 142 150.75 L 139 150.75 L 139 144.25 L 142 144.25 L 142 138.25 L 139 138.25 L 139 131.75 L 142 131.75 L 142 125.75 L 139 125.75 L 139 119.25 L 142 119.25 L 142 113.25 L 139 113.25 L 139 106.75 L 142 106.75 L 142 100.75 L 139 100.75 L 139 94.25 L 142 94.25 L 142 88.25 L 139 88.25 L 139 81.75 L 142 81.75 L 142 75.75 L 139 75.75 L 139 69.25 L 142 69.25 L 142 63.25 L 139 63.25 L 139 56.75 L 142 56.75 L 142 53.5"/>
    </g>
    <g id="piece_007">
      <path id="side_052" style="fill:none;stroke:#000000;stroke-width:1" d="M 194.964 105 L 200.464 105 L 200.464 102.5 L 194.964 102.5 L 194.964 105 Z"/>
      <path id="side_053" style="fill:none;stroke:#000000;stroke-width:1" d="M 208.179 105 L 213.679 105 L 213.679 102.5 L 208.179 102.5 L 208.179 105"/>
      <path id="side_054" style="fill:none;stroke:#000000;stroke-width:1" d="M 221.393 105 L 226.893 105 L 226.893 102.5 L 221.393 102.5 L 221.393 105"/>
      <path id="side_055" style="fill:none;stroke:#000000;stroke-width:1" d="M 234.607 105 L 240.107 105 L 240.107 102.5 L 234.607 102.5 L 234.607 105"/>
      <path id="side_056" style="fill:none;stroke:#000000;stroke-width:1" d="M 247.821 105 L 253.321 105 L 253.321 102.5 L 247.821 102.5 L 247.821 105"/>
      <path id="side_057" style="fill:none;stroke:#000000;stroke-width:1" d="M 261.036 105 L 266.536 105 L 266.536 102.5 L 261.036 102.5 L 261.036 105"/>
      <path id="side_059" style="fill:none;stroke:#000000;stroke-width:1" d="M 229.5 57.25 L 229.5 62.75 L 232 62.75 L 232 57.25 L 229.5 57.25"/>
      <path id="side_060" style="fill:none;stroke:#000000;stroke-width:1" d="M 229.5 69.75 L 229.5 75.25 L 232 75.25 L 232 69.75 L 229.5 69.75"/>
      <path id="side_061" style="fill:none;stroke:#000000;stroke-width:1" d="M 229.5 82.25 L 229.5 87.75 L 232 87.75 L 232 82.25 L 229.5 82.25"/>
      <path id="side_062" style="fill:none;stroke:#000000;stroke-width:1" d="M 229.5 94.75 L 229.5 100.25 L 232 100.25 L 232 94.75 L 229.5 94.75"/>
      <path id="side_063" style="fill:none;stroke:#000000;stroke-width:1" d="M 229.5 107.25 L 229.5 112.75 L 232 112.75 L 232 107.25 L 229.5 107.25"/>
      <path id="side_064" style="fill:none;stroke:#000000;stroke-width:1" d="M 229.5 119.75 L 229.5 125.25 L 232 125.25 L 232 119.75 L 229.5 119.75"/>
      <path id="side_065" style="fill:none;stroke:#000000;stroke-width:1" d="M 229.5 132.25 L 229.5 137.75 L 232 137.75 L 232 132.25 L 229.5 132.25"/>
      <path id="side_066" style="fill:none;stroke:#000000;stroke-width:1" d="M 229.5 144.75 L 229.5 150.25 L 232 150.25 L 232 144.75 L 229.5 144.75"/>
      <path id="side_069" style="fill:none;stroke:#000000;stroke-width:1" d="M 187.5 50.5 L 194.964 50.5 L 194.964 53.5 L 200.464 53.5 L 200.464 50.5 L 208.179 50.5 L 208.179 53.5 L 213.679 53.5 L 213.679 50.5 L 221.393 50.5 L 221.393 53.5 L 226.893 53.5 L 226.893 50.5 L 234.607 50.5 L 234.607 53.5 L 240.107 53.5 L 240.107 50.5 L 247.821 50.5 L 247.821 53.5 L 253.321 53.5 L 253.321 50.5 L 261.036 50.5 L 261.036 53.5 L 266.536 53.5 L 266.536 50.5 L 274 50.5 L 274 57.25 L 271 57.25 L 271 62.75 L 274 62.75 L 274 69.75 L 271 69.75 L 271 75.25 L 274 75.25 L 274 82.25 L 271 82.25 L 271 87.75 L 274 87.75 L 274 94.75 L 271 94.75 L 271 100.25 L 274 100.25 L 274 107.25 L 271 107.25 L 271 112.75 L 274 112.75 L 274 119.75 L 271 119.75 L 271 125.25 L 274 125.25 L 274 132.25 L 271 132.25 L 271 137.75 L 274 137.75 L 274 144.75 L 271 144.75 L 271 150.25 L 274 150.25 L 274 157 L 266.536 157 L 266.536 154 L 261.036 154 L 261.036 157 L 253.321 157 L 253.321 154 L 247.821 154 L 247.821 157 L 240.107 157 L 240.107 154 L 234.607 154 L 234.607 157 L 226.893 157 L 226.893 154 L 221.393 154 L 221.393 157 L 213.679 157 L 213.679 154 L 208.179 154 L 208.179 157 L 200.464 157 L 200.464 154 L 194.964 154 L 194.964 157 L 187.5 157 L 187.5 150.25 L 190.5 150.25 L 190.5 144.75 L 187.5 144.75 L 187.5 137.75 L 190.5 137.75 L 190.5 132.25 L 187.5 132.25 L 187.5 125.25 L 190.5 125.25 L 190.5 119.75 L 187.5 119.75 L 187.5 112.75 L 190.5 112.75 L 190.5 107.25 L 187.5 107.25 L 187.5 100.25 L 190.5 100.25 L 190.5 94.75 L 187.5 94.75 L 187.5 87.75 L 190.5 87.75 L 190.5 82.25 L 187.5 82.25 L 187.5 75.25 L 190.5 75.25 L 190.5 69.75 L 187.5 69.75 L 187.5 62.75 L 190.5 62.75 L 190.5 57.25 L 187.5 57.25 L 187.5 50.5"/>
    </g>
    <g id="piece_008">
      <path id="side_071" style="fill:none;stroke:#000000;stroke-width:1" d="M 92.5 9.375 L 92.5 14.875 L 95 14.875 L 95 9.375 L 92.5 9.375 Z"/>
      <path id="side_072" style="fill:none;stroke:#000000;stroke-width:1" d="M 92.5 22.5 L 92.5 28 L 95 28 L 95 22.5 L 92.5 22.5"/>
      <path id="side_073" style="fill:none;stroke:#000000;stroke-width:1" d="M 92.5 35.625 L 92.5 41.125 L 95 41.125 L 95 35.625 L 92.5 35.625"/>
      <path id="side_076" style="fill:none;stroke:#000000;stroke-width:1" d="M 50.5 5 L 57.4643 5 L 57.4643 2 L 63.9643 2 L 63.9643 5 L 70.6786 5 L 70.6786 2 L 77.1786 2 L 77.1786 5 L 83.8929 5 L 83.8929 2 L 90.3929 2 L 90.3929 5 L 97.1071 5 L 97.1071 2 L 103.607 2 L 103.607 5 L 110.321 5 L 110.321 2 L 116.821 2 L 116.821 5 L 123.536 5 L 123.536 2 L 130.036 2 L 130.036 5 L 137 5 L 137 9.375 L 134 9.375 L 134 14.875 L 137 14.875 L 137 22.5 L 134 22.5 L 134 28 L 137 28 L 137 35.625 L 134 35.625 L 134 41.125 L 137 41.125 L 137 45.5 L 130.036 45.5 L 130.036 48.5 L 123.536 48.5 L 123.536 45.5 L 116.821 45.5 L 116.821 48.5 L 110.321 48.5 L 110.321 45.5 L 103.607 45.5 L 103.607 48.5 L 97.1071 48.5 L 97.1071 45.5 L 90.3929 45.5 L 90.3929 48.5 L 83.8929 48.5 L 83.8929 45.5 L 77.1786 45.5 L 77.1786 48.5 L 70.6786 48.5 L 70.6786 45.5 L 63.9643 45.5 L 63.9643 48.5 L 57.4643 48.5 L 57.4643 45.5 L 50.5 45.5 L 50.5 41.125 L 53.5 41.125 L 53.5 35.625 L 50.5 35.625 L 50.5 28 L 53.5 28 L 53.5 22.5 L 50.5 22.5 L 50.5 14.875 L 53.5 14.875 L 53.5 9.375 L 50.5 9.375 L 50.5 5"/>
    </g>
  </g>
</svg>