<!-- Created with Inkscape (http://www.inkscape.org/) -->
<svg xmlns:inkscape="http://www.inkscape.org/namespaces/inkscape" xmlns:sodipodi="http://sodipodi.sourceforge.net/DTD/sodipodi-0.dtd" xmlns="http://www.w3.org/2000/svg" xmlns:svg="http://www.w3.org/2000/svg" width="323.5mm" height="255mm" viewBox="0 0 323.5 255" version="1.1" id="svg5" inkscape:version="1.1.2 (0a00cf5339, 2022-02-04)" sodipodi:docname="blank.svg">
  <sodipodi:namedview id="namedview7" pagecolor="#ffffff" bordercolor="#666666" borderopacity="1.0" inkscape:pageshadow="2" inkscape:pageopacity="0.0" inkscape:pagecheckerboard="0" inkscape:document-units="mm" showgrid="false" inkscape:zoom="0.64052329" inkscape:cx="397.33138" inkscape:cy="561.25984" inkscape:window-width="2086" inkscape:window-height="1376" inkscape:window-x="0" inkscape:window-y="0" inkscape:window-maximized="1" inkscape:current-layer="layer1"/>
  <defs id="defs2"/>
  <g inkscape:label="Layer 1" inkscape:groupmode="layer" id="layer1">
    <metadata text="createArgs=['--unit=mm', '--inside=1', '--length=80', '--width=100', '--depth=40', '--equal=0', '--tab=6', '--tabtype=0', '--tabsymmetry=0', '--dimpleheight=0', '--dimplelength=0', '--hairline=1', '--thickness=3', '--style=1', '--boxtype=1', '--div_l=1', '--div_w=1', '--keydiv=0', '--spacing=2', '--kerf=0.5']"/>
    <path id="piece_001" style="fill:none;stroke:#000000;stroke-width:0.0508" d="M 50.5 166.5 L 53.5 166.5 L 53.5 172 L 50.5 172 L 50.5 179.5 L 53.5 179.5 L 53.5 185 L 50.5 185 L 50.5 192.5 L 53.5 192.5 L 53.5 198 L 50.5 198 L 50.5 202.5 L 57.6429 202.5 L 57.6429 205.5 L 64.1429 205.5 L 64.1429 202.5 L 70.7857 202.5 L 70.7857 205.5 L 77.2857 205.5 L 77.2857 202.5 L 83.9286 202.5 L 83.9286 205.5 L 90.4286 205.5 L 90.4286 202.5 L 97.0714 202.5 L 97.0714 205.5 L 103.571 205.5 L 103.571 202.5 L 110.214 202.5 L 110.214 205.5 L 116.714 205.5 L 116.714 202.5 L 123.357 202.5 L 123.357 205.5 L 129.857 205.5 L 129.857 202.5 L 137 202.5 L 137 198 L 134 198 L 134 192.5 L 137 192.5 L 137 185 L 134 185 L 134 179.5 L 137 179.5 L 137 172 L 134 172 L 134 166.5 L 137 166.5 L 137 162 L 129.857 162 L 129.857 159 L 123.357 159 L 123.357 162 L 116.714 162 L 116.714 159 L 110.214 159 L 110.214 162 L 103.571 162 L 103.571 159 L 97.0714 159 L 97.0714 162 L 90.4286 162 L 90.4286 159 L 83.9286 159 L 83.9286 162 L 77.2857 162 L 77.2857 159 L 70.7857 159 L 70.7857 162 L 64.1429 162 L 64.1429 159 L 57.6429 159 L 57.6429 162 L 50.5 162 L 50.5 166.5 Z M 92.5 166.5 L 95 166.5 L 95 172 L 92.5 172 L 92.5 166.5 Z M 92.5 179.5 L 95 179.5 L 95 185 L 92.5 185 L 92.5 179.5 Z M 92.5 192.5 L 95 192.5 L 95 198 L 92.5 198 L 92.5 192.5 Z"/>
    <path id="xdivider_001" style="fill:none;stroke:#000000;stroke-width:0.0508" d="M 50.5 215 L 53.5 215 L 53.5 220.5 L 50.5 220.5 L 50.5 228 L 53.5 228 L 53.5 233.5 L 50.5 233.5 L 50.5 241 L 53.5 241 L 53.5 246.5 L 50.5 246.5 L 50.5 251 L 57.6429 251 L 57.6429 254 L 64.1429 254 L 64.1429 251 L 70.7857 251 L 70.7857 254 L 77.2857 254 L 77.2857 251 L 83.9286 251 L 83.9286 254 L 90.4286 254 L 90.4286 251 L 97.0714 251 L 97.0714 254 L 103.571 254 L 103.571 251 L 110.214 251 L 110.214 254 L 116.714 254 L 116.714 251 L 123.357 251 L 123.357 254 L 129.857 254 L 129.857 251 L 137 251 L 137 246.5 L 134 246.5 L 134 241 L 137 241 L 137 233.5 L 134 233.5 L 134 228 L 137 228 L 137 220.5 L 134 220.5 L 134 215 L 137 215 L 137 210.5 L 129.857 210.5 L 129.857 207.5 L 123.357 207.5 L 123.357 210.5 L 116.714 210.5 L 116.714 207.5 L 110.214 207.5 L 110.214 210.5 L 103.571 210.5 L 103.571 207.5 L 97.0714 207.5 L 97.0714 210.5 L 95 210.5 L 95 230.5 L 92.5 230.5 L 92.5 210.5 L 90.4286 210.5 L 90.4286 207.5 L 83.9286 207.5 L 83.9286 210.5 L 77.2857 210.5 L 77.2857 207.5 L 70.7857 207.5 L 70.7857 210.5 L 64.1429 210.5 L 64.1429 207.5 L 57.6429 207.5 L 57.6429 210.5 L 50.5 210.5 L 50.5 215 Z"/>
    <path id="piece_002" style="fill:none;stroke:#000000;stroke-width:0.0508" d="M 5 56.944 L 2 56.944 L 2 63.4444 L 5 63.4444 L 5 69.3889 L 2 69.3889 L 2 75.8889 L 5 75.8889 L 5 81.8333 L 2 81.8333 L 2 88.3333 L 5 88.3333 L 5 94.2778 L 2 94.2778 L 2 100.778 L 5 100.778 L 5 106.722 L 2 106.722 L 2 113.222 L 5 113.222 L 5 119.167 L 2 119.167 L 2 125.667 L 5 125.667 L 5 131.611 L 2 131.611 L 2 138.111 L 5 138.111 L 5 144.056 L 2 144.056 L 2 150.556 L 5 150.556 L 5 154 L 9 154 L 9 157 L 15.5 157 L 15.5 154 L 22 154 L 22 157 L 28.5 157 L 28.5 154 L 35 154 L 35 157 L 41.5 157 L 41.5 154 L 45.5 154 L 45.5 150.556 L 48.5 150.556 L 48.5 144.056 L 45.5 144.056 L 45.5 138.111 L 48.5 138.111 L 48.5 131.611 L 45.5 131.611 L 45.5 125.667 L 48.5 125.667 L 48.5 119.167 L 45.5 119.167 L 45.5 113.222 L 48.5 113.222 L 48.5 106.722 L 45.5 106.722 L 45.5 100.778 L 48.5 100.778 L 48.5 94.2778 L 45.5 94.2778 L 45.5 88.3333 L 48.5 88.3333 L 48.5 81.8333 L 45.5 81.8333 L 45.5 75.8889 L 48.5 75.8889 L 48.5 69.3889 L 45.5 69.3889 L 45.5 63.4444 L 48.5 63.4444 L 48.5 56.9444 L 45.5 56.9444 L 45.5 53.5 L 41.5 53.5 L 41.5 50.5 L 35 50.5 L 35 53.5 L 28.5 53.5 L 28.5 50.5 L 22 50.5 L 22 53.5 L 15.5 53.5 L 15.5 50.5 L 9 50.5 L 9 53.5 L 5 53.5 L 5 56.944 Z M 15.5 102 L 22 102 L 22 104.5 L 15.5 104.5 L 15.5 102 Z M 28.5 102 L 35 102 L 35 104.5 L 28.5 104.5 L 28.5 102 Z M 41.5 102 L 45 102 L 45 104.5 L 41.5 104.5 L 41.5 102 Z M 5.25 102 L 9 102 L 9 104.5 L 5.25 104.5 L 5.25 102 Z"/>
    <path id="ydivider_001" style="fill:none;stroke:#000000;stroke-width:0.0508" d="M 279 56.944 L 276 56.944 L 276 63.4444 L 279 63.4444 L 279 69.3889 L 276 69.3889 L 276 75.8889 L 279 75.8889 L 279 81.8333 L 276 81.8333 L 276 88.3333 L 279 88.3333 L 279 94.2778 L 276 94.2778 L 276 100.778 L 279 100.778 L 279 102.5 L 299 102.5 L 299 105 L 279 105 L 279 106.722 L 276 106.722 L 276 113.222 L 279 113.222 L 279 119.167 L 276 119.167 L 276 125.667 L 279 125.667 L 279 131.611 L 276 131.611 L 276 138.111 L 279 138.111 L 279 144.056 L 276 144.056 L 276 150.556 L 279 150.556 L 279 154 L 283 154 L 283 157 L 289.5 157 L 289.5 154 L 296 154 L 296 157 L 302.5 157 L 302.5 154 L 309 154 L 309 157 L 315.5 157 L 315.5 154 L 319.5 154 L 319.5 150.556 L 322.5 150.556 L 322.5 144.056 L 319.5 144.056 L 319.5 138.111 L 322.5 138.111 L 322.5 131.611 L 319.5 131.611 L 319.5 125.667 L 322.5 125.667 L 322.5 119.167 L 319.5 119.167 L 319.5 113.222 L 322.5 113.222 L 322.5 106.722 L 319.5 106.722 L 319.5 100.778 L 322.5 100.778 L 322.5 94.2778 L 319.5 94.2778 L 319.5 88.3333 L 322.5 88.3333 L 322.5 81.8333 L 319.5 81.8333 L 319.5 75.8889 L 322.5 75.8889 L 322.5 69.3889 L 319.5 69.3889 L 319.5 63.4444 L 322.5 63.4444 L 322.5 56.9444 L 319.5 56.9444 L 319.5 53.5 L 315.5 53.5 L 315.5 50.5 L 309 50.5 L 309 53.5 L 302.5 53.5 L 302.5 50.5 L 296 50.5 L 296 53.5 L 289.5 53.5 L 289.5 50.5 L 283 50.5 L 283 53.5 L 279 53.5 L 279 56.944 Z"/>
    <path id="piece_003" style="fill:none;stroke:#000000;stroke-width:0.0508" d="M 50.5 57.4444 L 53.5 57.4444 L 53.5 62.9444 L 50.5 62.9444 L 50.5 69.8889 L 53.5 69.8889 L 53.5 75.3889 L 50.5 75.3889 L 50.5 82.3333 L 53.5 82.3333 L 53.5 87.8333 L 50.5 87.8333 L 50.5 94.7778 L 53.5 94.7778 L 53.5 100.278 L 50.5 100.278 L 50.5 107.222 L 53.5 107.222 L 53.5 112.722 L 50.5 112.722 L 50.5 119.667 L 53.5 119.667 L 53.5 125.167 L 50.5 125.167 L 50.5 132.111 L 53.5 132.111 L 53.5 137.611 L 50.5 137.611 L 50.5 144.556 L 53.5 144.556 L 53.5 150.056 L 50.5 150.056 L 50.5 157 L 58.1429 157 L 58.1429 154 L 63.6429 154 L 63.6429 157 L 71.2857 157 L 71.2857 154 L 76.7857 154 L 76.7857 157 L 84.4286 157 L 84.4286 154 L 89.9286 154 L 89.9286 157 L 97.5714 157 L 97.5714 154 L 103.071 154 L 103.071 157 L 110.714 157 L 110.714 154 L 116.214 154 L 116.214 157 L 123.857 157 L 123.857 154 L 129.357 154 L 129.357 157 L 137 157 L 137 150.056 L 134 150.056 L 134 144.556 L 137 144.556 L 137 137.611 L 134 137.611 L 134 132.111 L 137 132.111 L 137 125.167 L 134 125.167 L 134 119.667 L 137 119.667 L 137 112.722 L 134 112.722 L 134 107.222 L 137 107.222 L 137 100.278 L 134 100.278 L 134 94.7778 L 137 94.7778 L 137 87.8333 L 134 87.8333 L 134 82.3333 L 137 82.3333 L 137 75.3889 L 134 75.3889 L 134 69.8889 L 137 69.8889 L 137 62.9444 L 134 62.9444 L 134 57.4444 L 137 57.4444 L 137 50.5 L 129.357 50.5 L 129.357 53.5 L 123.857 53.5 L 123.857 50.5 L 116.214 50.5 L 116.214 53.5 L 110.714 53.5 L 110.714 50.5 L 103.071 50.5 L 103.071 53.5 L 97.5714 53.5 L 97.5714 50.5 L 89.9286 50.5 L 89.9286 53.5 L 84.4286 53.5 L 84.4286 50.5 L 76.7857 50.5 L 76.7857 53.5 L 71.2857 53.5 L 71.2857 50.5 L 63.6429 50.5 L 63.6429 53.5 L 58.1429 53.5 L 58.1429 50.5 L 50.5 50.5 L 50.5 57.4444 Z M 110.714 102.5 L 116.214 102.5 L 116.214 105 L 110.714 105 L 110.714 102.5 Z M 123.857 102.5 L 129.357 102.5 L 129.357 105 L 123.857 105 L 123.857 102.5 Z M 58.1429 102.5 L 63.6429 102.5 L 63.6429 105 L 58.1429 105 L 58.1429 102.5 Z M 71.2857 102.5 L 76.7857 102.5 L 76.7857 105 L 71.2857 105 L 71.2857 102.5 Z M 84.4286 102.5 L 89.9286 102.5 L 89.9286 105 L 84.4286 105 L 84.4286 102.5 Z M 92.5 107.222 L 95 107.222 L 95 112.722 L 92.5 112.722 L 92.5 107.222 Z M 92.5 119.667 L 95 119.667 L 95 125.167 L 92.5 125.167 L 92.5 119.667 Z M 92.5 132.111 L 95 132.111 L 95 137.611 L 92.5 137.611 L 92.5 132.111 Z M 92.5 144.556 L 95 144.556 L 95 150.056 L 92.5 150.056 L 92.5 144.556 Z M 92.5 57.4444 L 95 57.4444 L 95 62.9444 L 92.5 62.9444 L 92.5 57.4444 Z M 92.5 69.8889 L 95 69.8889 L 95 75.3889 L 92.5 75.3889 L 92.5 69.8889 Z M 92.5 82.3333 L 95 82.3333 L 95 87.8333 L 92.5 87.8333 L 92.5 82.3333 Z M 92.5 94.7778 L 95 94.7778 L 95 100.278 L 92.5 100.278 L 92.5 94.7778 Z M 97.5714 102.5 L 103.071 102.5 L 103.071 105 L 97.5714 105 L 97.5714 102.5 Z"/>
    <path id="piece_004" style="fill:none;stroke:#000000;stroke-width:0.0508" d="M 142 56.944 L 139 56.944 L 139 63.4444 L 142 63.4444 L 142 69.3889 L 139 69.3889 L 139 75.8889 L 142 75.8889 L 142 81.8333 L 139 81.8333 L 139 88.3333 L 142 88.3333 L 142 94.2778 L 139 94.2778 L 139 100.778 L 142 100.778 L 142 106.722 L 139 106.722 L 139 113.222 L 142 113.222 L 142 119.167 L 139 119.167 L 139 125.667 L 142 125.667 L 142 131.611 L 139 131.611 L 139 138.111 L 142 138.111 L 142 144.056 L 139 144.056 L 139 150.556 L 142 150.556 L 142 154 L 146 154 L 146 157 L 152.5 157 L 152.5 154 L 159 154 L 159 157 L 165.5 157 L 165.5 154 L 172 154 L 172 157 L 178.5 157 L 178.5 154 L 182.5 154 L 182.5 150.556 L 185.5 150.556 L 185.5 144.056 L 182.5 144.056 L 182.5 138.111 L 185.5 138.111 L 185.5 131.611 L 182.5 131.611 L 182.5 125.667 L 185.5 125.667 L 185.5 119.167 L 182.5 119.167 L 182.5 113.222 L 185.5 113.222 L 185.5 106.722 L 182.5 106.722 L 182.5 100.778 L 185.5 100.778 L 185.5 94.2778 L 182.5 94.2778 L 182.5 88.3333 L 185.5 88.3333 L 185.5 81.8333 L 182.5 81.8333 L 182.5 75.8889 L 185.5 75.8889 L 185.5 69.3889 L 182.5 69.3889 L 182.5 63.4444 L 185.5 63.4444 L 185.5 56.9444 L 182.5 56.9444 L 182.5 53.5 L 178.5 53.5 L 178.5 50.5 L 172 50.5 L 172 53.5 L 165.5 53.5 L 165.5 50.5 L 159 50.5 L 159 53.5 L 152.5 53.5 L 152.5 50.5 L 146 50.5 L 146 53.5 L 142 53.5 L 142 56.944 Z M 142.25 102 L 146 102 L 146 104.5 L 142.25 104.5 L 142.25 102 Z M 152.5 102 L 159 102 L 159 104.5 L 152.5 104.5 L 152.5 102 Z M 165.5 102 L 172 102 L 172 104.5 L 165.5 104.5 L 165.5 102 Z M 178.5 102 L 182 102 L 182 104.5 L 178.5 104.5 L 178.5 102 Z"/>
    <path id="piece_005" style="fill:none;stroke:#000000;stroke-width:0.0508" d="M 187.5 57.4444 L 190.5 57.4444 L 190.5 62.9444 L 187.5 62.9444 L 187.5 69.8889 L 190.5 69.8889 L 190.5 75.3889 L 187.5 75.3889 L 187.5 82.3333 L 190.5 82.3333 L 190.5 87.8333 L 187.5 87.8333 L 187.5 94.7778 L 190.5 94.7778 L 190.5 100.278 L 187.5 100.278 L 187.5 107.222 L 190.5 107.222 L 190.5 112.722 L 187.5 112.722 L 187.5 119.667 L 190.5 119.667 L 190.5 125.167 L 187.5 125.167 L 187.5 132.111 L 190.5 132.111 L 190.5 137.611 L 187.5 137.611 L 187.5 144.556 L 190.5 144.556 L 190.5 150.056 L 187.5 150.056 L 187.5 157 L 195.143 157 L 195.143 154 L 200.643 154 L 200.643 157 L 208.286 157 L 208.286 154 L 213.786 154 L 213.786 157 L 221.429 157 L 221.429 154 L 226.929 154 L 226.929 157 L 234.571 157 L 234.571 154 L 240.071 154 L 240.071 157 L 247.714 157 L 247.714 154 L 253.214 154 L 253.214 157 L 260.857 157 L 260.857 154 L 266.357 154 L 266.357 157 L 274 157 L 274 150.056 L 271 150.056 L 271 144.556 L 274 144.556 L 274 137.611 L 271 137.611 L 271 132.111 L 274 132.111 L 274 125.167 L 271 125.167 L 271 119.667 L 274 119.667 L 274 112.722 L 271 112.722 L 271 107.222 L 274 107.222 L 274 100.278 L 271 100.278 L 271 94.7778 L 274 94.7778 L 274 87.8333 L 271 87.8333 L 271 82.3333 L 274 82.3333 L 274 75.3889 L 271 75.3889 L 271 69.8889 L 274 69.8889 L 274 62.9444 L 271 62.9444 L 271 57.4444 L 274 57.4444 L 274 50.5 L 266.357 50.5 L 266.357 53.5 L 260.857 53.5 L 260.857 50.5 L 253.214 50.5 L 253.214 53.5 L 247.714 53.5 L 247.714 50.5 L 240.071 50.5 L 240.071 53.5 L 234.571 53.5 L 234.571 50.5 L 226.929 50.5 L 226.929 53.5 L 221.429 53.5 L 221.429 50.5 L 213.786 50.5 L 213.786 53.5 L 208.286 53.5 L 208.286 50.5 L 200.643 50.5 L 200.643 53.5 L 195.143 53.5 L 195.143 50.5 L 187.5 50.5 L 187.5 57.4444 Z M 195.143 102.5 L 200.643 102.5 L 200.643 105 L 195.143 105 L 195.143 102.5 Z M 208.286 102.5 L 213.786 102.5 L 213.786 105 L 208.286 105 L 208.286 102.5 Z M 221.429 102.5 L 226.929 102.5 L 226.929 105 L 221.429 105 L 221.429 102.5 Z M 229.5 107.222 L 232 107.222 L 232 112.722 L 229.5 112.722 L 229.5 107.222 Z M 229.5 119.667 L 232 119.667 L 232 125.167 L 229.5 125.167 L 229.5 119.667 Z M 229.5 132.111 L 232 132.111 L 232 137.611 L 229.5 137.611 L 229.5 132.111 Z M 229.5 144.556 L 232 144.556 L 232 150.056 L 229.5 150.056 L 229.5 144.556 Z M 229.5 57.4444 L 232 57.4444 L 232 62.9444 L 229.5 62.9444 L 229.5 57.4444 Z M 229.5 69.8889 L 232 69.8889 L 232 75.3889 L 229.5 75.3889 L 229.5 69.8889 Z M 229.5 82.3333 L 232 82.3333 L 232 87.8333 L 229.5 87.8333 L 229.5 82.3333 Z M 229.5 94.7778 L 232 94.7778 L 232 100.278 L 229.5 100.278 L 229.5 94.7778 Z M 234.571 102.5 L 240.071 102.5 L 240.071 105 L 234.571 105 L 234.571 102.5 Z M 247.714 102.5 L 253.214 102.5 L 253.214 105 L 247.714 105 L 247.714 102.5 Z M 260.857 102.5 L 266.357 102.5 L 266.357 105 L 260.857 105 L 260.857 102.5 Z"/>
    <path id="piece_006" style="fill:none;stroke:#000000;stroke-width:0.0508" d="M 50.5 9.5 L 53.5 9.5 L 53.5 15 L 50.5 15 L 50.5 22.5 L 53.5 22.5 L 53.5 28 L 50.5 28 L 50.5 35.5 L 53.5 35.5 L 53.5 41 L 50.5 41 L 50.5 45.5 L 57.6429 45.5 L 57.6429 48.5 L 64.1429 48.5 L 64.1429 45.5 L 70.7857 45.5 L 70.7857 48.5 L 77.2857 48.5 L 77.2857 45.5 L 83.9286 45.5 L 83.9286 48.5 L 90.4286 48.5 L 90.4286 45.5 L 97.0714 45.5 L 97.0714 48.5 L 103.571 48.5 L 103.571 45.5 L 110.214 45.5 L 110.214 48.5 L 116.714 48.5 L 116.714 45.5 L 123.357 45.5 L 123.357 48.5 L 129.857 48.5 L 129.857 45.5 L 137 45.5 L 137 41 L 134 41 L 134 35.5 L 137 35.5 L 137 28 L 134 28 L 134 22.5 L 137 22.5 L 137 15 L 134 15 L 134 9.5 L 137 9.5 L 137 5 L 129.857 5 L 129.857 2 L 123.357 2 L 123.357 5 L 116.714 5 L 116.714 2 L 110.214 2 L 110.214 5 L 103.571 5 L 103.571 2 L 97.0714 2 L 97.0714 5 L 90.4286 5 L 90.4286 2 L 83.9286 2 L 83.9286 5 L 77.2857 5 L 77.2857 2 L 70.7857 2 L 70.7857 5 L 64.1429 5 L 64.1429 2 L 57.6429 2 L 57.6429 5 L 50.5 5 L 50.5 9.5 Z M 92.5 22.5 L 95 22.5 L 95 28 L 92.5 28 L 92.5 22.5 Z M 92.5 35.5 L 95 35.5 L 95 41 L 92.5 41 L 92.5 35.5 Z M 92.5 9.5 L 95 9.5 L 95 15 L 92.5 15 L 92.5 9.5 Z"/>
  </g>
</svg>