<!-- Created with Inkscape (http://www.inkscape.org/) -->
<svg xmlns:inkscape="http://www.inkscape.org/namespaces/inkscape" xmlns:sodipodi="http://sodipodi.sourceforge.net/DTD/sodipodi-0.dtd" xmlns="http://www.w3.org/2000/svg" xmlns:svg="http://www.w3.org/2000/svg" width="321.5mm" height="253.4mm" viewBox="0 0 321.5 253.4" version="1.1" id="svg5" inkscape:version="1.1.2 (0a00cf5339, 2022-02-04)" sodipodi:docname="blank.svg">
  <sodipodi:namedview id="namedview7" pagecolor="#ffffff" bordercolor="#666666" borderopacity="1.0" inkscape:pageshadow="2" inkscape:pageopacity="0.0" inkscape:pagecheckerboard="0" inkscape:document-units="mm" showgrid="false" inkscape:zoom="0.64052329" inkscape:cx="397.33138" inkscape:cy="561.25984" inkscape:window-width="2086" inkscape:window-height="1376" inkscape:window-x="0" inkscape:window-y="0" inkscape:window-maximized="1" inkscape:current-layer="layer1"/>
  <defs id="defs2"/>
  <g inkscape:label="Layer 1" inkscape:groupmode="layer" id="layer1">
    <metadata text="createArgs=['--unit=mm', '--inside=1', '--length=80', '--width=100', '--depth=40', '--equal=0', '--tab=6', '--tabtype=0', '--tabsymmetry=0', '--dimpleheight=0', '--dimplelength=0', '--hairline=1', '--thickness=3', '--style=1', '--boxtype=1', '--div_l=1', '--div_w=1', '--keydiv=0', '--spacing=2', '--kerf=0.1']"/>
    <g id="piece_001">
      <path id="side_001" style="fill:none;stroke:#000000;stroke-width:0.0508" d="M 50.1 161.2 L 57.2429 161.2 L 57.2429 158.2 L 63.3429 158.2 L 63.3429 161.2 L 70.3857 161.2 L 70.3857 158.2 L 76.4857 158.2 L 76.4857 161.2 L 83.5286 161.2 L 83.5286 158.2 L 89.6286 158.2 L 89.6286 161.2 L 96.6714 161.2 L 96.6714 158.2 L 102.771 158.2 L 102.771 161.2 L 109.814 161.2 L 109.814 158.2 L 115.914 158.2 L 115.914 161.2 L 122.957 161.2 L 122.957 158.2 L 129.057 158.2 L 129.057 161.2 L 136.2 161.2"/>
      <path id="side_002" style="fill:none;stroke:#000000;stroke-width:0.0508" d="M 136.2 161.2 L 136.2 165.3 L 133.2 165.3 L 133.2 171.2 L 136.2 171.2 L 136.2 178.3 L 133.2 178.3 L 133.2 184.2 L 136.2 184.2 L 136.2 191.3 L 133.2 191.3 L 133.2 197.2 L 136.2 197.2 L 136.2 201.3"/>
      <path id="hole_001" style="fill:none;stroke:#000000;stroke-width:0.0508" d="M 91.7 165.3 L 91.7 171.2 L 94.6 171.2 L 94.6 165.3 L 91.7 165.3 Z"/>
      <path id="hole_002" style="fill:none;stroke:#000000;stroke-width:0.0508" d="M 91.7 178.3 L 91.7 184.2 L 94.6 184.2 L 94.6 178.3 L 91.7 178.3 Z"/>
      <path id="hole_003" style="fill:none;stroke:#000000;stroke-width:0.0508" d="M 91.7 191.3 L 91.7 197.2 L 94.6 197.2 L 94.6 191.3 L 91.7 191.3 Z"/>
      <path id="side_003" style="fill:none;stroke:#000000;stroke-width:0.0508" d="M 136.2 201.3 L 129.057 201.3 L 129.057 204.3 L 122.957 204.3 L 122.957 201.3 L 115.914 201.3 L 115.914 204.3 L 109.814 204.3 L 109.814 201.3 L 102.771 201.3 L 102.771 204.3 L 96.6714 204.3 L 96.6714 201.3 L 89.6286 201.3 L 89.6286 204.3 L 83.5286 204.3 L 83.5286 201.3 L 76.4857 201.3 L 76.4857 204.3 L 70.3857 204.3 L 70.3857 201.3 L 63.3429 201.3 L 63.3429 204.3 L 57.2429 204.3 L 57.2429 201.3 L 50.1 201.3"/>
      <path id="side_004" style="fill:none;stroke:#000000;stroke-width:0.0508" d="M 50.1 201.3 L 50.1 197.2 L 53.1 197.2 L 53.1 191.3 L 50.1 191.3 L 50.1 184.2 L 53.1 184.2 L 53.1 178.3 L 50.1 178.3 L 50.1 171.2 L 53.1 171.2 L 53.1 165.3 L 50.1 165.3 L 50.1 161.2"/>
    </g>
    <g id="xdivider_001">
      <path id="side_005" style="fill:none;stroke:#000000;stroke-width:0.0508" d="M 50.1 209.3 L 57.2429 209.3 L 57.2429 206.3 L 63.3429 206.3 L 63.3429 209.3 L 70.3857 209.3 L 70.3857 206.3 L 76.4857 206.3 L 76.4857 209.3 L 83.5286 209.3 L 83.5286 206.3 L 89.6286 206.3 L 89.6286 209.3 L 96.6714 209.3 L 96.6714 206.3 L 102.771 206.3 L 102.771 209.3 L 109.814 209.3 L 109.814 206.3 L 115.914 206.3 L 115.914 209.3 L 122.957 209.3 L 122.957 206.3 L 129.057 206.3 L 129.057 209.3 L 136.2 209.3"/>
      <path id="side_006" style="fill:none;stroke:#000000;stroke-width:0.0508" d="M 136.2 209.3 L 136.2 213.4 L 133.2 213.4 L 133.2 219.3 L 136.2 219.3 L 136.2 226.4 L 133.2 226.4 L 133.2 232.3 L 136.2 232.3 L 136.2 239.4 L 133.2 239.4 L 133.2 245.3 L 136.2 245.3 L 136.2 249.4"/>
      <path id="slot_001" style="fill:none;stroke:#000000;stroke-width:0.0508" d="M 94.6 206.3 L 94.6 229.3 L 91.7 229.3 L 91.7 206.3 L 94.6 206.3 Z"/>
      <path id="side_007" style="fill:none;stroke:#000000;stroke-width:0.0508" d="M 136.2 249.4 L 129.057 249.4 L 129.057 252.4 L 122.957 252.4 L 122.957 249.4 L 115.914 249.4 L 115.914 252.4 L 109.814 252.4 L 109.814 249.4 L 102.771 249.4 L 102.771 252.4 L 96.6714 252.4 L 96.6714 249.4 L 89.6286 249.4 L 89.6286 252.4 L 83.5286 252.4 L 83.5286 249.4 L 76.4857 249.4 L 76.4857 252.4 L 70.3857 252.4 L 70.3857 249.4 L 63.3429 249.4 L 63.3429 252.4 L 57.2429 252.4 L 57.2429 249.4 L 50.1 249.4"/>
      <path id="side_008" style="fill:none;stroke:#000000;stroke-width:0.0508" d="M 50.1 249.4 L 50.1 245.3 L 53.1 245.3 L 53.1 239.4 L 50.1 239.4 L 50.1 232.3 L 53.1 232.3 L 53.1 226.4 L 50.1 226.4 L 50.1 219.3 L 53.1 219.3 L 53.1 213.4 L 50.1 213.4 L 50.1 209.3"/>
    </g>
    <g id="piece_002">
      <path id="side_009" style="fill:none;stroke:#000000;stroke-width:0.0508" d="M 5 53.1 L 9 53.1 L 9 50.1 L 15.1 50.1 L 15.1 53.1 L 22 53.1 L 22 50.1 L 28.1 50.1 L 28.1 53.1 L 35 53.1 L 35 50.1 L 41.1 50.1 L 41.1 53.1 L 45.1 53.1"/>
      <path id="hole_004" style="fill:none;stroke:#000000;stroke-width:0.0508" d="M 5.05 101.6 L 9 101.6 L 9 104.5 L 5.05 104.5 L 5.05 101.6 Z"/>
      <path id="hole_005" style="fill:none;stroke:#000000;stroke-width:0.0508" d="M 15.1 101.6 L 22 101.6 L 22 104.5 L 15.1 104.5 L 15.1 101.6 Z"/>
      <path id="hole_006" style="fill:none;stroke:#000000;stroke-width:0.0508" d="M 28.1 101.6 L 35 101.6 L 35 104.5 L 28.1 104.5 L 28.1 101.6 Z"/>
      <path id="hole_007" style="fill:none;stroke:#000000;stroke-width:0.0508" d="M 41.1 101.6 L 45 101.6 L 45 104.5 L 41.1 104.5 L 41.1 101.6 Z"/>
      <path id="side_010" style="fill:none;stroke:#000000;stroke-width:0.0508" d="M 45.1 53.1 L 45.1 56.5444 L 48.1 56.5444 L 48.1 62.6444 L 45.1 62.6444 L 45.1 68.9889 L 48.1 68.9889 L 48.1 75.0889 L 45.1 75.0889 L 45.1 81.4333 L 48.1 81.4333 L 48.1 87.5333 L 45.1 87.5333 L 45.1 93.8778 L 48.1 93.8778 L 48.1 99.9778 L 45.1 99.9778 L 45.1 106.322 L 48.1 106.322 L 48.1 112.422 L 45.1 112.422 L 45.1 118.767 L 48.1 118.767 L 48.1 124.867 L 45.1 124.867 L 45.1 131.211 L 48.1 131.211 L 48.1 137.311 L 45.1 137.311 L 45.1 143.656 L 48.1 143.656 L 48.1 149.756 L 45.1 149.756 L 45.1 153.2"/>
      <path id="side_011" style="fill:none;stroke:#000000;stroke-width:0.0508" d="M 45.1 153.2 L 41.1 153.2 L 41.1 156.2 L 35 156.2 L 35 153.2 L 28.1 153.2 L 28.1 156.2 L 22 156.2 L 22 153.2 L 15.1 153.2 L 15.1 156.2 L 9 156.2 L 9 153.2 L 5 153.2"/>
      <path id="side_012" style="fill:none;stroke:#000000;stroke-width:0.0508" d="M 5 153.2 L 5 149.756 L 2 149.756 L 2 143.656 L 5 143.656 L 5 137.311 L 2 137.311 L 2 131.211 L 5 131.211 L 5 124.867 L 2 124.867 L 2 118.767 L 5 118.767 L 5 112.422 L 2 112.422 L 2 106.322 L 5 106.322 L 5 99.9778 L 2 99.9778 L 2 93.8778 L 5 93.8778 L 5 87.5333 L 2 87.5333 L 2 81.4333 L 5 81.4333 L 5 75.0889 L 2 75.0889 L 2 68.9889 L 5 68.9889 L 5 62.6444 L 2 62.6444 L 2 56.5444 L 5 56.5444 L 5 53.1"/>
    </g>
    <g id="ydivider_001">
      <path id="side_013" style="fill:none;stroke:#000000;stroke-width:0.0508" d="M 277.4 53.1 L 281.4 53.1 L 281.4 50.1 L 287.5 50.1 L 287.5 53.1 L 294.4 53.1 L 294.4 50.1 L 300.5 50.1 L 300.5 53.1 L 307.4 53.1 L 307.4 50.1 L 313.5 50.1 L 313.5 53.1 L 317.5 53.1"/>
      <path id="slot_002" style="fill:none;stroke:#000000;stroke-width:0.0508" d="M 274.4 101.7 L 297.4 101.7 L 297.4 104.6 L 274.4 104.6 L 274.4 101.7 Z"/>
      <path id="side_014" style="fill:none;stroke:#000000;stroke-width:0.0508" d="M 317.5 53.1 L 317.5 56.5444 L 320.5 56.5444 L 320.5 62.6444 L 317.5 62.6444 L 317.5 68.9889 L 320.5 68.9889 L 320.5 75.0889 L 317.5 75.0889 L 317.5 81.4333 L 320.5 81.4333 L 320.5 87.5333 L 317.5 87.5333 L 317.5 93.8778 L 320.5 93.8778 L 320.5 99.9778 L 317.5 99.9778 L 317.5 106.322 L 320.5 106.322 L 320.5 112.422 L 317.5 112.422 L 317.5 118.767 L 320.5 118.767 L 320.5 124.867 L 317.5 124.867 L 317.5 131.211 L 320.5 131.211 L 320.5 137.311 L 317.5 137.311 L 317.5 143.656 L 320.5 143.656 L 320.5 149.756 L 317.5 149.756 L 317.5 153.2"/>
      <path id="side_015" style="fill:none;stroke:#000000;stroke-width:0.0508" d="M 317.5 153.2 L 313.5 153.2 L 313.5 156.2 L 307.4 156.2 L 307.4 153.2 L 300.5 153.2 L 300.5 156.2 L 294.4 156.2 L 294.4 153.2 L 287.5 153.2 L 287.5 156.2 L 281.4 156.2 L 281.4 153.2 L 277.4 153.2"/>
      <path id="side_016" style="fill:none;stroke:#000000;stroke-width:0.0508" d="M 277.4 153.2 L 277.4 149.756 L 274.4 149.756 L 274.4 143.656 L 277.4 143.656 L 277.4 137.311 L 274.4 137.311 L 274.4 131.211 L 277.4 131.211 L 277.4 124.867 L 274.4 124.867 L 274.4 118.767 L 277.4 118.767 L 277.4 112.422 L 274.4 112.422 L 274.4 106.322 L 277.4 106.322 L 277.4 99.9778 L 274.4 99.9778 L 274.4 93.8778 L 277.4 93.8778 L 277.4 87.5333 L 274.4 87.5333 L 274.4 81.4333 L 277.4 81.4333 L 277.4 75.0889 L 274.4 75.0889 L 274.4 68.9889 L 277.4 68.9889 L 277.4 62.6444 L 274.4 62.6444 L 274.4 56.5444 L 277.4 56.5444 L 277.4 53.1"/>
    </g>
    <g id="piece_003">
      <path id="side_017" style="fill:none;stroke:#000000;stroke-width:0.0508" d="M 50.1 50.1 L 57.3429 50.1 L 57.3429 53.1 L 63.2429 53.1 L 63.2429 50.1 L 70.4857 50.1 L 70.4857 53.1 L 76.3857 53.1 L 76.3857 50.1 L 83.6286 50.1 L 83.6286 53.1 L 89.5286 53.1 L 89.5286 50.1 L 96.7714 50.1 L 96.7714 53.1 L 102.671 53.1 L 102.671 50.1 L 109.914 50.1 L 109.914 53.1 L 115.814 53.1 L 115.814 50.1 L 123.057 50.1 L 123.057 53.1 L 128.957 53.1 L 128.957 50.1 L 136.2 50.1"/>
      <path id="hole_008" style="fill:none;stroke:#000000;stroke-width:0.0508" d="M 57.3429 104.6 L 63.2429 104.6 L 63.2429 101.7 L 57.3429 101.7 L 57.3429 104.6 Z"/>
      <path id="hole_009" style="fill:none;stroke:#000000;stroke-width:0.0508" d="M 70.4857 104.6 L 76.3857 104.6 L 76.3857 101.7 L 70.4857 101.7 L 70.4857 104.6 Z"/>
      <path id="hole_010" style="fill:none;stroke:#000000;stroke-width:0.0508" d="M 83.6286 104.6 L 89.5286 104.6 L 89.5286 101.7 L 83.6286 101.7 L 83.6286 104.6 Z"/>
      <path id="hole_011" style="fill:none;stroke:#000000;stroke-width:0.0508" d="M 96.7714 104.6 L 102.671 104.6 L 102.671 101.7 L 96.7714 101.7 L 96.7714 104.6 Z"/>
      <path id="hole_012" style="fill:none;stroke:#000000;stroke-width:0.0508" d="M 109.914 104.6 L 115.814 104.6 L 115.814 101.7 L 109.914 101.7 L 109.914 104.6 Z"/>
      <path id="hole_013" style="fill:none;stroke:#000000;stroke-width:0.0508" d="M 123.057 104.6 L 128.957 104.6 L 128.957 101.7 L 123.057 101.7 L 123.057 104.6 Z"/>
      <path id="side_018" style="fill:none;stroke:#000000;stroke-width:0.0508" d="M 136.2 50.1 L 136.2 56.6444 L 133.2 56.6444 L 133.2 62.5444 L 136.2 62.5444 L 136.2 69.0889 L 133.2 69.0889 L 133.2 74.9889 L 136.2 74.9889 L 136.2 81.5333 L 133.2 81.5333 L 133.2 87.4333 L 136.2 87.4333 L 136.2 93.9778 L 133.2 93.9778 L 133.2 99.8778 L 136.2 99.8778 L 136.2 106.422 L 133.2 106.422 L 133.2 112.322 L 136.2 112.322 L 136.2 118.867 L 133.2 118.867 L 133.2 124.767 L 136.2 124.767 L 136.2 131.311 L 133.2 131.311 L 133.2 137.211 L 136.2 137.211 L 136.2 143.756 L 133.2 143.756 L 133.2 149.656 L 136.2 149.656 L 136.2 156.2"/>
      <path id="hole_014" style="fill:none;stroke:#000000;stroke-width:0.0508" d="M 91.7 56.6444 L 91.7 62.5444 L 94.6 62.5444 L 94.6 56.6444 L 91.7 56.6444 Z"/>
      <path id="hole_015" style="fill:none;stroke:#000000;stroke-width:0.0508" d="M 91.7 69.0889 L 91.7 74.9889 L 94.6 74.9889 L 94.6 69.0889 L 91.7 69.0889 Z"/>
      <path id="hole_016" style="fill:none;stroke:#000000;stroke-width:0.0508" d="M 91.7 81.5333 L 91.7 87.4333 L 94.6 87.4333 L 94.6 81.5333 L 91.7 81.5333 Z"/>
      <path id="hole_017" style="fill:none;stroke:#000000;stroke-width:0.0508" d="M 91.7 93.9778 L 91.7 99.8778 L 94.6 99.8778 L 94.6 93.9778 L 91.7 93.9778 Z"/>
      <path id="hole_018" style="fill:none;stroke:#000000;stroke-width:0.0508" d="M 91.7 106.422 L 91.7 112.322 L 94.6 112.322 L 94.6 106.422 L 91.7 106.422 Z"/>
      <path id="hole_019" style="fill:none;stroke:#000000;stroke-width:0.0508" d="M 91.7 118.867 L 91.7 124.767 L 94.6 124.767 L 94.6 118.867 L 91.7 118.867 Z"/>
      <path id="hole_020" style="fill:none;stroke:#000000;stroke-width:0.0508" d="M 91.7 131.311 L 91.7 137.211 L 94.6 137.211 L 94.6 131.311 L 91.7 131.311 Z"/>
      <path id="hole_021" style="fill:none;stroke:#000000;stroke-width:0.0508" d="M 91.7 143.756 L 91.7 149.656 L 94.6 149.656 L 94.6 143.756 L 91.7 143.756 Z"/>
      <path id="side_019" style="fill:none;stroke:#000000;stroke-width:0.0508" d="M 136.2 156.2 L 128.957 156.2 L 128.957 153.2 L 123.057 153.2 L 123.057 156.2 L 115.814 156.2 L 115.814 153.2 L 109.914 153.2 L 109.914 156.2 L 102.671 156.2 L 102.671 153.2 L 96.7714 153.2 L 96.7714 156.2 L 89.5286 156.2 L 89.5286 153.2 L 83.6286 153.2 L 83.6286 156.2 L 76.3857 156.2 L 76.3857 153.2 L 70.4857 153.2 L 70.4857 156.2 L 63.2429 156.2 L 63.2429 153.2 L 57.3429 153.2 L 57.3429 156.2 L 50.1 156.2"/>
      <path id="side_020" style="fill:none;stroke:#000000;stroke-width:0.0508" d="M 50.1 156.2 L 50.1 149.656 L 53.1 149.656 L 53.1 143.756 L 50.1 143.756 L 50.1 137.211 L 53.1 137.211 L 53.1 131.311 L 50.1 131.311 L 50.1 124.767 L 53.1 124.767 L 53.1 118.867 L 50.1 118.867 L 50.1 112.322 L 53.1 112.322 L 53.1 106.422 L 50.1 106.422 L 50.1 99.8778 L 53.1 99.8778 L 53.1 93.9778 L 50.1 93.9778 L 50.1 87.4333 L 53.1 87.4333 L 53.1 81.5333 L 50.1 81.5333 L 50.1 74.9889 L 53.1 74.9889 L 53.1 69.0889 L 50.1 69.0889 L 50.1 62.5444 L 53.1 62.5444 L 53.1 56.6444 L 50.1 56.6444 L 50.1 50.1"/>
    </g>
    <g id="piece_004">
      <path id="side_021" style="fill:none;stroke:#000000;stroke-width:0.0508" d="M 141.2 53.1 L 145.2 53.1 L 145.2 50.1 L 151.3 50.1 L 151.3 53.1 L 158.2 53.1 L 158.2 50.1 L 164.3 50.1 L 164.3 53.1 L 171.2 53.1 L 171.2 50.1 L 177.3 50.1 L 177.3 53.1 L 181.3 53.1"/>
      <path id="hole_022" style="fill:none;stroke:#000000;stroke-width:0.0508" d="M 141.25 101.6 L 145.2 101.6 L 145.2 104.5 L 141.25 104.5 L 141.25 101.6 Z"/>
      <path id="hole_023" style="fill:none;stroke:#000000;stroke-width:0.0508" d="M 151.3 101.6 L 158.2 101.6 L 158.2 104.5 L 151.3 104.5 L 151.3 101.6 Z"/>
      <path id="hole_024" style="fill:none;stroke:#000000;stroke-width:0.0508" d="M 164.3 101.6 L 171.2 101.6 L 171.2 104.5 L 164.3 104.5 L 164.3 101.6 Z"/>
      <path id="hole_025" style="fill:none;stroke:#000000;stroke-width:0.0508" d="M 177.3 101.6 L 181.2 101.6 L 181.2 104.5 L 177.3 104.5 L 177.3 101.6 Z"/>
      <path id="side_022" style="fill:none;stroke:#000000;stroke-width:0.0508" d="M 181.3 53.1 L 181.3 56.5444 L 184.3 56.5444 L 184.3 62.6444 L 181.3 62.6444 L 181.3 68.9889 L 184.3 68.9889 L 184.3 75.0889 L 181.3 75.0889 L 181.3 81.4333 L 184.3 81.4333 L 184.3 87.5333 L 181.3 87.5333 L 181.3 93.8778 L 184.3 93.8778 L 184.3 99.9778 L 181.3 99.9778 L 181.3 106.322 L 184.3 106.322 L 184.3 112.422 L 181.3 112.422 L 181.3 118.767 L 184.3 118.767 L 184.3 124.867 L 181.3 124.867 L 181.3 131.211 L 184.3 131.211 L 184.3 137.311 L 181.3 137.311 L 181.3 143.656 L 184.3 143.656 L 184.3 149.756 L 181.3 149.756 L 181.3 153.2"/>
      <path id="side_023" style="fill:none;stroke:#000000;stroke-width:0.0508" d="M 181.3 153.2 L 177.3 153.2 L 177.3 156.2 L 171.2 156.2 L 171.2 153.2 L 164.3 153.2 L 164.3 156.2 L 158.2 156.2 L 158.2 153.2 L 151.3 153.2 L 151.3 156.2 L 145.2 156.2 L 145.2 153.2 L 141.2 153.2"/>
      <path id="side_024" style="fill:none;stroke:#000000;stroke-width:0.0508" d="M 141.2 153.2 L 141.2 149.756 L 138.2 149.756 L 138.2 143.656 L 141.2 143.656 L 141.2 137.311 L 138.2 137.311 L 138.2 131.211 L 141.2 131.211 L 141.2 124.867 L 138.2 124.867 L 138.2 118.767 L 141.2 118.767 L 141.2 112.422 L 138.2 112.422 L 138.2 106.322 L 141.2 106.322 L 141.2 99.9778 L 138.2 99.9778 L 138.2 93.8778 L 141.2 93.8778 L 141.2 87.5333 L 138.2 87.5333 L 138.2 81.4333 L 141.2 81.4333 L 141.2 75.0889 L 138.2 75.0889 L 138.2 68.9889 L 141.2 68.9889 L 141.2 62.6444 L 138.2 62.6444 L 138.2 56.5444 L 141.2 56.5444 L 141.2 53.1"/>
    </g>
    <g id="piece_005">
      <path id="side_025" style="fill:none;stroke:#000000;stroke-width:0.0508" d="M 186.3 50.1 L 193.543 50.1 L 193.543 53.1 L 199.443 53.1 L 199.443 50.1 L 206.686 50.1 L 206.686 53.1 L 212.586 53.1 L 212.586 50.1 L 219.829 50.1 L 219.829 53.1 L 225.729 53.1 L 225.729 50.1 L 232.971 50.1 L 232.971 53.1 L 238.871 53.1 L 238.871 50.1 L 246.114 50.1 L 246.114 53.1 L 252.014 53.1 L 252.014 50.1 L 259.257 50.1 L 259.257 53.1 L 265.157 53.1 L 265.157 50.1 L 272.4 50.1"/>
      <path id="hole_026" style="fill:none;stroke:#000000;stroke-width:0.0508" d="M 193.543 104.6 L 199.443 104.6 L 199.443 101.7 L 193.543 101.7 L 193.543 104.6 Z"/>
      <path id="hole_027" style="fill:none;stroke:#000000;stroke-width:0.0508" d="M 206.686 104.6 L 212.586 104.6 L 212.586 101.7 L 206.686 101.7 L 206.686 104.6 Z"/>
      <path id="hole_028" style="fill:none;stroke:#000000;stroke-width:0.0508" d="M 219.829 104.6 L 225.729 104.6 L 225.729 101.7 L 219.829 101.7 L 219.829 104.6 Z"/>
      <path id="hole_029" style="fill:none;stroke:#000000;stroke-width:0.0508" d="M 232.971 104.6 L 238.871 104.6 L 238.871 101.7 L 232.971 101.7 L 232.971 104.6 Z"/>
      <path id="hole_030" style="fill:none;stroke:#000000;stroke-width:0.0508" d="M 246.114 104.6 L 252.014 104.6 L 252.014 101.7 L 246.114 101.7 L 246.114 104.6 Z"/>
      <path id="hole_031" style="fill:none;stroke:#000000;stroke-width:0.0508" d="M 259.257 104.6 L 265.157 104.6 L 265.157 101.7 L 259.257 101.7 L 259.257 104.6 Z"/>
      <path id="side_026" style="fill:none;stroke:#000000;stroke-width:0.0508" d="M 272.4 50.1 L 272.4 56.6444 L 269.4 56.6444 L 269.4 62.5444 L 272.4 62.5444 L 272.4 69.0889 L 269.4 69.0889 L 269.4 74.9889 L 272.4 74.9889 L 272.4 81.5333 L 269.4 81.5333 L 269.4 87.4333 L 272.4 87.4333 L 272.4 93.9778 L 269.4 93.9778 L 269.4 99.8778 L 272.4 99.8778 L 272.4 106.422 L 269.4 106.422 L 269.4 112.322 L 272.4 112.322 L 272.4 118.867 L 269.4 118.867 L 269.4 124.767 L 272.4 124.767 L 272.4 131.311 L 269.4 131.311 L 269.4 137.211 L 272.4 137.211 L 272.4 143.756 L 269.4 143.756 L 269.4 149.656 L 272.4 149.656 L 272.4 156.2"/>
      <path id="hole_032" style="fill:none;stroke:#000000;stroke-width:0.0508" d="M 227.9 56.6444 L 227.9 62.5444 L 230.8 62.5444 L 230.8 56.6444 L 227.9 56.6444 Z"/>
      <path id="hole_033" style="fill:none;stroke:#000000;stroke-width:0.0508" d="M 227.9 69.0889 L 227.9 74.9889 L 230.8 74.9889 L 230.8 69.0889 L 227.9 69.0889 Z"/>
      <path id="hole_034" style="fill:none;stroke:#000000;stroke-width:0.0508" d="M 227.9 81.5333 L 227.9 87.4333 L 230.8 87.4333 L 230.8 81.5333 L 227.9 81.5333 Z"/>
      <path id="hole_035" style="fill:none;stroke:#000000;stroke-width:0.0508" d="M 227.9 93.9778 L 227.9 99.8778 L 230.8 99.8778 L 230.8 93.9778 L 227.9 93.9778 Z"/>
      <path id="hole_036" style="fill:none;stroke:#000000;stroke-width:0.0508" d="M 227.9 106.422 L 227.9 112.322 L 230.8 112.322 L 230.8 106.422 L 227.9 106.422 Z"/>
      <path id="hole_037" style="fill:none;stroke:#000000;stroke-width:0.0508" d="M 227.9 118.867 L 227.9 124.767 L 230.8 124.767 L 230.8 118.867 L 227.9 118.867 Z"/>
      <path id="hole_038" style="fill:none;stroke:#000000;stroke-width:0.0508" d="M 227.9 131.311 L 227.9 137.211 L 230.8 137.211 L 230.8 131.311 L 227.9 131.311 Z"/>
      <path id="hole_039" style="fill:none;stroke:#000000;stroke-width:0.0508" d="M 227.9 143.756 L 227.9 149.656 L 230.8 149.656 L 230.8 143.756 L 227.9 143.756 Z"/>
      <path id="side_027" style="fill:none;stroke:#000000;stroke-width:0.0508" d="M 272.4 156.2 L 265.157 156.2 L 265.157 153.2 L 259.257 153.2 L 259.257 156.2 L 252.014 156.2 L 252.014 153.2 L 246.114 153.2 L 246.114 156.2 L 238.871 156.2 L 238.871 153.2 L 232.971 153.2 L 232.971 156.2 L 225.729 156.2 L 225.729 153.2 L 219.829 153.2 L 219.829 156.2 L 212.586 156.2 L 212.586 153.2 L 206.686 153.2 L 206.686 156.2 L 199.443 156.2 L 199.443 153.2 L 193.543 153.2 L 193.543 156.2 L 186.3 156.2"/>
      <path id="side_028" style="fill:none;stroke:#000000;stroke-width:0.0508" d="M 186.3 156.2 L 186.3 149.656 L 189.3 149.656 L 189.3 143.756 L 186.3 143.756 L 186.3 137.211 L 189.3 137.211 L 189.3 131.311 L 186.3 131.311 L 186.3 124.767 L 189.3 124.767 L 189.3 118.867 L 186.3 118.867 L 186.3 112.322 L 189.3 112.322 L 189.3 106.422 L 186.3 106.422 L 186.3 99.8778 L 189.3 99.8778 L 189.3 93.9778 L 186.3 93.9778 L 186.3 87.4333 L 189.3 87.4333 L 189.3 81.5333 L 186.3 81.5333 L 186.3 74.9889 L 189.3 74.9889 L 189.3 69.0889 L 186.3 69.0889 L 186.3 62.5444 L 189.3 62.5444 L 189.3 56.6444 L 186.3 56.6444 L 186.3 50.1"/>
    </g>
    <g id="piece_006">
      <path id="side_029" style="fill:none;stroke:#000000;stroke-width:0.0508" d="M 50.1 5 L 57.2429 5 L 57.2429 2 L 63.3429 2 L 63.3429 5 L 70.3857 5 L 70.3857 2 L 76.4857 2 L 76.4857 5 L 83.5286 5 L 83.5286 2 L 89.6286 2 L 89.6286 5 L 96.6714 5 L 96.6714 2 L 102.771 2 L 102.771 5 L 109.814 5 L 109.814 2 L 115.914 2 L 115.914 5 L 122.957 5 L 122.957 2 L 129.057 2 L 129.057 5 L 136.2 5"/>
      <path id="side_030" style="fill:none;stroke:#000000;stroke-width:0.0508" d="M 136.2 5 L 136.2 9.1 L 133.2 9.1 L 133.2 15 L 136.2 15 L 136.2 22.1 L 133.2 22.1 L 133.2 28 L 136.2 28 L 136.2 35.1 L 133.2 35.1 L 133.2 41 L 136.2 41 L 136.2 45.1"/>
      <path id="hole_040" style="fill:none;stroke:#000000;stroke-width:0.0508" d="M 91.7 9.1 L 91.7 15 L 94.6 15 L 94.6 9.1 L 91.7 9.1 Z"/>
      <path id="hole_041" style="fill:none;stroke:#000000;stroke-width:0.0508" d="M 91.7 22.1 L 91.7 28 L 94.6 28 L 94.6 22.1 L 91.7 22.1 Z"/>
      <path id="hole_042" style="fill:none;stroke:#000000;stroke-width:0.0508" d="M 91.7 35.1 L 91.7 41 L 94.6 41 L 94.6 35.1 L 91.7 35.1 Z"/>
      <path id="side_031" style="fill:none;stroke:#000000;stroke-width:0.0508" d="M 136.2 45.1 L 129.057 45.1 L 129.057 48.1 L 122.957 48.1 L 122.957 45.1 L 115.914 45.1 L 115.914 48.1 L 109.814 48.1 L 109.814 45.1 L 102.771 45.1 L 102.771 48.1 L 96.6714 48.1 L 96.6714 45.1 L 89.6286 45.1 L 89.6286 48.1 L 83.5286 48.1 L 83.5286 45.1 L 76.4857 45.1 L 76.4857 48.1 L 70.3857 48.1 L 70.3857 45.1 L 63.3429 45.1 L 63.3429 48.1 L 57.2429 48.1 L 57.2429 45.1 L 50.1 45.1"/>
      <path id="side_032" style="fill:none;stroke:#000000;stroke-width:0.0508" d="M 50.1 45.1 L 50.1 41 L 53.1 41 L 53.1 35.1 L 50.1 35.1 L 50.1 28 L 53.1 28 L 53.1 22.1 L 50.1 22.1 L 50.1 15 L 53.1 15 L 53.1 9.1 L 50.1 9.1 L 50.1 5"/>
    </g>
  </g>
</svg>