<!-- Created with Inkscape (http://www.inkscape.org/) -->
<svg xmlns:inkscape="http://www.inkscape.org/namespaces/inkscape" xmlns:sodipodi="http://sodipodi.sourceforge.net/DTD/sodipodi-0.dtd" xmlns="http://www.w3.org/2000/svg" xmlns:svg="http://www.w3.org/2000/svg" width="313mm" height="361mm" viewBox="0 0 313 361" version="1.1" id="svg5" inkscape:version="1.1.2 (0a00cf5339, 2022-02-04)" sodipodi:docname="blank.svg">
  <sodipodi:namedview id="namedview7" pagecolor="#ffffff" bordercolor="#666666" borderopacity="1.0" inkscape:pageshadow="2" inkscape:pageopacity="0.0" inkscape:pagecheckerboard="0" inkscape:document-units="mm" showgrid="false" inkscape:zoom="0.64052329" inkscape:cx="397.33138" inkscape:cy="561.25984" inkscape:window-width="2086" inkscape:window-height="1376" inkscape:window-x="0" inkscape:window-y="0" inkscape:window-maximized="1" inkscape:current-layer="layer1"/>
  <defs id="defs2"/>
  <g inkscape:label="Layer 1" inkscape:groupmode="layer" id="layer1">
    <metadata text="createArgs=['--unit=mm', '--inside=1', '--width=100', '--depth=40', '--equal=0', '--tab=6', '--tabtype=0', '--tabsymmetry=0', '--dimpleheight=0', '--dimplelength=0', '--hairline=1', '--thickness=3', '--kerf=0', '--style=1', '--boxtype=1', '--div_l=1', '--div_w=1', '--keydiv=0', '--spacing=2', '--length=100']"/>
    <g id="piece_001">
      <path id="side_001" style="fill:none;stroke:#000000;stroke-width:0.0508" d="m 50 161 l 6.4444 0 l 0 -3 l 6 0 l 0 3 l 6.4445 0 l 0 -3 l 6 0 l 0 3 l 6.4444 0 l 0 -3 l 6 0 l 0 3 l 6.4445 0 l 0 -3 l 6 0 l 0 3 l 6.4442 0 l 0 -3 l 6 0 l 0 3 l 6.445 0 l 0 -3 l 6 0 l 0 3 l 6.444 0 l 0 -3 l 6 0 l 0 3 l 6.445 0 l 0 -3 l 6 0 l 0 3 l 6.444 0"/>
      <path id="side_002" style="fill:none;stroke:#000000;stroke-width:0.0508" d="m 156 161 l 0 4 l -3 0 l 0 6 l 3 0 l 0 7 l -3 0 l 0 6 l 3 0 l 0 7 l -3 0 l 0 6 l 3 0 l 0 4"/>
      <path id="hole_001" style="fill:none;stroke:#000000;stroke-width:0.0508" d="m 101.5 165 l 0 6 l 3 0 l 0 -6 l -3 0 z"/>
      <path id="hole_002" style="fill:none;stroke:#000000;stroke-width:0.0508" d="m 101.5 178 l 0 6 l 3 0 l 0 -6 l -3 0 z"/>
      <path id="hole_003" style="fill:none;stroke:#000000;stroke-width:0.0508" d="m 101.5 191 l 0 6 l 3 0 l 0 -6 l -3 0 z"/>
      <path id="side_003" style="fill:none;stroke:#000000;stroke-width:0.0508" d="m 156 201 l -6.444 0 l 0 3 l -6 0 l 0 -3 l -6.445 0 l 0 3 l -6 0 l 0 -3 l -6.444 0 l 0 3 l -6 0 l 0 -3 l -6.445 0 l 0 3 l -6 0 l 0 -3 l -6.4442 0 l 0 3 l -6 0 l 0 -3 l -6.4445 0 l 0 3 l -6 0 l 0 -3 l -6.4444 0 l 0 3 l -6 0 l 0 -3 l -6.4445 0 l 0 3 l -6 0 l 0 -3 l -6.4444 0"/>
      <path id="side_004" style="fill:none;stroke:#000000;stroke-width:0.0508" d="m 50 201 l 0 -4 l 3 0 l 0 -6 l -3 0 l 0 -7 l 3 0 l 0 -6 l -3 0 l 0 -7 l 3 0 l 0 -6 l -3 0 l 0 -4"/>
    </g>
    <g id="xdivider_001">
      <path id="side_005" style="fill:none;stroke:#000000;stroke-width:0.0508" d="m 0 209 l 6.44444 0 l 0 -3 l 5.99996 0 l 0 3 l 6.4445 0 l 0 -3 l 6 0 l 0 3 l 6.4444 0 l 0 -3 l 6 0 l 0 3 l 6.4445 0 l 0 -3 l 6 0 l 0 3 l 6.4444 0 l 0 -3 l 6 0 l 0 3 l 6.4445 0 l 0 -3 l 6 0 l 0 3 l 6.4444 0 l 0 -3 l 6 0 l 0 3 l 6.4445 0 l 0 -3 l 6 0 l 0 3 l 6.4444 0"/>
      <path id="side_006" style="fill:none;stroke:#000000;stroke-width:0.0508" d="m 106 209 l 0 4 l -3 0 l 0 6 l 3 0 l 0 7 l -3 0 l 0 6 l 3 0 l 0 7 l -3 0 l 0 6 l 3 0 l 0 4"/>
      <path id="slot_001" style="fill:none;stroke:#000000;stroke-width:0.0508" d="m 51.5 206 l 0 23 l 3 0 l 0 -23 l -3 0 z"/>
      <path id="side_007" style="fill:none;stroke:#000000;stroke-width:0.0508" d="m 106 249 l -6.4444 0 l 0 3 l -6 0 l 0 -3 l -6.4445 0 l 0 3 l -6 0 l 0 -3 l -6.4444 0 l 0 3 l -6 0 l 0 -3 l -6.4445 0 l 0 3 l -6 0 l 0 -3 l -6.4444 0 l 0 3 l -6 0 l 0 -3 l -6.4445 0 l 0 3 l -6 0 l 0 -3 l -6.4444 0 l 0 3 l -6 0 l 0 -3 l -6.4445 0 l 0 3 l -6 0 l 0 -3 l -6.4444 0"/>
      <path id="side_008" style="fill:none;stroke:#000000;stroke-width:0.0508" d="m 0 249 l 0 -4 l 3 0 l 0 -6 l -3 0 l 0 -7 l 3 0 l 0 -6 l -3 0 l 0 -7 l 3 0 l 0 -6 l -3 0 l 0 -4"/>
    </g>
    <g id="piece_002">
      <path id="side_009" style="fill:none;stroke:#000000;stroke-width:0.0508" d="m 5 53 l 4 0 l 0 -3 l 6 0 l 0 3 l 7 0 l 0 -3 l 6 0 l 0 3 l 7 0 l 0 -3 l 6 0 l 0 3 l 4 0"/>
      <path id="hole_004" style="fill:none;stroke:#000000;stroke-width:0.0508" d="m 5 104.5 l 4 0 l 0 -3 l -4 0 l 0 3 z"/>
      <path id="hole_005" style="fill:none;stroke:#000000;stroke-width:0.0508" d="m 15 104.5 l 7 0 l 0 -3 l -7 0 l 0 3 z"/>
      <path id="hole_006" style="fill:none;stroke:#000000;stroke-width:0.0508" d="m 28 104.5 l 7 0 l 0 -3 l -7 0 l 0 3 z"/>
      <path id="hole_007" style="fill:none;stroke:#000000;stroke-width:0.0508" d="m 41 104.5 l 7 0 l 0 3 l -7 0 l 0 -3 z"/>
      <path id="side_010" style="fill:none;stroke:#000000;stroke-width:0.0508" d="m 45 53 l 0 3.4444 l 3 0 l 0 6 l -3 0 l 0 6.4445 l 3 0 l 0 6 l -3 0 l 0 6.4444 l 3 0 l 0 6 l -3 0 l 0 6.4445 l 3 0 l 0 6 l -3 0 l 0 6.4442 l 3 0 l 0 6 l -3 0 l 0 6.445 l 3 0 l 0 6 l -3 0 l 0 6.444 l 3 0 l 0 6 l -3 0 l 0 6.445 l 3 0 l 0 6 l -3 0 l 0 3.444"/>
      <path id="side_011" style="fill:none;stroke:#000000;stroke-width:0.0508" d="m 45 153 l -4 0 l 0 3 l -6 0 l 0 -3 l -7 0 l 0 3 l -6 0 l 0 -3 l -7 0 l 0 3 l -6 0 l 0 -3 l -4 0"/>
      <path id="side_012" style="fill:none;stroke:#000000;stroke-width:0.0508" d="m 5 153 l 0 -3.444 l -3 0 l 0 -6 l 3 0 l 0 -6.445 l -3 0 l 0 -6 l 3 0 l 0 -6.444 l -3 0 l 0 -6 l 3 0 l 0 -6.445 l -3 0 l 0 -6 l 3 0 l 0 -6.4442 l -3 0 l 0 -6 l 3 0 l 0 -6.4445 l -3 0 l 0 -6 l 3 0 l 0 -6.4444 l -3 0 l 0 -6 l 3 0 l 0 -6.4445 l -3 0 l 0 -6 l 3 0 l 0 -3.4444"/>
    </g>
    <g id="ydivider_001">
      <path id="side_013" style="fill:none;stroke:#000000;stroke-width:0.0508" d="m 3 257 l 4 0 l 0 -3 l 6 0 l 0 3 l 7 0 l 0 -3 l 6 0 l 0 3 l 7 0 l 0 -3 l 6 0 l 0 3 l 4 0"/>
      <path id="slot_002" style="fill:none;stroke:#000000;stroke-width:0.0508" d="m 0 305.5 l 23 0 l 0 3 l -23 0 l 0 -3 z"/>
      <path id="side_014" style="fill:none;stroke:#000000;stroke-width:0.0508" d="m 43 257 l 0 3.444 l 3 0 l 0 6 l -3 0 l 0 6.445 l 3 0 l 0 6 l -3 0 l 0 6.444 l 3 0 l 0 6 l -3 0 l 0 6.445 l 3 0 l 0 6 l -3 0 l 0 6.444 l 3 0 l 0 6 l -3 0 l 0 6.445 l 3 0 l 0 6 l -3 0 l 0 6.444 l 3 0 l 0 6 l -3 0 l 0 6.445 l 3 0 l 0 6 l -3 0 l 0 3.444"/>
      <path id="side_015" style="fill:none;stroke:#000000;stroke-width:0.0508" d="m 43 357 l -4 0 l 0 3 l -6 0 l 0 -3 l -7 0 l 0 3 l -6 0 l 0 -3 l -7 0 l 0 3 l -6 0 l 0 -3 l -4 0"/>
      <path id="side_016" style="fill:none;stroke:#000000;stroke-width:0.0508" d="m 3 357 l 0 -3.444 l -3 0 l 0 -6 l 3 0 l 0 -6.445 l -3 0 l 0 -6 l 3 0 l 0 -6.444 l -3 0 l 0 -6 l 3 0 l 0 -6.445 l -3 0 l 0 -6 l 3 0 l 0 -6.444 l -3 0 l 0 -6 l 3 0 l 0 -6.445 l -3 0 l 0 -6 l 3 0 l 0 -6.444 l -3 0 l 0 -6 l 3 0 l 0 -6.445 l -3 0 l 0 -6 l 3 0 l 0 -3.444"/>
    </g>
    <g id="piece_003">
      <path id="side_017" style="fill:none;stroke:#000000;stroke-width:0.0508" d="m 50 50 l 6.4444 0 l 0 3 l 6 0 l 0 -3 l 6.4445 0 l 0 3 l 6 0 l 0 -3 l 6.4444 0 l 0 3 l 6 0 l 0 -3 l 6.4445 0 l 0 3 l 6 0 l 0 -3 l 6.4442 0 l 0 3 l 6 0 l 0 -3 l 6.445 0 l 0 3 l 6 0 l 0 -3 l 6.444 0 l 0 3 l 6 0 l 0 -3 l 6.445 0 l 0 3 l 6 0 l 0 -3 l 6.444 0"/>
      <path id="hole_008" style="fill:none;stroke:#000000;stroke-width:0.0508" d="m 56.4444 104.5 l 6 0 l 0 -3 l -6 0 l 0 3 z"/>
      <path id="hole_009" style="fill:none;stroke:#000000;stroke-width:0.0508" d="m 68.8889 104.5 l 6 0 l 0 -3 l -6 0 l 0 3 z"/>
      <path id="hole_010" style="fill:none;stroke:#000000;stroke-width:0.0508" d="m 81.3333 104.5 l 6 0 l 0 -3 l -6 0 l 0 3 z"/>
      <path id="hole_011" style="fill:none;stroke:#000000;stroke-width:0.0508" d="m 93.7778 104.5 l 6 0 l 0 -3 l -6 0 l 0 3 z"/>
      <path id="hole_012" style="fill:none;stroke:#000000;stroke-width:0.0508" d="m 106.222 104.5 l 6 0 l 0 -3 l -6 0 l 0 3 z"/>
      <path id="hole_013" style="fill:none;stroke:#000000;stroke-width:0.0508" d="m 118.667 104.5 l 6 0 l 0 -3 l -6 0 l 0 3 z"/>
      <path id="hole_014" style="fill:none;stroke:#000000;stroke-width:0.0508" d="m 131.111 104.5 l 6 0 l 0 -3 l -6 0 l 0 3 z"/>
      <path id="hole_015" style="fill:none;stroke:#000000;stroke-width:0.0508" d="m 143.556 104.5 l 6 0 l 0 -3 l -6 0 l 0 3 z"/>
      <path id="side_018" style="fill:none;stroke:#000000;stroke-width:0.0508" d="m 156 50 l 0 6.4444 l -3 0 l 0 6 l 3 0 l 0 6.4445 l -3 0 l 0 6 l 3 0 l 0 6.4444 l -3 0 l 0 6 l 3 0 l 0 6.4445 l -3 0 l 0 6 l 3 0 l 0 6.4442 l -3 0 l 0 6 l 3 0 l 0 6.445 l -3 0 l 0 6 l 3 0 l 0 6.444 l -3 0 l 0 6 l 3 0 l 0 6.445 l -3 0 l 0 6 l 3 0 l 0 6.444"/>
      <path id="hole_016" style="fill:none;stroke:#000000;stroke-width:0.0508" d="m 101.5 56.4444 l 0 6 l 3 0 l 0 -6 l -3 0 z"/>
      <path id="hole_017" style="fill:none;stroke:#000000;stroke-width:0.0508" d="m 101.5 68.8889 l 0 6 l 3 0 l 0 -6 l -3 0 z"/>
      <path id="hole_018" style="fill:none;stroke:#000000;stroke-width:0.0508" d="m 101.5 81.3333 l 0 6 l 3 0 l 0 -6 l -3 0 z"/>
      <path id="hole_019" style="fill:none;stroke:#000000;stroke-width:0.0508" d="m 101.5 93.7778 l 0 6 l 3 0 l 0 -6 l -3 0 z"/>
      <path id="hole_020" style="fill:none;stroke:#000000;stroke-width:0.0508" d="m 101.5 106.222 l 0 6 l 3 0 l 0 -6 l -3 0 z"/>
      <path id="hole_021" style="fill:none;stroke:#000000;stroke-width:0.0508" d="m 101.5 118.667 l 0 6 l 3 0 l 0 -6 l -3 0 z"/>
      <path id="hole_022" style="fill:none;stroke:#000000;stroke-width:0.0508" d="m 101.5 131.111 l 0 6 l 3 0 l 0 -6 l -3 0 z"/>
      <path id="hole_023" style="fill:none;stroke:#000000;stroke-width:0.0508" d="m 101.5 143.556 l 0 6 l 3 0 l 0 -6 l -3 0 z"/>
      <path id="side_019" style="fill:none;stroke:#000000;stroke-width:0.0508" d="m 156 156 l -6.444 0 l 0 -3 l -6 0 l 0 3 l -6.445 0 l 0 -3 l -6 0 l 0 3 l -6.444 0 l 0 -3 l -6 0 l 0 3 l -6.445 0 l 0 -3 l -6 0 l 0 3 l -6.4442 0 l 0 -3 l -6 0 l 0 3 l -6.4445 0 l 0 -3 l -6 0 l 0 3 l -6.4444 0 l 0 -3 l -6 0 l 0 3 l -6.4445 0 l 0 -3 l -6 0 l 0 3 l -6.4444 0"/>
      <path id="side_020" style="fill:none;stroke:#000000;stroke-width:0.0508" d="m 50 156 l 0 -6.444 l 3 0 l 0 -6 l -3 0 l 0 -6.445 l 3 0 l 0 -6 l -3 0 l 0 -6.444 l 3 0 l 0 -6 l -3 0 l 0 -6.445 l 3 0 l 0 -6 l -3 0 l 0 -6.4442 l 3 0 l 0 -6 l -3 0 l 0 -6.4445 l 3 0 l 0 -6 l -3 0 l 0 -6.4444 l 3 0 l 0 -6 l -3 0 l 0 -6.4445 l 3 0 l 0 -6 l -3 0 l 0 -6.4444"/>
    </g>
    <g id="piece_004">
      <path id="side_021" style="fill:none;stroke:#000000;stroke-width:0.0508" d="m 161 53 l 4 0 l 0 -3 l 6 0 l 0 3 l 7 0 l 0 -3 l 6 0 l 0 3 l 7 0 l 0 -3 l 6 0 l 0 3 l 4 0"/>
      <path id="hole_024" style="fill:none;stroke:#000000;stroke-width:0.0508" d="m 161 104.5 l 4 0 l 0 -3 l -4 0 l 0 3 z"/>
      <path id="hole_025" style="fill:none;stroke:#000000;stroke-width:0.0508" d="m 171 104.5 l 7 0 l 0 -3 l -7 0 l 0 3 z"/>
      <path id="hole_026" style="fill:none;stroke:#000000;stroke-width:0.0508" d="m 184 104.5 l 7 0 l 0 -3 l -7 0 l 0 3 z"/>
      <path id="hole_027" style="fill:none;stroke:#000000;stroke-width:0.0508" d="m 197 104.5 l 7 0 l 0 3 l -7 0 l 0 -3 z"/>
      <path id="side_022" style="fill:none;stroke:#000000;stroke-width:0.0508" d="m 201 53 l 0 3.4444 l 3 0 l 0 6 l -3 0 l 0 6.4445 l 3 0 l 0 6 l -3 0 l 0 6.4444 l 3 0 l 0 6 l -3 0 l 0 6.4445 l 3 0 l 0 6 l -3 0 l 0 6.4442 l 3 0 l 0 6 l -3 0 l 0 6.445 l 3 0 l 0 6 l -3 0 l 0 6.444 l 3 0 l 0 6 l -3 0 l 0 6.445 l 3 0 l 0 6 l -3 0 l 0 3.444"/>
      <path id="side_023" style="fill:none;stroke:#000000;stroke-width:0.0508" d="m 201 153 l -4 0 l 0 3 l -6 0 l 0 -3 l -7 0 l 0 3 l -6 0 l 0 -3 l -7 0 l 0 3 l -6 0 l 0 -3 l -4 0"/>
      <path id="side_024" style="fill:none;stroke:#000000;stroke-width:0.0508" d="m 161 153 l 0 -3.444 l -3 0 l 0 -6 l 3 0 l 0 -6.445 l -3 0 l 0 -6 l 3 0 l 0 -6.444 l -3 0 l 0 -6 l 3 0 l 0 -6.445 l -3 0 l 0 -6 l 3 0 l 0 -6.4442 l -3 0 l 0 -6 l 3 0 l 0 -6.4445 l -3 0 l 0 -6 l 3 0 l 0 -6.4444 l -3 0 l 0 -6 l 3 0 l 0 -6.4445 l -3 0 l 0 -6 l 3 0 l 0 -3.4444"/>
    </g>
    <g id="piece_005">
      <path id="side_025" style="fill:none;stroke:#000000;stroke-width:0.0508" d="m 206 50 l 6.444 0 l 0 3 l 6 0 l 0 -3 l 6.445 0 l 0 3 l 6 0 l 0 -3 l 6.444 0 l 0 3 l 6 0 l 0 -3 l 6.445 0 l 0 3 l 6 0 l 0 -3 l 6.444 0 l 0 3 l 6 0 l 0 -3 l 6.445 0 l 0 3 l 6 0 l 0 -3 l 6.444 0 l 0 3 l 6 0 l 0 -3 l 6.445 0 l 0 3 l 6 0 l 0 -3 l 6.444 0"/>
      <path id="hole_028" style="fill:none;stroke:#000000;stroke-width:0.0508" d="m 212.444 104.5 l 6 0 l 0 -3 l -6 0 l 0 3 z"/>
      <path id="hole_029" style="fill:none;stroke:#000000;stroke-width:0.0508" d="m 224.889 104.5 l 6 0 l 0 -3 l -6 0 l 0 3 z"/>
      <path id="hole_030" style="fill:none;stroke:#000000;stroke-width:0.0508" d="m 237.333 104.5 l 6 0 l 0 -3 l -6 0 l 0 3 z"/>
      <path id="hole_031" style="fill:none;stroke:#000000;stroke-width:0.0508" d="m 249.778 104.5 l 6 0 l 0 -3 l -6 0 l 0 3 z"/>
      <path id="hole_032" style="fill:none;stroke:#000000;stroke-width:0.0508" d="m 262.222 104.5 l 6 0 l 0 -3 l -6 0 l 0 3 z"/>
      <path id="hole_033" style="fill:none;stroke:#000000;stroke-width:0.0508" d="m 274.667 104.5 l 6 0 l 0 -3 l -6 0 l 0 3 z"/>
      <path id="hole_034" style="fill:none;stroke:#000000;stroke-width:0.0508" d="m 287.111 104.5 l 6 0 l 0 -3 l -6 0 l 0 3 z"/>
      <path id="hole_035" style="fill:none;stroke:#000000;stroke-width:0.0508" d="m 299.556 104.5 l 6 0 l 0 -3 l -6 0 l 0 3 z"/>
      <path id="side_026" style="fill:none;stroke:#000000;stroke-width:0.0508" d="m 312 50 l 0 6.4444 l -3 0 l 0 6 l 3 0 l 0 6.4445 l -3 0 l 0 6 l 3 0 l 0 6.4444 l -3 0 l 0 6 l 3 0 l 0 6.4445 l -3 0 l 0 6 l 3 0 l 0 6.4442 l -3 0 l 0 6 l 3 0 l 0 6.445 l -3 0 l 0 6 l 3 0 l 0 6.444 l -3 0 l 0 6 l 3 0 l 0 6.445 l -3 0 l 0 6 l 3 0 l 0 6.444"/>
      <path id="hole_036" style="fill:none;stroke:#000000;stroke-width:0.0508" d="m 257.5 56.4444 l 0 6 l 3 0 l 0 -6 l -3 0 z"/>
      <path id="hole_037" style="fill:none;stroke:#000000;stroke-width:0.0508" d="m 257.5 68.8889 l 0 6 l 3 0 l 0 -6 l -3 0 z"/>
      <path id="hole_038" style="fill:none;stroke:#000000;stroke-width:0.0508" d="m 257.5 81.3333 l 0 6 l 3 0 l 0 -6 l -3 0 z"/>
      <path id="hole_039" style="fill:none;stroke:#000000;stroke-width:0.0508" d="m 257.5 93.7778 l 0 6 l 3 0 l 0 -6 l -3 0 z"/>
      <path id="hole_040" style="fill:none;stroke:#000000;stroke-width:0.0508" d="m 257.5 106.222 l 0 6 l 3 0 l 0 -6 l -3 0 z"/>
      <path id="hole_041" style="fill:none;stroke:#000000;stroke-width:0.0508" d="m 257.5 118.667 l 0 6 l 3 0 l 0 -6 l -3 0 z"/>
      <path id="hole_042" style="fill:none;stroke:#000000;stroke-width:0.0508" d="m 257.5 131.111 l 0 6 l 3 0 l 0 -6 l -3 0 z"/>
      <path id="hole_043" style="fill:none;stroke:#000000;stroke-width:0.0508" d="m 257.5 143.556 l 0 6 l 3 0 l 0 -6 l -3 0 z"/>
      <path id="side_027" style="fill:none;stroke:#000000;stroke-width:0.0508" d="m 312 156 l -6.444 0 l 0 -3 l -6 0 l 0 3 l -6.445 0 l 0 -3 l -6 0 l 0 3 l -6.444 0 l 0 -3 l -6 0 l 0 3 l -6.445 0 l 0 -3 l -6 0 l 0 3 l -6.444 0 l 0 -3 l -6 0 l 0 3 l -6.445 0 l 0 -3 l -6 0 l 0 3 l -6.444 0 l 0 -3 l -6 0 l 0 3 l -6.445 0 l 0 -3 l -6 0 l 0 3 l -6.444 0"/>
      <path id="side_028" style="fill:none;stroke:#000000;stroke-width:0.0508" d="m 206 156 l 0 -6.444 l 3 0 l 0 -6 l -3 0 l 0 -6.445 l 3 0 l 0 -6 l -3 0 l 0 -6.444 l 3 0 l 0 -6 l -3 0 l 0 -6.445 l 3 0 l 0 -6 l -3 0 l 0 -6.4442 l 3 0 l 0 -6 l -3 0 l 0 -6.4445 l 3 0 l 0 -6 l -3 0 l 0 -6.4444 l 3 0 l 0 -6 l -3 0 l 0 -6.4445 l 3 0 l 0 -6 l -3 0 l 0 -6.4444"/>
    </g>
    <g id="piece_006">
      <path id="side_029" style="fill:none;stroke:#000000;stroke-width:0.0508" d="m 50 5 l 6.4444 0 l 0 -3 l 6 0 l 0 3 l 6.4445 0 l 0 -3 l 6 0 l 0 3 l 6.4444 0 l 0 -3 l 6 0 l 0 3 l 6.4445 0 l 0 -3 l 6 0 l 0 3 l 6.4442 0 l 0 -3 l 6 0 l 0 3 l 6.445 0 l 0 -3 l 6 0 l 0 3 l 6.444 0 l 0 -3 l 6 0 l 0 3 l 6.445 0 l 0 -3 l 6 0 l 0 3 l 6.444 0"/>
      <path id="side_030" style="fill:none;stroke:#000000;stroke-width:0.0508" d="m 156 5 l 0 4 l -3 0 l 0 6 l 3 0 l 0 7 l -3 0 l 0 6 l 3 0 l 0 7 l -3 0 l 0 6 l 3 0 l 0 4"/>
      <path id="hole_044" style="fill:none;stroke:#000000;stroke-width:0.0508" d="m 101.5 9 l 0 6 l 3 0 l 0 -6 l -3 0 z"/>
      <path id="hole_045" style="fill:none;stroke:#000000;stroke-width:0.0508" d="m 101.5 22 l 0 6 l 3 0 l 0 -6 l -3 0 z"/>
      <path id="hole_046" style="fill:none;stroke:#000000;stroke-width:0.0508" d="m 101.5 35 l 0 6 l 3 0 l 0 -6 l -3 0 z"/>
      <path id="side_031" style="fill:none;stroke:#000000;stroke-width:0.0508" d="m 156 45 l -6.444 0 l 0 3 l -6 0 l 0 -3 l -6.445 0 l 0 3 l -6 0 l 0 -3 l -6.444 0 l 0 3 l -6 0 l 0 -3 l -6.445 0 l 0 3 l -6 0 l 0 -3 l -6.4442 0 l 0 3 l -6 0 l 0 -3 l -6.4445 0 l 0 3 l -6 0 l 0 -3 l -6.4444 0 l 0 3 l -6 0 l 0 -3 l -6.4445 0 l 0 3 l -6 0 l 0 -3 l -6.4444 0"/>
      <path id="side_032" style="fill:none;stroke:#000000;stroke-width:0.0508" d="m 50 45 l 0 -4 l 3 0 l 0 -6 l -3 0 l 0 -7 l 3 0 l 0 -6 l -3 0 l 0 -7 l 3 0 l 0 -6 l -3 0 l 0 -4"/>
    </g>
  </g>
</svg>