<!-- Created with Inkscape (http://www.inkscape.org/) -->
<svg xmlns:inkscape="http://www.inkscape.org/namespaces/inkscape" xmlns:sodipodi="http://sodipodi.sourceforge.net/DTD/sodipodi-0.dtd" xmlns="http://www.w3.org/2000/svg" xmlns:svg="http://www.w3.org/2000/svg" width="361mm" height="253mm" viewBox="0 0 361 253" version="1.1" id="svg5" inkscape:version="1.1.2 (0a00cf5339, 2022-02-04)" sodipodi:docname="blank.svg">
  <sodipodi:namedview id="namedview7" pagecolor="#ffffff" bordercolor="#666666" borderopacity="1.0" inkscape:pageshadow="2" inkscape:pageopacity="0.0" inkscape:pagecheckerboard="0" inkscape:document-units="mm" showgrid="false" inkscape:zoom="0.64052329" inkscape:cx="397.33138" inkscape:cy="561.25984" inkscape:window-width="2086" inkscape:window-height="1376" inkscape:window-x="0" inkscape:window-y="0" inkscape:window-maximized="1" inkscape:current-layer="layer1"/>
  <defs id="defs2"/>
  <g inkscape:label="Layer 1" inkscape:groupmode="layer" id="layer1">
    <metadata text="createArgs=['--unit=mm', '--inside=1', '--width=100', '--depth=40', '--equal=0', '--tab=6', '--tabtype=0', '--tabsymmetry=0', '--dimpleheight=0', '--dimplelength=0', '--hairline=1', '--thickness=3', '--kerf=0', '--style=1', '--boxtype=1', '--div-l=1', '--div-w=1', '--keydiv=0', '--spacing=2', '--length=100']"/>
    <g id="piece_001">
      <path id="side_001" style="fill:none;stroke:#000000;stroke-width:0.0508" d="M 50 161 L 56.4444 161 L 56.4444 158 L 62.4444 158 L 62.4444 161 L 68.8889 161 L 68.8889 158 L 74.8889 158 L 74.8889 161 L 81.3333 161 L 81.3333 158 L 87.3333 158 L 87.3333 161 L 93.7778 161 L 93.7778 158 L 99.7778 158 L 99.7778 161 L 106.222 161 L 106.222 158 L 112.222 158 L 112.222 161 L 118.667 161 L 118.667 158 L 124.667 158 L 124.667 161 L 131.111 161 L 131.111 158 L 137.111 158 L 137.111 161 L 143.556 161 L 143.556 158 L 149.556 158 L 149.556 161 L 156 161"/>
      <path id="side_002" style="fill:none;stroke:#000000;stroke-width:0.0508" d="M 156 161 L 156 165 L 153 165 L 153 171 L 156 171 L 156 178 L 153 178 L 153 184 L 156 184 L 156 191 L 153 191 L 153 197 L 156 197 L 156 201"/>
      <path id="hole_001" style="fill:none;stroke:#000000;stroke-width:0.0508" d="M 104.5 165 L 104.5 171 L 101.5 171 L 101.5 165 L 104.5 165 Z"/>
      <path id="hole_002" style="fill:none;stroke:#000000;stroke-width:0.0508" d="M 104.5 178 L 104.5 184 L 101.5 184 L 101.5 178 L 104.5 178 Z"/>
      <path id="hole_003" style="fill:none;stroke:#000000;stroke-width:0.0508" d="M 104.5 191 L 104.5 197 L 101.5 197 L 101.5 191 L 104.5 191 Z"/>
      <path id="side_003" style="fill:none;stroke:#000000;stroke-width:0.0508" d="M 156 201 L 149.556 201 L 149.556 204 L 143.556 204 L 143.556 201 L 137.111 201 L 137.111 204 L 131.111 204 L 131.111 201 L 124.667 201 L 124.667 204 L 118.667 204 L 118.667 201 L 112.222 201 L 112.222 204 L 106.222 204 L 106.222 201 L 99.7778 201 L 99.7778 204 L 93.7778 204 L 93.7778 201 L 87.3333 201 L 87.3333 204 L 81.3333 204 L 81.3333 201 L 74.8889 201 L 74.8889 204 L 68.8889 204 L 68.8889 201 L 62.4444 201 L 62.4444 204 L 56.4444 204 L 56.4444 201 L 50 201"/>
      <path id="side_004" style="fill:none;stroke:#000000;stroke-width:0.0508" d="M 50 201 L 50 197 L 53 197 L 53 191 L 50 191 L 50 184 L 53 184 L 53 178 L 50 178 L 50 171 L 53 171 L 53 165 L 50 165 L 50 161"/>
    </g>
    <g id="xdivider_001">
      <path id="side_005" style="fill:none;stroke:#000000;stroke-width:0.0508" d="M 50 209 L 56.4444 209 L 56.4444 206 L 62.4444 206 L 62.4444 209 L 68.8889 209 L 68.8889 206 L 74.8889 206 L 74.8889 209 L 81.3333 209 L 81.3333 206 L 87.3333 206 L 87.3333 209 L 93.7778 209 L 93.7778 206 L 99.7778 206 L 99.7778 209 L 106.222 209 L 106.222 206 L 112.222 206 L 112.222 209 L 118.667 209 L 118.667 206 L 124.667 206 L 124.667 209 L 131.111 209 L 131.111 206 L 137.111 206 L 137.111 209 L 143.556 209 L 143.556 206 L 149.556 206 L 149.556 209 L 156 209"/>
      <path id="side_006" style="fill:none;stroke:#000000;stroke-width:0.0508" d="M 156 209 L 156 213 L 153 213 L 153 219 L 156 219 L 156 226 L 153 226 L 153 232 L 156 232 L 156 239 L 153 239 L 153 245 L 156 245 L 156 249"/>
      <path id="side_007" style="fill:none;stroke:#000000;stroke-width:0.0508" d="M 156 249 L 149.556 249 L 149.556 252 L 143.556 252 L 143.556 249 L 137.111 249 L 137.111 252 L 131.111 252 L 131.111 249 L 124.667 249 L 124.667 252 L 118.667 252 L 118.667 249 L 112.222 249 L 112.222 252 L 106.222 252 L 106.222 249 L 99.7778 249 L 99.7778 252 L 93.7778 252 L 93.7778 249 L 87.3333 249 L 87.3333 252 L 81.3333 252 L 81.3333 249 L 74.8889 249 L 74.8889 252 L 68.8889 252 L 68.8889 249 L 62.4444 249 L 62.4444 252 L 56.4444 252 L 56.4444 249 L 50 249"/>
      <path id="side_008" style="fill:none;stroke:#000000;stroke-width:0.0508" d="M 50 249 L 50 245 L 53 245 L 53 239 L 50 239 L 50 232 L 53 232 L 53 226 L 50 226 L 50 219 L 53 219 L 53 213 L 50 213 L 50 209"/>
      <path id="slot_001" style="fill:none;stroke:#000000;stroke-width:0.0508" d="M 101.5 252 L 101.5 229 L 104.5 229 L 104.5 252 L 101.5 252 Z"/>
    </g>
    <g id="piece_002">
      <path id="side_009" style="fill:none;stroke:#000000;stroke-width:0.0508" d="M 5 53 L 9 53 L 9 50 L 15 50 L 15 53 L 22 53 L 22 50 L 28 50 L 28 53 L 35 53 L 35 50 L 41 50 L 41 53 L 45 53"/>
      <path id="hole_004" style="fill:none;stroke:#000000;stroke-width:0.0508" d="M 5 101.5 L 9 101.5 L 9 104.5 L 5 104.5 L 5 101.5 Z"/>
      <path id="hole_005" style="fill:none;stroke:#000000;stroke-width:0.0508" d="M 15 101.5 L 22 101.5 L 22 104.5 L 15 104.5 L 15 101.5 Z"/>
      <path id="hole_006" style="fill:none;stroke:#000000;stroke-width:0.0508" d="M 28 101.5 L 35 101.5 L 35 104.5 L 28 104.5 L 28 101.5 Z"/>
      <path id="hole_007" style="fill:none;stroke:#000000;stroke-width:0.0508" d="M 41 101.5 L 45 101.5 L 45 104.5 L 41 104.5 L 41 101.5 Z"/>
      <path id="side_010" style="fill:none;stroke:#000000;stroke-width:0.0508" d="M 45 53 L 45 56.4444 L 48 56.4444 L 48 62.4444 L 45 62.4444 L 45 68.8889 L 48 68.8889 L 48 74.8889 L 45 74.8889 L 45 81.3333 L 48 81.3333 L 48 87.3333 L 45 87.3333 L 45 93.7778 L 48 93.7778 L 48 99.7778 L 45 99.7778 L 45 106.222 L 48 106.222 L 48 112.222 L 45 112.222 L 45 118.667 L 48 118.667 L 48 124.667 L 45 124.667 L 45 131.111 L 48 131.111 L 48 137.111 L 45 137.111 L 45 143.556 L 48 143.556 L 48 149.556 L 45 149.556 L 45 153"/>
      <path id="side_011" style="fill:none;stroke:#000000;stroke-width:0.0508" d="M 45 153 L 41 153 L 41 156 L 35 156 L 35 153 L 28 153 L 28 156 L 22 156 L 22 153 L 15 153 L 15 156 L 9 156 L 9 153 L 5 153"/>
      <path id="side_012" style="fill:none;stroke:#000000;stroke-width:0.0508" d="M 5 153 L 5 149.556 L 2 149.556 L 2 143.556 L 5 143.556 L 5 137.111 L 2 137.111 L 2 131.111 L 5 131.111 L 5 124.667 L 2 124.667 L 2 118.667 L 5 118.667 L 5 112.222 L 2 112.222 L 2 106.222 L 5 106.222 L 5 99.7778 L 2 99.7778 L 2 93.7778 L 5 93.7778 L 5 87.3333 L 2 87.3333 L 2 81.3333 L 5 81.3333 L 5 74.8889 L 2 74.8889 L 2 68.8889 L 5 68.8889 L 5 62.4444 L 2 62.4444 L 2 56.4444 L 5 56.4444 L 5 53"/>
    </g>
    <g id="ydivider_001">
      <path id="side_013" style="fill:none;stroke:#000000;stroke-width:0.0508" d="M 317 53 L 321 53 L 321 50 L 327 50 L 327 53 L 334 53 L 334 50 L 340 50 L 340 53 L 347 53 L 347 50 L 353 50 L 353 53 L 357 53"/>
      <path id="slot_002" style="fill:none;stroke:#000000;stroke-width:0.0508" d="M 314 101.5 L 337 101.5 L 337 104.5 L 314 104.5 L 314 101.5 Z"/>
      <path id="side_014" style="fill:none;stroke:#000000;stroke-width:0.0508" d="M 357 53 L 357 56.4444 L 360 56.4444 L 360 62.4444 L 357 62.4444 L 357 68.8889 L 360 68.8889 L 360 74.8889 L 357 74.8889 L 357 81.3333 L 360 81.3333 L 360 87.3333 L 357 87.3333 L 357 93.7778 L 360 93.7778 L 360 99.7778 L 357 99.7778 L 357 106.222 L 360 106.222 L 360 112.222 L 357 112.222 L 357 118.667 L 360 118.667 L 360 124.667 L 357 124.667 L 357 131.111 L 360 131.111 L 360 137.111 L 357 137.111 L 357 143.556 L 360 143.556 L 360 149.556 L 357 149.556 L 357 153"/>
      <path id="side_015" style="fill:none;stroke:#000000;stroke-width:0.0508" d="M 357 153 L 353 153 L 353 156 L 347 156 L 347 153 L 340 153 L 340 156 L 334 156 L 334 153 L 327 153 L 327 156 L 321 156 L 321 153 L 317 153"/>
      <path id="side_016" style="fill:none;stroke:#000000;stroke-width:0.0508" d="M 317 153 L 317 149.556 L 314 149.556 L 314 143.556 L 317 143.556 L 317 137.111 L 314 137.111 L 314 131.111 L 317 131.111 L 317 124.667 L 314 124.667 L 314 118.667 L 317 118.667 L 317 112.222 L 314 112.222 L 314 106.222 L 317 106.222 L 317 99.7778 L 314 99.7778 L 314 93.7778 L 317 93.7778 L 317 87.3333 L 314 87.3333 L 314 81.3333 L 317 81.3333 L 317 74.8889 L 314 74.8889 L 314 68.8889 L 317 68.8889 L 317 62.4444 L 314 62.4444 L 314 56.4444 L 317 56.4444 L 317 53"/>
    </g>
    <g id="piece_003">
      <path id="side_017" style="fill:none;stroke:#000000;stroke-width:0.0508" d="M 50 50 L 56.4444 50 L 56.4444 53 L 62.4444 53 L 62.4444 50 L 68.8889 50 L 68.8889 53 L 74.8889 53 L 74.8889 50 L 81.3333 50 L 81.3333 53 L 87.3333 53 L 87.3333 50 L 93.7778 50 L 93.7778 53 L 99.7778 53 L 99.7778 50 L 106.222 50 L 106.222 53 L 112.222 53 L 112.222 50 L 118.667 50 L 118.667 53 L 124.667 53 L 124.667 50 L 131.111 50 L 131.111 53 L 137.111 53 L 137.111 50 L 143.556 50 L 143.556 53 L 149.556 53 L 149.556 50 L 156 50"/>
      <path id="hole_008" style="fill:none;stroke:#000000;stroke-width:0.0508" d="M 56.4444 101.5 L 62.4444 101.5 L 62.4444 104.5 L 56.4444 104.5 L 56.4444 101.5 Z"/>
      <path id="hole_009" style="fill:none;stroke:#000000;stroke-width:0.0508" d="M 68.8889 101.5 L 74.8889 101.5 L 74.8889 104.5 L 68.8889 104.5 L 68.8889 101.5 Z"/>
      <path id="hole_010" style="fill:none;stroke:#000000;stroke-width:0.0508" d="M 81.3333 101.5 L 87.3333 101.5 L 87.3333 104.5 L 81.3333 104.5 L 81.3333 101.5 Z"/>
      <path id="hole_011" style="fill:none;stroke:#000000;stroke-width:0.0508" d="M 93.7778 101.5 L 99.7778 101.5 L 99.7778 104.5 L 93.7778 104.5 L 93.7778 101.5 Z"/>
      <path id="hole_012" style="fill:none;stroke:#000000;stroke-width:0.0508" d="M 106.222 101.5 L 112.222 101.5 L 112.222 104.5 L 106.222 104.5 L 106.222 101.5 Z"/>
      <path id="hole_013" style="fill:none;stroke:#000000;stroke-width:0.0508" d="M 118.667 101.5 L 124.667 101.5 L 124.667 104.5 L 118.667 104.5 L 118.667 101.5 Z"/>
      <path id="hole_014" style="fill:none;stroke:#000000;stroke-width:0.0508" d="M 131.111 101.5 L 137.111 101.5 L 137.111 104.5 L 131.111 104.5 L 131.111 101.5 Z"/>
      <path id="hole_015" style="fill:none;stroke:#000000;stroke-width:0.0508" d="M 143.556 101.5 L 149.556 101.5 L 149.556 104.5 L 143.556 104.5 L 143.556 101.5 Z"/>
      <path id="side_018" style="fill:none;stroke:#000000;stroke-width:0.0508" d="M 156 50 L 156 56.4444 L 153 56.4444 L 153 62.4444 L 156 62.4444 L 156 68.8889 L 153 68.8889 L 153 74.8889 L 156 74.8889 L 156 81.3333 L 153 81.3333 L 153 87.3333 L 156 87.3333 L 156 93.7778 L 153 93.7778 L 153 99.7778 L 156 99.7778 L 156 106.222 L 153 106.222 L 153 112.222 L 156 112.222 L 156 118.667 L 153 118.667 L 153 124.667 L 156 124.667 L 156 131.111 L 153 131.111 L 153 137.111 L 156 137.111 L 156 143.556 L 153 143.556 L 153 149.556 L 156 149.556 L 156 156"/>
      <path id="hole_016" style="fill:none;stroke:#000000;stroke-width:0.0508" d="M 104.5 56.4444 L 104.5 62.4444 L 101.5 62.4444 L 101.5 56.4444 L 104.5 56.4444 Z"/>
      <path id="hole_017" style="fill:none;stroke:#000000;stroke-width:0.0508" d="M 104.5 68.8889 L 104.5 74.8889 L 101.5 74.8889 L 101.5 68.8889 L 104.5 68.8889 Z"/>
      <path id="hole_018" style="fill:none;stroke:#000000;stroke-width:0.0508" d="M 104.5 81.3333 L 104.5 87.3333 L 101.5 87.3333 L 101.5 81.3333 L 104.5 81.3333 Z"/>
      <path id="hole_019" style="fill:none;stroke:#000000;stroke-width:0.0508" d="M 104.5 93.7778 L 104.5 99.7778 L 101.5 99.7778 L 101.5 93.7778 L 104.5 93.7778 Z"/>
      <path id="hole_020" style="fill:none;stroke:#000000;stroke-width:0.0508" d="M 104.5 106.222 L 104.5 112.222 L 101.5 112.222 L 101.5 106.222 L 104.5 106.222 Z"/>
      <path id="hole_021" style="fill:none;stroke:#000000;stroke-width:0.0508" d="M 104.5 118.667 L 104.5 124.667 L 101.5 124.667 L 101.5 118.667 L 104.5 118.667 Z"/>
      <path id="hole_022" style="fill:none;stroke:#000000;stroke-width:0.0508" d="M 104.5 131.111 L 104.5 137.111 L 101.5 137.111 L 101.5 131.111 L 104.5 131.111 Z"/>
      <path id="hole_023" style="fill:none;stroke:#000000;stroke-width:0.0508" d="M 104.5 143.556 L 104.5 149.556 L 101.5 149.556 L 101.5 143.556 L 104.5 143.556 Z"/>
      <path id="side_019" style="fill:none;stroke:#000000;stroke-width:0.0508" d="M 156 156 L 149.556 156 L 149.556 153 L 143.556 153 L 143.556 156 L 137.111 156 L 137.111 153 L 131.111 153 L 131.111 156 L 124.667 156 L 124.667 153 L 118.667 153 L 118.667 156 L 112.222 156 L 112.222 153 L 106.222 153 L 106.222 156 L 99.7778 156 L 99.7778 153 L 93.7778 153 L 93.7778 156 L 87.3333 156 L 87.3333 153 L 81.3333 153 L 81.3333 156 L 74.8889 156 L 74.8889 153 L 68.8889 153 L 68.8889 156 L 62.4444 156 L 62.4444 153 L 56.4444 153 L 56.4444 156 L 50 156"/>
      <path id="side_020" style="fill:none;stroke:#000000;stroke-width:0.0508" d="M 50 156 L 50 149.556 L 53 149.556 L 53 143.556 L 50 143.556 L 50 137.111 L 53 137.111 L 53 131.111 L 50 131.111 L 50 124.667 L 53 124.667 L 53 118.667 L 50 118.667 L 50 112.222 L 53 112.222 L 53 106.222 L 50 106.222 L 50 99.7778 L 53 99.7778 L 53 93.7778 L 50 93.7778 L 50 87.3333 L 53 87.3333 L 53 81.3333 L 50 81.3333 L 50 74.8889 L 53 74.8889 L 53 68.8889 L 50 68.8889 L 50 62.4444 L 53 62.4444 L 53 56.4444 L 50 56.4444 L 50 50"/>
    </g>
    <g id="piece_004">
      <path id="side_021" style="fill:none;stroke:#000000;stroke-width:0.0508" d="M 161 53 L 165 53 L 165 50 L 171 50 L 171 53 L 178 53 L 178 50 L 184 50 L 184 53 L 191 53 L 191 50 L 197 50 L 197 53 L 201 53"/>
      <path id="hole_024" style="fill:none;stroke:#000000;stroke-width:0.0508" d="M 161 101.5 L 165 101.5 L 165 104.5 L 161 104.5 L 161 101.5 Z"/>
      <path id="hole_025" style="fill:none;stroke:#000000;stroke-width:0.0508" d="M 171 101.5 L 178 101.5 L 178 104.5 L 171 104.5 L 171 101.5 Z"/>
      <path id="hole_026" style="fill:none;stroke:#000000;stroke-width:0.0508" d="M 184 101.5 L 191 101.5 L 191 104.5 L 184 104.5 L 184 101.5 Z"/>
      <path id="hole_027" style="fill:none;stroke:#000000;stroke-width:0.0508" d="M 197 101.5 L 201 101.5 L 201 104.5 L 197 104.5 L 197 101.5 Z"/>
      <path id="side_022" style="fill:none;stroke:#000000;stroke-width:0.0508" d="M 201 53 L 201 56.4444 L 204 56.4444 L 204 62.4444 L 201 62.4444 L 201 68.8889 L 204 68.8889 L 204 74.8889 L 201 74.8889 L 201 81.3333 L 204 81.3333 L 204 87.3333 L 201 87.3333 L 201 93.7778 L 204 93.7778 L 204 99.7778 L 201 99.7778 L 201 106.222 L 204 106.222 L 204 112.222 L 201 112.222 L 201 118.667 L 204 118.667 L 204 124.667 L 201 124.667 L 201 131.111 L 204 131.111 L 204 137.111 L 201 137.111 L 201 143.556 L 204 143.556 L 204 149.556 L 201 149.556 L 201 153"/>
      <path id="side_023" style="fill:none;stroke:#000000;stroke-width:0.0508" d="M 201 153 L 197 153 L 197 156 L 191 156 L 191 153 L 184 153 L 184 156 L 178 156 L 178 153 L 171 153 L 171 156 L 165 156 L 165 153 L 161 153"/>
      <path id="side_024" style="fill:none;stroke:#000000;stroke-width:0.0508" d="M 161 153 L 161 149.556 L 158 149.556 L 158 143.556 L 161 143.556 L 161 137.111 L 158 137.111 L 158 131.111 L 161 131.111 L 161 124.667 L 158 124.667 L 158 118.667 L 161 118.667 L 161 112.222 L 158 112.222 L 158 106.222 L 161 106.222 L 161 99.7778 L 158 99.7778 L 158 93.7778 L 161 93.7778 L 161 87.3333 L 158 87.3333 L 158 81.3333 L 161 81.3333 L 161 74.8889 L 158 74.8889 L 158 68.8889 L 161 68.8889 L 161 62.4444 L 158 62.4444 L 158 56.4444 L 161 56.4444 L 161 53"/>
    </g>
    <g id="piece_005">
      <path id="side_025" style="fill:none;stroke:#000000;stroke-width:0.0508" d="M 206 50 L 212.444 50 L 212.444 53 L 218.444 53 L 218.444 50 L 224.889 50 L 224.889 53 L 230.889 53 L 230.889 50 L 237.333 50 L 237.333 53 L 243.333 53 L 243.333 50 L 249.778 50 L 249.778 53 L 255.778 53 L 255.778 50 L 262.222 50 L 262.222 53 L 268.222 53 L 268.222 50 L 274.667 50 L 274.667 53 L 280.667 53 L 280.667 50 L 287.111 50 L 287.111 53 L 293.111 53 L 293.111 50 L 299.556 50 L 299.556 53 L 305.556 53 L 305.556 50 L 312 50"/>
      <path id="hole_028" style="fill:none;stroke:#000000;stroke-width:0.0508" d="M 212.444 101.5 L 218.444 101.5 L 218.444 104.5 L 212.444 104.5 L 212.444 101.5 Z"/>
      <path id="hole_029" style="fill:none;stroke:#000000;stroke-width:0.0508" d="M 224.889 101.5 L 230.889 101.5 L 230.889 104.5 L 224.889 104.5 L 224.889 101.5 Z"/>
      <path id="hole_030" style="fill:none;stroke:#000000;stroke-width:0.0508" d="M 237.333 101.5 L 243.333 101.5 L 243.333 104.5 L 237.333 104.5 L 237.333 101.5 Z"/>
      <path id="hole_031" style="fill:none;stroke:#000000;stroke-width:0.0508" d="M 249.778 101.5 L 255.778 101.5 L 255.778 104.5 L 249.778 104.5 L 249.778 101.5 Z"/>
      <path id="hole_032" style="fill:none;stroke:#000000;stroke-width:0.0508" d="M 262.222 101.5 L 268.222 101.5 L 268.222 104.5 L 262.222 104.5 L 262.222 101.5 Z"/>
      <path id="hole_033" style="fill:none;stroke:#000000;stroke-width:0.0508" d="M 274.667 101.5 L 280.667 101.5 L 280.667 104.5 L 274.667 104.5 L 274.667 101.5 Z"/>
      <path id="hole_034" style="fill:none;stroke:#000000;stroke-width:0.0508" d="M 287.111 101.5 L 293.111 101.5 L 293.111 104.5 L 287.111 104.5 L 287.111 101.5 Z"/>
      <path id="hole_035" style="fill:none;stroke:#000000;stroke-width:0.0508" d="M 299.556 101.5 L 305.556 101.5 L 305.556 104.5 L 299.556 104.5 L 299.556 101.5 Z"/>
      <path id="side_026" style="fill:none;stroke:#000000;stroke-width:0.0508" d="M 312 50 L 312 56.4444 L 309 56.4444 L 309 62.4444 L 312 62.4444 L 312 68.8889 L 309 68.8889 L 309 74.8889 L 312 74.8889 L 312 81.3333 L 309 81.3333 L 309 87.3333 L 312 87.3333 L 312 93.7778 L 309 93.7778 L 309 99.7778 L 312 99.7778 L 312 106.222 L 309 106.222 L 309 112.222 L 312 112.222 L 312 118.667 L 309 118.667 L 309 124.667 L 312 124.667 L 312 131.111 L 309 131.111 L 309 137.111 L 312 137.111 L 312 143.556 L 309 143.556 L 309 149.556 L 312 149.556 L 312 156"/>
      <path id="hole_036" style="fill:none;stroke:#000000;stroke-width:0.0508" d="M 260.5 56.4444 L 260.5 62.4444 L 257.5 62.4444 L 257.5 56.4444 L 260.5 56.4444 Z"/>
      <path id="hole_037" style="fill:none;stroke:#000000;stroke-width:0.0508" d="M 260.5 68.8889 L 260.5 74.8889 L 257.5 74.8889 L 257.5 68.8889 L 260.5 68.8889 Z"/>
      <path id="hole_038" style="fill:none;stroke:#000000;stroke-width:0.0508" d="M 260.5 81.3333 L 260.5 87.3333 L 257.5 87.3333 L 257.5 81.3333 L 260.5 81.3333 Z"/>
      <path id="hole_039" style="fill:none;stroke:#000000;stroke-width:0.0508" d="M 260.5 93.7778 L 260.5 99.7778 L 257.5 99.7778 L 257.5 93.7778 L 260.5 93.7778 Z"/>
      <path id="hole_040" style="fill:none;stroke:#000000;stroke-width:0.0508" d="M 260.5 106.222 L 260.5 112.222 L 257.5 112.222 L 257.5 106.222 L 260.5 106.222 Z"/>
      <path id="hole_041" style="fill:none;stroke:#000000;stroke-width:0.0508" d="M 260.5 118.667 L 260.5 124.667 L 257.5 124.667 L 257.5 118.667 L 260.5 118.667 Z"/>
      <path id="hole_042" style="fill:none;stroke:#000000;stroke-width:0.0508" d="M 260.5 131.111 L 260.5 137.111 L 257.5 137.111 L 257.5 131.111 L 260.5 131.111 Z"/>
      <path id="hole_043" style="fill:none;stroke:#000000;stroke-width:0.0508" d="M 260.5 143.556 L 260.5 149.556 L 257.5 149.556 L 257.5 143.556 L 260.5 143.556 Z"/>
      <path id="side_027" style="fill:none;stroke:#000000;stroke-width:0.0508" d="M 312 156 L 305.556 156 L 305.556 153 L 299.556 153 L 299.556 156 L 293.111 156 L 293.111 153 L 287.111 153 L 287.111 156 L 280.667 156 L 280.667 153 L 274.667 153 L 274.667 156 L 268.222 156 L 268.222 153 L 262.222 153 L 262.222 156 L 255.778 156 L 255.778 153 L 249.778 153 L 249.778 156 L 243.333 156 L 243.333 153 L 237.333 153 L 237.333 156 L 230.889 156 L 230.889 153 L 224.889 153 L 224.889 156 L 218.444 156 L 218.444 153 L 212.444 153 L 212.444 156 L 206 156"/>
      <path id="side_028" style="fill:none;stroke:#000000;stroke-width:0.0508" d="M 206 156 L 206 149.556 L 209 149.556 L 209 143.556 L 206 143.556 L 206 137.111 L 209 137.111 L 209 131.111 L 206 131.111 L 206 124.667 L 209 124.667 L 209 118.667 L 206 118.667 L 206 112.222 L 209 112.222 L 209 106.222 L 206 106.222 L 206 99.7778 L 209 99.7778 L 209 93.7778 L 206 93.7778 L 206 87.3333 L 209 87.3333 L 209 81.3333 L 206 81.3333 L 206 74.8889 L 209 74.8889 L 209 68.8889 L 206 68.8889 L 206 62.4444 L 209 62.4444 L 209 56.4444 L 206 56.4444 L 206 50"/>
    </g>
    <g id="piece_006">
      <path id="side_029" style="fill:none;stroke:#000000;stroke-width:0.0508" d="M 50 5 L 56.4444 5 L 56.4444 2 L 62.4444 2 L 62.4444 5 L 68.8889 5 L 68.8889 2 L 74.8889 2 L 74.8889 5 L 81.3333 5 L 81.3333 2 L 87.3333 2 L 87.3333 5 L 93.7778 5 L 93.7778 2 L 99.7778 2 L 99.7778 5 L 106.222 5 L 106.222 2 L 112.222 2 L 112.222 5 L 118.667 5 L 118.667 2 L 124.667 2 L 124.667 5 L 131.111 5 L 131.111 2 L 137.111 2 L 137.111 5 L 143.556 5 L 143.556 2 L 149.556 2 L 149.556 5 L 156 5"/>
      <path id="side_030" style="fill:none;stroke:#000000;stroke-width:0.0508" d="M 156 5 L 156 9 L 153 9 L 153 15 L 156 15 L 156 22 L 153 22 L 153 28 L 156 28 L 156 35 L 153 35 L 153 41 L 156 41 L 156 45"/>
      <path id="hole_044" style="fill:none;stroke:#000000;stroke-width:0.0508" d="M 104.5 9 L 104.5 15 L 101.5 15 L 101.5 9 L 104.5 9 Z"/>
      <path id="hole_045" style="fill:none;stroke:#000000;stroke-width:0.0508" d="M 104.5 22 L 104.5 28 L 101.5 28 L 101.5 22 L 104.5 22 Z"/>
      <path id="hole_046" style="fill:none;stroke:#000000;stroke-width:0.0508" d="M 104.5 35 L 104.5 41 L 101.5 41 L 101.5 35 L 104.5 35 Z"/>
      <path id="side_031" style="fill:none;stroke:#000000;stroke-width:0.0508" d="M 156 45 L 149.556 45 L 149.556 48 L 143.556 48 L 143.556 45 L 137.111 45 L 137.111 48 L 131.111 48 L 131.111 45 L 124.667 45 L 124.667 48 L 118.667 48 L 118.667 45 L 112.222 45 L 112.222 48 L 106.222 48 L 106.222 45 L 99.7778 45 L 99.7778 48 L 93.7778 48 L 93.7778 45 L 87.3333 45 L 87.3333 48 L 81.3333 48 L 81.3333 45 L 74.8889 45 L 74.8889 48 L 68.8889 48 L 68.8889 45 L 62.4444 45 L 62.4444 48 L 56.4444 48 L 56.4444 45 L 50 45"/>
      <path id="side_032" style="fill:none;stroke:#000000;stroke-width:0.0508" d="M 50 45 L 50 41 L 53 41 L 53 35 L 50 35 L 50 28 L 53 28 L 53 22 L 50 22 L 50 15 L 53 15 L 53 9 L 50 9 L 50 5"/>
    </g>
  </g>
</svg>