<!-- Created with Inkscape (http://www.inkscape.org/) -->
<svg xmlns:inkscape="http://www.inkscape.org/namespaces/inkscape" xmlns:sodipodi="http://sodipodi.sourceforge.net/DTD/sodipodi-0.dtd" xmlns="http://www.w3.org/2000/svg" xmlns:svg="http://www.w3.org/2000/svg" width="269mm" height="356mm" viewBox="0 0 269 356" version="1.1" id="svg5" inkscape:version="1.1.2 (0a00cf5339, 2022-02-04)" sodipodi:docname="blank.svg">
  <sodipodi:namedview id="namedview7" pagecolor="#ffffff" bordercolor="#666666" borderopacity="1.0" inkscape:pageshadow="2" inkscape:pageopacity="0.0" inkscape:pagecheckerboard="0" inkscape:document-units="mm" showgrid="false" inkscape:zoom="0.64052329" inkscape:cx="397.33138" inkscape:cy="561.25984" inkscape:window-width="2086" inkscape:window-height="1376" inkscape:window-x="0" inkscape:window-y="0" inkscape:window-maximized="1" inkscape:current-layer="layer1"/>
  <defs id="defs2"/>
  <g inkscape:label="Layer 1" inkscape:groupmode="layer" id="layer1">
    <metadata text="createArgs=['--unit=mm', '--inside=1', '--length=80', '--width=100', '--depth=40', '--equal=0', '--tab=6', '--tabtype=0', '--tabsymmetry=0', '--dimpleheight=0', '--dimplelength=0', '--hairline=1', '--thickness=3', '--kerf=0', '--style=1', '--boxtype=1', '--div_l=1', '--div_w=1', '--keydiv=0', '--spacing=1']"/>
    <path id="piece_001" style="fill:none;stroke:#000000;stroke-width:0.0508" d="M 48 162 L 51 162 L 51 168 L 48 168 L 48 175 L 51 175 L 51 181 L 48 181 L 48 188 L 51 188 L 51 194 L 48 194 L 48 198 L 55.1429 198 L 55.1429 201 L 61.1429 201 L 61.1429 198 L 68.2857 198 L 68.2857 201 L 74.2857 201 L 74.2857 198 L 81.4286 198 L 81.4286 201 L 87.4286 201 L 87.4286 198 L 94.5714 198 L 94.5714 201 L 100.571 201 L 100.571 198 L 107.714 198 L 107.714 201 L 113.714 201 L 113.714 198 L 120.857 198 L 120.857 201 L 126.857 201 L 126.857 198 L 134 198 L 134 194 L 131 194 L 131 188 L 134 188 L 134 181 L 131 181 L 131 175 L 134 175 L 134 168 L 131 168 L 131 162 L 134 162 L 134 158 L 126.857 158 L 126.857 155 L 120.857 155 L 120.857 158 L 113.714 158 L 113.714 155 L 107.714 155 L 107.714 158 L 100.571 158 L 100.571 155 L 94.5714 155 L 94.5714 158 L 87.4286 158 L 87.4286 155 L 81.4286 155 L 81.4286 158 L 74.2857 158 L 74.2857 155 L 68.2857 155 L 68.2857 158 L 61.1429 158 L 61.1429 155 L 55.1429 155 L 55.1429 158 L 48 158 L 48 162 Z M 89.5 162 L 92.5 162 L 92.5 168 L 89.5 168 L 89.5 162 Z M 89.5 175 L 92.5 175 L 92.5 181 L 89.5 181 L 89.5 175 Z M 89.5 188 L 92.5 188 L 92.5 194 L 89.5 194 L 89.5 188 Z"/>
    <path id="xdivider_001" style="fill:none;stroke:#000000;stroke-width:0.0508" d="M 1 209 L 4 209 L 4 215 L 1 215 L 1 222 L 4 222 L 4 228 L 1 228 L 1 235 L 4 235 L 4 241 L 1 241 L 1 245 L 8.1429 245 L 8.1429 248 L 14.1429 248 L 14.1429 245 L 21.2857 245 L 21.2857 248 L 27.2857 248 L 27.2857 245 L 34.4286 245 L 34.4286 248 L 40.4286 248 L 40.4286 245 L 47.5714 245 L 47.5714 248 L 53.5714 248 L 53.5714 245 L 60.7143 245 L 60.7143 248 L 66.7143 248 L 66.7143 245 L 73.8571 245 L 73.8571 248 L 79.8571 248 L 79.8571 245 L 87 245 L 87 241 L 84 241 L 84 235 L 87 235 L 87 228 L 84 228 L 84 222 L 87 222 L 87 215 L 84 215 L 84 209 L 87 209 L 87 205 L 79.8571 205 L 79.8571 202 L 73.8571 202 L 73.8571 205 L 66.7143 205 L 66.7143 202 L 60.7143 202 L 60.7143 205 L 53.5714 205 L 53.5714 202 L 47.5714 202 L 47.5714 205 L 45.5 205 L 45.5 222 L 42.5 222 L 42.5 205 L 40.4286 205 L 40.4286 202 L 34.4286 202 L 34.4286 205 L 27.2857 205 L 27.2857 202 L 21.2857 202 L 21.2857 205 L 14.1429 205 L 14.1429 202 L 8.14286 202 L 8.14286 205 L 1 205 L 1 209 Z"/>
    <path id="piece_002" style="fill:none;stroke:#000000;stroke-width:0.0508" d="M 4 54.4444 L 1 54.4444 L 1 60.4444 L 4 60.4444 L 4 66.8889 L 1 66.8889 L 1 72.8889 L 4 72.8889 L 4 79.3333 L 1 79.3333 L 1 85.3333 L 4 85.3333 L 4 91.7778 L 1 91.7778 L 1 97.7778 L 4 97.7778 L 4 99.5 L 8 99.5 L 8 102.5 L 4 102.5 L 4 104.222 L 1 104.222 L 1 110.222 L 4 110.222 L 4 116.667 L 1 116.667 L 1 122.667 L 4 122.667 L 4 129.111 L 1 129.111 L 1 135.111 L 4 135.111 L 4 141.556 L 1 141.556 L 1 147.556 L 4 147.556 L 4 151 L 8 151 L 8 154 L 14 154 L 14 151 L 21 151 L 21 154 L 27 154 L 27 151 L 34 151 L 34 154 L 40 154 L 40 151 L 44 151 L 44 147.556 L 47 147.556 L 47 141.556 L 44 141.556 L 44 135.111 L 47 135.111 L 47 129.111 L 44 129.111 L 44 122.667 L 47 122.667 L 47 116.667 L 44 116.667 L 44 110.222 L 47 110.222 L 47 104.222 L 44 104.222 L 44 102.5 L 40 102.5 L 40 99.5 L 44 99.5 L 44 97.7778 L 47 97.7778 L 47 91.7778 L 44 91.7778 L 44 85.3333 L 47 85.3333 L 47 79.3333 L 44 79.3333 L 44 72.8889 L 47 72.8889 L 47 66.8889 L 44 66.8889 L 44 60.4444 L 47 60.4444 L 47 54.4444 L 44 54.4444 L 44 51 L 40 51 L 40 48 L 34 48 L 34 51 L 27 51 L 27 48 L 21 48 L 21 51 L 14 51 L 14 48 L 8 48 L 8 51 L 4 51 L 4 54.4444 Z M 14 99.5 L 21 99.5 L 21 102.5 L 14 102.5 L 14 99.5 Z M 27 99.5 L 34 99.5 L 34 102.5 L 27 102.5 L 27 99.5 Z"/>
    <path id="ydivider_001" style="fill:none;stroke:#000000;stroke-width:0.0508" d="M 4 255.444 L 1 255.444 L 1 261.444 L 4 261.444 L 4 267.889 L 1 267.889 L 1 273.889 L 4 273.889 L 4 280.333 L 1 280.333 L 1 286.333 L 4 286.333 L 4 292.778 L 1 292.778 L 1 298.778 L 4 298.778 L 4 300.5 L 21 300.5 L 21 303.5 L 4 303.5 L 4 305.222 L 1 305.222 L 1 311.222 L 4 311.222 L 4 317.667 L 1 317.667 L 1 323.667 L 4 323.667 L 4 330.111 L 1 330.111 L 1 336.111 L 4 336.111 L 4 342.556 L 1 342.556 L 1 348.556 L 4 348.556 L 4 352 L 8 352 L 8 355 L 14 355 L 14 352 L 21 352 L 21 355 L 27 355 L 27 352 L 34 352 L 34 355 L 40 355 L 40 352 L 44 352 L 44 348.556 L 47 348.556 L 47 342.556 L 44 342.556 L 44 336.111 L 47 336.111 L 47 330.111 L 44 330.111 L 44 323.667 L 47 323.667 L 47 317.667 L 44 317.667 L 44 311.222 L 47 311.222 L 47 305.222 L 44 305.222 L 44 298.778 L 47 298.778 L 47 292.778 L 44 292.778 L 44 286.333 L 47 286.333 L 47 280.333 L 44 280.333 L 44 273.889 L 47 273.889 L 47 267.889 L 44 267.889 L 44 261.444 L 47 261.444 L 47 255.444 L 44 255.444 L 44 252 L 40 252 L 40 249 L 34 249 L 34 252 L 27 252 L 27 249 L 21 249 L 21 252 L 14 252 L 14 249 L 8 249 L 8 252 L 4 252 L 4 255.444 Z"/>
    <path id="piece_003" style="fill:none;stroke:#000000;stroke-width:0.0508" d="M 48 54.4444 L 51 54.4444 L 51 60.4444 L 48 60.4444 L 48 66.8889 L 51 66.8889 L 51 72.8889 L 48 72.8889 L 48 79.3333 L 51 79.3333 L 51 85.3333 L 48 85.3333 L 48 91.7778 L 51 91.7778 L 51 97.7778 L 48 97.7778 L 48 104.222 L 51 104.222 L 51 110.222 L 48 110.222 L 48 116.667 L 51 116.667 L 51 122.667 L 48 122.667 L 48 129.111 L 51 129.111 L 51 135.111 L 48 135.111 L 48 141.556 L 51 141.556 L 51 147.556 L 48 147.556 L 48 154 L 55.1429 154 L 55.1429 151 L 61.1429 151 L 61.1429 154 L 68.2857 154 L 68.2857 151 L 74.2857 151 L 74.2857 154 L 81.4286 154 L 81.4286 151 L 87.4286 151 L 87.4286 154 L 94.5714 154 L 94.5714 151 L 100.571 151 L 100.571 154 L 107.714 154 L 107.714 151 L 113.714 151 L 113.714 154 L 120.857 154 L 120.857 151 L 126.857 151 L 126.857 154 L 134 154 L 134 147.556 L 131 147.556 L 131 141.556 L 134 141.556 L 134 135.111 L 131 135.111 L 131 129.111 L 134 129.111 L 134 122.667 L 131 122.667 L 131 116.667 L 134 116.667 L 134 110.222 L 131 110.222 L 131 104.222 L 134 104.222 L 134 97.7778 L 131 97.7778 L 131 91.7778 L 134 91.7778 L 134 85.3333 L 131 85.3333 L 131 79.3333 L 134 79.3333 L 134 72.8889 L 131 72.8889 L 131 66.8889 L 134 66.8889 L 134 60.4444 L 131 60.4444 L 131 54.4444 L 134 54.4444 L 134 48 L 126.857 48 L 126.857 51 L 120.857 51 L 120.857 48 L 113.714 48 L 113.714 51 L 107.714 51 L 107.714 48 L 100.571 48 L 100.571 51 L 94.5714 51 L 94.5714 48 L 87.4286 48 L 87.4286 51 L 81.4286 51 L 81.4286 48 L 74.2857 48 L 74.2857 51 L 68.2857 51 L 68.2857 48 L 61.1429 48 L 61.1429 51 L 55.1429 51 L 55.1429 48 L 48 48 L 48 54.4444 Z M 107.714 99.5 L 113.714 99.5 L 113.714 102.5 L 107.714 102.5 L 107.714 99.5 Z M 120.857 99.5 L 126.857 99.5 L 126.857 102.5 L 120.857 102.5 L 120.857 99.5 Z M 55.1429 99.5 L 61.1429 99.5 L 61.1429 102.5 L 55.1429 102.5 L 55.1429 99.5 Z M 68.2857 99.5 L 74.2857 99.5 L 74.2857 102.5 L 68.2857 102.5 L 68.2857 99.5 Z M 81.4286 99.5 L 87.4286 99.5 L 87.4286 102.5 L 81.4286 102.5 L 81.4286 99.5 Z M 89.5 104.222 L 92.5 104.222 L 92.5 110.222 L 89.5 110.222 L 89.5 104.222 Z M 89.5 116.667 L 92.5 116.667 L 92.5 122.667 L 89.5 122.667 L 89.5 116.667 Z M 89.5 129.111 L 92.5 129.111 L 92.5 135.111 L 89.5 135.111 L 89.5 129.111 Z M 89.5 141.556 L 92.5 141.556 L 92.5 147.556 L 89.5 147.556 L 89.5 141.556 Z M 89.5 54.4444 L 92.5 54.4444 L 92.5 60.4444 L 89.5 60.4444 L 89.5 54.4444 Z M 89.5 66.8889 L 92.5 66.8889 L 92.5 72.8889 L 89.5 72.8889 L 89.5 66.8889 Z M 89.5 79.3333 L 92.5 79.3333 L 92.5 85.3333 L 89.5 85.3333 L 89.5 79.3333 Z M 89.5 91.7778 L 92.5 91.7778 L 92.5 97.7778 L 89.5 97.7778 L 89.5 91.7778 Z M 94.5714 99.5 L 100.571 99.5 L 100.571 102.5 L 94.5714 102.5 L 94.5714 99.5 Z"/>
    <path id="piece_004" style="fill:none;stroke:#000000;stroke-width:0.0508" d="M 138 54.4444 L 135 54.4444 L 135 60.4444 L 138 60.4444 L 138 66.8889 L 135 66.8889 L 135 72.8889 L 138 72.8889 L 138 79.3333 L 135 79.3333 L 135 85.3333 L 138 85.3333 L 138 91.7778 L 135 91.7778 L 135 97.7778 L 138 97.7778 L 138 99.5 L 142 99.5 L 142 102.5 L 138 102.5 L 138 104.222 L 135 104.222 L 135 110.222 L 138 110.222 L 138 116.667 L 135 116.667 L 135 122.667 L 138 122.667 L 138 129.111 L 135 129.111 L 135 135.111 L 138 135.111 L 138 141.556 L 135 141.556 L 135 147.556 L 138 147.556 L 138 151 L 142 151 L 142 154 L 148 154 L 148 151 L 155 151 L 155 154 L 161 154 L 161 151 L 168 151 L 168 154 L 174 154 L 174 151 L 178 151 L 178 147.556 L 181 147.556 L 181 141.556 L 178 141.556 L 178 135.111 L 181 135.111 L 181 129.111 L 178 129.111 L 178 122.667 L 181 122.667 L 181 116.667 L 178 116.667 L 178 110.222 L 181 110.222 L 181 104.222 L 178 104.222 L 178 102.5 L 174 102.5 L 174 99.5 L 178 99.5 L 178 97.7778 L 181 97.7778 L 181 91.7778 L 178 91.7778 L 178 85.3333 L 181 85.3333 L 181 79.3333 L 178 79.3333 L 178 72.8889 L 181 72.8889 L 181 66.8889 L 178 66.8889 L 178 60.4444 L 181 60.4444 L 181 54.4444 L 178 54.4444 L 178 51 L 174 51 L 174 48 L 168 48 L 168 51 L 161 51 L 161 48 L 155 48 L 155 51 L 148 51 L 148 48 L 142 48 L 142 51 L 138 51 L 138 54.4444 Z M 148 99.5 L 155 99.5 L 155 102.5 L 148 102.5 L 148 99.5 Z M 161 99.5 L 168 99.5 L 168 102.5 L 161 102.5 L 161 99.5 Z"/>
    <path id="piece_005" style="fill:none;stroke:#000000;stroke-width:0.0508" d="M 182 54.4444 L 185 54.4444 L 185 60.4444 L 182 60.4444 L 182 66.8889 L 185 66.8889 L 185 72.8889 L 182 72.8889 L 182 79.3333 L 185 79.3333 L 185 85.3333 L 182 85.3333 L 182 91.7778 L 185 91.7778 L 185 97.7778 L 182 97.7778 L 182 104.222 L 185 104.222 L 185 110.222 L 182 110.222 L 182 116.667 L 185 116.667 L 185 122.667 L 182 122.667 L 182 129.111 L 185 129.111 L 185 135.111 L 182 135.111 L 182 141.556 L 185 141.556 L 185 147.556 L 182 147.556 L 182 154 L 189.143 154 L 189.143 151 L 195.143 151 L 195.143 154 L 202.286 154 L 202.286 151 L 208.286 151 L 208.286 154 L 215.429 154 L 215.429 151 L 221.429 151 L 221.429 154 L 228.571 154 L 228.571 151 L 234.571 151 L 234.571 154 L 241.714 154 L 241.714 151 L 247.714 151 L 247.714 154 L 254.857 154 L 254.857 151 L 260.857 151 L 260.857 154 L 268 154 L 268 147.556 L 265 147.556 L 265 141.556 L 268 141.556 L 268 135.111 L 265 135.111 L 265 129.111 L 268 129.111 L 268 122.667 L 265 122.667 L 265 116.667 L 268 116.667 L 268 110.222 L 265 110.222 L 265 104.222 L 268 104.222 L 268 97.7778 L 265 97.7778 L 265 91.7778 L 268 91.7778 L 268 85.3333 L 265 85.3333 L 265 79.3333 L 268 79.3333 L 268 72.8889 L 265 72.8889 L 265 66.8889 L 268 66.8889 L 268 60.4444 L 265 60.4444 L 265 54.4444 L 268 54.4444 L 268 48 L 260.857 48 L 260.857 51 L 254.857 51 L 254.857 48 L 247.714 48 L 247.714 51 L 241.714 51 L 241.714 48 L 234.571 48 L 234.571 51 L 228.571 51 L 228.571 48 L 221.429 48 L 221.429 51 L 215.429 51 L 215.429 48 L 208.286 48 L 208.286 51 L 202.286 51 L 202.286 48 L 195.143 48 L 195.143 51 L 189.143 51 L 189.143 48 L 182 48 L 182 54.4444 Z M 189.143 99.5 L 195.143 99.5 L 195.143 102.5 L 189.143 102.5 L 189.143 99.5 Z M 202.286 99.5 L 208.286 99.5 L 208.286 102.5 L 202.286 102.5 L 202.286 99.5 Z M 215.429 99.5 L 221.429 99.5 L 221.429 102.5 L 215.429 102.5 L 215.429 99.5 Z M 223.5 104.222 L 226.5 104.222 L 226.5 110.222 L 223.5 110.222 L 223.5 104.222 Z M 223.5 116.667 L 226.5 116.667 L 226.5 122.667 L 223.5 122.667 L 223.5 116.667 Z M 223.5 129.111 L 226.5 129.111 L 226.5 135.111 L 223.5 135.111 L 223.5 129.111 Z M 223.5 141.556 L 226.5 141.556 L 226.5 147.556 L 223.5 147.556 L 223.5 141.556 Z M 223.5 54.4444 L 226.5 54.4444 L 226.5 60.4444 L 223.5 60.4444 L 223.5 54.4444 Z M 223.5 66.8889 L 226.5 66.8889 L 226.5 72.8889 L 223.5 72.8889 L 223.5 66.8889 Z M 223.5 79.3333 L 226.5 79.3333 L 226.5 85.3333 L 223.5 85.3333 L 223.5 79.3333 Z M 223.5 91.7778 L 226.5 91.7778 L 226.5 97.7778 L 223.5 97.7778 L 223.5 91.7778 Z M 228.571 99.5 L 234.571 99.5 L 234.571 102.5 L 228.571 102.5 L 228.571 99.5 Z M 241.714 99.5 L 247.714 99.5 L 247.714 102.5 L 241.714 102.5 L 241.714 99.5 Z M 254.857 99.5 L 260.857 99.5 L 260.857 102.5 L 254.857 102.5 L 254.857 99.5 Z"/>
    <path id="piece_006" style="fill:none;stroke:#000000;stroke-width:0.0508" d="M 48 8 L 51 8 L 51 14 L 48 14 L 48 21 L 51 21 L 51 27 L 48 27 L 48 34 L 51 34 L 51 40 L 48 40 L 48 44 L 55.1429 44 L 55.1429 47 L 61.1429 47 L 61.1429 44 L 68.2857 44 L 68.2857 47 L 74.2857 47 L 74.2857 44 L 81.4286 44 L 81.4286 47 L 87.4286 47 L 87.4286 44 L 94.5714 44 L 94.5714 47 L 100.571 47 L 100.571 44 L 107.714 44 L 107.714 47 L 113.714 47 L 113.714 44 L 120.857 44 L 120.857 47 L 126.857 47 L 126.857 44 L 134 44 L 134 40 L 131 40 L 131 34 L 134 34 L 134 27 L 131 27 L 131 21 L 134 21 L 134 14 L 131 14 L 131 8 L 134 8 L 134 4 L 126.857 4 L 126.857 1 L 120.857 1 L 120.857 4 L 113.714 4 L 113.714 1 L 107.714 1 L 107.714 4 L 100.571 4 L 100.571 1 L 94.5714 1 L 94.5714 4 L 87.4286 4 L 87.4286 1 L 81.4286 1 L 81.4286 4 L 74.2857 4 L 74.2857 1 L 68.2857 1 L 68.2857 4 L 61.1429 4 L 61.1429 1 L 55.1429 1 L 55.1429 4 L 48 4 L 48 8 Z M 89.5 21 L 92.5 21 L 92.5 27 L 89.5 27 L 89.5 21 Z M 89.5 34 L 92.5 34 L 92.5 40 L 89.5 40 L 89.5 34 Z M 89.5 8 L 92.5 8 L 92.5 14 L 89.5 14 L 89.5 8 Z"/>
  </g>
</svg>