<!-- Created with Inkscape (http://www.inkscape.org/) -->
<svg xmlns:inkscape="http://www.inkscape.org/namespaces/inkscape" xmlns:sodipodi="http://sodipodi.sourceforge.net/DTD/sodipodi-0.dtd" xmlns="http://www.w3.org/2000/svg" xmlns:svg="http://www.w3.org/2000/svg" width="210mm" height="297mm" viewBox="0 0 210 297" version="1.1" id="svg5" inkscape:version="1.1.2 (0a00cf5339, 2022-02-04)" sodipodi:docname="blank.svg">
  <sodipodi:namedview id="namedview7" pagecolor="#ffffff" bordercolor="#666666" borderopacity="1.0" inkscape:pageshadow="2" inkscape:pageopacity="0.0" inkscape:pagecheckerboard="0" inkscape:document-units="mm" showgrid="false" inkscape:zoom="0.64052329" inkscape:cx="397.33138" inkscape:cy="561.25984" inkscape:window-width="2086" inkscape:window-height="1376" inkscape:window-x="0" inkscape:window-y="0" inkscape:window-maximized="1" inkscape:current-layer="layer1"/>
  <defs id="defs2"/>
  <g inkscape:label="Layer 1" inkscape:groupmode="layer" id="layer1">
    <g id="piece_001">
      <path id="side_001" style="fill:none;stroke:#000000;stroke-width:1" d="m 52 164 l 7.1429 0 l 0 -3 l 6 0 l 0 3 l 7.1428 0 l 0 -3 l 6 0 l 0 3 l 7.1429 0 l 0 -3 l 6 0 l 0 3 l 7.1428 0 l 0 -3 l 5.9996 0 l 0 3 l 7.143 0 l 0 -3 l 6 0 l 0 3 l 7.143 0 l 0 -3 l 6 0 l 0 3 l 7.143 0"/>
      <path id="side_002" style="fill:none;stroke:#000000;stroke-width:1" d="m 93.5 168 l 0 6 l 3 0 l 0 -6 l -3 0"/>
      <path id="side_003" style="fill:none;stroke:#000000;stroke-width:1" d="m 93.5 181 l 0 6 l 3 0 l 0 -6 l -3 0"/>
      <path id="side_004" style="fill:none;stroke:#000000;stroke-width:1" d="m 93.5 194 l 0 6 l 3 0 l 0 -6 l -3 0"/>
      <path id="side_005" style="fill:none;stroke:#000000;stroke-width:1" d="m 138 164 l 0 4 l -3 0 l 0 6 l 3 0 l 0 7 l -3 0 l 0 6 l 3 0 l 0 7 l -3 0 l 0 6 l 3 0 l 0 4"/>
      <path id="side_006" style="fill:none;stroke:#000000;stroke-width:1" d="m 138 204 l -7.143 0 l 0 3 l -6 0 l 0 -3 l -7.143 0 l 0 3 l -6 0 l 0 -3 l -7.143 0 l 0 3 l -5.9996 0 l 0 -3 l -7.1428 0 l 0 3 l -6 0 l 0 -3 l -7.1429 0 l 0 3 l -6 0 l 0 -3 l -7.1428 0 l 0 3 l -6 0 l 0 -3 l -7.1429 0"/>
      <path id="side_007" style="fill:none;stroke:#000000;stroke-width:1" d="m 52 204 l 0 -4 l 3 0 l 0 -6 l -3 0 l 0 -7 l 3 0 l 0 -6 l -3 0 l 0 -7 l 3 0 l 0 -6 l -3 0 l 0 -4"/>
    </g>
    <g id="piece_002">
      <path id="side_008" style="fill:none;stroke:#000000;stroke-width:1" d="m 0 213 l 7.14286 0 l 0 -3 l 6.00004 0 l 0 3 l 7.1428 0 l 0 -3 l 6 0 l 0 3 l 7.1429 0 l 0 -3 l 6 0 l 0 3 l 7.1428 0 l 0 -3 l 6 0 l 0 3 l 7.1429 0 l 0 -3 l 6 0 l 0 3 l 7.1428 0 l 0 -3 l 6 0 l 0 3 l 7.1429 0"/>
      <path id="side_009" style="fill:none;stroke:#000000;stroke-width:1" d="m 41.5 210 l 0 23 l 3 0 l 0 -23 l -3 0"/>
      <path id="side_010" style="fill:none;stroke:#000000;stroke-width:1" d="m 86 213 l 0 4 l -3 0 l 0 6 l 3 0 l 0 7 l -3 0 l 0 6 l 3 0 l 0 7 l -3 0 l 0 6 l 3 0 l 0 4"/>
      <path id="side_011" style="fill:none;stroke:#000000;stroke-width:1" d="m 86 253 l -7.1429 0 l 0 3 l -6 0 l 0 -3 l -7.1428 0 l 0 3 l -6 0 l 0 -3 l -7.1429 0 l 0 3 l -6 0 l 0 -3 l -7.1428 0 l 0 3 l -6 0 l 0 -3 l -7.1429 0 l 0 3 l -6 0 l 0 -3 l -7.1428 0 l 0 3 l -6.00004 0 l 0 -3 l -7.14286 0"/>
      <path id="side_012" style="fill:none;stroke:#000000;stroke-width:1" d="m 0 253 l 0 -4 l 3 0 l 0 -6 l -3 0 l 0 -7 l 3 0 l 0 -6 l -3 0 l 0 -7 l 3 0 l 0 -6 l -3 0 l 0 -4"/>
    </g>
    <g id="piece_003">
      <path id="side_013" style="fill:none;stroke:#000000;stroke-width:1" d="m 6 106.5 l 4 0 l 0 -3 l -4 0 l 0 3"/>
      <path id="side_014" style="fill:none;stroke:#000000;stroke-width:1" d="m 16 106.5 l 7 0 l 0 -3 l -7 0 l 0 3"/>
      <path id="side_015" style="fill:none;stroke:#000000;stroke-width:1" d="m 29 106.5 l 7 0 l 0 -3 l -7 0 l 0 3"/>
      <path id="side_016" style="fill:none;stroke:#000000;stroke-width:1" d="m 42 103.5 l 0 0 l 0 3 l 0 0 l 0 -3"/>
      <path id="side_017" style="fill:none;stroke:#000000;stroke-width:1" d="m 6 55 l 4 0 l 0 -3 l 6 0 l 0 3 l 7 0 l 0 -3 l 6 0 l 0 3 l 7 0 l 0 -3 l 6 0 l 0 3 l 4 0"/>
      <path id="side_018" style="fill:none;stroke:#000000;stroke-width:1" d="m 46 55 l 0 3.4444 l 3 0 l 0 6 l -3 0 l 0 6.4445 l 3 0 l 0 6 l -3 0 l 0 6.4444 l 3 0 l 0 6 l -3 0 l 0 6.4445 l 3 0 l 0 6.0002 l -3 0 l 0 6.444 l 3 0 l 0 6 l -3 0 l 0 6.445 l 3 0 l 0 6 l -3 0 l 0 6.444 l 3 0 l 0 6 l -3 0 l 0 6.445 l 3 0 l 0 6 l -3 0 l 0 3.444"/>
      <path id="side_019" style="fill:none;stroke:#000000;stroke-width:1" d="m 46 155 l -4 0 l 0 3 l -6 0 l 0 -3 l -7 0 l 0 3 l -6 0 l 0 -3 l -7 0 l 0 3 l -6 0 l 0 -3 l -4 0"/>
      <path id="side_020" style="fill:none;stroke:#000000;stroke-width:1" d="m 6 155 l 0 -3.444 l -3 0 l 0 -6 l 3 0 l 0 -6.445 l -3 0 l 0 -6 l 3 0 l 0 -6.444 l -3 0 l 0 -6 l 3 0 l 0 -6.445 l -3 0 l 0 -6 l 3 0 l 0 -6.444 l -3 0 l 0 -6.0002 l 3 0 l 0 -6.4445 l -3 0 l 0 -6 l 3 0 l 0 -6.4444 l -3 0 l 0 -6 l 3 0 l 0 -6.4445 l -3 0 l 0 -6 l 3 0 l 0 -3.4444"/>
    </g>
    <g id="piece_004">
      <path id="side_021" style="fill:none;stroke:#000000;stroke-width:1" d="m 0 310.5 l 23 0 l 0 3 l -23 0 l 0 -3"/>
      <path id="side_022" style="fill:none;stroke:#000000;stroke-width:1" d="m 3 262 l 4 0 l 0 -3 l 6 0 l 0 3 l 7 0 l 0 -3 l 6 0 l 0 3 l 7 0 l 0 -3 l 6 0 l 0 3 l 4 0"/>
      <path id="side_023" style="fill:none;stroke:#000000;stroke-width:1" d="m 43 262 l 0 3.444 l 3 0 l 0 6 l -3 0 l 0 6.445 l 3 0 l 0 6 l -3 0 l 0 6.444 l 3 0 l 0 6 l -3 0 l 0 6.445 l 3 0 l 0 6 l -3 0 l 0 6.444 l 3 0 l 0 6 l -3 0 l 0 6.445 l 3 0 l 0 6 l -3 0 l 0 6.444 l 3 0 l 0 6 l -3 0 l 0 6.445 l 3 0 l 0 6 l -3 0 l 0 3.444"/>
      <path id="side_024" style="fill:none;stroke:#000000;stroke-width:1" d="m 43 362 l -4 0 l 0 3 l -6 0 l 0 -3 l -7 0 l 0 3 l -6 0 l 0 -3 l -7 0 l 0 3 l -6 0 l 0 -3 l -4 0"/>
      <path id="side_025" style="fill:none;stroke:#000000;stroke-width:1" d="m 3 362 l 0 -3.444 l -3 0 l 0 -6 l 3 0 l 0 -6.445 l -3 0 l 0 -6 l 3 0 l 0 -6.444 l -3 0 l 0 -6 l 3 0 l 0 -6.445 l -3 0 l 0 -6 l 3 0 l 0 -6.444 l -3 0 l 0 -6 l 3 0 l 0 -6.445 l -3 0 l 0 -6 l 3 0 l 0 -6.444 l -3 0 l 0 -6 l 3 0 l 0 -6.445 l -3 0 l 0 -6 l 3 0 l 0 -3.444"/>
    </g>
    <g id="piece_005">
      <path id="side_026" style="fill:none;stroke:#000000;stroke-width:1" d="m 59.1429 106.5 l 6 0 l 0 -3 l -6 0 l 0 3"/>
      <path id="side_027" style="fill:none;stroke:#000000;stroke-width:1" d="m 72.2857 106.5 l 6 0 l 0 -3 l -6 0 l 0 3"/>
      <path id="side_028" style="fill:none;stroke:#000000;stroke-width:1" d="m 85.4286 106.5 l 6 0 l 0 -3 l -6 0 l 0 3"/>
      <path id="side_029" style="fill:none;stroke:#000000;stroke-width:1" d="m 98.5714 106.5 l 5.9996 0 l 0 -3 l -5.9996 0 l 0 3"/>
      <path id="side_030" style="fill:none;stroke:#000000;stroke-width:1" d="m 111.714 106.5 l 6 0 l 0 -3 l -6 0 l 0 3"/>
      <path id="side_031" style="fill:none;stroke:#000000;stroke-width:1" d="m 124.857 106.5 l 6 0 l 0 -3 l -6 0 l 0 3"/>
      <path id="side_032" style="fill:none;stroke:#000000;stroke-width:1" d="m 52 52 l 7.1429 0 l 0 3 l 6 0 l 0 -3 l 7.1428 0 l 0 3 l 6 0 l 0 -3 l 7.1429 0 l 0 3 l 6 0 l 0 -3 l 7.1428 0 l 0 3 l 5.9996 0 l 0 -3 l 7.143 0 l 0 3 l 6 0 l 0 -3 l 7.143 0 l 0 3 l 6 0 l 0 -3 l 7.143 0"/>
      <path id="side_033" style="fill:none;stroke:#000000;stroke-width:1" d="m 93.5 58.4444 l 0 6 l 3 0 l 0 -6 l -3 0"/>
      <path id="side_034" style="fill:none;stroke:#000000;stroke-width:1" d="m 93.5 70.8889 l 0 6 l 3 0 l 0 -6 l -3 0"/>
      <path id="side_035" style="fill:none;stroke:#000000;stroke-width:1" d="m 93.5 83.3333 l 0 6 l 3 0 l 0 -6 l -3 0"/>
      <path id="side_036" style="fill:none;stroke:#000000;stroke-width:1" d="m 93.5 95.7778 l 0 6.0002 l 3 0 l 0 -6.0002 l -3 0"/>
      <path id="side_037" style="fill:none;stroke:#000000;stroke-width:1" d="m 93.5 108.222 l 0 6 l 3 0 l 0 -6 l -3 0"/>
      <path id="side_038" style="fill:none;stroke:#000000;stroke-width:1" d="m 93.5 120.667 l 0 6 l 3 0 l 0 -6 l -3 0"/>
      <path id="side_039" style="fill:none;stroke:#000000;stroke-width:1" d="m 93.5 133.111 l 0 6 l 3 0 l 0 -6 l -3 0"/>
      <path id="side_040" style="fill:none;stroke:#000000;stroke-width:1" d="m 93.5 145.556 l 0 6 l 3 0 l 0 -6 l -3 0"/>
      <path id="side_041" style="fill:none;stroke:#000000;stroke-width:1" d="m 138 52 l 0 6.4444 l -3 0 l 0 6 l 3 0 l 0 6.4445 l -3 0 l 0 6 l 3 0 l 0 6.4444 l -3 0 l 0 6 l 3 0 l 0 6.4445 l -3 0 l 0 6.0002 l 3 0 l 0 6.444 l -3 0 l 0 6 l 3 0 l 0 6.445 l -3 0 l 0 6 l 3 0 l 0 6.444 l -3 0 l 0 6 l 3 0 l 0 6.445 l -3 0 l 0 6 l 3 0 l 0 6.444"/>
      <path id="side_042" style="fill:none;stroke:#000000;stroke-width:1" d="m 138 158 l -7.143 0 l 0 -3 l -6 0 l 0 3 l -7.143 0 l 0 -3 l -6 0 l 0 3 l -7.143 0 l 0 -3 l -5.9996 0 l 0 3 l -7.1428 0 l 0 -3 l -6 0 l 0 3 l -7.1429 0 l 0 -3 l -6 0 l 0 3 l -7.1428 0 l 0 -3 l -6 0 l 0 3 l -7.1429 0"/>
      <path id="side_043" style="fill:none;stroke:#000000;stroke-width:1" d="m 52 158 l 0 -6.444 l 3 0 l 0 -6 l -3 0 l 0 -6.445 l 3 0 l 0 -6 l -3 0 l 0 -6.444 l 3 0 l 0 -6 l -3 0 l 0 -6.445 l 3 0 l 0 -6 l -3 0 l 0 -6.444 l 3 0 l 0 -6.0002 l -3 0 l 0 -6.4445 l 3 0 l 0 -6 l -3 0 l 0 -6.4444 l 3 0 l 0 -6 l -3 0 l 0 -6.4445 l 3 0 l 0 -6 l -3 0 l 0 -6.4444"/>
    </g>
    <g id="piece_006">
      <path id="side_044" style="fill:none;stroke:#000000;stroke-width:1" d="m 144 106.5 l 4 0 l 0 -3 l -4 0 l 0 3"/>
      <path id="side_045" style="fill:none;stroke:#000000;stroke-width:1" d="m 154 106.5 l 7 0 l 0 -3 l -7 0 l 0 3"/>
      <path id="side_046" style="fill:none;stroke:#000000;stroke-width:1" d="m 167 106.5 l 7 0 l 0 -3 l -7 0 l 0 3"/>
      <path id="side_047" style="fill:none;stroke:#000000;stroke-width:1" d="m 180 103.5 l 0 0 l 0 3 l 0 0 l 0 -3"/>
      <path id="side_048" style="fill:none;stroke:#000000;stroke-width:1" d="m 144 55 l 4 0 l 0 -3 l 6 0 l 0 3 l 7 0 l 0 -3 l 6 0 l 0 3 l 7 0 l 0 -3 l 6 0 l 0 3 l 4 0"/>
      <path id="side_049" style="fill:none;stroke:#000000;stroke-width:1" d="m 184 55 l 0 3.4444 l 3 0 l 0 6 l -3 0 l 0 6.4445 l 3 0 l 0 6 l -3 0 l 0 6.4444 l 3 0 l 0 6 l -3 0 l 0 6.4445 l 3 0 l 0 6.0002 l -3 0 l 0 6.444 l 3 0 l 0 6 l -3 0 l 0 6.445 l 3 0 l 0 6 l -3 0 l 0 6.444 l 3 0 l 0 6 l -3 0 l 0 6.445 l 3 0 l 0 6 l -3 0 l 0 3.444"/>
      <path id="side_050" style="fill:none;stroke:#000000;stroke-width:1" d="m 184 155 l -4 0 l 0 3 l -6 0 l 0 -3 l -7 0 l 0 3 l -6 0 l 0 -3 l -7 0 l 0 3 l -6 0 l 0 -3 l -4 0"/>
      <path id="side_051" style="fill:none;stroke:#000000;stroke-width:1" d="m 144 155 l 0 -3.444 l -3 0 l 0 -6 l 3 0 l 0 -6.445 l -3 0 l 0 -6 l 3 0 l 0 -6.444 l -3 0 l 0 -6 l 3 0 l 0 -6.445 l -3 0 l 0 -6 l 3 0 l 0 -6.444 l -3 0 l 0 -6.0002 l 3 0 l 0 -6.4445 l -3 0 l 0 -6 l 3 0 l 0 -6.4444 l -3 0 l 0 -6 l 3 0 l 0 -6.4445 l -3 0 l 0 -6 l 3 0 l 0 -3.4444"/>
    </g>
    <g id="piece_007">
      <path id="side_052" style="fill:none;stroke:#000000;stroke-width:1" d="m 197.143 106.5 l 6 0 l 0 -3 l -6 0 l 0 3"/>
      <path id="side_053" style="fill:none;stroke:#000000;stroke-width:1" d="m 210.286 106.5 l 6 0 l 0 -3 l -6 0 l 0 3"/>
      <path id="side_054" style="fill:none;stroke:#000000;stroke-width:1" d="m 223.429 106.5 l 6 0 l 0 -3 l -6 0 l 0 3"/>
      <path id="side_055" style="fill:none;stroke:#000000;stroke-width:1" d="m 236.571 106.5 l 6 0 l 0 -3 l -6 0 l 0 3"/>
      <path id="side_056" style="fill:none;stroke:#000000;stroke-width:1" d="m 249.714 106.5 l 6 0 l 0 -3 l -6 0 l 0 3"/>
      <path id="side_057" style="fill:none;stroke:#000000;stroke-width:1" d="m 262.857 106.5 l 6 0 l 0 -3 l -6 0 l 0 3"/>
      <path id="side_058" style="fill:none;stroke:#000000;stroke-width:1" d="m 190 52 l 7.143 0 l 0 3 l 6 0 l 0 -3 l 7.143 0 l 0 3 l 6 0 l 0 -3 l 7.143 0 l 0 3 l 6 0 l 0 -3 l 7.142 0 l 0 3 l 6 0 l 0 -3 l 7.143 0 l 0 3 l 6 0 l 0 -3 l 7.143 0 l 0 3 l 6 0 l 0 -3 l 7.143 0"/>
      <path id="side_059" style="fill:none;stroke:#000000;stroke-width:1" d="m 231.5 58.4444 l 0 6 l 3 0 l 0 -6 l -3 0"/>
      <path id="side_060" style="fill:none;stroke:#000000;stroke-width:1" d="m 231.5 70.8889 l 0 6 l 3 0 l 0 -6 l -3 0"/>
      <path id="side_061" style="fill:none;stroke:#000000;stroke-width:1" d="m 231.5 83.3333 l 0 6 l 3 0 l 0 -6 l -3 0"/>
      <path id="side_062" style="fill:none;stroke:#000000;stroke-width:1" d="m 231.5 95.7778 l 0 6.0002 l 3 0 l 0 -6.0002 l -3 0"/>
      <path id="side_063" style="fill:none;stroke:#000000;stroke-width:1" d="m 231.5 108.222 l 0 6 l 3 0 l 0 -6 l -3 0"/>
      <path id="side_064" style="fill:none;stroke:#000000;stroke-width:1" d="m 231.5 120.667 l 0 6 l 3 0 l 0 -6 l -3 0"/>
      <path id="side_065" style="fill:none;stroke:#000000;stroke-width:1" d="m 231.5 133.111 l 0 6 l 3 0 l 0 -6 l -3 0"/>
      <path id="side_066" style="fill:none;stroke:#000000;stroke-width:1" d="m 231.5 145.556 l 0 6 l 3 0 l 0 -6 l -3 0"/>
      <path id="side_067" style="fill:none;stroke:#000000;stroke-width:1" d="m 276 52 l 0 6.4444 l -3 0 l 0 6 l 3 0 l 0 6.4445 l -3 0 l 0 6 l 3 0 l 0 6.4444 l -3 0 l 0 6 l 3 0 l 0 6.4445 l -3 0 l 0 6.0002 l 3 0 l 0 6.444 l -3 0 l 0 6 l 3 0 l 0 6.445 l -3 0 l 0 6 l 3 0 l 0 6.444 l -3 0 l 0 6 l 3 0 l 0 6.445 l -3 0 l 0 6 l 3 0 l 0 6.444"/>
      <path id="side_068" style="fill:none;stroke:#000000;stroke-width:1" d="m 276 158 l -7.143 0 l 0 -3 l -6 0 l 0 3 l -7.143 0 l 0 -3 l -6 0 l 0 3 l -7.143 0 l 0 -3 l -6 0 l 0 3 l -7.142 0 l 0 -3 l -6 0 l 0 3 l -7.143 0 l 0 -3 l -6 0 l 0 3 l -7.143 0 l 0 -3 l -6 0 l 0 3 l -7.143 0"/>
      <path id="side_069" style="fill:none;stroke:#000000;stroke-width:1" d="m 190 158 l 0 -6.444 l 3 0 l 0 -6 l -3 0 l 0 -6.445 l 3 0 l 0 -6 l -3 0 l 0 -6.444 l 3 0 l 0 -6 l -3 0 l 0 -6.445 l 3 0 l 0 -6 l -3 0 l 0 -6.444 l 3 0 l 0 -6.0002 l -3 0 l 0 -6.4445 l 3 0 l 0 -6 l -3 0 l 0 -6.4444 l 3 0 l 0 -6 l -3 0 l 0 -6.4445 l 3 0 l 0 -6 l -3 0 l 0 -6.4444"/>
    </g>
    <g id="piece_008">
      <path id="side_070" style="fill:none;stroke:#000000;stroke-width:1" d="m 52 6 l 7.1429 0 l 0 -3 l 6 0 l 0 3 l 7.1428 0 l 0 -3 l 6 0 l 0 3 l 7.1429 0 l 0 -3 l 6 0 l 0 3 l 7.1428 0 l 0 -3 l 5.9996 0 l 0 3 l 7.143 0 l 0 -3 l 6 0 l 0 3 l 7.143 0 l 0 -3 l 6 0 l 0 3 l 7.143 0"/>
      <path id="side_071" style="fill:none;stroke:#000000;stroke-width:1" d="m 93.5 10 l 0 6 l 3 0 l 0 -6 l -3 0"/>
      <path id="side_072" style="fill:none;stroke:#000000;stroke-width:1" d="m 93.5 23 l 0 6 l 3 0 l 0 -6 l -3 0"/>
      <path id="side_073" style="fill:none;stroke:#000000;stroke-width:1" d="m 93.5 36 l 0 6 l 3 0 l 0 -6 l -3 0"/>
      <path id="side_074" style="fill:none;stroke:#000000;stroke-width:1" d="m 138 6 l 0 4 l -3 0 l 0 6 l 3 0 l 0 7 l -3 0 l 0 6 l 3 0 l 0 7 l -3 0 l 0 6 l 3 0 l 0 4"/>
      <path id="side_075" style="fill:none;stroke:#000000;stroke-width:1" d="m 138 46 l -7.143 0 l 0 3 l -6 0 l 0 -3 l -7.143 0 l 0 3 l -6 0 l 0 -3 l -7.143 0 l 0 3 l -5.9996 0 l 0 -3 l -7.1428 0 l 0 3 l -6 0 l 0 -3 l -7.1429 0 l 0 3 l -6 0 l 0 -3 l -7.1428 0 l 0 3 l -6 0 l 0 -3 l -7.1429 0"/>
      <path id="side_076" style="fill:none;stroke:#000000;stroke-width:1" d="m 52 46 l 0 -4 l 3 0 l 0 -6 l -3 0 l 0 -7 l 3 0 l 0 -6 l -3 0 l 0 -7 l 3 0 l 0 -6 l -3 0 l 0 -4"/>
    </g>
  </g>
</svg>