<!-- Created with Inkscape (http://www.inkscape.org/) -->
<svg xmlns:inkscape="http://www.inkscape.org/namespaces/inkscape" xmlns:sodipodi="http://sodipodi.sourceforge.net/DTD/sodipodi-0.dtd" xmlns="http://www.w3.org/2000/svg" xmlns:svg="http://www.w3.org/2000/svg" width="277mm" height="366mm" viewBox="0 0 277 366" version="1.1" id="svg5" inkscape:version="1.1.2 (0a00cf5339, 2022-02-04)" sodipodi:docname="blank.svg">
  <sodipodi:namedview id="namedview7" pagecolor="#ffffff" bordercolor="#666666" borderopacity="1.0" inkscape:pageshadow="2" inkscape:pageopacity="0.0" inkscape:pagecheckerboard="0" inkscape:document-units="mm" showgrid="false" inkscape:zoom="0.64052329" inkscape:cx="397.33138" inkscape:cy="561.25984" inkscape:window-width="2086" inkscape:window-height="1376" inkscape:window-x="0" inkscape:window-y="0" inkscape:window-maximized="1" inkscape:current-layer="layer1"/>
  <defs id="defs2"/>
  <g inkscape:label="Layer 1" inkscape:groupmode="layer" id="layer1">
    <metadata text="createArgs=['--unit=mm', '--inside=1', '--length=80', '--width=100', '--depth=40', '--equal=0', '--tab=6', '--tabtype=0', '--tabsymmetry=0', '--dimpleheight=0', '--dimplelength=0', '--hairline=1', '--thickness=3', '--kerf=0', '--style=1', '--boxtype=1', '--div_l=1', '--div_w=1', '--keydiv=0', '--spacing=3']"/>
    <g id="piece_001">
      <path id="side_001" style="fill:none;stroke:#000000;stroke-width:0.0508" d="M 52 164 L 59.1429 164 L 59.1429 161 L 65.1429 161 L 65.1429 164 L 72.2857 164 L 72.2857 161 L 78.2857 161 L 78.2857 164 L 85.4286 164 L 85.4286 161 L 91.4286 161 L 91.4286 164 L 98.5714 164 L 98.5714 161 L 104.571 161 L 104.571 164 L 111.714 164 L 111.714 161 L 117.714 161 L 117.714 164 L 124.857 164 L 124.857 161 L 130.857 161 L 130.857 164 L 138 164"/>
      <path id="side_002" style="fill:none;stroke:#000000;stroke-width:0.0508" d="M 138 164 L 138 168 L 135 168 L 135 174 L 138 174 L 138 181 L 135 181 L 135 187 L 138 187 L 138 194 L 135 194 L 135 200 L 138 200 L 138 204"/>
      <path id="hole_001" style="fill:none;stroke:#000000;stroke-width:0.0508" d="M 93.5 168 L 93.5 174 L 96.5 174 L 96.5 168 L 93.5 168 Z"/>
      <path id="hole_002" style="fill:none;stroke:#000000;stroke-width:0.0508" d="M 93.5 181 L 93.5 187 L 96.5 187 L 96.5 181 L 93.5 181 Z"/>
      <path id="hole_003" style="fill:none;stroke:#000000;stroke-width:0.0508" d="M 93.5 194 L 93.5 200 L 96.5 200 L 96.5 194 L 93.5 194 Z"/>
      <path id="side_003" style="fill:none;stroke:#000000;stroke-width:0.0508" d="M 138 204 L 130.857 204 L 130.857 207 L 124.857 207 L 124.857 204 L 117.714 204 L 117.714 207 L 111.714 207 L 111.714 204 L 104.571 204 L 104.571 207 L 98.5714 207 L 98.5714 204 L 91.4286 204 L 91.4286 207 L 85.4286 207 L 85.4286 204 L 78.2857 204 L 78.2857 207 L 72.2857 207 L 72.2857 204 L 65.1429 204 L 65.1429 207 L 59.1429 207 L 59.1429 204 L 52 204"/>
      <path id="side_004" style="fill:none;stroke:#000000;stroke-width:0.0508" d="M 52 204 L 52 200 L 55 200 L 55 194 L 52 194 L 52 187 L 55 187 L 55 181 L 52 181 L 52 174 L 55 174 L 55 168 L 52 168 L 52 164"/>
    </g>
    <g id="xdivider_001">
      <path id="side_005" style="fill:none;stroke:#000000;stroke-width:0.0508" d="M 0 213 L 7.14286 213 L 7.14286 210 L 13.1429 210 L 13.1429 213 L 20.2857 213 L 20.2857 210 L 26.2857 210 L 26.2857 213 L 33.4286 213 L 33.4286 210 L 39.4286 210 L 39.4286 213 L 46.5714 213 L 46.5714 210 L 52.5714 210 L 52.5714 213 L 59.7143 213 L 59.7143 210 L 65.7143 210 L 65.7143 213 L 72.8571 213 L 72.8571 210 L 78.8571 210 L 78.8571 213 L 86 213"/>
      <path id="side_006" style="fill:none;stroke:#000000;stroke-width:0.0508" d="M 86 213 L 86 217 L 83 217 L 83 223 L 86 223 L 86 230 L 83 230 L 83 236 L 86 236 L 86 243 L 83 243 L 83 249 L 86 249 L 86 253"/>
      <path id="slot_001" style="fill:none;stroke:#000000;stroke-width:0.0508" d="M 41.5 210 L 41.5 233 L 44.5 233 L 44.5 210 L 41.5 210 Z"/>
      <path id="side_007" style="fill:none;stroke:#000000;stroke-width:0.0508" d="M 86 253 L 78.8571 253 L 78.8571 256 L 72.8571 256 L 72.8571 253 L 65.7143 253 L 65.7143 256 L 59.7143 256 L 59.7143 253 L 52.5714 253 L 52.5714 256 L 46.5714 256 L 46.5714 253 L 39.4286 253 L 39.4286 256 L 33.4286 256 L 33.4286 253 L 26.2857 253 L 26.2857 256 L 20.2857 256 L 20.2857 253 L 13.1429 253 L 13.1429 256 L 7.1429 256 L 7.1429 253 L 0 253"/>
      <path id="side_008" style="fill:none;stroke:#000000;stroke-width:0.0508" d="M 0 253 L 0 249 L 3 249 L 3 243 L 0 243 L 0 236 L 3 236 L 3 230 L 0 230 L 0 223 L 3 223 L 3 217 L 0 217 L 0 213"/>
    </g>
    <g id="piece_002">
      <path id="side_009" style="fill:none;stroke:#000000;stroke-width:0.0508" d="M 6 55 L 10 55 L 10 52 L 16 52 L 16 55 L 23 55 L 23 52 L 29 52 L 29 55 L 36 55 L 36 52 L 42 52 L 42 55 L 46 55"/>
      <path id="hole_004" style="fill:none;stroke:#000000;stroke-width:0.0508" d="M 6 106.5 L 10 106.5 L 10 103.5 L 6 103.5 L 6 106.5 Z"/>
      <path id="hole_005" style="fill:none;stroke:#000000;stroke-width:0.0508" d="M 16 106.5 L 23 106.5 L 23 103.5 L 16 103.5 L 16 106.5 Z"/>
      <path id="hole_006" style="fill:none;stroke:#000000;stroke-width:0.0508" d="M 29 106.5 L 36 106.5 L 36 103.5 L 29 103.5 L 29 106.5 Z"/>
      <path id="hole_007" style="fill:none;stroke:#000000;stroke-width:0.0508" d="M 42 106.5 L 49 106.5 L 49 109.5 L 42 109.5 L 42 106.5 Z"/>
      <path id="side_010" style="fill:none;stroke:#000000;stroke-width:0.0508" d="M 46 55 L 46 58.4444 L 49 58.4444 L 49 64.4444 L 46 64.4444 L 46 70.8889 L 49 70.8889 L 49 76.8889 L 46 76.8889 L 46 83.3333 L 49 83.3333 L 49 89.3333 L 46 89.3333 L 46 95.7778 L 49 95.7778 L 49 101.778 L 46 101.778 L 46 108.222 L 49 108.222 L 49 114.222 L 46 114.222 L 46 120.667 L 49 120.667 L 49 126.667 L 46 126.667 L 46 133.111 L 49 133.111 L 49 139.111 L 46 139.111 L 46 145.556 L 49 145.556 L 49 151.556 L 46 151.556 L 46 155"/>
      <path id="side_011" style="fill:none;stroke:#000000;stroke-width:0.0508" d="M 46 155 L 42 155 L 42 158 L 36 158 L 36 155 L 29 155 L 29 158 L 23 158 L 23 155 L 16 155 L 16 158 L 10 158 L 10 155 L 6 155"/>
      <path id="side_012" style="fill:none;stroke:#000000;stroke-width:0.0508" d="M 6 155 L 6 151.556 L 3 151.556 L 3 145.556 L 6 145.556 L 6 139.111 L 3 139.111 L 3 133.111 L 6 133.111 L 6 126.667 L 3 126.667 L 3 120.667 L 6 120.667 L 6 114.222 L 3 114.222 L 3 108.222 L 6 108.222 L 6 101.778 L 3 101.778 L 3 95.7778 L 6 95.7778 L 6 89.3333 L 3 89.3333 L 3 83.3333 L 6 83.3333 L 6 76.8889 L 3 76.8889 L 3 70.8889 L 6 70.8889 L 6 64.4444 L 3 64.4444 L 3 58.4444 L 6 58.4444 L 6 55"/>
    </g>
    <g id="ydivider_001">
      <path id="side_013" style="fill:none;stroke:#000000;stroke-width:0.0508" d="M 3 262 L 7 262 L 7 259 L 13 259 L 13 262 L 20 262 L 20 259 L 26 259 L 26 262 L 33 262 L 33 259 L 39 259 L 39 262 L 43 262"/>
      <path id="slot_002" style="fill:none;stroke:#000000;stroke-width:0.0508" d="M 0 310.5 L 23 310.5 L 23 313.5 L 0 313.5 L 0 310.5 Z"/>
      <path id="side_014" style="fill:none;stroke:#000000;stroke-width:0.0508" d="M 43 262 L 43 265.444 L 46 265.444 L 46 271.444 L 43 271.444 L 43 277.889 L 46 277.889 L 46 283.889 L 43 283.889 L 43 290.333 L 46 290.333 L 46 296.333 L 43 296.333 L 43 302.778 L 46 302.778 L 46 308.778 L 43 308.778 L 43 315.222 L 46 315.222 L 46 321.222 L 43 321.222 L 43 327.667 L 46 327.667 L 46 333.667 L 43 333.667 L 43 340.111 L 46 340.111 L 46 346.111 L 43 346.111 L 43 352.556 L 46 352.556 L 46 358.556 L 43 358.556 L 43 362"/>
      <path id="side_015" style="fill:none;stroke:#000000;stroke-width:0.0508" d="M 43 362 L 39 362 L 39 365 L 33 365 L 33 362 L 26 362 L 26 365 L 20 365 L 20 362 L 13 362 L 13 365 L 7 365 L 7 362 L 3 362"/>
      <path id="side_016" style="fill:none;stroke:#000000;stroke-width:0.0508" d="M 3 362 L 3 358.556 L 0 358.556 L 0 352.556 L 3 352.556 L 3 346.111 L 0 346.111 L 0 340.111 L 3 340.111 L 3 333.667 L 0 333.667 L 0 327.667 L 3 327.667 L 3 321.222 L 0 321.222 L 0 315.222 L 3 315.222 L 3 308.778 L 0 308.778 L 0 302.778 L 3 302.778 L 3 296.333 L 0 296.333 L 0 290.333 L 3 290.333 L 3 283.889 L 0 283.889 L 0 277.889 L 3 277.889 L 3 271.444 L 0 271.444 L 0 265.444 L 3 265.444 L 3 262"/>
    </g>
    <g id="piece_003">
      <path id="side_017" style="fill:none;stroke:#000000;stroke-width:0.0508" d="M 52 52 L 59.1429 52 L 59.1429 55 L 65.1429 55 L 65.1429 52 L 72.2857 52 L 72.2857 55 L 78.2857 55 L 78.2857 52 L 85.4286 52 L 85.4286 55 L 91.4286 55 L 91.4286 52 L 98.5714 52 L 98.5714 55 L 104.571 55 L 104.571 52 L 111.714 52 L 111.714 55 L 117.714 55 L 117.714 52 L 124.857 52 L 124.857 55 L 130.857 55 L 130.857 52 L 138 52"/>
      <path id="hole_008" style="fill:none;stroke:#000000;stroke-width:0.0508" d="M 59.1429 106.5 L 65.1429 106.5 L 65.1429 103.5 L 59.1429 103.5 L 59.1429 106.5 Z"/>
      <path id="hole_009" style="fill:none;stroke:#000000;stroke-width:0.0508" d="M 72.2857 106.5 L 78.2857 106.5 L 78.2857 103.5 L 72.2857 103.5 L 72.2857 106.5 Z"/>
      <path id="hole_010" style="fill:none;stroke:#000000;stroke-width:0.0508" d="M 85.4286 106.5 L 91.4286 106.5 L 91.4286 103.5 L 85.4286 103.5 L 85.4286 106.5 Z"/>
      <path id="hole_011" style="fill:none;stroke:#000000;stroke-width:0.0508" d="M 98.5714 106.5 L 104.571 106.5 L 104.571 103.5 L 98.5714 103.5 L 98.5714 106.5 Z"/>
      <path id="hole_012" style="fill:none;stroke:#000000;stroke-width:0.0508" d="M 111.714 106.5 L 117.714 106.5 L 117.714 103.5 L 111.714 103.5 L 111.714 106.5 Z"/>
      <path id="hole_013" style="fill:none;stroke:#000000;stroke-width:0.0508" d="M 124.857 106.5 L 130.857 106.5 L 130.857 103.5 L 124.857 103.5 L 124.857 106.5 Z"/>
      <path id="side_018" style="fill:none;stroke:#000000;stroke-width:0.0508" d="M 138 52 L 138 58.4444 L 135 58.4444 L 135 64.4444 L 138 64.4444 L 138 70.8889 L 135 70.8889 L 135 76.8889 L 138 76.8889 L 138 83.3333 L 135 83.3333 L 135 89.3333 L 138 89.3333 L 138 95.7778 L 135 95.7778 L 135 101.778 L 138 101.778 L 138 108.222 L 135 108.222 L 135 114.222 L 138 114.222 L 138 120.667 L 135 120.667 L 135 126.667 L 138 126.667 L 138 133.111 L 135 133.111 L 135 139.111 L 138 139.111 L 138 145.556 L 135 145.556 L 135 151.556 L 138 151.556 L 138 158"/>
      <path id="hole_014" style="fill:none;stroke:#000000;stroke-width:0.0508" d="M 93.5 58.4444 L 93.5 64.4444 L 96.5 64.4444 L 96.5 58.4444 L 93.5 58.4444 Z"/>
      <path id="hole_015" style="fill:none;stroke:#000000;stroke-width:0.0508" d="M 93.5 70.8889 L 93.5 76.8889 L 96.5 76.8889 L 96.5 70.8889 L 93.5 70.8889 Z"/>
      <path id="hole_016" style="fill:none;stroke:#000000;stroke-width:0.0508" d="M 93.5 83.3333 L 93.5 89.3333 L 96.5 89.3333 L 96.5 83.3333 L 93.5 83.3333 Z"/>
      <path id="hole_017" style="fill:none;stroke:#000000;stroke-width:0.0508" d="M 93.5 95.7778 L 93.5 101.778 L 96.5 101.778 L 96.5 95.7778 L 93.5 95.7778 Z"/>
      <path id="hole_018" style="fill:none;stroke:#000000;stroke-width:0.0508" d="M 93.5 108.222 L 93.5 114.222 L 96.5 114.222 L 96.5 108.222 L 93.5 108.222 Z"/>
      <path id="hole_019" style="fill:none;stroke:#000000;stroke-width:0.0508" d="M 93.5 120.667 L 93.5 126.667 L 96.5 126.667 L 96.5 120.667 L 93.5 120.667 Z"/>
      <path id="hole_020" style="fill:none;stroke:#000000;stroke-width:0.0508" d="M 93.5 133.111 L 93.5 139.111 L 96.5 139.111 L 96.5 133.111 L 93.5 133.111 Z"/>
      <path id="hole_021" style="fill:none;stroke:#000000;stroke-width:0.0508" d="M 93.5 145.556 L 93.5 151.556 L 96.5 151.556 L 96.5 145.556 L 93.5 145.556 Z"/>
      <path id="side_019" style="fill:none;stroke:#000000;stroke-width:0.0508" d="M 138 158 L 130.857 158 L 130.857 155 L 124.857 155 L 124.857 158 L 117.714 158 L 117.714 155 L 111.714 155 L 111.714 158 L 104.571 158 L 104.571 155 L 98.5714 155 L 98.5714 158 L 91.4286 158 L 91.4286 155 L 85.4286 155 L 85.4286 158 L 78.2857 158 L 78.2857 155 L 72.2857 155 L 72.2857 158 L 65.1429 158 L 65.1429 155 L 59.1429 155 L 59.1429 158 L 52 158"/>
      <path id="side_020" style="fill:none;stroke:#000000;stroke-width:0.0508" d="M 52 158 L 52 151.556 L 55 151.556 L 55 145.556 L 52 145.556 L 52 139.111 L 55 139.111 L 55 133.111 L 52 133.111 L 52 126.667 L 55 126.667 L 55 120.667 L 52 120.667 L 52 114.222 L 55 114.222 L 55 108.222 L 52 108.222 L 52 101.778 L 55 101.778 L 55 95.7778 L 52 95.7778 L 52 89.3333 L 55 89.3333 L 55 83.3333 L 52 83.3333 L 52 76.8889 L 55 76.8889 L 55 70.8889 L 52 70.8889 L 52 64.4444 L 55 64.4444 L 55 58.4444 L 52 58.4444 L 52 52"/>
    </g>
    <g id="piece_004">
      <path id="side_021" style="fill:none;stroke:#000000;stroke-width:0.0508" d="M 144 55 L 148 55 L 148 52 L 154 52 L 154 55 L 161 55 L 161 52 L 167 52 L 167 55 L 174 55 L 174 52 L 180 52 L 180 55 L 184 55"/>
      <path id="hole_022" style="fill:none;stroke:#000000;stroke-width:0.0508" d="M 144 106.5 L 148 106.5 L 148 103.5 L 144 103.5 L 144 106.5 Z"/>
      <path id="hole_023" style="fill:none;stroke:#000000;stroke-width:0.0508" d="M 154 106.5 L 161 106.5 L 161 103.5 L 154 103.5 L 154 106.5 Z"/>
      <path id="hole_024" style="fill:none;stroke:#000000;stroke-width:0.0508" d="M 167 106.5 L 174 106.5 L 174 103.5 L 167 103.5 L 167 106.5 Z"/>
      <path id="hole_025" style="fill:none;stroke:#000000;stroke-width:0.0508" d="M 180 106.5 L 187 106.5 L 187 109.5 L 180 109.5 L 180 106.5 Z"/>
      <path id="side_022" style="fill:none;stroke:#000000;stroke-width:0.0508" d="M 184 55 L 184 58.4444 L 187 58.4444 L 187 64.4444 L 184 64.4444 L 184 70.8889 L 187 70.8889 L 187 76.8889 L 184 76.8889 L 184 83.3333 L 187 83.3333 L 187 89.3333 L 184 89.3333 L 184 95.7778 L 187 95.7778 L 187 101.778 L 184 101.778 L 184 108.222 L 187 108.222 L 187 114.222 L 184 114.222 L 184 120.667 L 187 120.667 L 187 126.667 L 184 126.667 L 184 133.111 L 187 133.111 L 187 139.111 L 184 139.111 L 184 145.556 L 187 145.556 L 187 151.556 L 184 151.556 L 184 155"/>
      <path id="side_023" style="fill:none;stroke:#000000;stroke-width:0.0508" d="M 184 155 L 180 155 L 180 158 L 174 158 L 174 155 L 167 155 L 167 158 L 161 158 L 161 155 L 154 155 L 154 158 L 148 158 L 148 155 L 144 155"/>
      <path id="side_024" style="fill:none;stroke:#000000;stroke-width:0.0508" d="M 144 155 L 144 151.556 L 141 151.556 L 141 145.556 L 144 145.556 L 144 139.111 L 141 139.111 L 141 133.111 L 144 133.111 L 144 126.667 L 141 126.667 L 141 120.667 L 144 120.667 L 144 114.222 L 141 114.222 L 141 108.222 L 144 108.222 L 144 101.778 L 141 101.778 L 141 95.7778 L 144 95.7778 L 144 89.3333 L 141 89.3333 L 141 83.3333 L 144 83.3333 L 144 76.8889 L 141 76.8889 L 141 70.8889 L 144 70.8889 L 144 64.4444 L 141 64.4444 L 141 58.4444 L 144 58.4444 L 144 55"/>
    </g>
    <g id="piece_005">
      <path id="side_025" style="fill:none;stroke:#000000;stroke-width:0.0508" d="M 190 52 L 197.143 52 L 197.143 55 L 203.143 55 L 203.143 52 L 210.286 52 L 210.286 55 L 216.286 55 L 216.286 52 L 223.429 52 L 223.429 55 L 229.429 55 L 229.429 52 L 236.571 52 L 236.571 55 L 242.571 55 L 242.571 52 L 249.714 52 L 249.714 55 L 255.714 55 L 255.714 52 L 262.857 52 L 262.857 55 L 268.857 55 L 268.857 52 L 276 52"/>
      <path id="hole_026" style="fill:none;stroke:#000000;stroke-width:0.0508" d="M 197.143 106.5 L 203.143 106.5 L 203.143 103.5 L 197.143 103.5 L 197.143 106.5 Z"/>
      <path id="hole_027" style="fill:none;stroke:#000000;stroke-width:0.0508" d="M 210.286 106.5 L 216.286 106.5 L 216.286 103.5 L 210.286 103.5 L 210.286 106.5 Z"/>
      <path id="hole_028" style="fill:none;stroke:#000000;stroke-width:0.0508" d="M 223.429 106.5 L 229.429 106.5 L 229.429 103.5 L 223.429 103.5 L 223.429 106.5 Z"/>
      <path id="hole_029" style="fill:none;stroke:#000000;stroke-width:0.0508" d="M 236.571 106.5 L 242.571 106.5 L 242.571 103.5 L 236.571 103.5 L 236.571 106.5 Z"/>
      <path id="hole_030" style="fill:none;stroke:#000000;stroke-width:0.0508" d="M 249.714 106.5 L 255.714 106.5 L 255.714 103.5 L 249.714 103.5 L 249.714 106.5 Z"/>
      <path id="hole_031" style="fill:none;stroke:#000000;stroke-width:0.0508" d="M 262.857 106.5 L 268.857 106.5 L 268.857 103.5 L 262.857 103.5 L 262.857 106.5 Z"/>
      <path id="side_026" style="fill:none;stroke:#000000;stroke-width:0.0508" d="M 276 52 L 276 58.4444 L 273 58.4444 L 273 64.4444 L 276 64.4444 L 276 70.8889 L 273 70.8889 L 273 76.8889 L 276 76.8889 L 276 83.3333 L 273 83.3333 L 273 89.3333 L 276 89.3333 L 276 95.7778 L 273 95.7778 L 273 101.778 L 276 101.778 L 276 108.222 L 273 108.222 L 273 114.222 L 276 114.222 L 276 120.667 L 273 120.667 L 273 126.667 L 276 126.667 L 276 133.111 L 273 133.111 L 273 139.111 L 276 139.111 L 276 145.556 L 273 145.556 L 273 151.556 L 276 151.556 L 276 158"/>
      <path id="hole_032" style="fill:none;stroke:#000000;stroke-width:0.0508" d="M 231.5 58.4444 L 231.5 64.4444 L 234.5 64.4444 L 234.5 58.4444 L 231.5 58.4444 Z"/>
      <path id="hole_033" style="fill:none;stroke:#000000;stroke-width:0.0508" d="M 231.5 70.8889 L 231.5 76.8889 L 234.5 76.8889 L 234.5 70.8889 L 231.5 70.8889 Z"/>
      <path id="hole_034" style="fill:none;stroke:#000000;stroke-width:0.0508" d="M 231.5 83.3333 L 231.5 89.3333 L 234.5 89.3333 L 234.5 83.3333 L 231.5 83.3333 Z"/>
      <path id="hole_035" style="fill:none;stroke:#000000;stroke-width:0.0508" d="M 231.5 95.7778 L 231.5 101.778 L 234.5 101.778 L 234.5 95.7778 L 231.5 95.7778 Z"/>
      <path id="hole_036" style="fill:none;stroke:#000000;stroke-width:0.0508" d="M 231.5 108.222 L 231.5 114.222 L 234.5 114.222 L 234.5 108.222 L 231.5 108.222 Z"/>
      <path id="hole_037" style="fill:none;stroke:#000000;stroke-width:0.0508" d="M 231.5 120.667 L 231.5 126.667 L 234.5 126.667 L 234.5 120.667 L 231.5 120.667 Z"/>
      <path id="hole_038" style="fill:none;stroke:#000000;stroke-width:0.0508" d="M 231.5 133.111 L 231.5 139.111 L 234.5 139.111 L 234.5 133.111 L 231.5 133.111 Z"/>
      <path id="hole_039" style="fill:none;stroke:#000000;stroke-width:0.0508" d="M 231.5 145.556 L 231.5 151.556 L 234.5 151.556 L 234.5 145.556 L 231.5 145.556 Z"/>
      <path id="side_027" style="fill:none;stroke:#000000;stroke-width:0.0508" d="M 276 158 L 268.857 158 L 268.857 155 L 262.857 155 L 262.857 158 L 255.714 158 L 255.714 155 L 249.714 155 L 249.714 158 L 242.571 158 L 242.571 155 L 236.571 155 L 236.571 158 L 229.429 158 L 229.429 155 L 223.429 155 L 223.429 158 L 216.286 158 L 216.286 155 L 210.286 155 L 210.286 158 L 203.143 158 L 203.143 155 L 197.143 155 L 197.143 158 L 190 158"/>
      <path id="side_028" style="fill:none;stroke:#000000;stroke-width:0.0508" d="M 190 158 L 190 151.556 L 193 151.556 L 193 145.556 L 190 145.556 L 190 139.111 L 193 139.111 L 193 133.111 L 190 133.111 L 190 126.667 L 193 126.667 L 193 120.667 L 190 120.667 L 190 114.222 L 193 114.222 L 193 108.222 L 190 108.222 L 190 101.778 L 193 101.778 L 193 95.7778 L 190 95.7778 L 190 89.3333 L 193 89.3333 L 193 83.3333 L 190 83.3333 L 190 76.8889 L 193 76.8889 L 193 70.8889 L 190 70.8889 L 190 64.4444 L 193 64.4444 L 193 58.4444 L 190 58.4444 L 190 52"/>
    </g>
    <g id="piece_006">
      <path id="side_029" style="fill:none;stroke:#000000;stroke-width:0.0508" d="M 52 6 L 59.1429 6 L 59.1429 3 L 65.1429 3 L 65.1429 6 L 72.2857 6 L 72.2857 3 L 78.2857 3 L 78.2857 6 L 85.4286 6 L 85.4286 3 L 91.4286 3 L 91.4286 6 L 98.5714 6 L 98.5714 3 L 104.571 3 L 104.571 6 L 111.714 6 L 111.714 3 L 117.714 3 L 117.714 6 L 124.857 6 L 124.857 3 L 130.857 3 L 130.857 6 L 138 6"/>
      <path id="side_030" style="fill:none;stroke:#000000;stroke-width:0.0508" d="M 138 6 L 138 10 L 135 10 L 135 16 L 138 16 L 138 23 L 135 23 L 135 29 L 138 29 L 138 36 L 135 36 L 135 42 L 138 42 L 138 46"/>
      <path id="hole_040" style="fill:none;stroke:#000000;stroke-width:0.0508" d="M 93.5 10 L 93.5 16 L 96.5 16 L 96.5 10 L 93.5 10 Z"/>
      <path id="hole_041" style="fill:none;stroke:#000000;stroke-width:0.0508" d="M 93.5 23 L 93.5 29 L 96.5 29 L 96.5 23 L 93.5 23 Z"/>
      <path id="hole_042" style="fill:none;stroke:#000000;stroke-width:0.0508" d="M 93.5 36 L 93.5 42 L 96.5 42 L 96.5 36 L 93.5 36 Z"/>
      <path id="side_031" style="fill:none;stroke:#000000;stroke-width:0.0508" d="M 138 46 L 130.857 46 L 130.857 49 L 124.857 49 L 124.857 46 L 117.714 46 L 117.714 49 L 111.714 49 L 111.714 46 L 104.571 46 L 104.571 49 L 98.5714 49 L 98.5714 46 L 91.4286 46 L 91.4286 49 L 85.4286 49 L 85.4286 46 L 78.2857 46 L 78.2857 49 L 72.2857 49 L 72.2857 46 L 65.1429 46 L 65.1429 49 L 59.1429 49 L 59.1429 46 L 52 46"/>
      <path id="side_032" style="fill:none;stroke:#000000;stroke-width:0.0508" d="M 52 46 L 52 42 L 55 42 L 55 36 L 52 36 L 52 29 L 55 29 L 55 23 L 52 23 L 52 16 L 55 16 L 55 10 L 52 10 L 52 6"/>
    </g>
  </g>
</svg>