<!-- Created with Inkscape (http://www.inkscape.org/) -->
<svg xmlns:inkscape="http://www.inkscape.org/namespaces/inkscape" xmlns:sodipodi="http://sodipodi.sourceforge.net/DTD/sodipodi-0.dtd" xmlns="http://www.w3.org/2000/svg" xmlns:svg="http://www.w3.org/2000/svg" width="326mm" height="257mm" viewBox="0 0 326 257" version="1.1" id="svg5" inkscape:version="1.1.2 (0a00cf5339, 2022-02-04)" sodipodi:docname="blank.svg">
  <sodipodi:namedview id="namedview7" pagecolor="#ffffff" bordercolor="#666666" borderopacity="1.0" inkscape:pageshadow="2" inkscape:pageopacity="0.0" inkscape:pagecheckerboard="0" inkscape:document-units="mm" showgrid="false" inkscape:zoom="0.64052329" inkscape:cx="397.33138" inkscape:cy="561.25984" inkscape:window-width="2086" inkscape:window-height="1376" inkscape:window-x="0" inkscape:window-y="0" inkscape:window-maximized="1" inkscape:current-layer="layer1"/>
  <defs id="defs2"/>
  <g inkscape:label="Layer 1" inkscape:groupmode="layer" id="layer1">
    <metadata text="createArgs=['--unit=mm', '--inside=1', '--length=80', '--width=100', '--depth=40', '--equal=0', '--tab=6', '--tabtype=0', '--tabsymmetry=0', '--dimpleheight=0', '--dimplelength=0', '--hairline=1', '--thickness=3', '--kerf=0', '--style=1', '--boxtype=1', '--div_l=1', '--div_w=1', '--keydiv=0', '--spacing=3']"/>
    <path id="piece_001" style="fill:none;stroke:#000000;stroke-width:0.0508" d="M 52 168 L 55 168 L 55 174 L 52 174 L 52 181 L 55 181 L 55 187 L 52 187 L 52 194 L 55 194 L 55 200 L 52 200 L 52 204 L 59.1429 204 L 59.1429 207 L 65.1429 207 L 65.1429 204 L 72.2857 204 L 72.2857 207 L 78.2857 207 L 78.2857 204 L 85.4286 204 L 85.4286 207 L 91.4286 207 L 91.4286 204 L 98.5714 204 L 98.5714 207 L 104.571 207 L 104.571 204 L 111.714 204 L 111.714 207 L 117.714 207 L 117.714 204 L 124.857 204 L 124.857 207 L 130.857 207 L 130.857 204 L 138 204 L 138 200 L 135 200 L 135 194 L 138 194 L 138 187 L 135 187 L 135 181 L 138 181 L 138 174 L 135 174 L 135 168 L 138 168 L 138 164 L 130.857 164 L 130.857 161 L 124.857 161 L 124.857 164 L 117.714 164 L 117.714 161 L 111.714 161 L 111.714 164 L 104.571 164 L 104.571 161 L 98.5714 161 L 98.5714 164 L 91.4286 164 L 91.4286 161 L 85.4286 161 L 85.4286 164 L 78.2857 164 L 78.2857 161 L 72.2857 161 L 72.2857 164 L 65.1429 164 L 65.1429 161 L 59.1429 161 L 59.1429 164 L 52 164 L 52 168 Z M 93.5 168 L 96.5 168 L 96.5 174 L 93.5 174 L 93.5 168 Z M 93.5 181 L 96.5 181 L 96.5 187 L 93.5 187 L 93.5 181 Z M 93.5 194 L 96.5 194 L 96.5 200 L 93.5 200 L 93.5 194 Z"/>
    <path id="xdivider_001" style="fill:none;stroke:#000000;stroke-width:0.0508" d="M 52 217 L 55 217 L 55 223 L 52 223 L 52 230 L 55 230 L 55 236 L 52 236 L 52 243 L 55 243 L 55 249 L 52 249 L 52 253 L 59.1429 253 L 59.1429 256 L 65.1429 256 L 65.1429 253 L 72.2857 253 L 72.2857 256 L 78.2857 256 L 78.2857 253 L 85.4286 253 L 85.4286 256 L 91.4286 256 L 91.4286 253 L 98.5714 253 L 98.5714 256 L 104.571 256 L 104.571 253 L 111.714 253 L 111.714 256 L 117.714 256 L 117.714 253 L 124.857 253 L 124.857 256 L 130.857 256 L 130.857 253 L 138 253 L 138 249 L 135 249 L 135 243 L 138 243 L 138 236 L 135 236 L 135 230 L 138 230 L 138 223 L 135 223 L 135 217 L 138 217 L 138 213 L 130.857 213 L 130.857 210 L 124.857 210 L 124.857 213 L 117.714 213 L 117.714 210 L 111.714 210 L 111.714 213 L 104.571 213 L 104.571 210 L 98.5714 210 L 98.5714 213 L 96.5 213 L 96.5 233 L 93.5 233 L 93.5 213 L 91.4286 213 L 91.4286 210 L 85.4286 210 L 85.4286 213 L 78.2857 213 L 78.2857 210 L 72.2857 210 L 72.2857 213 L 65.1429 213 L 65.1429 210 L 59.1429 210 L 59.1429 213 L 52 213 L 52 217 Z"/>
    <path id="piece_002" style="fill:none;stroke:#000000;stroke-width:0.0508" d="M 6 58.4444 L 3 58.4444 L 3 64.4444 L 6 64.4444 L 6 70.8889 L 3 70.8889 L 3 76.8889 L 6 76.8889 L 6 83.3333 L 3 83.3333 L 3 89.3333 L 6 89.3333 L 6 95.7778 L 3 95.7778 L 3 101.778 L 6 101.778 L 6 103.5 L 10 103.5 L 10 106.5 L 6 106.5 L 6 108.222 L 3 108.222 L 3 114.222 L 6 114.222 L 6 120.667 L 3 120.667 L 3 126.667 L 6 126.667 L 6 133.111 L 3 133.111 L 3 139.111 L 6 139.111 L 6 145.556 L 3 145.556 L 3 151.556 L 6 151.556 L 6 155 L 10 155 L 10 158 L 16 158 L 16 155 L 23 155 L 23 158 L 29 158 L 29 155 L 36 155 L 36 158 L 42 158 L 42 155 L 46 155 L 46 151.556 L 49 151.556 L 49 145.556 L 46 145.556 L 46 139.111 L 49 139.111 L 49 133.111 L 46 133.111 L 46 126.667 L 49 126.667 L 49 120.667 L 46 120.667 L 46 114.222 L 49 114.222 L 49 108.222 L 46 108.222 L 46 106.5 L 42 106.5 L 42 103.5 L 46 103.5 L 46 101.778 L 49 101.778 L 49 95.7778 L 46 95.7778 L 46 89.3333 L 49 89.3333 L 49 83.3333 L 46 83.3333 L 46 76.8889 L 49 76.8889 L 49 70.8889 L 46 70.8889 L 46 64.4444 L 49 64.4444 L 49 58.4444 L 46 58.4444 L 46 55 L 42 55 L 42 52 L 36 52 L 36 55 L 29 55 L 29 52 L 23 52 L 23 55 L 16 55 L 16 52 L 10 52 L 10 55 L 6 55 L 6 58.4444 Z M 16 103.5 L 23 103.5 L 23 106.5 L 16 106.5 L 16 103.5 Z M 29 103.5 L 36 103.5 L 36 106.5 L 29 106.5 L 29 103.5 Z"/>
    <path id="ydivider_001" style="fill:none;stroke:#000000;stroke-width:0.0508" d="M 282 58.4444 L 279 58.4444 L 279 64.4444 L 282 64.4444 L 282 70.8889 L 279 70.8889 L 279 76.8889 L 282 76.8889 L 282 83.3333 L 279 83.3333 L 279 89.3333 L 282 89.3333 L 282 95.7778 L 279 95.7778 L 279 101.778 L 282 101.778 L 282 103.5 L 302 103.5 L 302 106.5 L 282 106.5 L 282 108.222 L 279 108.222 L 279 114.222 L 282 114.222 L 282 120.667 L 279 120.667 L 279 126.667 L 282 126.667 L 282 133.111 L 279 133.111 L 279 139.111 L 282 139.111 L 282 145.556 L 279 145.556 L 279 151.556 L 282 151.556 L 282 155 L 286 155 L 286 158 L 292 158 L 292 155 L 299 155 L 299 158 L 305 158 L 305 155 L 312 155 L 312 158 L 318 158 L 318 155 L 322 155 L 322 151.556 L 325 151.556 L 325 145.556 L 322 145.556 L 322 139.111 L 325 139.111 L 325 133.111 L 322 133.111 L 322 126.667 L 325 126.667 L 325 120.667 L 322 120.667 L 322 114.222 L 325 114.222 L 325 108.222 L 322 108.222 L 322 101.778 L 325 101.778 L 325 95.7778 L 322 95.7778 L 322 89.3333 L 325 89.3333 L 325 83.3333 L 322 83.3333 L 322 76.8889 L 325 76.8889 L 325 70.8889 L 322 70.8889 L 322 64.4444 L 325 64.4444 L 325 58.4444 L 322 58.4444 L 322 55 L 318 55 L 318 52 L 312 52 L 312 55 L 305 55 L 305 52 L 299 52 L 299 55 L 292 55 L 292 52 L 286 52 L 286 55 L 282 55 L 282 58.4444 Z"/>
    <path id="piece_003" style="fill:none;stroke:#000000;stroke-width:0.0508" d="M 52 58.4444 L 55 58.4444 L 55 64.4444 L 52 64.4444 L 52 70.8889 L 55 70.8889 L 55 76.8889 L 52 76.8889 L 52 83.3333 L 55 83.3333 L 55 89.3333 L 52 89.3333 L 52 95.7778 L 55 95.7778 L 55 101.778 L 52 101.778 L 52 108.222 L 55 108.222 L 55 114.222 L 52 114.222 L 52 120.667 L 55 120.667 L 55 126.667 L 52 126.667 L 52 133.111 L 55 133.111 L 55 139.111 L 52 139.111 L 52 145.556 L 55 145.556 L 55 151.556 L 52 151.556 L 52 158 L 59.1429 158 L 59.1429 155 L 65.1429 155 L 65.1429 158 L 72.2857 158 L 72.2857 155 L 78.2857 155 L 78.2857 158 L 85.4286 158 L 85.4286 155 L 91.4286 155 L 91.4286 158 L 98.5714 158 L 98.5714 155 L 104.571 155 L 104.571 158 L 111.714 158 L 111.714 155 L 117.714 155 L 117.714 158 L 124.857 158 L 124.857 155 L 130.857 155 L 130.857 158 L 138 158 L 138 151.556 L 135 151.556 L 135 145.556 L 138 145.556 L 138 139.111 L 135 139.111 L 135 133.111 L 138 133.111 L 138 126.667 L 135 126.667 L 135 120.667 L 138 120.667 L 138 114.222 L 135 114.222 L 135 108.222 L 138 108.222 L 138 101.778 L 135 101.778 L 135 95.7778 L 138 95.7778 L 138 89.3333 L 135 89.3333 L 135 83.3333 L 138 83.3333 L 138 76.8889 L 135 76.8889 L 135 70.8889 L 138 70.8889 L 138 64.4444 L 135 64.4444 L 135 58.4444 L 138 58.4444 L 138 52 L 130.857 52 L 130.857 55 L 124.857 55 L 124.857 52 L 117.714 52 L 117.714 55 L 111.714 55 L 111.714 52 L 104.571 52 L 104.571 55 L 98.5714 55 L 98.5714 52 L 91.4286 52 L 91.4286 55 L 85.4286 55 L 85.4286 52 L 78.2857 52 L 78.2857 55 L 72.2857 55 L 72.2857 52 L 65.1429 52 L 65.1429 55 L 59.1429 55 L 59.1429 52 L 52 52 L 52 58.4444 Z M 111.714 103.5 L 117.714 103.5 L 117.714 106.5 L 111.714 106.5 L 111.714 103.5 Z M 124.857 103.5 L 130.857 103.5 L 130.857 106.5 L 124.857 106.5 L 124.857 103.5 Z M 59.1429 103.5 L 65.1429 103.5 L 65.1429 106.5 L 59.1429 106.5 L 59.1429 103.5 Z M 72.2857 103.5 L 78.2857 103.5 L 78.2857 106.5 L 72.2857 106.5 L 72.2857 103.5 Z M 85.4286 103.5 L 91.4286 103.5 L 91.4286 106.5 L 85.4286 106.5 L 85.4286 103.5 Z M 93.5 108.222 L 96.5 108.222 L 96.5 114.222 L 93.5 114.222 L 93.5 108.222 Z M 93.5 120.667 L 96.5 120.667 L 96.5 126.667 L 93.5 126.667 L 93.5 120.667 Z M 93.5 133.111 L 96.5 133.111 L 96.5 139.111 L 93.5 139.111 L 93.5 133.111 Z M 93.5 145.556 L 96.5 145.556 L 96.5 151.556 L 93.5 151.556 L 93.5 145.556 Z M 93.5 58.4444 L 96.5 58.4444 L 96.5 64.4444 L 93.5 64.4444 L 93.5 58.4444 Z M 93.5 70.8889 L 96.5 70.8889 L 96.5 76.8889 L 93.5 76.8889 L 93.5 70.8889 Z M 93.5 83.3333 L 96.5 83.3333 L 96.5 89.3333 L 93.5 89.3333 L 93.5 83.3333 Z M 93.5 95.7778 L 96.5 95.7778 L 96.5 101.778 L 93.5 101.778 L 93.5 95.7778 Z M 98.5714 103.5 L 104.571 103.5 L 104.571 106.5 L 98.5714 106.5 L 98.5714 103.5 Z"/>
    <path id="piece_004" style="fill:none;stroke:#000000;stroke-width:0.0508" d="M 144 58.4444 L 141 58.4444 L 141 64.4444 L 144 64.4444 L 144 70.8889 L 141 70.8889 L 141 76.8889 L 144 76.8889 L 144 83.3333 L 141 83.3333 L 141 89.3333 L 144 89.3333 L 144 95.7778 L 141 95.7778 L 141 101.778 L 144 101.778 L 144 103.5 L 148 103.5 L 148 106.5 L 144 106.5 L 144 108.222 L 141 108.222 L 141 114.222 L 144 114.222 L 144 120.667 L 141 120.667 L 141 126.667 L 144 126.667 L 144 133.111 L 141 133.111 L 141 139.111 L 144 139.111 L 144 145.556 L 141 145.556 L 141 151.556 L 144 151.556 L 144 155 L 148 155 L 148 158 L 154 158 L 154 155 L 161 155 L 161 158 L 167 158 L 167 155 L 174 155 L 174 158 L 180 158 L 180 155 L 184 155 L 184 151.556 L 187 151.556 L 187 145.556 L 184 145.556 L 184 139.111 L 187 139.111 L 187 133.111 L 184 133.111 L 184 126.667 L 187 126.667 L 187 120.667 L 184 120.667 L 184 114.222 L 187 114.222 L 187 108.222 L 184 108.222 L 184 106.5 L 180 106.5 L 180 103.5 L 184 103.5 L 184 101.778 L 187 101.778 L 187 95.7778 L 184 95.7778 L 184 89.3333 L 187 89.3333 L 187 83.3333 L 184 83.3333 L 184 76.8889 L 187 76.8889 L 187 70.8889 L 184 70.8889 L 184 64.4444 L 187 64.4444 L 187 58.4444 L 184 58.4444 L 184 55 L 180 55 L 180 52 L 174 52 L 174 55 L 167 55 L 167 52 L 161 52 L 161 55 L 154 55 L 154 52 L 148 52 L 148 55 L 144 55 L 144 58.4444 Z M 154 103.5 L 161 103.5 L 161 106.5 L 154 106.5 L 154 103.5 Z M 167 103.5 L 174 103.5 L 174 106.5 L 167 106.5 L 167 103.5 Z"/>
    <path id="piece_005" style="fill:none;stroke:#000000;stroke-width:0.0508" d="M 190 58.4444 L 193 58.4444 L 193 64.4444 L 190 64.4444 L 190 70.8889 L 193 70.8889 L 193 76.8889 L 190 76.8889 L 190 83.3333 L 193 83.3333 L 193 89.3333 L 190 89.3333 L 190 95.7778 L 193 95.7778 L 193 101.778 L 190 101.778 L 190 108.222 L 193 108.222 L 193 114.222 L 190 114.222 L 190 120.667 L 193 120.667 L 193 126.667 L 190 126.667 L 190 133.111 L 193 133.111 L 193 139.111 L 190 139.111 L 190 145.556 L 193 145.556 L 193 151.556 L 190 151.556 L 190 158 L 197.143 158 L 197.143 155 L 203.143 155 L 203.143 158 L 210.286 158 L 210.286 155 L 216.286 155 L 216.286 158 L 223.429 158 L 223.429 155 L 229.429 155 L 229.429 158 L 236.571 158 L 236.571 155 L 242.571 155 L 242.571 158 L 249.714 158 L 249.714 155 L 255.714 155 L 255.714 158 L 262.857 158 L 262.857 155 L 268.857 155 L 268.857 158 L 276 158 L 276 151.556 L 273 151.556 L 273 145.556 L 276 145.556 L 276 139.111 L 273 139.111 L 273 133.111 L 276 133.111 L 276 126.667 L 273 126.667 L 273 120.667 L 276 120.667 L 276 114.222 L 273 114.222 L 273 108.222 L 276 108.222 L 276 101.778 L 273 101.778 L 273 95.7778 L 276 95.7778 L 276 89.3333 L 273 89.3333 L 273 83.3333 L 276 83.3333 L 276 76.8889 L 273 76.8889 L 273 70.8889 L 276 70.8889 L 276 64.4444 L 273 64.4444 L 273 58.4444 L 276 58.4444 L 276 52 L 268.857 52 L 268.857 55 L 262.857 55 L 262.857 52 L 255.714 52 L 255.714 55 L 249.714 55 L 249.714 52 L 242.571 52 L 242.571 55 L 236.571 55 L 236.571 52 L 229.429 52 L 229.429 55 L 223.429 55 L 223.429 52 L 216.286 52 L 216.286 55 L 210.286 55 L 210.286 52 L 203.143 52 L 203.143 55 L 197.143 55 L 197.143 52 L 190 52 L 190 58.4444 Z M 197.143 103.5 L 203.143 103.5 L 203.143 106.5 L 197.143 106.5 L 197.143 103.5 Z M 210.286 103.5 L 216.286 103.5 L 216.286 106.5 L 210.286 106.5 L 210.286 103.5 Z M 223.429 103.5 L 229.429 103.5 L 229.429 106.5 L 223.429 106.5 L 223.429 103.5 Z M 231.5 108.222 L 234.5 108.222 L 234.5 114.222 L 231.5 114.222 L 231.5 108.222 Z M 231.5 120.667 L 234.5 120.667 L 234.5 126.667 L 231.5 126.667 L 231.5 120.667 Z M 231.5 133.111 L 234.5 133.111 L 234.5 139.111 L 231.5 139.111 L 231.5 133.111 Z M 231.5 145.556 L 234.5 145.556 L 234.5 151.556 L 231.5 151.556 L 231.5 145.556 Z M 231.5 58.4444 L 234.5 58.4444 L 234.5 64.4444 L 231.5 64.4444 L 231.5 58.4444 Z M 231.5 70.8889 L 234.5 70.8889 L 234.5 76.8889 L 231.5 76.8889 L 231.5 70.8889 Z M 231.5 83.3333 L 234.5 83.3333 L 234.5 89.3333 L 231.5 89.3333 L 231.5 83.3333 Z M 231.5 95.7778 L 234.5 95.7778 L 234.5 101.778 L 231.5 101.778 L 231.5 95.7778 Z M 236.571 103.5 L 242.571 103.5 L 242.571 106.5 L 236.571 106.5 L 236.571 103.5 Z M 249.714 103.5 L 255.714 103.5 L 255.714 106.5 L 249.714 106.5 L 249.714 103.5 Z M 262.857 103.5 L 268.857 103.5 L 268.857 106.5 L 262.857 106.5 L 262.857 103.5 Z"/>
    <path id="piece_006" style="fill:none;stroke:#000000;stroke-width:0.0508" d="M 52 10 L 55 10 L 55 16 L 52 16 L 52 23 L 55 23 L 55 29 L 52 29 L 52 36 L 55 36 L 55 42 L 52 42 L 52 46 L 59.1429 46 L 59.1429 49 L 65.1429 49 L 65.1429 46 L 72.2857 46 L 72.2857 49 L 78.2857 49 L 78.2857 46 L 85.4286 46 L 85.4286 49 L 91.4286 49 L 91.4286 46 L 98.5714 46 L 98.5714 49 L 104.571 49 L 104.571 46 L 111.714 46 L 111.714 49 L 117.714 49 L 117.714 46 L 124.857 46 L 124.857 49 L 130.857 49 L 130.857 46 L 138 46 L 138 42 L 135 42 L 135 36 L 138 36 L 138 29 L 135 29 L 135 23 L 138 23 L 138 16 L 135 16 L 135 10 L 138 10 L 138 6 L 130.857 6 L 130.857 3 L 124.857 3 L 124.857 6 L 117.714 6 L 117.714 3 L 111.714 3 L 111.714 6 L 104.571 6 L 104.571 3 L 98.5714 3 L 98.5714 6 L 91.4286 6 L 91.4286 3 L 85.4286 3 L 85.4286 6 L 78.2857 6 L 78.2857 3 L 72.2857 3 L 72.2857 6 L 65.1429 6 L 65.1429 3 L 59.1429 3 L 59.1429 6 L 52 6 L 52 10 Z M 93.5 10 L 96.5 10 L 96.5 16 L 93.5 16 L 93.5 10 Z M 93.5 23 L 96.5 23 L 96.5 29 L 93.5 29 L 93.5 23 Z M 93.5 36 L 96.5 36 L 96.5 42 L 93.5 42 L 93.5 36 Z"/>
  </g>
</svg>