<!-- Created with Inkscape (http://www.inkscape.org/) -->
<svg xmlns:inkscape="http://www.inkscape.org/namespaces/inkscape" xmlns:sodipodi="http://sodipodi.sourceforge.net/DTD/sodipodi-0.dtd" xmlns="http://www.w3.org/2000/svg" xmlns:svg="http://www.w3.org/2000/svg" width="137mm" height="361mm" viewBox="0 0 137 361" version="1.1" id="svg5" inkscape:version="1.1.2 (0a00cf5339, 2022-02-04)" sodipodi:docname="blank.svg">
  <sodipodi:namedview id="namedview7" pagecolor="#ffffff" bordercolor="#666666" borderopacity="1.0" inkscape:pageshadow="2" inkscape:pageopacity="0.0" inkscape:pagecheckerboard="0" inkscape:document-units="mm" showgrid="false" inkscape:zoom="0.64052329" inkscape:cx="397.33138" inkscape:cy="561.25984" inkscape:window-width="2086" inkscape:window-height="1376" inkscape:window-x="0" inkscape:window-y="0" inkscape:window-maximized="1" inkscape:current-layer="layer1"/>
  <defs id="defs2"/>
  <g inkscape:label="Layer 1" inkscape:groupmode="layer" id="layer1">
    <metadata text="createArgs=['--unit=mm', '--inside=1', '--length=80', '--width=100', '--depth=40', '--equal=0', '--tab=6', '--tabtype=0', '--tabsymmetry=0', '--dimpleheight=0', '--dimplelength=0', '--hairline=1', '--thickness=3', '--kerf=0', '--boxtype=1', '--div-l=1', '--div-w=1', '--keydiv=0', '--spacing=2', '--style=2']"/>
    <path id="piece_001" style="fill:none;stroke:#000000;stroke-width:0.0508" d="M 50 117 L 53 117 L 53 123 L 50 123 L 50 130 L 53 130 L 53 136 L 50 136 L 50 143 L 53 143 L 53 149 L 50 149 L 50 153 L 57.1429 153 L 57.1429 156 L 63.1429 156 L 63.1429 153 L 70.2857 153 L 70.2857 156 L 76.2857 156 L 76.2857 153 L 83.4286 153 L 83.4286 156 L 89.4286 156 L 89.4286 153 L 96.5714 153 L 96.5714 156 L 102.571 156 L 102.571 153 L 109.714 153 L 109.714 156 L 115.714 156 L 115.714 153 L 122.857 153 L 122.857 156 L 128.857 156 L 128.857 153 L 136 153 L 136 149 L 133 149 L 133 143 L 136 143 L 136 136 L 133 136 L 133 130 L 136 130 L 136 123 L 133 123 L 133 117 L 136 117 L 136 113 L 128.857 113 L 128.857 110 L 122.857 110 L 122.857 113 L 115.714 113 L 115.714 110 L 109.714 110 L 109.714 113 L 102.571 113 L 102.571 110 L 96.5714 110 L 96.5714 113 L 89.4286 113 L 89.4286 110 L 83.4286 110 L 83.4286 113 L 76.2857 113 L 76.2857 110 L 70.2857 110 L 70.2857 113 L 63.1429 113 L 63.1429 110 L 57.1429 110 L 57.1429 113 L 50 113 L 50 117 Z M 91.5 117 L 94.5 117 L 94.5 123 L 91.5 123 L 91.5 117 Z M 91.5 130 L 94.5 130 L 94.5 136 L 91.5 136 L 91.5 130 Z M 91.5 143 L 94.5 143 L 94.5 149 L 91.5 149 L 91.5 143 Z"/>
    <path id="xdivider_001" style="fill:none;stroke:#000000;stroke-width:0.0508" d="M 2 213 L 5 213 L 5 219 L 2 219 L 2 226 L 5 226 L 5 232 L 2 232 L 2 239 L 5 239 L 5 245 L 2 245 L 2 249 L 9.14286 249 L 9.14286 252 L 15.1429 252 L 15.1429 249 L 22.2857 249 L 22.2857 252 L 28.2857 252 L 28.2857 249 L 35.4286 249 L 35.4286 252 L 41.4286 252 L 41.4286 249 L 43.5 249 L 43.5 229 L 46.5 229 L 46.5 249 L 48.5714 249 L 48.5714 252 L 54.5714 252 L 54.5714 249 L 61.7143 249 L 61.7143 252 L 67.7143 252 L 67.7143 249 L 74.8571 249 L 74.8571 252 L 80.8571 252 L 80.8571 249 L 88 249 L 88 245 L 85 245 L 85 239 L 88 239 L 88 232 L 85 232 L 85 226 L 88 226 L 88 219 L 85 219 L 85 213 L 88 213 L 88 209 L 80.8571 209 L 80.8571 206 L 74.8571 206 L 74.8571 209 L 67.7143 209 L 67.7143 206 L 61.7143 206 L 61.7143 209 L 54.5714 209 L 54.5714 206 L 48.5714 206 L 48.5714 209 L 41.4286 209 L 41.4286 206 L 35.4286 206 L 35.4286 209 L 28.2857 209 L 28.2857 206 L 22.2857 206 L 22.2857 209 L 15.1429 209 L 15.1429 206 L 9.14286 206 L 9.14286 209 L 2 209 L 2 213 Z"/>
    <path id="piece_002" style="fill:none;stroke:#000000;stroke-width:0.0508" d="M 5 8.44444 L 2 8.44444 L 2 14.4444 L 5 14.4444 L 5 20.8889 L 2 20.8889 L 2 26.8889 L 5 26.8889 L 5 33.3333 L 2 33.3333 L 2 39.3333 L 5 39.3333 L 5 45.7778 L 2 45.7778 L 2 51.7778 L 5 51.7778 L 5 53.5 L 9 53.5 L 9 56.5 L 5 56.5 L 5 58.2222 L 2 58.2222 L 2 64.2222 L 5 64.2222 L 5 70.6667 L 2 70.6667 L 2 76.6667 L 5 76.6667 L 5 83.1111 L 2 83.1111 L 2 89.1111 L 5 89.1111 L 5 95.5556 L 2 95.5556 L 2 101.556 L 5 101.556 L 5 105 L 9 105 L 9 108 L 15 108 L 15 105 L 22 105 L 22 108 L 28 108 L 28 105 L 35 105 L 35 108 L 41 108 L 41 105 L 45 105 L 45 101.556 L 48 101.556 L 48 95.5556 L 45 95.5556 L 45 89.1111 L 48 89.1111 L 48 83.1111 L 45 83.1111 L 45 76.6667 L 48 76.6667 L 48 70.6667 L 45 70.6667 L 45 64.2222 L 48 64.2222 L 48 58.2222 L 45 58.2222 L 45 56.5 L 41 56.5 L 41 53.5 L 45 53.5 L 45 51.7778 L 48 51.7778 L 48 45.7778 L 45 45.7778 L 45 39.3333 L 48 39.3333 L 48 33.3333 L 45 33.3333 L 45 26.8889 L 48 26.8889 L 48 20.8889 L 45 20.8889 L 45 14.4444 L 48 14.4444 L 48 8.44444 L 45 8.44444 L 45 5 L 41 5 L 41 2 L 35 2 L 35 5 L 28 5 L 28 2 L 22 2 L 22 5 L 15 5 L 15 2 L 9 2 L 9 5 L 5 5 L 5 8.44444 Z M 15 53.5 L 22 53.5 L 22 56.5 L 15 56.5 L 15 53.5 Z M 28 53.5 L 35 53.5 L 35 56.5 L 28 56.5 L 28 53.5 Z"/>
    <path id="ydivider_001" style="fill:none;stroke:#000000;stroke-width:0.0508" d="M 5 260.444 L 2 260.444 L 2 266.444 L 5 266.444 L 5 272.889 L 2 272.889 L 2 278.889 L 5 278.889 L 5 285.333 L 2 285.333 L 2 291.333 L 5 291.333 L 5 297.778 L 2 297.778 L 2 303.778 L 5 303.778 L 5 305.5 L 25 305.5 L 25 308.5 L 5 308.5 L 5 310.222 L 2 310.222 L 2 316.222 L 5 316.222 L 5 322.667 L 2 322.667 L 2 328.667 L 5 328.667 L 5 335.111 L 2 335.111 L 2 341.111 L 5 341.111 L 5 347.556 L 2 347.556 L 2 353.556 L 5 353.556 L 5 357 L 9 357 L 9 360 L 15 360 L 15 357 L 22 357 L 22 360 L 28 360 L 28 357 L 35 357 L 35 360 L 41 360 L 41 357 L 45 357 L 45 353.556 L 48 353.556 L 48 347.556 L 45 347.556 L 45 341.111 L 48 341.111 L 48 335.111 L 45 335.111 L 45 328.667 L 48 328.667 L 48 322.667 L 45 322.667 L 45 316.222 L 48 316.222 L 48 310.222 L 45 310.222 L 45 303.778 L 48 303.778 L 48 297.778 L 45 297.778 L 45 291.333 L 48 291.333 L 48 285.333 L 45 285.333 L 45 278.889 L 48 278.889 L 48 272.889 L 45 272.889 L 45 266.444 L 48 266.444 L 48 260.444 L 45 260.444 L 45 257 L 41 257 L 41 254 L 35 254 L 35 257 L 28 257 L 28 254 L 22 254 L 22 257 L 15 257 L 15 254 L 9 254 L 9 257 L 5 257 L 5 260.444 Z"/>
    <path id="piece_003" style="fill:none;stroke:#000000;stroke-width:0.0508" d="M 50 8.44444 L 53 8.44444 L 53 14.4444 L 50 14.4444 L 50 20.8889 L 53 20.8889 L 53 26.8889 L 50 26.8889 L 50 33.3333 L 53 33.3333 L 53 39.3333 L 50 39.3333 L 50 45.7778 L 53 45.7778 L 53 51.7778 L 50 51.7778 L 50 58.2222 L 53 58.2222 L 53 64.2222 L 50 64.2222 L 50 70.6667 L 53 70.6667 L 53 76.6667 L 50 76.6667 L 50 83.1111 L 53 83.1111 L 53 89.1111 L 50 89.1111 L 50 95.5556 L 53 95.5556 L 53 101.556 L 50 101.556 L 50 108 L 57.1429 108 L 57.1429 105 L 63.1429 105 L 63.1429 108 L 70.2857 108 L 70.2857 105 L 76.2857 105 L 76.2857 108 L 83.4286 108 L 83.4286 105 L 89.4286 105 L 89.4286 108 L 96.5714 108 L 96.5714 105 L 102.571 105 L 102.571 108 L 109.714 108 L 109.714 105 L 115.714 105 L 115.714 108 L 122.857 108 L 122.857 105 L 128.857 105 L 128.857 108 L 136 108 L 136 101.556 L 133 101.556 L 133 95.5556 L 136 95.5556 L 136 89.1111 L 133 89.1111 L 133 83.1111 L 136 83.1111 L 136 76.6667 L 133 76.6667 L 133 70.6667 L 136 70.6667 L 136 64.2222 L 133 64.2222 L 133 58.2222 L 136 58.2222 L 136 51.7778 L 133 51.7778 L 133 45.7778 L 136 45.7778 L 136 39.3333 L 133 39.3333 L 133 33.3333 L 136 33.3333 L 136 26.8889 L 133 26.8889 L 133 20.8889 L 136 20.8889 L 136 14.4444 L 133 14.4444 L 133 8.44444 L 136 8.44444 L 136 2 L 128.857 2 L 128.857 5 L 122.857 5 L 122.857 2 L 115.714 2 L 115.714 5 L 109.714 5 L 109.714 2 L 102.571 2 L 102.571 5 L 96.5714 5 L 96.5714 2 L 89.4286 2 L 89.4286 5 L 83.4286 5 L 83.4286 2 L 76.2857 2 L 76.2857 5 L 70.2857 5 L 70.2857 2 L 63.1429 2 L 63.1429 5 L 57.1429 5 L 57.1429 2 L 50 2 L 50 8.44444 Z M 109.714 53.5 L 115.714 53.5 L 115.714 56.5 L 109.714 56.5 L 109.714 53.5 Z M 122.857 53.5 L 128.857 53.5 L 128.857 56.5 L 122.857 56.5 L 122.857 53.5 Z M 57.1429 53.5 L 63.1429 53.5 L 63.1429 56.5 L 57.1429 56.5 L 57.1429 53.5 Z M 70.2857 53.5 L 76.2857 53.5 L 76.2857 56.5 L 70.2857 56.5 L 70.2857 53.5 Z M 83.4286 53.5 L 89.4286 53.5 L 89.4286 56.5 L 83.4286 56.5 L 83.4286 53.5 Z M 91.5 20.8889 L 94.5 20.8889 L 94.5 26.8889 L 91.5 26.8889 L 91.5 20.8889 Z M 91.5 33.3333 L 94.5 33.3333 L 94.5 39.3333 L 91.5 39.3333 L 91.5 33.3333 Z M 91.5 45.7778 L 94.5 45.7778 L 94.5 51.7778 L 91.5 51.7778 L 91.5 45.7778 Z M 91.5 58.2222 L 94.5 58.2222 L 94.5 64.2222 L 91.5 64.2222 L 91.5 58.2222 Z M 91.5 70.6667 L 94.5 70.6667 L 94.5 76.6667 L 91.5 76.6667 L 91.5 70.6667 Z M 91.5 8.44444 L 94.5 8.44444 L 94.5 14.4444 L 91.5 14.4444 L 91.5 8.44444 Z M 91.5 83.1111 L 94.5 83.1111 L 94.5 89.1111 L 91.5 89.1111 L 91.5 83.1111 Z M 91.5 95.5556 L 94.5 95.5556 L 94.5 101.556 L 91.5 101.556 L 91.5 95.5556 Z M 96.5714 53.5 L 102.571 53.5 L 102.571 56.5 L 96.5714 56.5 L 96.5714 53.5 Z"/>
  </g>
</svg>