<!-- Created with Inkscape (http://www.inkscape.org/) -->
<svg xmlns:inkscape="http://www.inkscape.org/namespaces/inkscape" xmlns:sodipodi="http://sodipodi.sourceforge.net/DTD/sodipodi-0.dtd" xmlns="http://www.w3.org/2000/svg" xmlns:svg="http://www.w3.org/2000/svg" width="449mm" height="361mm" viewBox="0 0 449 361" version="1.1" id="svg5" inkscape:version="1.1.2 (0a00cf5339, 2022-02-04)" sodipodi:docname="blank.svg">
  <sodipodi:namedview id="namedview7" pagecolor="#ffffff" bordercolor="#666666" borderopacity="1.0" inkscape:pageshadow="2" inkscape:pageopacity="0.0" inkscape:pagecheckerboard="0" inkscape:document-units="mm" showgrid="false" inkscape:zoom="0.64052329" inkscape:cx="397.33138" inkscape:cy="561.25984" inkscape:window-width="2086" inkscape:window-height="1376" inkscape:window-x="0" inkscape:window-y="0" inkscape:window-maximized="1" inkscape:current-layer="layer1"/>
  <defs id="defs2"/>
  <g inkscape:label="Layer 1" inkscape:groupmode="layer" id="layer1">
    <metadata text="createArgs=['--unit=mm', '--inside=1', '--length=80', '--width=100', '--depth=40', '--equal=0', '--tab=6', '--tabtype=0', '--tabsymmetry=0', '--dimpleheight=0', '--dimplelength=0', '--hairline=1', '--thickness=3', '--kerf=0', '--boxtype=1', '--div-l=1', '--div-w=1', '--keydiv=0', '--spacing=2', '--style=3']"/>
    <path id="piece_001" style="fill:none;stroke:#000000;stroke-width:0.0508" d="M 274 9 L 277 9 L 277 15 L 274 15 L 274 22 L 277 22 L 277 28 L 274 28 L 274 35 L 277 35 L 277 41 L 274 41 L 274 45 L 281.143 45 L 281.143 48 L 287.143 48 L 287.143 45 L 294.286 45 L 294.286 48 L 300.286 48 L 300.286 45 L 307.429 45 L 307.429 48 L 313.429 48 L 313.429 45 L 320.571 45 L 320.571 48 L 326.571 48 L 326.571 45 L 333.714 45 L 333.714 48 L 339.714 48 L 339.714 45 L 346.857 45 L 346.857 48 L 352.857 48 L 352.857 45 L 360 45 L 360 41 L 357 41 L 357 35 L 360 35 L 360 28 L 357 28 L 357 22 L 360 22 L 360 15 L 357 15 L 357 9 L 360 9 L 360 5 L 352.857 5 L 352.857 2 L 346.857 2 L 346.857 5 L 339.714 5 L 339.714 2 L 333.714 2 L 333.714 5 L 326.571 5 L 326.571 2 L 320.571 2 L 320.571 5 L 313.429 5 L 313.429 2 L 307.429 2 L 307.429 5 L 300.286 5 L 300.286 2 L 294.286 2 L 294.286 5 L 287.143 5 L 287.143 2 L 281.143 2 L 281.143 5 L 274 5 L 274 9 Z M 315.5 22 L 318.5 22 L 318.5 28 L 315.5 28 L 315.5 22 Z M 315.5 35 L 318.5 35 L 318.5 41 L 315.5 41 L 315.5 35 Z M 315.5 9 L 318.5 9 L 318.5 15 L 315.5 15 L 315.5 9 Z"/>
    <path id="xdivider_001" style="fill:none;stroke:#000000;stroke-width:0.0508" d="M 2 213 L 5 213 L 5 219 L 2 219 L 2 226 L 5 226 L 5 232 L 2 232 L 2 239 L 5 239 L 5 245 L 2 245 L 2 249 L 9.1429 249 L 9.1429 252 L 15.1429 252 L 15.1429 249 L 22.2857 249 L 22.2857 252 L 28.2857 252 L 28.2857 249 L 35.4286 249 L 35.4286 252 L 41.4286 252 L 41.4286 249 L 48.5714 249 L 48.5714 252 L 54.5714 252 L 54.5714 249 L 61.7143 249 L 61.7143 252 L 67.7143 252 L 67.7143 249 L 74.8571 249 L 74.8571 252 L 80.8571 252 L 80.8571 249 L 88 249 L 88 245 L 85 245 L 85 239 L 88 239 L 88 232 L 85 232 L 85 226 L 88 226 L 88 219 L 85 219 L 85 213 L 88 213 L 88 209 L 80.8571 209 L 80.8571 206 L 74.8571 206 L 74.8571 209 L 67.7143 209 L 67.7143 206 L 61.7143 206 L 61.7143 209 L 54.5714 209 L 54.5714 206 L 48.5714 206 L 48.5714 209 L 46.5 209 L 46.5 229 L 43.5 229 L 43.5 209 L 41.4286 209 L 41.4286 206 L 35.4286 206 L 35.4286 209 L 28.2857 209 L 28.2857 206 L 22.2857 206 L 22.2857 209 L 15.1429 209 L 15.1429 206 L 9.14286 206 L 9.14286 209 L 2 209 L 2 213 Z"/>
    <path id="piece_002" style="fill:none;stroke:#000000;stroke-width:0.0508" d="M 181 8.4444 L 178 8.4444 L 178 14.4444 L 181 14.4444 L 181 20.8889 L 178 20.8889 L 178 26.8889 L 181 26.8889 L 181 33.3333 L 178 33.3333 L 178 39.3333 L 181 39.3333 L 181 45.7778 L 178 45.7778 L 178 51.7778 L 181 51.7778 L 181 53.5 L 185 53.5 L 185 56.5 L 181 56.5 L 181 58.2222 L 178 58.2222 L 178 64.2222 L 181 64.2222 L 181 70.6667 L 178 70.6667 L 178 76.6667 L 181 76.6667 L 181 83.1111 L 178 83.1111 L 178 89.1111 L 181 89.1111 L 181 95.5556 L 178 95.5556 L 178 101.556 L 181 101.556 L 181 105 L 185 105 L 185 108 L 191 108 L 191 105 L 198 105 L 198 108 L 204 108 L 204 105 L 211 105 L 211 108 L 217 108 L 217 105 L 221 105 L 221 101.556 L 224 101.556 L 224 95.5556 L 221 95.5556 L 221 89.1111 L 224 89.1111 L 224 83.1111 L 221 83.1111 L 221 76.6667 L 224 76.6667 L 224 70.6667 L 221 70.6667 L 221 64.2222 L 224 64.2222 L 224 58.2222 L 221 58.2222 L 221 56.5 L 217 56.5 L 217 53.5 L 221 53.5 L 221 51.7778 L 224 51.7778 L 224 45.7778 L 221 45.7778 L 221 39.3333 L 224 39.3333 L 224 33.3333 L 221 33.3333 L 221 26.8889 L 224 26.8889 L 224 20.8889 L 221 20.8889 L 221 14.4444 L 224 14.4444 L 224 8.44444 L 221 8.44444 L 221 5 L 217 5 L 217 2 L 211 2 L 211 5 L 204 5 L 204 2 L 198 2 L 198 5 L 191 5 L 191 2 L 185 2 L 185 5 L 181 5 L 181 8.4444 Z M 191 53.5 L 198 53.5 L 198 56.5 L 191 56.5 L 191 53.5 Z M 204 53.5 L 211 53.5 L 211 56.5 L 204 56.5 L 204 53.5 Z"/>
    <path id="ydivider_001" style="fill:none;stroke:#000000;stroke-width:0.0508" d="M 3 260.444 L 0 260.444 L 0 266.444 L 3 266.444 L 3 272.889 L 0 272.889 L 0 278.889 L 3 278.889 L 3 285.333 L 0 285.333 L 0 291.333 L 3 291.333 L 3 297.778 L 0 297.778 L 0 303.778 L 3 303.778 L 3 305.5 L 23 305.5 L 23 308.5 L 3 308.5 L 3 310.222 L 0 310.222 L 0 316.222 L 3 316.222 L 3 322.667 L 0 322.667 L 0 328.667 L 3 328.667 L 3 335.111 L 0 335.111 L 0 341.111 L 3 341.111 L 3 347.556 L 0 347.556 L 0 353.556 L 3 353.556 L 3 357 L 7 357 L 7 360 L 13 360 L 13 357 L 20 357 L 20 360 L 26 360 L 26 357 L 33 357 L 33 360 L 39 360 L 39 357 L 43 357 L 43 353.556 L 46 353.556 L 46 347.556 L 43 347.556 L 43 341.111 L 46 341.111 L 46 335.111 L 43 335.111 L 43 328.667 L 46 328.667 L 46 322.667 L 43 322.667 L 43 316.222 L 46 316.222 L 46 310.222 L 43 310.222 L 43 303.778 L 46 303.778 L 46 297.778 L 43 297.778 L 43 291.333 L 46 291.333 L 46 285.333 L 43 285.333 L 43 278.889 L 46 278.889 L 46 272.889 L 43 272.889 L 43 266.444 L 46 266.444 L 46 260.444 L 43 260.444 L 43 257 L 39 257 L 39 254 L 33 254 L 33 257 L 26 257 L 26 254 L 20 254 L 20 257 L 13 257 L 13 254 L 7 254 L 7 257 L 3 257 L 3 260.444 Z"/>
    <path id="piece_003" style="fill:none;stroke:#000000;stroke-width:0.0508" d="M 2 8.4444 L 5 8.4444 L 5 14.4444 L 2 14.4444 L 2 20.8889 L 5 20.8889 L 5 26.8889 L 2 26.8889 L 2 33.3333 L 5 33.3333 L 5 39.3333 L 2 39.3333 L 2 45.7778 L 5 45.7778 L 5 51.7778 L 2 51.7778 L 2 58.2222 L 5 58.2222 L 5 64.2222 L 2 64.2222 L 2 70.6667 L 5 70.6667 L 5 76.6667 L 2 76.6667 L 2 83.1111 L 5 83.1111 L 5 89.1111 L 2 89.1111 L 2 95.5556 L 5 95.5556 L 5 101.556 L 2 101.556 L 2 108 L 9.1429 108 L 9.1429 105 L 15.1429 105 L 15.1429 108 L 22.2857 108 L 22.2857 105 L 28.2857 105 L 28.2857 108 L 35.4286 108 L 35.4286 105 L 41.4286 105 L 41.4286 108 L 48.5714 108 L 48.5714 105 L 54.5714 105 L 54.5714 108 L 61.7143 108 L 61.7143 105 L 67.7143 105 L 67.7143 108 L 74.8571 108 L 74.8571 105 L 80.8571 105 L 80.8571 108 L 88 108 L 88 101.556 L 85 101.556 L 85 95.5556 L 88 95.5556 L 88 89.1111 L 85 89.1111 L 85 83.1111 L 88 83.1111 L 88 76.6667 L 85 76.6667 L 85 70.6667 L 88 70.6667 L 88 64.2222 L 85 64.2222 L 85 58.2222 L 88 58.2222 L 88 51.7778 L 85 51.7778 L 85 45.7778 L 88 45.7778 L 88 39.3333 L 85 39.3333 L 85 33.3333 L 88 33.3333 L 88 26.8889 L 85 26.8889 L 85 20.8889 L 88 20.8889 L 88 14.4444 L 85 14.4444 L 85 8.44444 L 88 8.44444 L 88 2 L 80.8571 2 L 80.8571 5 L 74.8571 5 L 74.8571 2 L 67.7143 2 L 67.7143 5 L 61.7143 5 L 61.7143 2 L 54.5714 2 L 54.5714 5 L 48.5714 5 L 48.5714 2 L 41.4286 2 L 41.4286 5 L 35.4286 5 L 35.4286 2 L 28.2857 2 L 28.2857 5 L 22.2857 5 L 22.2857 2 L 15.1429 2 L 15.1429 5 L 9.14286 5 L 9.14286 2 L 2 2 L 2 8.4444 Z M 22.2857 53.5 L 28.2857 53.5 L 28.2857 56.5 L 22.2857 56.5 L 22.2857 53.5 Z M 35.4286 53.5 L 41.4286 53.5 L 41.4286 56.5 L 35.4286 56.5 L 35.4286 53.5 Z M 43.5 20.8889 L 46.5 20.8889 L 46.5 26.8889 L 43.5 26.8889 L 43.5 20.8889 Z M 43.5 33.3333 L 46.5 33.3333 L 46.5 39.3333 L 43.5 39.3333 L 43.5 33.3333 Z M 43.5 45.7778 L 46.5 45.7778 L 46.5 51.7778 L 43.5 51.7778 L 43.5 45.7778 Z M 43.5 58.2222 L 46.5 58.2222 L 46.5 64.2222 L 43.5 64.2222 L 43.5 58.2222 Z M 43.5 70.6667 L 46.5 70.6667 L 46.5 76.6667 L 43.5 76.6667 L 43.5 70.6667 Z M 43.5 8.44444 L 46.5 8.44444 L 46.5 14.4444 L 43.5 14.4444 L 43.5 8.44444 Z M 43.5 83.1111 L 46.5 83.1111 L 46.5 89.1111 L 43.5 89.1111 L 43.5 83.1111 Z M 43.5 95.5556 L 46.5 95.5556 L 46.5 101.556 L 43.5 101.556 L 43.5 95.5556 Z M 48.5714 53.5 L 54.5714 53.5 L 54.5714 56.5 L 48.5714 56.5 L 48.5714 53.5 Z M 61.7143 53.5 L 67.7143 53.5 L 67.7143 56.5 L 61.7143 56.5 L 61.7143 53.5 Z M 74.8571 53.5 L 80.8571 53.5 L 80.8571 56.5 L 74.8571 56.5 L 74.8571 53.5 Z M 9.14286 53.5 L 15.1429 53.5 L 15.1429 56.5 L 9.14286 56.5 L 9.14286 53.5 Z"/>
    <path id="piece_004" style="fill:none;stroke:#000000;stroke-width:0.0508" d="M 90 8.4444 L 93 8.4444 L 93 14.4444 L 90 14.4444 L 90 20.8889 L 93 20.8889 L 93 26.8889 L 90 26.8889 L 90 33.3333 L 93 33.3333 L 93 39.3333 L 90 39.3333 L 90 45.7778 L 93 45.7778 L 93 51.7778 L 90 51.7778 L 90 58.2222 L 93 58.2222 L 93 64.2222 L 90 64.2222 L 90 70.6667 L 93 70.6667 L 93 76.6667 L 90 76.6667 L 90 83.1111 L 93 83.1111 L 93 89.1111 L 90 89.1111 L 90 95.5556 L 93 95.5556 L 93 101.556 L 90 101.556 L 90 108 L 97.1429 108 L 97.1429 105 L 103.143 105 L 103.143 108 L 110.286 108 L 110.286 105 L 116.286 105 L 116.286 108 L 123.429 108 L 123.429 105 L 129.429 105 L 129.429 108 L 136.571 108 L 136.571 105 L 142.571 105 L 142.571 108 L 149.714 108 L 149.714 105 L 155.714 105 L 155.714 108 L 162.857 108 L 162.857 105 L 168.857 105 L 168.857 108 L 176 108 L 176 101.556 L 173 101.556 L 173 95.5556 L 176 95.5556 L 176 89.1111 L 173 89.1111 L 173 83.1111 L 176 83.1111 L 176 76.6667 L 173 76.6667 L 173 70.6667 L 176 70.6667 L 176 64.2222 L 173 64.2222 L 173 58.2222 L 176 58.2222 L 176 51.7778 L 173 51.7778 L 173 45.7778 L 176 45.7778 L 176 39.3333 L 173 39.3333 L 173 33.3333 L 176 33.3333 L 176 26.8889 L 173 26.8889 L 173 20.8889 L 176 20.8889 L 176 14.4444 L 173 14.4444 L 173 8.44444 L 176 8.44444 L 176 2 L 168.857 2 L 168.857 5 L 162.857 5 L 162.857 2 L 155.714 2 L 155.714 5 L 149.714 5 L 149.714 2 L 142.571 2 L 142.571 5 L 136.571 5 L 136.571 2 L 129.429 2 L 129.429 5 L 123.429 5 L 123.429 2 L 116.286 2 L 116.286 5 L 110.286 5 L 110.286 2 L 103.143 2 L 103.143 5 L 97.1429 5 L 97.1429 2 L 90 2 L 90 8.4444 Z M 110.286 53.5 L 116.286 53.5 L 116.286 56.5 L 110.286 56.5 L 110.286 53.5 Z M 123.429 53.5 L 129.429 53.5 L 129.429 56.5 L 123.429 56.5 L 123.429 53.5 Z M 131.5 20.8889 L 134.5 20.8889 L 134.5 26.8889 L 131.5 26.8889 L 131.5 20.8889 Z M 131.5 33.3333 L 134.5 33.3333 L 134.5 39.3333 L 131.5 39.3333 L 131.5 33.3333 Z M 131.5 45.7778 L 134.5 45.7778 L 134.5 51.7778 L 131.5 51.7778 L 131.5 45.7778 Z M 131.5 58.2222 L 134.5 58.2222 L 134.5 64.2222 L 131.5 64.2222 L 131.5 58.2222 Z M 131.5 70.6667 L 134.5 70.6667 L 134.5 76.6667 L 131.5 76.6667 L 131.5 70.6667 Z M 131.5 8.44444 L 134.5 8.44444 L 134.5 14.4444 L 131.5 14.4444 L 131.5 8.44444 Z M 131.5 83.1111 L 134.5 83.1111 L 134.5 89.1111 L 131.5 89.1111 L 131.5 83.1111 Z M 131.5 95.5556 L 134.5 95.5556 L 134.5 101.556 L 131.5 101.556 L 131.5 95.5556 Z M 136.571 53.5 L 142.571 53.5 L 142.571 56.5 L 136.571 56.5 L 136.571 53.5 Z M 149.714 53.5 L 155.714 53.5 L 155.714 56.5 L 149.714 56.5 L 149.714 53.5 Z M 162.857 53.5 L 168.857 53.5 L 168.857 56.5 L 162.857 56.5 L 162.857 53.5 Z M 97.1429 53.5 L 103.143 53.5 L 103.143 56.5 L 97.1429 56.5 L 97.1429 53.5 Z"/>
    <path id="piece_005" style="fill:none;stroke:#000000;stroke-width:0.0508" d="M 229 8.4444 L 226 8.4444 L 226 14.4444 L 229 14.4444 L 229 20.8889 L 226 20.8889 L 226 26.8889 L 229 26.8889 L 229 33.3333 L 226 33.3333 L 226 39.3333 L 229 39.3333 L 229 45.7778 L 226 45.7778 L 226 51.7778 L 229 51.7778 L 229 53.5 L 233 53.5 L 233 56.5 L 229 56.5 L 229 58.2222 L 226 58.2222 L 226 64.2222 L 229 64.2222 L 229 70.6667 L 226 70.6667 L 226 76.6667 L 229 76.6667 L 229 83.1111 L 226 83.1111 L 226 89.1111 L 229 89.1111 L 229 95.5556 L 226 95.5556 L 226 101.556 L 229 101.556 L 229 105 L 233 105 L 233 108 L 239 108 L 239 105 L 246 105 L 246 108 L 252 108 L 252 105 L 259 105 L 259 108 L 265 108 L 265 105 L 269 105 L 269 101.556 L 272 101.556 L 272 95.5556 L 269 95.5556 L 269 89.1111 L 272 89.1111 L 272 83.1111 L 269 83.1111 L 269 76.6667 L 272 76.6667 L 272 70.6667 L 269 70.6667 L 269 64.2222 L 272 64.2222 L 272 58.2222 L 269 58.2222 L 269 56.5 L 265 56.5 L 265 53.5 L 269 53.5 L 269 51.7778 L 272 51.7778 L 272 45.7778 L 269 45.7778 L 269 39.3333 L 272 39.3333 L 272 33.3333 L 269 33.3333 L 269 26.8889 L 272 26.8889 L 272 20.8889 L 269 20.8889 L 269 14.4444 L 272 14.4444 L 272 8.44444 L 269 8.44444 L 269 5 L 265 5 L 265 2 L 259 2 L 259 5 L 252 5 L 252 2 L 246 2 L 246 5 L 239 5 L 239 2 L 233 2 L 233 5 L 229 5 L 229 8.4444 Z M 239 53.5 L 246 53.5 L 246 56.5 L 239 56.5 L 239 53.5 Z M 252 53.5 L 259 53.5 L 259 56.5 L 252 56.5 L 252 53.5 Z"/>
    <path id="piece_006" style="fill:none;stroke:#000000;stroke-width:0.0508" d="M 362 9 L 365 9 L 365 15 L 362 15 L 362 22 L 365 22 L 365 28 L 362 28 L 362 35 L 365 35 L 365 41 L 362 41 L 362 45 L 369.143 45 L 369.143 48 L 375.143 48 L 375.143 45 L 382.286 45 L 382.286 48 L 388.286 48 L 388.286 45 L 395.429 45 L 395.429 48 L 401.429 48 L 401.429 45 L 408.571 45 L 408.571 48 L 414.571 48 L 414.571 45 L 421.714 45 L 421.714 48 L 427.714 48 L 427.714 45 L 434.857 45 L 434.857 48 L 440.857 48 L 440.857 45 L 448 45 L 448 41 L 445 41 L 445 35 L 448 35 L 448 28 L 445 28 L 445 22 L 448 22 L 448 15 L 445 15 L 445 9 L 448 9 L 448 5 L 440.857 5 L 440.857 2 L 434.857 2 L 434.857 5 L 427.714 5 L 427.714 2 L 421.714 2 L 421.714 5 L 414.571 5 L 414.571 2 L 408.571 2 L 408.571 5 L 401.429 5 L 401.429 2 L 395.429 2 L 395.429 5 L 388.286 5 L 388.286 2 L 382.286 2 L 382.286 5 L 375.143 5 L 375.143 2 L 369.143 2 L 369.143 5 L 362 5 L 362 9 Z M 403.5 22 L 406.5 22 L 406.5 28 L 403.5 28 L 403.5 22 Z M 403.5 35 L 406.5 35 L 406.5 41 L 403.5 41 L 403.5 35 Z M 403.5 9 L 406.5 9 L 406.5 15 L 403.5 15 L 403.5 9 Z"/>
  </g>
</svg>