<!-- Created with Inkscape (http://www.inkscape.org/) -->
<svg xmlns:inkscape="http://www.inkscape.org/namespaces/inkscape" xmlns:sodipodi="http://sodipodi.sourceforge.net/DTD/sodipodi-0.dtd" xmlns="http://www.w3.org/2000/svg" xmlns:svg="http://www.w3.org/2000/svg" width="210mm" height="297mm" viewBox="0 0 210 297" version="1.1" id="svg5" inkscape:version="1.1.2 (0a00cf5339, 2022-02-04)" sodipodi:docname="blank.svg">
  <sodipodi:namedview id="namedview7" pagecolor="#ffffff" bordercolor="#666666" borderopacity="1.0" inkscape:pageshadow="2" inkscape:pageopacity="0.0" inkscape:pagecheckerboard="0" inkscape:document-units="mm" showgrid="false" inkscape:zoom="0.64052329" inkscape:cx="397.33138" inkscape:cy="561.25984" inkscape:window-width="2086" inkscape:window-height="1376" inkscape:window-x="0" inkscape:window-y="0" inkscape:window-maximized="1" inkscape:current-layer="layer1"/>
  <defs id="defs2"/>
  <g inkscape:label="Layer 1" inkscape:groupmode="layer" id="layer1">
    <g id="piece_001">
      <path id="side_001" style="fill:none;stroke:#000000;stroke-width:1" d="m 274 5 l 7.143 0 l 0 -3 l 6 0 l 0 3 l 7.143 0 l 0 -3 l 6 0 l 0 3 l 7.143 0 l 0 -3 l 6 0 l 0 3 l 7.142 0 l 0 -3 l 6 0 l 0 3 l 7.143 0 l 0 -3 l 6 0 l 0 3 l 7.143 0 l 0 -3 l 6 0 l 0 3 l 7.143 0"/>
      <path id="side_002" style="fill:none;stroke:#000000;stroke-width:1" d="m 315.5 9 l 0 6 l 3 0 l 0 -6 l -3 0"/>
      <path id="side_003" style="fill:none;stroke:#000000;stroke-width:1" d="m 315.5 22 l 0 6 l 3 0 l 0 -6 l -3 0"/>
      <path id="side_004" style="fill:none;stroke:#000000;stroke-width:1" d="m 315.5 35 l 0 6 l 3 0 l 0 -6 l -3 0"/>
      <path id="side_005" style="fill:none;stroke:#000000;stroke-width:1" d="m 360 5 l 0 4 l -3 0 l 0 6 l 3 0 l 0 7 l -3 0 l 0 6 l 3 0 l 0 7 l -3 0 l 0 6 l 3 0 l 0 4"/>
      <path id="side_006" style="fill:none;stroke:#000000;stroke-width:1" d="m 360 45 l -7.143 0 l 0 3 l -6 0 l 0 -3 l -7.143 0 l 0 3 l -6 0 l 0 -3 l -7.143 0 l 0 3 l -6 0 l 0 -3 l -7.142 0 l 0 3 l -6 0 l 0 -3 l -7.143 0 l 0 3 l -6 0 l 0 -3 l -7.143 0 l 0 3 l -6 0 l 0 -3 l -7.143 0"/>
      <path id="side_007" style="fill:none;stroke:#000000;stroke-width:1" d="m 274 45 l 0 -4 l 3 0 l 0 -6 l -3 0 l 0 -7 l 3 0 l 0 -6 l -3 0 l 0 -7 l 3 0 l 0 -6 l -3 0 l 0 -4"/>
    </g>
    <g id="piece_002">
      <path id="side_008" style="fill:none;stroke:#000000;stroke-width:1" d="m 0 209 l 7.14286 0 l 0 -3 l 6.00004 0 l 0 3 l 7.1428 0 l 0 -3 l 6 0 l 0 3 l 7.1429 0 l 0 -3 l 6 0 l 0 3 l 7.1428 0 l 0 -3 l 6 0 l 0 3 l 7.1429 0 l 0 -3 l 6 0 l 0 3 l 7.1428 0 l 0 -3 l 6 0 l 0 3 l 7.1429 0"/>
      <path id="side_009" style="fill:none;stroke:#000000;stroke-width:1" d="m 41.5 206 l 0 23 l 3 0 l 0 -23 l -3 0"/>
      <path id="side_010" style="fill:none;stroke:#000000;stroke-width:1" d="m 86 209 l 0 4 l -3 0 l 0 6 l 3 0 l 0 7 l -3 0 l 0 6 l 3 0 l 0 7 l -3 0 l 0 6 l 3 0 l 0 4"/>
      <path id="side_011" style="fill:none;stroke:#000000;stroke-width:1" d="m 86 249 l -7.1429 0 l 0 3 l -6 0 l 0 -3 l -7.1428 0 l 0 3 l -6 0 l 0 -3 l -7.1429 0 l 0 3 l -6 0 l 0 -3 l -7.1428 0 l 0 3 l -6 0 l 0 -3 l -7.1429 0 l 0 3 l -6 0 l 0 -3 l -7.1428 0 l 0 3 l -6.00004 0 l 0 -3 l -7.14286 0"/>
      <path id="side_012" style="fill:none;stroke:#000000;stroke-width:1" d="m 0 249 l 0 -4 l 3 0 l 0 -6 l -3 0 l 0 -7 l 3 0 l 0 -6 l -3 0 l 0 -7 l 3 0 l 0 -6 l -3 0 l 0 -4"/>
    </g>
    <g id="piece_003">
      <path id="side_013" style="fill:none;stroke:#000000;stroke-width:1" d="m 181 56.5 l 4 0 l 0 -3 l -4 0 l 0 3"/>
      <path id="side_014" style="fill:none;stroke:#000000;stroke-width:1" d="m 191 56.5 l 7 0 l 0 -3 l -7 0 l 0 3"/>
      <path id="side_015" style="fill:none;stroke:#000000;stroke-width:1" d="m 204 56.5 l 7 0 l 0 -3 l -7 0 l 0 3"/>
      <path id="side_016" style="fill:none;stroke:#000000;stroke-width:1" d="m 217 53.5 l 0 0 l 0 3 l 0 0 l 0 -3"/>
      <path id="side_017" style="fill:none;stroke:#000000;stroke-width:1" d="m 181 5 l 4 0 l 0 -3 l 6 0 l 0 3 l 7 0 l 0 -3 l 6 0 l 0 3 l 7 0 l 0 -3 l 6 0 l 0 3 l 4 0"/>
      <path id="side_018" style="fill:none;stroke:#000000;stroke-width:1" d="m 221 5 l 0 3.44444 l 3 0 l 0 5.99996 l -3 0 l 0 6.4445 l 3 0 l 0 6 l -3 0 l 0 6.4444 l 3 0 l 0 6 l -3 0 l 0 6.4445 l 3 0 l 0 6 l -3 0 l 0 6.4444 l 3 0 l 0 6 l -3 0 l 0 6.4445 l 3 0 l 0 6 l -3 0 l 0 6.4444 l 3 0 l 0 6 l -3 0 l 0 6.4445 l 3 0 l 0 6.0004 l -3 0 l 0 3.444"/>
      <path id="side_019" style="fill:none;stroke:#000000;stroke-width:1" d="m 221 105 l -4 0 l 0 3 l -6 0 l 0 -3 l -7 0 l 0 3 l -6 0 l 0 -3 l -7 0 l 0 3 l -6 0 l 0 -3 l -4 0"/>
      <path id="side_020" style="fill:none;stroke:#000000;stroke-width:1" d="m 181 105 l 0 -3.444 l -3 0 l 0 -6.0004 l 3 0 l 0 -6.4445 l -3 0 l 0 -6 l 3 0 l 0 -6.4444 l -3 0 l 0 -6 l 3 0 l 0 -6.4445 l -3 0 l 0 -6 l 3 0 l 0 -6.4444 l -3 0 l 0 -6 l 3 0 l 0 -6.4445 l -3 0 l 0 -6 l 3 0 l 0 -6.4444 l -3 0 l 0 -6 l 3 0 l 0 -6.4445 l -3 0 l 0 -5.99996 l 3 0 l 0 -3.44444"/>
    </g>
    <g id="piece_004">
      <path id="side_021" style="fill:none;stroke:#000000;stroke-width:1" d="m 0 305.5 l 23 0 l 0 3 l -23 0 l 0 -3"/>
      <path id="side_022" style="fill:none;stroke:#000000;stroke-width:1" d="m 3 257 l 4 0 l 0 -3 l 6 0 l 0 3 l 7 0 l 0 -3 l 6 0 l 0 3 l 7 0 l 0 -3 l 6 0 l 0 3 l 4 0"/>
      <path id="side_023" style="fill:none;stroke:#000000;stroke-width:1" d="m 43 257 l 0 3.444 l 3 0 l 0 6 l -3 0 l 0 6.445 l 3 0 l 0 6 l -3 0 l 0 6.444 l 3 0 l 0 6 l -3 0 l 0 6.445 l 3 0 l 0 6 l -3 0 l 0 6.444 l 3 0 l 0 6 l -3 0 l 0 6.445 l 3 0 l 0 6 l -3 0 l 0 6.444 l 3 0 l 0 6 l -3 0 l 0 6.445 l 3 0 l 0 6 l -3 0 l 0 3.444"/>
      <path id="side_024" style="fill:none;stroke:#000000;stroke-width:1" d="m 43 357 l -4 0 l 0 3 l -6 0 l 0 -3 l -7 0 l 0 3 l -6 0 l 0 -3 l -7 0 l 0 3 l -6 0 l 0 -3 l -4 0"/>
      <path id="side_025" style="fill:none;stroke:#000000;stroke-width:1" d="m 3 357 l 0 -3.444 l -3 0 l 0 -6 l 3 0 l 0 -6.445 l -3 0 l 0 -6 l 3 0 l 0 -6.444 l -3 0 l 0 -6 l 3 0 l 0 -6.445 l -3 0 l 0 -6 l 3 0 l 0 -6.444 l -3 0 l 0 -6 l 3 0 l 0 -6.445 l -3 0 l 0 -6 l 3 0 l 0 -6.444 l -3 0 l 0 -6 l 3 0 l 0 -6.445 l -3 0 l 0 -6 l 3 0 l 0 -3.444"/>
    </g>
    <g id="piece_005">
      <path id="side_026" style="fill:none;stroke:#000000;stroke-width:1" d="m 9.14286 56.5 l 6.00004 0 l 0 -3 l -6.00004 0 l 0 3"/>
      <path id="side_027" style="fill:none;stroke:#000000;stroke-width:1" d="m 22.2857 56.5 l 6 0 l 0 -3 l -6 0 l 0 3"/>
      <path id="side_028" style="fill:none;stroke:#000000;stroke-width:1" d="m 35.4286 56.5 l 6 0 l 0 -3 l -6 0 l 0 3"/>
      <path id="side_029" style="fill:none;stroke:#000000;stroke-width:1" d="m 48.5714 56.5 l 6 0 l 0 -3 l -6 0 l 0 3"/>
      <path id="side_030" style="fill:none;stroke:#000000;stroke-width:1" d="m 61.7143 56.5 l 6 0 l 0 -3 l -6 0 l 0 3"/>
      <path id="side_031" style="fill:none;stroke:#000000;stroke-width:1" d="m 74.8571 56.5 l 6 0 l 0 -3 l -6 0 l 0 3"/>
      <path id="side_032" style="fill:none;stroke:#000000;stroke-width:1" d="m 2 2 l 7.14286 0 l 0 3 l 6.00004 0 l 0 -3 l 7.1428 0 l 0 3 l 6 0 l 0 -3 l 7.1429 0 l 0 3 l 6 0 l 0 -3 l 7.1428 0 l 0 3 l 6 0 l 0 -3 l 7.1429 0 l 0 3 l 6 0 l 0 -3 l 7.1428 0 l 0 3 l 6 0 l 0 -3 l 7.1429 0"/>
      <path id="side_033" style="fill:none;stroke:#000000;stroke-width:1" d="m 43.5 8.44444 l 0 5.99996 l 3 0 l 0 -5.99996 l -3 0"/>
      <path id="side_034" style="fill:none;stroke:#000000;stroke-width:1" d="m 43.5 20.8889 l 0 6 l 3 0 l 0 -6 l -3 0"/>
      <path id="side_035" style="fill:none;stroke:#000000;stroke-width:1" d="m 43.5 33.3333 l 0 6 l 3 0 l 0 -6 l -3 0"/>
      <path id="side_036" style="fill:none;stroke:#000000;stroke-width:1" d="m 43.5 45.7778 l 0 6 l 3 0 l 0 -6 l -3 0"/>
      <path id="side_037" style="fill:none;stroke:#000000;stroke-width:1" d="m 43.5 58.2222 l 0 6 l 3 0 l 0 -6 l -3 0"/>
      <path id="side_038" style="fill:none;stroke:#000000;stroke-width:1" d="m 43.5 70.6667 l 0 6 l 3 0 l 0 -6 l -3 0"/>
      <path id="side_039" style="fill:none;stroke:#000000;stroke-width:1" d="m 43.5 83.1111 l 0 6 l 3 0 l 0 -6 l -3 0"/>
      <path id="side_040" style="fill:none;stroke:#000000;stroke-width:1" d="m 43.5 95.5556 l 0 6.0004 l 3 0 l 0 -6.0004 l -3 0"/>
      <path id="side_041" style="fill:none;stroke:#000000;stroke-width:1" d="m 88 2 l 0 6.44444 l -3 0 l 0 5.99996 l 3 0 l 0 6.4445 l -3 0 l 0 6 l 3 0 l 0 6.4444 l -3 0 l 0 6 l 3 0 l 0 6.4445 l -3 0 l 0 6 l 3 0 l 0 6.4444 l -3 0 l 0 6 l 3 0 l 0 6.4445 l -3 0 l 0 6 l 3 0 l 0 6.4444 l -3 0 l 0 6 l 3 0 l 0 6.4445 l -3 0 l 0 6.0004 l 3 0 l 0 6.444"/>
      <path id="side_042" style="fill:none;stroke:#000000;stroke-width:1" d="m 88 108 l -7.1429 0 l 0 -3 l -6 0 l 0 3 l -7.1428 0 l 0 -3 l -6 0 l 0 3 l -7.1429 0 l 0 -3 l -6 0 l 0 3 l -7.1428 0 l 0 -3 l -6 0 l 0 3 l -7.1429 0 l 0 -3 l -6 0 l 0 3 l -7.1428 0 l 0 -3 l -6.00004 0 l 0 3 l -7.14286 0"/>
      <path id="side_043" style="fill:none;stroke:#000000;stroke-width:1" d="m 2 108 l 0 -6.444 l 3 0 l 0 -6.0004 l -3 0 l 0 -6.4445 l 3 0 l 0 -6 l -3 0 l 0 -6.4444 l 3 0 l 0 -6 l -3 0 l 0 -6.4445 l 3 0 l 0 -6 l -3 0 l 0 -6.4444 l 3 0 l 0 -6 l -3 0 l 0 -6.4445 l 3 0 l 0 -6 l -3 0 l 0 -6.4444 l 3 0 l 0 -6 l -3 0 l 0 -6.4445 l 3 0 l 0 -5.99996 l -3 0 l 0 -6.44444"/>
    </g>
    <g id="piece_006">
      <path id="side_044" style="fill:none;stroke:#000000;stroke-width:1" d="m 97.1429 56.5 l 6.0001 0 l 0 -3 l -6.0001 0 l 0 3"/>
      <path id="side_045" style="fill:none;stroke:#000000;stroke-width:1" d="m 110.286 56.5 l 6 0 l 0 -3 l -6 0 l 0 3"/>
      <path id="side_046" style="fill:none;stroke:#000000;stroke-width:1" d="m 123.429 56.5 l 6 0 l 0 -3 l -6 0 l 0 3"/>
      <path id="side_047" style="fill:none;stroke:#000000;stroke-width:1" d="m 136.571 56.5 l 6 0 l 0 -3 l -6 0 l 0 3"/>
      <path id="side_048" style="fill:none;stroke:#000000;stroke-width:1" d="m 149.714 56.5 l 6 0 l 0 -3 l -6 0 l 0 3"/>
      <path id="side_049" style="fill:none;stroke:#000000;stroke-width:1" d="m 162.857 56.5 l 6 0 l 0 -3 l -6 0 l 0 3"/>
      <path id="side_050" style="fill:none;stroke:#000000;stroke-width:1" d="m 90 2 l 7.1429 0 l 0 3 l 6.0001 0 l 0 -3 l 7.143 0 l 0 3 l 6 0 l 0 -3 l 7.143 0 l 0 3 l 6 0 l 0 -3 l 7.142 0 l 0 3 l 6 0 l 0 -3 l 7.143 0 l 0 3 l 6 0 l 0 -3 l 7.143 0 l 0 3 l 6 0 l 0 -3 l 7.143 0"/>
      <path id="side_051" style="fill:none;stroke:#000000;stroke-width:1" d="m 131.5 8.44444 l 0 5.99996 l 3 0 l 0 -5.99996 l -3 0"/>
      <path id="side_052" style="fill:none;stroke:#000000;stroke-width:1" d="m 131.5 20.8889 l 0 6 l 3 0 l 0 -6 l -3 0"/>
      <path id="side_053" style="fill:none;stroke:#000000;stroke-width:1" d="m 131.5 33.3333 l 0 6 l 3 0 l 0 -6 l -3 0"/>
      <path id="side_054" style="fill:none;stroke:#000000;stroke-width:1" d="m 131.5 45.7778 l 0 6 l 3 0 l 0 -6 l -3 0"/>
      <path id="side_055" style="fill:none;stroke:#000000;stroke-width:1" d="m 131.5 58.2222 l 0 6 l 3 0 l 0 -6 l -3 0"/>
      <path id="side_056" style="fill:none;stroke:#000000;stroke-width:1" d="m 131.5 70.6667 l 0 6 l 3 0 l 0 -6 l -3 0"/>
      <path id="side_057" style="fill:none;stroke:#000000;stroke-width:1" d="m 131.5 83.1111 l 0 6 l 3 0 l 0 -6 l -3 0"/>
      <path id="side_058" style="fill:none;stroke:#000000;stroke-width:1" d="m 131.5 95.5556 l 0 6.0004 l 3 0 l 0 -6.0004 l -3 0"/>
      <path id="side_059" style="fill:none;stroke:#000000;stroke-width:1" d="m 176 2 l 0 6.44444 l -3 0 l 0 5.99996 l 3 0 l 0 6.4445 l -3 0 l 0 6 l 3 0 l 0 6.4444 l -3 0 l 0 6 l 3 0 l 0 6.4445 l -3 0 l 0 6 l 3 0 l 0 6.4444 l -3 0 l 0 6 l 3 0 l 0 6.4445 l -3 0 l 0 6 l 3 0 l 0 6.4444 l -3 0 l 0 6 l 3 0 l 0 6.4445 l -3 0 l 0 6.0004 l 3 0 l 0 6.444"/>
      <path id="side_060" style="fill:none;stroke:#000000;stroke-width:1" d="m 176 108 l -7.143 0 l 0 -3 l -6 0 l 0 3 l -7.143 0 l 0 -3 l -6 0 l 0 3 l -7.143 0 l 0 -3 l -6 0 l 0 3 l -7.142 0 l 0 -3 l -6 0 l 0 3 l -7.143 0 l 0 -3 l -6 0 l 0 3 l -7.143 0 l 0 -3 l -6.0001 0 l 0 3 l -7.1429 0"/>
      <path id="side_061" style="fill:none;stroke:#000000;stroke-width:1" d="m 90 108 l 0 -6.444 l 3 0 l 0 -6.0004 l -3 0 l 0 -6.4445 l 3 0 l 0 -6 l -3 0 l 0 -6.4444 l 3 0 l 0 -6 l -3 0 l 0 -6.4445 l 3 0 l 0 -6 l -3 0 l 0 -6.4444 l 3 0 l 0 -6 l -3 0 l 0 -6.4445 l 3 0 l 0 -6 l -3 0 l 0 -6.4444 l 3 0 l 0 -6 l -3 0 l 0 -6.4445 l 3 0 l 0 -5.99996 l -3 0 l 0 -6.44444"/>
    </g>
    <g id="piece_007">
      <path id="side_062" style="fill:none;stroke:#000000;stroke-width:1" d="m 229 56.5 l 4 0 l 0 -3 l -4 0 l 0 3"/>
      <path id="side_063" style="fill:none;stroke:#000000;stroke-width:1" d="m 239 56.5 l 7 0 l 0 -3 l -7 0 l 0 3"/>
      <path id="side_064" style="fill:none;stroke:#000000;stroke-width:1" d="m 252 56.5 l 7 0 l 0 -3 l -7 0 l 0 3"/>
      <path id="side_065" style="fill:none;stroke:#000000;stroke-width:1" d="m 265 53.5 l 0 0 l 0 3 l 0 0 l 0 -3"/>
      <path id="side_066" style="fill:none;stroke:#000000;stroke-width:1" d="m 229 5 l 4 0 l 0 -3 l 6 0 l 0 3 l 7 0 l 0 -3 l 6 0 l 0 3 l 7 0 l 0 -3 l 6 0 l 0 3 l 4 0"/>
      <path id="side_067" style="fill:none;stroke:#000000;stroke-width:1" d="m 269 5 l 0 3.44444 l 3 0 l 0 5.99996 l -3 0 l 0 6.4445 l 3 0 l 0 6 l -3 0 l 0 6.4444 l 3 0 l 0 6 l -3 0 l 0 6.4445 l 3 0 l 0 6 l -3 0 l 0 6.4444 l 3 0 l 0 6 l -3 0 l 0 6.4445 l 3 0 l 0 6 l -3 0 l 0 6.4444 l 3 0 l 0 6 l -3 0 l 0 6.4445 l 3 0 l 0 6.0004 l -3 0 l 0 3.444"/>
      <path id="side_068" style="fill:none;stroke:#000000;stroke-width:1" d="m 269 105 l -4 0 l 0 3 l -6 0 l 0 -3 l -7 0 l 0 3 l -6 0 l 0 -3 l -7 0 l 0 3 l -6 0 l 0 -3 l -4 0"/>
      <path id="side_069" style="fill:none;stroke:#000000;stroke-width:1" d="m 229 105 l 0 -3.444 l -3 0 l 0 -6.0004 l 3 0 l 0 -6.4445 l -3 0 l 0 -6 l 3 0 l 0 -6.4444 l -3 0 l 0 -6 l 3 0 l 0 -6.4445 l -3 0 l 0 -6 l 3 0 l 0 -6.4444 l -3 0 l 0 -6 l 3 0 l 0 -6.4445 l -3 0 l 0 -6 l 3 0 l 0 -6.4444 l -3 0 l 0 -6 l 3 0 l 0 -6.4445 l -3 0 l 0 -5.99996 l 3 0 l 0 -3.44444"/>
    </g>
    <g id="piece_008">
      <path id="side_070" style="fill:none;stroke:#000000;stroke-width:1" d="m 362 5 l 7.143 0 l 0 -3 l 6 0 l 0 3 l 7.143 0 l 0 -3 l 6 0 l 0 3 l 7.143 0 l 0 -3 l 6 0 l 0 3 l 7.142 0 l 0 -3 l 6 0 l 0 3 l 7.143 0 l 0 -3 l 6 0 l 0 3 l 7.143 0 l 0 -3 l 6 0 l 0 3 l 7.143 0"/>
      <path id="side_071" style="fill:none;stroke:#000000;stroke-width:1" d="m 403.5 9 l 0 6 l 3 0 l 0 -6 l -3 0"/>
      <path id="side_072" style="fill:none;stroke:#000000;stroke-width:1" d="m 403.5 22 l 0 6 l 3 0 l 0 -6 l -3 0"/>
      <path id="side_073" style="fill:none;stroke:#000000;stroke-width:1" d="m 403.5 35 l 0 6 l 3 0 l 0 -6 l -3 0"/>
      <path id="side_074" style="fill:none;stroke:#000000;stroke-width:1" d="m 448 5 l 0 4 l -3 0 l 0 6 l 3 0 l 0 7 l -3 0 l 0 6 l 3 0 l 0 7 l -3 0 l 0 6 l 3 0 l 0 4"/>
      <path id="side_075" style="fill:none;stroke:#000000;stroke-width:1" d="m 448 45 l -7.143 0 l 0 3 l -6 0 l 0 -3 l -7.143 0 l 0 3 l -6 0 l 0 -3 l -7.143 0 l 0 3 l -6 0 l 0 -3 l -7.142 0 l 0 3 l -6 0 l 0 -3 l -7.143 0 l 0 3 l -6 0 l 0 -3 l -7.143 0 l 0 3 l -6 0 l 0 -3 l -7.143 0"/>
      <path id="side_076" style="fill:none;stroke:#000000;stroke-width:1" d="m 362 45 l 0 -4 l 3 0 l 0 -6 l -3 0 l 0 -7 l 3 0 l 0 -6 l -3 0 l 0 -7 l 3 0 l 0 -6 l -3 0 l 0 -4"/>
    </g>
  </g>
</svg>