<!-- Created with Inkscape (http://www.inkscape.org/) -->
<svg xmlns:inkscape="http://www.inkscape.org/namespaces/inkscape" xmlns:sodipodi="http://sodipodi.sourceforge.net/DTD/sodipodi-0.dtd" xmlns="http://www.w3.org/2000/svg" xmlns:svg="http://www.w3.org/2000/svg" width="321mm" height="253mm" viewBox="0 0 321 253" version="1.1" id="svg5" inkscape:version="1.1.2 (0a00cf5339, 2022-02-04)" sodipodi:docname="blank.svg">
  <sodipodi:namedview id="namedview7" pagecolor="#ffffff" bordercolor="#666666" borderopacity="1.0" inkscape:pageshadow="2" inkscape:pageopacity="0.0" inkscape:pagecheckerboard="0" inkscape:document-units="mm" showgrid="false" inkscape:zoom="0.64052329" inkscape:cx="397.33138" inkscape:cy="561.25984" inkscape:window-width="2086" inkscape:window-height="1376" inkscape:window-x="0" inkscape:window-y="0" inkscape:window-maximized="1" inkscape:current-layer="layer1"/>
  <defs id="defs2"/>
  <g inkscape:label="Layer 1" inkscape:groupmode="layer" id="layer1">
    <metadata text="createArgs=['--unit=mm', '--inside=1', '--length=80', '--width=100', '--depth=40', '--equal=0', '--tabtype=0', '--tabsymmetry=0', '--dimpleheight=0', '--dimplelength=0', '--hairline=1', '--thickness=3', '--kerf=0', '--style=1', '--boxtype=1', '--div-l=1', '--div-w=1', '--keydiv=0', '--spacing=2', '--tab=10']"/>
    <path id="piece_001" style="fill:none;stroke:#000000;stroke-width:0.0508" d="M 50 176 L 53 176 L 53 186 L 50 186 L 50 201 L 64 201 L 64 204 L 74 204 L 74 201 L 88 201 L 88 204 L 98 204 L 98 201 L 112 201 L 112 204 L 122 204 L 122 201 L 136 201 L 136 186 L 133 186 L 133 176 L 136 176 L 136 161 L 122 161 L 122 158 L 112 158 L 112 161 L 98 161 L 98 158 L 88 158 L 88 161 L 74 161 L 74 158 L 64 158 L 64 161 L 50 161 L 50 176 Z M 91.5 176 L 94.5 176 L 94.5 186 L 91.5 186 L 91.5 176 Z"/>
    <path id="xdivider_001" style="fill:none;stroke:#000000;stroke-width:0.0508" d="M 50 224 L 53 224 L 53 234 L 50 234 L 50 249 L 64 249 L 64 252 L 74 252 L 74 249 L 88 249 L 88 252 L 91.5 252 L 91.5 229 L 94.5 229 L 94.5 252 L 98 252 L 98 249 L 112 249 L 112 252 L 122 252 L 122 249 L 136 249 L 136 234 L 133 234 L 133 224 L 136 224 L 136 209 L 122 209 L 122 206 L 112 206 L 112 209 L 98 209 L 98 206 L 88 206 L 88 209 L 74 209 L 74 206 L 64 206 L 64 209 L 50 209 L 50 224 Z"/>
    <path id="piece_002" style="fill:none;stroke:#000000;stroke-width:0.0508" d="M 5 63.2 L 2 63.2 L 2 73.2 L 5 73.2 L 5 86.4 L 2 86.4 L 2 96.4 L 5 96.4 L 5 101.5 L 20 101.5 L 20 104.5 L 5 104.5 L 5 109.6 L 2 109.6 L 2 119.6 L 5 119.6 L 5 132.8 L 2 132.8 L 2 142.8 L 5 142.8 L 5 153 L 20 153 L 20 156 L 30 156 L 30 153 L 45 153 L 45 142.8 L 48 142.8 L 48 132.8 L 45 132.8 L 45 119.6 L 48 119.6 L 48 109.6 L 45 109.6 L 45 104.5 L 30 104.5 L 30 101.5 L 45 101.5 L 45 96.4 L 48 96.4 L 48 86.4 L 45 86.4 L 45 73.2 L 48 73.2 L 48 63.2 L 45 63.2 L 45 53 L 30 53 L 30 50 L 20 50 L 20 53 L 5 53 L 5 63.2 Z"/>
    <path id="ydivider_001" style="fill:none;stroke:#000000;stroke-width:0.0508" d="M 277 63.2 L 274 63.2 L 274 73.2 L 277 73.2 L 277 86.4 L 274 86.4 L 274 96.4 L 277 96.4 L 277 101.5 L 297 101.5 L 297 104.5 L 277 104.5 L 277 109.6 L 274 109.6 L 274 119.6 L 277 119.6 L 277 132.8 L 274 132.8 L 274 142.8 L 277 142.8 L 277 153 L 292 153 L 292 156 L 302 156 L 302 153 L 317 153 L 317 142.8 L 320 142.8 L 320 132.8 L 317 132.8 L 317 119.6 L 320 119.6 L 320 109.6 L 317 109.6 L 317 96.4 L 320 96.4 L 320 86.4 L 317 86.4 L 317 73.2 L 320 73.2 L 320 63.2 L 317 63.2 L 317 53 L 302 53 L 302 50 L 292 50 L 292 53 L 277 53 L 277 63.2 Z"/>
    <path id="piece_003" style="fill:none;stroke:#000000;stroke-width:0.0508" d="M 50 63.2 L 53 63.2 L 53 73.2 L 50 73.2 L 50 86.4 L 53 86.4 L 53 96.4 L 50 96.4 L 50 109.6 L 53 109.6 L 53 119.6 L 50 119.6 L 50 132.8 L 53 132.8 L 53 142.8 L 50 142.8 L 50 156 L 64 156 L 64 153 L 74 153 L 74 156 L 88 156 L 88 153 L 98 153 L 98 156 L 112 156 L 112 153 L 122 153 L 122 156 L 136 156 L 136 142.8 L 133 142.8 L 133 132.8 L 136 132.8 L 136 119.6 L 133 119.6 L 133 109.6 L 136 109.6 L 136 96.4 L 133 96.4 L 133 86.4 L 136 86.4 L 136 73.2 L 133 73.2 L 133 63.2 L 136 63.2 L 136 50 L 122 50 L 122 53 L 112 53 L 112 50 L 98 50 L 98 53 L 88 53 L 88 50 L 74 50 L 74 53 L 64 53 L 64 50 L 50 50 L 50 63.2 Z M 112 101.5 L 122 101.5 L 122 104.5 L 112 104.5 L 112 101.5 Z M 64 101.5 L 74 101.5 L 74 104.5 L 64 104.5 L 64 101.5 Z M 88 101.5 L 98 101.5 L 98 104.5 L 88 104.5 L 88 101.5 Z M 91.5 109.6 L 94.5 109.6 L 94.5 119.6 L 91.5 119.6 L 91.5 109.6 Z M 91.5 132.8 L 94.5 132.8 L 94.5 142.8 L 91.5 142.8 L 91.5 132.8 Z M 91.5 63.2 L 94.5 63.2 L 94.5 73.2 L 91.5 73.2 L 91.5 63.2 Z M 91.5 86.4 L 94.5 86.4 L 94.5 96.4 L 91.5 96.4 L 91.5 86.4 Z"/>
    <path id="piece_004" style="fill:none;stroke:#000000;stroke-width:0.0508" d="M 141 63.2 L 138 63.2 L 138 73.2 L 141 73.2 L 141 86.4 L 138 86.4 L 138 96.4 L 141 96.4 L 141 101.5 L 156 101.5 L 156 104.5 L 141 104.5 L 141 109.6 L 138 109.6 L 138 119.6 L 141 119.6 L 141 132.8 L 138 132.8 L 138 142.8 L 141 142.8 L 141 153 L 156 153 L 156 156 L 166 156 L 166 153 L 181 153 L 181 142.8 L 184 142.8 L 184 132.8 L 181 132.8 L 181 119.6 L 184 119.6 L 184 109.6 L 181 109.6 L 181 104.5 L 166 104.5 L 166 101.5 L 181 101.5 L 181 96.4 L 184 96.4 L 184 86.4 L 181 86.4 L 181 73.2 L 184 73.2 L 184 63.2 L 181 63.2 L 181 53 L 166 53 L 166 50 L 156 50 L 156 53 L 141 53 L 141 63.2 Z"/>
    <path id="piece_005" style="fill:none;stroke:#000000;stroke-width:0.0508" d="M 186 63.2 L 189 63.2 L 189 73.2 L 186 73.2 L 186 86.4 L 189 86.4 L 189 96.4 L 186 96.4 L 186 109.6 L 189 109.6 L 189 119.6 L 186 119.6 L 186 132.8 L 189 132.8 L 189 142.8 L 186 142.8 L 186 156 L 200 156 L 200 153 L 210 153 L 210 156 L 224 156 L 224 153 L 234 153 L 234 156 L 248 156 L 248 153 L 258 153 L 258 156 L 272 156 L 272 142.8 L 269 142.8 L 269 132.8 L 272 132.8 L 272 119.6 L 269 119.6 L 269 109.6 L 272 109.6 L 272 96.4 L 269 96.4 L 269 86.4 L 272 86.4 L 272 73.2 L 269 73.2 L 269 63.2 L 272 63.2 L 272 50 L 258 50 L 258 53 L 248 53 L 248 50 L 234 50 L 234 53 L 224 53 L 224 50 L 210 50 L 210 53 L 200 53 L 200 50 L 186 50 L 186 63.2 Z M 200 101.5 L 210 101.5 L 210 104.5 L 200 104.5 L 200 101.5 Z M 224 101.5 L 234 101.5 L 234 104.5 L 224 104.5 L 224 101.5 Z M 227.5 109.6 L 230.5 109.6 L 230.5 119.6 L 227.5 119.6 L 227.5 109.6 Z M 227.5 132.8 L 230.5 132.8 L 230.5 142.8 L 227.5 142.8 L 227.5 132.8 Z M 227.5 63.2 L 230.5 63.2 L 230.5 73.2 L 227.5 73.2 L 227.5 63.2 Z M 227.5 86.4 L 230.5 86.4 L 230.5 96.4 L 227.5 96.4 L 227.5 86.4 Z M 248 101.5 L 258 101.5 L 258 104.5 L 248 104.5 L 248 101.5 Z"/>
    <path id="piece_006" style="fill:none;stroke:#000000;stroke-width:0.0508" d="M 50 20 L 53 20 L 53 30 L 50 30 L 50 45 L 64 45 L 64 48 L 74 48 L 74 45 L 88 45 L 88 48 L 98 48 L 98 45 L 112 45 L 112 48 L 122 48 L 122 45 L 136 45 L 136 30 L 133 30 L 133 20 L 136 20 L 136 5 L 122 5 L 122 2 L 112 2 L 112 5 L 98 5 L 98 2 L 88 2 L 88 5 L 74 5 L 74 2 L 64 2 L 64 5 L 50 5 L 50 20 Z M 91.5 20 L 94.5 20 L 94.5 30 L 91.5 30 L 91.5 20 Z"/>
  </g>
</svg>