<!-- Created with Inkscape (http://www.inkscape.org/) -->
<svg xmlns:inkscape="http://www.inkscape.org/namespaces/inkscape" xmlns:sodipodi="http://sodipodi.sourceforge.net/DTD/sodipodi-0.dtd" xmlns="http://www.w3.org/2000/svg" xmlns:svg="http://www.w3.org/2000/svg" width="210mm" height="297mm" viewBox="0 0 210 297" version="1.1" id="svg5" inkscape:version="1.1.2 (0a00cf5339, 2022-02-04)" sodipodi:docname="blank.svg">
  <sodipodi:namedview id="namedview7" pagecolor="#ffffff" bordercolor="#666666" borderopacity="1.0" inkscape:pageshadow="2" inkscape:pageopacity="0.0" inkscape:pagecheckerboard="0" inkscape:document-units="mm" showgrid="false" inkscape:zoom="0.64052329" inkscape:cx="397.33138" inkscape:cy="561.25984" inkscape:window-width="2086" inkscape:window-height="1376" inkscape:window-x="0" inkscape:window-y="0" inkscape:window-maximized="1" inkscape:current-layer="layer1"/>
  <defs id="defs2"/>
  <g inkscape:label="Layer 1" inkscape:groupmode="layer" id="layer1">
    <g id="piece_001">
      <path id="side_001" style="fill:none;stroke:#000000;stroke-width:1" d="m 53 161 l 4.1429 0 l 0 -3 l 6 0 l 0 3 l 7.1428 0 l 0 -3 l 6 0 l 0 3 l 7.1429 0 l 0 -3 l 6 0 l 0 3 l 7.1428 0 l 0 -3 l 5.9996 0 l 0 3 l 7.143 0 l 0 -3 l 6 0 l 0 3 l 7.143 0 l 0 -3 l 6 0 l 0 3 l 7.143 0"/>
      <path id="side_002" style="fill:none;stroke:#000000;stroke-width:1" d="m 91.5 165 l 0 6 l 3 0 l 0 -6 l -3 0"/>
      <path id="side_003" style="fill:none;stroke:#000000;stroke-width:1" d="m 91.5 178 l 0 6 l 3 0 l 0 -6 l -3 0"/>
      <path id="side_004" style="fill:none;stroke:#000000;stroke-width:1" d="m 91.5 191 l 0 6 l 3 0 l 0 -6 l -3 0"/>
      <path id="side_005" style="fill:none;stroke:#000000;stroke-width:1" d="m 136 161 l 0 4 l -3 0 l 0 6 l 3 0 l 0 7 l -3 0 l 0 6 l 3 0 l 0 7 l -3 0 l 0 6 l 3 0 l 0 7"/>
      <path id="side_006" style="fill:none;stroke:#000000;stroke-width:1" d="m 136 204 l -7.143 0 l 0 -3 l -6 0 l 0 3 l -7.143 0 l 0 -3 l -6 0 l 0 3 l -7.143 0 l 0 -3 l -5.9996 0 l 0 3 l -7.1428 0 l 0 -3 l -6 0 l 0 3 l -7.1429 0 l 0 -3 l -6 0 l 0 3 l -7.1428 0 l 0 -3 l -6 0 l 0 3 l -4.1429 0"/>
      <path id="side_007" style="fill:none;stroke:#000000;stroke-width:1" d="m 53 204 l 0 -7 l -3 0 l 0 -6 l 3 0 l 0 -7 l -3 0 l 0 -6 l 3 0 l 0 -7 l -3 0 l 0 -6 l 3 0 l 0 -4"/>
    </g>
    <g id="piece_002">
      <path id="side_008" style="fill:none;stroke:#000000;stroke-width:1" d="m 3 209 l 4.14286 0 l 0 -3 l 6.00004 0 l 0 3 l 7.1428 0 l 0 -3 l 6 0 l 0 3 l 7.1429 0 l 0 -3 l 6 0 l 0 3 l 7.1428 0 l 0 -3 l 6 0 l 0 3 l 7.1429 0 l 0 -3 l 6 0 l 0 3 l 7.1428 0 l 0 -3 l 6 0 l 0 3 l 7.1429 0"/>
      <path id="side_009" style="fill:none;stroke:#000000;stroke-width:1" d="m 41.5 206 l 0 23 l 3 0 l 0 -23 l -3 0"/>
      <path id="side_010" style="fill:none;stroke:#000000;stroke-width:1" d="m 86 209 l 0 4 l -3 0 l 0 6 l 3 0 l 0 7 l -3 0 l 0 6 l 3 0 l 0 7 l -3 0 l 0 6 l 3 0 l 0 7"/>
      <path id="side_011" style="fill:none;stroke:#000000;stroke-width:1" d="m 86 252 l -7.1429 0 l 0 -3 l -6 0 l 0 3 l -7.1428 0 l 0 -3 l -6 0 l 0 3 l -7.1429 0 l 0 -3 l -6 0 l 0 3 l -7.1428 0 l 0 -3 l -6 0 l 0 3 l -7.1429 0 l 0 -3 l -6 0 l 0 3 l -7.1428 0 l 0 -3 l -6.00004 0 l 0 3 l -4.14286 0"/>
      <path id="side_012" style="fill:none;stroke:#000000;stroke-width:1" d="m 3 252 l 0 -7 l -3 0 l 0 -6 l 3 0 l 0 -7 l -3 0 l 0 -6 l 3 0 l 0 -7 l -3 0 l 0 -6 l 3 0 l 0 -4"/>
    </g>
    <g id="piece_003">
      <path id="side_013" style="fill:none;stroke:#000000;stroke-width:1" d="m 2 104.5 l 7 0 l 0 -3 l -7 0 l 0 3"/>
      <path id="side_014" style="fill:none;stroke:#000000;stroke-width:1" d="m 15 104.5 l 7 0 l 0 -3 l -7 0 l 0 3"/>
      <path id="side_015" style="fill:none;stroke:#000000;stroke-width:1" d="m 28 104.5 l 7 0 l 0 -3 l -7 0 l 0 3"/>
      <path id="side_016" style="fill:none;stroke:#000000;stroke-width:1" d="m 2 53 l 7 0 l 0 -3 l 6 0 l 0 3 l 7 0 l 0 -3 l 6 0 l 0 3 l 7 0 l 0 -3 l 6 0 l 0 3 l 4 0"/>
      <path id="side_017" style="fill:none;stroke:#000000;stroke-width:1" d="m 45 53 l 0 3.4444 l 3 0 l 0 6 l -3 0 l 0 6.4445 l 3 0 l 0 6 l -3 0 l 0 6.4444 l 3 0 l 0 6 l -3 0 l 0 6.4445 l 3 0 l 0 6 l -3 0 l 0 6.4442 l 3 0 l 0 6 l -3 0 l 0 6.445 l 3 0 l 0 6 l -3 0 l 0 6.444 l 3 0 l 0 6 l -3 0 l 0 6.445 l 3 0 l 0 6 l -3 0 l 0 6.444"/>
      <path id="side_018" style="fill:none;stroke:#000000;stroke-width:1" d="m 45 156 l -4 0 l 0 -3 l -6 0 l 0 3 l -7 0 l 0 -3 l -6 0 l 0 3 l -7 0 l 0 -3 l -6 0 l 0 3 l -7 0"/>
      <path id="side_019" style="fill:none;stroke:#000000;stroke-width:1" d="m 2 156 l 0 -6.444 l 3 0 l 0 -6 l -3 0 l 0 -6.445 l 3 0 l 0 -6 l -3 0 l 0 -6.444 l 3 0 l 0 -6 l -3 0 l 0 -6.445 l 3 0 l 0 -6 l -3 0 l 0 -6.4442 l 3 0 l 0 -6 l -3 0 l 0 -6.4445 l 3 0 l 0 -6 l -3 0 l 0 -6.4444 l 3 0 l 0 -6 l -3 0 l 0 -6.4445 l 3 0 l 0 -6 l -3 0 l 0 -3.4444"/>
    </g>
    <g id="piece_004">
      <path id="side_020" style="fill:none;stroke:#000000;stroke-width:1" d="m 0 305.5 l 23 0 l 0 3 l -23 0 l 0 -3"/>
      <path id="side_021" style="fill:none;stroke:#000000;stroke-width:1" d="m 0 257 l 7 0 l 0 -3 l 6 0 l 0 3 l 7 0 l 0 -3 l 6 0 l 0 3 l 7 0 l 0 -3 l 6 0 l 0 3 l 4 0"/>
      <path id="side_022" style="fill:none;stroke:#000000;stroke-width:1" d="m 43 257 l 0 3.444 l 3 0 l 0 6 l -3 0 l 0 6.445 l 3 0 l 0 6 l -3 0 l 0 6.444 l 3 0 l 0 6 l -3 0 l 0 6.445 l 3 0 l 0 6 l -3 0 l 0 6.444 l 3 0 l 0 6 l -3 0 l 0 6.445 l 3 0 l 0 6 l -3 0 l 0 6.444 l 3 0 l 0 6 l -3 0 l 0 6.445 l 3 0 l 0 6 l -3 0 l 0 6.444"/>
      <path id="side_023" style="fill:none;stroke:#000000;stroke-width:1" d="m 43 360 l -4 0 l 0 -3 l -6 0 l 0 3 l -7 0 l 0 -3 l -6 0 l 0 3 l -7 0 l 0 -3 l -6 0 l 0 3 l -7 0"/>
      <path id="side_024" style="fill:none;stroke:#000000;stroke-width:1" d="m 0 360 l 0 -6.444 l 3 0 l 0 -6 l -3 0 l 0 -6.445 l 3 0 l 0 -6 l -3 0 l 0 -6.444 l 3 0 l 0 -6 l -3 0 l 0 -6.445 l 3 0 l 0 -6 l -3 0 l 0 -6.444 l 3 0 l 0 -6 l -3 0 l 0 -6.445 l 3 0 l 0 -6 l -3 0 l 0 -6.444 l 3 0 l 0 -6 l -3 0 l 0 -6.445 l 3 0 l 0 -6 l -3 0 l 0 -3.444"/>
    </g>
    <g id="piece_005">
      <path id="side_025" style="fill:none;stroke:#000000;stroke-width:1" d="m 50 104.5 l 7.1429 0 l 0 -3 l -7.1429 0 l 0 3"/>
      <path id="side_026" style="fill:none;stroke:#000000;stroke-width:1" d="m 63.1429 104.5 l 7.1428 0 l 0 -3 l -7.1428 0 l 0 3"/>
      <path id="side_027" style="fill:none;stroke:#000000;stroke-width:1" d="m 76.2857 104.5 l 7.1429 0 l 0 -3 l -7.1429 0 l 0 3"/>
      <path id="side_028" style="fill:none;stroke:#000000;stroke-width:1" d="m 89.4286 104.5 l 7.1428 0 l 0 -3 l -7.1428 0 l 0 3"/>
      <path id="side_029" style="fill:none;stroke:#000000;stroke-width:1" d="m 102.571 104.5 l 7.143 0 l 0 -3 l -7.143 0 l 0 3"/>
      <path id="side_030" style="fill:none;stroke:#000000;stroke-width:1" d="m 115.714 104.5 l 7.143 0 l 0 -3 l -7.143 0 l 0 3"/>
      <path id="side_031" style="fill:none;stroke:#000000;stroke-width:1" d="m 50 53 l 7.1429 0 l 0 -3 l 6 0 l 0 3 l 7.1428 0 l 0 -3 l 6 0 l 0 3 l 7.1429 0 l 0 -3 l 6 0 l 0 3 l 7.1428 0 l 0 -3 l 5.9996 0 l 0 3 l 7.143 0 l 0 -3 l 6 0 l 0 3 l 7.143 0 l 0 -3 l 6 0 l 0 3 l 4.143 0"/>
      <path id="side_032" style="fill:none;stroke:#000000;stroke-width:1" d="m 91.5 50 l 0 6.4444 l 3 0 l 0 -6.4444 l -3 0"/>
      <path id="side_033" style="fill:none;stroke:#000000;stroke-width:1" d="m 91.5 62.4444 l 0 6.4445 l 3 0 l 0 -6.4445 l -3 0"/>
      <path id="side_034" style="fill:none;stroke:#000000;stroke-width:1" d="m 91.5 74.8889 l 0 6.4444 l 3 0 l 0 -6.4444 l -3 0"/>
      <path id="side_035" style="fill:none;stroke:#000000;stroke-width:1" d="m 91.5 87.3333 l 0 6.4445 l 3 0 l 0 -6.4445 l -3 0"/>
      <path id="side_036" style="fill:none;stroke:#000000;stroke-width:1" d="m 91.5 99.7778 l 0 6.4442 l 3 0 l 0 -6.4442 l -3 0"/>
      <path id="side_037" style="fill:none;stroke:#000000;stroke-width:1" d="m 91.5 112.222 l 0 6.445 l 3 0 l 0 -6.445 l -3 0"/>
      <path id="side_038" style="fill:none;stroke:#000000;stroke-width:1" d="m 91.5 124.667 l 0 6.444 l 3 0 l 0 -6.444 l -3 0"/>
      <path id="side_039" style="fill:none;stroke:#000000;stroke-width:1" d="m 91.5 137.111 l 0 6.445 l 3 0 l 0 -6.445 l -3 0"/>
      <path id="side_040" style="fill:none;stroke:#000000;stroke-width:1" d="m 133 53 l 0 3.4444 l 3 0 l 0 6 l -3 0 l 0 6.4445 l 3 0 l 0 6 l -3 0 l 0 6.4444 l 3 0 l 0 6 l -3 0 l 0 6.4445 l 3 0 l 0 6 l -3 0 l 0 6.4442 l 3 0 l 0 6 l -3 0 l 0 6.445 l 3 0 l 0 6 l -3 0 l 0 6.444 l 3 0 l 0 6 l -3 0 l 0 6.445 l 3 0 l 0 6 l -3 0 l 0 6.444"/>
      <path id="side_041" style="fill:none;stroke:#000000;stroke-width:1" d="m 133 156 l -4.143 0 l 0 -3 l -6 0 l 0 3 l -7.143 0 l 0 -3 l -6 0 l 0 3 l -7.143 0 l 0 -3 l -5.9996 0 l 0 3 l -7.1428 0 l 0 -3 l -6 0 l 0 3 l -7.1429 0 l 0 -3 l -6 0 l 0 3 l -7.1428 0 l 0 -3 l -6 0 l 0 3 l -7.1429 0"/>
      <path id="side_042" style="fill:none;stroke:#000000;stroke-width:1" d="m 50 156 l 0 -6.444 l 3 0 l 0 -6 l -3 0 l 0 -6.445 l 3 0 l 0 -6 l -3 0 l 0 -6.444 l 3 0 l 0 -6 l -3 0 l 0 -6.445 l 3 0 l 0 -6 l -3 0 l 0 -6.4442 l 3 0 l 0 -6 l -3 0 l 0 -6.4445 l 3 0 l 0 -6 l -3 0 l 0 -6.4444 l 3 0 l 0 -6 l -3 0 l 0 -6.4445 l 3 0 l 0 -6 l -3 0 l 0 -3.4444"/>
    </g>
    <g id="piece_006">
      <path id="side_043" style="fill:none;stroke:#000000;stroke-width:1" d="m 145 104.5 l 6 0 l 0 -3 l -6 0 l 0 3"/>
      <path id="side_044" style="fill:none;stroke:#000000;stroke-width:1" d="m 158 104.5 l 6 0 l 0 -3 l -6 0 l 0 3"/>
      <path id="side_045" style="fill:none;stroke:#000000;stroke-width:1" d="m 171 104.5 l 6 0 l 0 -3 l -6 0 l 0 3"/>
      <path id="side_046" style="fill:none;stroke:#000000;stroke-width:1" d="m 138 50 l 7 0 l 0 3 l 6 0 l 0 -3 l 7 0 l 0 3 l 6 0 l 0 -3 l 7 0 l 0 3 l 6 0 l 0 -3 l 4 0"/>
      <path id="side_047" style="fill:none;stroke:#000000;stroke-width:1" d="m 181 50 l 0 6.4444 l 3 0 l 0 6 l -3 0 l 0 6.4445 l 3 0 l 0 6 l -3 0 l 0 6.4444 l 3 0 l 0 6 l -3 0 l 0 6.4445 l 3 0 l 0 6 l -3 0 l 0 6.4442 l 3 0 l 0 6 l -3 0 l 0 6.445 l 3 0 l 0 6 l -3 0 l 0 6.444 l 3 0 l 0 6 l -3 0 l 0 6.445 l 3 0 l 0 6 l -3 0 l 0 3.444"/>
      <path id="side_048" style="fill:none;stroke:#000000;stroke-width:1" d="m 181 153 l -4 0 l 0 3 l -6 0 l 0 -3 l -7 0 l 0 3 l -6 0 l 0 -3 l -7 0 l 0 3 l -6 0 l 0 -3 l -7 0"/>
      <path id="side_049" style="fill:none;stroke:#000000;stroke-width:1" d="m 138 153 l 0 -3.444 l 3 0 l 0 -6 l -3 0 l 0 -6.445 l 3 0 l 0 -6 l -3 0 l 0 -6.444 l 3 0 l 0 -6 l -3 0 l 0 -6.445 l 3 0 l 0 -6 l -3 0 l 0 -6.4442 l 3 0 l 0 -6 l -3 0 l 0 -6.4445 l 3 0 l 0 -6 l -3 0 l 0 -6.4444 l 3 0 l 0 -6 l -3 0 l 0 -6.4445 l 3 0 l 0 -6 l -3 0 l 0 -6.4444"/>
    </g>
    <g id="piece_007">
      <path id="side_050" style="fill:none;stroke:#000000;stroke-width:1" d="m 193.143 104.5 l 6 0 l 0 -3 l -6 0 l 0 3"/>
      <path id="side_051" style="fill:none;stroke:#000000;stroke-width:1" d="m 206.286 104.5 l 6 0 l 0 -3 l -6 0 l 0 3"/>
      <path id="side_052" style="fill:none;stroke:#000000;stroke-width:1" d="m 219.429 104.5 l 6 0 l 0 -3 l -6 0 l 0 3"/>
      <path id="side_053" style="fill:none;stroke:#000000;stroke-width:1" d="m 232.571 104.5 l 6 0 l 0 -3 l -6 0 l 0 3"/>
      <path id="side_054" style="fill:none;stroke:#000000;stroke-width:1" d="m 245.714 104.5 l 6 0 l 0 -3 l -6 0 l 0 3"/>
      <path id="side_055" style="fill:none;stroke:#000000;stroke-width:1" d="m 258.857 104.5 l 6 0 l 0 -3 l -6 0 l 0 3"/>
      <path id="side_056" style="fill:none;stroke:#000000;stroke-width:1" d="m 186 50 l 7.143 0 l 0 3 l 6 0 l 0 -3 l 7.143 0 l 0 3 l 6 0 l 0 -3 l 7.143 0 l 0 3 l 6 0 l 0 -3 l 7.142 0 l 0 3 l 6 0 l 0 -3 l 7.143 0 l 0 3 l 6 0 l 0 -3 l 7.143 0 l 0 3 l 6 0 l 0 -3 l 4.143 0"/>
      <path id="side_057" style="fill:none;stroke:#000000;stroke-width:1" d="m 227.5 50 l 0 6.4444 l 3 0 l 0 -6.4444 l -3 0"/>
      <path id="side_058" style="fill:none;stroke:#000000;stroke-width:1" d="m 227.5 62.4444 l 0 6.4445 l 3 0 l 0 -6.4445 l -3 0"/>
      <path id="side_059" style="fill:none;stroke:#000000;stroke-width:1" d="m 227.5 74.8889 l 0 6.4444 l 3 0 l 0 -6.4444 l -3 0"/>
      <path id="side_060" style="fill:none;stroke:#000000;stroke-width:1" d="m 227.5 87.3333 l 0 6.4445 l 3 0 l 0 -6.4445 l -3 0"/>
      <path id="side_061" style="fill:none;stroke:#000000;stroke-width:1" d="m 227.5 99.7778 l 0 6.4442 l 3 0 l 0 -6.4442 l -3 0"/>
      <path id="side_062" style="fill:none;stroke:#000000;stroke-width:1" d="m 227.5 112.222 l 0 6.445 l 3 0 l 0 -6.445 l -3 0"/>
      <path id="side_063" style="fill:none;stroke:#000000;stroke-width:1" d="m 227.5 124.667 l 0 6.444 l 3 0 l 0 -6.444 l -3 0"/>
      <path id="side_064" style="fill:none;stroke:#000000;stroke-width:1" d="m 227.5 137.111 l 0 6.445 l 3 0 l 0 -6.445 l -3 0"/>
      <path id="side_065" style="fill:none;stroke:#000000;stroke-width:1" d="m 269 50 l 0 6.4444 l 3 0 l 0 6 l -3 0 l 0 6.4445 l 3 0 l 0 6 l -3 0 l 0 6.4444 l 3 0 l 0 6 l -3 0 l 0 6.4445 l 3 0 l 0 6 l -3 0 l 0 6.4442 l 3 0 l 0 6 l -3 0 l 0 6.445 l 3 0 l 0 6 l -3 0 l 0 6.444 l 3 0 l 0 6 l -3 0 l 0 6.445 l 3 0 l 0 6 l -3 0 l 0 3.444"/>
      <path id="side_066" style="fill:none;stroke:#000000;stroke-width:1" d="m 269 153 l -4.143 0 l 0 3 l -6 0 l 0 -3 l -7.143 0 l 0 3 l -6 0 l 0 -3 l -7.143 0 l 0 3 l -6 0 l 0 -3 l -7.142 0 l 0 3 l -6 0 l 0 -3 l -7.143 0 l 0 3 l -6 0 l 0 -3 l -7.143 0 l 0 3 l -6 0 l 0 -3 l -7.143 0"/>
      <path id="side_067" style="fill:none;stroke:#000000;stroke-width:1" d="m 186 153 l 0 -3.444 l 3 0 l 0 -6 l -3 0 l 0 -6.445 l 3 0 l 0 -6 l -3 0 l 0 -6.444 l 3 0 l 0 -6 l -3 0 l 0 -6.445 l 3 0 l 0 -6 l -3 0 l 0 -6.4442 l 3 0 l 0 -6 l -3 0 l 0 -6.4445 l 3 0 l 0 -6 l -3 0 l 0 -6.4444 l 3 0 l 0 -6 l -3 0 l 0 -6.4445 l 3 0 l 0 -6 l -3 0 l 0 -6.4444"/>
    </g>
    <g id="piece_008">
      <path id="side_068" style="fill:none;stroke:#000000;stroke-width:1" d="m 50 5 l 7.1429 0 l 0 -3 l 6 0 l 0 3 l 7.1428 0 l 0 -3 l 6 0 l 0 3 l 7.1429 0 l 0 -3 l 6 0 l 0 3 l 7.1428 0 l 0 -3 l 5.9996 0 l 0 3 l 7.143 0 l 0 -3 l 6 0 l 0 3 l 7.143 0 l 0 -3 l 6 0 l 0 3 l 4.143 0"/>
      <path id="side_069" style="fill:none;stroke:#000000;stroke-width:1" d="m 91.5 2 l 0 7 l 3 0 l 0 -7 l -3 0"/>
      <path id="side_070" style="fill:none;stroke:#000000;stroke-width:1" d="m 91.5 15 l 0 7 l 3 0 l 0 -7 l -3 0"/>
      <path id="side_071" style="fill:none;stroke:#000000;stroke-width:1" d="m 91.5 28 l 0 7 l 3 0 l 0 -7 l -3 0"/>
      <path id="side_072" style="fill:none;stroke:#000000;stroke-width:1" d="m 133 5 l 0 4 l 3 0 l 0 6 l -3 0 l 0 7 l 3 0 l 0 6 l -3 0 l 0 7 l 3 0 l 0 6 l -3 0 l 0 7"/>
      <path id="side_073" style="fill:none;stroke:#000000;stroke-width:1" d="m 133 48 l -4.143 0 l 0 -3 l -6 0 l 0 3 l -7.143 0 l 0 -3 l -6 0 l 0 3 l -7.143 0 l 0 -3 l -5.9996 0 l 0 3 l -7.1428 0 l 0 -3 l -6 0 l 0 3 l -7.1429 0 l 0 -3 l -6 0 l 0 3 l -7.1428 0 l 0 -3 l -6 0 l 0 3 l -7.1429 0"/>
      <path id="side_074" style="fill:none;stroke:#000000;stroke-width:1" d="m 50 48 l 0 -7 l 3 0 l 0 -6 l -3 0 l 0 -7 l 3 0 l 0 -6 l -3 0 l 0 -7 l 3 0 l 0 -6 l -3 0 l 0 -4"/>
    </g>
  </g>
</svg>