<!-- Created with Inkscape (http://www.inkscape.org/) -->
<svg xmlns:inkscape="http://www.inkscape.org/namespaces/inkscape" xmlns:sodipodi="http://sodipodi.sourceforge.net/DTD/sodipodi-0.dtd" xmlns="http://www.w3.org/2000/svg" xmlns:svg="http://www.w3.org/2000/svg" width="273mm" height="361mm" viewBox="0 0 273 361" version="1.1" id="svg5" inkscape:version="1.1.2 (0a00cf5339, 2022-02-04)" sodipodi:docname="blank.svg">
  <sodipodi:namedview id="namedview7" pagecolor="#ffffff" bordercolor="#666666" borderopacity="1.0" inkscape:pageshadow="2" inkscape:pageopacity="0.0" inkscape:pagecheckerboard="0" inkscape:document-units="mm" showgrid="false" inkscape:zoom="0.64052329" inkscape:cx="397.33138" inkscape:cy="561.25984" inkscape:window-width="2086" inkscape:window-height="1376" inkscape:window-x="0" inkscape:window-y="0" inkscape:window-maximized="1" inkscape:current-layer="layer1"/>
  <defs id="defs2"/>
  <g inkscape:label="Layer 1" inkscape:groupmode="layer" id="layer1">
    <metadata text="createArgs=['--unit=mm', '--inside=1', '--length=80', '--width=100', '--depth=40', '--equal=0', '--tab=6', '--tabtype=0', '--dimpleheight=0', '--dimplelength=0', '--hairline=1', '--thickness=3', '--kerf=0', '--style=1', '--boxtype=1', '--div_l=1', '--div_w=1', '--keydiv=0', '--spacing=2', '--tabsymmetry=1']"/>
    <g id="piece_001">
      <path id="side_001" style="fill:none;stroke:#000000;stroke-width:0.0508" d="m 50 161 l 8.7143 0 l 0 -3 l 5.7143 0 l 0 3 l 5.7143 0 l 0 -3 l 5.7142 0 l 0 3 l 5.7143 0 l 0 -3 l 5.7143 0 l 0 3 l 5.7143 0 l 0 -3 l 5.7143 0 l 0 3 l 5.7147 0 l 0 -3 l 5.714 0 l 0 3 l 5.714 0 l 0 -3 l 5.714 0 l 0 3 l 5.715 0 l 0 -3 l 5.714 0"/>
      <path id="side_002" style="fill:none;stroke:#000000;stroke-width:0.0508" d="m 133 158 l 0 9.667 l 3 0 l 0 6.666 l -3 0 l 0 6.667 l 3 0 l 0 6.667 l -3 0 l 0 6.666 l 3 0 l 0 6.667"/>
      <path id="hole_001" style="fill:none;stroke:#000000;stroke-width:0.0508" d="m 91.5 161 l 0 6.667 l 3 0 l 0 -6.667 l -3 0 z"/>
      <path id="hole_002" style="fill:none;stroke:#000000;stroke-width:0.0508" d="m 91.5 174.333 l 0 6.667 l 3 0 l 0 -6.667 l -3 0 z"/>
      <path id="hole_003" style="fill:none;stroke:#000000;stroke-width:0.0508" d="m 91.5 187.667 l 0 6.666 l 3 0 l 0 -6.666 l -3 0 z"/>
      <path id="side_003" style="fill:none;stroke:#000000;stroke-width:0.0508" d="m 136 201 l -8.714 0 l 0 3 l -5.715 0 l 0 -3 l -5.714 0 l 0 3 l -5.714 0 l 0 -3 l -5.714 0 l 0 3 l -5.7147 0 l 0 -3 l -5.7143 0 l 0 3 l -5.7143 0 l 0 -3 l -5.7143 0 l 0 3 l -5.7143 0 l 0 -3 l -5.7142 0 l 0 3 l -5.7143 0 l 0 -3 l -5.7143 0 l 0 3 l -5.7143 0"/>
      <path id="side_004" style="fill:none;stroke:#000000;stroke-width:0.0508" d="m 53 204 l 0 -9.667 l -3 0 l 0 -6.666 l 3 0 l 0 -6.667 l -3 0 l 0 -6.667 l 3 0 l 0 -6.666 l -3 0 l 0 -6.667"/>
    </g>
    <g id="xdivider_001">
      <path id="side_005" style="fill:none;stroke:#000000;stroke-width:0.0508" d="m 0 209 l 8.71429 0 l 0 -3 l 5.71431 0 l 0 3 l 5.7143 0 l 0 -3 l 5.7142 0 l 0 3 l 5.7143 0 l 0 -3 l 5.7143 0 l 0 3 l 5.7143 0 l 0 -3 l 5.7143 0 l 0 3 l 5.7143 0 l 0 -3 l 5.7143 0 l 0 3 l 5.7142 0 l 0 -3 l 5.7143 0 l 0 3 l 5.7143 0 l 0 -3 l 5.7143 0"/>
      <path id="side_006" style="fill:none;stroke:#000000;stroke-width:0.0508" d="m 83 206 l 0 9.667 l 3 0 l 0 6.666 l -3 0 l 0 6.667 l 3 0 l 0 6.667 l -3 0 l 0 6.666 l 3 0 l 0 6.667"/>
      <path id="slot_001" style="fill:none;stroke:#000000;stroke-width:0.0508" d="m 41.5 206 l 0 23 l 3 0 l 0 -23 l -3 0 z"/>
      <path id="side_007" style="fill:none;stroke:#000000;stroke-width:0.0508" d="m 86 249 l -8.7143 0 l 0 3 l -5.7143 0 l 0 -3 l -5.7143 0 l 0 3 l -5.7142 0 l 0 -3 l -5.7143 0 l 0 3 l -5.7143 0 l 0 -3 l -5.7143 0 l 0 3 l -5.7143 0 l 0 -3 l -5.7143 0 l 0 3 l -5.7143 0 l 0 -3 l -5.7142 0 l 0 3 l -5.7143 0 l 0 -3 l -5.71431 0 l 0 3 l -5.71429 0"/>
      <path id="side_008" style="fill:none;stroke:#000000;stroke-width:0.0508" d="m 3 252 l 0 -9.667 l -3 0 l 0 -6.666 l 3 0 l 0 -6.667 l -3 0 l 0 -6.667 l 3 0 l 0 -6.666 l -3 0 l 0 -6.667"/>
    </g>
    <g id="piece_002">
      <path id="side_009" style="fill:none;stroke:#000000;stroke-width:0.0508" d="m 2 53 l 9.6667 0 l 0 -3 l 6.6666 0 l 0 3 l 6.6667 0 l 0 -3 l 6.6667 0 l 0 3 l 6.6666 0 l 0 -3 l 6.6667 0"/>
      <path id="hole_004" style="fill:none;stroke:#000000;stroke-width:0.0508" d="m 5 104.5 l 6.6667 0 l 0 -3 l -6.6667 0 l 0 3 z"/>
      <path id="hole_005" style="fill:none;stroke:#000000;stroke-width:0.0508" d="m 18.3333 104.5 l 6.6667 0 l 0 -3 l -6.6667 0 l 0 3 z"/>
      <path id="hole_006" style="fill:none;stroke:#000000;stroke-width:0.0508" d="m 31.6667 104.5 l 6.6666 0 l 0 -3 l -6.6666 0 l 0 3 z"/>
      <path id="side_010" style="fill:none;stroke:#000000;stroke-width:0.0508" d="m 45 50 l 0 9.25 l 3 0 l 0 6.25 l -3 0 l 0 6.25 l 3 0 l 0 6.25 l -3 0 l 0 6.25 l 3 0 l 0 6.25 l -3 0 l 0 6.25 l 3 0 l 0 6.25 l -3 0 l 0 6.25 l 3 0 l 0 6.25 l -3 0 l 0 6.25 l 3 0 l 0 6.25 l -3 0 l 0 6.25 l 3 0 l 0 6.25 l -3 0 l 0 6.25 l 3 0 l 0 6.25"/>
      <path id="side_011" style="fill:none;stroke:#000000;stroke-width:0.0508" d="m 48 153 l -9.6667 0 l 0 3 l -6.6666 0 l 0 -3 l -6.6667 0 l 0 3 l -6.6667 0 l 0 -3 l -6.6666 0 l 0 3 l -6.6667 0"/>
      <path id="side_012" style="fill:none;stroke:#000000;stroke-width:0.0508" d="m 5 156 l 0 -9.25 l -3 0 l 0 -6.25 l 3 0 l 0 -6.25 l -3 0 l 0 -6.25 l 3 0 l 0 -6.25 l -3 0 l 0 -6.25 l 3 0 l 0 -6.25 l -3 0 l 0 -6.25 l 3 0 l 0 -6.25 l -3 0 l 0 -6.25 l 3 0 l 0 -6.25 l -3 0 l 0 -6.25 l 3 0 l 0 -6.25 l -3 0 l 0 -6.25 l 3 0 l 0 -6.25 l -3 0 l 0 -6.25"/>
    </g>
    <g id="ydivider_001">
      <path id="side_013" style="fill:none;stroke:#000000;stroke-width:0.0508" d="m 0 257 l 9.66667 0 l 0 -3 l 6.66663 0 l 0 3 l 6.6667 0 l 0 -3 l 6.6667 0 l 0 3 l 6.6666 0 l 0 -3 l 6.6667 0"/>
      <path id="slot_002" style="fill:none;stroke:#000000;stroke-width:0.0508" d="m 0 305.5 l 23 0 l 0 3 l -23 0 l 0 -3 z"/>
      <path id="side_014" style="fill:none;stroke:#000000;stroke-width:0.0508" d="m 43 254 l 0 9.25 l 3 0 l 0 6.25 l -3 0 l 0 6.25 l 3 0 l 0 6.25 l -3 0 l 0 6.25 l 3 0 l 0 6.25 l -3 0 l 0 6.25 l 3 0 l 0 6.25 l -3 0 l 0 6.25 l 3 0 l 0 6.25 l -3 0 l 0 6.25 l 3 0 l 0 6.25 l -3 0 l 0 6.25 l 3 0 l 0 6.25 l -3 0 l 0 6.25 l 3 0 l 0 6.25"/>
      <path id="side_015" style="fill:none;stroke:#000000;stroke-width:0.0508" d="m 46 357 l -9.6667 0 l 0 3 l -6.6666 0 l 0 -3 l -6.6667 0 l 0 3 l -6.6667 0 l 0 -3 l -6.66663 0 l 0 3 l -6.66667 0"/>
      <path id="side_016" style="fill:none;stroke:#000000;stroke-width:0.0508" d="m 3 360 l 0 -9.25 l -3 0 l 0 -6.25 l 3 0 l 0 -6.25 l -3 0 l 0 -6.25 l 3 0 l 0 -6.25 l -3 0 l 0 -6.25 l 3 0 l 0 -6.25 l -3 0 l 0 -6.25 l 3 0 l 0 -6.25 l -3 0 l 0 -6.25 l 3 0 l 0 -6.25 l -3 0 l 0 -6.25 l 3 0 l 0 -6.25 l -3 0 l 0 -6.25 l 3 0 l 0 -6.25 l -3 0 l 0 -6.25"/>
    </g>
    <g id="piece_003">
      <path id="side_017" style="fill:none;stroke:#000000;stroke-width:0.0508" d="m 50 53 l 8.7143 0 l 0 -3 l 5.7143 0 l 0 3 l 5.7143 0 l 0 -3 l 5.7142 0 l 0 3 l 5.7143 0 l 0 -3 l 5.7143 0 l 0 3 l 5.7143 0 l 0 -3 l 5.7143 0 l 0 3 l 5.7147 0 l 0 -3 l 5.714 0 l 0 3 l 5.714 0 l 0 -3 l 5.714 0 l 0 3 l 5.715 0 l 0 -3 l 5.714 0"/>
      <path id="hole_007" style="fill:none;stroke:#000000;stroke-width:0.0508" d="m 53 104.5 l 5.7143 0 l 0 -3 l -5.7143 0 l 0 3 z"/>
      <path id="hole_008" style="fill:none;stroke:#000000;stroke-width:0.0508" d="m 64.4286 104.5 l 5.7143 0 l 0 -3 l -5.7143 0 l 0 3 z"/>
      <path id="hole_009" style="fill:none;stroke:#000000;stroke-width:0.0508" d="m 75.8571 104.5 l 5.7143 0 l 0 -3 l -5.7143 0 l 0 3 z"/>
      <path id="hole_010" style="fill:none;stroke:#000000;stroke-width:0.0508" d="m 87.2857 104.5 l 5.7143 0 l 0 -3 l -5.7143 0 l 0 3 z"/>
      <path id="hole_011" style="fill:none;stroke:#000000;stroke-width:0.0508" d="m 98.7143 104.5 l 5.7147 0 l 0 -3 l -5.7147 0 l 0 3 z"/>
      <path id="hole_012" style="fill:none;stroke:#000000;stroke-width:0.0508" d="m 110.143 104.5 l 5.714 0 l 0 -3 l -5.714 0 l 0 3 z"/>
      <path id="hole_013" style="fill:none;stroke:#000000;stroke-width:0.0508" d="m 121.571 104.5 l 5.715 0 l 0 -3 l -5.715 0 l 0 3 z"/>
      <path id="side_018" style="fill:none;stroke:#000000;stroke-width:0.0508" d="m 133 50 l 0 9.25 l 3 0 l 0 6.25 l -3 0 l 0 6.25 l 3 0 l 0 6.25 l -3 0 l 0 6.25 l 3 0 l 0 6.25 l -3 0 l 0 6.25 l 3 0 l 0 6.25 l -3 0 l 0 6.25 l 3 0 l 0 6.25 l -3 0 l 0 6.25 l 3 0 l 0 6.25 l -3 0 l 0 6.25 l 3 0 l 0 6.25 l -3 0 l 0 6.25 l 3 0 l 0 6.25"/>
      <path id="hole_014" style="fill:none;stroke:#000000;stroke-width:0.0508" d="m 91.5 53 l 0 6.25 l 3 0 l 0 -6.25 l -3 0 z"/>
      <path id="hole_015" style="fill:none;stroke:#000000;stroke-width:0.0508" d="m 91.5 65.5 l 0 6.25 l 3 0 l 0 -6.25 l -3 0 z"/>
      <path id="hole_016" style="fill:none;stroke:#000000;stroke-width:0.0508" d="m 91.5 78 l 0 6.25 l 3 0 l 0 -6.25 l -3 0 z"/>
      <path id="hole_017" style="fill:none;stroke:#000000;stroke-width:0.0508" d="m 91.5 90.5 l 0 6.25 l 3 0 l 0 -6.25 l -3 0 z"/>
      <path id="hole_018" style="fill:none;stroke:#000000;stroke-width:0.0508" d="m 91.5 103 l 0 6.25 l 3 0 l 0 -6.25 l -3 0 z"/>
      <path id="hole_019" style="fill:none;stroke:#000000;stroke-width:0.0508" d="m 91.5 115.5 l 0 6.25 l 3 0 l 0 -6.25 l -3 0 z"/>
      <path id="hole_020" style="fill:none;stroke:#000000;stroke-width:0.0508" d="m 91.5 128 l 0 6.25 l 3 0 l 0 -6.25 l -3 0 z"/>
      <path id="hole_021" style="fill:none;stroke:#000000;stroke-width:0.0508" d="m 91.5 140.5 l 0 6.25 l 3 0 l 0 -6.25 l -3 0 z"/>
      <path id="side_019" style="fill:none;stroke:#000000;stroke-width:0.0508" d="m 136 153 l -8.714 0 l 0 3 l -5.715 0 l 0 -3 l -5.714 0 l 0 3 l -5.714 0 l 0 -3 l -5.714 0 l 0 3 l -5.7147 0 l 0 -3 l -5.7143 0 l 0 3 l -5.7143 0 l 0 -3 l -5.7143 0 l 0 3 l -5.7143 0 l 0 -3 l -5.7142 0 l 0 3 l -5.7143 0 l 0 -3 l -5.7143 0 l 0 3 l -5.7143 0"/>
      <path id="side_020" style="fill:none;stroke:#000000;stroke-width:0.0508" d="m 53 156 l 0 -9.25 l -3 0 l 0 -6.25 l 3 0 l 0 -6.25 l -3 0 l 0 -6.25 l 3 0 l 0 -6.25 l -3 0 l 0 -6.25 l 3 0 l 0 -6.25 l -3 0 l 0 -6.25 l 3 0 l 0 -6.25 l -3 0 l 0 -6.25 l 3 0 l 0 -6.25 l -3 0 l 0 -6.25 l 3 0 l 0 -6.25 l -3 0 l 0 -6.25 l 3 0 l 0 -6.25 l -3 0 l 0 -6.25"/>
    </g>
    <g id="piece_004">
      <path id="side_021" style="fill:none;stroke:#000000;stroke-width:0.0508" d="m 138 53 l 9.667 0 l 0 -3 l 6.666 0 l 0 3 l 6.667 0 l 0 -3 l 6.667 0 l 0 3 l 6.666 0 l 0 -3 l 6.667 0"/>
      <path id="hole_022" style="fill:none;stroke:#000000;stroke-width:0.0508" d="m 141 104.5 l 6.667 0 l 0 -3 l -6.667 0 l 0 3 z"/>
      <path id="hole_023" style="fill:none;stroke:#000000;stroke-width:0.0508" d="m 154.333 104.5 l 6.667 0 l 0 -3 l -6.667 0 l 0 3 z"/>
      <path id="hole_024" style="fill:none;stroke:#000000;stroke-width:0.0508" d="m 167.667 104.5 l 6.666 0 l 0 -3 l -6.666 0 l 0 3 z"/>
      <path id="side_022" style="fill:none;stroke:#000000;stroke-width:0.0508" d="m 181 50 l 0 9.25 l 3 0 l 0 6.25 l -3 0 l 0 6.25 l 3 0 l 0 6.25 l -3 0 l 0 6.25 l 3 0 l 0 6.25 l -3 0 l 0 6.25 l 3 0 l 0 6.25 l -3 0 l 0 6.25 l 3 0 l 0 6.25 l -3 0 l 0 6.25 l 3 0 l 0 6.25 l -3 0 l 0 6.25 l 3 0 l 0 6.25 l -3 0 l 0 6.25 l 3 0 l 0 6.25"/>
      <path id="side_023" style="fill:none;stroke:#000000;stroke-width:0.0508" d="m 184 153 l -9.667 0 l 0 3 l -6.666 0 l 0 -3 l -6.667 0 l 0 3 l -6.667 0 l 0 -3 l -6.666 0 l 0 3 l -6.667 0"/>
      <path id="side_024" style="fill:none;stroke:#000000;stroke-width:0.0508" d="m 141 156 l 0 -9.25 l -3 0 l 0 -6.25 l 3 0 l 0 -6.25 l -3 0 l 0 -6.25 l 3 0 l 0 -6.25 l -3 0 l 0 -6.25 l 3 0 l 0 -6.25 l -3 0 l 0 -6.25 l 3 0 l 0 -6.25 l -3 0 l 0 -6.25 l 3 0 l 0 -6.25 l -3 0 l 0 -6.25 l 3 0 l 0 -6.25 l -3 0 l 0 -6.25 l 3 0 l 0 -6.25 l -3 0 l 0 -6.25"/>
    </g>
    <g id="piece_005">
      <path id="side_025" style="fill:none;stroke:#000000;stroke-width:0.0508" d="m 186 53 l 8.714 0 l 0 -3 l 5.715 0 l 0 3 l 5.714 0 l 0 -3 l 5.714 0 l 0 3 l 5.714 0 l 0 -3 l 5.715 0 l 0 3 l 5.714 0 l 0 -3 l 5.714 0 l 0 3 l 5.715 0 l 0 -3 l 5.714 0 l 0 3 l 5.714 0 l 0 -3 l 5.714 0 l 0 3 l 5.715 0 l 0 -3 l 5.714 0"/>
      <path id="hole_025" style="fill:none;stroke:#000000;stroke-width:0.0508" d="m 189 104.5 l 5.714 0 l 0 -3 l -5.714 0 l 0 3 z"/>
      <path id="hole_026" style="fill:none;stroke:#000000;stroke-width:0.0508" d="m 200.429 104.5 l 5.714 0 l 0 -3 l -5.714 0 l 0 3 z"/>
      <path id="hole_027" style="fill:none;stroke:#000000;stroke-width:0.0508" d="m 211.857 104.5 l 5.714 0 l 0 -3 l -5.714 0 l 0 3 z"/>
      <path id="hole_028" style="fill:none;stroke:#000000;stroke-width:0.0508" d="m 223.286 104.5 l 5.714 0 l 0 -3 l -5.714 0 l 0 3 z"/>
      <path id="hole_029" style="fill:none;stroke:#000000;stroke-width:0.0508" d="m 234.714 104.5 l 5.715 0 l 0 -3 l -5.715 0 l 0 3 z"/>
      <path id="hole_030" style="fill:none;stroke:#000000;stroke-width:0.0508" d="m 246.143 104.5 l 5.714 0 l 0 -3 l -5.714 0 l 0 3 z"/>
      <path id="hole_031" style="fill:none;stroke:#000000;stroke-width:0.0508" d="m 257.571 104.5 l 5.715 0 l 0 -3 l -5.715 0 l 0 3 z"/>
      <path id="side_026" style="fill:none;stroke:#000000;stroke-width:0.0508" d="m 269 50 l 0 9.25 l 3 0 l 0 6.25 l -3 0 l 0 6.25 l 3 0 l 0 6.25 l -3 0 l 0 6.25 l 3 0 l 0 6.25 l -3 0 l 0 6.25 l 3 0 l 0 6.25 l -3 0 l 0 6.25 l 3 0 l 0 6.25 l -3 0 l 0 6.25 l 3 0 l 0 6.25 l -3 0 l 0 6.25 l 3 0 l 0 6.25 l -3 0 l 0 6.25 l 3 0 l 0 6.25"/>
      <path id="hole_032" style="fill:none;stroke:#000000;stroke-width:0.0508" d="m 227.5 53 l 0 6.25 l 3 0 l 0 -6.25 l -3 0 z"/>
      <path id="hole_033" style="fill:none;stroke:#000000;stroke-width:0.0508" d="m 227.5 65.5 l 0 6.25 l 3 0 l 0 -6.25 l -3 0 z"/>
      <path id="hole_034" style="fill:none;stroke:#000000;stroke-width:0.0508" d="m 227.5 78 l 0 6.25 l 3 0 l 0 -6.25 l -3 0 z"/>
      <path id="hole_035" style="fill:none;stroke:#000000;stroke-width:0.0508" d="m 227.5 90.5 l 0 6.25 l 3 0 l 0 -6.25 l -3 0 z"/>
      <path id="hole_036" style="fill:none;stroke:#000000;stroke-width:0.0508" d="m 227.5 103 l 0 6.25 l 3 0 l 0 -6.25 l -3 0 z"/>
      <path id="hole_037" style="fill:none;stroke:#000000;stroke-width:0.0508" d="m 227.5 115.5 l 0 6.25 l 3 0 l 0 -6.25 l -3 0 z"/>
      <path id="hole_038" style="fill:none;stroke:#000000;stroke-width:0.0508" d="m 227.5 128 l 0 6.25 l 3 0 l 0 -6.25 l -3 0 z"/>
      <path id="hole_039" style="fill:none;stroke:#000000;stroke-width:0.0508" d="m 227.5 140.5 l 0 6.25 l 3 0 l 0 -6.25 l -3 0 z"/>
      <path id="side_027" style="fill:none;stroke:#000000;stroke-width:0.0508" d="m 272 153 l -8.714 0 l 0 3 l -5.715 0 l 0 -3 l -5.714 0 l 0 3 l -5.714 0 l 0 -3 l -5.714 0 l 0 3 l -5.715 0 l 0 -3 l -5.714 0 l 0 3 l -5.714 0 l 0 -3 l -5.715 0 l 0 3 l -5.714 0 l 0 -3 l -5.714 0 l 0 3 l -5.714 0 l 0 -3 l -5.715 0 l 0 3 l -5.714 0"/>
      <path id="side_028" style="fill:none;stroke:#000000;stroke-width:0.0508" d="m 189 156 l 0 -9.25 l -3 0 l 0 -6.25 l 3 0 l 0 -6.25 l -3 0 l 0 -6.25 l 3 0 l 0 -6.25 l -3 0 l 0 -6.25 l 3 0 l 0 -6.25 l -3 0 l 0 -6.25 l 3 0 l 0 -6.25 l -3 0 l 0 -6.25 l 3 0 l 0 -6.25 l -3 0 l 0 -6.25 l 3 0 l 0 -6.25 l -3 0 l 0 -6.25 l 3 0 l 0 -6.25 l -3 0 l 0 -6.25"/>
    </g>
    <g id="piece_006">
      <path id="side_029" style="fill:none;stroke:#000000;stroke-width:0.0508" d="m 50 5 l 8.7143 0 l 0 -3 l 5.7143 0 l 0 3 l 5.7143 0 l 0 -3 l 5.7142 0 l 0 3 l 5.7143 0 l 0 -3 l 5.7143 0 l 0 3 l 5.7143 0 l 0 -3 l 5.7143 0 l 0 3 l 5.7147 0 l 0 -3 l 5.714 0 l 0 3 l 5.714 0 l 0 -3 l 5.714 0 l 0 3 l 5.715 0 l 0 -3 l 5.714 0"/>
      <path id="side_030" style="fill:none;stroke:#000000;stroke-width:0.0508" d="m 133 2 l 0 9.6667 l 3 0 l 0 6.6666 l -3 0 l 0 6.6667 l 3 0 l 0 6.6667 l -3 0 l 0 6.6666 l 3 0 l 0 6.6667"/>
      <path id="hole_040" style="fill:none;stroke:#000000;stroke-width:0.0508" d="m 91.5 5 l 0 6.6667 l 3 0 l 0 -6.6667 l -3 0 z"/>
      <path id="hole_041" style="fill:none;stroke:#000000;stroke-width:0.0508" d="m 91.5 18.3333 l 0 6.6667 l 3 0 l 0 -6.6667 l -3 0 z"/>
      <path id="hole_042" style="fill:none;stroke:#000000;stroke-width:0.0508" d="m 91.5 31.6667 l 0 6.6666 l 3 0 l 0 -6.6666 l -3 0 z"/>
      <path id="side_031" style="fill:none;stroke:#000000;stroke-width:0.0508" d="m 136 45 l -8.714 0 l 0 3 l -5.715 0 l 0 -3 l -5.714 0 l 0 3 l -5.714 0 l 0 -3 l -5.714 0 l 0 3 l -5.7147 0 l 0 -3 l -5.7143 0 l 0 3 l -5.7143 0 l 0 -3 l -5.7143 0 l 0 3 l -5.7143 0 l 0 -3 l -5.7142 0 l 0 3 l -5.7143 0 l 0 -3 l -5.7143 0 l 0 3 l -5.7143 0"/>
      <path id="side_032" style="fill:none;stroke:#000000;stroke-width:0.0508" d="m 53 48 l 0 -9.6667 l -3 0 l 0 -6.6666 l 3 0 l 0 -6.6667 l -3 0 l 0 -6.6667 l 3 0 l 0 -6.6666 l -3 0 l 0 -6.6667"/>
    </g>
  </g>
</svg>