<!-- Created with Inkscape (http://www.inkscape.org/) -->
<svg xmlns:inkscape="http://www.inkscape.org/namespaces/inkscape" xmlns:sodipodi="http://sodipodi.sourceforge.net/DTD/sodipodi-0.dtd" xmlns="http://www.w3.org/2000/svg" xmlns:svg="http://www.w3.org/2000/svg" width="321mm" height="253mm" viewBox="0 0 321 253" version="1.1" id="svg5" inkscape:version="1.1.2 (0a00cf5339, 2022-02-04)" sodipodi:docname="blank.svg">
  <sodipodi:namedview id="namedview7" pagecolor="#ffffff" bordercolor="#666666" borderopacity="1.0" inkscape:pageshadow="2" inkscape:pageopacity="0.0" inkscape:pagecheckerboard="0" inkscape:document-units="mm" showgrid="false" inkscape:zoom="0.64052329" inkscape:cx="397.33138" inkscape:cy="561.25984" inkscape:window-width="2086" inkscape:window-height="1376" inkscape:window-x="0" inkscape:window-y="0" inkscape:window-maximized="1" inkscape:current-layer="layer1"/>
  <defs id="defs2"/>
  <g inkscape:label="Layer 1" inkscape:groupmode="layer" id="layer1">
    <metadata text="createArgs=['--unit=mm', '--inside=1', '--length=80', '--width=100', '--depth=40', '--equal=0', '--tab=6', '--tabtype=0', '--dimpleheight=0', '--dimplelength=0', '--hairline=1', '--thickness=3', '--kerf=0', '--style=1', '--boxtype=1', '--div-l=1', '--div-w=1', '--keydiv=0', '--spacing=2', '--tabsymmetry=2']"/>
    <path id="piece_001" style="fill:none;stroke:#000000;stroke-width:0.0508" d="M 53 165 L 50 165 L 50 171 L 53 171 L 53 178 L 50 178 L 50 184 L 53 184 L 53 191 L 50 191 L 50 197 L 53 197 L 53 204 L 57.1429 204 L 57.1429 201 L 63.1429 201 L 63.1429 204 L 70.2857 204 L 70.2857 201 L 76.2857 201 L 76.2857 204 L 83.4286 204 L 83.4286 201 L 89.4286 201 L 89.4286 204 L 96.5714 204 L 96.5714 201 L 102.571 201 L 102.571 204 L 109.714 204 L 109.714 201 L 115.714 201 L 115.714 204 L 122.857 204 L 122.857 201 L 128.857 201 L 128.857 204 L 136 204 L 136 197 L 133 197 L 133 191 L 136 191 L 136 184 L 133 184 L 133 178 L 136 178 L 136 171 L 133 171 L 133 165 L 136 165 L 136 161 L 128.857 161 L 128.857 158 L 122.857 158 L 122.857 161 L 115.714 161 L 115.714 158 L 109.714 158 L 109.714 161 L 102.571 161 L 102.571 158 L 96.5714 158 L 96.5714 161 L 89.4286 161 L 89.4286 158 L 83.4286 158 L 83.4286 161 L 76.2857 161 L 76.2857 158 L 70.2857 158 L 70.2857 161 L 63.1429 161 L 63.1429 158 L 57.1429 158 L 57.1429 161 L 53 161 L 53 165 Z M 91.5 165 L 94.5 165 L 94.5 171 L 91.5 171 L 91.5 165 Z M 91.5 178 L 94.5 178 L 94.5 184 L 91.5 184 L 91.5 178 Z M 91.5 191 L 94.5 191 L 94.5 197 L 91.5 197 L 91.5 191 Z"/>
    <path id="xdivider_001" style="fill:none;stroke:#000000;stroke-width:0.0508" d="M 50 213 L 53 213 L 53 219 L 50 219 L 50 226 L 53 226 L 53 232 L 50 232 L 50 239 L 53 239 L 53 245 L 50 245 L 50 252 L 57.1429 252 L 57.1429 249 L 63.1429 249 L 63.1429 252 L 70.2857 252 L 70.2857 249 L 76.2857 249 L 76.2857 252 L 83.4286 252 L 83.4286 249 L 89.4286 249 L 89.4286 252 L 91.5 252 L 91.5 229 L 94.5 229 L 94.5 252 L 96.5714 252 L 96.5714 249 L 102.571 249 L 102.571 252 L 109.714 252 L 109.714 249 L 115.714 249 L 115.714 252 L 122.857 252 L 122.857 249 L 128.857 249 L 128.857 252 L 133 252 L 133 245 L 136 245 L 136 239 L 133 239 L 133 232 L 136 232 L 136 226 L 133 226 L 133 219 L 136 219 L 136 213 L 133 213 L 133 209 L 128.857 209 L 128.857 206 L 122.857 206 L 122.857 209 L 115.714 209 L 115.714 206 L 109.714 206 L 109.714 209 L 102.571 209 L 102.571 206 L 96.5714 206 L 96.5714 209 L 89.4286 209 L 89.4286 206 L 83.4286 206 L 83.4286 209 L 76.2857 209 L 76.2857 206 L 70.2857 206 L 70.2857 209 L 63.1429 209 L 63.1429 206 L 57.1429 206 L 57.1429 209 L 50 209 L 50 213 Z"/>
    <path id="piece_002" style="fill:none;stroke:#000000;stroke-width:0.0508" d="M 2 56.4444 L 5 56.4444 L 5 62.4444 L 2 62.4444 L 2 68.8889 L 5 68.8889 L 5 74.8889 L 2 74.8889 L 2 81.3333 L 5 81.3333 L 5 87.3333 L 2 87.3333 L 2 93.7778 L 5 93.7778 L 5 99.7778 L 2 99.7778 L 2 106.222 L 5 106.222 L 5 112.222 L 2 112.222 L 2 118.667 L 5 118.667 L 5 124.667 L 2 124.667 L 2 131.111 L 5 131.111 L 5 137.111 L 2 137.111 L 2 143.556 L 5 143.556 L 5 149.556 L 2 149.556 L 2 156 L 9 156 L 9 153 L 15 153 L 15 156 L 22 156 L 22 153 L 28 153 L 28 156 L 35 156 L 35 153 L 41 153 L 41 156 L 45 156 L 45 149.556 L 48 149.556 L 48 143.556 L 45 143.556 L 45 137.111 L 48 137.111 L 48 131.111 L 45 131.111 L 45 124.667 L 48 124.667 L 48 118.667 L 45 118.667 L 45 112.222 L 48 112.222 L 48 106.222 L 45 106.222 L 45 104.5 L 41 104.5 L 41 101.5 L 45 101.5 L 45 99.7778 L 48 99.7778 L 48 93.7778 L 45 93.7778 L 45 87.3333 L 48 87.3333 L 48 81.3333 L 45 81.3333 L 45 74.8889 L 48 74.8889 L 48 68.8889 L 45 68.8889 L 45 62.4444 L 48 62.4444 L 48 56.4444 L 45 56.4444 L 45 53 L 41 53 L 41 50 L 35 50 L 35 53 L 28 53 L 28 50 L 22 50 L 22 53 L 15 53 L 15 50 L 9 50 L 9 53 L 2 53 L 2 56.4444 Z M 15 101.5 L 22 101.5 L 22 104.5 L 15 104.5 L 15 101.5 Z M 28 101.5 L 35 101.5 L 35 104.5 L 28 104.5 L 28 101.5 Z M 5 101.5 L 9 101.5 L 9 104.5 L 5 104.5 L 5 101.5 Z"/>
    <path id="ydivider_001" style="fill:none;stroke:#000000;stroke-width:0.0508" d="M 274 56.4444 L 277 56.4444 L 277 62.4444 L 274 62.4444 L 274 68.8889 L 277 68.8889 L 277 74.8889 L 274 74.8889 L 274 81.3333 L 277 81.3333 L 277 87.3333 L 274 87.3333 L 274 93.7778 L 277 93.7778 L 277 99.7778 L 274 99.7778 L 274 101.5 L 297 101.5 L 297 104.5 L 274 104.5 L 274 106.222 L 277 106.222 L 277 112.222 L 274 112.222 L 274 118.667 L 277 118.667 L 277 124.667 L 274 124.667 L 274 131.111 L 277 131.111 L 277 137.111 L 274 137.111 L 274 143.556 L 277 143.556 L 277 149.556 L 274 149.556 L 274 156 L 281 156 L 281 153 L 287 153 L 287 156 L 294 156 L 294 153 L 300 153 L 300 156 L 307 156 L 307 153 L 313 153 L 313 156 L 317 156 L 317 149.556 L 320 149.556 L 320 143.556 L 317 143.556 L 317 137.111 L 320 137.111 L 320 131.111 L 317 131.111 L 317 124.667 L 320 124.667 L 320 118.667 L 317 118.667 L 317 112.222 L 320 112.222 L 320 106.222 L 317 106.222 L 317 99.7778 L 320 99.7778 L 320 93.7778 L 317 93.7778 L 317 87.3333 L 320 87.3333 L 320 81.3333 L 317 81.3333 L 317 74.8889 L 320 74.8889 L 320 68.8889 L 317 68.8889 L 317 62.4444 L 320 62.4444 L 320 56.4444 L 317 56.4444 L 317 53 L 313 53 L 313 50 L 307 50 L 307 53 L 300 53 L 300 50 L 294 50 L 294 53 L 287 53 L 287 50 L 281 50 L 281 53 L 274 53 L 274 56.4444 Z"/>
    <path id="piece_003" style="fill:none;stroke:#000000;stroke-width:0.0508" d="M 50 56.4444 L 53 56.4444 L 53 62.4444 L 50 62.4444 L 50 68.8889 L 53 68.8889 L 53 74.8889 L 50 74.8889 L 50 81.3333 L 53 81.3333 L 53 87.3333 L 50 87.3333 L 50 93.7778 L 53 93.7778 L 53 99.7778 L 50 99.7778 L 50 106.222 L 53 106.222 L 53 112.222 L 50 112.222 L 50 118.667 L 53 118.667 L 53 124.667 L 50 124.667 L 50 131.111 L 53 131.111 L 53 137.111 L 50 137.111 L 50 143.556 L 53 143.556 L 53 149.556 L 50 149.556 L 50 156 L 57.1429 156 L 57.1429 153 L 63.1429 153 L 63.1429 156 L 70.2857 156 L 70.2857 153 L 76.2857 153 L 76.2857 156 L 83.4286 156 L 83.4286 153 L 89.4286 153 L 89.4286 156 L 96.5714 156 L 96.5714 153 L 102.571 153 L 102.571 156 L 109.714 156 L 109.714 153 L 115.714 153 L 115.714 156 L 122.857 156 L 122.857 153 L 128.857 153 L 128.857 156 L 136 156 L 136 153 L 133 153 L 133 149.556 L 136 149.556 L 136 143.556 L 133 143.556 L 133 137.111 L 136 137.111 L 136 131.111 L 133 131.111 L 133 124.667 L 136 124.667 L 136 118.667 L 133 118.667 L 133 112.222 L 136 112.222 L 136 106.222 L 133 106.222 L 133 104.5 L 128.857 104.5 L 128.857 101.5 L 133 101.5 L 133 99.7778 L 136 99.7778 L 136 93.7778 L 133 93.7778 L 133 87.3333 L 136 87.3333 L 136 81.3333 L 133 81.3333 L 133 74.8889 L 136 74.8889 L 136 68.8889 L 133 68.8889 L 133 62.4444 L 136 62.4444 L 136 56.4444 L 133 56.4444 L 133 53 L 128.857 53 L 128.857 50 L 122.857 50 L 122.857 53 L 115.714 53 L 115.714 50 L 109.714 50 L 109.714 53 L 102.571 53 L 102.571 50 L 96.5714 50 L 96.5714 53 L 94.5 53 L 94.5 56.4444 L 91.5 56.4444 L 91.5 53 L 89.4286 53 L 89.4286 50 L 83.4286 50 L 83.4286 53 L 76.2857 53 L 76.2857 50 L 70.2857 50 L 70.2857 53 L 63.1429 53 L 63.1429 50 L 57.1429 50 L 57.1429 53 L 50 53 L 50 56.4444 Z M 102.571 101.5 L 109.714 101.5 L 109.714 104.5 L 102.571 104.5 L 102.571 101.5 Z M 115.714 101.5 L 122.857 101.5 L 122.857 104.5 L 115.714 104.5 L 115.714 101.5 Z M 53 101.5 L 57.1429 101.5 L 57.1429 104.5 L 53 104.5 L 53 101.5 Z M 63.1429 101.5 L 70.2857 101.5 L 70.2857 104.5 L 63.1429 104.5 L 63.1429 101.5 Z M 76.2857 101.5 L 83.4286 101.5 L 83.4286 104.5 L 76.2857 104.5 L 76.2857 101.5 Z M 89.4286 101.5 L 91.5 101.5 L 91.5 99.7778 L 94.5 99.7778 L 94.5 101.5 L 96.5714 101.5 L 96.5714 104.5 L 94.5 104.5 L 94.5 106.222 L 91.5 106.222 L 91.5 104.5 L 89.4286 104.5 L 89.4286 101.5 Z M 91.5 112.222 L 94.5 112.222 L 94.5 118.667 L 91.5 118.667 L 91.5 112.222 Z M 91.5 124.667 L 94.5 124.667 L 94.5 131.111 L 91.5 131.111 L 91.5 124.667 Z M 91.5 137.111 L 94.5 137.111 L 94.5 143.556 L 91.5 143.556 L 91.5 137.111 Z M 91.5 149.556 L 94.5 149.556 L 94.5 153 L 91.5 153 L 91.5 149.556 Z M 91.5 62.4444 L 94.5 62.4444 L 94.5 68.8889 L 91.5 68.8889 L 91.5 62.4444 Z M 91.5 74.8889 L 94.5 74.8889 L 94.5 81.3333 L 91.5 81.3333 L 91.5 74.8889 Z M 91.5 87.3333 L 94.5 87.3333 L 94.5 93.7778 L 91.5 93.7778 L 91.5 87.3333 Z"/>
    <path id="piece_004" style="fill:none;stroke:#000000;stroke-width:0.0508" d="M 138 56.4444 L 141 56.4444 L 141 62.4444 L 138 62.4444 L 138 68.8889 L 141 68.8889 L 141 74.8889 L 138 74.8889 L 138 81.3333 L 141 81.3333 L 141 87.3333 L 138 87.3333 L 138 93.7778 L 141 93.7778 L 141 99.7778 L 138 99.7778 L 138 106.222 L 141 106.222 L 141 112.222 L 138 112.222 L 138 118.667 L 141 118.667 L 141 124.667 L 138 124.667 L 138 131.111 L 141 131.111 L 141 137.111 L 138 137.111 L 138 143.556 L 141 143.556 L 141 149.556 L 138 149.556 L 138 153 L 145 153 L 145 156 L 151 156 L 151 153 L 158 153 L 158 156 L 164 156 L 164 153 L 171 153 L 171 156 L 177 156 L 177 153 L 181 153 L 181 149.556 L 184 149.556 L 184 143.556 L 181 143.556 L 181 137.111 L 184 137.111 L 184 131.111 L 181 131.111 L 181 124.667 L 184 124.667 L 184 118.667 L 181 118.667 L 181 112.222 L 184 112.222 L 184 106.222 L 181 106.222 L 181 99.7778 L 184 99.7778 L 184 93.7778 L 181 93.7778 L 181 87.3333 L 184 87.3333 L 184 81.3333 L 181 81.3333 L 181 74.8889 L 184 74.8889 L 184 68.8889 L 181 68.8889 L 181 62.4444 L 184 62.4444 L 184 56.4444 L 181 56.4444 L 181 50 L 177 50 L 177 53 L 171 53 L 171 50 L 164 50 L 164 53 L 158 53 L 158 50 L 151 50 L 151 53 L 145 53 L 145 50 L 138 50 L 138 56.4444 Z M 145 101.5 L 151 101.5 L 151 104.5 L 145 104.5 L 145 101.5 Z M 158 101.5 L 164 101.5 L 164 104.5 L 158 104.5 L 158 101.5 Z M 171 101.5 L 177 101.5 L 177 104.5 L 171 104.5 L 171 101.5 Z"/>
    <path id="piece_005" style="fill:none;stroke:#000000;stroke-width:0.0508" d="M 186 56.4444 L 189 56.4444 L 189 62.4444 L 186 62.4444 L 186 68.8889 L 189 68.8889 L 189 74.8889 L 186 74.8889 L 186 81.3333 L 189 81.3333 L 189 87.3333 L 186 87.3333 L 186 93.7778 L 189 93.7778 L 189 99.7778 L 186 99.7778 L 186 106.222 L 189 106.222 L 189 112.222 L 186 112.222 L 186 118.667 L 189 118.667 L 189 124.667 L 186 124.667 L 186 131.111 L 189 131.111 L 189 137.111 L 186 137.111 L 186 143.556 L 189 143.556 L 189 149.556 L 186 149.556 L 186 153 L 193.143 153 L 193.143 156 L 199.143 156 L 199.143 153 L 206.286 153 L 206.286 156 L 212.286 156 L 212.286 153 L 219.429 153 L 219.429 156 L 225.429 156 L 225.429 153 L 227.5 153 L 227.5 149.556 L 230.5 149.556 L 230.5 153 L 232.571 153 L 232.571 156 L 238.571 156 L 238.571 153 L 245.714 153 L 245.714 156 L 251.714 156 L 251.714 153 L 258.857 153 L 258.857 156 L 264.857 156 L 264.857 153 L 269 153 L 269 149.556 L 272 149.556 L 272 143.556 L 269 143.556 L 269 137.111 L 272 137.111 L 272 131.111 L 269 131.111 L 269 124.667 L 272 124.667 L 272 118.667 L 269 118.667 L 269 112.222 L 272 112.222 L 272 106.222 L 269 106.222 L 269 99.7778 L 272 99.7778 L 272 93.7778 L 269 93.7778 L 269 87.3333 L 272 87.3333 L 272 81.3333 L 269 81.3333 L 269 74.8889 L 272 74.8889 L 272 68.8889 L 269 68.8889 L 269 62.4444 L 272 62.4444 L 272 56.4444 L 269 56.4444 L 269 53 L 272 53 L 272 50 L 264.857 50 L 264.857 53 L 258.857 53 L 258.857 50 L 251.714 50 L 251.714 53 L 245.714 53 L 245.714 50 L 238.571 50 L 238.571 53 L 232.571 53 L 232.571 50 L 225.429 50 L 225.429 53 L 219.429 53 L 219.429 50 L 212.286 50 L 212.286 53 L 206.286 53 L 206.286 50 L 199.143 50 L 199.143 53 L 193.143 53 L 193.143 50 L 186 50 L 186 56.4444 Z M 193.143 101.5 L 199.143 101.5 L 199.143 104.5 L 193.143 104.5 L 193.143 101.5 Z M 206.286 101.5 L 212.286 101.5 L 212.286 104.5 L 206.286 104.5 L 206.286 101.5 Z M 219.429 101.5 L 225.429 101.5 L 225.429 104.5 L 219.429 104.5 L 219.429 101.5 Z M 227.5 112.222 L 230.5 112.222 L 230.5 118.667 L 227.5 118.667 L 227.5 112.222 Z M 227.5 124.667 L 230.5 124.667 L 230.5 131.111 L 227.5 131.111 L 227.5 124.667 Z M 227.5 137.111 L 230.5 137.111 L 230.5 143.556 L 227.5 143.556 L 227.5 137.111 Z M 227.5 53 L 230.5 53 L 230.5 56.4444 L 227.5 56.4444 L 227.5 53 Z M 227.5 62.4444 L 230.5 62.4444 L 230.5 68.8889 L 227.5 68.8889 L 227.5 62.4444 Z M 227.5 74.8889 L 230.5 74.8889 L 230.5 81.3333 L 227.5 81.3333 L 227.5 74.8889 Z M 227.5 87.3333 L 230.5 87.3333 L 230.5 93.7778 L 227.5 93.7778 L 227.5 87.3333 Z M 227.5 99.7778 L 230.5 99.7778 L 230.5 106.222 L 227.5 106.222 L 227.5 99.7778 Z M 232.571 101.5 L 238.571 101.5 L 238.571 104.5 L 232.571 104.5 L 232.571 101.5 Z M 245.714 101.5 L 251.714 101.5 L 251.714 104.5 L 245.714 104.5 L 245.714 101.5 Z M 258.857 101.5 L 264.857 101.5 L 264.857 104.5 L 258.857 104.5 L 258.857 101.5 Z"/>
    <path id="piece_006" style="fill:none;stroke:#000000;stroke-width:0.0508" d="M 50 9 L 53 9 L 53 15 L 50 15 L 50 22 L 53 22 L 53 28 L 50 28 L 50 35 L 53 35 L 53 41 L 50 41 L 50 48 L 57.1429 48 L 57.1429 45 L 63.1429 45 L 63.1429 48 L 70.2857 48 L 70.2857 45 L 76.2857 45 L 76.2857 48 L 83.4286 48 L 83.4286 45 L 89.4286 45 L 89.4286 48 L 91.5 48 L 91.5 41 L 94.5 41 L 94.5 48 L 96.5714 48 L 96.5714 45 L 102.571 45 L 102.571 48 L 109.714 48 L 109.714 45 L 115.714 45 L 115.714 48 L 122.857 48 L 122.857 45 L 128.857 45 L 128.857 48 L 133 48 L 133 41 L 136 41 L 136 35 L 133 35 L 133 28 L 136 28 L 136 22 L 133 22 L 133 15 L 136 15 L 136 9 L 133 9 L 133 5 L 128.857 5 L 128.857 2 L 122.857 2 L 122.857 5 L 115.714 5 L 115.714 2 L 109.714 2 L 109.714 5 L 102.571 5 L 102.571 2 L 96.5714 2 L 96.5714 5 L 94.5 5 L 94.5 9 L 91.5 9 L 91.5 5 L 89.4286 5 L 89.4286 2 L 83.4286 2 L 83.4286 5 L 76.2857 5 L 76.2857 2 L 70.2857 2 L 70.2857 5 L 63.1429 5 L 63.1429 2 L 57.1429 2 L 57.1429 5 L 50 5 L 50 9 Z M 91.5 15 L 94.5 15 L 94.5 22 L 91.5 22 L 91.5 15 Z M 91.5 28 L 94.5 28 L 94.5 35 L 91.5 35 L 91.5 28 Z"/>
  </g>
</svg>