<!-- Created with Inkscape (http://www.inkscape.org/) -->
<svg xmlns:inkscape="http://www.inkscape.org/namespaces/inkscape" xmlns:sodipodi="http://sodipodi.sourceforge.net/DTD/sodipodi-0.dtd" xmlns="http://www.w3.org/2000/svg" xmlns:svg="http://www.w3.org/2000/svg" width="321mm" height="253mm" viewBox="0 0 321 253" version="1.1" sodipodi:docname="blank.svg">
  <sodipodi:namedview/>
  <defs id="defaults"/>
  <g inkscape:label="Tabbed Box" id="tabbedbox">
    <metadata text="$ boxmaker.py --unit=mm --inside=1 --length=80 --width=100 --depth=40 --equal=0 --tab=6 --tabtype=0 --dimpleheight=0 --dimplelength=0 --hairline=1 --thickness=3 --kerf=0 --style=1 --boxtype=1 --div-l=1 --div-w=1 --keydiv=0 --spacing=2 --tabsymmetry=1"/>
    <g id="back">
      <path id="side_001" style="fill:none;stroke:#000000;stroke-width:0.0508" d="M 50 161 L 58.7143 161 L 58.7143 158 L 64.4286 158 L 64.4286 161 L 70.1429 161 L 70.1429 158 L 75.8571 158 L 75.8571 161 L 81.5714 161 L 81.5714 158 L 87.2857 158 L 87.2857 161 L 93 161 L 93 158 L 98.7143 158 L 98.7143 161 L 104.429 161 L 104.429 158 L 110.143 158 L 110.143 161 L 115.857 161 L 115.857 158 L 121.571 158 L 121.571 161 L 127.286 161 L 127.286 158 L 133 158"/>
      <path id="side_002" style="fill:none;stroke:#000000;stroke-width:0.0508" d="M 133 158 L 133 167.667 L 136 167.667 L 136 174.333 L 133 174.333 L 133 181 L 136 181 L 136 187.667 L 133 187.667 L 133 194.333 L 136 194.333 L 136 201"/>
      <path id="hole" style="fill:none;stroke:#000000;stroke-width:0.0508" d="M 94.5 167.667 L 94.5 174.333 L 91.5 174.333 L 91.5 167.667 L 94.5 167.667 Z"/>
      <path id="hole_001" style="fill:none;stroke:#000000;stroke-width:0.0508" d="M 94.5 181 L 94.5 187.667 L 91.5 187.667 L 91.5 181 L 94.5 181 Z"/>
      <path id="hole_002" style="fill:none;stroke:#000000;stroke-width:0.0508" d="M 94.5 194.333 L 94.5 201 L 91.5 201 L 91.5 194.333 L 94.5 194.333 Z"/>
      <path id="side_003" style="fill:none;stroke:#000000;stroke-width:0.0508" d="M 136 201 L 127.286 201 L 127.286 204 L 121.571 204 L 121.571 201 L 115.857 201 L 115.857 204 L 110.143 204 L 110.143 201 L 104.429 201 L 104.429 204 L 98.7143 204 L 98.7143 201 L 93 201 L 93 204 L 87.2857 204 L 87.2857 201 L 81.5714 201 L 81.5714 204 L 75.8571 204 L 75.8571 201 L 70.1429 201 L 70.1429 204 L 64.4286 204 L 64.4286 201 L 58.7143 201 L 58.7143 204 L 53 204"/>
      <path id="side_004" style="fill:none;stroke:#000000;stroke-width:0.0508" d="M 53 204 L 53 194.333 L 50 194.333 L 50 187.667 L 53 187.667 L 53 181 L 50 181 L 50 174.333 L 53 174.333 L 53 167.667 L 50 167.667 L 50 161"/>
    </g>
    <g id="xdivider">
      <path id="side_005" style="fill:none;stroke:#000000;stroke-width:0.0508" d="M 50 209 L 58.7143 209 L 58.7143 206 L 64.4286 206 L 64.4286 209 L 70.1429 209 L 70.1429 206 L 75.8571 206 L 75.8571 209 L 81.5714 209 L 81.5714 206 L 87.2857 206 L 87.2857 209 L 93 209 L 93 206 L 98.7143 206 L 98.7143 209 L 104.429 209 L 104.429 206 L 110.143 206 L 110.143 209 L 115.857 209 L 115.857 206 L 121.571 206 L 121.571 209 L 127.286 209 L 127.286 206 L 133 206"/>
      <path id="side_006" style="fill:none;stroke:#000000;stroke-width:0.0508" d="M 133 206 L 133 215.667 L 136 215.667 L 136 222.333 L 133 222.333 L 133 229 L 136 229 L 136 235.667 L 133 235.667 L 133 242.333 L 136 242.333 L 136 249"/>
      <path id="side_007" style="fill:none;stroke:#000000;stroke-width:0.0508" d="M 136 249 L 127.286 249 L 127.286 252 L 121.571 252 L 121.571 249 L 115.857 249 L 115.857 252 L 110.143 252 L 110.143 249 L 104.429 249 L 104.429 252 L 98.7143 252 L 98.7143 249 L 93 249 L 93 252 L 87.2857 252 L 87.2857 249 L 81.5714 249 L 81.5714 252 L 75.8571 252 L 75.8571 249 L 70.1429 249 L 70.1429 252 L 64.4286 252 L 64.4286 249 L 58.7143 249 L 58.7143 252 L 53 252"/>
      <path id="side_008" style="fill:none;stroke:#000000;stroke-width:0.0508" d="M 53 252 L 53 242.333 L 50 242.333 L 50 235.667 L 53 235.667 L 53 229 L 50 229 L 50 222.333 L 53 222.333 L 53 215.667 L 50 215.667 L 50 209"/>
      <path id="slot" style="fill:none;stroke:#000000;stroke-width:0.0508" d="M 91.5 252 L 91.5 229 L 94.5 229 L 94.5 252 L 91.5 252 Z"/>
    </g>
    <g id="left">
      <path id="side_009" style="fill:none;stroke:#000000;stroke-width:0.0508" d="M 2 53 L 11.6667 53 L 11.6667 50 L 18.3333 50 L 18.3333 53 L 25 53 L 25 50 L 31.6667 50 L 31.6667 53 L 38.3333 53 L 38.3333 50 L 45 50"/>
      <path id="hole_003" style="fill:none;stroke:#000000;stroke-width:0.0508" d="M 5 101.5 L 11.6667 101.5 L 11.6667 104.5 L 5 104.5 L 5 101.5 Z"/>
      <path id="hole_004" style="fill:none;stroke:#000000;stroke-width:0.0508" d="M 18.3333 101.5 L 25 101.5 L 25 104.5 L 18.3333 104.5 L 18.3333 101.5 Z"/>
      <path id="hole_005" style="fill:none;stroke:#000000;stroke-width:0.0508" d="M 31.6667 101.5 L 38.3333 101.5 L 38.3333 104.5 L 31.6667 104.5 L 31.6667 101.5 Z"/>
      <path id="side_010" style="fill:none;stroke:#000000;stroke-width:0.0508" d="M 45 50 L 45 59.25 L 48 59.25 L 48 65.5 L 45 65.5 L 45 71.75 L 48 71.75 L 48 78 L 45 78 L 45 84.25 L 48 84.25 L 48 90.5 L 45 90.5 L 45 96.75 L 48 96.75 L 48 103 L 45 103 L 45 109.25 L 48 109.25 L 48 115.5 L 45 115.5 L 45 121.75 L 48 121.75 L 48 128 L 45 128 L 45 134.25 L 48 134.25 L 48 140.5 L 45 140.5 L 45 146.75 L 48 146.75 L 48 153"/>
      <path id="side_011" style="fill:none;stroke:#000000;stroke-width:0.0508" d="M 48 153 L 38.3333 153 L 38.3333 156 L 31.6667 156 L 31.6667 153 L 25 153 L 25 156 L 18.3333 156 L 18.3333 153 L 11.6667 153 L 11.6667 156 L 5 156"/>
      <path id="side_012" style="fill:none;stroke:#000000;stroke-width:0.0508" d="M 5 156 L 5 146.75 L 2 146.75 L 2 140.5 L 5 140.5 L 5 134.25 L 2 134.25 L 2 128 L 5 128 L 5 121.75 L 2 121.75 L 2 115.5 L 5 115.5 L 5 109.25 L 2 109.25 L 2 103 L 5 103 L 5 96.75 L 2 96.75 L 2 90.5 L 5 90.5 L 5 84.25 L 2 84.25 L 2 78 L 5 78 L 5 71.75 L 2 71.75 L 2 65.5 L 5 65.5 L 5 59.25 L 2 59.25 L 2 53"/>
    </g>
    <g id="ydivider">
      <path id="side_013" style="fill:none;stroke:#000000;stroke-width:0.0508" d="M 274 53 L 283.667 53 L 283.667 50 L 290.333 50 L 290.333 53 L 297 53 L 297 50 L 303.667 50 L 303.667 53 L 310.333 53 L 310.333 50 L 317 50"/>
      <path id="slot_001" style="fill:none;stroke:#000000;stroke-width:0.0508" d="M 274 101.5 L 297 101.5 L 297 104.5 L 274 104.5 L 274 101.5 Z"/>
      <path id="side_014" style="fill:none;stroke:#000000;stroke-width:0.0508" d="M 317 50 L 317 59.25 L 320 59.25 L 320 65.5 L 317 65.5 L 317 71.75 L 320 71.75 L 320 78 L 317 78 L 317 84.25 L 320 84.25 L 320 90.5 L 317 90.5 L 317 96.75 L 320 96.75 L 320 103 L 317 103 L 317 109.25 L 320 109.25 L 320 115.5 L 317 115.5 L 317 121.75 L 320 121.75 L 320 128 L 317 128 L 317 134.25 L 320 134.25 L 320 140.5 L 317 140.5 L 317 146.75 L 320 146.75 L 320 153"/>
      <path id="side_015" style="fill:none;stroke:#000000;stroke-width:0.0508" d="M 320 153 L 310.333 153 L 310.333 156 L 303.667 156 L 303.667 153 L 297 153 L 297 156 L 290.333 156 L 290.333 153 L 283.667 153 L 283.667 156 L 277 156"/>
      <path id="side_016" style="fill:none;stroke:#000000;stroke-width:0.0508" d="M 277 156 L 277 146.75 L 274 146.75 L 274 140.5 L 277 140.5 L 277 134.25 L 274 134.25 L 274 128 L 277 128 L 277 121.75 L 274 121.75 L 274 115.5 L 277 115.5 L 277 109.25 L 274 109.25 L 274 103 L 277 103 L 277 96.75 L 274 96.75 L 274 90.5 L 277 90.5 L 277 84.25 L 274 84.25 L 274 78 L 277 78 L 277 71.75 L 274 71.75 L 274 65.5 L 277 65.5 L 277 59.25 L 274 59.25 L 274 53"/>
    </g>
    <g id="bottom">
      <path id="side_017" style="fill:none;stroke:#000000;stroke-width:0.0508" d="M 50 53 L 50 50 L 53 50 L 53 53 L 58.7143 53 L 58.7143 50 L 64.4286 50 L 64.4286 53 L 70.1429 53 L 70.1429 50 L 75.8571 50 L 75.8571 53 L 81.5714 53 L 81.5714 50 L 87.2857 50 L 87.2857 53 L 93 53 L 93 50 L 98.7143 50 L 98.7143 53 L 104.429 53 L 104.429 50 L 110.143 50 L 110.143 53 L 115.857 53 L 115.857 50 L 121.571 50 L 121.571 53 L 127.286 53 L 127.286 50 L 133 50"/>
      <path id="hole_006" style="fill:none;stroke:#000000;stroke-width:0.0508" d="M 53 101.5 L 58.7143 101.5 L 58.7143 104.5 L 53 104.5 L 53 101.5 Z"/>
      <path id="hole_007" style="fill:none;stroke:#000000;stroke-width:0.0508" d="M 64.4286 101.5 L 70.1429 101.5 L 70.1429 104.5 L 64.4286 104.5 L 64.4286 101.5 Z"/>
      <path id="hole_008" style="fill:none;stroke:#000000;stroke-width:0.0508" d="M 75.8571 101.5 L 81.5714 101.5 L 81.5714 104.5 L 75.8571 104.5 L 75.8571 101.5 Z"/>
      <path id="hole_009" style="fill:none;stroke:#000000;stroke-width:0.0508" d="M 87.2857 101.5 L 93 101.5 L 93 104.5 L 87.2857 104.5 L 87.2857 101.5 Z"/>
      <path id="hole_010" style="fill:none;stroke:#000000;stroke-width:0.0508" d="M 98.7143 101.5 L 104.429 101.5 L 104.429 104.5 L 98.7143 104.5 L 98.7143 101.5 Z"/>
      <path id="hole_011" style="fill:none;stroke:#000000;stroke-width:0.0508" d="M 110.143 101.5 L 115.857 101.5 L 115.857 104.5 L 110.143 104.5 L 110.143 101.5 Z"/>
      <path id="hole_012" style="fill:none;stroke:#000000;stroke-width:0.0508" d="M 121.571 101.5 L 127.286 101.5 L 127.286 104.5 L 121.571 104.5 L 121.571 101.5 Z"/>
      <path id="side_018" style="fill:none;stroke:#000000;stroke-width:0.0508" d="M 133 50 L 136 50 L 136 53 L 133 53 L 133 59.25 L 136 59.25 L 136 65.5 L 133 65.5 L 133 71.75 L 136 71.75 L 136 78 L 133 78 L 133 84.25 L 136 84.25 L 136 90.5 L 133 90.5 L 133 96.75 L 136 96.75 L 136 103 L 133 103 L 133 109.25 L 136 109.25 L 136 115.5 L 133 115.5 L 133 121.75 L 136 121.75 L 136 128 L 133 128 L 133 134.25 L 136 134.25 L 136 140.5 L 133 140.5 L 133 146.75 L 136 146.75 L 136 153"/>
      <path id="hole_013" style="fill:none;stroke:#000000;stroke-width:0.0508" d="M 94.5 59.25 L 94.5 65.5 L 91.5 65.5 L 91.5 59.25 L 94.5 59.25 Z"/>
      <path id="hole_014" style="fill:none;stroke:#000000;stroke-width:0.0508" d="M 94.5 71.75 L 94.5 78 L 91.5 78 L 91.5 71.75 L 94.5 71.75 Z"/>
      <path id="hole_015" style="fill:none;stroke:#000000;stroke-width:0.0508" d="M 94.5 84.25 L 94.5 90.5 L 91.5 90.5 L 91.5 84.25 L 94.5 84.25 Z"/>
      <path id="hole_016" style="fill:none;stroke:#000000;stroke-width:0.0508" d="M 94.5 96.75 L 94.5 103 L 91.5 103 L 91.5 96.75 L 94.5 96.75 Z"/>
      <path id="hole_017" style="fill:none;stroke:#000000;stroke-width:0.0508" d="M 94.5 109.25 L 94.5 115.5 L 91.5 115.5 L 91.5 109.25 L 94.5 109.25 Z"/>
      <path id="hole_018" style="fill:none;stroke:#000000;stroke-width:0.0508" d="M 94.5 121.75 L 94.5 128 L 91.5 128 L 91.5 121.75 L 94.5 121.75 Z"/>
      <path id="hole_019" style="fill:none;stroke:#000000;stroke-width:0.0508" d="M 94.5 134.25 L 94.5 140.5 L 91.5 140.5 L 91.5 134.25 L 94.5 134.25 Z"/>
      <path id="hole_020" style="fill:none;stroke:#000000;stroke-width:0.0508" d="M 94.5 146.75 L 94.5 153 L 91.5 153 L 91.5 146.75 L 94.5 146.75 Z"/>
      <path id="side_019" style="fill:none;stroke:#000000;stroke-width:0.0508" d="M 136 153 L 136 156 L 133 156 L 133 153 L 127.286 153 L 127.286 156 L 121.571 156 L 121.571 153 L 115.857 153 L 115.857 156 L 110.143 156 L 110.143 153 L 104.429 153 L 104.429 156 L 98.7143 156 L 98.7143 153 L 93 153 L 93 156 L 87.2857 156 L 87.2857 153 L 81.5714 153 L 81.5714 156 L 75.8571 156 L 75.8571 153 L 70.1429 153 L 70.1429 156 L 64.4286 156 L 64.4286 153 L 58.7143 153 L 58.7143 156 L 53 156"/>
      <path id="side_020" style="fill:none;stroke:#000000;stroke-width:0.0508" d="M 53 156 L 50 156 L 50 153 L 53 153 L 53 146.75 L 50 146.75 L 50 140.5 L 53 140.5 L 53 134.25 L 50 134.25 L 50 128 L 53 128 L 53 121.75 L 50 121.75 L 50 115.5 L 53 115.5 L 53 109.25 L 50 109.25 L 50 103 L 53 103 L 53 96.75 L 50 96.75 L 50 90.5 L 53 90.5 L 53 84.25 L 50 84.25 L 50 78 L 53 78 L 53 71.75 L 50 71.75 L 50 65.5 L 53 65.5 L 53 59.25 L 50 59.25 L 50 53"/>
    </g>
    <g id="right">
      <path id="side_021" style="fill:none;stroke:#000000;stroke-width:0.0508" d="M 138 53 L 147.667 53 L 147.667 50 L 154.333 50 L 154.333 53 L 161 53 L 161 50 L 167.667 50 L 167.667 53 L 174.333 53 L 174.333 50 L 181 50"/>
      <path id="hole_021" style="fill:none;stroke:#000000;stroke-width:0.0508" d="M 141 101.5 L 147.667 101.5 L 147.667 104.5 L 141 104.5 L 141 101.5 Z"/>
      <path id="hole_022" style="fill:none;stroke:#000000;stroke-width:0.0508" d="M 154.333 101.5 L 161 101.5 L 161 104.5 L 154.333 104.5 L 154.333 101.5 Z"/>
      <path id="hole_023" style="fill:none;stroke:#000000;stroke-width:0.0508" d="M 167.667 101.5 L 174.333 101.5 L 174.333 104.5 L 167.667 104.5 L 167.667 101.5 Z"/>
      <path id="side_022" style="fill:none;stroke:#000000;stroke-width:0.0508" d="M 181 50 L 181 59.25 L 184 59.25 L 184 65.5 L 181 65.5 L 181 71.75 L 184 71.75 L 184 78 L 181 78 L 181 84.25 L 184 84.25 L 184 90.5 L 181 90.5 L 181 96.75 L 184 96.75 L 184 103 L 181 103 L 181 109.25 L 184 109.25 L 184 115.5 L 181 115.5 L 181 121.75 L 184 121.75 L 184 128 L 181 128 L 181 134.25 L 184 134.25 L 184 140.5 L 181 140.5 L 181 146.75 L 184 146.75 L 184 153"/>
      <path id="side_023" style="fill:none;stroke:#000000;stroke-width:0.0508" d="M 184 153 L 174.333 153 L 174.333 156 L 167.667 156 L 167.667 153 L 161 153 L 161 156 L 154.333 156 L 154.333 153 L 147.667 153 L 147.667 156 L 141 156"/>
      <path id="side_024" style="fill:none;stroke:#000000;stroke-width:0.0508" d="M 141 156 L 141 146.75 L 138 146.75 L 138 140.5 L 141 140.5 L 141 134.25 L 138 134.25 L 138 128 L 141 128 L 141 121.75 L 138 121.75 L 138 115.5 L 141 115.5 L 141 109.25 L 138 109.25 L 138 103 L 141 103 L 141 96.75 L 138 96.75 L 138 90.5 L 141 90.5 L 141 84.25 L 138 84.25 L 138 78 L 141 78 L 141 71.75 L 138 71.75 L 138 65.5 L 141 65.5 L 141 59.25 L 138 59.25 L 138 53"/>
    </g>
    <g id="top">
      <path id="side_025" style="fill:none;stroke:#000000;stroke-width:0.0508" d="M 186 53 L 186 50 L 189 50 L 189 53 L 194.714 53 L 194.714 50 L 200.429 50 L 200.429 53 L 206.143 53 L 206.143 50 L 211.857 50 L 211.857 53 L 217.571 53 L 217.571 50 L 223.286 50 L 223.286 53 L 229 53 L 229 50 L 234.714 50 L 234.714 53 L 240.429 53 L 240.429 50 L 246.143 50 L 246.143 53 L 251.857 53 L 251.857 50 L 257.571 50 L 257.571 53 L 263.286 53 L 263.286 50 L 269 50"/>
      <path id="hole_024" style="fill:none;stroke:#000000;stroke-width:0.0508" d="M 189 101.5 L 194.714 101.5 L 194.714 104.5 L 189 104.5 L 189 101.5 Z"/>
      <path id="hole_025" style="fill:none;stroke:#000000;stroke-width:0.0508" d="M 200.429 101.5 L 206.143 101.5 L 206.143 104.5 L 200.429 104.5 L 200.429 101.5 Z"/>
      <path id="hole_026" style="fill:none;stroke:#000000;stroke-width:0.0508" d="M 211.857 101.5 L 217.571 101.5 L 217.571 104.5 L 211.857 104.5 L 211.857 101.5 Z"/>
      <path id="hole_027" style="fill:none;stroke:#000000;stroke-width:0.0508" d="M 223.286 101.5 L 229 101.5 L 229 104.5 L 223.286 104.5 L 223.286 101.5 Z"/>
      <path id="hole_028" style="fill:none;stroke:#000000;stroke-width:0.0508" d="M 234.714 101.5 L 240.429 101.5 L 240.429 104.5 L 234.714 104.5 L 234.714 101.5 Z"/>
      <path id="hole_029" style="fill:none;stroke:#000000;stroke-width:0.0508" d="M 246.143 101.5 L 251.857 101.5 L 251.857 104.5 L 246.143 104.5 L 246.143 101.5 Z"/>
      <path id="hole_030" style="fill:none;stroke:#000000;stroke-width:0.0508" d="M 257.571 101.5 L 263.286 101.5 L 263.286 104.5 L 257.571 104.5 L 257.571 101.5 Z"/>
      <path id="side_026" style="fill:none;stroke:#000000;stroke-width:0.0508" d="M 269 50 L 272 50 L 272 53 L 269 53 L 269 59.25 L 272 59.25 L 272 65.5 L 269 65.5 L 269 71.75 L 272 71.75 L 272 78 L 269 78 L 269 84.25 L 272 84.25 L 272 90.5 L 269 90.5 L 269 96.75 L 272 96.75 L 272 103 L 269 103 L 269 109.25 L 272 109.25 L 272 115.5 L 269 115.5 L 269 121.75 L 272 121.75 L 272 128 L 269 128 L 269 134.25 L 272 134.25 L 272 140.5 L 269 140.5 L 269 146.75 L 272 146.75 L 272 153"/>
      <path id="hole_031" style="fill:none;stroke:#000000;stroke-width:0.0508" d="M 230.5 59.25 L 230.5 65.5 L 227.5 65.5 L 227.5 59.25 L 230.5 59.25 Z"/>
      <path id="hole_032" style="fill:none;stroke:#000000;stroke-width:0.0508" d="M 230.5 71.75 L 230.5 78 L 227.5 78 L 227.5 71.75 L 230.5 71.75 Z"/>
      <path id="hole_033" style="fill:none;stroke:#000000;stroke-width:0.0508" d="M 230.5 84.25 L 230.5 90.5 L 227.5 90.5 L 227.5 84.25 L 230.5 84.25 Z"/>
      <path id="hole_034" style="fill:none;stroke:#000000;stroke-width:0.0508" d="M 230.5 96.75 L 230.5 103 L 227.5 103 L 227.5 96.75 L 230.5 96.75 Z"/>
      <path id="hole_035" style="fill:none;stroke:#000000;stroke-width:0.0508" d="M 230.5 109.25 L 230.5 115.5 L 227.5 115.5 L 227.5 109.25 L 230.5 109.25 Z"/>
      <path id="hole_036" style="fill:none;stroke:#000000;stroke-width:0.0508" d="M 230.5 121.75 L 230.5 128 L 227.5 128 L 227.5 121.75 L 230.5 121.75 Z"/>
      <path id="hole_037" style="fill:none;stroke:#000000;stroke-width:0.0508" d="M 230.5 134.25 L 230.5 140.5 L 227.5 140.5 L 227.5 134.25 L 230.5 134.25 Z"/>
      <path id="hole_038" style="fill:none;stroke:#000000;stroke-width:0.0508" d="M 230.5 146.75 L 230.5 153 L 227.5 153 L 227.5 146.75 L 230.5 146.75 Z"/>
      <path id="side_027" style="fill:none;stroke:#000000;stroke-width:0.0508" d="M 272 153 L 272 156 L 269 156 L 269 153 L 263.286 153 L 263.286 156 L 257.571 156 L 257.571 153 L 251.857 153 L 251.857 156 L 246.143 156 L 246.143 153 L 240.429 153 L 240.429 156 L 234.714 156 L 234.714 153 L 229 153 L 229 156 L 223.286 156 L 223.286 153 L 217.571 153 L 217.571 156 L 211.857 156 L 211.857 153 L 206.143 153 L 206.143 156 L 200.429 156 L 200.429 153 L 194.714 153 L 194.714 156 L 189 156"/>
      <path id="side_028" style="fill:none;stroke:#000000;stroke-width:0.0508" d="M 189 156 L 186 156 L 186 153 L 189 153 L 189 146.75 L 186 146.75 L 186 140.5 L 189 140.5 L 189 134.25 L 186 134.25 L 186 128 L 189 128 L 189 121.75 L 186 121.75 L 186 115.5 L 189 115.5 L 189 109.25 L 186 109.25 L 186 103 L 189 103 L 189 96.75 L 186 96.75 L 186 90.5 L 189 90.5 L 189 84.25 L 186 84.25 L 186 78 L 189 78 L 189 71.75 L 186 71.75 L 186 65.5 L 189 65.5 L 189 59.25 L 186 59.25 L 186 53"/>
    </g>
    <g id="front">
      <path id="side_029" style="fill:none;stroke:#000000;stroke-width:0.0508" d="M 50 5 L 58.7143 5 L 58.7143 2 L 64.4286 2 L 64.4286 5 L 70.1429 5 L 70.1429 2 L 75.8571 2 L 75.8571 5 L 81.5714 5 L 81.5714 2 L 87.2857 2 L 87.2857 5 L 93 5 L 93 2 L 98.7143 2 L 98.7143 5 L 104.429 5 L 104.429 2 L 110.143 2 L 110.143 5 L 115.857 5 L 115.857 2 L 121.571 2 L 121.571 5 L 127.286 5 L 127.286 2 L 133 2"/>
      <path id="side_030" style="fill:none;stroke:#000000;stroke-width:0.0508" d="M 133 2 L 133 11.6667 L 136 11.6667 L 136 18.3333 L 133 18.3333 L 133 25 L 136 25 L 136 31.6667 L 133 31.6667 L 133 38.3333 L 136 38.3333 L 136 45"/>
      <path id="hole_039" style="fill:none;stroke:#000000;stroke-width:0.0508" d="M 94.5 11.6667 L 94.5 18.3333 L 91.5 18.3333 L 91.5 11.6667 L 94.5 11.6667 Z"/>
      <path id="hole_040" style="fill:none;stroke:#000000;stroke-width:0.0508" d="M 94.5 25 L 94.5 31.6667 L 91.5 31.6667 L 91.5 25 L 94.5 25 Z"/>
      <path id="hole_041" style="fill:none;stroke:#000000;stroke-width:0.0508" d="M 94.5 38.3333 L 94.5 45 L 91.5 45 L 91.5 38.3333 L 94.5 38.3333 Z"/>
      <path id="side_031" style="fill:none;stroke:#000000;stroke-width:0.0508" d="M 136 45 L 127.286 45 L 127.286 48 L 121.571 48 L 121.571 45 L 115.857 45 L 115.857 48 L 110.143 48 L 110.143 45 L 104.429 45 L 104.429 48 L 98.7143 48 L 98.7143 45 L 93 45 L 93 48 L 87.2857 48 L 87.2857 45 L 81.5714 45 L 81.5714 48 L 75.8571 48 L 75.8571 45 L 70.1429 45 L 70.1429 48 L 64.4286 48 L 64.4286 45 L 58.7143 45 L 58.7143 48 L 53 48"/>
      <path id="side_032" style="fill:none;stroke:#000000;stroke-width:0.0508" d="M 53 48 L 53 38.3333 L 50 38.3333 L 50 31.6667 L 53 31.6667 L 53 25 L 50 25 L 50 18.3333 L 53 18.3333 L 53 11.6667 L 50 11.6667 L 50 5"/>
    </g>
  </g>
</svg>