<!-- Created with Inkscape (http://www.inkscape.org/) -->
<svg xmlns:inkscape="http://www.inkscape.org/namespaces/inkscape" xmlns:sodipodi="http://sodipodi.sourceforge.net/DTD/sodipodi-0.dtd" xmlns="http://www.w3.org/2000/svg" xmlns:svg="http://www.w3.org/2000/svg" width="351mm" height="277mm" viewBox="0 0 351 277" version="1.1" id="svg5" inkscape:version="1.1.2 (0a00cf5339, 2022-02-04)" sodipodi:docname="blank.svg">
  <sodipodi:namedview id="namedview7" pagecolor="#ffffff" bordercolor="#666666" borderopacity="1.0" inkscape:pageshadow="2" inkscape:pageopacity="0.0" inkscape:pagecheckerboard="0" inkscape:document-units="mm" showgrid="false" inkscape:zoom="0.64052329" inkscape:cx="397.33138" inkscape:cy="561.25984" inkscape:window-width="2086" inkscape:window-height="1376" inkscape:window-x="0" inkscape:window-y="0" inkscape:window-maximized="1" inkscape:current-layer="layer1"/>
  <defs id="defs2"/>
  <g inkscape:label="Layer 1" inkscape:groupmode="layer" id="layer1">
    <metadata text="createArgs=['--unit=mm', '--inside=1', '--length=80', '--width=100', '--depth=40', '--equal=0', '--tab=6', '--tabtype=0', '--tabsymmetry=0', '--dimpleheight=0', '--dimplelength=0', '--hairline=1', '--kerf=0', '--style=1', '--boxtype=1', '--div_l=1', '--div_w=1', '--keydiv=0', '--spacing=2', '--thickness=6']"/>
    <path id="piece_001" style="fill:none;stroke:#000000;stroke-width:0.0508" d="M 56 178.5 L 62 178.5 L 62 184.5 L 56 184.5 L 56 193 L 62 193 L 62 199 L 56 199 L 56 207.5 L 62 207.5 L 62 213.5 L 56 213.5 L 56 216 L 62.25 216 L 62.25 222 L 68.25 222 L 68.25 216 L 74.5 216 L 74.5 222 L 80.5 222 L 80.5 216 L 86.75 216 L 86.75 222 L 92.75 222 L 92.75 216 L 99 216 L 99 222 L 105 222 L 105 216 L 111.25 216 L 111.25 222 L 117.25 222 L 117.25 216 L 123.5 216 L 123.5 222 L 129.5 222 L 129.5 216 L 135.75 216 L 135.75 222 L 141.75 222 L 141.75 216 L 148 216 L 148 213.5 L 142 213.5 L 142 207.5 L 148 207.5 L 148 199 L 142 199 L 142 193 L 148 193 L 148 184.5 L 142 184.5 L 142 178.5 L 148 178.5 L 148 176 L 141.75 176 L 141.75 170 L 135.75 170 L 135.75 176 L 129.5 176 L 129.5 170 L 123.5 170 L 123.5 176 L 117.25 176 L 117.25 170 L 111.25 170 L 111.25 176 L 105 176 L 105 170 L 99 170 L 99 176 L 92.75 176 L 92.75 170 L 86.75 170 L 86.75 176 L 80.5 176 L 80.5 170 L 74.5 170 L 74.5 176 L 68.25 176 L 68.25 170 L 62.25 170 L 62.25 176 L 56 176 L 56 178.5 Z M 99 178.5 L 105 178.5 L 105 184.5 L 99 184.5 L 99 178.5 Z M 99 193 L 105 193 L 105 199 L 99 199 L 99 193 Z M 99 207.5 L 105 207.5 L 105 213.5 L 99 213.5 L 99 207.5 Z"/>
    <path id="xdivider_001" style="fill:none;stroke:#000000;stroke-width:0.0508" d="M 56 232.5 L 62 232.5 L 62 238.5 L 56 238.5 L 56 247 L 62 247 L 62 253 L 56 253 L 56 261.5 L 62 261.5 L 62 267.5 L 56 267.5 L 56 270 L 62.25 270 L 62.25 276 L 68.25 276 L 68.25 270 L 74.5 270 L 74.5 276 L 80.5 276 L 80.5 270 L 86.75 270 L 86.75 276 L 92.75 276 L 92.75 270 L 99 270 L 99 276 L 105 276 L 105 270 L 111.25 270 L 111.25 276 L 117.25 276 L 117.25 270 L 123.5 270 L 123.5 276 L 129.5 276 L 129.5 270 L 135.75 270 L 135.75 276 L 141.75 276 L 141.75 270 L 148 270 L 148 267.5 L 142 267.5 L 142 261.5 L 148 261.5 L 148 253 L 142 253 L 142 247 L 148 247 L 148 238.5 L 142 238.5 L 142 232.5 L 148 232.5 L 148 230 L 141.75 230 L 141.75 224 L 135.75 224 L 135.75 230 L 129.5 230 L 129.5 224 L 123.5 224 L 123.5 230 L 117.25 230 L 117.25 224 L 111.25 224 L 111.25 230 L 105 230 L 105 250 L 99 250 L 99 230 L 92.75 230 L 92.75 224 L 86.75 224 L 86.75 230 L 80.5 230 L 80.5 224 L 74.5 224 L 74.5 230 L 68.25 230 L 68.25 224 L 62.25 224 L 62.25 230 L 56 230 L 56 232.5 Z"/>
    <path id="piece_002" style="fill:none;stroke:#000000;stroke-width:0.0508" d="M 8 63.111 L 2 63.111 L 2 69.1111 L 8 69.1111 L 8 76.2222 L 2 76.2222 L 2 82.2222 L 8 82.2222 L 8 89.3333 L 2 89.3333 L 2 95.3333 L 8 95.3333 L 8 102.444 L 2 102.444 L 2 108.444 L 8 108.444 L 8 109 L 10.5 109 L 10.5 115 L 8 115 L 8 115.556 L 2 115.556 L 2 121.556 L 8 121.556 L 8 128.667 L 2 128.667 L 2 134.667 L 8 134.667 L 8 141.778 L 2 141.778 L 2 147.778 L 8 147.778 L 8 154.889 L 2 154.889 L 2 160.889 L 8 160.889 L 8 162 L 10.5 162 L 10.5 168 L 16.5 168 L 16.5 162 L 25 162 L 25 168 L 31 168 L 31 162 L 39.5 162 L 39.5 168 L 45.5 168 L 45.5 162 L 48 162 L 48 160.889 L 54 160.889 L 54 154.889 L 48 154.889 L 48 147.778 L 54 147.778 L 54 141.778 L 48 141.778 L 48 134.667 L 54 134.667 L 54 128.667 L 48 128.667 L 48 121.556 L 54 121.556 L 54 115.556 L 48 115.556 L 48 115 L 45.5 115 L 45.5 109 L 48 109 L 48 108.444 L 54 108.444 L 54 102.444 L 48 102.444 L 48 95.3333 L 54 95.3333 L 54 89.3333 L 48 89.3333 L 48 82.2222 L 54 82.2222 L 54 76.2222 L 48 76.2222 L 48 69.1111 L 54 69.1111 L 54 63.1111 L 48 63.1111 L 48 62 L 45.5 62 L 45.5 56 L 39.5 56 L 39.5 62 L 31 62 L 31 56 L 25 56 L 25 62 L 16.5 62 L 16.5 56 L 10.5 56 L 10.5 62 L 8 62 L 8 63.111 Z M 16.5 109 L 25 109 L 25 115 L 16.5 115 L 16.5 109 Z M 31 109 L 39.5 109 L 39.5 115 L 31 115 L 31 109 Z"/>
    <path id="ydivider_001" style="fill:none;stroke:#000000;stroke-width:0.0508" d="M 304 63.111 L 298 63.111 L 298 69.1111 L 304 69.1111 L 304 76.2222 L 298 76.2222 L 298 82.2222 L 304 82.2222 L 304 89.3333 L 298 89.3333 L 298 95.3333 L 304 95.3333 L 304 102.444 L 298 102.444 L 298 108.444 L 304 108.444 L 304 109 L 324 109 L 324 115 L 304 115 L 304 115.556 L 298 115.556 L 298 121.556 L 304 121.556 L 304 128.667 L 298 128.667 L 298 134.667 L 304 134.667 L 304 141.778 L 298 141.778 L 298 147.778 L 304 147.778 L 304 154.889 L 298 154.889 L 298 160.889 L 304 160.889 L 304 162 L 306.5 162 L 306.5 168 L 312.5 168 L 312.5 162 L 321 162 L 321 168 L 327 168 L 327 162 L 335.5 162 L 335.5 168 L 341.5 168 L 341.5 162 L 344 162 L 344 160.889 L 350 160.889 L 350 154.889 L 344 154.889 L 344 147.778 L 350 147.778 L 350 141.778 L 344 141.778 L 344 134.667 L 350 134.667 L 350 128.667 L 344 128.667 L 344 121.556 L 350 121.556 L 350 115.556 L 344 115.556 L 344 108.444 L 350 108.444 L 350 102.444 L 344 102.444 L 344 95.3333 L 350 95.3333 L 350 89.3333 L 344 89.3333 L 344 82.2222 L 350 82.2222 L 350 76.2222 L 344 76.2222 L 344 69.1111 L 350 69.1111 L 350 63.1111 L 344 63.1111 L 344 62 L 341.5 62 L 341.5 56 L 335.5 56 L 335.5 62 L 327 62 L 327 56 L 321 56 L 321 62 L 312.5 62 L 312.5 56 L 306.5 56 L 306.5 62 L 304 62 L 304 63.111 Z"/>
    <path id="piece_003" style="fill:none;stroke:#000000;stroke-width:0.0508" d="M 56 63.111 L 62 63.111 L 62 69.1111 L 56 69.1111 L 56 76.2222 L 62 76.2222 L 62 82.2222 L 56 82.2222 L 56 89.3333 L 62 89.3333 L 62 95.3333 L 56 95.3333 L 56 102.444 L 62 102.444 L 62 108.444 L 56 108.444 L 56 115.556 L 62 115.556 L 62 121.556 L 56 121.556 L 56 128.667 L 62 128.667 L 62 134.667 L 56 134.667 L 56 141.778 L 62 141.778 L 62 147.778 L 56 147.778 L 56 154.889 L 62 154.889 L 62 160.889 L 56 160.889 L 56 168 L 62.25 168 L 62.25 162 L 68.25 162 L 68.25 168 L 74.5 168 L 74.5 162 L 80.5 162 L 80.5 168 L 86.75 168 L 86.75 162 L 92.75 162 L 92.75 168 L 99 168 L 99 162 L 105 162 L 105 168 L 111.25 168 L 111.25 162 L 117.25 162 L 117.25 168 L 123.5 168 L 123.5 162 L 129.5 162 L 129.5 168 L 135.75 168 L 135.75 162 L 141.75 162 L 141.75 168 L 148 168 L 148 160.889 L 142 160.889 L 142 154.889 L 148 154.889 L 148 147.778 L 142 147.778 L 142 141.778 L 148 141.778 L 148 134.667 L 142 134.667 L 142 128.667 L 148 128.667 L 148 121.556 L 142 121.556 L 142 115.556 L 148 115.556 L 148 108.444 L 142 108.444 L 142 102.444 L 148 102.444 L 148 95.3333 L 142 95.3333 L 142 89.3333 L 148 89.3333 L 148 82.2222 L 142 82.2222 L 142 76.2222 L 148 76.2222 L 148 69.1111 L 142 69.1111 L 142 63.1111 L 148 63.1111 L 148 56 L 141.75 56 L 141.75 62 L 135.75 62 L 135.75 56 L 129.5 56 L 129.5 62 L 123.5 62 L 123.5 56 L 117.25 56 L 117.25 62 L 111.25 62 L 111.25 56 L 105 56 L 105 62 L 99 62 L 99 56 L 92.75 56 L 92.75 62 L 86.75 62 L 86.75 56 L 80.5 56 L 80.5 62 L 74.5 62 L 74.5 56 L 68.25 56 L 68.25 62 L 62.25 62 L 62.25 56 L 56 56 L 56 63.111 Z M 111.25 109 L 117.25 109 L 117.25 115 L 111.25 115 L 111.25 109 Z M 123.5 109 L 129.5 109 L 129.5 115 L 123.5 115 L 123.5 109 Z M 135.75 109 L 141.75 109 L 141.75 115 L 135.75 115 L 135.75 109 Z M 62.25 109 L 68.25 109 L 68.25 115 L 62.25 115 L 62.25 109 Z M 74.5 109 L 80.5 109 L 80.5 115 L 74.5 115 L 74.5 109 Z M 86.75 109 L 92.75 109 L 92.75 115 L 86.75 115 L 86.75 109 Z M 99 102.444 L 105 102.444 L 105 108.444 L 99 108.444 L 99 102.444 Z M 99 109 L 105 109 L 105 115 L 99 115 L 99 109 Z M 99 115.556 L 105 115.556 L 105 121.556 L 99 121.556 L 99 115.556 Z M 99 128.667 L 105 128.667 L 105 134.667 L 99 134.667 L 99 128.667 Z M 99 141.778 L 105 141.778 L 105 147.778 L 99 147.778 L 99 141.778 Z M 99 154.889 L 105 154.889 L 105 160.889 L 99 160.889 L 99 154.889 Z M 99 63.1111 L 105 63.1111 L 105 69.1111 L 99 69.1111 L 99 63.1111 Z M 99 76.2222 L 105 76.2222 L 105 82.2222 L 99 82.2222 L 99 76.2222 Z M 99 89.3333 L 105 89.3333 L 105 95.3333 L 99 95.3333 L 99 89.3333 Z"/>
    <path id="piece_004" style="fill:none;stroke:#000000;stroke-width:0.0508" d="M 156 63.111 L 150 63.111 L 150 69.1111 L 156 69.1111 L 156 76.2222 L 150 76.2222 L 150 82.2222 L 156 82.2222 L 156 89.3333 L 150 89.3333 L 150 95.3333 L 156 95.3333 L 156 102.444 L 150 102.444 L 150 108.444 L 156 108.444 L 156 109 L 158.5 109 L 158.5 115 L 156 115 L 156 115.556 L 150 115.556 L 150 121.556 L 156 121.556 L 156 128.667 L 150 128.667 L 150 134.667 L 156 134.667 L 156 141.778 L 150 141.778 L 150 147.778 L 156 147.778 L 156 154.889 L 150 154.889 L 150 160.889 L 156 160.889 L 156 162 L 158.5 162 L 158.5 168 L 164.5 168 L 164.5 162 L 173 162 L 173 168 L 179 168 L 179 162 L 187.5 162 L 187.5 168 L 193.5 168 L 193.5 162 L 196 162 L 196 160.889 L 202 160.889 L 202 154.889 L 196 154.889 L 196 147.778 L 202 147.778 L 202 141.778 L 196 141.778 L 196 134.667 L 202 134.667 L 202 128.667 L 196 128.667 L 196 121.556 L 202 121.556 L 202 115.556 L 196 115.556 L 196 115 L 193.5 115 L 193.5 109 L 196 109 L 196 108.444 L 202 108.444 L 202 102.444 L 196 102.444 L 196 95.3333 L 202 95.3333 L 202 89.3333 L 196 89.3333 L 196 82.2222 L 202 82.2222 L 202 76.2222 L 196 76.2222 L 196 69.1111 L 202 69.1111 L 202 63.1111 L 196 63.1111 L 196 62 L 193.5 62 L 193.5 56 L 187.5 56 L 187.5 62 L 179 62 L 179 56 L 173 56 L 173 62 L 164.5 62 L 164.5 56 L 158.5 56 L 158.5 62 L 156 62 L 156 63.111 Z M 164.5 109 L 173 109 L 173 115 L 164.5 115 L 164.5 109 Z M 179 109 L 187.5 109 L 187.5 115 L 179 115 L 179 109 Z"/>
    <path id="piece_005" style="fill:none;stroke:#000000;stroke-width:0.0508" d="M 204 63.111 L 210 63.111 L 210 69.1111 L 204 69.1111 L 204 76.2222 L 210 76.2222 L 210 82.2222 L 204 82.2222 L 204 89.3333 L 210 89.3333 L 210 95.3333 L 204 95.3333 L 204 102.444 L 210 102.444 L 210 108.444 L 204 108.444 L 204 115.556 L 210 115.556 L 210 121.556 L 204 121.556 L 204 128.667 L 210 128.667 L 210 134.667 L 204 134.667 L 204 141.778 L 210 141.778 L 210 147.778 L 204 147.778 L 204 154.889 L 210 154.889 L 210 160.889 L 204 160.889 L 204 168 L 210.25 168 L 210.25 162 L 216.25 162 L 216.25 168 L 222.5 168 L 222.5 162 L 228.5 162 L 228.5 168 L 234.75 168 L 234.75 162 L 240.75 162 L 240.75 168 L 247 168 L 247 162 L 253 162 L 253 168 L 259.25 168 L 259.25 162 L 265.25 162 L 265.25 168 L 271.5 168 L 271.5 162 L 277.5 162 L 277.5 168 L 283.75 168 L 283.75 162 L 289.75 162 L 289.75 168 L 296 168 L 296 160.889 L 290 160.889 L 290 154.889 L 296 154.889 L 296 147.778 L 290 147.778 L 290 141.778 L 296 141.778 L 296 134.667 L 290 134.667 L 290 128.667 L 296 128.667 L 296 121.556 L 290 121.556 L 290 115.556 L 296 115.556 L 296 108.444 L 290 108.444 L 290 102.444 L 296 102.444 L 296 95.3333 L 290 95.3333 L 290 89.3333 L 296 89.3333 L 296 82.2222 L 290 82.2222 L 290 76.2222 L 296 76.2222 L 296 69.1111 L 290 69.1111 L 290 63.1111 L 296 63.1111 L 296 56 L 289.75 56 L 289.75 62 L 283.75 62 L 283.75 56 L 277.5 56 L 277.5 62 L 271.5 62 L 271.5 56 L 265.25 56 L 265.25 62 L 259.25 62 L 259.25 56 L 253 56 L 253 62 L 247 62 L 247 56 L 240.75 56 L 240.75 62 L 234.75 62 L 234.75 56 L 228.5 56 L 228.5 62 L 222.5 62 L 222.5 56 L 216.25 56 L 216.25 62 L 210.25 62 L 210.25 56 L 204 56 L 204 63.111 Z M 210.25 109 L 216.25 109 L 216.25 115 L 210.25 115 L 210.25 109 Z M 222.5 109 L 228.5 109 L 228.5 115 L 222.5 115 L 222.5 109 Z M 234.75 109 L 240.75 109 L 240.75 115 L 234.75 115 L 234.75 109 Z M 247 102.444 L 253 102.444 L 253 108.444 L 247 108.444 L 247 102.444 Z M 247 109 L 253 109 L 253 115 L 247 115 L 247 109 Z M 247 115.556 L 253 115.556 L 253 121.556 L 247 121.556 L 247 115.556 Z M 247 128.667 L 253 128.667 L 253 134.667 L 247 134.667 L 247 128.667 Z M 247 141.778 L 253 141.778 L 253 147.778 L 247 147.778 L 247 141.778 Z M 247 154.889 L 253 154.889 L 253 160.889 L 247 160.889 L 247 154.889 Z M 247 63.1111 L 253 63.1111 L 253 69.1111 L 247 69.1111 L 247 63.1111 Z M 247 76.2222 L 253 76.2222 L 253 82.2222 L 247 82.2222 L 247 76.2222 Z M 247 89.3333 L 253 89.3333 L 253 95.3333 L 247 95.3333 L 247 89.3333 Z M 259.25 109 L 265.25 109 L 265.25 115 L 259.25 115 L 259.25 109 Z M 271.5 109 L 277.5 109 L 277.5 115 L 271.5 115 L 271.5 109 Z M 283.75 109 L 289.75 109 L 289.75 115 L 283.75 115 L 283.75 109 Z"/>
    <path id="piece_006" style="fill:none;stroke:#000000;stroke-width:0.0508" d="M 56 10.5 L 62 10.5 L 62 16.5 L 56 16.5 L 56 25 L 62 25 L 62 31 L 56 31 L 56 39.5 L 62 39.5 L 62 45.5 L 56 45.5 L 56 48 L 62.25 48 L 62.25 54 L 68.25 54 L 68.25 48 L 74.5 48 L 74.5 54 L 80.5 54 L 80.5 48 L 86.75 48 L 86.75 54 L 92.75 54 L 92.75 48 L 99 48 L 99 54 L 105 54 L 105 48 L 111.25 48 L 111.25 54 L 117.25 54 L 117.25 48 L 123.5 48 L 123.5 54 L 129.5 54 L 129.5 48 L 135.75 48 L 135.75 54 L 141.75 54 L 141.75 48 L 148 48 L 148 45.5 L 142 45.5 L 142 39.5 L 148 39.5 L 148 31 L 142 31 L 142 25 L 148 25 L 148 16.5 L 142 16.5 L 142 10.5 L 148 10.5 L 148 8 L 141.75 8 L 141.75 2 L 135.75 2 L 135.75 8 L 129.5 8 L 129.5 2 L 123.5 2 L 123.5 8 L 117.25 8 L 117.25 2 L 111.25 2 L 111.25 8 L 105 8 L 105 2 L 99 2 L 99 8 L 92.75 8 L 92.75 2 L 86.75 2 L 86.75 8 L 80.5 8 L 80.5 2 L 74.5 2 L 74.5 8 L 68.25 8 L 68.25 2 L 62.25 2 L 62.25 8 L 56 8 L 56 10.5 Z M 99 10.5 L 105 10.5 L 105 16.5 L 99 16.5 L 99 10.5 Z M 99 25 L 105 25 L 105 31 L 99 31 L 99 25 Z M 99 39.5 L 105 39.5 L 105 45.5 L 99 45.5 L 99 39.5 Z"/>
  </g>
</svg>