<!-- Created with Inkscape (http://www.inkscape.org/) -->
<svg xmlns:inkscape="http://www.inkscape.org/namespaces/inkscape" xmlns:sodipodi="http://sodipodi.sourceforge.net/DTD/sodipodi-0.dtd" xmlns="http://www.w3.org/2000/svg" xmlns:svg="http://www.w3.org/2000/svg" width="8129in" height="6401.8in" viewBox="0 0 8129 6401.8" version="1.1" id="svg5" inkscape:version="1.1.2 (0a00cf5339, 2022-02-04)" sodipodi:docname="blank.svg">
  <sodipodi:namedview id="namedview7" pagecolor="#ffffff" bordercolor="#666666" borderopacity="1.0" inkscape:pageshadow="2" inkscape:pageopacity="0.0" inkscape:pagecheckerboard="0" inkscape:document-units="mm" showgrid="false" inkscape:zoom="0.64052329" inkscape:cx="397.33138" inkscape:cy="561.25984" inkscape:window-width="2086" inkscape:window-height="1376" inkscape:window-x="0" inkscape:window-y="0" inkscape:window-maximized="1" inkscape:current-layer="layer1"/>
  <defs id="defs2"/>
  <g inkscape:label="Layer 1" inkscape:groupmode="layer" id="layer1">
    <metadata text="createArgs=['--inside=1', '--length=80', '--width=100', '--depth=40', '--equal=0', '--tab=6', '--tabtype=0', '--tabsymmetry=0', '--dimpleheight=0', '--dimplelength=0', '--hairline=1', '--thickness=3', '--kerf=0', '--style=1', '--boxtype=1', '--div-l=1', '--div-w=1', '--keydiv=0', '--spacing=2', '--unit=in']"/>
    <g id="piece_001">
      <path id="side_001" style="fill:none;stroke:#000000;stroke-width:0.0508" d="m 1270 4089.4 l 181.43 0 l 0 -76.2 l 152.4 0 l 0 76.2 l 181.43 0 l 0 -76.2 l 152.4 0 l 0 76.2 l 181.43 0 l 0 -76.2 l 152.4 0 l 0 76.2 l 181.42 0 l 0 -76.2 l 152.4 0 l 0 76.2 l 181.43 0 l 0 -76.2 l 152.4 0 l 0 76.2 l 181.43 0 l 0 -76.2 l 152.4 0 l 0 76.2 l 181.43 0"/>
      <path id="side_002" style="fill:none;stroke:#000000;stroke-width:0.0508" d="m 3454.4 4089.4 l 0 101.6 l -76.2 0 l 0 152.4 l 76.2 0 l 0 177.8 l -76.2 0 l 0 152.4 l 76.2 0 l 0 177.8 l -76.2 0 l 0 152.4 l 76.2 0 l 0 101.6"/>
      <path id="hole_001" style="fill:none;stroke:#000000;stroke-width:0.0508" d="m 2400.3 4191 l 0 152.4 l -76.2 0 l 0 -152.4 l 76.2 0 z"/>
      <path id="hole_002" style="fill:none;stroke:#000000;stroke-width:0.0508" d="m 2400.3 4521.2 l 0 152.4 l -76.2 0 l 0 -152.4 l 76.2 0 z"/>
      <path id="hole_003" style="fill:none;stroke:#000000;stroke-width:0.0508" d="m 2400.3 4851.4 l 0 152.4 l -76.2 0 l 0 -152.4 l 76.2 0 z"/>
      <path id="side_003" style="fill:none;stroke:#000000;stroke-width:0.0508" d="m 3454.4 5105.4 l -181.43 0 l 0 76.2 l -152.4 0 l 0 -76.2 l -181.43 0 l 0 76.2 l -152.4 0 l 0 -76.2 l -181.43 0 l 0 76.2 l -152.4 0 l 0 -76.2 l -181.42 0 l 0 76.2 l -152.4 0 l 0 -76.2 l -181.43 0 l 0 76.2 l -152.4 0 l 0 -76.2 l -181.43 0 l 0 76.2 l -152.4 0 l 0 -76.2 l -181.43 0"/>
      <path id="side_004" style="fill:none;stroke:#000000;stroke-width:0.0508" d="m 1270 5105.4 l 0 -101.6 l 76.2 0 l 0 -152.4 l -76.2 0 l 0 -177.8 l 76.2 0 l 0 -152.4 l -76.2 0 l 0 -177.8 l 76.2 0 l 0 -152.4 l -76.2 0 l 0 -101.6"/>
    </g>
    <g id="xdivider_001">
      <path id="side_005" style="fill:none;stroke:#000000;stroke-width:0.0508" d="m 1270 5308.6 l 181.43 0 l 0 -76.2 l 152.4 0 l 0 76.2 l 181.43 0 l 0 -76.2 l 152.4 0 l 0 76.2 l 181.43 0 l 0 -76.2 l 152.4 0 l 0 76.2 l 181.42 0 l 0 -76.2 l 152.4 0 l 0 76.2 l 181.43 0 l 0 -76.2 l 152.4 0 l 0 76.2 l 181.43 0 l 0 -76.2 l 152.4 0 l 0 76.2 l 181.43 0"/>
      <path id="side_006" style="fill:none;stroke:#000000;stroke-width:0.0508" d="m 3454.4 5308.6 l 0 101.6 l -76.2 0 l 0 152.4 l 76.2 0 l 0 177.8 l -76.2 0 l 0 152.4 l 76.2 0 l 0 177.8 l -76.2 0 l 0 152.4 l 76.2 0 l 0 101.6"/>
      <path id="slot_001" style="fill:none;stroke:#000000;stroke-width:0.0508" d="m 2400.3 5232.4 l 0 584.2 l -76.2 0 l 0 -584.2 l 76.2 0 z"/>
      <path id="side_007" style="fill:none;stroke:#000000;stroke-width:0.0508" d="m 3454.4 6324.6 l -181.43 0 l 0 76.2 l -152.4 0 l 0 -76.2 l -181.43 0 l 0 76.2 l -152.4 0 l 0 -76.2 l -181.43 0 l 0 76.2 l -152.4 0 l 0 -76.2 l -181.42 0 l 0 76.2 l -152.4 0 l 0 -76.2 l -181.43 0 l 0 76.2 l -152.4 0 l 0 -76.2 l -181.43 0 l 0 76.2 l -152.4 0 l 0 -76.2 l -181.43 0"/>
      <path id="side_008" style="fill:none;stroke:#000000;stroke-width:0.0508" d="m 1270 6324.6 l 0 -101.6 l 76.2 0 l 0 -152.4 l -76.2 0 l 0 -177.8 l 76.2 0 l 0 -152.4 l -76.2 0 l 0 -177.8 l 76.2 0 l 0 -152.4 l -76.2 0 l 0 -101.6"/>
    </g>
    <g id="piece_002">
      <path id="side_009" style="fill:none;stroke:#000000;stroke-width:0.0508" d="m 127 1346.2 l 101.6 0 l 0 -76.2 l 152.4 0 l 0 76.2 l 177.8 0 l 0 -76.2 l 152.4 0 l 0 76.2 l 177.8 0 l 0 -76.2 l 152.4 0 l 0 76.2 l 101.6 0"/>
      <path id="hole_004" style="fill:none;stroke:#000000;stroke-width:0.0508" d="m 127 2578.1 l 101.6 0 l 0 76.2 l -101.6 0 l 0 -76.2 z"/>
      <path id="hole_005" style="fill:none;stroke:#000000;stroke-width:0.0508" d="m 381 2578.1 l 177.8 0 l 0 76.2 l -177.8 0 l 0 -76.2 z"/>
      <path id="hole_006" style="fill:none;stroke:#000000;stroke-width:0.0508" d="m 711.2 2578.1 l 177.8 0 l 0 76.2 l -177.8 0 l 0 -76.2 z"/>
      <path id="hole_007" style="fill:none;stroke:#000000;stroke-width:0.0508" d="m 1041.4 2578.1 l 101.6 0 l 0 76.2 l -101.6 0 l 0 -76.2 z"/>
      <path id="side_010" style="fill:none;stroke:#000000;stroke-width:0.0508" d="m 1143 1346.2 l 0 87.49 l 76.2 0 l 0 152.4 l -76.2 0 l 0 163.69 l 76.2 0 l 0 152.4 l -76.2 0 l 0 163.69 l 76.2 0 l 0 152.4 l -76.2 0 l 0 163.69 l 76.2 0 l 0 152.4 l -76.2 0 l 0 163.68 l 76.2 0 l 0 152.4 l -76.2 0 l 0 163.69 l 76.2 0 l 0 152.4 l -76.2 0 l 0 163.69 l 76.2 0 l 0 152.4 l -76.2 0 l 0 163.69 l 76.2 0 l 0 152.4 l -76.2 0 l 0 87.49"/>
      <path id="side_011" style="fill:none;stroke:#000000;stroke-width:0.0508" d="m 1143 3886.2 l -101.6 0 l 0 76.2 l -152.4 0 l 0 -76.2 l -177.8 0 l 0 76.2 l -152.4 0 l 0 -76.2 l -177.8 0 l 0 76.2 l -152.4 0 l 0 -76.2 l -101.6 0"/>
      <path id="side_012" style="fill:none;stroke:#000000;stroke-width:0.0508" d="m 127 3886.2 l 0 -87.49 l -76.2 0 l 0 -152.4 l 76.2 0 l 0 -163.69 l -76.2 0 l 0 -152.4 l 76.2 0 l 0 -163.69 l -76.2 0 l 0 -152.4 l 76.2 0 l 0 -163.69 l -76.2 0 l 0 -152.4 l 76.2 0 l 0 -163.68 l -76.2 0 l 0 -152.4 l 76.2 0 l 0 -163.69 l -76.2 0 l 0 -152.4 l 76.2 0 l 0 -163.69 l -76.2 0 l 0 -152.4 l 76.2 0 l 0 -163.69 l -76.2 0 l 0 -152.4 l 76.2 0 l 0 -87.49"/>
    </g>
    <g id="ydivider_001">
      <path id="side_013" style="fill:none;stroke:#000000;stroke-width:0.0508" d="m 7035.8 1346.2 l 101.6 0 l 0 -76.2 l 152.4 0 l 0 76.2 l 177.8 0 l 0 -76.2 l 152.4 0 l 0 76.2 l 177.8 0 l 0 -76.2 l 152.4 0 l 0 76.2 l 101.6 0"/>
      <path id="slot_002" style="fill:none;stroke:#000000;stroke-width:0.0508" d="m 6959.6 2578.1 l 584.2 0 l 0 76.2 l -584.2 0 l 0 -76.2 z"/>
      <path id="side_014" style="fill:none;stroke:#000000;stroke-width:0.0508" d="m 8051.8 1346.2 l 0 87.49 l 76.2 0 l 0 152.4 l -76.2 0 l 0 163.69 l 76.2 0 l 0 152.4 l -76.2 0 l 0 163.69 l 76.2 0 l 0 152.4 l -76.2 0 l 0 163.69 l 76.2 0 l 0 152.4 l -76.2 0 l 0 163.68 l 76.2 0 l 0 152.4 l -76.2 0 l 0 163.69 l 76.2 0 l 0 152.4 l -76.2 0 l 0 163.69 l 76.2 0 l 0 152.4 l -76.2 0 l 0 163.69 l 76.2 0 l 0 152.4 l -76.2 0 l 0 87.49"/>
      <path id="side_015" style="fill:none;stroke:#000000;stroke-width:0.0508" d="m 8051.8 3886.2 l -101.6 0 l 0 76.2 l -152.4 0 l 0 -76.2 l -177.8 0 l 0 76.2 l -152.4 0 l 0 -76.2 l -177.8 0 l 0 76.2 l -152.4 0 l 0 -76.2 l -101.6 0"/>
      <path id="side_016" style="fill:none;stroke:#000000;stroke-width:0.0508" d="m 7035.8 3886.2 l 0 -87.49 l -76.2 0 l 0 -152.4 l 76.2 0 l 0 -163.69 l -76.2 0 l 0 -152.4 l 76.2 0 l 0 -163.69 l -76.2 0 l 0 -152.4 l 76.2 0 l 0 -163.69 l -76.2 0 l 0 -152.4 l 76.2 0 l 0 -163.68 l -76.2 0 l 0 -152.4 l 76.2 0 l 0 -163.69 l -76.2 0 l 0 -152.4 l 76.2 0 l 0 -163.69 l -76.2 0 l 0 -152.4 l 76.2 0 l 0 -163.69 l -76.2 0 l 0 -152.4 l 76.2 0 l 0 -87.49"/>
    </g>
    <g id="piece_003">
      <path id="side_017" style="fill:none;stroke:#000000;stroke-width:0.0508" d="m 1270 1270 l 181.43 0 l 0 76.2 l 152.4 0 l 0 -76.2 l 181.43 0 l 0 76.2 l 152.4 0 l 0 -76.2 l 181.43 0 l 0 76.2 l 152.4 0 l 0 -76.2 l 181.42 0 l 0 76.2 l 152.4 0 l 0 -76.2 l 181.43 0 l 0 76.2 l 152.4 0 l 0 -76.2 l 181.43 0 l 0 76.2 l 152.4 0 l 0 -76.2 l 181.43 0"/>
      <path id="hole_008" style="fill:none;stroke:#000000;stroke-width:0.0508" d="m 1451.43 2578.1 l 152.4 0 l 0 76.2 l -152.4 0 l 0 -76.2 z"/>
      <path id="hole_009" style="fill:none;stroke:#000000;stroke-width:0.0508" d="m 1785.26 2578.1 l 152.4 0 l 0 76.2 l -152.4 0 l 0 -76.2 z"/>
      <path id="hole_010" style="fill:none;stroke:#000000;stroke-width:0.0508" d="m 2119.09 2578.1 l 152.4 0 l 0 76.2 l -152.4 0 l 0 -76.2 z"/>
      <path id="hole_011" style="fill:none;stroke:#000000;stroke-width:0.0508" d="m 2452.91 2578.1 l 152.4 0 l 0 76.2 l -152.4 0 l 0 -76.2 z"/>
      <path id="hole_012" style="fill:none;stroke:#000000;stroke-width:0.0508" d="m 2786.74 2578.1 l 152.4 0 l 0 76.2 l -152.4 0 l 0 -76.2 z"/>
      <path id="hole_013" style="fill:none;stroke:#000000;stroke-width:0.0508" d="m 3120.57 2578.1 l 152.4 0 l 0 76.2 l -152.4 0 l 0 -76.2 z"/>
      <path id="side_018" style="fill:none;stroke:#000000;stroke-width:0.0508" d="m 3454.4 1270 l 0 163.69 l -76.2 0 l 0 152.4 l 76.2 0 l 0 163.69 l -76.2 0 l 0 152.4 l 76.2 0 l 0 163.69 l -76.2 0 l 0 152.4 l 76.2 0 l 0 163.69 l -76.2 0 l 0 152.4 l 76.2 0 l 0 163.68 l -76.2 0 l 0 152.4 l 76.2 0 l 0 163.69 l -76.2 0 l 0 152.4 l 76.2 0 l 0 163.69 l -76.2 0 l 0 152.4 l 76.2 0 l 0 163.69 l -76.2 0 l 0 152.4 l 76.2 0 l 0 163.69"/>
      <path id="hole_014" style="fill:none;stroke:#000000;stroke-width:0.0508" d="m 2400.3 1433.69 l 0 152.4 l -76.2 0 l 0 -152.4 l 76.2 0 z"/>
      <path id="hole_015" style="fill:none;stroke:#000000;stroke-width:0.0508" d="m 2400.3 1749.78 l 0 152.4 l -76.2 0 l 0 -152.4 l 76.2 0 z"/>
      <path id="hole_016" style="fill:none;stroke:#000000;stroke-width:0.0508" d="m 2400.3 2065.87 l 0 152.4 l -76.2 0 l 0 -152.4 l 76.2 0 z"/>
      <path id="hole_017" style="fill:none;stroke:#000000;stroke-width:0.0508" d="m 2400.3 2381.96 l 0 152.4 l -76.2 0 l 0 -152.4 l 76.2 0 z"/>
      <path id="hole_018" style="fill:none;stroke:#000000;stroke-width:0.0508" d="m 2400.3 2698.04 l 0 152.4 l -76.2 0 l 0 -152.4 l 76.2 0 z"/>
      <path id="hole_019" style="fill:none;stroke:#000000;stroke-width:0.0508" d="m 2400.3 3014.13 l 0 152.4 l -76.2 0 l 0 -152.4 l 76.2 0 z"/>
      <path id="hole_020" style="fill:none;stroke:#000000;stroke-width:0.0508" d="m 2400.3 3330.22 l 0 152.4 l -76.2 0 l 0 -152.4 l 76.2 0 z"/>
      <path id="hole_021" style="fill:none;stroke:#000000;stroke-width:0.0508" d="m 2400.3 3646.31 l 0 152.4 l -76.2 0 l 0 -152.4 l 76.2 0 z"/>
      <path id="side_019" style="fill:none;stroke:#000000;stroke-width:0.0508" d="m 3454.4 3962.4 l -181.43 0 l 0 -76.2 l -152.4 0 l 0 76.2 l -181.43 0 l 0 -76.2 l -152.4 0 l 0 76.2 l -181.43 0 l 0 -76.2 l -152.4 0 l 0 76.2 l -181.42 0 l 0 -76.2 l -152.4 0 l 0 76.2 l -181.43 0 l 0 -76.2 l -152.4 0 l 0 76.2 l -181.43 0 l 0 -76.2 l -152.4 0 l 0 76.2 l -181.43 0"/>
      <path id="side_020" style="fill:none;stroke:#000000;stroke-width:0.0508" d="m 1270 3962.4 l 0 -163.69 l 76.2 0 l 0 -152.4 l -76.2 0 l 0 -163.69 l 76.2 0 l 0 -152.4 l -76.2 0 l 0 -163.69 l 76.2 0 l 0 -152.4 l -76.2 0 l 0 -163.69 l 76.2 0 l 0 -152.4 l -76.2 0 l 0 -163.68 l 76.2 0 l 0 -152.4 l -76.2 0 l 0 -163.69 l 76.2 0 l 0 -152.4 l -76.2 0 l 0 -163.69 l 76.2 0 l 0 -152.4 l -76.2 0 l 0 -163.69 l 76.2 0 l 0 -152.4 l -76.2 0 l 0 -163.69"/>
    </g>
    <g id="piece_004">
      <path id="side_021" style="fill:none;stroke:#000000;stroke-width:0.0508" d="m 3581.4 1346.2 l 101.6 0 l 0 -76.2 l 152.4 0 l 0 76.2 l 177.8 0 l 0 -76.2 l 152.4 0 l 0 76.2 l 177.8 0 l 0 -76.2 l 152.4 0 l 0 76.2 l 101.6 0"/>
      <path id="hole_022" style="fill:none;stroke:#000000;stroke-width:0.0508" d="m 3581.4 2578.1 l 101.6 0 l 0 76.2 l -101.6 0 l 0 -76.2 z"/>
      <path id="hole_023" style="fill:none;stroke:#000000;stroke-width:0.0508" d="m 3835.4 2578.1 l 177.8 0 l 0 76.2 l -177.8 0 l 0 -76.2 z"/>
      <path id="hole_024" style="fill:none;stroke:#000000;stroke-width:0.0508" d="m 4165.6 2578.1 l 177.8 0 l 0 76.2 l -177.8 0 l 0 -76.2 z"/>
      <path id="hole_025" style="fill:none;stroke:#000000;stroke-width:0.0508" d="m 4495.8 2578.1 l 101.6 0 l 0 76.2 l -101.6 0 l 0 -76.2 z"/>
      <path id="side_022" style="fill:none;stroke:#000000;stroke-width:0.0508" d="m 4597.4 1346.2 l 0 87.49 l 76.2 0 l 0 152.4 l -76.2 0 l 0 163.69 l 76.2 0 l 0 152.4 l -76.2 0 l 0 163.69 l 76.2 0 l 0 152.4 l -76.2 0 l 0 163.69 l 76.2 0 l 0 152.4 l -76.2 0 l 0 163.68 l 76.2 0 l 0 152.4 l -76.2 0 l 0 163.69 l 76.2 0 l 0 152.4 l -76.2 0 l 0 163.69 l 76.2 0 l 0 152.4 l -76.2 0 l 0 163.69 l 76.2 0 l 0 152.4 l -76.2 0 l 0 87.49"/>
      <path id="side_023" style="fill:none;stroke:#000000;stroke-width:0.0508" d="m 4597.4 3886.2 l -101.6 0 l 0 76.2 l -152.4 0 l 0 -76.2 l -177.8 0 l 0 76.2 l -152.4 0 l 0 -76.2 l -177.8 0 l 0 76.2 l -152.4 0 l 0 -76.2 l -101.6 0"/>
      <path id="side_024" style="fill:none;stroke:#000000;stroke-width:0.0508" d="m 3581.4 3886.2 l 0 -87.49 l -76.2 0 l 0 -152.4 l 76.2 0 l 0 -163.69 l -76.2 0 l 0 -152.4 l 76.2 0 l 0 -163.69 l -76.2 0 l 0 -152.4 l 76.2 0 l 0 -163.69 l -76.2 0 l 0 -152.4 l 76.2 0 l 0 -163.68 l -76.2 0 l 0 -152.4 l 76.2 0 l 0 -163.69 l -76.2 0 l 0 -152.4 l 76.2 0 l 0 -163.69 l -76.2 0 l 0 -152.4 l 76.2 0 l 0 -163.69 l -76.2 0 l 0 -152.4 l 76.2 0 l 0 -87.49"/>
    </g>
    <g id="piece_005">
      <path id="side_025" style="fill:none;stroke:#000000;stroke-width:0.0508" d="m 4724.4 1270 l 181.43 0 l 0 76.2 l 152.4 0 l 0 -76.2 l 181.43 0 l 0 76.2 l 152.4 0 l 0 -76.2 l 181.43 0 l 0 76.2 l 152.4 0 l 0 -76.2 l 181.42 0 l 0 76.2 l 152.4 0 l 0 -76.2 l 181.43 0 l 0 76.2 l 152.4 0 l 0 -76.2 l 181.43 0 l 0 76.2 l 152.4 0 l 0 -76.2 l 181.43 0"/>
      <path id="hole_026" style="fill:none;stroke:#000000;stroke-width:0.0508" d="m 4905.83 2578.1 l 152.4 0 l 0 76.2 l -152.4 0 l 0 -76.2 z"/>
      <path id="hole_027" style="fill:none;stroke:#000000;stroke-width:0.0508" d="m 5239.66 2578.1 l 152.4 0 l 0 76.2 l -152.4 0 l 0 -76.2 z"/>
      <path id="hole_028" style="fill:none;stroke:#000000;stroke-width:0.0508" d="m 5573.49 2578.1 l 152.4 0 l 0 76.2 l -152.4 0 l 0 -76.2 z"/>
      <path id="hole_029" style="fill:none;stroke:#000000;stroke-width:0.0508" d="m 5907.31 2578.1 l 152.4 0 l 0 76.2 l -152.4 0 l 0 -76.2 z"/>
      <path id="hole_030" style="fill:none;stroke:#000000;stroke-width:0.0508" d="m 6241.14 2578.1 l 152.4 0 l 0 76.2 l -152.4 0 l 0 -76.2 z"/>
      <path id="hole_031" style="fill:none;stroke:#000000;stroke-width:0.0508" d="m 6574.97 2578.1 l 152.4 0 l 0 76.2 l -152.4 0 l 0 -76.2 z"/>
      <path id="side_026" style="fill:none;stroke:#000000;stroke-width:0.0508" d="m 6908.8 1270 l 0 163.69 l -76.2 0 l 0 152.4 l 76.2 0 l 0 163.69 l -76.2 0 l 0 152.4 l 76.2 0 l 0 163.69 l -76.2 0 l 0 152.4 l 76.2 0 l 0 163.69 l -76.2 0 l 0 152.4 l 76.2 0 l 0 163.68 l -76.2 0 l 0 152.4 l 76.2 0 l 0 163.69 l -76.2 0 l 0 152.4 l 76.2 0 l 0 163.69 l -76.2 0 l 0 152.4 l 76.2 0 l 0 163.69 l -76.2 0 l 0 152.4 l 76.2 0 l 0 163.69"/>
      <path id="hole_032" style="fill:none;stroke:#000000;stroke-width:0.0508" d="m 5854.7 1433.69 l 0 152.4 l -76.2 0 l 0 -152.4 l 76.2 0 z"/>
      <path id="hole_033" style="fill:none;stroke:#000000;stroke-width:0.0508" d="m 5854.7 1749.78 l 0 152.4 l -76.2 0 l 0 -152.4 l 76.2 0 z"/>
      <path id="hole_034" style="fill:none;stroke:#000000;stroke-width:0.0508" d="m 5854.7 2065.87 l 0 152.4 l -76.2 0 l 0 -152.4 l 76.2 0 z"/>
      <path id="hole_035" style="fill:none;stroke:#000000;stroke-width:0.0508" d="m 5854.7 2381.96 l 0 152.4 l -76.2 0 l 0 -152.4 l 76.2 0 z"/>
      <path id="hole_036" style="fill:none;stroke:#000000;stroke-width:0.0508" d="m 5854.7 2698.04 l 0 152.4 l -76.2 0 l 0 -152.4 l 76.2 0 z"/>
      <path id="hole_037" style="fill:none;stroke:#000000;stroke-width:0.0508" d="m 5854.7 3014.13 l 0 152.4 l -76.2 0 l 0 -152.4 l 76.2 0 z"/>
      <path id="hole_038" style="fill:none;stroke:#000000;stroke-width:0.0508" d="m 5854.7 3330.22 l 0 152.4 l -76.2 0 l 0 -152.4 l 76.2 0 z"/>
      <path id="hole_039" style="fill:none;stroke:#000000;stroke-width:0.0508" d="m 5854.7 3646.31 l 0 152.4 l -76.2 0 l 0 -152.4 l 76.2 0 z"/>
      <path id="side_027" style="fill:none;stroke:#000000;stroke-width:0.0508" d="m 6908.8 3962.4 l -181.43 0 l 0 -76.2 l -152.4 0 l 0 76.2 l -181.43 0 l 0 -76.2 l -152.4 0 l 0 76.2 l -181.43 0 l 0 -76.2 l -152.4 0 l 0 76.2 l -181.42 0 l 0 -76.2 l -152.4 0 l 0 76.2 l -181.43 0 l 0 -76.2 l -152.4 0 l 0 76.2 l -181.43 0 l 0 -76.2 l -152.4 0 l 0 76.2 l -181.43 0"/>
      <path id="side_028" style="fill:none;stroke:#000000;stroke-width:0.0508" d="m 4724.4 3962.4 l 0 -163.69 l 76.2 0 l 0 -152.4 l -76.2 0 l 0 -163.69 l 76.2 0 l 0 -152.4 l -76.2 0 l 0 -163.69 l 76.2 0 l 0 -152.4 l -76.2 0 l 0 -163.69 l 76.2 0 l 0 -152.4 l -76.2 0 l 0 -163.68 l 76.2 0 l 0 -152.4 l -76.2 0 l 0 -163.69 l 76.2 0 l 0 -152.4 l -76.2 0 l 0 -163.69 l 76.2 0 l 0 -152.4 l -76.2 0 l 0 -163.69 l 76.2 0 l 0 -152.4 l -76.2 0 l 0 -163.69"/>
    </g>
    <g id="piece_006">
      <path id="side_029" style="fill:none;stroke:#000000;stroke-width:0.0508" d="m 1270 127 l 181.43 0 l 0 -76.2 l 152.4 0 l 0 76.2 l 181.43 0 l 0 -76.2 l 152.4 0 l 0 76.2 l 181.43 0 l 0 -76.2 l 152.4 0 l 0 76.2 l 181.42 0 l 0 -76.2 l 152.4 0 l 0 76.2 l 181.43 0 l 0 -76.2 l 152.4 0 l 0 76.2 l 181.43 0 l 0 -76.2 l 152.4 0 l 0 76.2 l 181.43 0"/>
      <path id="side_030" style="fill:none;stroke:#000000;stroke-width:0.0508" d="m 3454.4 127 l 0 101.6 l -76.2 0 l 0 152.4 l 76.2 0 l 0 177.8 l -76.2 0 l 0 152.4 l 76.2 0 l 0 177.8 l -76.2 0 l 0 152.4 l 76.2 0 l 0 101.6"/>
      <path id="hole_040" style="fill:none;stroke:#000000;stroke-width:0.0508" d="m 2400.3 228.6 l 0 152.4 l -76.2 0 l 0 -152.4 l 76.2 0 z"/>
      <path id="hole_041" style="fill:none;stroke:#000000;stroke-width:0.0508" d="m 2400.3 558.8 l 0 152.4 l -76.2 0 l 0 -152.4 l 76.2 0 z"/>
      <path id="hole_042" style="fill:none;stroke:#000000;stroke-width:0.0508" d="m 2400.3 889 l 0 152.4 l -76.2 0 l 0 -152.4 l 76.2 0 z"/>
      <path id="side_031" style="fill:none;stroke:#000000;stroke-width:0.0508" d="m 3454.4 1143 l -181.43 0 l 0 76.2 l -152.4 0 l 0 -76.2 l -181.43 0 l 0 76.2 l -152.4 0 l 0 -76.2 l -181.43 0 l 0 76.2 l -152.4 0 l 0 -76.2 l -181.42 0 l 0 76.2 l -152.4 0 l 0 -76.2 l -181.43 0 l 0 76.2 l -152.4 0 l 0 -76.2 l -181.43 0 l 0 76.2 l -152.4 0 l 0 -76.2 l -181.43 0"/>
      <path id="side_032" style="fill:none;stroke:#000000;stroke-width:0.0508" d="m 1270 1143 l 0 -101.6 l 76.2 0 l 0 -152.4 l -76.2 0 l 0 -177.8 l 76.2 0 l 0 -152.4 l -76.2 0 l 0 -177.8 l 76.2 0 l 0 -152.4 l -76.2 0 l 0 -101.6"/>
    </g>
  </g>
</svg>