<!-- Created with Inkscape (http://www.inkscape.org/) -->
<svg xmlns:inkscape="http://www.inkscape.org/namespaces/inkscape" xmlns:sodipodi="http://sodipodi.sourceforge.net/DTD/sodipodi-0.dtd" xmlns="http://www.w3.org/2000/svg" xmlns:svg="http://www.w3.org/2000/svg" width="210mm" height="297mm" viewBox="0 0 210 297" version="1.1" id="svg5" inkscape:version="1.1.2 (0a00cf5339, 2022-02-04)" sodipodi:docname="blank.svg">
  <sodipodi:namedview id="namedview7" pagecolor="#ffffff" bordercolor="#666666" borderopacity="1.0" inkscape:pageshadow="2" inkscape:pageopacity="0.0" inkscape:pagecheckerboard="0" inkscape:document-units="mm" showgrid="false" inkscape:zoom="0.64052329" inkscape:cx="397.33138" inkscape:cy="561.25984" inkscape:window-width="2086" inkscape:window-height="1376" inkscape:window-x="0" inkscape:window-y="0" inkscape:window-maximized="1" inkscape:current-layer="layer1"/>
  <defs id="defs2"/>
  <g inkscape:label="Layer 1" inkscape:groupmode="layer" id="layer1">
    <g id="piece_001">
      <path id="side_001" style="fill:none;stroke:#000000;stroke-width:1" d="m 1270 4089.4 l 181.43 0 l 0 -76.2 l 152.4 0 l 0 76.2 l 181.43 0 l 0 -76.2 l 152.4 0 l 0 76.2 l 181.43 0 l 0 -76.2 l 152.4 0 l 0 76.2 l 181.42 0 l 0 -76.2 l 152.4 0 l 0 76.2 l 181.43 0 l 0 -76.2 l 152.4 0 l 0 76.2 l 181.43 0 l 0 -76.2 l 152.4 0 l 0 76.2 l 181.43 0"/>
      <path id="side_002" style="fill:none;stroke:#000000;stroke-width:1" d="m 2324.1 4191 l 0 152.4 l 76.2 0 l 0 -152.4 l -76.2 0"/>
      <path id="side_003" style="fill:none;stroke:#000000;stroke-width:1" d="m 2324.1 4521.2 l 0 152.4 l 76.2 0 l 0 -152.4 l -76.2 0"/>
      <path id="side_004" style="fill:none;stroke:#000000;stroke-width:1" d="m 2324.1 4851.4 l 0 152.4 l 76.2 0 l 0 -152.4 l -76.2 0"/>
      <path id="side_005" style="fill:none;stroke:#000000;stroke-width:1" d="m 3454.4 4089.4 l 0 101.6 l -76.2 0 l 0 152.4 l 76.2 0 l 0 177.8 l -76.2 0 l 0 152.4 l 76.2 0 l 0 177.8 l -76.2 0 l 0 152.4 l 76.2 0 l 0 101.6"/>
      <path id="side_006" style="fill:none;stroke:#000000;stroke-width:1" d="m 3454.4 5105.4 l -181.43 0 l 0 76.2 l -152.4 0 l 0 -76.2 l -181.43 0 l 0 76.2 l -152.4 0 l 0 -76.2 l -181.43 0 l 0 76.2 l -152.4 0 l 0 -76.2 l -181.42 0 l 0 76.2 l -152.4 0 l 0 -76.2 l -181.43 0 l 0 76.2 l -152.4 0 l 0 -76.2 l -181.43 0 l 0 76.2 l -152.4 0 l 0 -76.2 l -181.43 0"/>
      <path id="side_007" style="fill:none;stroke:#000000;stroke-width:1" d="m 1270 5105.4 l 0 -101.6 l 76.2 0 l 0 -152.4 l -76.2 0 l 0 -177.8 l 76.2 0 l 0 -152.4 l -76.2 0 l 0 -177.8 l 76.2 0 l 0 -152.4 l -76.2 0 l 0 -101.6"/>
    </g>
    <g id="piece_002">
      <path id="side_008" style="fill:none;stroke:#000000;stroke-width:1" d="m 0 5308.6 l 181.429 0 l 0 -76.2 l 152.4 0 l 0 76.2 l 181.428 0 l 0 -76.2 l 152.4 0 l 0 76.2 l 181.429 0 l 0 -76.2 l 152.404 0 l 0 76.2 l 181.42 0 l 0 -76.2 l 152.4 0 l 0 76.2 l 181.43 0 l 0 -76.2 l 152.4 0 l 0 76.2 l 181.43 0 l 0 -76.2 l 152.4 0 l 0 76.2 l 181.43 0"/>
      <path id="side_009" style="fill:none;stroke:#000000;stroke-width:1" d="m 1054.1 5232.4 l 0 584.2 l 76.2 0 l 0 -584.2 l -76.2 0"/>
      <path id="side_010" style="fill:none;stroke:#000000;stroke-width:1" d="m 2184.4 5308.6 l 0 101.6 l -76.2 0 l 0 152.4 l 76.2 0 l 0 177.8 l -76.2 0 l 0 152.4 l 76.2 0 l 0 177.8 l -76.2 0 l 0 152.4 l 76.2 0 l 0 101.6"/>
      <path id="side_011" style="fill:none;stroke:#000000;stroke-width:1" d="m 2184.4 6324.6 l -181.43 0 l 0 76.2 l -152.4 0 l 0 -76.2 l -181.43 0 l 0 76.2 l -152.4 0 l 0 -76.2 l -181.43 0 l 0 76.2 l -152.4 0 l 0 -76.2 l -181.42 0 l 0 76.2 l -152.404 0 l 0 -76.2 l -181.429 0 l 0 76.2 l -152.4 0 l 0 -76.2 l -181.428 0 l 0 76.2 l -152.4 0 l 0 -76.2 l -181.429 0"/>
      <path id="side_012" style="fill:none;stroke:#000000;stroke-width:1" d="m 0 6324.6 l 0 -101.6 l 76.2 0 l 0 -152.4 l -76.2 0 l 0 -177.8 l 76.2 0 l 0 -152.4 l -76.2 0 l 0 -177.8 l 76.2 0 l 0 -152.4 l -76.2 0 l 0 -101.6"/>
    </g>
    <g id="piece_003">
      <path id="side_013" style="fill:none;stroke:#000000;stroke-width:1" d="m 127 2654.3 l 101.6 0 l 0 -76.2 l -101.6 0 l 0 76.2"/>
      <path id="side_014" style="fill:none;stroke:#000000;stroke-width:1" d="m 381 2654.3 l 177.8 0 l 0 -76.2 l -177.8 0 l 0 76.2"/>
      <path id="side_015" style="fill:none;stroke:#000000;stroke-width:1" d="m 711.2 2654.3 l 177.8 0 l 0 -76.2 l -177.8 0 l 0 76.2"/>
      <path id="side_016" style="fill:none;stroke:#000000;stroke-width:1" d="m 1041.4 2578.1 l 0 0 l 0 76.2 l 0 0 l 0 -76.2"/>
      <path id="side_017" style="fill:none;stroke:#000000;stroke-width:1" d="m 127 1346.2 l 101.6 0 l 0 -76.2 l 152.4 0 l 0 76.2 l 177.8 0 l 0 -76.2 l 152.4 0 l 0 76.2 l 177.8 0 l 0 -76.2 l 152.4 0 l 0 76.2 l 101.6 0"/>
      <path id="side_018" style="fill:none;stroke:#000000;stroke-width:1" d="m 1143 1346.2 l 0 87.49 l 76.2 0 l 0 152.4 l -76.2 0 l 0 163.69 l 76.2 0 l 0 152.4 l -76.2 0 l 0 163.69 l 76.2 0 l 0 152.4 l -76.2 0 l 0 163.69 l 76.2 0 l 0 152.4 l -76.2 0 l 0 163.68 l 76.2 0 l 0 152.4 l -76.2 0 l 0 163.69 l 76.2 0 l 0 152.4 l -76.2 0 l 0 163.69 l 76.2 0 l 0 152.4 l -76.2 0 l 0 163.69 l 76.2 0 l 0 152.4 l -76.2 0 l 0 87.49"/>
      <path id="side_019" style="fill:none;stroke:#000000;stroke-width:1" d="m 1143 3886.2 l -101.6 0 l 0 76.2 l -152.4 0 l 0 -76.2 l -177.8 0 l 0 76.2 l -152.4 0 l 0 -76.2 l -177.8 0 l 0 76.2 l -152.4 0 l 0 -76.2 l -101.6 0"/>
      <path id="side_020" style="fill:none;stroke:#000000;stroke-width:1" d="m 127 3886.2 l 0 -87.49 l -76.2 0 l 0 -152.4 l 76.2 0 l 0 -163.69 l -76.2 0 l 0 -152.4 l 76.2 0 l 0 -163.69 l -76.2 0 l 0 -152.4 l 76.2 0 l 0 -163.69 l -76.2 0 l 0 -152.4 l 76.2 0 l 0 -163.68 l -76.2 0 l 0 -152.4 l 76.2 0 l 0 -163.69 l -76.2 0 l 0 -152.4 l 76.2 0 l 0 -163.69 l -76.2 0 l 0 -152.4 l 76.2 0 l 0 -163.69 l -76.2 0 l 0 -152.4 l 76.2 0 l 0 -87.49"/>
    </g>
    <g id="piece_004">
      <path id="side_021" style="fill:none;stroke:#000000;stroke-width:1" d="m 0 7759.7 l 584.2 0 l 0 76.2 l -584.2 0 l 0 -76.2"/>
      <path id="side_022" style="fill:none;stroke:#000000;stroke-width:1" d="m 76.2 6527.8 l 101.6 0 l 0 -76.2 l 152.4 0 l 0 76.2 l 177.8 0 l 0 -76.2 l 152.4 0 l 0 76.2 l 177.8 0 l 0 -76.2 l 152.4 0 l 0 76.2 l 101.6 0"/>
      <path id="side_023" style="fill:none;stroke:#000000;stroke-width:1" d="m 1092.2 6527.8 l 0 87.49 l 76.2 0 l 0 152.4 l -76.2 0 l 0 163.69 l 76.2 0 l 0 152.4 l -76.2 0 l 0 163.69 l 76.2 0 l 0 152.4 l -76.2 0 l 0 163.69 l 76.2 0 l 0 152.4 l -76.2 0 l 0 163.68 l 76.2 0 l 0 152.4 l -76.2 0 l 0 163.69 l 76.2 0 l 0 152.4 l -76.2 0 l 0 163.69 l 76.2 0 l 0 152.4 l -76.2 0 l 0 163.69 l 76.2 0 l 0 152.4 l -76.2 0 l 0 87.49"/>
      <path id="side_024" style="fill:none;stroke:#000000;stroke-width:1" d="m 1092.2 9067.8 l -101.6 0 l 0 76.2 l -152.4 0 l 0 -76.2 l -177.8 0 l 0 76.2 l -152.4 0 l 0 -76.2 l -177.8 0 l 0 76.2 l -152.4 0 l 0 -76.2 l -101.6 0"/>
      <path id="side_025" style="fill:none;stroke:#000000;stroke-width:1" d="m 76.2 9067.8 l 0 -87.49 l -76.2 0 l 0 -152.4 l 76.2 0 l 0 -163.69 l -76.2 0 l 0 -152.4 l 76.2 0 l 0 -163.69 l -76.2 0 l 0 -152.4 l 76.2 0 l 0 -163.69 l -76.2 0 l 0 -152.4 l 76.2 0 l 0 -163.68 l -76.2 0 l 0 -152.4 l 76.2 0 l 0 -163.69 l -76.2 0 l 0 -152.4 l 76.2 0 l 0 -163.69 l -76.2 0 l 0 -152.4 l 76.2 0 l 0 -163.69 l -76.2 0 l 0 -152.4 l 76.2 0 l 0 -87.49"/>
    </g>
    <g id="piece_005">
      <path id="side_026" style="fill:none;stroke:#000000;stroke-width:1" d="m 1451.43 2654.3 l 152.4 0 l 0 -76.2 l -152.4 0 l 0 76.2"/>
      <path id="side_027" style="fill:none;stroke:#000000;stroke-width:1" d="m 1785.26 2654.3 l 152.4 0 l 0 -76.2 l -152.4 0 l 0 76.2"/>
      <path id="side_028" style="fill:none;stroke:#000000;stroke-width:1" d="m 2119.09 2654.3 l 152.4 0 l 0 -76.2 l -152.4 0 l 0 76.2"/>
      <path id="side_029" style="fill:none;stroke:#000000;stroke-width:1" d="m 2452.91 2654.3 l 152.4 0 l 0 -76.2 l -152.4 0 l 0 76.2"/>
      <path id="side_030" style="fill:none;stroke:#000000;stroke-width:1" d="m 2786.74 2654.3 l 152.4 0 l 0 -76.2 l -152.4 0 l 0 76.2"/>
      <path id="side_031" style="fill:none;stroke:#000000;stroke-width:1" d="m 3120.57 2654.3 l 152.4 0 l 0 -76.2 l -152.4 0 l 0 76.2"/>
      <path id="side_032" style="fill:none;stroke:#000000;stroke-width:1" d="m 1270 1270 l 181.43 0 l 0 76.2 l 152.4 0 l 0 -76.2 l 181.43 0 l 0 76.2 l 152.4 0 l 0 -76.2 l 181.43 0 l 0 76.2 l 152.4 0 l 0 -76.2 l 181.42 0 l 0 76.2 l 152.4 0 l 0 -76.2 l 181.43 0 l 0 76.2 l 152.4 0 l 0 -76.2 l 181.43 0 l 0 76.2 l 152.4 0 l 0 -76.2 l 181.43 0"/>
      <path id="side_033" style="fill:none;stroke:#000000;stroke-width:1" d="m 2324.1 1433.69 l 0 152.4 l 76.2 0 l 0 -152.4 l -76.2 0"/>
      <path id="side_034" style="fill:none;stroke:#000000;stroke-width:1" d="m 2324.1 1749.78 l 0 152.4 l 76.2 0 l 0 -152.4 l -76.2 0"/>
      <path id="side_035" style="fill:none;stroke:#000000;stroke-width:1" d="m 2324.1 2065.87 l 0 152.4 l 76.2 0 l 0 -152.4 l -76.2 0"/>
      <path id="side_036" style="fill:none;stroke:#000000;stroke-width:1" d="m 2324.1 2381.96 l 0 152.4 l 76.2 0 l 0 -152.4 l -76.2 0"/>
      <path id="side_037" style="fill:none;stroke:#000000;stroke-width:1" d="m 2324.1 2698.04 l 0 152.4 l 76.2 0 l 0 -152.4 l -76.2 0"/>
      <path id="side_038" style="fill:none;stroke:#000000;stroke-width:1" d="m 2324.1 3014.13 l 0 152.4 l 76.2 0 l 0 -152.4 l -76.2 0"/>
      <path id="side_039" style="fill:none;stroke:#000000;stroke-width:1" d="m 2324.1 3330.22 l 0 152.4 l 76.2 0 l 0 -152.4 l -76.2 0"/>
      <path id="side_040" style="fill:none;stroke:#000000;stroke-width:1" d="m 2324.1 3646.31 l 0 152.4 l 76.2 0 l 0 -152.4 l -76.2 0"/>
      <path id="side_041" style="fill:none;stroke:#000000;stroke-width:1" d="m 3454.4 1270 l 0 163.69 l -76.2 0 l 0 152.4 l 76.2 0 l 0 163.69 l -76.2 0 l 0 152.4 l 76.2 0 l 0 163.69 l -76.2 0 l 0 152.4 l 76.2 0 l 0 163.69 l -76.2 0 l 0 152.4 l 76.2 0 l 0 163.68 l -76.2 0 l 0 152.4 l 76.2 0 l 0 163.69 l -76.2 0 l 0 152.4 l 76.2 0 l 0 163.69 l -76.2 0 l 0 152.4 l 76.2 0 l 0 163.69 l -76.2 0 l 0 152.4 l 76.2 0 l 0 163.69"/>
      <path id="side_042" style="fill:none;stroke:#000000;stroke-width:1" d="m 3454.4 3962.4 l -181.43 0 l 0 -76.2 l -152.4 0 l 0 76.2 l -181.43 0 l 0 -76.2 l -152.4 0 l 0 76.2 l -181.43 0 l 0 -76.2 l -152.4 0 l 0 76.2 l -181.42 0 l 0 -76.2 l -152.4 0 l 0 76.2 l -181.43 0 l 0 -76.2 l -152.4 0 l 0 76.2 l -181.43 0 l 0 -76.2 l -152.4 0 l 0 76.2 l -181.43 0"/>
      <path id="side_043" style="fill:none;stroke:#000000;stroke-width:1" d="m 1270 3962.4 l 0 -163.69 l 76.2 0 l 0 -152.4 l -76.2 0 l 0 -163.69 l 76.2 0 l 0 -152.4 l -76.2 0 l 0 -163.69 l 76.2 0 l 0 -152.4 l -76.2 0 l 0 -163.69 l 76.2 0 l 0 -152.4 l -76.2 0 l 0 -163.68 l 76.2 0 l 0 -152.4 l -76.2 0 l 0 -163.69 l 76.2 0 l 0 -152.4 l -76.2 0 l 0 -163.69 l 76.2 0 l 0 -152.4 l -76.2 0 l 0 -163.69 l 76.2 0 l 0 -152.4 l -76.2 0 l 0 -163.69"/>
    </g>
    <g id="piece_006">
      <path id="side_044" style="fill:none;stroke:#000000;stroke-width:1" d="m 3581.4 2654.3 l 101.6 0 l 0 -76.2 l -101.6 0 l 0 76.2"/>
      <path id="side_045" style="fill:none;stroke:#000000;stroke-width:1" d="m 3835.4 2654.3 l 177.8 0 l 0 -76.2 l -177.8 0 l 0 76.2"/>
      <path id="side_046" style="fill:none;stroke:#000000;stroke-width:1" d="m 4165.6 2654.3 l 177.8 0 l 0 -76.2 l -177.8 0 l 0 76.2"/>
      <path id="side_047" style="fill:none;stroke:#000000;stroke-width:1" d="m 4495.8 2578.1 l 0 0 l 0 76.2 l 0 0 l 0 -76.2"/>
      <path id="side_048" style="fill:none;stroke:#000000;stroke-width:1" d="m 3581.4 1346.2 l 101.6 0 l 0 -76.2 l 152.4 0 l 0 76.2 l 177.8 0 l 0 -76.2 l 152.4 0 l 0 76.2 l 177.8 0 l 0 -76.2 l 152.4 0 l 0 76.2 l 101.6 0"/>
      <path id="side_049" style="fill:none;stroke:#000000;stroke-width:1" d="m 4597.4 1346.2 l 0 87.49 l 76.2 0 l 0 152.4 l -76.2 0 l 0 163.69 l 76.2 0 l 0 152.4 l -76.2 0 l 0 163.69 l 76.2 0 l 0 152.4 l -76.2 0 l 0 163.69 l 76.2 0 l 0 152.4 l -76.2 0 l 0 163.68 l 76.2 0 l 0 152.4 l -76.2 0 l 0 163.69 l 76.2 0 l 0 152.4 l -76.2 0 l 0 163.69 l 76.2 0 l 0 152.4 l -76.2 0 l 0 163.69 l 76.2 0 l 0 152.4 l -76.2 0 l 0 87.49"/>
      <path id="side_050" style="fill:none;stroke:#000000;stroke-width:1" d="m 4597.4 3886.2 l -101.6 0 l 0 76.2 l -152.4 0 l 0 -76.2 l -177.8 0 l 0 76.2 l -152.4 0 l 0 -76.2 l -177.8 0 l 0 76.2 l -152.4 0 l 0 -76.2 l -101.6 0"/>
      <path id="side_051" style="fill:none;stroke:#000000;stroke-width:1" d="m 3581.4 3886.2 l 0 -87.49 l -76.2 0 l 0 -152.4 l 76.2 0 l 0 -163.69 l -76.2 0 l 0 -152.4 l 76.2 0 l 0 -163.69 l -76.2 0 l 0 -152.4 l 76.2 0 l 0 -163.69 l -76.2 0 l 0 -152.4 l 76.2 0 l 0 -163.68 l -76.2 0 l 0 -152.4 l 76.2 0 l 0 -163.69 l -76.2 0 l 0 -152.4 l 76.2 0 l 0 -163.69 l -76.2 0 l 0 -152.4 l 76.2 0 l 0 -163.69 l -76.2 0 l 0 -152.4 l 76.2 0 l 0 -87.49"/>
    </g>
    <g id="piece_007">
      <path id="side_052" style="fill:none;stroke:#000000;stroke-width:1" d="m 4905.83 2654.3 l 152.4 0 l 0 -76.2 l -152.4 0 l 0 76.2"/>
      <path id="side_053" style="fill:none;stroke:#000000;stroke-width:1" d="m 5239.66 2654.3 l 152.4 0 l 0 -76.2 l -152.4 0 l 0 76.2"/>
      <path id="side_054" style="fill:none;stroke:#000000;stroke-width:1" d="m 5573.49 2654.3 l 152.4 0 l 0 -76.2 l -152.4 0 l 0 76.2"/>
      <path id="side_055" style="fill:none;stroke:#000000;stroke-width:1" d="m 5907.31 2654.3 l 152.4 0 l 0 -76.2 l -152.4 0 l 0 76.2"/>
      <path id="side_056" style="fill:none;stroke:#000000;stroke-width:1" d="m 6241.14 2654.3 l 152.4 0 l 0 -76.2 l -152.4 0 l 0 76.2"/>
      <path id="side_057" style="fill:none;stroke:#000000;stroke-width:1" d="m 6574.97 2654.3 l 152.4 0 l 0 -76.2 l -152.4 0 l 0 76.2"/>
      <path id="side_058" style="fill:none;stroke:#000000;stroke-width:1" d="m 4724.4 1270 l 181.43 0 l 0 76.2 l 152.4 0 l 0 -76.2 l 181.43 0 l 0 76.2 l 152.4 0 l 0 -76.2 l 181.43 0 l 0 76.2 l 152.4 0 l 0 -76.2 l 181.42 0 l 0 76.2 l 152.4 0 l 0 -76.2 l 181.43 0 l 0 76.2 l 152.4 0 l 0 -76.2 l 181.43 0 l 0 76.2 l 152.4 0 l 0 -76.2 l 181.43 0"/>
      <path id="side_059" style="fill:none;stroke:#000000;stroke-width:1" d="m 5778.5 1433.69 l 0 152.4 l 76.2 0 l 0 -152.4 l -76.2 0"/>
      <path id="side_060" style="fill:none;stroke:#000000;stroke-width:1" d="m 5778.5 1749.78 l 0 152.4 l 76.2 0 l 0 -152.4 l -76.2 0"/>
      <path id="side_061" style="fill:none;stroke:#000000;stroke-width:1" d="m 5778.5 2065.87 l 0 152.4 l 76.2 0 l 0 -152.4 l -76.2 0"/>
      <path id="side_062" style="fill:none;stroke:#000000;stroke-width:1" d="m 5778.5 2381.96 l 0 152.4 l 76.2 0 l 0 -152.4 l -76.2 0"/>
      <path id="side_063" style="fill:none;stroke:#000000;stroke-width:1" d="m 5778.5 2698.04 l 0 152.4 l 76.2 0 l 0 -152.4 l -76.2 0"/>
      <path id="side_064" style="fill:none;stroke:#000000;stroke-width:1" d="m 5778.5 3014.13 l 0 152.4 l 76.2 0 l 0 -152.4 l -76.2 0"/>
      <path id="side_065" style="fill:none;stroke:#000000;stroke-width:1" d="m 5778.5 3330.22 l 0 152.4 l 76.2 0 l 0 -152.4 l -76.2 0"/>
      <path id="side_066" style="fill:none;stroke:#000000;stroke-width:1" d="m 5778.5 3646.31 l 0 152.4 l 76.2 0 l 0 -152.4 l -76.2 0"/>
      <path id="side_067" style="fill:none;stroke:#000000;stroke-width:1" d="m 6908.8 1270 l 0 163.69 l -76.2 0 l 0 152.4 l 76.2 0 l 0 163.69 l -76.2 0 l 0 152.4 l 76.2 0 l 0 163.69 l -76.2 0 l 0 152.4 l 76.2 0 l 0 163.69 l -76.2 0 l 0 152.4 l 76.2 0 l 0 163.68 l -76.2 0 l 0 152.4 l 76.2 0 l 0 163.69 l -76.2 0 l 0 152.4 l 76.2 0 l 0 163.69 l -76.2 0 l 0 152.4 l 76.2 0 l 0 163.69 l -76.2 0 l 0 152.4 l 76.2 0 l 0 163.69"/>
      <path id="side_068" style="fill:none;stroke:#000000;stroke-width:1" d="m 6908.8 3962.4 l -181.43 0 l 0 -76.2 l -152.4 0 l 0 76.2 l -181.43 0 l 0 -76.2 l -152.4 0 l 0 76.2 l -181.43 0 l 0 -76.2 l -152.4 0 l 0 76.2 l -181.42 0 l 0 -76.2 l -152.4 0 l 0 76.2 l -181.43 0 l 0 -76.2 l -152.4 0 l 0 76.2 l -181.43 0 l 0 -76.2 l -152.4 0 l 0 76.2 l -181.43 0"/>
      <path id="side_069" style="fill:none;stroke:#000000;stroke-width:1" d="m 4724.4 3962.4 l 0 -163.69 l 76.2 0 l 0 -152.4 l -76.2 0 l 0 -163.69 l 76.2 0 l 0 -152.4 l -76.2 0 l 0 -163.69 l 76.2 0 l 0 -152.4 l -76.2 0 l 0 -163.69 l 76.2 0 l 0 -152.4 l -76.2 0 l 0 -163.68 l 76.2 0 l 0 -152.4 l -76.2 0 l 0 -163.69 l 76.2 0 l 0 -152.4 l -76.2 0 l 0 -163.69 l 76.2 0 l 0 -152.4 l -76.2 0 l 0 -163.69 l 76.2 0 l 0 -152.4 l -76.2 0 l 0 -163.69"/>
    </g>
    <g id="piece_008">
      <path id="side_070" style="fill:none;stroke:#000000;stroke-width:1" d="m 1270 127 l 181.43 0 l 0 -76.2 l 152.4 0 l 0 76.2 l 181.43 0 l 0 -76.2 l 152.4 0 l 0 76.2 l 181.43 0 l 0 -76.2 l 152.4 0 l 0 76.2 l 181.42 0 l 0 -76.2 l 152.4 0 l 0 76.2 l 181.43 0 l 0 -76.2 l 152.4 0 l 0 76.2 l 181.43 0 l 0 -76.2 l 152.4 0 l 0 76.2 l 181.43 0"/>
      <path id="side_071" style="fill:none;stroke:#000000;stroke-width:1" d="m 2324.1 228.6 l 0 152.4 l 76.2 0 l 0 -152.4 l -76.2 0"/>
      <path id="side_072" style="fill:none;stroke:#000000;stroke-width:1" d="m 2324.1 558.8 l 0 152.4 l 76.2 0 l 0 -152.4 l -76.2 0"/>
      <path id="side_073" style="fill:none;stroke:#000000;stroke-width:1" d="m 2324.1 889 l 0 152.4 l 76.2 0 l 0 -152.4 l -76.2 0"/>
      <path id="side_074" style="fill:none;stroke:#000000;stroke-width:1" d="m 3454.4 127 l 0 101.6 l -76.2 0 l 0 152.4 l 76.2 0 l 0 177.8 l -76.2 0 l 0 152.4 l 76.2 0 l 0 177.8 l -76.2 0 l 0 152.4 l 76.2 0 l 0 101.6"/>
      <path id="side_075" style="fill:none;stroke:#000000;stroke-width:1" d="m 3454.4 1143 l -181.43 0 l 0 76.2 l -152.4 0 l 0 -76.2 l -181.43 0 l 0 76.2 l -152.4 0 l 0 -76.2 l -181.43 0 l 0 76.2 l -152.4 0 l 0 -76.2 l -181.42 0 l 0 76.2 l -152.4 0 l 0 -76.2 l -181.43 0 l 0 76.2 l -152.4 0 l 0 -76.2 l -181.43 0 l 0 76.2 l -152.4 0 l 0 -76.2 l -181.43 0"/>
      <path id="side_076" style="fill:none;stroke:#000000;stroke-width:1" d="m 1270 1143 l 0 -101.6 l 76.2 0 l 0 -152.4 l -76.2 0 l 0 -177.8 l 76.2 0 l 0 -152.4 l -76.2 0 l 0 -177.8 l 76.2 0 l 0 -152.4 l -76.2 0 l 0 -101.6"/>
    </g>
  </g>
</svg>