<!-- Created with Inkscape (http://www.inkscape.org/) -->
<svg xmlns:inkscape="http://www.inkscape.org/namespaces/inkscape" xmlns:sodipodi="http://sodipodi.sourceforge.net/DTD/sodipodi-0.dtd" xmlns="http://www.w3.org/2000/svg" xmlns:svg="http://www.w3.org/2000/svg" width="6909.8in" height="9145in" viewBox="0 0 6909.8 9145" version="1.1" id="svg5" inkscape:version="1.1.2 (0a00cf5339, 2022-02-04)" sodipodi:docname="blank.svg">
  <sodipodi:namedview id="namedview7" pagecolor="#ffffff" bordercolor="#666666" borderopacity="1.0" inkscape:pageshadow="2" inkscape:pageopacity="0.0" inkscape:pagecheckerboard="0" inkscape:document-units="mm" showgrid="false" inkscape:zoom="0.64052329" inkscape:cx="397.33138" inkscape:cy="561.25984" inkscape:window-width="2086" inkscape:window-height="1376" inkscape:window-x="0" inkscape:window-y="0" inkscape:window-maximized="1" inkscape:current-layer="layer1"/>
  <defs id="defs2"/>
  <g inkscape:label="Layer 1" inkscape:groupmode="layer" id="layer1">
    <metadata text="createArgs=['--inside=1', '--length=80', '--width=100', '--depth=40', '--equal=0', '--tab=6', '--tabtype=0', '--tabsymmetry=0', '--dimpleheight=0', '--dimplelength=0', '--hairline=1', '--thickness=3', '--kerf=0', '--style=1', '--boxtype=1', '--div_l=1', '--div_w=1', '--keydiv=0', '--spacing=2', '--unit=in']"/>
    <path id="piece_001" style="fill:none;stroke:#000000;stroke-width:0.0508" d="M 1270 4191 L 1346.2 4191 L 1346.2 4343.4 L 1270 4343.4 L 1270 4521.2 L 1346.2 4521.2 L 1346.2 4673.6 L 1270 4673.6 L 1270 4851.4 L 1346.2 4851.4 L 1346.2 5003.8 L 1270 5003.8 L 1270 5105.4 L 1451.43 5105.4 L 1451.43 5181.6 L 1603.83 5181.6 L 1603.83 5105.4 L 1785.26 5105.4 L 1785.26 5181.6 L 1937.66 5181.6 L 1937.66 5105.4 L 2119.09 5105.4 L 2119.09 5181.6 L 2271.49 5181.6 L 2271.49 5105.4 L 2452.91 5105.4 L 2452.91 5181.6 L 2605.31 5181.6 L 2605.31 5105.4 L 2786.74 5105.4 L 2786.74 5181.6 L 2939.14 5181.6 L 2939.14 5105.4 L 3120.57 5105.4 L 3120.57 5181.6 L 3272.97 5181.6 L 3272.97 5105.4 L 3454.4 5105.4 L 3454.4 5003.8 L 3378.2 5003.8 L 3378.2 4851.4 L 3454.4 4851.4 L 3454.4 4673.6 L 3378.2 4673.6 L 3378.2 4521.2 L 3454.4 4521.2 L 3454.4 4343.4 L 3378.2 4343.4 L 3378.2 4191 L 3454.4 4191 L 3454.4 4089.4 L 3272.97 4089.4 L 3272.97 4013.2 L 3120.57 4013.2 L 3120.57 4089.4 L 2939.14 4089.4 L 2939.14 4013.2 L 2786.74 4013.2 L 2786.74 4089.4 L 2605.31 4089.4 L 2605.31 4013.2 L 2452.91 4013.2 L 2452.91 4089.4 L 2271.49 4089.4 L 2271.49 4013.2 L 2119.09 4013.2 L 2119.09 4089.4 L 1937.66 4089.4 L 1937.66 4013.2 L 1785.26 4013.2 L 1785.26 4089.4 L 1603.83 4089.4 L 1603.83 4013.2 L 1451.43 4013.2 L 1451.43 4089.4 L 1270 4089.4 L 1270 4191 Z M 2324.1 4191 L 2400.3 4191 L 2400.3 4343.4 L 2324.1 4343.4 L 2324.1 4191 Z M 2324.1 4521.2 L 2400.3 4521.2 L 2400.3 4673.6 L 2324.1 4673.6 L 2324.1 4521.2 Z M 2324.1 4851.4 L 2400.3 4851.4 L 2400.3 5003.8 L 2324.1 5003.8 L 2324.1 4851.4 Z"/>
    <path id="xdivider_001" style="fill:none;stroke:#000000;stroke-width:0.0508" d="M 0 5410.2 L 76.2 5410.2 L 76.2 5562.6 L 0 5562.6 L 0 5740.4 L 76.2 5740.4 L 76.2 5892.8 L 0 5892.8 L 0 6070.6 L 76.2 6070.6 L 76.2 6223 L 0 6223 L 0 6324.6 L 181.43 6324.6 L 181.43 6400.8 L 333.83 6400.8 L 333.83 6324.6 L 515.26 6324.6 L 515.26 6400.8 L 667.66 6400.8 L 667.66 6324.6 L 849.09 6324.6 L 849.09 6400.8 L 1001.49 6400.8 L 1001.49 6324.6 L 1182.91 6324.6 L 1182.91 6400.8 L 1335.31 6400.8 L 1335.31 6324.6 L 1516.74 6324.6 L 1516.74 6400.8 L 1669.14 6400.8 L 1669.14 6324.6 L 1850.57 6324.6 L 1850.57 6400.8 L 2002.97 6400.8 L 2002.97 6324.6 L 2184.4 6324.6 L 2184.4 6223 L 2108.2 6223 L 2108.2 6070.6 L 2184.4 6070.6 L 2184.4 5892.8 L 2108.2 5892.8 L 2108.2 5740.4 L 2184.4 5740.4 L 2184.4 5562.6 L 2108.2 5562.6 L 2108.2 5410.2 L 2184.4 5410.2 L 2184.4 5308.6 L 2002.97 5308.6 L 2002.97 5232.4 L 1850.57 5232.4 L 1850.57 5308.6 L 1669.14 5308.6 L 1669.14 5232.4 L 1516.74 5232.4 L 1516.74 5308.6 L 1335.31 5308.6 L 1335.31 5232.4 L 1182.91 5232.4 L 1182.91 5308.6 L 1130.3 5308.6 L 1130.3 5816.6 L 1054.1 5816.6 L 1054.1 5308.6 L 1001.49 5308.6 L 1001.49 5232.4 L 849.086 5232.4 L 849.086 5308.6 L 667.657 5308.6 L 667.657 5232.4 L 515.257 5232.4 L 515.257 5308.6 L 333.829 5308.6 L 333.829 5232.4 L 181.429 5232.4 L 181.429 5308.6 L 0 5308.6 L 0 5410.2 Z"/>
    <path id="piece_002" style="fill:none;stroke:#000000;stroke-width:0.0508" d="M 127 1433.69 L 50.8 1433.69 L 50.8 1586.09 L 127 1586.09 L 127 1749.78 L 50.8 1749.78 L 50.8 1902.18 L 127 1902.18 L 127 2065.87 L 50.8 2065.87 L 50.8 2218.27 L 127 2218.27 L 127 2381.96 L 50.8 2381.96 L 50.8 2534.36 L 127 2534.36 L 127 2578.1 L 228.6 2578.1 L 228.6 2654.3 L 127 2654.3 L 127 2698.04 L 50.8 2698.04 L 50.8 2850.44 L 127 2850.44 L 127 3014.13 L 50.8 3014.13 L 50.8 3166.53 L 127 3166.53 L 127 3330.22 L 50.8 3330.22 L 50.8 3482.62 L 127 3482.62 L 127 3646.31 L 50.8 3646.31 L 50.8 3798.71 L 127 3798.71 L 127 3886.2 L 228.6 3886.2 L 228.6 3962.4 L 381 3962.4 L 381 3886.2 L 558.8 3886.2 L 558.8 3962.4 L 711.2 3962.4 L 711.2 3886.2 L 889 3886.2 L 889 3962.4 L 1041.4 3962.4 L 1041.4 3886.2 L 1143 3886.2 L 1143 3798.71 L 1219.2 3798.71 L 1219.2 3646.31 L 1143 3646.31 L 1143 3482.62 L 1219.2 3482.62 L 1219.2 3330.22 L 1143 3330.22 L 1143 3166.53 L 1219.2 3166.53 L 1219.2 3014.13 L 1143 3014.13 L 1143 2850.44 L 1219.2 2850.44 L 1219.2 2698.04 L 1143 2698.04 L 1143 2654.3 L 1041.4 2654.3 L 1041.4 2578.1 L 1143 2578.1 L 1143 2534.36 L 1219.2 2534.36 L 1219.2 2381.96 L 1143 2381.96 L 1143 2218.27 L 1219.2 2218.27 L 1219.2 2065.87 L 1143 2065.87 L 1143 1902.18 L 1219.2 1902.18 L 1219.2 1749.78 L 1143 1749.78 L 1143 1586.09 L 1219.2 1586.09 L 1219.2 1433.69 L 1143 1433.69 L 1143 1346.2 L 1041.4 1346.2 L 1041.4 1270 L 889 1270 L 889 1346.2 L 711.2 1346.2 L 711.2 1270 L 558.8 1270 L 558.8 1346.2 L 381 1346.2 L 381 1270 L 228.6 1270 L 228.6 1346.2 L 127 1346.2 L 127 1433.69 Z M 381 2578.1 L 558.8 2578.1 L 558.8 2654.3 L 381 2654.3 L 381 2578.1 Z M 711.2 2578.1 L 889 2578.1 L 889 2654.3 L 711.2 2654.3 L 711.2 2578.1 Z"/>
    <path id="ydivider_001" style="fill:none;stroke:#000000;stroke-width:0.0508" d="M 76.2 6615.29 L 0 6615.29 L 0 6767.69 L 76.2 6767.69 L 76.2 6931.38 L 0 6931.38 L 0 7083.78 L 76.2 7083.78 L 76.2 7247.47 L 0 7247.47 L 0 7399.87 L 76.2 7399.87 L 76.2 7563.56 L 0 7563.56 L 0 7715.96 L 76.2 7715.96 L 76.2 7759.7 L 584.2 7759.7 L 584.2 7835.9 L 76.2 7835.9 L 76.2 7879.64 L 0 7879.64 L 0 8032.04 L 76.2 8032.04 L 76.2 8195.73 L 0 8195.73 L 0 8348.13 L 76.2 8348.13 L 76.2 8511.82 L 0 8511.82 L 0 8664.22 L 76.2 8664.22 L 76.2 8827.91 L 0 8827.91 L 0 8980.31 L 76.2 8980.31 L 76.2 9067.8 L 177.8 9067.8 L 177.8 9144 L 330.2 9144 L 330.2 9067.8 L 508 9067.8 L 508 9144 L 660.4 9144 L 660.4 9067.8 L 838.2 9067.8 L 838.2 9144 L 990.6 9144 L 990.6 9067.8 L 1092.2 9067.8 L 1092.2 8980.31 L 1168.4 8980.31 L 1168.4 8827.91 L 1092.2 8827.91 L 1092.2 8664.22 L 1168.4 8664.22 L 1168.4 8511.82 L 1092.2 8511.82 L 1092.2 8348.13 L 1168.4 8348.13 L 1168.4 8195.73 L 1092.2 8195.73 L 1092.2 8032.04 L 1168.4 8032.04 L 1168.4 7879.64 L 1092.2 7879.64 L 1092.2 7715.96 L 1168.4 7715.96 L 1168.4 7563.56 L 1092.2 7563.56 L 1092.2 7399.87 L 1168.4 7399.87 L 1168.4 7247.47 L 1092.2 7247.47 L 1092.2 7083.78 L 1168.4 7083.78 L 1168.4 6931.38 L 1092.2 6931.38 L 1092.2 6767.69 L 1168.4 6767.69 L 1168.4 6615.29 L 1092.2 6615.29 L 1092.2 6527.8 L 990.6 6527.8 L 990.6 6451.6 L 838.2 6451.6 L 838.2 6527.8 L 660.4 6527.8 L 660.4 6451.6 L 508 6451.6 L 508 6527.8 L 330.2 6527.8 L 330.2 6451.6 L 177.8 6451.6 L 177.8 6527.8 L 76.2 6527.8 L 76.2 6615.29 Z"/>
    <path id="piece_003" style="fill:none;stroke:#000000;stroke-width:0.0508" d="M 1270 1433.69 L 1346.2 1433.69 L 1346.2 1586.09 L 1270 1586.09 L 1270 1749.78 L 1346.2 1749.78 L 1346.2 1902.18 L 1270 1902.18 L 1270 2065.87 L 1346.2 2065.87 L 1346.2 2218.27 L 1270 2218.27 L 1270 2381.96 L 1346.2 2381.96 L 1346.2 2534.36 L 1270 2534.36 L 1270 2698.04 L 1346.2 2698.04 L 1346.2 2850.44 L 1270 2850.44 L 1270 3014.13 L 1346.2 3014.13 L 1346.2 3166.53 L 1270 3166.53 L 1270 3330.22 L 1346.2 3330.22 L 1346.2 3482.62 L 1270 3482.62 L 1270 3646.31 L 1346.2 3646.31 L 1346.2 3798.71 L 1270 3798.71 L 1270 3962.4 L 1451.43 3962.4 L 1451.43 3886.2 L 1603.83 3886.2 L 1603.83 3962.4 L 1785.26 3962.4 L 1785.26 3886.2 L 1937.66 3886.2 L 1937.66 3962.4 L 2119.09 3962.4 L 2119.09 3886.2 L 2271.49 3886.2 L 2271.49 3962.4 L 2452.91 3962.4 L 2452.91 3886.2 L 2605.31 3886.2 L 2605.31 3962.4 L 2786.74 3962.4 L 2786.74 3886.2 L 2939.14 3886.2 L 2939.14 3962.4 L 3120.57 3962.4 L 3120.57 3886.2 L 3272.97 3886.2 L 3272.97 3962.4 L 3454.4 3962.4 L 3454.4 3798.71 L 3378.2 3798.71 L 3378.2 3646.31 L 3454.4 3646.31 L 3454.4 3482.62 L 3378.2 3482.62 L 3378.2 3330.22 L 3454.4 3330.22 L 3454.4 3166.53 L 3378.2 3166.53 L 3378.2 3014.13 L 3454.4 3014.13 L 3454.4 2850.44 L 3378.2 2850.44 L 3378.2 2698.04 L 3454.4 2698.04 L 3454.4 2534.36 L 3378.2 2534.36 L 3378.2 2381.96 L 3454.4 2381.96 L 3454.4 2218.27 L 3378.2 2218.27 L 3378.2 2065.87 L 3454.4 2065.87 L 3454.4 1902.18 L 3378.2 1902.18 L 3378.2 1749.78 L 3454.4 1749.78 L 3454.4 1586.09 L 3378.2 1586.09 L 3378.2 1433.69 L 3454.4 1433.69 L 3454.4 1270 L 3272.97 1270 L 3272.97 1346.2 L 3120.57 1346.2 L 3120.57 1270 L 2939.14 1270 L 2939.14 1346.2 L 2786.74 1346.2 L 2786.74 1270 L 2605.31 1270 L 2605.31 1346.2 L 2452.91 1346.2 L 2452.91 1270 L 2271.49 1270 L 2271.49 1346.2 L 2119.09 1346.2 L 2119.09 1270 L 1937.66 1270 L 1937.66 1346.2 L 1785.26 1346.2 L 1785.26 1270 L 1603.83 1270 L 1603.83 1346.2 L 1451.43 1346.2 L 1451.43 1270 L 1270 1270 L 1270 1433.69 Z M 1451.43 2578.1 L 1603.83 2578.1 L 1603.83 2654.3 L 1451.43 2654.3 L 1451.43 2578.1 Z M 1785.26 2578.1 L 1937.66 2578.1 L 1937.66 2654.3 L 1785.26 2654.3 L 1785.26 2578.1 Z M 2119.09 2578.1 L 2271.49 2578.1 L 2271.49 2654.3 L 2119.09 2654.3 L 2119.09 2578.1 Z M 2324.1 1433.69 L 2400.3 1433.69 L 2400.3 1586.09 L 2324.1 1586.09 L 2324.1 1433.69 Z M 2324.1 1749.78 L 2400.3 1749.78 L 2400.3 1902.18 L 2324.1 1902.18 L 2324.1 1749.78 Z M 2324.1 2065.87 L 2400.3 2065.87 L 2400.3 2218.27 L 2324.1 2218.27 L 2324.1 2065.87 Z M 2324.1 2381.96 L 2400.3 2381.96 L 2400.3 2534.36 L 2324.1 2534.36 L 2324.1 2381.96 Z M 2324.1 2698.04 L 2400.3 2698.04 L 2400.3 2850.44 L 2324.1 2850.44 L 2324.1 2698.04 Z M 2324.1 3014.13 L 2400.3 3014.13 L 2400.3 3166.53 L 2324.1 3166.53 L 2324.1 3014.13 Z M 2324.1 3330.22 L 2400.3 3330.22 L 2400.3 3482.62 L 2324.1 3482.62 L 2324.1 3330.22 Z M 2324.1 3646.31 L 2400.3 3646.31 L 2400.3 3798.71 L 2324.1 3798.71 L 2324.1 3646.31 Z M 2452.91 2578.1 L 2605.31 2578.1 L 2605.31 2654.3 L 2452.91 2654.3 L 2452.91 2578.1 Z M 2786.74 2578.1 L 2939.14 2578.1 L 2939.14 2654.3 L 2786.74 2654.3 L 2786.74 2578.1 Z M 3120.57 2578.1 L 3272.97 2578.1 L 3272.97 2654.3 L 3120.57 2654.3 L 3120.57 2578.1 Z"/>
    <path id="piece_004" style="fill:none;stroke:#000000;stroke-width:0.0508" d="M 3581.4 1433.69 L 3505.2 1433.69 L 3505.2 1586.09 L 3581.4 1586.09 L 3581.4 1749.78 L 3505.2 1749.78 L 3505.2 1902.18 L 3581.4 1902.18 L 3581.4 2065.87 L 3505.2 2065.87 L 3505.2 2218.27 L 3581.4 2218.27 L 3581.4 2381.96 L 3505.2 2381.96 L 3505.2 2534.36 L 3581.4 2534.36 L 3581.4 2578.1 L 3683 2578.1 L 3683 2654.3 L 3581.4 2654.3 L 3581.4 2698.04 L 3505.2 2698.04 L 3505.2 2850.44 L 3581.4 2850.44 L 3581.4 3014.13 L 3505.2 3014.13 L 3505.2 3166.53 L 3581.4 3166.53 L 3581.4 3330.22 L 3505.2 3330.22 L 3505.2 3482.62 L 3581.4 3482.62 L 3581.4 3646.31 L 3505.2 3646.31 L 3505.2 3798.71 L 3581.4 3798.71 L 3581.4 3886.2 L 3683 3886.2 L 3683 3962.4 L 3835.4 3962.4 L 3835.4 3886.2 L 4013.2 3886.2 L 4013.2 3962.4 L 4165.6 3962.4 L 4165.6 3886.2 L 4343.4 3886.2 L 4343.4 3962.4 L 4495.8 3962.4 L 4495.8 3886.2 L 4597.4 3886.2 L 4597.4 3798.71 L 4673.6 3798.71 L 4673.6 3646.31 L 4597.4 3646.31 L 4597.4 3482.62 L 4673.6 3482.62 L 4673.6 3330.22 L 4597.4 3330.22 L 4597.4 3166.53 L 4673.6 3166.53 L 4673.6 3014.13 L 4597.4 3014.13 L 4597.4 2850.44 L 4673.6 2850.44 L 4673.6 2698.04 L 4597.4 2698.04 L 4597.4 2654.3 L 4495.8 2654.3 L 4495.8 2578.1 L 4597.4 2578.1 L 4597.4 2534.36 L 4673.6 2534.36 L 4673.6 2381.96 L 4597.4 2381.96 L 4597.4 2218.27 L 4673.6 2218.27 L 4673.6 2065.87 L 4597.4 2065.87 L 4597.4 1902.18 L 4673.6 1902.18 L 4673.6 1749.78 L 4597.4 1749.78 L 4597.4 1586.09 L 4673.6 1586.09 L 4673.6 1433.69 L 4597.4 1433.69 L 4597.4 1346.2 L 4495.8 1346.2 L 4495.8 1270 L 4343.4 1270 L 4343.4 1346.2 L 4165.6 1346.2 L 4165.6 1270 L 4013.2 1270 L 4013.2 1346.2 L 3835.4 1346.2 L 3835.4 1270 L 3683 1270 L 3683 1346.2 L 3581.4 1346.2 L 3581.4 1433.69 Z M 3835.4 2578.1 L 4013.2 2578.1 L 4013.2 2654.3 L 3835.4 2654.3 L 3835.4 2578.1 Z M 4165.6 2578.1 L 4343.4 2578.1 L 4343.4 2654.3 L 4165.6 2654.3 L 4165.6 2578.1 Z"/>
    <path id="piece_005" style="fill:none;stroke:#000000;stroke-width:0.0508" d="M 4724.4 1433.69 L 4800.6 1433.69 L 4800.6 1586.09 L 4724.4 1586.09 L 4724.4 1749.78 L 4800.6 1749.78 L 4800.6 1902.18 L 4724.4 1902.18 L 4724.4 2065.87 L 4800.6 2065.87 L 4800.6 2218.27 L 4724.4 2218.27 L 4724.4 2381.96 L 4800.6 2381.96 L 4800.6 2534.36 L 4724.4 2534.36 L 4724.4 2698.04 L 4800.6 2698.04 L 4800.6 2850.44 L 4724.4 2850.44 L 4724.4 3014.13 L 4800.6 3014.13 L 4800.6 3166.53 L 4724.4 3166.53 L 4724.4 3330.22 L 4800.6 3330.22 L 4800.6 3482.62 L 4724.4 3482.62 L 4724.4 3646.31 L 4800.6 3646.31 L 4800.6 3798.71 L 4724.4 3798.71 L 4724.4 3962.4 L 4905.83 3962.4 L 4905.83 3886.2 L 5058.23 3886.2 L 5058.23 3962.4 L 5239.66 3962.4 L 5239.66 3886.2 L 5392.06 3886.2 L 5392.06 3962.4 L 5573.49 3962.4 L 5573.49 3886.2 L 5725.89 3886.2 L 5725.89 3962.4 L 5907.31 3962.4 L 5907.31 3886.2 L 6059.71 3886.2 L 6059.71 3962.4 L 6241.14 3962.4 L 6241.14 3886.2 L 6393.54 3886.2 L 6393.54 3962.4 L 6574.97 3962.4 L 6574.97 3886.2 L 6727.37 3886.2 L 6727.37 3962.4 L 6908.8 3962.4 L 6908.8 3798.71 L 6832.6 3798.71 L 6832.6 3646.31 L 6908.8 3646.31 L 6908.8 3482.62 L 6832.6 3482.62 L 6832.6 3330.22 L 6908.8 3330.22 L 6908.8 3166.53 L 6832.6 3166.53 L 6832.6 3014.13 L 6908.8 3014.13 L 6908.8 2850.44 L 6832.6 2850.44 L 6832.6 2698.04 L 6908.8 2698.04 L 6908.8 2534.36 L 6832.6 2534.36 L 6832.6 2381.96 L 6908.8 2381.96 L 6908.8 2218.27 L 6832.6 2218.27 L 6832.6 2065.87 L 6908.8 2065.87 L 6908.8 1902.18 L 6832.6 1902.18 L 6832.6 1749.78 L 6908.8 1749.78 L 6908.8 1586.09 L 6832.6 1586.09 L 6832.6 1433.69 L 6908.8 1433.69 L 6908.8 1270 L 6727.37 1270 L 6727.37 1346.2 L 6574.97 1346.2 L 6574.97 1270 L 6393.54 1270 L 6393.54 1346.2 L 6241.14 1346.2 L 6241.14 1270 L 6059.71 1270 L 6059.71 1346.2 L 5907.31 1346.2 L 5907.31 1270 L 5725.89 1270 L 5725.89 1346.2 L 5573.49 1346.2 L 5573.49 1270 L 5392.06 1270 L 5392.06 1346.2 L 5239.66 1346.2 L 5239.66 1270 L 5058.23 1270 L 5058.23 1346.2 L 4905.83 1346.2 L 4905.83 1270 L 4724.4 1270 L 4724.4 1433.69 Z M 4905.83 2578.1 L 5058.23 2578.1 L 5058.23 2654.3 L 4905.83 2654.3 L 4905.83 2578.1 Z M 5239.66 2578.1 L 5392.06 2578.1 L 5392.06 2654.3 L 5239.66 2654.3 L 5239.66 2578.1 Z M 5573.49 2578.1 L 5725.89 2578.1 L 5725.89 2654.3 L 5573.49 2654.3 L 5573.49 2578.1 Z M 5778.5 1433.69 L 5854.7 1433.69 L 5854.7 1586.09 L 5778.5 1586.09 L 5778.5 1433.69 Z M 5778.5 1749.78 L 5854.7 1749.78 L 5854.7 1902.18 L 5778.5 1902.18 L 5778.5 1749.78 Z M 5778.5 2065.87 L 5854.7 2065.87 L 5854.7 2218.27 L 5778.5 2218.27 L 5778.5 2065.87 Z M 5778.5 2381.96 L 5854.7 2381.96 L 5854.7 2534.36 L 5778.5 2534.36 L 5778.5 2381.96 Z M 5778.5 2698.04 L 5854.7 2698.04 L 5854.7 2850.44 L 5778.5 2850.44 L 5778.5 2698.04 Z M 5778.5 3014.13 L 5854.7 3014.13 L 5854.7 3166.53 L 5778.5 3166.53 L 5778.5 3014.13 Z M 5778.5 3330.22 L 5854.7 3330.22 L 5854.7 3482.62 L 5778.5 3482.62 L 5778.5 3330.22 Z M 5778.5 3646.31 L 5854.7 3646.31 L 5854.7 3798.71 L 5778.5 3798.71 L 5778.5 3646.31 Z M 5907.31 2578.1 L 6059.71 2578.1 L 6059.71 2654.3 L 5907.31 2654.3 L 5907.31 2578.1 Z M 6241.14 2578.1 L 6393.54 2578.1 L 6393.54 2654.3 L 6241.14 2654.3 L 6241.14 2578.1 Z M 6574.97 2578.1 L 6727.37 2578.1 L 6727.37 2654.3 L 6574.97 2654.3 L 6574.97 2578.1 Z"/>
    <path id="piece_006" style="fill:none;stroke:#000000;stroke-width:0.0508" d="M 1270 228.6 L 1346.2 228.6 L 1346.2 381 L 1270 381 L 1270 558.8 L 1346.2 558.8 L 1346.2 711.2 L 1270 711.2 L 1270 889 L 1346.2 889 L 1346.2 1041.4 L 1270 1041.4 L 1270 1143 L 1451.43 1143 L 1451.43 1219.2 L 1603.83 1219.2 L 1603.83 1143 L 1785.26 1143 L 1785.26 1219.2 L 1937.66 1219.2 L 1937.66 1143 L 2119.09 1143 L 2119.09 1219.2 L 2271.49 1219.2 L 2271.49 1143 L 2452.91 1143 L 2452.91 1219.2 L 2605.31 1219.2 L 2605.31 1143 L 2786.74 1143 L 2786.74 1219.2 L 2939.14 1219.2 L 2939.14 1143 L 3120.57 1143 L 3120.57 1219.2 L 3272.97 1219.2 L 3272.97 1143 L 3454.4 1143 L 3454.4 1041.4 L 3378.2 1041.4 L 3378.2 889 L 3454.4 889 L 3454.4 711.2 L 3378.2 711.2 L 3378.2 558.8 L 3454.4 558.8 L 3454.4 381 L 3378.2 381 L 3378.2 228.6 L 3454.4 228.6 L 3454.4 127 L 3272.97 127 L 3272.97 50.8 L 3120.57 50.8 L 3120.57 127 L 2939.14 127 L 2939.14 50.8 L 2786.74 50.8 L 2786.74 127 L 2605.31 127 L 2605.31 50.8 L 2452.91 50.8 L 2452.91 127 L 2271.49 127 L 2271.49 50.8 L 2119.09 50.8 L 2119.09 127 L 1937.66 127 L 1937.66 50.8 L 1785.26 50.8 L 1785.26 127 L 1603.83 127 L 1603.83 50.8 L 1451.43 50.8 L 1451.43 127 L 1270 127 L 1270 228.6 Z M 2324.1 228.6 L 2400.3 228.6 L 2400.3 381 L 2324.1 381 L 2324.1 228.6 Z M 2324.1 558.8 L 2400.3 558.8 L 2400.3 711.2 L 2324.1 711.2 L 2324.1 558.8 Z M 2324.1 889 L 2400.3 889 L 2400.3 1041.4 L 2324.1 1041.4 L 2324.1 889 Z"/>
  </g>
</svg>