<!-- Created with Inkscape (http://www.inkscape.org/) -->
<svg xmlns:inkscape="http://www.inkscape.org/namespaces/inkscape" xmlns:sodipodi="http://sodipodi.sourceforge.net/DTD/sodipodi-0.dtd" xmlns="http://www.w3.org/2000/svg" xmlns:svg="http://www.w3.org/2000/svg" width="321mm" height="233mm" viewBox="0 0 321 233" version="1.1" id="svg5" inkscape:version="1.1.2 (0a00cf5339, 2022-02-04)" sodipodi:docname="blank.svg">
  <sodipodi:namedview id="namedview7" pagecolor="#ffffff" bordercolor="#666666" borderopacity="1.0" inkscape:pageshadow="2" inkscape:pageopacity="0.0" inkscape:pagecheckerboard="0" inkscape:document-units="mm" showgrid="false" inkscape:zoom="0.64052329" inkscape:cx="397.33138" inkscape:cy="561.25984" inkscape:window-width="2086" inkscape:window-height="1376" inkscape:window-x="0" inkscape:window-y="0" inkscape:window-maximized="1" inkscape:current-layer="layer1"/>
  <defs id="defs2"/>
  <g inkscape:label="Layer 1" inkscape:groupmode="layer" id="layer1">
    <metadata text="createArgs=['--unit=mm', '--inside=1', '--length=80', '--depth=40', '--equal=0', '--tab=6', '--tabtype=0', '--tabsymmetry=0', '--dimpleheight=0', '--dimplelength=0', '--hairline=1', '--thickness=3', '--kerf=0', '--style=1', '--boxtype=1', '--div-l=1', '--div-w=1', '--keydiv=0', '--spacing=2', '--width=80']"/>
    <g id="piece_001">
      <path id="side_001" style="fill:none;stroke:#000000;stroke-width:0.0508" d="M 50 141 L 57.1429 141 L 57.1429 138 L 63.1429 138 L 63.1429 141 L 70.2857 141 L 70.2857 138 L 76.2857 138 L 76.2857 141 L 83.4286 141 L 83.4286 138 L 89.4286 138 L 89.4286 141 L 96.5714 141 L 96.5714 138 L 102.571 138 L 102.571 141 L 109.714 141 L 109.714 138 L 115.714 138 L 115.714 141 L 122.857 141 L 122.857 138 L 128.857 138 L 128.857 141 L 136 141"/>
      <path id="side_002" style="fill:none;stroke:#000000;stroke-width:0.0508" d="M 136 141 L 136 145 L 133 145 L 133 151 L 136 151 L 136 158 L 133 158 L 133 164 L 136 164 L 136 171 L 133 171 L 133 177 L 136 177 L 136 181"/>
      <path id="hole_001" style="fill:none;stroke:#000000;stroke-width:0.0508" d="M 94.5 145 L 94.5 151 L 91.5 151 L 91.5 145 L 94.5 145 Z"/>
      <path id="hole_002" style="fill:none;stroke:#000000;stroke-width:0.0508" d="M 94.5 158 L 94.5 164 L 91.5 164 L 91.5 158 L 94.5 158 Z"/>
      <path id="hole_003" style="fill:none;stroke:#000000;stroke-width:0.0508" d="M 94.5 171 L 94.5 177 L 91.5 177 L 91.5 171 L 94.5 171 Z"/>
      <path id="side_003" style="fill:none;stroke:#000000;stroke-width:0.0508" d="M 136 181 L 128.857 181 L 128.857 184 L 122.857 184 L 122.857 181 L 115.714 181 L 115.714 184 L 109.714 184 L 109.714 181 L 102.571 181 L 102.571 184 L 96.5714 184 L 96.5714 181 L 89.4286 181 L 89.4286 184 L 83.4286 184 L 83.4286 181 L 76.2857 181 L 76.2857 184 L 70.2857 184 L 70.2857 181 L 63.1429 181 L 63.1429 184 L 57.1429 184 L 57.1429 181 L 50 181"/>
      <path id="side_004" style="fill:none;stroke:#000000;stroke-width:0.0508" d="M 50 181 L 50 177 L 53 177 L 53 171 L 50 171 L 50 164 L 53 164 L 53 158 L 50 158 L 50 151 L 53 151 L 53 145 L 50 145 L 50 141"/>
    </g>
    <g id="xdivider_001">
      <path id="side_005" style="fill:none;stroke:#000000;stroke-width:0.0508" d="M 50 189 L 57.1429 189 L 57.1429 186 L 63.1429 186 L 63.1429 189 L 70.2857 189 L 70.2857 186 L 76.2857 186 L 76.2857 189 L 83.4286 189 L 83.4286 186 L 89.4286 186 L 89.4286 189 L 96.5714 189 L 96.5714 186 L 102.571 186 L 102.571 189 L 109.714 189 L 109.714 186 L 115.714 186 L 115.714 189 L 122.857 189 L 122.857 186 L 128.857 186 L 128.857 189 L 136 189"/>
      <path id="side_006" style="fill:none;stroke:#000000;stroke-width:0.0508" d="M 136 189 L 136 193 L 133 193 L 133 199 L 136 199 L 136 206 L 133 206 L 133 212 L 136 212 L 136 219 L 133 219 L 133 225 L 136 225 L 136 229"/>
      <path id="slot_001" style="fill:none;stroke:#000000;stroke-width:0.0508" d="M 94.5 186 L 94.5 209 L 91.5 209 L 91.5 186 L 94.5 186 Z"/>
      <path id="side_007" style="fill:none;stroke:#000000;stroke-width:0.0508" d="M 136 229 L 128.857 229 L 128.857 232 L 122.857 232 L 122.857 229 L 115.714 229 L 115.714 232 L 109.714 232 L 109.714 229 L 102.571 229 L 102.571 232 L 96.5714 232 L 96.5714 229 L 89.4286 229 L 89.4286 232 L 83.4286 232 L 83.4286 229 L 76.2857 229 L 76.2857 232 L 70.2857 232 L 70.2857 229 L 63.1429 229 L 63.1429 232 L 57.1429 232 L 57.1429 229 L 50 229"/>
      <path id="side_008" style="fill:none;stroke:#000000;stroke-width:0.0508" d="M 50 229 L 50 225 L 53 225 L 53 219 L 50 219 L 50 212 L 53 212 L 53 206 L 50 206 L 50 199 L 53 199 L 53 193 L 50 193 L 50 189"/>
    </g>
    <g id="piece_002">
      <path id="side_009" style="fill:none;stroke:#000000;stroke-width:0.0508" d="M 5 53 L 9 53 L 9 50 L 15 50 L 15 53 L 22 53 L 22 50 L 28 50 L 28 53 L 35 53 L 35 50 L 41 50 L 41 53 L 45 53"/>
      <path id="hole_004" style="fill:none;stroke:#000000;stroke-width:0.0508" d="M 5 91.5 L 9 91.5 L 9 94.5 L 5 94.5 L 5 91.5 Z"/>
      <path id="hole_005" style="fill:none;stroke:#000000;stroke-width:0.0508" d="M 15 91.5 L 22 91.5 L 22 94.5 L 15 94.5 L 15 91.5 Z"/>
      <path id="hole_006" style="fill:none;stroke:#000000;stroke-width:0.0508" d="M 28 91.5 L 35 91.5 L 35 94.5 L 28 94.5 L 28 91.5 Z"/>
      <path id="hole_007" style="fill:none;stroke:#000000;stroke-width:0.0508" d="M 41 91.5 L 45 91.5 L 45 94.5 L 41 94.5 L 41 91.5 Z"/>
      <path id="side_010" style="fill:none;stroke:#000000;stroke-width:0.0508" d="M 45 53 L 45 57.1429 L 48 57.1429 L 48 63.1429 L 45 63.1429 L 45 70.2857 L 48 70.2857 L 48 76.2857 L 45 76.2857 L 45 83.4286 L 48 83.4286 L 48 89.4286 L 45 89.4286 L 45 96.5714 L 48 96.5714 L 48 102.571 L 45 102.571 L 45 109.714 L 48 109.714 L 48 115.714 L 45 115.714 L 45 122.857 L 48 122.857 L 48 128.857 L 45 128.857 L 45 133"/>
      <path id="side_011" style="fill:none;stroke:#000000;stroke-width:0.0508" d="M 45 133 L 41 133 L 41 136 L 35 136 L 35 133 L 28 133 L 28 136 L 22 136 L 22 133 L 15 133 L 15 136 L 9 136 L 9 133 L 5 133"/>
      <path id="side_012" style="fill:none;stroke:#000000;stroke-width:0.0508" d="M 5 133 L 5 128.857 L 2 128.857 L 2 122.857 L 5 122.857 L 5 115.714 L 2 115.714 L 2 109.714 L 5 109.714 L 5 102.571 L 2 102.571 L 2 96.5714 L 5 96.5714 L 5 89.4286 L 2 89.4286 L 2 83.4286 L 5 83.4286 L 5 76.2857 L 2 76.2857 L 2 70.2857 L 5 70.2857 L 5 63.1429 L 2 63.1429 L 2 57.1429 L 5 57.1429 L 5 53"/>
    </g>
    <g id="ydivider_001">
      <path id="side_013" style="fill:none;stroke:#000000;stroke-width:0.0508" d="M 277 53 L 281 53 L 281 50 L 287 50 L 287 53 L 294 53 L 294 50 L 300 50 L 300 53 L 307 53 L 307 50 L 313 50 L 313 53 L 317 53"/>
      <path id="slot_002" style="fill:none;stroke:#000000;stroke-width:0.0508" d="M 274 91.5 L 297 91.5 L 297 94.5 L 274 94.5 L 274 91.5 Z"/>
      <path id="side_014" style="fill:none;stroke:#000000;stroke-width:0.0508" d="M 317 53 L 317 57.1429 L 320 57.1429 L 320 63.1429 L 317 63.1429 L 317 70.2857 L 320 70.2857 L 320 76.2857 L 317 76.2857 L 317 83.4286 L 320 83.4286 L 320 89.4286 L 317 89.4286 L 317 96.5714 L 320 96.5714 L 320 102.571 L 317 102.571 L 317 109.714 L 320 109.714 L 320 115.714 L 317 115.714 L 317 122.857 L 320 122.857 L 320 128.857 L 317 128.857 L 317 133"/>
      <path id="side_015" style="fill:none;stroke:#000000;stroke-width:0.0508" d="M 317 133 L 313 133 L 313 136 L 307 136 L 307 133 L 300 133 L 300 136 L 294 136 L 294 133 L 287 133 L 287 136 L 281 136 L 281 133 L 277 133"/>
      <path id="side_016" style="fill:none;stroke:#000000;stroke-width:0.0508" d="M 277 133 L 277 128.857 L 274 128.857 L 274 122.857 L 277 122.857 L 277 115.714 L 274 115.714 L 274 109.714 L 277 109.714 L 277 102.571 L 274 102.571 L 274 96.5714 L 277 96.5714 L 277 89.4286 L 274 89.4286 L 274 83.4286 L 277 83.4286 L 277 76.2857 L 274 76.2857 L 274 70.2857 L 277 70.2857 L 277 63.1429 L 274 63.1429 L 274 57.1429 L 277 57.1429 L 277 53"/>
    </g>
    <g id="piece_003">
      <path id="side_017" style="fill:none;stroke:#000000;stroke-width:0.0508" d="M 50 50 L 57.1429 50 L 57.1429 53 L 63.1429 53 L 63.1429 50 L 70.2857 50 L 70.2857 53 L 76.2857 53 L 76.2857 50 L 83.4286 50 L 83.4286 53 L 89.4286 53 L 89.4286 50 L 96.5714 50 L 96.5714 53 L 102.571 53 L 102.571 50 L 109.714 50 L 109.714 53 L 115.714 53 L 115.714 50 L 122.857 50 L 122.857 53 L 128.857 53 L 128.857 50 L 136 50"/>
      <path id="hole_008" style="fill:none;stroke:#000000;stroke-width:0.0508" d="M 57.1429 91.5 L 63.1429 91.5 L 63.1429 94.5 L 57.1429 94.5 L 57.1429 91.5 Z"/>
      <path id="hole_009" style="fill:none;stroke:#000000;stroke-width:0.0508" d="M 70.2857 91.5 L 76.2857 91.5 L 76.2857 94.5 L 70.2857 94.5 L 70.2857 91.5 Z"/>
      <path id="hole_010" style="fill:none;stroke:#000000;stroke-width:0.0508" d="M 83.4286 91.5 L 89.4286 91.5 L 89.4286 94.5 L 83.4286 94.5 L 83.4286 91.5 Z"/>
      <path id="hole_011" style="fill:none;stroke:#000000;stroke-width:0.0508" d="M 96.5714 91.5 L 102.571 91.5 L 102.571 94.5 L 96.5714 94.5 L 96.5714 91.5 Z"/>
      <path id="hole_012" style="fill:none;stroke:#000000;stroke-width:0.0508" d="M 109.714 91.5 L 115.714 91.5 L 115.714 94.5 L 109.714 94.5 L 109.714 91.5 Z"/>
      <path id="hole_013" style="fill:none;stroke:#000000;stroke-width:0.0508" d="M 122.857 91.5 L 128.857 91.5 L 128.857 94.5 L 122.857 94.5 L 122.857 91.5 Z"/>
      <path id="side_018" style="fill:none;stroke:#000000;stroke-width:0.0508" d="M 136 50 L 136 57.1429 L 133 57.1429 L 133 63.1429 L 136 63.1429 L 136 70.2857 L 133 70.2857 L 133 76.2857 L 136 76.2857 L 136 83.4286 L 133 83.4286 L 133 89.4286 L 136 89.4286 L 136 96.5714 L 133 96.5714 L 133 102.571 L 136 102.571 L 136 109.714 L 133 109.714 L 133 115.714 L 136 115.714 L 136 122.857 L 133 122.857 L 133 128.857 L 136 128.857 L 136 136"/>
      <path id="hole_014" style="fill:none;stroke:#000000;stroke-width:0.0508" d="M 94.5 57.1429 L 94.5 63.1429 L 91.5 63.1429 L 91.5 57.1429 L 94.5 57.1429 Z"/>
      <path id="hole_015" style="fill:none;stroke:#000000;stroke-width:0.0508" d="M 94.5 70.2857 L 94.5 76.2857 L 91.5 76.2857 L 91.5 70.2857 L 94.5 70.2857 Z"/>
      <path id="hole_016" style="fill:none;stroke:#000000;stroke-width:0.0508" d="M 94.5 83.4286 L 94.5 89.4286 L 91.5 89.4286 L 91.5 83.4286 L 94.5 83.4286 Z"/>
      <path id="hole_017" style="fill:none;stroke:#000000;stroke-width:0.0508" d="M 94.5 96.5714 L 94.5 102.571 L 91.5 102.571 L 91.5 96.5714 L 94.5 96.5714 Z"/>
      <path id="hole_018" style="fill:none;stroke:#000000;stroke-width:0.0508" d="M 94.5 109.714 L 94.5 115.714 L 91.5 115.714 L 91.5 109.714 L 94.5 109.714 Z"/>
      <path id="hole_019" style="fill:none;stroke:#000000;stroke-width:0.0508" d="M 94.5 122.857 L 94.5 128.857 L 91.5 128.857 L 91.5 122.857 L 94.5 122.857 Z"/>
      <path id="side_019" style="fill:none;stroke:#000000;stroke-width:0.0508" d="M 136 136 L 128.857 136 L 128.857 133 L 122.857 133 L 122.857 136 L 115.714 136 L 115.714 133 L 109.714 133 L 109.714 136 L 102.571 136 L 102.571 133 L 96.5714 133 L 96.5714 136 L 89.4286 136 L 89.4286 133 L 83.4286 133 L 83.4286 136 L 76.2857 136 L 76.2857 133 L 70.2857 133 L 70.2857 136 L 63.1429 136 L 63.1429 133 L 57.1429 133 L 57.1429 136 L 50 136"/>
      <path id="side_020" style="fill:none;stroke:#000000;stroke-width:0.0508" d="M 50 136 L 50 128.857 L 53 128.857 L 53 122.857 L 50 122.857 L 50 115.714 L 53 115.714 L 53 109.714 L 50 109.714 L 50 102.571 L 53 102.571 L 53 96.5714 L 50 96.5714 L 50 89.4286 L 53 89.4286 L 53 83.4286 L 50 83.4286 L 50 76.2857 L 53 76.2857 L 53 70.2857 L 50 70.2857 L 50 63.1429 L 53 63.1429 L 53 57.1429 L 50 57.1429 L 50 50"/>
    </g>
    <g id="piece_004">
      <path id="side_021" style="fill:none;stroke:#000000;stroke-width:0.0508" d="M 141 53 L 145 53 L 145 50 L 151 50 L 151 53 L 158 53 L 158 50 L 164 50 L 164 53 L 171 53 L 171 50 L 177 50 L 177 53 L 181 53"/>
      <path id="hole_020" style="fill:none;stroke:#000000;stroke-width:0.0508" d="M 141 91.5 L 145 91.5 L 145 94.5 L 141 94.5 L 141 91.5 Z"/>
      <path id="hole_021" style="fill:none;stroke:#000000;stroke-width:0.0508" d="M 151 91.5 L 158 91.5 L 158 94.5 L 151 94.5 L 151 91.5 Z"/>
      <path id="hole_022" style="fill:none;stroke:#000000;stroke-width:0.0508" d="M 164 91.5 L 171 91.5 L 171 94.5 L 164 94.5 L 164 91.5 Z"/>
      <path id="hole_023" style="fill:none;stroke:#000000;stroke-width:0.0508" d="M 177 91.5 L 181 91.5 L 181 94.5 L 177 94.5 L 177 91.5 Z"/>
      <path id="side_022" style="fill:none;stroke:#000000;stroke-width:0.0508" d="M 181 53 L 181 57.1429 L 184 57.1429 L 184 63.1429 L 181 63.1429 L 181 70.2857 L 184 70.2857 L 184 76.2857 L 181 76.2857 L 181 83.4286 L 184 83.4286 L 184 89.4286 L 181 89.4286 L 181 96.5714 L 184 96.5714 L 184 102.571 L 181 102.571 L 181 109.714 L 184 109.714 L 184 115.714 L 181 115.714 L 181 122.857 L 184 122.857 L 184 128.857 L 181 128.857 L 181 133"/>
      <path id="side_023" style="fill:none;stroke:#000000;stroke-width:0.0508" d="M 181 133 L 177 133 L 177 136 L 171 136 L 171 133 L 164 133 L 164 136 L 158 136 L 158 133 L 151 133 L 151 136 L 145 136 L 145 133 L 141 133"/>
      <path id="side_024" style="fill:none;stroke:#000000;stroke-width:0.0508" d="M 141 133 L 141 128.857 L 138 128.857 L 138 122.857 L 141 122.857 L 141 115.714 L 138 115.714 L 138 109.714 L 141 109.714 L 141 102.571 L 138 102.571 L 138 96.5714 L 141 96.5714 L 141 89.4286 L 138 89.4286 L 138 83.4286 L 141 83.4286 L 141 76.2857 L 138 76.2857 L 138 70.2857 L 141 70.2857 L 141 63.1429 L 138 63.1429 L 138 57.1429 L 141 57.1429 L 141 53"/>
    </g>
    <g id="piece_005">
      <path id="side_025" style="fill:none;stroke:#000000;stroke-width:0.0508" d="M 186 50 L 193.143 50 L 193.143 53 L 199.143 53 L 199.143 50 L 206.286 50 L 206.286 53 L 212.286 53 L 212.286 50 L 219.429 50 L 219.429 53 L 225.429 53 L 225.429 50 L 232.571 50 L 232.571 53 L 238.571 53 L 238.571 50 L 245.714 50 L 245.714 53 L 251.714 53 L 251.714 50 L 258.857 50 L 258.857 53 L 264.857 53 L 264.857 50 L 272 50"/>
      <path id="hole_024" style="fill:none;stroke:#000000;stroke-width:0.0508" d="M 193.143 91.5 L 199.143 91.5 L 199.143 94.5 L 193.143 94.5 L 193.143 91.5 Z"/>
      <path id="hole_025" style="fill:none;stroke:#000000;stroke-width:0.0508" d="M 206.286 91.5 L 212.286 91.5 L 212.286 94.5 L 206.286 94.5 L 206.286 91.5 Z"/>
      <path id="hole_026" style="fill:none;stroke:#000000;stroke-width:0.0508" d="M 219.429 91.5 L 225.429 91.5 L 225.429 94.5 L 219.429 94.5 L 219.429 91.5 Z"/>
      <path id="hole_027" style="fill:none;stroke:#000000;stroke-width:0.0508" d="M 232.571 91.5 L 238.571 91.5 L 238.571 94.5 L 232.571 94.5 L 232.571 91.5 Z"/>
      <path id="hole_028" style="fill:none;stroke:#000000;stroke-width:0.0508" d="M 245.714 91.5 L 251.714 91.5 L 251.714 94.5 L 245.714 94.5 L 245.714 91.5 Z"/>
      <path id="hole_029" style="fill:none;stroke:#000000;stroke-width:0.0508" d="M 258.857 91.5 L 264.857 91.5 L 264.857 94.5 L 258.857 94.5 L 258.857 91.5 Z"/>
      <path id="side_026" style="fill:none;stroke:#000000;stroke-width:0.0508" d="M 272 50 L 272 57.1429 L 269 57.1429 L 269 63.1429 L 272 63.1429 L 272 70.2857 L 269 70.2857 L 269 76.2857 L 272 76.2857 L 272 83.4286 L 269 83.4286 L 269 89.4286 L 272 89.4286 L 272 96.5714 L 269 96.5714 L 269 102.571 L 272 102.571 L 272 109.714 L 269 109.714 L 269 115.714 L 272 115.714 L 272 122.857 L 269 122.857 L 269 128.857 L 272 128.857 L 272 136"/>
      <path id="hole_030" style="fill:none;stroke:#000000;stroke-width:0.0508" d="M 230.5 57.1429 L 230.5 63.1429 L 227.5 63.1429 L 227.5 57.1429 L 230.5 57.1429 Z"/>
      <path id="hole_031" style="fill:none;stroke:#000000;stroke-width:0.0508" d="M 230.5 70.2857 L 230.5 76.2857 L 227.5 76.2857 L 227.5 70.2857 L 230.5 70.2857 Z"/>
      <path id="hole_032" style="fill:none;stroke:#000000;stroke-width:0.0508" d="M 230.5 83.4286 L 230.5 89.4286 L 227.5 89.4286 L 227.5 83.4286 L 230.5 83.4286 Z"/>
      <path id="hole_033" style="fill:none;stroke:#000000;stroke-width:0.0508" d="M 230.5 96.5714 L 230.5 102.571 L 227.5 102.571 L 227.5 96.5714 L 230.5 96.5714 Z"/>
      <path id="hole_034" style="fill:none;stroke:#000000;stroke-width:0.0508" d="M 230.5 109.714 L 230.5 115.714 L 227.5 115.714 L 227.5 109.714 L 230.5 109.714 Z"/>
      <path id="hole_035" style="fill:none;stroke:#000000;stroke-width:0.0508" d="M 230.5 122.857 L 230.5 128.857 L 227.5 128.857 L 227.5 122.857 L 230.5 122.857 Z"/>
      <path id="side_027" style="fill:none;stroke:#000000;stroke-width:0.0508" d="M 272 136 L 264.857 136 L 264.857 133 L 258.857 133 L 258.857 136 L 251.714 136 L 251.714 133 L 245.714 133 L 245.714 136 L 238.571 136 L 238.571 133 L 232.571 133 L 232.571 136 L 225.429 136 L 225.429 133 L 219.429 133 L 219.429 136 L 212.286 136 L 212.286 133 L 206.286 133 L 206.286 136 L 199.143 136 L 199.143 133 L 193.143 133 L 193.143 136 L 186 136"/>
      <path id="side_028" style="fill:none;stroke:#000000;stroke-width:0.0508" d="M 186 136 L 186 128.857 L 189 128.857 L 189 122.857 L 186 122.857 L 186 115.714 L 189 115.714 L 189 109.714 L 186 109.714 L 186 102.571 L 189 102.571 L 189 96.5714 L 186 96.5714 L 186 89.4286 L 189 89.4286 L 189 83.4286 L 186 83.4286 L 186 76.2857 L 189 76.2857 L 189 70.2857 L 186 70.2857 L 186 63.1429 L 189 63.1429 L 189 57.1429 L 186 57.1429 L 186 50"/>
    </g>
    <g id="piece_006">
      <path id="side_029" style="fill:none;stroke:#000000;stroke-width:0.0508" d="M 50 5 L 57.1429 5 L 57.1429 2 L 63.1429 2 L 63.1429 5 L 70.2857 5 L 70.2857 2 L 76.2857 2 L 76.2857 5 L 83.4286 5 L 83.4286 2 L 89.4286 2 L 89.4286 5 L 96.5714 5 L 96.5714 2 L 102.571 2 L 102.571 5 L 109.714 5 L 109.714 2 L 115.714 2 L 115.714 5 L 122.857 5 L 122.857 2 L 128.857 2 L 128.857 5 L 136 5"/>
      <path id="side_030" style="fill:none;stroke:#000000;stroke-width:0.0508" d="M 136 5 L 136 9 L 133 9 L 133 15 L 136 15 L 136 22 L 133 22 L 133 28 L 136 28 L 136 35 L 133 35 L 133 41 L 136 41 L 136 45"/>
      <path id="hole_036" style="fill:none;stroke:#000000;stroke-width:0.0508" d="M 94.5 9 L 94.5 15 L 91.5 15 L 91.5 9 L 94.5 9 Z"/>
      <path id="hole_037" style="fill:none;stroke:#000000;stroke-width:0.0508" d="M 94.5 22 L 94.5 28 L 91.5 28 L 91.5 22 L 94.5 22 Z"/>
      <path id="hole_038" style="fill:none;stroke:#000000;stroke-width:0.0508" d="M 94.5 35 L 94.5 41 L 91.5 41 L 91.5 35 L 94.5 35 Z"/>
      <path id="side_031" style="fill:none;stroke:#000000;stroke-width:0.0508" d="M 136 45 L 128.857 45 L 128.857 48 L 122.857 48 L 122.857 45 L 115.714 45 L 115.714 48 L 109.714 48 L 109.714 45 L 102.571 45 L 102.571 48 L 96.5714 48 L 96.5714 45 L 89.4286 45 L 89.4286 48 L 83.4286 48 L 83.4286 45 L 76.2857 45 L 76.2857 48 L 70.2857 48 L 70.2857 45 L 63.1429 45 L 63.1429 48 L 57.1429 48 L 57.1429 45 L 50 45"/>
      <path id="side_032" style="fill:none;stroke:#000000;stroke-width:0.0508" d="M 50 45 L 50 41 L 53 41 L 53 35 L 50 35 L 50 28 L 53 28 L 53 22 L 50 22 L 50 15 L 53 15 L 53 9 L 50 9 L 50 5"/>
    </g>
  </g>
</svg>