<!-- Created with Inkscape (http://www.inkscape.org/) -->
<svg xmlns:inkscape="http://www.inkscape.org/namespaces/inkscape" xmlns:sodipodi="http://sodipodi.sourceforge.net/DTD/sodipodi-0.dtd" xmlns="http://www.w3.org/2000/svg" xmlns:svg="http://www.w3.org/2000/svg" width="423.252mm" height="322.00000000438393mm" viewBox="0 0 423.252 322.00000000438393" version="1.1" sodipodi:docname="blank.svg">
  <sodipodi:namedview/>
  <defs id="defaults"/>
  <g inkscape:label="Living Hinge Box" id="livinghingebox_001">
    <metadata text="$ livinghinge.py --unit=mm --inside=True --length=100.00 --width=100.00 --depth=100.00 --thickness=3.00 --equal=0 --tab=5.00 --hingeOpt=1 --hingeThick=2.00 --thumbTab=15.00 --hairline=True --line-thickness=0.100 --line-color=black --kerf=0.100 --clearance=0.010 --style=0 --spacing=1.00"/>
    <path id="piece_001" style="fill:none;stroke:#000000;stroke-width:0.1" d="M 108 218 L 108 220.136 L 111 220.136 L 111 225.046 L 108 225.046 L 108 230.227 L 111 230.227 L 111 235.137 L 108 235.137 L 108 240.318 L 111 240.318 L 111 245.228 L 108 245.228 L 108 250.409 L 111 250.409 L 111 255.319 L 108 255.319 L 108 260.5 L 111 260.5 L 111 265.41 L 108 265.41 L 108 270.59 L 111 270.59 L 111 275.5 L 108 275.5 L 108 280.681 L 111 280.681 L 111 285.591 L 108 285.591 L 108 290.772 L 111 290.772 L 111 295.682 L 108 295.682 L 108 300.863 L 111 300.863 L 111 305.773 L 108 305.773 L 108 310.954 L 111 310.954 L 111 315.864 L 108 315.864 L 108 321 L 161 321 A 53 53 0 0 0 198.477 305.477 A 53 53 0 0 0 214 268 L 214 255.319 L 211 255.319 L 211 250.409 L 214 250.409 L 214 245.228 L 211 245.228 L 211 240.318 L 214 240.318 L 214 235.137 L 211 235.137 L 211 230.227 L 214 230.227 L 214 225.046 L 211 225.046 L 211 220.136 L 214 220.136 L 214 218 L 208.954 218 L 208.954 215 L 203.864 215 L 203.864 218 L 198.863 218 L 198.863 215 L 193.773 215 L 193.773 218 L 188.772 218 L 188.772 215 L 183.682 215 L 183.682 218 L 178.681 218 L 178.681 215 L 173.591 215 L 173.591 218 L 168.59 218 L 168.59 215 L 163.5 215 L 163.5 218 L 158.5 218 L 158.5 215 L 153.41 215 L 153.41 218 L 148.409 218 L 148.409 215 L 143.319 215 L 143.319 218 L 138.318 218 L 138.318 215 L 133.228 215 L 133.228 218 L 128.227 218 L 128.227 215 L 123.137 215 L 123.137 218 L 118.136 218 L 118.136 215 L 113.046 215 L 113.046 218 L 108 218 Z"/>
    <path id="piece_002" style="fill:none;stroke:#000000;stroke-width:0.1" d="M 4 111 L 4 113.046 L 1 113.046 L 1 118.136 L 4 118.136 L 4 123.137 L 1 123.137 L 1 128.227 L 4 128.227 L 4 133.228 L 1 133.228 L 1 138.318 L 4 138.318 L 4 143.319 L 1 143.319 L 1 148.409 L 4 148.409 L 4 153.41 L 1 153.41 L 1 158.5 L 4 158.5 L 4 163.5 L 1 163.5 L 1 168.59 L 4 168.59 L 4 173.591 L 1 173.591 L 1 178.681 L 4 178.681 L 4 183.682 L 1 183.682 L 1 188.772 L 4 188.772 L 4 193.773 L 1 193.773 L 1 198.863 L 4 198.863 L 4 203.864 L 1 203.864 L 1 208.954 L 4 208.954 L 4 211 L 6.04591 211 L 6.04591 214 L 11.1359 214 L 11.1359 211 L 16.1368 211 L 16.1368 214 L 21.2268 214 L 21.2268 211 L 26.2277 211 L 26.2277 214 L 31.3177 214 L 31.3177 211 L 36.3186 211 L 36.3186 214 L 41.4086 214 L 41.4086 211 L 46.4095 211 L 46.4095 214 L 51.4995 214 L 51.4995 211 L 56.5005 211 L 56.5005 214 L 61.5905 214 L 61.5905 211 L 66.5914 211 L 66.5914 214 L 71.6814 214 L 71.6814 211 L 76.6823 211 L 76.6823 214 L 81.7723 214 L 81.7723 211 L 86.7732 211 L 86.7732 214 L 91.8632 214 L 91.8632 211 L 96.8641 211 L 96.8641 214 L 101.954 214 L 101.954 211 L 104 211 L 104 208.954 L 107 208.954 L 107 203.864 L 104 203.864 L 104 198.863 L 107 198.863 L 107 193.773 L 104 193.773 L 104 188.772 L 107 188.772 L 107 183.682 L 104 183.682 L 104 178.681 L 107 178.681 L 107 173.591 L 104 173.591 L 104 168.59 L 107 168.59 L 107 163.5 L 104 163.5 L 104 158.5 L 107 158.5 L 107 153.41 L 104 153.41 L 104 148.409 L 107 148.409 L 107 143.319 L 104 143.319 L 104 138.318 L 107 138.318 L 107 133.228 L 104 133.228 L 104 128.227 L 107 128.227 L 107 123.137 L 104 123.137 L 104 118.136 L 107 118.136 L 107 113.046 L 104 113.046 L 104 111 L 101.954 111 L 101.954 108 L 96.8641 108 L 96.8641 111 L 91.8632 111 L 91.8632 108 L 86.7732 108 L 86.7732 111 L 81.7723 111 L 81.7723 108 L 76.6823 108 L 76.6823 111 L 71.6814 111 L 71.6814 108 L 66.5914 108 L 66.5914 111 L 61.5905 111 L 61.5905 108 L 56.5005 108 L 56.5005 111 L 51.4995 111 L 51.4995 108 L 46.4095 108 L 46.4095 111 L 41.4086 111 L 41.4086 108 L 36.3186 108 L 36.3186 111 L 31.3177 111 L 31.3177 108 L 26.2277 108 L 26.2277 111 L 21.2268 111 L 21.2268 108 L 16.1368 108 L 16.1368 111 L 11.1359 111 L 11.1359 108 L 6.04591 108 L 6.04591 111 L 4 111 Z"/>
    <path id="piece_003" style="fill:none;stroke:#000000;stroke-width:0.1" d="M 108 108 L 108 113.136 L 111 113.136 L 111 118.046 L 108 118.046 L 108 123.227 L 111 123.227 L 111 128.137 L 108 128.137 L 108 133.318 L 111 133.318 L 111 138.228 L 108 138.228 L 108 143.409 L 111 143.409 L 111 148.319 L 108 148.319 L 108 153.5 L 111 153.5 L 111 158.41 L 108 158.41 L 108 163.59 L 111 163.59 L 111 168.5 L 108 168.5 L 108 173.681 L 111 173.681 L 111 178.591 L 108 178.591 L 108 183.772 L 111 183.772 L 111 188.682 L 108 188.682 L 108 193.863 L 111 193.863 L 111 198.773 L 108 198.773 L 108 203.954 L 111 203.954 L 111 208.864 L 108 208.864 L 108 214 L 113.136 214 L 113.136 211 L 118.046 211 L 118.046 214 L 123.227 214 L 123.227 211 L 128.137 211 L 128.137 214 L 133.318 214 L 133.318 211 L 138.228 211 L 138.228 214 L 143.409 214 L 143.409 211 L 148.319 211 L 148.319 214 L 153.5 214 L 153.5 211 L 158.41 211 L 158.41 214 L 163.59 214 L 163.59 211 L 168.5 211 L 168.5 214 L 173.681 214 L 173.681 211 L 178.591 211 L 178.591 214 L 183.772 214 L 183.772 211 L 188.682 211 L 188.682 214 L 193.863 214 L 193.863 211 L 198.773 211 L 198.773 214 L 203.954 214 L 203.954 211 L 208.864 211 L 208.864 214 L 214 214 L 214 208.864 L 211 208.864 L 211 203.954 L 214 203.954 L 214 198.773 L 211 198.773 L 211 193.863 L 214 193.863 L 214 188.682 L 211 188.682 L 211 183.772 L 214 183.772 L 214 178.591 L 211 178.591 L 211 173.681 L 214 173.681 L 214 168.5 L 211 168.5 L 211 163.59 L 214 163.59 L 214 158.41 L 211 158.41 L 211 153.5 L 214 153.5 L 214 148.319 L 211 148.319 L 211 143.409 L 214 143.409 L 214 138.228 L 211 138.228 L 211 133.318 L 214 133.318 L 214 128.137 L 211 128.137 L 211 123.227 L 214 123.227 L 214 118.046 L 211 118.046 L 211 113.136 L 214 113.136 L 214 108 L 208.864 108 L 208.864 111 L 203.954 111 L 203.954 108 L 198.773 108 L 198.773 111 L 193.863 111 L 193.863 108 L 188.682 108 L 188.682 111 L 183.772 111 L 183.772 108 L 178.591 108 L 178.591 111 L 173.681 111 L 173.681 108 L 168.5 108 L 168.5 111 L 163.59 111 L 163.59 108 L 158.41 108 L 158.41 111 L 153.5 111 L 153.5 108 L 148.319 108 L 148.319 111 L 143.409 111 L 143.409 108 L 138.228 108 L 138.228 111 L 133.318 111 L 133.318 108 L 128.137 108 L 128.137 111 L 123.227 111 L 123.227 108 L 118.046 108 L 118.046 111 L 113.136 111 L 113.136 108 L 108 108 Z"/>
    <g id="piece_004">
      <path id="line_013" style="fill:none;stroke:#000000;stroke-width:0.1" d="M 218 111 L 218 113.046 L 215 113.046 L 215 118.136 L 218 118.136 L 218 123.137 L 215 123.137 L 215 128.227 L 218 128.227 L 218 133.228 L 215 133.228 L 215 138.318 L 218 138.318 L 218 143.319 L 215 143.319 L 215 148.409 L 218 148.409 L 218 153.41 L 215 153.41 L 215 158.5 L 218 158.5 L 218 163.5 L 215 163.5 L 215 168.59 L 218 168.59 L 218 173.591 L 215 173.591 L 215 178.681 L 218 178.681 L 218 183.682 L 215 183.682 L 215 188.772 L 218 188.772 L 218 193.773 L 215 193.773 L 215 198.863 L 218 198.863 L 218 203.864 L 215 203.864 L 215 208.954 L 218 208.954 L 218 211 L 220.046 211 L 220.046 214 L 225.136 214 L 225.136 211 L 230.137 211 L 230.137 214 L 235.227 214 L 235.227 211 L 240.228 211 L 240.228 214 L 245.318 214 L 245.318 211 L 250.319 211 L 250.319 214 L 255.409 214 L 255.409 211 L 422.252 211 L 422.252 111 L 255.409 111 L 255.409 108 L 250.319 108 L 250.319 111 L 245.318 111 L 245.318 108 L 240.228 108 L 240.228 111 L 235.227 111 L 235.227 108 L 230.137 108 L 230.137 111 L 225.136 111 L 225.136 108 L 220.046 108 L 220.046 111 L 218 111 Z"/>
      <path id="thumbtab_001" style="fill:none;stroke:#000000;stroke-width:0.1" d="M 401.252 113.136 L 407.252 113.136 L 407.252 118.046 L 401.252 118.046 L 401.252 113.136 Z"/>
      <path id="thumbtab_002" style="fill:none;stroke:#000000;stroke-width:0.1" d="M 401.252 123.227 L 407.252 123.227 L 407.252 128.137 L 401.252 128.137 L 401.252 123.227 Z"/>
      <path id="thumbtab_003" style="fill:none;stroke:#000000;stroke-width:0.1" d="M 401.252 133.318 L 407.252 133.318 L 407.252 138.228 L 401.252 138.228 L 401.252 133.318 Z"/>
      <path id="thumbtab_004" style="fill:none;stroke:#000000;stroke-width:0.1" d="M 401.252 143.409 L 407.252 143.409 L 407.252 148.319 L 401.252 148.319 L 401.252 143.409 Z"/>
      <path id="thumbtab_005" style="fill:none;stroke:#000000;stroke-width:0.1" d="M 401.252 153.5 L 407.252 153.5 L 407.252 158.41 L 401.252 158.41 L 401.252 153.5 Z"/>
      <path id="thumbtab_006" style="fill:none;stroke:#000000;stroke-width:0.1" d="M 401.252 163.59 L 407.252 163.59 L 407.252 168.5 L 401.252 168.5 L 401.252 163.59 Z"/>
      <path id="thumbtab_007" style="fill:none;stroke:#000000;stroke-width:0.1" d="M 401.252 173.681 L 407.252 173.681 L 407.252 178.591 L 401.252 178.591 L 401.252 173.681 Z"/>
      <path id="thumbtab_008" style="fill:none;stroke:#000000;stroke-width:0.1" d="M 401.252 183.772 L 407.252 183.772 L 407.252 188.682 L 401.252 188.682 L 401.252 183.772 Z"/>
      <path id="thumbtab_009" style="fill:none;stroke:#000000;stroke-width:0.1" d="M 401.252 193.863 L 407.252 193.863 L 407.252 198.773 L 401.252 198.773 L 401.252 193.863 Z"/>
      <path id="thumbtab_010" style="fill:none;stroke:#000000;stroke-width:0.1" d="M 401.252 203.954 L 407.252 203.954 L 407.252 208.864 L 401.252 208.864 L 401.252 203.954 Z"/>
      <g id="hinge_001">
        <path id="line_017" style="fill:none;stroke:#000000;stroke-width:0.1" d="M 308.626 162 L 308.626 158 L 312.626 158 L 312.626 166 L 304.626 166 L 304.626 154 L 316.626 154 L 316.626 170 L 300.626 170 L 300.626 150 L 320.626 150 L 320.626 174 L 296.626 174 L 296.626 146 L 324.626 146 L 324.626 178 L 292.626 178 L 292.626 142 L 328.626 142 L 328.626 182 L 288.626 182 L 288.626 138 L 332.626 138 L 332.626 186 L 284.626 186 L 284.626 134 L 336.626 134 L 336.626 190 L 280.626 190 L 280.626 130 L 340.626 130 L 340.626 194 L 276.626 194 L 276.626 126 L 344.626 126 L 344.626 198 L 272.626 198 L 272.626 122 L 348.626 122 L 348.626 202 L 268.626 202 L 268.626 118 L 352.626 118 L 352.626 206 L 264.626 206 L 264.626 114 L 356.626 114 L 356.626 210"/>
        <path id="line_019" style="fill:none;stroke:#000000;stroke-width:0.1" d="M 310.626 160 L 310.626 164 L 306.626 164 L 306.626 156 L 314.626 156 L 314.626 168 L 302.626 168 L 302.626 152 L 318.626 152 L 318.626 172 L 298.626 172 L 298.626 148 L 322.626 148 L 322.626 176 L 294.626 176 L 294.626 144 L 326.626 144 L 326.626 180 L 290.626 180 L 290.626 140 L 330.626 140 L 330.626 184 L 286.626 184 L 286.626 136 L 334.626 136 L 334.626 188 L 282.626 188 L 282.626 132 L 338.626 132 L 338.626 192 L 278.626 192 L 278.626 128 L 342.626 128 L 342.626 196 L 274.626 196 L 274.626 124 L 346.626 124 L 346.626 200 L 270.626 200 L 270.626 120 L 350.626 120 L 350.626 204 L 266.626 204 L 266.626 116 L 354.626 116 L 354.626 208 L 262.626 208 L 262.626 112"/>
      </g>
    </g>
    <path id="piece_005" style="fill:none;stroke:#000000;stroke-width:0.1" d="M 108 1 L 108 6.13591 L 111 6.13591 L 111 11.0459 L 108 11.0459 L 108 16.2268 L 111 16.2268 L 111 21.1368 L 108 21.1368 L 108 26.3177 L 111 26.3177 L 111 31.2277 L 108 31.2277 L 108 36.4086 L 111 36.4086 L 111 41.3186 L 108 41.3186 L 108 46.4995 L 111 46.4995 L 111 51.4095 L 108 51.4095 L 108 56.5905 L 111 56.5905 L 111 61.5005 L 108 61.5005 L 108 66.6814 L 111 66.6814 L 111 71.5914 L 108 71.5914 L 108 76.7723 L 111 76.7723 L 111 81.6823 L 108 81.6823 L 108 86.8632 L 111 86.8632 L 111 91.7732 L 108 91.7732 L 108 96.9541 L 111 96.9541 L 111 101.864 L 108 101.864 L 108 104 L 113.046 104 L 113.046 107 L 118.136 107 L 118.136 104 L 123.137 104 L 123.137 107 L 128.227 107 L 128.227 104 L 133.228 104 L 133.228 107 L 138.318 107 L 138.318 104 L 143.319 104 L 143.319 107 L 148.409 107 L 148.409 104 L 153.41 104 L 153.41 107 L 158.5 107 L 158.5 104 L 163.5 104 L 163.5 107 L 168.59 107 L 168.59 104 L 173.591 104 L 173.591 107 L 178.681 107 L 178.681 104 L 183.682 104 L 183.682 107 L 188.772 107 L 188.772 104 L 193.773 104 L 193.773 107 L 198.863 107 L 198.863 104 L 203.864 104 L 203.864 107 L 208.954 107 L 208.954 104 L 214 104 L 214 101.864 L 211 101.864 L 211 96.9541 L 214 96.9541 L 214 91.7732 L 211 91.7732 L 211 86.8632 L 214 86.8632 L 214 81.6823 L 211 81.6823 L 211 76.7723 L 214 76.7723 L 214 71.5914 L 211 71.5914 L 211 66.6814 L 214 66.6814 L 214 54 A 53 53 0 0 0 198.477 16.5233 A 53 53 0 0 0 161 1 L 108 1 Z"/>
  </g>
</svg>