<!-- Created with Inkscape (http://www.inkscape.org/) -->
<svg xmlns:inkscape="http://www.inkscape.org/namespaces/inkscape" xmlns:sodipodi="http://sodipodi.sourceforge.net/DTD/sodipodi-0.dtd" xmlns="http://www.w3.org/2000/svg" xmlns:svg="http://www.w3.org/2000/svg" width="423.252mm" height="322.00000000438393mm" viewBox="0 0 423.252 322.00000000438393" version="1.1" id="svg5" inkscape:version="1.1.2 (0a00cf5339, 2022-02-04)" sodipodi:docname="blank.svg">
  <sodipodi:namedview id="namedview7" pagecolor="#ffffff" bordercolor="#666666" borderopacity="1.0" inkscape:pageshadow="2" inkscape:pageopacity="0.0" inkscape:pagecheckerboard="0" inkscape:document-units="mm" showgrid="false" inkscape:zoom="0.64052329" inkscape:cx="397.33138" inkscape:cy="561.25984" inkscape:window-width="2086" inkscape:window-height="1376" inkscape:window-x="0" inkscape:window-y="0" inkscape:window-maximized="1" inkscape:current-layer="layer1"/>
  <defs id="defs2"/>
  <g inkscape:label="Layer 1" inkscape:groupmode="layer" id="layer1">
    <metadata text="$ livinghinge.py --unit=mm --inside=True --length=100.00 --width=100.00 --depth=100.00 --thickness=3.00 --equal=0 --tab=5.00 --hingeOpt=0 --hingeThick=2.00 --thumbTab=15.00 --hairline=True --line-thickness=0.100 --line-color=black --kerf=0.100 --clearance=0.010 --style=0 --spacing=1.00"/>
    <path id="piece_001" style="fill:none;stroke:#000000;stroke-width:0.1" d="M 108 218 L 113.046 218 L 113.046 215 L 118.136 215 L 118.136 218 L 123.137 218 L 123.137 215 L 128.227 215 L 128.227 218 L 133.228 218 L 133.228 215 L 138.318 215 L 138.318 218 L 143.319 218 L 143.319 215 L 148.409 215 L 148.409 218 L 153.41 218 L 153.41 215 L 158.5 215 L 158.5 218 L 163.5 218 L 163.5 215 L 168.59 215 L 168.59 218 L 173.591 218 L 173.591 215 L 178.681 215 L 178.681 218 L 183.682 218 L 183.682 215 L 188.772 215 L 188.772 218 L 193.773 218 L 193.773 215 L 198.863 215 L 198.863 218 L 203.864 218 L 203.864 215 L 208.954 215 L 208.954 218 L 214 218 L 214 220.136 L 211 220.136 L 211 225.046 L 214 225.046 L 214 230.227 L 211 230.227 L 211 235.137 L 214 235.137 L 214 240.318 L 211 240.318 L 211 245.228 L 214 245.228 L 214 250.409 L 211 250.409 L 211 255.319 L 214 255.319 L 214 268 A 53 53 0 0 1 198.477 305.477 A 53 53 0 0 1 161 321 L 108 321 L 108 315.864 L 111 315.864 L 111 310.954 L 108 310.954 L 108 305.773 L 111 305.773 L 111 300.863 L 108 300.863 L 108 295.682 L 111 295.682 L 111 290.772 L 108 290.772 L 108 285.591 L 111 285.591 L 111 280.681 L 108 280.681 L 108 275.5 L 111 275.5 L 111 270.59 L 108 270.59 L 108 265.41 L 111 265.41 L 111 260.5 L 108 260.5 L 108 255.319 L 111 255.319 L 111 250.409 L 108 250.409 L 108 245.228 L 111 245.228 L 111 240.318 L 108 240.318 L 108 235.137 L 111 235.137 L 111 230.227 L 108 230.227 L 108 225.046 L 111 225.046 L 111 220.136 L 108 220.136 L 108 218 Z"/>
    <path id="piece_002" style="fill:none;stroke:#000000;stroke-width:0.1" d="M 4 111 L 6.04591 111 L 6.04591 108 L 11.1359 108 L 11.1359 111 L 16.1368 111 L 16.1368 108 L 21.2268 108 L 21.2268 111 L 26.2277 111 L 26.2277 108 L 31.3177 108 L 31.3177 111 L 36.3186 111 L 36.3186 108 L 41.4086 108 L 41.4086 111 L 46.4095 111 L 46.4095 108 L 51.4995 108 L 51.4995 111 L 56.5005 111 L 56.5005 108 L 61.5905 108 L 61.5905 111 L 66.5914 111 L 66.5914 108 L 71.6814 108 L 71.6814 111 L 76.6823 111 L 76.6823 108 L 81.7723 108 L 81.7723 111 L 86.7732 111 L 86.7732 108 L 91.8632 108 L 91.8632 111 L 96.8641 111 L 96.8641 108 L 101.954 108 L 101.954 111 L 104 111 L 104 113.046 L 107 113.046 L 107 118.136 L 104 118.136 L 104 123.137 L 107 123.137 L 107 128.227 L 104 128.227 L 104 133.228 L 107 133.228 L 107 138.318 L 104 138.318 L 104 143.319 L 107 143.319 L 107 148.409 L 104 148.409 L 104 153.41 L 107 153.41 L 107 158.5 L 104 158.5 L 104 163.5 L 107 163.5 L 107 168.59 L 104 168.59 L 104 173.591 L 107 173.591 L 107 178.681 L 104 178.681 L 104 183.682 L 107 183.682 L 107 188.772 L 104 188.772 L 104 193.773 L 107 193.773 L 107 198.863 L 104 198.863 L 104 203.864 L 107 203.864 L 107 208.954 L 104 208.954 L 104 211 L 101.954 211 L 101.954 214 L 96.8641 214 L 96.8641 211 L 91.8632 211 L 91.8632 214 L 86.7732 214 L 86.7732 211 L 81.7723 211 L 81.7723 214 L 76.6823 214 L 76.6823 211 L 71.6814 211 L 71.6814 214 L 66.5914 214 L 66.5914 211 L 61.5905 211 L 61.5905 214 L 56.5005 214 L 56.5005 211 L 51.4995 211 L 51.4995 214 L 46.4095 214 L 46.4095 211 L 41.4086 211 L 41.4086 214 L 36.3186 214 L 36.3186 211 L 31.3177 211 L 31.3177 214 L 26.2277 214 L 26.2277 211 L 21.2268 211 L 21.2268 214 L 16.1368 214 L 16.1368 211 L 11.1359 211 L 11.1359 214 L 6.04591 214 L 6.04591 211 L 4 211 L 4 208.954 L 1 208.954 L 1 203.864 L 4 203.864 L 4 198.863 L 1 198.863 L 1 193.773 L 4 193.773 L 4 188.772 L 1 188.772 L 1 183.682 L 4 183.682 L 4 178.681 L 1 178.681 L 1 173.591 L 4 173.591 L 4 168.59 L 1 168.59 L 1 163.5 L 4 163.5 L 4 158.5 L 1 158.5 L 1 153.41 L 4 153.41 L 4 148.409 L 1 148.409 L 1 143.319 L 4 143.319 L 4 138.318 L 1 138.318 L 1 133.228 L 4 133.228 L 4 128.227 L 1 128.227 L 1 123.137 L 4 123.137 L 4 118.136 L 1 118.136 L 1 113.046 L 4 113.046 L 4 111 Z"/>
    <path id="piece_003" style="fill:none;stroke:#000000;stroke-width:0.1" d="M 108 108 L 113.136 108 L 113.136 111 L 118.046 111 L 118.046 108 L 123.227 108 L 123.227 111 L 128.137 111 L 128.137 108 L 133.318 108 L 133.318 111 L 138.228 111 L 138.228 108 L 143.409 108 L 143.409 111 L 148.319 111 L 148.319 108 L 153.5 108 L 153.5 111 L 158.41 111 L 158.41 108 L 163.59 108 L 163.59 111 L 168.5 111 L 168.5 108 L 173.681 108 L 173.681 111 L 178.591 111 L 178.591 108 L 183.772 108 L 183.772 111 L 188.682 111 L 188.682 108 L 193.863 108 L 193.863 111 L 198.773 111 L 198.773 108 L 203.954 108 L 203.954 111 L 208.864 111 L 208.864 108 L 214 108 L 214 113.136 L 211 113.136 L 211 118.046 L 214 118.046 L 214 123.227 L 211 123.227 L 211 128.137 L 214 128.137 L 214 133.318 L 211 133.318 L 211 138.228 L 214 138.228 L 214 143.409 L 211 143.409 L 211 148.319 L 214 148.319 L 214 153.5 L 211 153.5 L 211 158.41 L 214 158.41 L 214 163.59 L 211 163.59 L 211 168.5 L 214 168.5 L 214 173.681 L 211 173.681 L 211 178.591 L 214 178.591 L 214 183.772 L 211 183.772 L 211 188.682 L 214 188.682 L 214 193.863 L 211 193.863 L 211 198.773 L 214 198.773 L 214 203.954 L 211 203.954 L 211 208.864 L 214 208.864 L 214 214 L 208.864 214 L 208.864 211 L 203.954 211 L 203.954 214 L 198.773 214 L 198.773 211 L 193.863 211 L 193.863 214 L 188.682 214 L 188.682 211 L 183.772 211 L 183.772 214 L 178.591 214 L 178.591 211 L 173.681 211 L 173.681 214 L 168.5 214 L 168.5 211 L 163.59 211 L 163.59 214 L 158.41 214 L 158.41 211 L 153.5 211 L 153.5 214 L 148.319 214 L 148.319 211 L 143.409 211 L 143.409 214 L 138.228 214 L 138.228 211 L 133.318 211 L 133.318 214 L 128.137 214 L 128.137 211 L 123.227 211 L 123.227 214 L 118.046 214 L 118.046 211 L 113.136 211 L 113.136 214 L 108 214 L 108 208.864 L 111 208.864 L 111 203.954 L 108 203.954 L 108 198.773 L 111 198.773 L 111 193.863 L 108 193.863 L 108 188.682 L 111 188.682 L 111 183.772 L 108 183.772 L 108 178.591 L 111 178.591 L 111 173.681 L 108 173.681 L 108 168.5 L 111 168.5 L 111 163.59 L 108 163.59 L 108 158.41 L 111 158.41 L 111 153.5 L 108 153.5 L 108 148.319 L 111 148.319 L 111 143.409 L 108 143.409 L 108 138.228 L 111 138.228 L 111 133.318 L 108 133.318 L 108 128.137 L 111 128.137 L 111 123.227 L 108 123.227 L 108 118.046 L 111 118.046 L 111 113.136 L 108 113.136 L 108 108 Z"/>
    <g id="piece_004">
      <path id="line_013" style="fill:none;stroke:#000000;stroke-width:0.1" d="M 218 111 L 220.046 111 L 220.046 108 L 225.136 108 L 225.136 111 L 230.137 111 L 230.137 108 L 235.227 108 L 235.227 111 L 240.228 111 L 240.228 108 L 245.318 108 L 245.318 111 L 250.319 111 L 250.319 108 L 255.409 108 L 255.409 111 L 407.252 111 L 422.252 111 L 422.252 211 L 407.252 211 L 255.409 211 L 255.409 214 L 250.319 214 L 250.319 211 L 245.318 211 L 245.318 214 L 240.228 214 L 240.228 211 L 235.227 211 L 235.227 214 L 230.137 214 L 230.137 211 L 225.136 211 L 225.136 214 L 220.046 214 L 220.046 211 L 218 211 L 218 208.954 L 215 208.954 L 215 203.864 L 218 203.864 L 218 198.863 L 215 198.863 L 215 193.773 L 218 193.773 L 218 188.772 L 215 188.772 L 215 183.682 L 218 183.682 L 218 178.681 L 215 178.681 L 215 173.591 L 218 173.591 L 218 168.59 L 215 168.59 L 215 163.5 L 218 163.5 L 218 158.5 L 215 158.5 L 215 153.41 L 218 153.41 L 218 148.409 L 215 148.409 L 215 143.319 L 218 143.319 L 218 138.318 L 215 138.318 L 215 133.228 L 218 133.228 L 218 128.227 L 215 128.227 L 215 123.137 L 218 123.137 L 218 118.136 L 215 118.136 L 215 113.046 L 218 113.046 L 218 111 Z"/>
      <path id="thumbtab_001" style="fill:none;stroke:#000000;stroke-width:0.1" d="M 401.252 113.136 L 407.252 113.136 L 407.252 118.046 L 401.252 118.046 L 401.252 113.136 Z"/>
      <path id="thumbtab_002" style="fill:none;stroke:#000000;stroke-width:0.1" d="M 401.252 123.227 L 407.252 123.227 L 407.252 128.137 L 401.252 128.137 L 401.252 123.227 Z"/>
      <path id="thumbtab_003" style="fill:none;stroke:#000000;stroke-width:0.1" d="M 401.252 133.318 L 407.252 133.318 L 407.252 138.228 L 401.252 138.228 L 401.252 133.318 Z"/>
      <path id="thumbtab_004" style="fill:none;stroke:#000000;stroke-width:0.1" d="M 401.252 143.409 L 407.252 143.409 L 407.252 148.319 L 401.252 148.319 L 401.252 143.409 Z"/>
      <path id="thumbtab_005" style="fill:none;stroke:#000000;stroke-width:0.1" d="M 401.252 153.5 L 407.252 153.5 L 407.252 158.41 L 401.252 158.41 L 401.252 153.5 Z"/>
      <path id="thumbtab_006" style="fill:none;stroke:#000000;stroke-width:0.1" d="M 401.252 163.59 L 407.252 163.59 L 407.252 168.5 L 401.252 168.5 L 401.252 163.59 Z"/>
      <path id="thumbtab_007" style="fill:none;stroke:#000000;stroke-width:0.1" d="M 401.252 173.681 L 407.252 173.681 L 407.252 178.591 L 401.252 178.591 L 401.252 173.681 Z"/>
      <path id="thumbtab_008" style="fill:none;stroke:#000000;stroke-width:0.1" d="M 401.252 183.772 L 407.252 183.772 L 407.252 188.682 L 401.252 188.682 L 401.252 183.772 Z"/>
      <path id="thumbtab_009" style="fill:none;stroke:#000000;stroke-width:0.1" d="M 401.252 193.863 L 407.252 193.863 L 407.252 198.773 L 401.252 198.773 L 401.252 193.863 Z"/>
      <path id="thumbtab_010" style="fill:none;stroke:#000000;stroke-width:0.1" d="M 401.252 203.954 L 407.252 203.954 L 407.252 208.864 L 401.252 208.864 L 401.252 203.954 Z"/>
      <g id="hinge_001">
        <path id="line_017" style="fill:none;stroke:#000000;stroke-width:0.1" d="M 268 115 L 268 159"/>
        <path id="line_018" style="fill:none;stroke:#000000;stroke-width:0.1" d="M 268 163 L 268 207"/>
        <path id="line_019" style="fill:none;stroke:#000000;stroke-width:0.1" d="M 269.982 111 L 269.982 134"/>
        <path id="line_020" style="fill:none;stroke:#000000;stroke-width:0.1" d="M 269.982 138 L 269.982 184"/>
        <path id="line_021" style="fill:none;stroke:#000000;stroke-width:0.1" d="M 269.982 188 L 269.982 211"/>
        <path id="line_022" style="fill:none;stroke:#000000;stroke-width:0.1" d="M 271.964 115 L 271.964 159"/>
        <path id="line_023" style="fill:none;stroke:#000000;stroke-width:0.1" d="M 271.964 163 L 271.964 207"/>
        <path id="line_024" style="fill:none;stroke:#000000;stroke-width:0.1" d="M 273.947 111 L 273.947 134"/>
        <path id="line_025" style="fill:none;stroke:#000000;stroke-width:0.1" d="M 273.947 138 L 273.947 184"/>
        <path id="line_026" style="fill:none;stroke:#000000;stroke-width:0.1" d="M 273.947 188 L 273.947 211"/>
        <path id="line_027" style="fill:none;stroke:#000000;stroke-width:0.1" d="M 275.929 115 L 275.929 159"/>
        <path id="line_028" style="fill:none;stroke:#000000;stroke-width:0.1" d="M 275.929 163 L 275.929 207"/>
        <path id="line_029" style="fill:none;stroke:#000000;stroke-width:0.1" d="M 277.911 111 L 277.911 134"/>
        <path id="line_030" style="fill:none;stroke:#000000;stroke-width:0.1" d="M 277.911 138 L 277.911 184"/>
        <path id="line_031" style="fill:none;stroke:#000000;stroke-width:0.1" d="M 277.911 188 L 277.911 211"/>
        <path id="line_032" style="fill:none;stroke:#000000;stroke-width:0.1" d="M 279.893 115 L 279.893 159"/>
        <path id="line_033" style="fill:none;stroke:#000000;stroke-width:0.1" d="M 279.893 163 L 279.893 207"/>
        <path id="line_034" style="fill:none;stroke:#000000;stroke-width:0.1" d="M 281.875 111 L 281.875 134"/>
        <path id="line_035" style="fill:none;stroke:#000000;stroke-width:0.1" d="M 281.875 138 L 281.875 184"/>
        <path id="line_036" style="fill:none;stroke:#000000;stroke-width:0.1" d="M 281.875 188 L 281.875 211"/>
        <path id="line_037" style="fill:none;stroke:#000000;stroke-width:0.1" d="M 283.858 115 L 283.858 159"/>
        <path id="line_038" style="fill:none;stroke:#000000;stroke-width:0.1" d="M 283.858 163 L 283.858 207"/>
        <path id="line_039" style="fill:none;stroke:#000000;stroke-width:0.1" d="M 285.84 111 L 285.84 134"/>
        <path id="line_040" style="fill:none;stroke:#000000;stroke-width:0.1" d="M 285.84 138 L 285.84 184"/>
        <path id="line_041" style="fill:none;stroke:#000000;stroke-width:0.1" d="M 285.84 188 L 285.84 211"/>
        <path id="line_042" style="fill:none;stroke:#000000;stroke-width:0.1" d="M 287.822 115 L 287.822 159"/>
        <path id="line_043" style="fill:none;stroke:#000000;stroke-width:0.1" d="M 287.822 163 L 287.822 207"/>
        <path id="line_044" style="fill:none;stroke:#000000;stroke-width:0.1" d="M 289.804 111 L 289.804 134"/>
        <path id="line_045" style="fill:none;stroke:#000000;stroke-width:0.1" d="M 289.804 138 L 289.804 184"/>
        <path id="line_046" style="fill:none;stroke:#000000;stroke-width:0.1" d="M 289.804 188 L 289.804 211"/>
        <path id="line_047" style="fill:none;stroke:#000000;stroke-width:0.1" d="M 291.786 115 L 291.786 159"/>
        <path id="line_048" style="fill:none;stroke:#000000;stroke-width:0.1" d="M 291.786 163 L 291.786 207"/>
        <path id="line_049" style="fill:none;stroke:#000000;stroke-width:0.1" d="M 293.769 111 L 293.769 134"/>
        <path id="line_050" style="fill:none;stroke:#000000;stroke-width:0.1" d="M 293.769 138 L 293.769 184"/>
        <path id="line_051" style="fill:none;stroke:#000000;stroke-width:0.1" d="M 293.769 188 L 293.769 211"/>
        <path id="line_052" style="fill:none;stroke:#000000;stroke-width:0.1" d="M 295.751 115 L 295.751 159"/>
        <path id="line_053" style="fill:none;stroke:#000000;stroke-width:0.1" d="M 295.751 163 L 295.751 207"/>
        <path id="line_054" style="fill:none;stroke:#000000;stroke-width:0.1" d="M 297.733 111 L 297.733 134"/>
        <path id="line_055" style="fill:none;stroke:#000000;stroke-width:0.1" d="M 297.733 138 L 297.733 184"/>
        <path id="line_056" style="fill:none;stroke:#000000;stroke-width:0.1" d="M 297.733 188 L 297.733 211"/>
        <path id="line_057" style="fill:none;stroke:#000000;stroke-width:0.1" d="M 299.715 115 L 299.715 159"/>
        <path id="line_058" style="fill:none;stroke:#000000;stroke-width:0.1" d="M 299.715 163 L 299.715 207"/>
        <path id="line_059" style="fill:none;stroke:#000000;stroke-width:0.1" d="M 301.697 111 L 301.697 134"/>
        <path id="line_060" style="fill:none;stroke:#000000;stroke-width:0.1" d="M 301.697 138 L 301.697 184"/>
        <path id="line_061" style="fill:none;stroke:#000000;stroke-width:0.1" d="M 301.697 188 L 301.697 211"/>
        <path id="line_062" style="fill:none;stroke:#000000;stroke-width:0.1" d="M 303.68 115 L 303.68 159"/>
        <path id="line_063" style="fill:none;stroke:#000000;stroke-width:0.1" d="M 303.68 163 L 303.68 207"/>
        <path id="line_064" style="fill:none;stroke:#000000;stroke-width:0.1" d="M 305.662 111 L 305.662 134"/>
        <path id="line_065" style="fill:none;stroke:#000000;stroke-width:0.1" d="M 305.662 138 L 305.662 184"/>
        <path id="line_066" style="fill:none;stroke:#000000;stroke-width:0.1" d="M 305.662 188 L 305.662 211"/>
        <path id="line_067" style="fill:none;stroke:#000000;stroke-width:0.1" d="M 307.644 115 L 307.644 159"/>
        <path id="line_068" style="fill:none;stroke:#000000;stroke-width:0.1" d="M 307.644 163 L 307.644 207"/>
        <path id="line_069" style="fill:none;stroke:#000000;stroke-width:0.1" d="M 309.626 111 L 309.626 134"/>
        <path id="line_070" style="fill:none;stroke:#000000;stroke-width:0.1" d="M 309.626 138 L 309.626 184"/>
        <path id="line_071" style="fill:none;stroke:#000000;stroke-width:0.1" d="M 309.626 188 L 309.626 211"/>
        <path id="line_072" style="fill:none;stroke:#000000;stroke-width:0.1" d="M 311.608 115 L 311.608 159"/>
        <path id="line_073" style="fill:none;stroke:#000000;stroke-width:0.1" d="M 311.608 163 L 311.608 207"/>
        <path id="line_074" style="fill:none;stroke:#000000;stroke-width:0.1" d="M 313.59 111 L 313.59 134"/>
        <path id="line_075" style="fill:none;stroke:#000000;stroke-width:0.1" d="M 313.59 138 L 313.59 184"/>
        <path id="line_076" style="fill:none;stroke:#000000;stroke-width:0.1" d="M 313.59 188 L 313.59 211"/>
        <path id="line_077" style="fill:none;stroke:#000000;stroke-width:0.1" d="M 315.573 115 L 315.573 159"/>
        <path id="line_078" style="fill:none;stroke:#000000;stroke-width:0.1" d="M 315.573 163 L 315.573 207"/>
        <path id="line_079" style="fill:none;stroke:#000000;stroke-width:0.1" d="M 317.555 111 L 317.555 134"/>
        <path id="line_080" style="fill:none;stroke:#000000;stroke-width:0.1" d="M 317.555 138 L 317.555 184"/>
        <path id="line_081" style="fill:none;stroke:#000000;stroke-width:0.1" d="M 317.555 188 L 317.555 211"/>
        <path id="line_082" style="fill:none;stroke:#000000;stroke-width:0.1" d="M 319.537 115 L 319.537 159"/>
        <path id="line_083" style="fill:none;stroke:#000000;stroke-width:0.1" d="M 319.537 163 L 319.537 207"/>
        <path id="line_084" style="fill:none;stroke:#000000;stroke-width:0.1" d="M 321.519 111 L 321.519 134"/>
        <path id="line_085" style="fill:none;stroke:#000000;stroke-width:0.1" d="M 321.519 138 L 321.519 184"/>
        <path id="line_086" style="fill:none;stroke:#000000;stroke-width:0.1" d="M 321.519 188 L 321.519 211"/>
        <path id="line_087" style="fill:none;stroke:#000000;stroke-width:0.1" d="M 323.501 115 L 323.501 159"/>
        <path id="line_088" style="fill:none;stroke:#000000;stroke-width:0.1" d="M 323.501 163 L 323.501 207"/>
        <path id="line_089" style="fill:none;stroke:#000000;stroke-width:0.1" d="M 325.484 111 L 325.484 134"/>
        <path id="line_090" style="fill:none;stroke:#000000;stroke-width:0.1" d="M 325.484 138 L 325.484 184"/>
        <path id="line_091" style="fill:none;stroke:#000000;stroke-width:0.1" d="M 325.484 188 L 325.484 211"/>
        <path id="line_092" style="fill:none;stroke:#000000;stroke-width:0.1" d="M 327.466 115 L 327.466 159"/>
        <path id="line_093" style="fill:none;stroke:#000000;stroke-width:0.1" d="M 327.466 163 L 327.466 207"/>
        <path id="line_094" style="fill:none;stroke:#000000;stroke-width:0.1" d="M 329.448 111 L 329.448 134"/>
        <path id="line_095" style="fill:none;stroke:#000000;stroke-width:0.1" d="M 329.448 138 L 329.448 184"/>
        <path id="line_096" style="fill:none;stroke:#000000;stroke-width:0.1" d="M 329.448 188 L 329.448 211"/>
        <path id="line_097" style="fill:none;stroke:#000000;stroke-width:0.1" d="M 331.43 115 L 331.43 159"/>
        <path id="line_098" style="fill:none;stroke:#000000;stroke-width:0.1" d="M 331.43 163 L 331.43 207"/>
        <path id="line_099" style="fill:none;stroke:#000000;stroke-width:0.1" d="M 333.412 111 L 333.412 134"/>
        <path id="line_100" style="fill:none;stroke:#000000;stroke-width:0.1" d="M 333.412 138 L 333.412 184"/>
        <path id="line_101" style="fill:none;stroke:#000000;stroke-width:0.1" d="M 333.412 188 L 333.412 211"/>
        <path id="line_102" style="fill:none;stroke:#000000;stroke-width:0.1" d="M 335.395 115 L 335.395 159"/>
        <path id="line_103" style="fill:none;stroke:#000000;stroke-width:0.1" d="M 335.395 163 L 335.395 207"/>
        <path id="line_104" style="fill:none;stroke:#000000;stroke-width:0.1" d="M 337.377 111 L 337.377 134"/>
        <path id="line_105" style="fill:none;stroke:#000000;stroke-width:0.1" d="M 337.377 138 L 337.377 184"/>
        <path id="line_106" style="fill:none;stroke:#000000;stroke-width:0.1" d="M 337.377 188 L 337.377 211"/>
        <path id="line_107" style="fill:none;stroke:#000000;stroke-width:0.1" d="M 339.359 115 L 339.359 159"/>
        <path id="line_108" style="fill:none;stroke:#000000;stroke-width:0.1" d="M 339.359 163 L 339.359 207"/>
        <path id="line_109" style="fill:none;stroke:#000000;stroke-width:0.1" d="M 341.341 111 L 341.341 134"/>
        <path id="line_110" style="fill:none;stroke:#000000;stroke-width:0.1" d="M 341.341 138 L 341.341 184"/>
        <path id="line_111" style="fill:none;stroke:#000000;stroke-width:0.1" d="M 341.341 188 L 341.341 211"/>
        <path id="line_112" style="fill:none;stroke:#000000;stroke-width:0.1" d="M 343.323 115 L 343.323 159"/>
        <path id="line_113" style="fill:none;stroke:#000000;stroke-width:0.1" d="M 343.323 163 L 343.323 207"/>
        <path id="line_114" style="fill:none;stroke:#000000;stroke-width:0.1" d="M 345.306 111 L 345.306 134"/>
        <path id="line_115" style="fill:none;stroke:#000000;stroke-width:0.1" d="M 345.306 138 L 345.306 184"/>
        <path id="line_116" style="fill:none;stroke:#000000;stroke-width:0.1" d="M 345.306 188 L 345.306 211"/>
        <path id="line_117" style="fill:none;stroke:#000000;stroke-width:0.1" d="M 347.288 115 L 347.288 159"/>
        <path id="line_118" style="fill:none;stroke:#000000;stroke-width:0.1" d="M 347.288 163 L 347.288 207"/>
        <path id="line_119" style="fill:none;stroke:#000000;stroke-width:0.1" d="M 349.27 111 L 349.27 134"/>
        <path id="line_120" style="fill:none;stroke:#000000;stroke-width:0.1" d="M 349.27 138 L 349.27 184"/>
        <path id="line_121" style="fill:none;stroke:#000000;stroke-width:0.1" d="M 349.27 188 L 349.27 211"/>
        <path id="line_122" style="fill:none;stroke:#000000;stroke-width:0.1" d="M 351.252 115 L 351.252 159"/>
        <path id="line_123" style="fill:none;stroke:#000000;stroke-width:0.1" d="M 351.252 163 L 351.252 207"/>
      </g>
    </g>
    <path id="piece_005" style="fill:none;stroke:#000000;stroke-width:0.1" d="M 108 1 L 161 1 A 53 53 0 0 1 198.477 16.5233 A 53 53 0 0 1 214 54 L 214 66.6814 L 211 66.6814 L 211 71.5914 L 214 71.5914 L 214 76.7723 L 211 76.7723 L 211 81.6823 L 214 81.6823 L 214 86.8632 L 211 86.8632 L 211 91.7732 L 214 91.7732 L 214 96.9541 L 211 96.9541 L 211 101.864 L 214 101.864 L 214 104 L 208.954 104 L 208.954 107 L 203.864 107 L 203.864 104 L 198.863 104 L 198.863 107 L 193.773 107 L 193.773 104 L 188.772 104 L 188.772 107 L 183.682 107 L 183.682 104 L 178.681 104 L 178.681 107 L 173.591 107 L 173.591 104 L 168.59 104 L 168.59 107 L 163.5 107 L 163.5 104 L 158.5 104 L 158.5 107 L 153.41 107 L 153.41 104 L 148.409 104 L 148.409 107 L 143.319 107 L 143.319 104 L 138.318 104 L 138.318 107 L 133.228 107 L 133.228 104 L 128.227 104 L 128.227 107 L 123.137 107 L 123.137 104 L 118.136 104 L 118.136 107 L 113.046 107 L 113.046 104 L 108 104 L 108 101.864 L 111 101.864 L 111 96.9541 L 108 96.9541 L 108 91.7732 L 111 91.7732 L 111 86.8632 L 108 86.8632 L 108 81.6823 L 111 81.6823 L 111 76.7723 L 108 76.7723 L 108 71.5914 L 111 71.5914 L 111 66.6814 L 108 66.6814 L 108 61.5005 L 111 61.5005 L 111 56.5905 L 108 56.5905 L 108 51.4095 L 111 51.4095 L 111 46.4995 L 108 46.4995 L 108 41.3186 L 111 41.3186 L 111 36.4086 L 108 36.4086 L 108 31.2277 L 111 31.2277 L 111 26.3177 L 108 26.3177 L 108 21.1368 L 111 21.1368 L 111 16.2268 L 108 16.2268 L 108 11.0459 L 111 11.0459 L 111 6.13591 L 108 6.13591 L 108 1 Z"/>
  </g>
</svg>